# Blender v2.79 (sub 7) OBJ File: ''
# www.blender.org
mtllib roadTile_191.mtl
o Mesh1_Group1_Model.177
v 0.000000 0.000000 -2.625000
v 0.000000 0.000000 -0.375000
v 0.000000 1.650000 -0.375000
v 0.000000 1.730000 -0.375000
v 0.000000 1.730000 -0.750000
v 0.000000 0.600000 -0.750000
v 0.000000 0.300000 -0.750000
v 0.000000 0.300000 -2.250000
v 0.000000 0.600000 -2.250000
v 0.000000 1.730000 -2.250000
v 0.000000 1.730000 -2.625000
v 0.000000 1.650000 -2.625000
v 3.000000 0.000000 -0.375000
v 3.000000 0.000000 -2.625000
v 3.000000 0.550000 -2.625000
v 3.000000 0.630000 -2.625000
v 3.000000 0.630000 -2.250000
v 3.000000 0.600000 -2.250000
v 3.000000 0.300000 -2.250000
v 3.000000 0.300000 -0.750000
v 3.000000 0.600000 -0.750000
v 3.000000 0.630000 -0.750000
v 3.000000 0.630000 -0.375000
v 3.000000 0.550000 -0.375000
v 3.000000 0.000000 0.000000
v 0.000000 0.000000 0.000000
v 0.000000 0.000000 -3.000000
v 3.000000 0.000000 -3.000000
v 3.000000 0.550000 0.000000
v 0.000000 1.650000 0.000000
v 3.000000 0.550000 -3.000000
v 0.000000 1.650000 -3.000000
vt -2.625000 -0.000000
vt -0.375000 -0.000000
vt -2.250000 0.300000
vt 0.375000 -0.000000
vt 2.625000 -0.000000
vt 0.750000 0.300000
vt -3.000000 0.630000
vt -0.000000 1.650000
vt -0.000000 1.730000
vt 2.625000 -2.599750
vt 2.250000 0.595561
vt 2.250000 -2.599750
vt 0.000000 0.600000
vt 3.000000 0.630000
vt 0.000000 1.730000
vt -3.000000 0.630000
vt -0.000000 0.600000
vt -0.000000 1.730000
vt 0.375000 0.595561
vt 0.750000 -2.599750
vt 0.750000 0.595561
vt 0.000000 1.650000
vt 3.000000 0.630000
vt 0.000000 1.730000
vt -0.375000 1.650000
vt -0.750000 0.600000
vt -0.375000 1.730000
vt -0.750000 1.730000
vt -0.750000 0.300000
vt -2.625000 1.730000
vt -2.625000 1.650000
vt -2.250000 1.730000
vt -2.250000 0.600000
vt 2.625000 0.550000
vt 2.250000 0.300000
vt 2.625000 0.630000
vt 2.250000 0.600000
vt 2.250000 0.630000
vt 0.375000 0.630000
vt 0.375000 0.550000
vt 0.750000 0.600000
vt 0.750000 0.630000
vt -3.000000 0.550000
vt 2.625000 0.595561
vt 3.000000 0.600000
vt -3.000000 0.600000
vt 0.375000 -2.599750
vt 3.000000 0.550000
vt -3.000000 2.625000
vt -3.000000 0.375000
vt -0.000000 0.375000
vt 3.000000 0.550000
vt -0.000000 0.000000
vt 3.000000 -0.000000
vt 0.000000 0.550000
vt 0.000000 -0.000000
vt 3.000000 -0.000000
vt 3.000000 0.550000
vt 3.000000 0.568020
vt 2.625000 -2.627290
vt 3.000000 -2.627290
vt -0.000000 -0.000000
vt -3.000000 0.550000
vt -3.000000 -0.000000
vt -3.000000 1.650000
vt -3.000000 0.000000
vt 0.375000 -2.627290
vt 0.000000 0.568020
vt 0.000000 -2.627290
vt 0.000000 1.650000
vt -3.000000 0.000000
vt -0.000000 2.625000
vt -0.000000 3.000000
vt -3.000000 3.000000
vt 2.625000 0.568020
vt -0.000000 1.650000
vt 0.375000 0.568020
vt 3.000000 0.750000
vt 0.000000 2.250000
vt 0.000000 0.750000
vt 3.000000 2.250000
vn -1.0000 0.0000 0.0000
vn 1.0000 -0.0000 0.0000
vn -0.0000 0.0000 -1.0000
vn 0.3443 0.9389 0.0000
vn 0.0000 0.0000 1.0000
vn 0.0000 -1.0000 -0.0000
vn 0.0000 1.0000 0.0000
usemtl Stone.151
s 1
f 1/1/1 2/2/1 8/3/1
f 13/4/2 14/5/2 20/6/2
f 16/7/3 12/8/3 11/9/3
f 16/10/4 10/11/4 17/12/4
f 9/13/5 17/14/5 10/15/5
f 22/16/3 6/17/3 5/18/3
f 4/19/4 22/20/4 5/21/4
f 3/22/5 23/23/5 4/24/5
f 2/2/1 3/25/1 6/26/1
f 3/25/1 4/27/1 5/28/1
f 2/2/1 6/26/1 7/29/1
f 5/28/1 6/26/1 3/25/1
f 11/30/1 12/31/1 10/32/1
f 12/31/1 1/1/1 9/33/1
f 9/33/1 1/1/1 8/3/1
f 9/33/1 10/32/1 12/31/1
f 2/2/1 7/29/1 8/3/1
f 14/5/2 15/34/2 19/35/2
f 15/34/2 16/36/2 18/37/2
f 19/35/2 15/34/2 18/37/2
f 16/36/2 17/38/2 18/37/2
f 23/39/2 24/40/2 21/41/2
f 24/40/2 13/4/2 20/6/2
f 21/41/2 22/42/2 23/39/2
f 20/6/2 21/41/2 24/40/2
f 14/5/2 19/35/2 20/6/2
f 16/7/3 15/43/3 12/8/3
f 16/10/4 11/44/4 10/11/4
f 9/13/5 18/45/5 17/14/5
f 22/16/3 21/46/3 6/17/3
f 4/19/4 23/47/4 22/20/4
f 3/22/5 24/48/5 23/23/5
usemtl Grass.076
f 14/49/6 13/50/6 2/51/6
f 29/52/5 26/53/5 25/54/5
f 13/4/2 29/55/2 25/56/2
f 15/34/2 28/57/2 31/58/2
f 32/59/4 15/60/4 31/61/4
f 27/62/3 31/63/3 28/64/3
f 1/1/1 32/65/1 27/66/1
f 24/67/4 30/68/4 29/69/4
f 3/25/1 26/53/1 30/70/1
f 13/50/6 25/71/6 26/53/6
f 2/51/6 1/72/6 14/49/6
f 1/72/6 27/73/6 14/49/6
f 13/50/6 26/53/6 2/51/6
f 27/73/6 28/74/6 14/49/6
f 29/52/5 30/70/5 26/53/5
f 13/4/2 24/40/2 29/55/2
f 15/34/2 14/5/2 28/57/2
f 32/59/4 12/75/4 15/60/4
f 27/62/3 32/76/3 31/63/3
f 1/1/1 12/31/1 32/65/1
f 24/67/4 3/77/4 30/68/4
f 3/25/1 2/2/1 26/53/1
usemtl Asphalt.123
f 21/78/7 9/79/7 6/80/7
f 21/41/2 19/35/2 18/37/2
f 9/33/1 7/29/1 6/26/1
f 21/78/7 18/81/7 9/79/7
f 21/41/2 20/6/2 19/35/2
f 9/33/1 8/3/1 7/29/1
