# Blender v2.79 (sub 7) OBJ File: ''
# www.blender.org
mtllib roadTile_248.mtl
o Mesh1_Group1_Model.207
v -1.500000 1.700000 -0.750000
v 1.500000 1.700000 0.750000
v 1.500000 1.700000 -0.750000
v 1.500000 1.400000 0.750000
v -1.500000 1.400000 -0.750000
v -1.500000 1.700000 0.750000
v 1.500000 1.400000 -0.750000
v -1.500000 1.400000 0.750000
v -1.500000 1.730000 -0.750000
v 1.500000 1.100000 0.750000
v 1.500000 1.730000 0.750000
v -1.500000 1.100000 1.500000
v -1.500000 1.730000 1.500000
v -1.500000 1.100000 -1.500000
v 1.500000 1.730000 -1.500000
v 1.500000 0.000000 -1.500000
v 1.500000 0.000000 -0.750000
v -1.500000 1.100000 -0.750000
v 1.500000 1.100000 -0.750000
v -1.500000 1.100000 0.750000
v 1.500000 0.000000 0.750000
v 1.500000 0.000000 1.500000
v 1.500000 1.730000 1.500000
v -1.500000 1.730000 0.750000
v 1.500000 1.730000 -0.750000
v -1.500000 1.730000 -1.500000
vt 0.000000 2.250000
vt 3.000000 0.750000
vt 3.000000 2.250000
vt 0.750000 1.400000
vt 2.250000 1.700000
vt 0.750000 1.700000
vt -2.250000 1.400000
vt -0.750000 1.700000
vt -2.250000 1.700000
vt 0.000000 0.750000
vt 2.250000 1.400000
vt -0.750000 1.400000
vt 3.000000 1.700000
vt 0.000000 1.730000
vt 0.000000 1.700000
vt 0.750000 1.100000
vt -0.000000 1.700000
vt -3.000000 1.730000
vt -3.000000 1.700000
vt 0.000000 1.100000
vt 0.000000 1.730000
vt -0.000000 1.100000
vt -3.000000 1.730000
vt -3.000000 -0.000000
vt -2.250000 -2.816630
vt -3.000000 0.378680
vt -3.000000 -2.816630
vt 0.000000 1.100000
vt 3.000000 0.000000
vt 3.000000 1.100000
vt -0.000000 0.750000
vt -3.000000 2.250000
vt -3.000000 0.750000
vt -3.000000 0.000000
vt -0.000000 1.100000
vt -3.000000 1.100000
vt -0.750000 0.378680
vt -0.000000 -2.816630
vt 0.000000 0.378680
vt 3.000000 1.730000
vt 0.000000 0.000000
vt 3.000000 0.750000
vt 0.000000 0.750000
vt 3.000000 3.000000
vt 0.000000 2.250000
vt 3.000000 2.250000
vt 3.000000 1.730000
vt 0.000000 1.730000
vt 0.750000 1.730000
vt 0.000000 -0.000000
vt 0.750000 -0.000000
vt 2.250000 1.100000
vt 2.250000 -0.000000
vt 3.000000 -0.000000
vt 3.000000 1.730000
vt 2.250000 1.730000
vt -0.000000 1.730000
vt -2.250000 1.730000
vt -3.000000 1.730000
vt -3.000000 1.100000
vt -2.250000 1.100000
vt -0.750000 1.100000
vt -0.750000 1.730000
vt -0.000000 1.730000
vt -2.250000 0.378680
vt -0.000000 2.250000
vt -0.750000 -2.816630
vt 3.000000 -0.000000
vt 3.000000 0.000000
vt 0.000000 3.000000
vn 0.0000 1.0000 0.0000
vn 1.0000 0.0000 0.0000
vn -1.0000 0.0000 0.0000
vn 0.0000 0.0000 1.0000
vn 0.0000 0.0000 -1.0000
vn -0.3443 -0.9389 0.0000
vn 0.0000 -1.0000 -0.0000
usemtl Asphalt.150
s 1
f 1/1/1 2/2/1 3/3/1
f 4/4/2 3/5/2 2/6/2
f 5/7/3 6/8/3 1/9/3
f 1/1/1 6/10/1 2/2/1
f 4/4/2 7/11/2 3/5/2
f 5/7/3 8/12/3 6/8/3
usemtl Stone.180
f 3/13/4 9/14/4 1/15/4
f 7/11/2 4/4/2 10/16/2
f 6/17/5 11/18/5 2/19/5
f 12/20/3 13/21/3 8/12/3
f 14/22/5 15/23/5 16/24/5
f 17/25/6 14/26/6 16/27/6
f 18/28/4 17/29/4 19/30/4
f 20/31/7 19/32/7 10/33/7
f 21/34/5 20/35/5 10/36/5
f 20/37/6 22/38/6 12/39/6
f 12/20/4 23/40/4 13/21/4
f 13/41/1 11/42/1 24/43/1
f 15/44/1 9/45/1 25/46/1
f 3/13/4 25/47/4 9/14/4
f 4/4/2 2/6/2 23/48/2
f 2/6/2 11/49/2 23/48/2
f 4/4/2 23/48/2 10/16/2
f 23/48/2 22/50/2 10/16/2
f 22/50/2 21/51/2 10/16/2
f 19/52/2 17/53/2 16/54/2
f 19/52/2 16/54/2 15/55/2
f 15/55/2 25/56/2 3/5/2
f 15/55/2 3/5/2 7/11/2
f 19/52/2 15/55/2 7/11/2
f 10/16/2 19/52/2 7/11/2
f 6/17/5 24/57/5 11/18/5
f 9/58/3 26/59/3 1/9/3
f 26/59/3 14/60/3 5/7/3
f 1/9/3 26/59/3 5/7/3
f 18/61/3 20/62/3 8/12/3
f 20/62/3 12/20/3 8/12/3
f 14/60/3 18/61/3 5/7/3
f 8/12/3 5/7/3 18/61/3
f 13/21/3 24/63/3 6/8/3
f 13/21/3 6/8/3 8/12/3
f 14/22/5 26/64/5 15/23/5
f 17/25/6 18/65/6 14/26/6
f 20/31/7 18/66/7 19/32/7
f 20/37/6 21/67/6 22/38/6
f 12/20/4 22/68/4 23/40/4
f 13/41/1 23/69/1 11/42/1
f 15/44/1 26/70/1 9/45/1
