# Blender v2.79 (sub 7) OBJ File: ''
# www.blender.org
mtllib roadTile_193.mtl
o Mesh1_Group1_Model.108
v -1.500000 0.600000 -0.750000
v 0.840000 1.260000 -0.750000
v -1.500000 1.260000 -0.750000
v -1.500000 0.000000 -1.125000
v -1.500000 0.000000 1.125000
v -1.500000 0.300000 -0.750000
v -1.500000 0.550000 -1.125000
v 0.840000 1.260000 -1.125000
v 1.500000 0.550000 -1.125000
v 1.500000 0.600000 -0.750000
v 1.500000 0.000000 1.125000
v 1.500000 0.000000 -1.125000
v 1.500000 0.300000 0.750000
v 1.500000 0.550000 1.125000
v 1.500000 0.600000 1.125000
v 0.840000 1.260000 1.125000
v 0.840000 1.260000 0.750000
v 1.500000 0.600000 0.750000
v -1.500000 0.600000 0.750000
v -1.500000 1.260000 0.750000
v -1.500000 1.260000 1.125000
v -1.500000 1.260000 -1.125000
v -1.500000 0.550000 1.125000
v -1.500000 0.300000 0.750000
v 1.500000 0.600000 -1.125000
v 1.500000 0.300000 -0.750000
v -1.500000 0.550000 1.500000
v -1.500000 0.000000 1.500000
v 1.500000 0.550000 1.500000
v 1.500000 0.000000 1.500000
v -1.500000 0.550000 -1.500000
v -1.500000 0.000000 -1.500000
v 1.500000 0.550000 -1.500000
v 1.500000 0.000000 -1.500000
vt 0.000000 0.600000
vt 2.340000 1.260000
vt 0.000000 1.260000
vt -2.625000 0.000000
vt -0.375000 0.000000
vt -2.250000 0.300000
vt -0.000000 0.550000
vt -2.340000 1.260000
vt -3.000000 0.550000
vt 2.250000 -1.697060
vt 2.625000 -0.763675
vt 2.250000 -0.763675
vt 0.375000 0.000000
vt 2.625000 0.000000
vt 0.750000 0.300000
vt 3.000000 0.550000
vt 3.000000 0.600000
vt 2.340000 1.260000
vt 0.750000 -0.763675
vt 0.375000 -1.697060
vt 0.750000 -1.697060
vt -2.340000 1.260000
vt -0.000000 0.600000
vt -0.000000 1.260000
vt 0.000000 0.375000
vt 2.340000 0.750000
vt 0.000000 0.750000
vt 2.340000 2.625000
vt 0.000000 2.250000
vt 2.340000 2.250000
vt 3.000000 0.600000
vt -2.250000 1.260000
vt -2.625000 1.260000
vt -2.250000 0.600000
vt -2.625000 0.550000
vt -0.375000 0.550000
vt -0.750000 0.300000
vt -0.375000 1.260000
vt -0.750000 0.600000
vt -0.750000 1.260000
vt -0.000000 1.260000
vt -3.000000 0.600000
vt 2.625000 -1.697060
vt 2.625000 0.550000
vt 2.250000 0.300000
vt 2.625000 0.600000
vt 2.250000 0.600000
vt 0.750000 0.600000
vt 0.375000 0.550000
vt 0.375000 0.600000
vt 0.000000 1.260000
vt 0.000000 0.550000
vt 0.375000 -0.763675
vt -3.000000 0.600000
vt 2.340000 0.375000
vt 0.000000 2.625000
vt 0.000000 2.250000
vt 3.000000 0.750000
vt 3.000000 2.250000
vt 0.000000 0.750000
vt -3.000000 2.625000
vt -3.000000 0.375000
vt -0.000000 2.625000
vt -0.000000 0.550000
vt 0.000000 0.000000
vt 3.000000 0.550000
vt 3.000000 0.000000
vt 0.000000 0.550000
vt 0.000000 0.000000
vt 3.000000 0.000000
vt 0.000000 0.375000
vt -0.000000 0.000000
vt -3.000000 0.550000
vt -3.000000 0.000000
vt 0.000000 3.000000
vt 3.000000 2.625000
vt 3.000000 3.000000
vt -0.000000 0.550000
vt -3.000000 0.000000
vt -0.000000 0.000000
vt 3.000000 0.550000
vt 3.000000 -0.000000
vt -3.000000 0.000000
vt -0.000000 0.375000
vt -0.000000 3.000000
vt -3.000000 3.000000
vt 3.000000 0.375000
vt 0.000000 2.625000
vt -3.000000 0.550000
vn 0.0000 0.0000 1.0000
vn -1.0000 0.0000 0.0000
vn 0.0000 0.0000 -1.0000
vn 0.7071 0.7071 0.0000
vn 1.0000 0.0000 0.0000
vn 0.0000 1.0000 0.0000
vn 0.0000 -1.0000 -0.0000
usemtl Stone.087
s 1
f 1/1/1 2/2/1 3/3/1
f 4/4/2 5/5/2 6/6/2
f 7/7/3 8/8/3 9/9/3
f 10/10/4 8/11/4 2/12/4
f 11/13/5 12/14/5 13/15/5
f 14/16/1 15/17/1 16/18/1
f 17/19/4 15/20/4 18/21/4
f 17/22/3 19/23/3 20/24/3
f 21/25/6 17/26/6 20/27/6
f 8/28/6 3/29/6 2/30/6
f 1/1/1 10/31/1 2/2/1
f 3/32/2 22/33/2 1/34/2
f 22/33/2 7/35/2 1/34/2
f 5/5/2 23/36/2 24/37/2
f 23/36/2 21/38/2 19/39/2
f 24/37/2 23/36/2 19/39/2
f 21/38/2 20/40/2 19/39/2
f 7/35/2 4/4/2 6/6/2
f 1/34/2 7/35/2 6/6/2
f 5/5/2 24/37/2 6/6/2
f 22/41/3 8/8/3 7/7/3
f 8/8/3 25/42/3 9/9/3
f 10/10/4 25/43/4 8/11/4
f 12/14/5 9/44/5 26/45/5
f 9/44/5 25/46/5 10/47/5
f 26/45/5 9/44/5 10/47/5
f 13/15/5 18/48/5 14/49/5
f 18/48/5 15/50/5 14/49/5
f 12/14/5 26/45/5 13/15/5
f 13/15/5 14/49/5 11/13/5
f 16/18/1 21/51/1 23/52/1
f 23/52/1 14/16/1 16/18/1
f 17/19/4 16/53/4 15/20/4
f 17/22/3 18/54/3 19/23/3
f 21/25/6 16/55/6 17/26/6
f 8/28/6 22/56/6 3/29/6
usemtl Asphalt.069
f 1/57/6 18/58/6 10/59/6
f 6/6/2 19/39/2 1/34/2
f 13/15/5 10/47/5 18/48/5
f 1/57/6 19/60/6 18/58/6
f 6/6/2 24/37/2 19/39/2
f 13/15/5 26/45/5 10/47/5
usemtl Grass.051
f 12/61/7 11/62/7 4/63/7
f 27/64/2 5/5/2 28/65/2
f 29/66/1 28/65/1 30/67/1
f 11/13/5 29/68/5 30/69/5
f 29/70/6 23/71/6 27/72/6
f 4/4/2 31/73/2 32/74/2
f 31/75/6 9/76/6 33/77/6
f 31/78/3 34/79/3 32/80/3
f 33/81/5 12/14/5 34/82/5
f 30/83/7 28/65/7 5/84/7
f 4/63/7 32/85/7 34/86/7
f 30/83/7 5/84/7 11/62/7
f 5/84/7 4/63/7 11/62/7
f 34/86/7 12/61/7 4/63/7
f 27/64/2 23/36/2 5/5/2
f 29/66/1 27/64/1 28/65/1
f 11/13/5 14/49/5 29/68/5
f 29/70/6 14/87/6 23/71/6
f 4/4/2 7/35/2 31/73/2
f 31/75/6 7/88/6 9/76/6
f 31/78/3 33/89/3 34/79/3
f 33/81/5 9/44/5 12/14/5
