# Blender v2.79 (sub 7) OBJ File: ''
# www.blender.org
mtllib roadTile_200.mtl
o Mesh1_Group1_Model.202
v 3.000000 1.700000 -2.250000
v 0.000000 1.700000 -2.250000
v 0.000000 1.700000 -0.750000
v 3.000000 1.700000 -0.750000
v 0.000000 1.400000 -2.250000
v 0.000000 1.400000 -0.750000
v 3.000000 1.400000 -0.750000
v 3.000000 1.400000 -2.250000
v 3.000000 1.730000 -2.250000
v 0.000000 1.730000 -2.250000
v 3.000000 1.730000 0.000000
v 3.000000 0.000000 0.000000
v 3.000000 0.000000 -3.000000
v 3.000000 1.730000 -3.000000
v 3.000000 1.730000 -0.750000
v 0.000000 1.730000 0.000000
v 0.000000 1.100000 0.000000
v 2.370000 1.100000 0.000000
v 2.370000 0.000000 0.000000
v 0.000000 1.730000 -3.000000
v 0.000000 1.100000 -3.000000
v 0.000000 1.730000 -0.750000
v 2.370000 0.000000 -3.000000
v 2.370000 1.100000 -3.000000
vt 0.000000 2.250000
vt 3.000000 0.750000
vt 3.000000 2.250000
vt -2.250000 1.400000
vt -0.750000 1.700000
vt -2.250000 1.700000
vt 0.750000 1.400000
vt 2.250000 1.700000
vt 0.750000 1.700000
vt 0.000000 0.750000
vt -0.750000 1.400000
vt 2.250000 1.400000
vt 3.000000 1.700000
vt 0.000000 1.730000
vt 0.000000 1.700000
vt 0.000000 0.000000
vt 2.370000 1.100000
vt 3.000000 0.000000
vt 3.000000 1.730000
vt -3.000000 1.100000
vt 0.000000 1.100000
vt -2.370000 1.100000
vt -0.000000 1.730000
vt -3.000000 1.730000
vt -3.000000 0.000000
vt -0.000000 1.100000
vt -3.000000 1.100000
vt -2.370000 0.000000
vt -3.000000 3.000000
vt -3.000000 0.000000
vt -2.370000 3.000000
vt 0.000000 0.000000
vt -0.000000 3.000000
vt 3.000000 3.000000
vt 0.000000 2.250000
vt 3.000000 2.250000
vt 0.000000 0.000000
vt 3.000000 0.750000
vt 0.000000 0.750000
vt -0.000000 1.700000
vt -3.000000 1.730000
vt -3.000000 1.700000
vt 3.000000 1.730000
vt 0.750000 1.730000
vt 0.000000 1.730000
vt 3.000000 0.000000
vt 3.000000 1.730000
vt 2.250000 1.730000
vt 0.000000 1.730000
vt 2.370000 -0.000000
vt -2.250000 1.730000
vt -3.000000 1.730000
vt -0.750000 1.730000
vt -3.000000 0.000000
vt -2.370000 0.000000
vt -0.000000 1.100000
vt -0.000000 0.000000
vt -2.370000 3.000000
vt -2.370000 0.000000
vt 0.000000 3.000000
vt 3.000000 0.000000
vt -0.000000 1.730000
vn 0.0000 1.0000 0.0000
vn -1.0000 0.0000 0.0000
vn 1.0000 0.0000 0.0000
vn 0.0000 0.0000 1.0000
vn 0.0000 0.0000 -1.0000
vn 0.0000 -1.0000 -0.0000
usemtl Asphalt.146
s 1
f 2/1/1 4/2/1 1/3/1
f 5/4/2 3/5/2 2/6/2
f 7/7/3 1/8/3 4/9/3
f 2/1/1 3/10/1 4/2/1
f 5/4/2 6/11/2 3/5/2
f 7/7/3 8/12/3 1/8/3
usemtl Stone.175
f 1/13/4 10/14/4 2/15/4
f 12/16/3 8/12/3 7/7/3
f 18/17/4 12/18/4 11/19/4
f 21/20/2 17/21/2 6/11/2
f 24/22/5 20/23/5 14/24/5
f 23/25/2 18/26/2 24/27/2
f 19/28/6 13/29/6 12/30/6
f 24/31/6 17/32/6 21/33/6
f 14/34/1 10/35/1 9/36/1
f 16/37/1 15/38/1 22/39/1
f 3/40/5 15/41/5 4/42/5
f 1/13/4 9/43/4 10/14/4
f 15/44/3 11/45/3 4/9/3
f 11/45/3 12/16/3 7/7/3
f 4/9/3 11/45/3 7/7/3
f 12/16/3 13/46/3 8/12/3
f 13/46/3 14/47/3 8/12/3
f 14/47/3 9/48/3 1/8/3
f 14/47/3 1/8/3 8/12/3
f 11/19/4 16/49/4 18/17/4
f 16/49/4 17/21/4 18/17/4
f 18/17/4 19/50/4 12/18/4
f 10/51/2 20/52/2 2/6/2
f 20/52/2 21/20/2 5/4/2
f 2/6/2 20/52/2 5/4/2
f 17/21/2 16/49/2 6/11/2
f 16/49/2 22/53/2 3/5/2
f 3/5/2 6/11/2 16/49/2
f 6/11/2 5/4/2 21/20/2
f 13/54/5 23/55/5 24/22/5
f 24/22/5 21/56/5 20/23/5
f 14/24/5 13/54/5 24/22/5
f 23/25/2 19/57/2 18/26/2
f 19/28/6 23/58/6 13/29/6
f 24/31/6 18/59/6 17/32/6
f 14/34/1 20/60/1 10/35/1
f 16/37/1 11/61/1 15/38/1
f 3/40/5 22/62/5 15/41/5
