# Blender v2.79 (sub 7) OBJ File: ''
# www.blender.org
mtllib roadTile_132.mtl
o Mesh4_Group1_Model
v 3.000000 0.630000 0.000000
v 2.825830 0.630000 -0.174175
v 2.598840 0.630000 0.000000
v 2.825830 0.000000 -0.174175
v 2.598840 0.000000 0.000000
v 3.000000 0.000000 -0.401164
v 3.000000 0.630000 -0.401164
v 3.000000 0.000000 0.000000
vt 3.000000 0.000000
vt 2.825830 0.174175
vt 2.598840 -0.000000
vt -2.347910 0.000000
vt -2.061800 0.630000
vt -2.347910 0.630000
vt 0.401164 0.630000
vt 0.000000 0.000000
vt 0.401164 0.000000
vt -3.000000 0.000000
vt -2.825830 0.174175
vt -3.000000 0.401164
vt -2.144550 0.000000
vt -1.858440 0.630000
vt -2.144550 0.630000
vt 3.000000 0.401164
vt -2.598840 0.000000
vt 3.000000 0.000000
vt 2.598840 0.630000
vt 2.598840 0.000000
vt -2.061800 0.000000
vt 0.000000 0.630000
vt -1.858440 0.000000
vt 3.000000 0.630000
vn 0.0000 1.0000 0.0000
vn -0.7071 -0.0000 -0.7071
vn -0.6088 0.0000 -0.7934
vn 1.0000 0.0000 0.0000
vn 0.0000 -1.0000 -0.0000
vn -0.7934 -0.0000 -0.6088
vn 0.0000 -0.0000 1.0000
usemtl Stone.010
s 1
f 1/1/1 2/2/1 3/3/1
f 4/4/2 3/5/3 2/6/2
f 7/7/4 8/8/4 6/9/4
f 8/10/5 4/11/5 6/12/5
f 6/13/6 2/14/2 7/15/6
f 1/1/1 7/16/1 2/2/1
f 8/10/5 5/17/5 4/11/5
f 8/18/7 3/19/7 5/20/7
f 4/4/2 5/21/3 3/5/3
f 7/7/4 1/22/4 8/8/4
f 6/13/6 4/23/2 2/14/2
f 8/18/7 1/24/7 3/19/7
o Mesh3_Group1_Model
v 0.000000 0.630000 -0.401164
v 0.000000 0.000000 -0.401164
v 0.000000 0.000000 0.000000
v 0.000000 0.630000 0.000000
v 0.174175 0.630000 -0.174175
v 0.174175 0.000000 -0.174175
v 0.401164 0.630000 0.000000
v 0.401164 0.000000 0.000000
vt -0.401164 0.000000
vt -0.000000 0.630000
vt -0.401164 0.630000
vt 0.032151 0.630000
vt 0.318265 0.000000
vt 0.318265 0.630000
vt 0.000000 0.000000
vt 0.174175 0.174175
vt 0.000000 0.401164
vt 0.401164 0.000000
vt -0.000000 0.000000
vt -0.174175 0.174175
vt -0.401164 -0.000000
vt -0.318265 0.630000
vt -0.032151 -0.000000
vt -0.032151 0.630000
vt 0.032151 0.000000
vt 0.401164 0.000000
vt 0.401164 0.630000
vt -0.000000 0.401164
vt -0.318265 0.000000
vn -1.0000 0.0000 0.0000
vn 0.7071 0.0000 -0.7071
vn 0.7934 0.0000 -0.6088
vn 0.0000 1.0000 0.0000
vn 0.0000 -0.0000 1.0000
vn 0.0000 -1.0000 -0.0000
vn 0.6088 0.0000 -0.7934
usemtl Stone.010
s 1
f 10/25/8 12/26/8 9/27/8
f 13/28/9 10/29/10 9/30/10
f 12/31/11 13/32/11 9/33/11
f 16/34/12 12/26/12 11/35/12
f 11/35/13 14/36/13 16/37/13
f 15/38/14 14/39/9 13/40/9
f 10/25/8 11/35/8 12/26/8
f 13/28/9 14/41/9 10/29/10
f 12/31/11 15/42/11 13/32/11
f 16/34/12 15/43/12 12/26/12
f 11/35/13 10/44/13 14/36/13
f 15/38/14 16/45/14 14/39/9
o Mesh2_Group1_Model
v 0.401164 0.630000 -3.000000
v 0.174175 0.630000 -2.825830
v 0.174175 0.000000 -2.825830
v 0.401164 0.000000 -3.000000
v 0.000000 0.630000 -3.000000
v 0.000000 0.630000 -2.598840
v 0.000000 0.000000 -3.000000
v 0.000000 0.000000 -2.598840
vt 1.858440 0.630000
vt 2.144550 0.000000
vt 2.144550 0.630000
vt 0.000000 3.000000
vt 0.174175 2.825830
vt 0.401164 3.000000
vt -0.401164 0.630000
vt -0.000000 0.000000
vt -0.000000 0.630000
vt -0.000000 3.000000
vt -0.174175 2.825830
vt -0.000000 2.598840
vt 2.061800 0.630000
vt 2.347910 0.000000
vt 2.347910 0.630000
vt -2.598840 0.000000
vt -3.000000 0.630000
vt -3.000000 0.000000
vt 1.858440 0.000000
vt 0.000000 2.598840
vt -0.401164 0.000000
vt -0.401164 3.000000
vt 2.061800 0.000000
vt -2.598840 0.630000
vn 0.7071 0.0000 0.7071
vn 0.6088 0.0000 0.7934
vn 0.0000 1.0000 -0.0000
vn 0.0000 0.0000 -1.0000
vn -0.0000 -1.0000 -0.0000
vn 0.7934 0.0000 0.6088
vn -1.0000 0.0000 0.0000
usemtl Stone.010
s 1
f 18/46/15 20/47/16 17/48/16
f 21/49/17 18/50/17 17/51/17
f 17/52/18 23/53/18 21/54/18
f 23/55/19 19/56/19 24/57/19
f 22/58/20 19/59/15 18/60/15
f 24/61/21 21/62/21 23/63/21
f 18/46/15 19/64/15 20/47/16
f 21/49/17 22/65/17 18/50/17
f 17/52/18 20/66/18 23/53/18
f 23/55/19 20/67/19 19/56/19
f 22/58/20 24/68/20 19/59/15
f 24/61/21 22/69/21 21/62/21
o Mesh1_Group1_Model.013
v 2.598840 0.630000 -3.000000
v 3.000000 0.630000 -3.000000
v 3.000000 0.000000 -3.000000
v 2.598840 0.000000 -3.000000
v 3.000000 0.630000 -2.598840
v 2.825830 0.630000 -2.825830
v 3.000000 0.000000 -2.598840
v 2.825830 0.000000 -2.825830
vt -3.000000 0.630000
vt -2.598840 0.000000
vt -2.598840 0.630000
vt 3.000000 3.000000
vt 2.825830 2.825830
vt 3.000000 2.598840
vt 2.598840 0.000000
vt 3.000000 0.630000
vt 2.598840 0.630000
vt -0.521624 0.630000
vt -0.235511 0.000000
vt -0.235511 0.630000
vt 0.235511 0.630000
vt 0.521624 0.000000
vt 0.521624 0.630000
vt -3.000000 3.000000
vt -2.825830 2.825830
vt -2.598840 3.000000
vt -3.000000 0.000000
vt 2.598840 3.000000
vt 3.000000 0.000000
vt -0.521624 0.000000
vt 0.235511 0.000000
vt -3.000000 2.598840
vn 0.0000 0.0000 -1.0000
vn 0.0000 1.0000 0.0000
vn 1.0000 0.0000 0.0000
vn -0.7071 0.0000 0.7071
vn -0.7934 0.0000 0.6087
vn -0.6087 0.0000 0.7934
vn 0.0000 -1.0000 -0.0000
usemtl Stone.010
s 1
f 26/70/22 28/71/22 25/72/22
f 26/73/23 30/74/23 29/75/23
f 31/76/24 26/77/24 29/78/24
f 30/79/25 31/80/26 29/81/26
f 25/82/27 32/83/25 30/84/25
f 27/85/28 32/86/28 28/87/28
f 26/70/22 27/88/22 28/71/22
f 26/73/23 25/89/23 30/74/23
f 31/76/24 27/90/24 26/77/24
f 30/79/25 32/91/25 31/80/26
f 25/82/27 28/92/27 32/83/25
f 27/85/28 31/93/28 32/86/28
