# Blender v2.79 (sub 7) OBJ File: ''
# www.blender.org
mtllib roadTile_212.mtl
o Mesh1_Group1_Model.185
v 0.420952 1.016270 -2.250000
v 0.550000 0.952628 -2.250000
v 0.550000 0.952628 0.000000
v 0.420952 1.016270 0.000000
v 3.000000 0.000000 -2.250000
v 1.100000 0.000000 -2.250000
v 1.090590 0.143579 -2.250000
v 1.062520 0.284701 -2.250000
v 1.016270 0.420952 -2.250000
v 0.952628 0.550000 -2.250000
v 0.872689 0.669638 -2.250000
v 0.777817 0.777817 -2.250000
v 0.669638 0.872689 -2.250000
v 0.284701 1.062520 -2.250000
v 0.143579 1.090590 -2.250000
v 0.000000 1.100000 -2.250000
v 0.000000 1.730000 -2.250000
v 3.000000 1.730000 -2.250000
v 3.000000 0.000000 0.000000
v 1.100000 0.000000 0.000000
v 0.000000 1.730000 0.000000
v 0.000000 1.100000 0.000000
v 0.143579 1.090590 0.000000
v 0.284701 1.062520 0.000000
v 0.669638 0.872689 0.000000
v 0.777817 0.777817 0.000000
v 0.872689 0.669638 0.000000
v 0.952628 0.550000 0.000000
v 1.016270 0.420952 0.000000
v 1.062520 0.284701 0.000000
v 1.090590 0.143579 0.000000
v 3.000000 1.730000 0.000000
v 0.000000 1.730000 -0.375000
v 0.000000 1.700000 -0.375000
v 0.000000 1.400000 -0.375000
v 0.000000 1.400000 -1.875000
v 0.000000 1.700000 -1.875000
v 0.000000 1.730000 -1.875000
v 3.000000 1.730000 -0.375000
v 3.000000 1.730000 -1.875000
v 3.000000 1.700000 -1.875000
v 3.000000 1.400000 -1.875000
v 3.000000 1.400000 -0.375000
v 3.000000 1.700000 -0.375000
vt -2.250000 -0.071943
vt -0.000000 0.071943
vt -2.250000 0.071943
vt -0.777817 0.777817
vt -0.669638 0.872689
vt -3.000000 1.730000
vt -1.100000 0.000000
vt -3.000000 2.250000
vt -3.000000 0.000000
vt 0.777817 0.777817
vt 0.872689 0.669638
vt 3.000000 1.730000
vt -2.250000 1.100000
vt 0.000000 1.100000
vt -0.375000 1.400000
vt -2.250000 -0.071943
vt -0.000000 0.071943
vt -2.250000 0.071943
vt -2.250000 -0.071943
vt -0.000000 0.071943
vt -2.250000 0.071943
vt -2.250000 -0.071943
vt -0.000000 0.071943
vt -2.250000 0.071943
vt 0.000000 -0.000000
vt 3.000000 0.375000
vt 0.000000 0.375000
vt 0.375000 1.400000
vt 0.000000 0.000000
vt 2.250000 0.000000
vt 3.000000 2.250000
vt 0.000000 1.875000
vt 3.000000 1.875000
vt 3.000000 1.700000
vt 0.000000 1.730000
vt 0.000000 1.700000
vt -0.000000 1.700000
vt -3.000000 1.730000
vt -3.000000 1.700000
vt -2.250000 -0.071943
vt -0.000000 0.071943
vt -2.250000 0.071943
vt -2.250000 -0.071943
vt -0.000000 0.071943
vt -2.250000 0.071943
vt -2.250000 -0.071943
vt -0.000000 0.071943
vt -2.250000 0.071943
vt -2.250000 -0.071943
vt -0.000000 0.071943
vt -2.250000 0.071943
vt -2.250000 -0.071943
vt -0.000000 0.071943
vt -2.250000 0.071943
vt -2.250000 -0.071943
vt -0.000000 0.071943
vt -2.250000 0.071943
vt -2.250000 -0.071943
vt -0.000000 0.071943
vt -2.250000 0.071943
vt -2.250000 -0.071943
vt -0.000000 0.071943
vt -2.250000 0.071943
vt -0.000000 -0.071943
vt -3.000000 -0.000000
vt -1.016270 0.420952
vt -1.100000 -0.000000
vt -1.090590 0.143579
vt -1.062520 0.284701
vt -0.000000 1.100000
vt -0.000000 1.730000
vt -0.143579 1.090590
vt -0.284701 1.062520
vt -0.420952 1.016270
vt -0.550000 0.952628
vt -0.952628 0.550000
vt -0.872689 0.669638
vt -1.100000 2.250000
vt 0.000000 1.730000
vt 0.669638 0.872689
vt 0.143579 1.090590
vt 0.284701 1.062520
vt 1.100000 -0.000000
vt 3.000000 0.000000
vt 1.090590 0.143579
vt 1.016270 0.420952
vt 1.062520 0.284701
vt 0.420952 1.016270
vt 0.550000 0.952628
vt 0.952628 0.550000
vt -1.875000 1.730000
vt -2.250000 1.730000
vt -1.875000 1.700000
vt -1.875000 1.400000
vt -0.375000 1.730000
vt -0.375000 1.700000
vt -0.000000 -0.071943
vt -0.000000 -0.071943
vt -0.000000 -0.071943
vt 3.000000 0.000000
vt 0.375000 1.730000
vt 0.000000 1.730000
vt 0.375000 1.700000
vt 2.250000 1.730000
vt 1.875000 1.400000
vt 1.875000 1.730000
vt 1.875000 1.700000
vt 0.000000 2.250000
vt 3.000000 1.730000
vt -0.000000 1.730000
vt -0.000000 -0.071943
vt -0.000000 -0.071943
vt -0.000000 -0.071943
vt -0.000000 -0.071943
vt -0.000000 -0.071943
vt -0.000000 -0.071943
vt -0.000000 -0.071943
vt -0.000000 -0.071943
vt 0.000000 1.875000
vt 3.000000 0.375000
vt 3.000000 1.875000
vt 0.000000 0.375000
vn -0.5000 -0.8660 -0.0000
vn -0.3827 -0.9239 -0.0000
vn 0.0000 0.0000 -1.0000
vn 0.0000 -1.0000 -0.0000
vn -0.0000 -0.0000 1.0000
vn -1.0000 0.0000 0.0000
vn -0.1305 -0.9914 -0.0000
vn -0.0654 -0.9979 -0.0000
vn -0.2588 -0.9659 -0.0000
vn 0.0000 1.0000 0.0000
vn 1.0000 -0.0000 0.0000
vn -0.6088 -0.7934 -0.0000
vn -0.7071 -0.7071 -0.0000
vn -0.7934 -0.6088 -0.0000
vn -0.8660 -0.5000 -0.0000
vn -0.9239 -0.3827 -0.0000
vn -0.9659 -0.2588 -0.0000
vn -0.9914 -0.1305 -0.0000
vn -0.9979 -0.0654 -0.0000
usemtl Stone.159
s 1
f 2/1/1 4/2/2 1/3/2
f 12/4/3 13/5/3 18/6/3
f 20/7/4 5/8/4 19/9/4
f 26/10/5 27/11/5 32/12/5
f 16/13/6 22/14/6 35/15/6
f 15/16/7 22/17/8 16/18/8
f 14/19/9 23/20/7 15/21/7
f 1/22/2 24/23/9 14/24/9
f 21/25/10 39/26/10 33/27/10
f 43/28/11 19/29/11 5/30/11
f 18/31/10 38/32/10 40/33/10
f 41/34/5 38/35/5 37/36/5
f 34/37/3 39/38/3 44/39/3
f 13/40/12 3/41/1 2/42/1
f 12/43/13 25/44/12 13/45/12
f 11/46/14 26/47/13 12/48/13
f 10/49/15 27/50/14 11/51/14
f 9/52/16 28/53/15 10/54/15
f 8/55/17 29/56/16 9/57/16
f 7/58/18 30/59/17 8/60/17
f 6/61/19 31/62/18 7/63/18
f 2/1/1 3/64/1 4/2/2
f 18/6/3 5/65/3 9/66/3
f 5/65/3 6/67/3 7/68/3
f 5/65/3 7/68/3 8/69/3
f 16/70/3 17/71/3 15/72/3
f 17/71/3 18/6/3 13/5/3
f 15/72/3 17/71/3 14/73/3
f 14/73/3 17/71/3 1/74/3
f 5/65/3 8/69/3 9/66/3
f 1/74/3 17/71/3 2/75/3
f 2/75/3 17/71/3 13/5/3
f 18/6/3 9/66/3 10/76/3
f 18/6/3 10/76/3 11/77/3
f 18/6/3 11/77/3 12/4/3
f 20/7/4 6/78/4 5/8/4
f 32/12/5 21/79/5 25/80/5
f 21/79/5 22/14/5 23/81/5
f 21/79/5 23/81/5 24/82/5
f 20/83/5 19/84/5 31/85/5
f 19/84/5 32/12/5 29/86/5
f 31/85/5 19/84/5 30/87/5
f 30/87/5 19/84/5 29/86/5
f 21/79/5 24/82/5 4/88/5
f 21/79/5 4/88/5 3/89/5
f 21/79/5 3/89/5 25/80/5
f 28/90/5 29/86/5 32/12/5
f 27/11/5 28/90/5 32/12/5
f 32/12/5 25/80/5 26/10/5
f 38/91/6 17/92/6 37/93/6
f 17/92/6 16/13/6 36/94/6
f 37/93/6 17/92/6 36/94/6
f 22/14/6 21/79/6 35/15/6
f 21/79/6 33/95/6 34/96/6
f 34/96/6 35/15/6 21/79/6
f 35/15/6 36/94/6 16/13/6
f 15/16/7 23/97/7 22/17/8
f 14/19/9 24/98/9 23/20/7
f 1/22/2 4/99/2 24/23/9
f 21/25/10 32/100/10 39/26/10
f 39/101/11 32/102/11 44/103/11
f 32/102/11 19/29/11 43/28/11
f 44/103/11 32/102/11 43/28/11
f 5/30/11 18/104/11 42/105/11
f 18/104/11 40/106/11 41/107/11
f 41/107/11 42/105/11 18/104/11
f 42/105/11 43/28/11 5/30/11
f 18/31/10 17/108/10 38/32/10
f 41/34/5 40/109/5 38/35/5
f 34/37/3 33/110/3 39/38/3
f 13/40/12 25/111/12 3/41/1
f 12/43/13 26/112/13 25/44/12
f 11/46/14 27/113/14 26/47/13
f 10/49/15 28/114/15 27/50/14
f 9/52/16 29/115/16 28/53/15
f 8/55/17 30/116/17 29/56/16
f 7/58/18 31/117/18 30/59/17
f 6/61/19 20/118/19 31/62/18
usemtl Asphalt.130
f 37/119/10 44/120/10 41/121/10
f 36/94/6 34/96/6 37/93/6
f 43/28/11 41/107/11 44/103/11
f 37/119/10 34/122/10 44/120/10
f 36/94/6 35/15/6 34/96/6
f 43/28/11 42/105/11 41/107/11
