# Blender v2.79 (sub 7) OBJ File: ''
# www.blender.org
mtllib roadTile_035.mtl
o Mesh1_Group1_Model.049
v 3.000000 0.600000 -3.000000
v 3.000000 0.300000 -3.000000
v 0.750000 0.300000 -3.000000
v 0.750000 0.600000 -3.000000
v 3.000000 0.600000 -0.750000
v 3.000000 0.300000 -0.750000
v 0.750000 0.600000 -0.750000
v 3.000000 0.630000 -0.375000
v 3.000000 0.550000 -0.375000
v 3.000000 0.000000 -0.375000
v 3.000000 0.000000 -3.000000
v 3.000000 0.630000 -0.750000
v 0.375000 0.630000 -0.375000
v 0.375000 0.550000 -0.375000
v 0.750000 0.630000 -3.000000
v 0.375000 0.630000 -3.000000
v 0.750000 0.630000 -0.750000
v 0.375000 0.000000 -3.000000
v 0.375000 0.550000 -3.000000
v 3.000000 0.000000 0.000000
v 0.000000 0.000000 0.000000
v 0.000000 0.000000 -3.000000
v 3.000000 0.550000 0.000000
v 0.000000 0.550000 -3.000000
v 0.000000 0.550000 0.000000
vt -3.000000 0.300000
vt -0.750000 0.600000
vt -3.000000 0.600000
vt 0.750000 0.300000
vt 3.000000 0.600000
vt 0.750000 0.600000
vt 0.750000 3.000000
vt 3.000000 0.750000
vt 3.000000 3.000000
vt -0.750000 0.300000
vt 3.000000 0.300000
vt 0.750000 0.750000
vt 0.375000 0.550000
vt 0.375000 0.000000
vt 0.375000 0.630000
vt 3.000000 0.550000
vt 3.000000 0.630000
vt 0.750000 0.750000
vt 0.375000 3.000000
vt 0.375000 0.375000
vt -0.375000 0.630000
vt -0.750000 0.630000
vt -3.000000 0.630000
vt -0.375000 0.550000
vt -0.375000 0.630000
vt 0.750000 0.600000
vt 3.000000 0.630000
vt 0.750000 0.630000
vt -0.750000 0.600000
vt -3.000000 0.630000
vt -3.000000 0.600000
vt 0.750000 0.630000
vt 0.375000 0.630000
vt 3.000000 0.000000
vt 0.375000 0.550000
vt 0.750000 3.000000
vt 3.000000 0.375000
vt 3.000000 0.750000
vt -3.000000 0.000000
vt -0.375000 0.000000
vt -0.375000 0.550000
vt -3.000000 0.550000
vt 3.000000 0.600000
vt -0.750000 0.630000
vt -0.000000 0.000000
vt -0.000000 3.000000
vt -0.375000 3.000000
vt 0.000000 0.550000
vt 0.000000 0.000000
vt 0.375000 0.375000
vt 0.000000 3.000000
vt 0.000000 0.000000
vt 0.000000 0.000000
vt 0.000000 0.550000
vt -0.000000 0.550000
vt -3.000000 0.000000
vt 3.000000 0.550000
vt -3.000000 3.000000
vt -3.000000 0.375000
vt -3.000000 -0.000000
vt 3.000000 0.000000
vt 3.000000 0.375000
vt 0.375000 3.000000
vt -3.000000 0.550000
vt 3.000000 0.000000
vn 0.0000 0.0000 -1.0000
vn 1.0000 -0.0000 0.0000
vn 0.0000 1.0000 0.0000
vn 0.0000 0.0000 1.0000
vn -1.0000 0.0000 0.0000
vn -0.0000 -1.0000 -0.0000
usemtl Asphalt.030
s 1
f 2/1/1 4/2/1 1/3/1
f 6/4/2 1/5/2 5/6/2
f 4/7/3 5/8/3 1/9/3
f 2/1/1 3/10/1 4/2/1
f 6/4/2 2/11/2 1/5/2
f 4/7/3 7/12/3 5/8/3
usemtl Stone.041
f 6/4/2 9/13/2 10/14/2
f 13/15/4 9/16/4 8/17/4
f 17/18/3 16/19/3 13/20/3
f 16/21/1 15/22/1 4/2/1
f 16/23/5 14/24/5 13/25/5
f 7/26/2 15/27/2 17/28/2
f 7/29/1 12/30/1 5/31/1
f 12/32/2 8/33/2 5/6/2
f 8/33/2 9/13/2 5/6/2
f 10/14/2 11/34/2 6/4/2
f 11/34/2 2/11/2 6/4/2
f 6/4/2 5/6/2 9/13/2
f 13/15/4 14/35/4 9/16/4
f 17/18/3 15/36/3 16/19/3
f 13/20/3 8/37/3 17/18/3
f 8/37/3 12/38/3 17/18/3
f 2/1/1 11/39/1 3/10/1
f 11/39/1 18/40/1 3/10/1
f 18/40/1 19/41/1 3/10/1
f 19/41/1 16/21/1 4/2/1
f 3/10/1 19/41/1 4/2/1
f 16/23/5 19/42/5 14/24/5
f 7/26/2 4/43/2 15/27/2
f 7/29/1 17/44/1 12/30/1
usemtl Grass.021
f 21/45/6 22/46/6 18/47/6
f 10/14/2 23/48/2 20/49/2
f 14/50/3 24/51/3 25/52/3
f 19/41/1 22/53/1 24/54/1
f 25/55/5 22/56/5 21/45/5
f 21/45/4 23/57/4 25/55/4
f 11/58/6 10/59/6 18/47/6
f 10/59/6 20/60/6 21/45/6
f 18/47/6 10/59/6 21/45/6
f 10/14/2 9/13/2 23/48/2
f 23/61/3 9/62/3 14/50/3
f 14/50/3 19/63/3 24/51/3
f 25/52/3 23/61/3 14/50/3
f 19/41/1 18/40/1 22/53/1
f 25/55/5 24/64/5 22/56/5
f 21/45/4 20/65/4 23/57/4
