# Blender v2.79 (sub 7) OBJ File: ''
# www.blender.org
mtllib roadTile_004.mtl
o Mesh1_Group1_Model.102
v 1.500000 0.000000 -1.500000
v 1.500000 0.550000 1.500000
v 1.500000 0.000000 1.500000
v -1.500000 0.000000 1.500000
v -1.500000 1.650000 1.500000
v 1.500000 0.550000 -1.500000
v -1.500000 0.550000 -1.500000
v -1.500000 0.000000 -1.500000
vt 3.000000 -0.000000
vt -0.000000 0.550000
vt -0.000000 -0.000000
vt -0.000000 -0.000000
vt -3.000000 3.000000
vt -3.000000 0.000000
vt 3.000000 0.550000
vt 0.000000 1.650000
vt -0.000000 0.568020
vt -0.000000 -2.627290
vt 3.000000 -2.627290
vt -3.000000 -2.627290
vt -0.000000 -2.627290
vt -3.000000 0.000000
vt -0.000000 0.550000
vt -3.000000 0.550000
vt -3.000000 0.550000
vt 3.000000 0.550000
vt 0.000000 3.000000
vt 3.000000 -0.000000
vt -0.000000 0.000000
vt -3.000000 0.000000
vn 1.0000 0.0000 0.0000
vn 0.0000 -1.0000 -0.0000
vn 0.0000 -0.0000 1.0000
vn 0.3443 0.9389 0.0000
vn 0.0000 0.9389 -0.3443
vn 0.0000 0.0000 -1.0000
vn -1.0000 0.0000 0.0000
usemtl Stone.082
s 1
f 1/1/1 2/2/1 3/3/1
f 4/4/2 1/5/2 3/6/2
f 4/4/3 2/7/3 5/8/3
f 5/9/4 2/10/4 6/11/4
f 5/9/5 6/12/5 7/13/5
f 1/14/6 7/15/6 6/16/6
f 7/17/7 4/4/7 5/8/7
f 1/1/1 6/18/1 2/2/1
f 4/4/2 8/19/2 1/5/2
f 4/4/3 3/20/3 2/7/3
f 1/14/6 8/21/6 7/15/6
f 7/17/7 8/22/7 4/4/7
