# Blender v2.79 (sub 7) OBJ File: ''
# www.blender.org
mtllib roadTile_072.mtl
o Mesh1_Group1_Model.053
v -0.850481 0.600000 -1.125000
v -0.904985 0.630000 -1.043430
v -0.904985 0.600000 -1.043430
v -1.500000 0.300000 -0.750000
v -1.500000 0.630000 -1.500000
v -1.500000 0.000000 -1.500000
v -1.402105 0.600000 -0.756420
v -1.500000 0.630000 -0.750000
v -1.500000 0.600000 -0.750000
v -1.305886 0.600000 -0.775560
v -1.402105 0.630000 -0.756420
v -1.212987 0.600000 -0.807090
v -1.305886 0.630000 -0.775560
v -1.125000 0.600000 -0.850480
v -1.212987 0.630000 -0.807090
v -1.043429 0.600000 -0.904980
v -1.125000 0.630000 -0.850480
v -0.969670 0.600000 -0.969670
v -1.043429 0.630000 -0.904980
v -0.969670 0.630000 -0.969670
v -0.775556 0.630000 -1.305890
v -0.756416 0.630000 -1.402110
v -0.807090 0.600000 -1.212990
v -0.850481 0.630000 -1.125000
v -0.775556 0.600000 -1.305890
v -0.807090 0.630000 -1.212990
v -0.756416 0.600000 -1.402110
v -0.750000 0.600000 -1.500000
v -0.750000 0.300000 -1.500000
v 1.500000 0.000000 -1.500000
v 1.500000 0.300000 -1.500000
v 1.500000 0.000000 1.500000
v 1.500000 0.300000 1.500000
v -1.500000 0.000000 1.500000
v -1.500000 0.300000 1.500000
v -0.750000 0.630000 -1.500000
v 1.500000 0.600000 1.500000
v 1.500000 0.600000 -1.500000
v -1.500000 0.600000 1.500000
vt 2.543460 0.600000
vt 2.445360 0.630000
vt 2.445360 0.600000
vt -2.250000 0.300000
vt -3.000000 0.630000
vt -3.000000 -0.000000
vt 0.245262 0.600000
vt 0.147157 0.630000
vt 0.147157 0.600000
vt 0.634323 0.600000
vt 0.536219 0.630000
vt 0.536219 0.600000
vt 1.013370 0.600000
vt 0.915266 0.630000
vt 0.915266 0.600000
vt 1.375920 0.600000
vt 1.277810 0.630000
vt 1.277810 0.600000
vt 1.715760 0.600000
vt 1.617660 0.630000
vt 1.617660 0.600000
vt 2.027090 0.600000
vt 1.928990 0.630000
vt 1.928990 0.600000
vt 2.304570 0.600000
vt 2.206470 0.630000
vt 2.206470 0.600000
vt 0.724444 2.805890
vt 0.743584 2.902110
vt 0.000000 3.000000
vt 2.739670 0.600000
vt 2.641570 0.630000
vt 2.641570 0.600000
vt 2.889840 0.600000
vt 2.791740 0.630000
vt 2.791740 0.600000
vt 2.991410 0.600000
vt 2.893300 0.630000
vt 2.893300 0.600000
vt 3.042630 0.600000
vt 2.944520 0.630000
vt 2.944520 0.600000
vt -0.750000 0.300000
vt -3.000000 -0.000000
vt -0.000000 -0.000000
vt 3.000000 0.300000
vt 0.000000 0.000000
vt 3.000000 0.000000
vt 3.000000 0.300000
vt 0.000000 -0.000000
vt 3.000000 0.000000
vt 2.543460 0.630000
vt 0.000000 0.300000
vt -2.250000 0.600000
vt -2.250000 0.630000
vt 0.245262 0.630000
vt 0.634323 0.630000
vt 1.013370 0.630000
vt 1.375920 0.630000
vt 1.715760 0.630000
vt 2.027090 0.630000
vt 2.304570 0.630000
vt 0.750000 3.000000
vt -0.000000 2.250000
vt 0.097895 2.256420
vt 0.194114 2.275560
vt 0.287013 2.307090
vt 0.375000 2.350480
vt 0.456571 2.404980
vt 0.530330 2.469670
vt 0.595015 2.543430
vt 0.649519 2.625000
vt 0.692910 2.712990
vt 2.739670 0.630000
vt 2.889840 0.630000
vt 2.991410 0.630000
vt 3.042630 0.630000
vt -0.750000 0.630000
vt -0.750000 0.600000
vt -0.000000 0.630000
vt -3.000000 0.300000
vt 0.000000 0.300000
vt 0.530330 2.469670
vt 0.456571 2.404980
vt 3.000000 0.000000
vt -3.000000 0.600000
vt 3.000000 0.600000
vt 0.000000 0.600000
vt 3.000000 0.600000
vt 0.000000 0.600000
vt -3.000000 3.000000
vt -3.000000 0.000000
vt 3.000000 3.000000
vt 0.595015 2.543430
vt 0.750000 3.000000
vt 0.743584 2.902110
vt 0.724444 2.805890
vt -0.000000 2.250000
vt 0.000000 -0.000000
vt 0.097895 2.256420
vt 0.194114 2.275560
vt 0.287013 2.307090
vt 0.692910 2.712990
vt 0.649519 2.625000
vt 0.375000 2.350480
vt -0.000000 3.000000
vn 0.8660 0.0000 0.5000
vn 0.7934 0.0000 0.6088
vn -1.0000 0.0000 0.0000
vn 0.1305 0.0000 0.9914
vn 0.0654 0.0000 0.9979
vn 0.2588 0.0000 0.9659
vn 0.3827 0.0000 0.9239
vn 0.5000 0.0000 0.8660
vn 0.6088 0.0000 0.7934
vn 0.7071 0.0000 0.7071
vn 0.0000 1.0000 0.0000
vn 0.9239 0.0000 0.3827
vn 0.9659 0.0000 0.2588
vn 0.9914 0.0000 0.1305
vn 0.9979 0.0000 0.0654
vn 0.0000 0.0000 -1.0000
vn 1.0000 0.0000 0.0000
vn 0.0000 0.0000 1.0000
vn 0.0000 -1.0000 -0.0000
usemtl Stone.044
s 1
f 1/1/1 2/2/2 3/3/2
f 4/4/3 5/5/3 6/6/3
f 7/7/4 8/8/5 9/9/5
f 10/10/6 11/11/4 7/12/4
f 12/13/7 13/14/6 10/15/6
f 14/16/8 15/17/7 12/18/7
f 16/19/9 17/20/8 14/21/8
f 18/22/10 19/23/9 16/24/9
f 3/25/2 20/26/10 18/27/10
f 21/28/11 22/29/11 5/30/11
f 23/31/12 24/32/1 1/33/1
f 25/34/13 26/35/12 23/36/12
f 27/37/14 21/38/13 25/39/13
f 28/40/15 22/41/14 27/42/14
f 29/43/16 30/44/16 6/45/16
f 31/46/17 32/47/17 30/48/17
f 33/49/18 34/50/18 32/51/18
f 1/1/1 24/52/1 2/2/2
f 34/50/3 35/53/3 4/4/3
f 9/54/3 8/55/3 5/5/3
f 6/6/3 34/50/3 4/4/3
f 4/4/3 9/54/3 5/5/3
f 7/7/4 11/56/4 8/8/5
f 10/10/6 13/57/6 11/11/4
f 12/13/7 15/58/7 13/14/6
f 14/16/8 17/59/8 15/17/7
f 16/19/9 19/60/9 17/20/8
f 18/22/10 20/61/10 19/23/9
f 3/25/2 2/62/2 20/26/10
f 36/63/11 5/30/11 22/29/11
f 5/30/11 8/64/11 11/65/11
f 13/66/11 5/30/11 11/65/11
f 13/66/11 15/67/11 5/30/11
f 15/67/11 17/68/11 5/30/11
f 17/68/11 19/69/11 5/30/11
f 19/69/11 20/70/11 5/30/11
f 20/70/11 2/71/11 5/30/11
f 2/71/11 24/72/11 5/30/11
f 24/72/11 26/73/11 5/30/11
f 26/73/11 21/28/11 5/30/11
f 23/31/12 26/74/12 24/32/1
f 25/34/13 21/75/13 26/35/12
f 27/37/14 22/76/14 21/38/13
f 28/40/15 36/77/15 22/41/14
f 36/78/16 28/79/16 5/80/16
f 28/79/16 29/43/16 5/80/16
f 5/80/16 29/43/16 6/45/16
f 29/43/16 31/81/16 30/44/16
f 31/46/17 33/82/17 32/47/17
f 33/49/18 35/53/18 34/50/18
usemtl Asphalt.033
f 18/83/11 16/84/11 37/85/11
f 31/81/16 28/79/16 38/86/16
f 33/82/17 38/87/17 37/88/17
f 35/53/18 37/89/18 39/90/18
f 4/4/3 39/90/3 9/54/3
f 34/50/19 30/91/19 32/92/19
f 37/85/11 38/93/11 3/94/11
f 38/93/11 28/95/11 27/96/11
f 38/93/11 27/96/11 25/97/11
f 9/98/11 39/99/11 7/100/11
f 39/99/11 37/85/11 16/84/11
f 7/100/11 39/99/11 10/101/11
f 10/101/11 39/99/11 12/102/11
f 38/93/11 25/97/11 23/103/11
f 38/93/11 23/103/11 1/104/11
f 12/102/11 39/99/11 14/105/11
f 14/105/11 39/99/11 16/84/11
f 38/93/11 1/104/11 3/94/11
f 37/85/11 3/94/11 18/83/11
f 31/81/16 29/43/16 28/79/16
f 33/82/17 31/46/17 38/87/17
f 35/53/18 33/49/18 37/89/18
f 4/4/3 35/53/3 39/90/3
f 34/50/19 6/106/19 30/91/19
