# Blender v2.79 (sub 7) OBJ File: ''
# www.blender.org
mtllib roadTile_296.mtl
o Mesh1_Group1_Model.178
v 0.000000 0.000000 -2.250000
v 3.000000 0.000000 -2.250000
v 3.000000 0.000000 0.000000
v 0.000000 0.000000 0.000000
v 0.000000 1.650000 -2.250000
v 3.000000 0.550000 -2.250000
v 0.000000 1.730000 0.000000
v 0.000000 1.730000 -0.375000
v 0.000000 1.700000 -0.375000
v 0.000000 1.400000 -0.375000
v 0.000000 1.400000 -1.875000
v 0.000000 1.700000 -1.875000
v 0.000000 1.730000 -1.875000
v 0.000000 1.730000 -2.250000
v 3.000000 0.630000 0.000000
v 3.000000 0.630000 -0.375000
v 3.000000 0.630000 -2.250000
v 3.000000 0.630000 -1.875000
v 3.000000 0.600000 -1.875000
v 3.000000 0.300000 -1.875000
v 3.000000 0.300000 -0.375000
v 3.000000 0.600000 -0.375000
vt -3.000000 2.250000
vt 0.000000 0.000000
vt -0.000000 2.250000
vt -0.000000 0.000000
vt -3.000000 0.550000
vt -3.000000 0.000000
vt -2.250000 0.000000
vt -1.875000 1.400000
vt 3.000000 0.630000
vt 3.000000 0.000000
vt 0.000000 0.595561
vt 0.375000 -2.599750
vt 0.375000 0.595561
vt 0.000000 0.000000
vt 2.250000 0.000000
vt 0.375000 0.300000
vt -0.000000 1.650000
vt -3.000000 0.630000
vt 2.250000 -2.599750
vt 1.875000 0.595561
vt 1.875000 -2.599750
vt 0.000000 1.700000
vt 3.000000 0.630000
vt 0.000000 1.730000
vt -0.000000 1.700000
vt -3.000000 0.630000
vt -3.000000 0.600000
vt -3.000000 0.000000
vt -2.250000 1.730000
vt -2.250000 1.650000
vt -1.875000 1.700000
vt -1.875000 1.730000
vt -0.000000 1.730000
vt -0.375000 1.400000
vt -0.375000 1.730000
vt -0.375000 1.700000
vt 0.000000 -2.599750
vt 2.250000 0.550000
vt 1.875000 0.300000
vt 2.250000 0.630000
vt 1.875000 0.600000
vt 1.875000 0.630000
vt 0.375000 0.630000
vt 0.000000 0.630000
vt 0.375000 0.600000
vt -0.000000 1.730000
vt 2.250000 0.595561
vt 3.000000 0.600000
vt -0.000000 1.730000
vt 1.875000 0.585233
vt 0.375000 -2.610080
vt 1.875000 -2.610080
vt 0.375000 0.585233
vn 0.0000 -1.0000 -0.0000
vn 0.0000 0.0000 -1.0000
vn -1.0000 0.0000 0.0000
vn 0.0000 -0.0000 1.0000
vn 0.3443 0.9389 0.0000
vn 1.0000 0.0000 0.0000
usemtl Stone.152
s 1
f 2/1/1 4/2/1 1/3/1
f 1/4/2 6/5/2 2/6/2
f 1/7/3 4/2/3 11/8/3
f 15/9/4 4/2/4 3/10/4
f 7/11/5 16/12/5 8/13/5
f 3/14/6 2/15/6 21/16/6
f 5/17/2 17/18/2 6/5/2
f 17/19/5 13/20/5 18/21/5
f 12/22/4 18/23/4 13/24/4
f 9/25/2 16/26/2 22/27/2
f 2/1/1 3/28/1 4/2/1
f 1/4/2 5/17/2 6/5/2
f 14/29/3 5/30/3 12/31/3
f 5/30/3 1/7/3 11/8/3
f 14/29/3 12/31/3 13/32/3
f 4/2/3 7/33/3 10/34/3
f 7/33/3 8/35/3 9/36/3
f 9/36/3 10/34/3 7/33/3
f 12/31/3 5/30/3 11/8/3
f 4/2/3 10/34/3 11/8/3
f 15/9/4 7/33/4 4/2/4
f 7/11/5 15/37/5 16/12/5
f 2/15/6 6/38/6 20/39/6
f 6/38/6 17/40/6 19/41/6
f 20/39/6 6/38/6 19/41/6
f 17/40/6 18/42/6 19/41/6
f 16/43/6 15/44/6 22/45/6
f 15/44/6 3/14/6 21/16/6
f 22/45/6 15/44/6 21/16/6
f 2/15/6 20/39/6 21/16/6
f 5/17/2 14/46/2 17/18/2
f 17/19/5 14/47/5 13/20/5
f 12/22/4 19/48/4 18/23/4
f 9/25/2 8/49/2 16/26/2
usemtl Asphalt.124
f 12/50/5 22/51/5 19/52/5
f 12/31/3 10/34/3 9/36/3
f 22/45/6 20/39/6 19/41/6
f 12/50/5 9/53/5 22/51/5
f 12/31/3 11/8/3 10/34/3
f 22/45/6 21/16/6 20/39/6
