# Blender v2.79 (sub 7) OBJ File: ''
# www.blender.org
mtllib roadTile_068.mtl
o Mesh1_Group1_Model.038
v 1.902930 0.600000 0.000000
v 0.160810 0.600000 0.000000
v 0.160810 0.315000 0.000000
v 1.902930 0.315000 0.000000
v 0.090990 0.600000 -0.090990
v 1.747600 0.600000 -0.375000
v 1.151650 0.600000 -1.151650
v 0.375000 0.600000 -1.747600
v 0.000000 0.600000 -1.902930
v 0.000000 0.600000 -0.160810
v 0.000000 0.315000 -1.902930
v 0.000000 0.315000 -0.160810
v 0.090990 0.630000 -0.090990
v 0.160810 0.630000 0.000000
v 0.000000 0.630000 -0.160810
v 0.000000 0.630000 0.000000
v 0.000000 0.630000 -1.902930
v 0.000000 0.630000 -3.000000
v 0.000000 0.000000 -3.000000
v 0.000000 0.000000 0.000000
v 0.375000 0.630000 -1.747600
v 1.747600 0.630000 -0.375000
v 1.902930 0.630000 0.000000
v 3.000000 0.630000 0.000000
v 3.000000 0.630000 -3.000000
v 1.151650 0.630000 -1.151650
v 3.000000 0.000000 0.000000
v 3.000000 0.000000 -3.000000
vt 0.160810 0.600000
vt 1.902930 0.315000
vt 1.902930 0.600000
vt 1.151650 1.151650
vt 0.000000 0.160810
vt 0.090990 0.090990
vt -1.902930 0.600000
vt -0.160810 0.315000
vt -0.160810 0.600000
vt 0.160810 0.315000
vt 0.160810 0.000000
vt 1.902930 0.000000
vt 1.747600 0.375000
vt 0.375000 1.747600
vt 0.000000 1.902930
vt -1.902930 0.315000
vt -0.097895 0.630000
vt 0.016796 0.600000
vt 0.016796 0.630000
vt 0.000000 0.000000
vt 0.090990 0.090990
vt 0.000000 0.160810
vt -3.000000 0.000000
vt -0.000000 0.000000
vt -0.016796 0.630000
vt 0.097895 0.600000
vt 0.097895 0.630000
vt -0.728218 0.630000
vt -0.322321 0.600000
vt -0.322321 0.630000
vt 1.151650 1.151650
vt 1.747600 0.375000
vt 3.000000 3.000000
vt 0.322321 0.630000
vt 0.728218 0.600000
vt 0.728218 0.630000
vt -0.212585 0.630000
vt 0.766361 0.600000
vt 0.766361 0.630000
vt -0.766361 0.630000
vt 0.212585 0.600000
vt 0.212585 0.630000
vt 0.000000 3.000000
vt -3.000000 -0.000000
vt -0.000000 -0.000000
vt -3.000000 0.630000
vt -3.000000 -0.000000
vt -0.000000 0.000000
vt 3.000000 0.630000
vt -0.000000 0.630000
vt -0.097895 0.600000
vt 0.160810 0.000000
vt -0.000000 0.630000
vt -0.160810 0.630000
vt -1.902930 0.630000
vt -3.000000 0.630000
vt -0.016796 0.600000
vt -0.728218 0.600000
vt 1.902930 0.000000
vt 3.000000 0.000000
vt 0.000000 3.000000
vt 0.375000 1.747600
vt 0.000000 1.902930
vt 0.322321 0.600000
vt -0.212585 0.600000
vt -0.766361 0.600000
vt 3.000000 0.630000
vt 1.902930 0.630000
vt 0.160810 0.630000
vt 3.000000 0.000000
vt -3.000000 3.000000
vt -0.000000 0.630000
vt 3.000000 0.000000
vn -0.0000 -0.0000 1.0000
vn -0.0000 1.0000 0.0000
vn -1.0000 0.0000 0.0000
vn 0.7933 0.0000 -0.6088
vn 0.7071 0.0000 -0.7071
vn 0.6088 0.0000 -0.7933
vn -0.3827 0.0000 0.9239
vn -0.5000 0.0000 0.8660
vn -0.8660 -0.0000 0.5000
vn -0.9239 -0.0000 0.3827
vn -0.7071 0.0000 0.7071
vn 0.0000 -1.0000 -0.0000
vn 0.0000 0.0000 -1.0000
vn 1.0000 0.0000 0.0000
usemtl Asphalt.023
s 1
f 2/1/1 4/2/1 1/3/1
f 7/4/2 10/5/2 5/6/2
f 9/7/3 12/8/3 10/9/3
f 2/1/1 3/10/1 4/2/1
f 5/6/2 2/11/2 7/4/2
f 2/11/2 1/12/2 6/13/2
f 6/13/2 7/4/2 2/11/2
f 7/4/2 8/14/2 10/5/2
f 8/14/2 9/15/2 10/5/2
f 9/7/3 11/16/3 12/8/3
usemtl Stone.031
f 14/17/4 5/18/5 13/19/5
f 16/20/2 13/21/2 15/22/2
f 11/16/3 19/23/3 20/24/3
f 13/25/5 10/26/6 15/27/6
f 17/28/7 8/29/8 21/30/8
f 26/31/2 22/32/2 25/33/2
f 22/34/9 1/35/10 23/36/10
f 26/37/11 6/38/9 22/39/9
f 21/40/8 7/41/11 26/42/11
f 4/2/1 3/10/1 20/24/1
f 19/43/12 27/44/12 20/24/12
f 19/45/13 25/46/13 28/47/13
f 27/48/14 25/49/14 24/50/14
f 14/17/4 2/51/4 5/18/5
f 16/20/2 14/52/2 13/21/2
f 16/53/3 15/54/3 10/9/3
f 16/53/3 10/9/3 12/8/3
f 17/55/3 18/56/3 9/7/3
f 18/56/3 19/23/3 11/16/3
f 9/7/3 18/56/3 11/16/3
f 20/24/3 16/53/3 12/8/3
f 20/24/3 12/8/3 11/16/3
f 13/25/5 5/57/5 10/26/6
f 17/28/7 9/58/7 8/29/8
f 22/32/2 23/59/2 24/60/2
f 24/60/2 25/33/2 22/32/2
f 25/33/2 18/61/2 21/62/2
f 26/31/2 25/33/2 21/62/2
f 18/61/2 17/63/2 21/62/2
f 22/34/9 6/64/9 1/35/10
f 26/37/11 7/65/11 6/38/9
f 21/40/8 8/66/8 7/41/11
f 24/67/1 23/68/1 1/3/1
f 24/67/1 1/3/1 4/2/1
f 14/69/1 16/53/1 2/1/1
f 16/53/1 20/24/1 3/10/1
f 2/1/1 16/53/1 3/10/1
f 27/70/1 24/67/1 4/2/1
f 27/70/1 4/2/1 20/24/1
f 19/43/12 28/71/12 27/44/12
f 19/45/13 18/72/13 25/46/13
f 27/48/14 28/73/14 25/49/14
