# Blender v2.79 (sub 7) OBJ File: ''
# www.blender.org
mtllib roadTile_160.mtl
o Mesh1_Group1_Model.291
v 1.500000 0.000000 -1.500000
v -1.500000 0.550000 -1.500000
v 1.500000 0.550000 -1.500000
v 1.500000 0.550000 -0.937500
v -1.500000 0.550000 -0.937500
v -1.500000 0.000000 -0.937500
v -1.500000 0.000000 -1.500000
v -1.500000 0.000000 0.937500
v 1.500000 0.000000 -0.937500
v -1.500000 0.550000 0.937500
v -1.500000 0.000000 1.500000
v -1.500000 0.550000 1.500000
v 1.500000 0.550000 0.937500
v 1.500000 0.550000 1.500000
v 1.500000 0.000000 0.937500
v 1.500000 0.000000 1.500000
v 1.500000 0.300000 0.375000
v 1.500000 0.630000 -0.937500
v -1.500000 0.630000 -0.937500
v -1.500000 0.630000 -0.375000
v 1.500000 0.630000 -0.375000
v -1.500000 0.300000 -0.375000
v -1.500000 0.630000 0.937500
v 1.500000 0.630000 0.937500
v 1.500000 0.630000 0.375000
v -1.500000 0.630000 0.375000
v -1.500000 0.600000 0.375000
v 1.500000 0.600000 0.375000
v 1.500000 0.600000 -0.375000
v -1.500000 0.600000 -0.375000
v 1.500000 0.300000 -0.375000
v -1.500000 0.300000 0.375000
vt -3.000000 -0.000000
vt -0.000000 0.550000
vt -3.000000 0.550000
vt 2.437500 0.550000
vt 3.000000 0.000000
vt 3.000000 0.550000
vt 0.000000 2.437500
vt 3.000000 3.000000
vt 0.000000 3.000000
vt -2.437500 0.000000
vt -3.000000 0.550000
vt -3.000000 0.000000
vt -0.000000 0.562500
vt -0.000000 2.437500
vt -3.000000 2.437500
vt -0.562500 0.550000
vt -0.000000 -0.000000
vt -0.000000 0.550000
vt 3.000000 0.562500
vt 0.000000 0.000000
vt 3.000000 0.000000
vt 0.562500 0.000000
vt 0.000000 0.550000
vt 0.000000 0.000000
vt 3.000000 0.550000
vt -0.000000 -0.000000
vt 2.437500 0.000000
vt 3.000000 2.437500
vt -2.437500 0.550000
vt -0.000000 3.000000
vt -3.000000 3.000000
vt -3.000000 0.562500
vt -3.000000 -0.000000
vt -0.562500 0.000000
vt 0.000000 0.562500
vt 0.562500 0.550000
vt 3.000000 0.000000
vt 1.125000 0.300000
vt -3.000000 0.630000
vt -0.000000 0.550000
vt -0.000000 0.630000
vt 3.000000 2.437500
vt 0.000000 1.875000
vt 3.000000 1.875000
vt -1.875000 0.300000
vt 0.000000 0.630000
vt 3.000000 0.550000
vt 3.000000 0.630000
vt 0.000000 0.562500
vt 3.000000 1.125000
vt 0.000000 1.125000
vt -0.000000 0.600000
vt -3.000000 0.630000
vt -3.000000 0.600000
vt 3.000000 0.600000
vt 0.000000 0.630000
vt 0.000000 0.600000
vt 1.875000 0.300000
vt 2.437500 0.630000
vt 1.875000 0.600000
vt 1.875000 0.630000
vt 0.562500 0.630000
vt 1.125000 0.600000
vt 1.125000 0.630000
vt -3.000000 0.550000
vt 0.000000 2.437500
vt -1.125000 0.300000
vt -0.562500 0.630000
vt -1.125000 0.600000
vt -1.125000 0.630000
vt -2.437500 0.630000
vt -1.875000 0.600000
vt -1.875000 0.630000
vt 0.000000 0.550000
vt 3.000000 0.562500
vt -0.000000 0.630000
vt 3.000000 0.630000
vt 3.000000 1.125000
vt 0.000000 1.875000
vt 0.000000 1.125000
vt 3.000000 1.875000
vn 0.0000 0.0000 -1.0000
vn 1.0000 0.0000 0.0000
vn 0.0000 1.0000 0.0000
vn -1.0000 0.0000 0.0000
vn 0.0000 -1.0000 -0.0000
vn 0.0000 0.0000 1.0000
usemtl Grass.121
s 1
f 1/1/1 2/2/1 3/3/1
f 4/4/2 1/5/2 3/6/2
f 5/7/3 3/8/3 2/9/3
f 6/10/4 2/11/4 7/12/4
f 8/13/5 6/14/5 9/15/5
f 10/16/4 11/17/4 12/18/4
f 13/19/3 12/20/3 14/21/3
f 15/22/2 14/23/2 16/24/2
f 11/17/6 14/25/6 12/18/6
f 1/1/1 7/26/1 2/2/1
f 4/4/2 9/27/2 1/5/2
f 5/7/3 4/28/3 3/8/3
f 6/10/4 5/29/4 2/11/4
f 6/14/5 7/30/5 1/31/5
f 9/15/5 15/32/5 8/13/5
f 15/32/5 16/33/5 8/13/5
f 6/14/5 1/31/5 9/15/5
f 16/33/5 11/17/5 8/13/5
f 10/16/4 8/34/4 11/17/4
f 13/19/3 10/35/3 12/20/3
f 15/22/2 13/36/2 14/23/2
f 11/17/6 16/37/6 14/25/6
usemtl Stone.248
f 15/22/2 9/27/2 17/38/2
f 18/39/1 5/40/1 19/41/1
f 18/42/3 20/43/3 21/44/3
f 6/10/4 8/34/4 22/45/4
f 23/46/6 13/47/6 24/48/6
f 23/49/3 25/50/3 26/51/3
f 27/52/1 25/53/1 28/54/1
f 29/55/6 20/56/6 30/57/6
f 9/27/2 4/4/2 31/58/2
f 4/4/2 18/59/2 29/60/2
f 31/58/2 4/4/2 29/60/2
f 18/59/2 21/61/2 29/60/2
f 24/62/2 13/36/2 28/63/2
f 13/36/2 15/22/2 17/38/2
f 28/63/2 25/64/2 24/62/2
f 17/38/2 28/63/2 13/36/2
f 9/27/2 31/58/2 17/38/2
f 18/39/1 4/65/1 5/40/1
f 18/42/3 19/66/3 20/43/3
f 8/34/4 10/16/4 32/67/4
f 10/16/4 23/68/4 27/69/4
f 32/67/4 10/16/4 27/69/4
f 23/68/4 26/70/4 27/69/4
f 19/71/4 5/29/4 30/72/4
f 5/29/4 6/10/4 22/45/4
f 30/72/4 20/73/4 19/71/4
f 22/45/4 30/72/4 5/29/4
f 8/34/4 32/67/4 22/45/4
f 23/46/6 10/74/6 13/47/6
f 23/49/3 24/75/3 25/50/3
f 27/52/1 26/76/1 25/53/1
f 29/55/6 21/77/6 20/56/6
usemtl Asphalt.201
f 28/78/3 30/79/3 27/80/3
f 17/38/2 29/60/2 28/63/2
f 22/45/4 27/69/4 30/72/4
f 28/78/3 29/81/3 30/79/3
f 17/38/2 31/58/2 29/60/2
f 22/45/4 32/67/4 27/69/4
