# Blender v2.79 (sub 7) OBJ File: ''
# www.blender.org
mtllib roadTile_087.mtl
o Mesh1_Group1_Model.231
v -0.562500 0.630000 1.500000
v -1.500000 0.630000 0.562500
v -1.500000 0.630000 1.500000
v -1.500000 0.000000 1.500000
v -0.375000 0.570000 1.500000
v -0.562500 0.570000 1.500000
v -1.500000 0.570000 0.375000
v -1.500000 0.570000 -0.375000
v 1.500000 0.000000 -1.500000
v 1.500000 0.000000 1.500000
v 0.375000 0.570000 -1.500000
v 0.562500 0.570000 -1.500000
v 1.500000 0.570000 -0.375000
v 1.500000 0.570000 0.375000
v 0.562500 0.630000 -1.500000
v 1.500000 0.630000 -0.562500
v 1.500000 0.630000 -1.500000
v 0.375000 0.630000 0.375000
v -0.375000 0.630000 -0.375000
v -0.375000 0.630000 0.375000
v 0.375000 0.630000 -0.562500
v -0.375000 0.630000 -1.500000
v -0.375000 0.630000 -0.562500
v -0.562500 0.630000 0.375000
v -1.500000 0.630000 -0.375000
v -1.500000 0.630000 0.375000
v -0.562500 0.630000 -0.562500
v -1.500000 0.630000 -1.500000
v -1.500000 0.630000 -0.562500
v 0.375000 0.630000 1.500000
v -0.375000 0.630000 0.562500
v -0.375000 0.630000 1.500000
v 0.562500 0.630000 0.562500
v 1.500000 0.630000 1.500000
v 1.500000 0.630000 0.562500
v 0.562500 0.630000 -0.375000
v 1.500000 0.630000 0.375000
v 1.500000 0.630000 -0.375000
v -0.562500 0.630000 0.562500
v 0.375000 0.570000 1.500000
v 0.562500 0.570000 1.500000
v 0.562500 0.630000 1.500000
v -1.500000 0.000000 -1.500000
v -1.500000 0.570000 -0.562500
v -1.500000 0.570000 0.562500
v -0.375000 0.570000 -1.500000
v -0.562500 0.570000 -1.500000
v -0.562500 0.630000 -1.500000
v 0.375000 0.630000 -1.500000
v 1.500000 0.570000 0.562500
v 1.500000 0.570000 -0.562500
v 0.562500 0.630000 -0.562500
v 0.375000 0.630000 -0.375000
v -0.562500 0.630000 -0.375000
v 0.375000 0.630000 0.562500
v 0.562500 0.630000 0.375000
v 0.562500 0.570000 -0.562500
v 0.562500 0.570000 0.562500
v 0.375000 0.570000 0.375000
v 0.375000 0.570000 0.562500
v -0.375000 0.570000 0.375000
v -0.375000 0.570000 0.562500
v -0.375000 0.570000 -0.375000
v 0.375000 0.570000 -0.375000
v 0.375000 0.570000 -0.562500
v -0.375000 0.570000 -0.562500
v -0.562500 0.570000 0.375000
v -0.562500 0.570000 0.562500
v -0.562500 0.570000 -0.375000
v -0.562500 0.570000 -0.562500
v 0.562500 0.570000 0.375000
v 0.562500 0.570000 -0.375000
vt 0.937500 0.000000
vt 0.000000 0.937500
vt 0.000000 0.000000
vt 0.000000 0.000000
vt 1.125000 0.570000
vt 0.937500 0.570000
vt -1.125000 0.570000
vt -1.875000 0.570000
vt -3.000000 3.000000
vt -3.000000 0.000000
vt -3.000000 0.000000
vt -1.875000 0.570000
vt -2.062500 0.570000
vt 3.000000 -0.000000
vt 1.875000 0.570000
vt 1.125000 0.570000
vt 2.062500 3.000000
vt 3.000000 2.062500
vt 3.000000 3.000000
vt 1.875000 1.125000
vt 1.125000 1.875000
vt 1.125000 1.125000
vt 1.875000 2.062500
vt 1.125000 3.000000
vt 1.125000 2.062500
vt 0.937500 1.125000
vt 0.000000 1.875000
vt 0.000000 1.125000
vt 0.937500 2.062500
vt 0.000000 3.000000
vt 0.000000 2.062500
vt 1.875000 0.000000
vt 1.125000 0.937500
vt 1.125000 0.000000
vt 2.062500 0.937500
vt 3.000000 0.000000
vt 3.000000 0.937500
vt 2.062500 1.875000
vt 3.000000 1.125000
vt 3.000000 1.875000
vt 0.937500 0.937500
vt 0.937500 0.630000
vt 0.000000 0.630000
vt 3.000000 0.000000
vt 1.875000 0.570000
vt 3.000000 0.630000
vt 2.062500 0.570000
vt 2.062500 0.630000
vt 1.875000 0.630000
vt 1.125000 0.630000
vt -3.000000 0.630000
vt -3.000000 0.000000
vt -2.062500 0.570000
vt -0.937500 0.570000
vt -0.937500 0.630000
vt -2.062500 0.630000
vt -1.125000 0.630000
vt -1.875000 0.630000
vt 0.000000 3.000000
vt -2.062500 0.630000
vt -3.000000 0.630000
vt -0.000000 0.000000
vt -1.125000 0.570000
vt -0.000000 0.630000
vt -0.937500 0.570000
vt -0.937500 0.630000
vt -1.125000 0.630000
vt -1.875000 0.630000
vt -0.000000 0.630000
vt -0.000000 -0.000000
vt 0.937500 0.570000
vt 3.000000 0.630000
vt 2.062500 0.570000
vt 2.062500 0.630000
vt 0.937500 0.630000
vt 1.875000 0.630000
vt 1.125000 0.630000
vt 2.062500 2.062500
vt 1.875000 1.875000
vt 1.875000 3.000000
vt 0.937500 1.875000
vt 0.937500 3.000000
vt 1.875000 0.937500
vt 2.062500 -0.000000
vt 2.062500 1.125000
vt -3.000000 0.630000
vt -2.062500 0.570000
vt -2.062500 0.630000
vt 2.062500 3.000000
vt 2.062500 0.937500
vt 2.062500 2.062500
vt 2.062500 0.000000
vt 1.875000 1.125000
vt 1.875000 0.000000
vt 1.875000 0.937500
vt 1.125000 1.125000
vt 1.125000 0.937500
vt 1.125000 1.875000
vt -1.875000 0.630000
vt -1.125000 0.570000
vt -1.125000 0.630000
vt 1.125000 0.630000
vt 1.875000 0.570000
vt 1.875000 0.630000
vt 1.125000 0.630000
vt 1.875000 0.570000
vt 1.875000 0.630000
vt 1.875000 2.062500
vt 1.875000 1.875000
vt 1.125000 2.062500
vt 1.125000 3.000000
vt -3.000000 0.630000
vt -2.062500 0.570000
vt -2.062500 0.630000
vt 1.125000 0.630000
vt 1.875000 0.570000
vt 1.875000 0.630000
vt 2.062500 0.630000
vt 3.000000 0.570000
vt 3.000000 0.630000
vt 1.875000 3.000000
vt 1.125000 0.000000
vt 0.937500 1.125000
vt 0.937500 0.000000
vt 0.937500 0.937500
vt 0.000000 1.125000
vt 0.000000 0.937500
vt -0.937500 0.630000
vt -0.000000 0.570000
vt -0.000000 0.630000
vt -0.000000 0.630000
vt 0.937500 0.570000
vt 0.937500 0.630000
vt 0.000000 0.630000
vt 0.937500 0.570000
vt 0.937500 0.630000
vt 1.125000 0.630000
vt 1.875000 0.570000
vt 1.875000 0.630000
vt 0.937500 2.062500
vt 0.937500 1.875000
vt 0.000000 2.062500
vt 0.000000 1.875000
vt -0.937500 0.630000
vt -0.000000 0.570000
vt -0.000000 0.630000
vt 0.000000 0.630000
vt 0.937500 0.570000
vt 0.937500 0.630000
vt 2.062500 0.630000
vt 3.000000 0.570000
vt 3.000000 0.630000
vt 0.937500 3.000000
vt -0.937500 0.630000
vt 0.000000 0.570000
vt 0.000000 0.630000
vt -0.000000 0.630000
vt 0.937500 0.570000
vt 0.937500 0.630000
vt -1.875000 0.630000
vt -1.125000 0.570000
vt -1.125000 0.630000
vt -1.875000 0.630000
vt -1.125000 0.570000
vt -1.125000 0.630000
vt -0.937500 0.630000
vt 0.000000 0.570000
vt 0.000000 0.630000
vt -3.000000 0.630000
vt -2.062500 0.570000
vt -2.062500 0.630000
vt 2.062500 1.125000
vt 3.000000 0.937500
vt 2.062500 1.875000
vt -1.875000 0.630000
vt -1.125000 0.570000
vt -1.125000 0.630000
vt -3.000000 0.630000
vt -2.062500 0.570000
vt -2.062500 0.630000
vt 3.000000 2.062500
vt 3.000000 1.875000
vt 2.062500 0.630000
vt 3.000000 0.570000
vt 3.000000 0.630000
vt 2.062500 0.630000
vt 3.000000 0.570000
vt 3.000000 0.630000
vt 3.000000 1.125000
vt -3.000000 0.570000
vt -1.875000 0.570000
vt 1.125000 0.570000
vt 1.125000 0.570000
vt -3.000000 0.570000
vt 1.125000 0.570000
vt 2.062500 0.570000
vt -0.937500 0.570000
vt -0.000000 0.570000
vt 0.000000 0.570000
vt 1.125000 0.570000
vt -0.937500 0.570000
vt 0.000000 0.570000
vt 2.062500 0.570000
vt -0.937500 0.570000
vt -0.000000 0.570000
vt -1.875000 0.570000
vt -1.875000 0.570000
vt -0.937500 0.570000
vt -3.000000 0.570000
vt -1.875000 0.570000
vt -3.000000 0.570000
vt 2.062500 0.570000
vt 2.062500 0.570000
vn 0.0000 1.0000 0.0000
vn 0.0000 0.0000 1.0000
vn -1.0000 0.0000 0.0000
vn 0.0000 -1.0000 -0.0000
vn 0.0000 0.0000 -1.0000
vn 1.0000 0.0000 0.0000
vn -0.8922 0.2791 -0.3551
vn 0.5091 0.3311 -0.7945
vn -0.2817 0.3848 -0.8790
vn 0.4312 0.3569 -0.8287
vn -0.9825 0.1843 0.0273
vn 0.6243 0.3467 -0.7000
vn -0.3031 0.3833 -0.8725
vn -0.9824 0.1859 0.0199
vn 0.8169 0.2680 -0.5108
usemtl Stone.197
s 1
f 1/1/1 2/2/1 3/3/1
f 4/4/2 5/5/2 6/6/2
f 4/4/3 7/7/3 8/8/3
f 4/4/4 9/9/4 10/10/4
f 9/11/5 11/12/5 12/13/5
f 9/14/6 13/15/6 14/16/6
f 15/17/1 16/18/1 17/19/1
f 18/20/1 19/21/1 20/22/1
f 21/23/1 22/24/1 23/25/1
f 24/26/1 25/27/1 26/28/1
f 27/29/1 28/30/1 29/31/1
f 30/32/1 31/33/1 32/34/1
f 33/35/1 34/36/1 35/37/1
f 36/38/1 37/39/1 38/40/1
f 1/1/1 39/41/1 2/2/1
f 1/42/2 3/43/2 6/6/2
f 3/43/2 4/4/2 6/6/2
f 4/4/2 10/44/2 40/45/2
f 10/44/2 34/46/2 41/47/2
f 34/46/2 42/48/2 41/47/2
f 40/45/2 30/49/2 32/50/2
f 10/44/2 41/47/2 40/45/2
f 40/45/2 32/50/2 5/5/2
f 4/4/2 40/45/2 5/5/2
f 28/51/3 43/52/3 44/53/3
f 43/52/3 4/4/3 8/8/3
f 44/53/3 43/52/3 8/8/3
f 4/4/3 3/43/3 45/54/3
f 3/43/3 2/55/3 45/54/3
f 44/53/3 29/56/3 28/51/3
f 26/57/3 25/58/3 8/8/3
f 7/7/3 26/57/3 8/8/3
f 4/4/3 45/54/3 7/7/3
f 4/4/4 43/59/4 9/9/4
f 15/60/5 17/61/5 12/13/5
f 17/61/5 9/11/5 12/13/5
f 9/11/5 43/62/5 46/63/5
f 43/62/5 28/64/5 47/65/5
f 28/64/5 48/66/5 47/65/5
f 46/63/5 22/67/5 49/68/5
f 43/62/5 47/65/5 46/63/5
f 46/63/5 49/68/5 11/12/5
f 9/11/5 46/63/5 11/12/5
f 34/69/6 10/70/6 50/71/6
f 10/70/6 9/14/6 14/16/6
f 50/71/6 10/70/6 14/16/6
f 9/14/6 17/72/6 51/73/6
f 17/72/6 16/74/6 51/73/6
f 50/71/6 35/75/6 34/69/6
f 38/76/6 37/77/6 14/16/6
f 13/15/6 38/76/6 14/16/6
f 9/14/6 51/73/6 13/15/6
f 15/17/1 52/78/1 16/18/1
f 18/20/1 53/79/1 19/21/1
f 21/23/1 49/80/1 22/24/1
f 24/26/1 54/81/1 25/27/1
f 27/29/1 48/82/1 28/30/1
f 30/32/1 55/83/1 31/33/1
f 33/35/1 42/84/1 34/36/1
f 36/38/1 56/85/1 37/39/1
usemtl Grey_Asphalt.012
f 15/86/3 57/87/3 52/88/3
f 12/89/1 58/90/7 57/91/8
f 12/89/1 41/92/1 58/90/7
f 59/93/1 41/92/1 12/89/1
f 59/93/1 40/94/1 41/92/1
f 59/93/1 60/95/9 40/94/1
f 61/96/1 60/95/9 59/93/1
f 61/96/1 62/97/7 60/95/9
f 62/97/7 61/96/1 63/98/10
f 19/99/3 61/100/3 20/101/3
f 20/102/2 59/103/2 18/104/2
f 18/105/6 64/106/6 53/107/6
f 65/108/1 64/109/11 59/93/1
f 66/110/12 64/109/11 65/108/1
f 66/110/12 63/98/10 64/109/11
f 66/110/12 62/97/7 63/98/10
f 62/97/7 66/110/12 46/111/1
f 22/112/3 66/113/3 23/114/3
f 23/115/2 65/116/2 21/117/2
f 21/118/6 11/119/6 49/120/6
f 65/108/1 12/89/1 11/121/1
f 12/89/1 65/108/1 59/93/1
f 46/111/1 5/122/1 62/97/7
f 67/123/1 5/122/1 46/111/1
f 67/123/1 6/124/1 5/122/1
f 67/123/1 68/125/13 6/124/1
f 7/126/1 68/125/13 67/123/1
f 68/125/13 7/126/1 45/127/1
f 39/128/5 45/129/5 2/130/5
f 1/131/6 68/132/6 39/133/6
f 26/134/2 67/135/2 24/136/2
f 24/137/6 69/138/6 54/139/6
f 70/140/1 69/141/14 67/123/1
f 44/142/1 69/141/14 70/140/1
f 69/141/14 44/142/1 8/143/1
f 54/144/5 8/145/5 25/146/5
f 29/147/2 70/148/2 27/149/2
f 27/150/6 47/151/6 48/152/6
f 70/140/1 46/111/1 47/153/1
f 46/111/1 70/140/1 67/123/1
f 31/154/3 5/155/3 32/156/3
f 30/157/6 60/158/6 55/159/6
f 55/160/5 62/161/5 31/162/5
f 53/163/5 63/164/5 19/165/5
f 33/166/3 41/167/3 42/168/3
f 35/169/5 58/170/5 33/171/5
f 71/172/1 58/90/7 50/173/1
f 58/90/7 71/172/1 72/174/15
f 36/175/3 71/176/3 56/177/3
f 38/178/5 72/179/5 36/180/5
f 51/181/1 72/174/15 13/182/1
f 57/91/8 72/174/15 51/181/1
f 72/174/15 57/91/8 58/90/7
f 52/183/2 51/184/2 16/185/2
f 56/186/2 14/187/2 37/188/2
f 71/172/1 50/173/1 14/189/1
f 15/86/3 12/190/3 57/87/3
f 19/99/3 63/191/3 61/100/3
f 20/102/2 61/192/2 59/103/2
f 18/105/6 59/193/6 64/106/6
f 22/112/3 46/194/3 66/113/3
f 23/115/2 66/195/2 65/116/2
f 21/118/6 65/196/6 11/119/6
f 39/128/5 68/197/5 45/129/5
f 1/131/6 6/198/6 68/132/6
f 26/134/2 7/199/2 67/135/2
f 24/137/6 67/200/6 69/138/6
f 54/144/5 69/201/5 8/145/5
f 29/147/2 44/202/2 70/148/2
f 27/150/6 70/203/6 47/151/6
f 31/154/3 62/204/3 5/155/3
f 30/157/6 40/205/6 60/158/6
f 55/160/5 60/206/5 62/161/5
f 53/163/5 64/207/5 63/164/5
f 33/166/3 58/208/3 41/167/3
f 35/169/5 50/209/5 58/170/5
f 36/175/3 72/210/3 71/176/3
f 38/178/5 13/211/5 72/179/5
f 52/183/2 57/212/2 51/184/2
f 56/186/2 71/213/2 14/187/2
