# Blender v2.79 (sub 7) OBJ File: ''
# www.blender.org
mtllib roadTile_252.mtl
o Mesh1_Group1_Model.015
v 0.750000 0.455000 -3.000000
v 0.750000 0.630000 -3.000000
v 0.750000 0.630000 0.000000
v 0.750000 0.455000 0.000000
v 0.750000 0.000000 -3.000000
v 0.375000 0.000000 -3.000000
v 0.375000 0.550000 -3.000000
v 0.375000 0.630000 -3.000000
v 0.375000 0.630000 0.000000
v 0.375000 0.550000 0.000000
v 0.375000 0.000000 0.000000
v 0.750000 0.000000 0.000000
v 3.000000 0.000000 -3.000000
v 3.000000 0.000000 0.000000
v 0.000000 0.000000 0.000000
v 0.000000 0.000000 -3.000000
v 0.000000 0.550000 0.000000
v 0.000000 0.550000 -3.000000
v 3.000000 0.455000 -3.000000
v 3.000000 0.455000 0.000000
vt 3.000000 0.630000
vt 0.000000 0.455000
vt 3.000000 0.455000
vt -0.750000 0.455000
vt -0.375000 0.550000
vt -0.750000 0.630000
vt 0.750000 0.455000
vt 0.750000 0.630000
vt 0.375000 0.550000
vt -0.000000 0.550000
vt -3.000000 0.630000
vt -3.000000 0.550000
vt 0.375000 3.000000
vt 0.750000 0.000000
vt 0.750000 3.000000
vt 0.000000 0.630000
vt -0.750000 0.000000
vt -0.375000 0.000000
vt -0.375000 0.630000
vt 0.375000 0.630000
vt 0.375000 0.000000
vt 0.750000 0.000000
vt -0.000000 0.630000
vt 0.375000 0.000000
vt -0.375000 3.000000
vt -0.750000 3.000000
vt -0.750000 0.000000
vt 0.375000 0.000000
vt 0.000000 3.000000
vt 0.000000 0.000000
vt 0.000000 0.550000
vt -0.000000 0.000000
vt -3.000000 0.550000
vt -3.000000 0.000000
vt 0.000000 0.000000
vt 0.000000 0.550000
vt -3.000000 3.000000
vt -3.000000 0.000000
vt -0.375000 0.000000
vt -0.000000 3.000000
vt 0.375000 3.000000
vt 0.000000 0.455000
vt 3.000000 0.000000
vt 3.000000 0.455000
vt 3.000000 3.000000
vt 0.750000 0.000000
vt 3.000000 0.000000
vt -3.000000 0.455000
vt -3.000000 0.000000
vt 3.000000 0.455000
vt 3.000000 0.000000
vt 0.000000 0.000000
vt 0.750000 3.000000
vn 1.0000 0.0000 0.0000
vn -0.0000 0.0000 -1.0000
vn -0.0000 -0.0000 1.0000
vn -1.0000 0.0000 0.0000
vn 0.0000 1.0000 0.0000
vn 0.0000 -1.0000 -0.0000
usemtl Stone.012
s 1
f 2/1/1 4/2/1 1/3/1
f 1/4/2 7/5/2 2/6/2
f 4/7/3 3/8/3 10/9/3
f 10/10/4 8/11/4 7/12/4
f 8/13/5 3/14/5 2/15/5
f 2/1/1 3/16/1 4/2/1
f 1/4/2 5/17/2 6/18/2
f 6/18/2 7/5/2 1/4/2
f 7/5/2 8/19/2 2/6/2
f 3/8/3 9/20/3 10/9/3
f 10/9/3 11/21/3 4/7/3
f 11/21/3 12/22/3 4/7/3
f 10/10/4 9/23/4 8/11/4
f 8/13/5 9/24/5 3/14/5
usemtl Grass.006
f 6/25/6 5/26/6 12/27/6
f 10/28/5 18/29/5 17/30/5
f 11/21/3 17/31/3 15/32/3
f 15/32/4 18/33/4 16/34/4
f 7/5/2 16/35/2 18/36/2
f 5/26/6 13/37/6 14/38/6
f 12/27/6 11/39/6 6/25/6
f 11/39/6 15/32/6 6/25/6
f 5/26/6 14/38/6 12/27/6
f 15/32/6 16/40/6 6/25/6
f 10/28/5 7/41/5 18/29/5
f 11/21/3 10/9/3 17/31/3
f 15/32/4 17/31/4 18/33/4
f 7/5/2 6/18/2 16/35/2
usemtl Water.005
f 20/42/1 13/43/1 19/44/1
f 19/45/5 4/46/5 20/47/5
f 5/17/2 19/48/2 13/49/2
f 20/50/3 12/22/3 14/51/3
f 20/42/1 14/52/1 13/43/1
f 19/45/5 1/53/5 4/46/5
f 5/17/2 1/4/2 19/48/2
f 20/50/3 4/7/3 12/22/3
