# Blender v2.79 (sub 7) OBJ File: ''
# www.blender.org
mtllib roadTile_050.mtl
o Mesh1_Group1_Model.132
v 3.000000 0.000000 -3.000000
v 0.375000 0.000000 -3.000000
v 0.375000 1.650000 -3.000000
v 0.375000 1.730000 -3.000000
v 0.750000 1.730000 -3.000000
v 0.750000 0.600000 -3.000000
v 0.750000 0.300000 -3.000000
v 3.000000 0.300000 -3.000000
v 3.000000 0.300000 0.000000
v 3.000000 0.000000 0.000000
v 0.375000 1.730000 0.000000
v 0.375000 1.650000 0.000000
v 0.375000 0.000000 0.000000
v 0.750000 0.300000 0.000000
v 0.750000 0.600000 0.000000
v 0.750000 1.730000 0.000000
v 0.000000 0.000000 0.000000
v 0.000000 0.000000 -3.000000
v 0.000000 1.650000 0.000000
v 0.000000 1.650000 -3.000000
v 3.000000 0.600000 0.000000
v 3.000000 0.600000 -3.000000
vt -0.375000 0.000000
vt -0.375000 1.650000
vt -0.750000 0.600000
vt 3.000000 0.300000
vt 0.000000 0.000000
vt 3.000000 0.000000
vt 0.375000 0.000000
vt 0.750000 0.600000
vt 0.375000 1.650000
vt -3.000000 1.730000
vt -0.000000 1.650000
vt -0.000000 1.730000
vt 0.375000 3.000000
vt 0.750000 0.000000
vt 0.750000 3.000000
vt 0.000000 1.730000
vt 3.000000 0.600000
vt 3.000000 1.730000
vt -3.000000 0.300000
vt -3.000000 0.000000
vt -0.750000 0.300000
vt -0.375000 1.730000
vt -0.750000 1.730000
vt 0.000000 0.300000
vt 0.750000 1.730000
vt 0.375000 1.730000
vt 3.000000 0.000000
vt 0.750000 0.300000
vt 3.000000 0.300000
vt -3.000000 1.650000
vt 0.375000 0.000000
vt 0.000000 0.600000
vt -0.375000 0.000000
vt -0.000000 3.000000
vt -0.375000 3.000000
vt 0.375000 0.000000
vt 0.000000 3.000000
vt 0.000000 0.000000
vt 0.000000 1.650000
vt -0.000000 0.000000
vt -3.000000 1.650000
vt -3.000000 0.000000
vt 0.000000 0.000000
vt -0.000000 1.650000
vt -3.000000 3.000000
vt -3.000000 0.000000
vt 0.375000 3.000000
vt 3.000000 0.600000
vt 0.000000 0.600000
vt 3.000000 0.600000
vt 3.000000 3.000000
vt 0.750000 0.000000
vt 3.000000 0.000000
vt -3.000000 0.600000
vt 0.750000 3.000000
vn -0.0000 0.0000 -1.0000
vn 1.0000 0.0000 0.0000
vn 0.0000 -0.0000 1.0000
vn -1.0000 -0.0000 0.0000
vn 0.0000 1.0000 0.0000
vn 0.0000 -1.0000 -0.0000
usemtl Stone.111
s 1
f 2/1/1 3/2/1 6/3/1
f 8/4/2 10/5/2 1/6/2
f 13/7/3 15/8/3 12/9/3
f 4/10/4 12/11/4 11/12/4
f 4/13/5 16/14/5 5/15/5
f 16/16/2 6/17/2 5/18/2
f 8/19/1 1/20/1 7/21/1
f 1/20/1 2/1/1 7/21/1
f 3/2/1 4/22/1 5/23/1
f 5/23/1 6/3/1 3/2/1
f 6/3/1 7/21/1 2/1/1
f 8/4/2 9/24/2 10/5/2
f 16/25/3 11/26/3 12/9/3
f 13/7/3 10/27/3 14/28/3
f 10/27/3 9/29/3 14/28/3
f 14/28/3 15/8/3 13/7/3
f 15/8/3 16/25/3 12/9/3
f 4/10/4 3/30/4 12/11/4
f 4/13/5 11/31/5 16/14/5
f 16/16/2 15/32/2 6/17/2
usemtl Grass.058
f 13/33/6 18/34/6 2/35/6
f 12/36/5 20/37/5 19/38/5
f 13/7/3 19/39/3 17/40/3
f 17/40/4 20/41/4 18/42/4
f 3/2/1 18/43/1 20/44/1
f 2/35/6 1/45/6 10/46/6
f 13/33/6 17/40/6 18/34/6
f 2/35/6 10/46/6 13/33/6
f 12/36/5 3/47/5 20/37/5
f 13/7/3 12/9/3 19/39/3
f 17/40/4 19/39/4 20/41/4
f 3/2/1 2/1/1 18/43/1
usemtl Asphalt.088
f 9/24/2 22/48/2 21/49/2
f 14/28/3 21/50/3 15/8/3
f 22/51/5 15/52/5 21/53/5
f 8/19/1 6/3/1 22/54/1
f 9/24/2 8/4/2 22/48/2
f 14/28/3 9/29/3 21/50/3
f 22/51/5 6/55/5 15/52/5
f 8/19/1 7/21/1 6/3/1
