# Blender v2.79 (sub 7) OBJ File: ''
# www.blender.org
mtllib roadTile_134.mtl
o Mesh1_Group1_Model.268
v -0.746393 0.630000 1.312500
v -0.621109 0.000000 1.500000
v -0.621109 0.630000 1.500000
v -0.725368 0.630000 0.509088
v -0.946111 0.630000 -0.141200
v -1.308333 0.630000 -0.044140
v -1.125000 0.275000 -1.500000
v 0.375000 0.275000 -1.500000
v 0.750000 0.000000 -1.500000
v -1.080086 0.630000 -0.814740
v -1.125000 0.600000 -1.500000
v -1.125000 0.630000 -1.500000
v -1.080086 0.600000 -0.814740
v -0.946111 0.600000 -0.141200
v -0.421630 0.630000 1.125000
v -0.725368 0.600000 0.509088
v -0.171070 0.630000 1.500000
v -0.421630 0.600000 1.125000
v -0.171070 0.300000 1.500000
v 0.865000 0.000000 -0.626490
v 1.006910 0.000000 -0.208440
v -1.071822 0.000000 0.652594
v -1.071822 0.630000 0.652594
v -0.746393 0.000000 1.312500
v -1.451877 0.630000 -0.765790
v -1.308333 0.000000 -0.044140
v -1.500000 0.630000 -1.500000
v -1.451877 0.000000 -0.765790
v 0.778870 0.630000 -1.059470
v 0.750000 0.630000 -1.500000
v 0.375000 0.630000 -1.500000
v 1.125000 0.300000 0.745552
v 1.125000 0.000000 1.500000
v 1.125000 0.000000 0.031030
v 0.877400 0.630000 0.375000
v 1.125000 0.600000 0.745552
v 1.125000 0.630000 0.745552
v 0.660450 0.630000 -0.064940
v 0.877400 0.600000 0.375000
v 0.502780 0.630000 -0.529430
v 0.660450 0.600000 -0.064940
v 0.407080 0.630000 -1.010530
v 0.502780 0.600000 -0.529430
v 0.407080 0.600000 -1.010530
v 1.125000 0.630000 0.031030
v 1.006910 0.630000 -0.208440
v 0.865000 0.630000 -0.626490
v 0.778870 0.000000 -1.059470
v 0.375000 0.600000 -1.500000
v -1.500000 0.000000 -1.500000
v -0.171070 0.600000 1.500000
v 1.125000 0.300000 1.500000
v 1.125000 0.600000 1.500000
vt 0.262781 0.630000
vt 0.488285 0.000000
vt 0.488285 0.630000
vt 0.774632 0.990912
vt 0.553889 1.641200
vt 0.191667 1.544140
vt -0.375000 0.275000
vt -1.875000 0.275000
vt -2.250000 0.000000
vt 2.282320 0.630000
vt 2.969050 0.600000
vt 2.969050 0.630000
vt 1.501610 0.630000
vt 2.188340 0.600000
vt 2.188340 0.630000
vt 0.689327 0.630000
vt 1.376060 0.600000
vt 1.376060 0.630000
vt -0.140622 0.630000
vt 0.546111 0.600000
vt 0.546111 0.630000
vt -0.738316 0.630000
vt -0.287307 0.600000
vt -0.287307 0.630000
vt 1.328930 0.300000
vt 0.878891 0.630000
vt 0.878891 0.000000
vt -2.365000 2.126490
vt -2.506910 1.708440
vt -0.428178 0.847406
vt -0.570637 0.630000
vt 0.165148 0.000000
vt 0.165148 0.630000
vt -1.400590 0.630000
vt -0.664801 0.000000
vt -0.664801 0.630000
vt -2.212870 0.630000
vt -1.477080 0.000000
vt -1.477080 0.630000
vt -2.993580 0.630000
vt -2.257790 0.000000
vt -2.257790 0.630000
vt 2.404950 0.630000
vt 2.846420 0.000000
vt 2.846420 0.630000
vt 2.278870 2.559470
vt 2.250000 3.000000
vt 1.875000 3.000000
vt 0.754448 0.300000
vt -0.000000 0.000000
vt 1.468970 0.000000
vt 0.385412 0.630000
vt 0.831072 0.600000
vt 0.831072 0.630000
vt -0.448006 0.630000
vt 0.042517 0.600000
vt 0.042517 0.630000
vt -1.277960 0.630000
vt -0.787432 0.600000
vt -0.787432 0.630000
vt -2.090230 0.630000
vt -1.599710 0.600000
vt -1.599710 0.630000
vt -2.870950 0.630000
vt -2.380420 0.600000
vt -2.380420 0.630000
vt 0.156475 0.630000
vt 0.423480 0.000000
vt 0.423480 0.630000
vt 0.811958 0.630000
vt 1.253430 0.000000
vt 1.253430 0.630000
vt 1.624240 0.630000
vt 2.065710 0.000000
vt 2.065710 0.630000
vt 0.262781 0.000000
vt 0.419914 2.314740
vt 0.375000 3.000000
vt -0.000000 3.000000
vt 0.048123 2.265790
vt 0.428178 0.847406
vt 0.753607 0.187500
vt 0.878891 -0.000000
vt 1.078370 0.375000
vt 1.328930 -0.000000
vt 0.000000 0.630000
vt -0.375000 0.630000
vt -0.375000 0.600000
vt -1.875000 0.630000
vt -2.250000 0.630000
vt -1.875000 0.600000
vt 0.000000 0.000000
vt 2.282320 0.600000
vt 1.501610 0.600000
vt 0.689327 0.600000
vt -0.140622 0.600000
vt -0.738316 0.600000
vt 2.625000 0.000000
vt 2.625000 0.300000
vt 1.328930 0.600000
vt 1.328930 0.630000
vt -2.625000 1.468970
vt -2.625000 0.000000
vt -0.753607 0.187500
vt -0.878891 -0.000000
vt -0.191667 1.544140
vt -0.048123 2.265790
vt 0.000000 3.000000
vt -2.278870 2.559470
vt -2.250000 3.000000
vt -0.570637 0.000000
vt -1.400590 0.000000
vt -2.212870 0.000000
vt -2.993580 0.000000
vt 2.404950 0.000000
vt 2.377400 1.125000
vt 2.625000 0.754448
vt 2.625000 1.468970
vt 2.160450 1.564940
vt 2.506910 1.708440
vt 2.002780 2.029430
vt 2.365000 2.126490
vt 1.907080 2.510530
vt 0.754448 0.630000
vt 0.754448 0.600000
vt 1.468970 0.630000
vt -0.000000 0.300000
vt 0.385412 0.600000
vt -0.448006 0.600000
vt -1.277960 0.600000
vt -2.090230 0.600000
vt -2.870950 0.600000
vt 0.156475 0.000000
vt 0.811958 0.000000
vt 1.624240 0.000000
vt -0.000000 0.600000
vt 2.625000 0.600000
vt 2.002780 2.029430
vt 1.907080 2.510530
vt 0.419914 2.314740
vt 1.078370 0.375000
vt 1.328930 -0.000000
vt 2.377400 1.125000
vt 2.625000 0.000000
vt 2.625000 0.754448
vt 2.160450 1.564940
vt 0.774632 0.990912
vt 0.553889 1.641200
vt 1.875000 3.000000
vt 0.375000 3.000000
vn -0.8660 0.0000 0.5000
vn -0.8315 0.0000 0.5556
vn 0.0000 1.0000 0.0000
vn 0.0000 0.0000 -1.0000
vn 0.9914 0.0000 -0.1305
vn 0.9979 0.0000 -0.0654
vn 0.9659 0.0000 -0.2588
vn 0.9239 0.0000 -0.3827
vn 0.8660 0.0000 -0.5000
vn 0.8315 0.0000 -0.5556
vn 0.0000 0.0000 1.0000
vn 0.0000 -1.0000 -0.0000
vn -0.9239 0.0000 0.3827
vn -0.9659 0.0000 0.2588
vn -0.9914 0.0000 0.1305
vn -0.9979 0.0000 0.0654
vn 1.0000 0.0000 0.0000
vn 0.8969 0.0000 -0.4423
usemtl Stone.228
s 1
f 1/1/1 2/2/2 3/3/2
f 4/4/3 5/5/3 6/6/3
f 7/7/4 8/8/4 9/9/4
f 10/10/5 11/11/6 12/12/6
f 5/13/7 13/14/5 10/15/5
f 4/16/8 14/17/7 5/18/7
f 15/19/9 16/20/8 4/21/8
f 17/22/10 18/23/9 15/24/9
f 19/25/11 3/26/11 2/27/11
f 20/28/12 21/29/12 22/30/12
f 23/31/13 24/32/1 1/33/1
f 6/34/14 22/35/13 23/36/13
f 25/37/15 26/38/14 6/39/14
f 27/40/16 28/41/15 25/42/15
f 29/43/5 9/44/6 30/45/6
f 29/46/3 30/47/3 31/48/3
f 32/49/17 33/50/17 34/51/17
f 35/52/1 36/53/2 37/54/2
f 38/55/13 39/56/1 35/57/1
f 40/58/14 41/59/13 38/60/13
f 42/61/15 43/62/14 40/63/14
f 31/64/16 44/65/15 42/66/15
f 45/67/18 21/68/8 46/69/8
f 46/70/8 20/71/7 47/72/7
f 47/73/7 48/74/5 29/75/5
f 1/1/1 24/76/1 2/2/2
f 10/77/3 12/78/3 27/79/3
f 27/79/3 25/80/3 10/77/3
f 25/80/3 6/6/3 5/5/3
f 6/6/3 23/81/3 4/4/3
f 23/81/3 1/82/3 4/4/3
f 1/82/3 3/83/3 15/84/3
f 3/83/3 17/85/3 15/84/3
f 25/80/3 5/5/3 10/77/3
f 1/82/3 15/84/3 4/4/3
f 27/86/4 12/87/4 11/88/4
f 27/86/4 11/88/4 7/7/4
f 31/89/4 30/90/4 49/91/4
f 30/90/4 9/9/4 8/8/4
f 49/91/4 30/90/4 8/8/4
f 50/92/4 27/86/4 7/7/4
f 50/92/4 7/7/4 9/9/4
f 10/10/5 13/93/5 11/11/6
f 5/13/7 14/94/7 13/14/5
f 4/16/8 16/95/8 14/17/7
f 15/19/9 18/96/9 16/20/8
f 17/22/10 51/97/10 18/23/9
f 2/27/11 33/98/11 19/25/11
f 33/98/11 52/99/11 19/25/11
f 19/25/11 51/100/11 3/26/11
f 51/100/11 17/101/11 3/26/11
f 34/102/12 33/103/12 24/104/12
f 33/103/12 2/105/12 24/104/12
f 24/104/12 22/30/12 34/102/12
f 34/102/12 22/30/12 21/29/12
f 22/30/12 26/106/12 20/28/12
f 26/106/12 28/107/12 20/28/12
f 28/107/12 50/108/12 48/109/12
f 50/108/12 9/110/12 48/109/12
f 28/107/12 48/109/12 20/28/12
f 23/31/13 22/111/13 24/32/1
f 6/34/14 26/112/14 22/35/13
f 25/37/15 28/113/15 26/38/14
f 27/40/16 50/114/16 28/41/15
f 29/43/5 48/115/5 9/44/6
f 35/116/3 37/117/3 45/118/3
f 35/116/3 45/118/3 38/119/3
f 45/118/3 46/120/3 38/119/3
f 40/121/3 38/119/3 47/122/3
f 47/122/3 38/119/3 46/120/3
f 31/48/3 42/123/3 29/46/3
f 42/123/3 40/121/3 29/46/3
f 29/46/3 40/121/3 47/122/3
f 37/124/17 36/125/17 45/126/17
f 36/125/17 32/49/17 45/126/17
f 45/126/17 32/49/17 34/51/17
f 32/49/17 52/127/17 33/50/17
f 35/52/1 39/128/1 36/53/2
f 38/55/13 41/129/13 39/56/1
f 40/58/14 43/130/14 41/59/13
f 42/61/15 44/131/15 43/62/14
f 31/64/16 49/132/16 44/65/15
f 45/67/18 34/133/18 21/68/8
f 46/70/8 21/134/8 20/71/7
f 47/73/7 20/135/7 48/74/5
usemtl Asphalt.185
f 52/127/17 36/125/17 53/136/17
f 51/100/11 52/99/11 53/137/11
f 43/138/3 44/139/3 13/140/3
f 49/91/4 7/7/4 11/88/4
f 52/127/17 32/49/17 36/125/17
f 51/100/11 19/25/11 52/99/11
f 18/141/3 51/142/3 39/143/3
f 51/142/3 53/144/3 36/145/3
f 39/143/3 51/142/3 36/145/3
f 39/143/3 41/146/3 18/141/3
f 16/147/3 18/141/3 41/146/3
f 13/140/3 14/148/3 43/138/3
f 14/148/3 16/147/3 43/138/3
f 49/149/3 11/150/3 44/139/3
f 11/150/3 13/140/3 44/139/3
f 43/138/3 16/147/3 41/146/3
f 49/91/4 8/8/4 7/7/4
