# Blender v2.79 (sub 7) OBJ File: ''
# www.blender.org
mtllib roadTile_022.mtl
o Mesh1_Group1_Model.229
v 1.500000 0.455000 -0.750000
v 1.035670 0.455000 -1.006750
v 0.456180 0.455000 0.528858
v 0.750000 0.550000 -1.500000
v 0.750000 0.455000 -1.500000
v 1.035670 0.550000 -1.006750
v -0.501812 0.455000 -0.398550
v 0.456180 0.550000 0.528858
v -0.750000 0.455000 -1.500000
v -0.501812 0.550000 -0.398550
v 1.500000 0.550000 0.750000
v 1.500000 0.455000 0.750000
v 0.750000 0.300000 -1.500000
v 1.500000 0.300000 0.750000
v 1.500000 0.550000 -0.750000
v -0.750000 0.550000 -1.500000
v -0.750000 0.300000 -1.500000
v 1.500000 0.300000 -0.750000
v 1.500000 0.000000 -1.500000
v 1.500000 0.000000 1.500000
v -1.500000 0.000000 -1.500000
v -1.500000 0.000000 1.500000
v -1.500000 0.550000 1.500000
v -1.500000 0.550000 -1.500000
v 1.500000 0.550000 -1.500000
v 1.500000 0.550000 1.500000
vt 3.000000 2.250000
vt 2.535670 2.506750
vt 1.956180 0.971142
vt -0.898378 0.455000
vt -1.468380 0.550000
vt -1.468380 0.455000
vt 1.536570 0.455000
vt 1.005990 0.550000
vt 1.005990 0.455000
vt 0.603348 0.455000
vt -0.730004 0.550000
vt -0.730004 0.455000
vt 2.761760 0.455000
vt 1.632690 0.550000
vt 1.632690 0.455000
vt -1.712430 0.455000
vt -2.779420 0.550000
vt -2.779420 0.455000
vt -2.250000 0.300000
vt -0.750000 0.455000
vt -2.250000 0.455000
vt 0.750000 0.300000
vt 2.250000 0.455000
vt 0.750000 0.455000
vt 2.250000 3.000000
vt 0.998188 1.898550
vt 0.750000 3.000000
vt 3.000000 0.750000
vt -0.898378 0.550000
vt 1.536570 0.550000
vt 0.603348 0.550000
vt 2.761760 0.550000
vt -1.712430 0.550000
vt -0.750000 0.300000
vt 2.250000 0.300000
vt 3.000000 0.000000
vt 0.000000 0.000000
vt -3.000000 0.000000
vt -0.000000 0.000000
vt -3.000000 3.000000
vt -0.000000 -0.000000
vt -0.000000 3.000000
vt 3.000000 0.000000
vt 0.000000 0.550000
vt 1.956180 0.971142
vt 0.998188 1.898550
vt 0.000000 0.000000
vt -3.000000 0.550000
vt -3.000000 0.000000
vt 3.000000 3.000000
vt 2.535670 2.506750
vt 3.000000 2.250000
vt 3.000000 0.550000
vt 2.250000 0.550000
vt 0.750000 0.550000
vt 0.000000 0.550000
vt -2.250000 0.550000
vt -3.000000 0.550000
vt -0.000000 0.550000
vt -0.750000 0.550000
vt -3.000000 -0.000000
vt 3.000000 0.550000
vt 0.750000 3.000000
vt 0.000000 3.000000
vt 3.000000 0.000000
vt 3.000000 0.750000
vt 2.250000 3.000000
vn 0.0000 1.0000 0.0000
vn -0.8653 0.0000 0.5012
vn -0.4839 0.0000 0.8751
vn 0.6955 0.0000 -0.7185
vn 0.9755 0.0000 -0.2198
vn 0.2073 0.0000 -0.9783
vn -0.0000 0.0000 -1.0000
vn 1.0000 0.0000 0.0000
vn 0.0000 -1.0000 -0.0000
vn 0.0000 0.0000 1.0000
vn -1.0000 0.0000 0.0000
usemtl Alternate_Dirt.009
s 1
f 1/1/1 2/2/1 3/3/1
f 2/4/2 4/5/2 5/6/2
f 1/7/3 6/8/3 2/9/3
f 7/10/4 8/11/4 3/12/4
f 9/13/5 10/14/5 7/15/5
f 3/16/6 11/17/6 12/18/6
f 13/19/7 9/20/7 5/21/7
f 14/22/8 1/23/8 12/24/8
f 2/2/1 5/25/1 7/26/1
f 5/25/1 9/27/1 7/26/1
f 7/26/1 3/3/1 2/2/1
f 3/3/1 12/28/1 1/1/1
f 2/4/2 6/29/2 4/5/2
f 1/7/3 15/30/3 6/8/3
f 7/10/4 10/31/4 8/11/4
f 9/13/5 16/32/5 10/14/5
f 3/16/6 8/33/6 11/17/6
f 13/19/7 17/34/7 9/20/7
f 14/22/8 18/35/8 1/23/8
usemtl Grass.097
f 19/36/8 14/22/8 20/37/8
f 19/38/7 21/39/7 17/34/7
f 19/40/9 22/41/9 21/42/9
f 20/43/10 23/44/10 22/41/10
f 8/45/1 10/46/1 23/47/1
f 22/41/11 24/48/11 21/49/11
f 25/50/1 6/51/1 15/52/1
f 19/36/8 25/53/8 18/35/8
f 25/53/8 15/54/8 1/23/8
f 1/23/8 18/35/8 25/53/8
f 11/55/8 26/56/8 12/24/8
f 26/56/8 20/37/8 14/22/8
f 12/24/8 26/56/8 14/22/8
f 19/36/8 18/35/8 14/22/8
f 4/57/7 25/58/7 5/21/7
f 25/58/7 19/38/7 13/19/7
f 5/21/7 25/58/7 13/19/7
f 21/39/7 24/59/7 17/34/7
f 24/59/7 16/60/7 9/20/7
f 9/20/7 17/34/7 24/59/7
f 17/34/7 13/19/7 19/38/7
f 19/40/9 20/61/9 22/41/9
f 20/43/10 26/62/10 23/44/10
f 10/46/1 16/63/1 24/64/1
f 23/47/1 26/65/1 8/45/1
f 26/65/1 11/66/1 8/45/1
f 10/46/1 24/64/1 23/47/1
f 22/41/11 23/44/11 24/48/11
f 25/50/1 4/67/1 6/51/1
