# Blender v2.79 (sub 7) OBJ File: ''
# www.blender.org
mtllib roadTile_174.mtl
o Mesh1_Group1_Model.061
v -0.750000 0.455000 1.500000
v -0.750000 0.550000 1.500000
v -1.500000 0.550000 1.500000
v -0.750000 0.000000 1.500000
v -1.500000 0.000000 -1.500000
v -0.750000 0.000000 -1.500000
v -1.500000 0.550000 -1.500000
v -0.750000 0.455000 -1.500000
v -1.500000 0.000000 1.500000
v -0.750000 0.550000 -1.500000
v 1.500000 0.000000 -1.500000
v 1.500000 0.000000 1.500000
v 1.500000 0.455000 1.500000
v 1.500000 0.455000 -1.500000
vt 0.750000 0.455000
vt 0.750000 0.550000
vt 0.000000 0.550000
vt -0.750000 0.000000
vt -0.000000 3.000000
vt -0.750000 3.000000
vt 0.000000 0.550000
vt -0.750000 0.455000
vt 0.000000 0.000000
vt -0.000000 0.000000
vt -3.000000 0.550000
vt -3.000000 0.000000
vt 0.750000 0.000000
vt 0.000000 3.000000
vt 0.000000 0.000000
vt 0.000000 0.550000
vt 3.000000 0.455000
vt 3.000000 0.550000
vt 0.750000 0.000000
vt -3.000000 3.000000
vt -3.000000 0.000000
vt -0.750000 0.550000
vt -0.750000 0.000000
vt 0.750000 3.000000
vt 0.000000 0.455000
vt 0.000000 0.455000
vt 3.000000 0.000000
vt 3.000000 0.455000
vt 3.000000 3.000000
vt 0.750000 0.000000
vt 3.000000 0.000000
vt -3.000000 0.455000
vt -3.000000 0.000000
vt 3.000000 0.455000
vt 3.000000 0.000000
vt 0.000000 0.000000
vt 0.750000 3.000000
vn 0.0000 0.0000 1.0000
vn 0.0000 -1.0000 -0.0000
vn 0.0000 0.0000 -1.0000
vn -1.0000 0.0000 0.0000
vn 0.0000 1.0000 0.0000
vn 1.0000 0.0000 0.0000
usemtl Grass.030
s 1
f 1/1/1 2/2/1 3/3/1
f 4/4/2 5/5/2 6/6/2
f 7/7/3 8/8/3 5/9/3
f 9/10/4 7/11/4 5/12/4
f 2/13/5 7/14/5 3/15/5
f 2/16/6 8/17/6 10/18/6
f 3/3/1 9/10/1 1/1/1
f 9/10/1 4/19/1 1/1/1
f 6/6/2 11/20/2 12/21/2
f 4/4/2 9/10/2 5/5/2
f 6/6/2 12/21/2 4/4/2
f 10/22/3 8/8/3 7/7/3
f 8/8/3 6/23/3 5/9/3
f 9/10/4 3/3/4 7/11/4
f 2/13/5 10/24/5 7/14/5
f 2/16/6 1/25/6 8/17/6
usemtl Water.016
f 13/26/6 11/27/6 14/28/6
f 14/29/5 1/30/5 13/31/5
f 6/23/3 14/32/3 11/33/3
f 13/34/1 4/19/1 12/35/1
f 13/26/6 12/36/6 11/27/6
f 14/29/5 8/37/5 1/30/5
f 6/23/3 8/8/3 14/32/3
f 13/34/1 1/1/1 4/19/1
