# Blender v2.79 (sub 7) OBJ File: ''
# www.blender.org
mtllib roadTile_056.mtl
o Mesh1_Group1_Model.065
v 0.000000 0.600000 0.000000
v 0.000000 0.600000 -2.250000
v 0.000000 0.300000 -2.250000
v 0.000000 0.300000 0.000000
v 3.000000 0.600000 -3.000000
v 0.750000 0.600000 -3.000000
v 0.750000 0.600000 -2.250000
v 3.000000 0.600000 0.000000
v 3.000000 0.300000 -3.000000
v 0.750000 0.300000 -3.000000
v 3.000000 0.300000 0.000000
v 3.000000 0.000000 -3.000000
v 0.375000 0.000000 -3.000000
v 0.375000 0.550000 -3.000000
v 0.375000 0.630000 -3.000000
v 0.750000 0.630000 -3.000000
v 3.000000 0.000000 0.000000
v 0.000000 0.000000 0.000000
v 0.000000 0.630000 -2.625000
v 0.000000 0.550000 -2.625000
v 0.000000 0.000000 -2.625000
v 0.000000 0.630000 -2.250000
v 0.375000 0.630000 -2.625000
v 0.375000 0.550000 -2.625000
v 0.750000 0.630000 -2.250000
v 0.000000 0.000000 -3.000000
v 0.000000 0.550000 -3.000000
vt -2.250000 0.600000
vt -0.000000 0.300000
vt -0.000000 0.600000
vt 0.750000 2.250000
vt 0.000000 0.000000
vt 3.000000 0.000000
vt -0.750000 0.300000
vt -3.000000 0.600000
vt -3.000000 0.300000
vt 0.000000 0.300000
vt 3.000000 0.600000
vt 0.000000 0.600000
vt 3.000000 0.600000
vt -2.250000 0.300000
vt 3.000000 3.000000
vt 0.750000 3.000000
vt 0.000000 2.250000
vt -0.750000 0.600000
vt 3.000000 0.300000
vt 3.000000 0.300000
vt -0.375000 0.630000
vt -0.750000 0.630000
vt 0.000000 0.000000
vt 3.000000 0.000000
vt 3.000000 0.000000
vt -2.625000 0.550000
vt -2.625000 0.000000
vt -0.375000 0.630000
vt 0.000000 0.550000
vt 0.000000 0.630000
vt 0.750000 3.000000
vt 0.375000 3.000000
vt 0.375000 2.625000
vt 0.750000 0.600000
vt -0.000000 0.630000
vt -0.000000 0.600000
vt 3.000000 0.600000
vt 2.250000 0.630000
vt 2.250000 0.600000
vt -3.000000 0.630000
vt -2.625000 0.550000
vt -2.625000 0.630000
vt -3.000000 0.000000
vt -0.375000 0.000000
vt -0.375000 0.550000
vt -0.000000 0.000000
vt -2.250000 0.630000
vt -2.625000 0.630000
vt -0.375000 0.550000
vt 0.000000 2.625000
vt 0.000000 2.250000
vt 0.750000 2.250000
vt 0.750000 0.630000
vt 3.000000 0.630000
vt -3.000000 0.550000
vt -3.000000 0.000000
vt -0.000000 2.625000
vt -0.375000 3.000000
vt 0.000000 2.625000
vt 0.375000 3.000000
vt 0.000000 3.000000
vt -3.000000 0.550000
vt -3.000000 0.000000
vt 0.000000 0.000000
vt 0.000000 0.550000
vt -3.000000 3.000000
vt -0.000000 3.000000
vt 0.375000 2.625000
vn -1.0000 0.0000 0.0000
vn 0.0000 1.0000 0.0000
vn 0.0000 0.0000 -1.0000
vn 1.0000 0.0000 0.0000
vn 0.0000 -0.0000 1.0000
vn -0.0000 -1.0000 -0.0000
usemtl Asphalt.040
s 1
f 2/1/1 4/2/1 1/3/1
f 7/4/2 1/5/2 8/6/2
f 10/7/3 5/8/3 9/9/3
f 11/10/4 5/11/4 8/12/4
f 4/2/5 8/13/5 1/3/5
f 2/1/1 3/14/1 4/2/1
f 8/6/2 5/15/2 7/4/2
f 5/15/2 6/16/2 7/4/2
f 7/4/2 2/17/2 1/5/2
f 10/7/3 6/18/3 5/8/3
f 11/10/4 9/19/4 5/11/4
f 4/2/5 11/20/5 8/13/5
usemtl Stone.051
f 15/21/3 16/22/3 6/18/3
f 9/19/4 17/23/4 12/24/4
f 4/2/5 17/25/5 11/20/5
f 3/14/1 20/26/1 21/27/1
f 23/28/3 20/29/3 19/30/3
f 16/31/2 15/32/2 23/33/2
f 7/34/5 22/35/5 2/36/5
f 6/37/4 25/38/4 7/39/4
f 15/40/1 24/41/1 23/42/1
f 9/9/3 12/43/3 10/7/3
f 12/43/3 13/44/3 10/7/3
f 13/44/3 14/45/3 10/7/3
f 14/45/3 15/21/3 6/18/3
f 10/7/3 14/45/3 6/18/3
f 9/19/4 11/10/4 17/23/4
f 4/2/5 18/46/5 17/25/5
f 22/47/1 19/48/1 2/1/1
f 19/48/1 20/26/1 2/1/1
f 21/27/1 18/46/1 3/14/1
f 18/46/1 4/2/1 3/14/1
f 3/14/1 2/1/1 20/26/1
f 23/28/3 24/49/3 20/29/3
f 19/50/2 22/51/2 23/33/2
f 22/51/2 25/52/2 23/33/2
f 25/52/2 16/31/2 23/33/2
f 7/34/5 25/53/5 22/35/5
f 6/37/4 16/54/4 25/38/4
f 15/40/1 14/55/1 24/41/1
usemtl Grass.034
f 17/56/6 21/57/6 13/58/6
f 20/59/2 14/60/2 27/61/2
f 21/27/1 27/62/1 26/63/1
f 14/45/3 26/64/3 27/65/3
f 13/58/6 12/66/6 17/56/6
f 17/56/6 18/46/6 21/57/6
f 21/57/6 26/67/6 13/58/6
f 20/59/2 24/68/2 14/60/2
f 21/27/1 20/26/1 27/62/1
f 14/45/3 13/44/3 26/64/3
