# Blender v2.79 (sub 7) OBJ File: ''
# www.blender.org
mtllib roadTile_285.mtl
o Mesh1_Group1_Model.077
v -1.500000 0.000000 -1.500000
v 1.500000 0.000000 1.500000
v -1.500000 0.000000 1.500000
v -1.500000 0.630000 1.500000
v -1.500000 0.300000 -0.203930
v -0.745552 0.300000 -1.500000
v -0.745552 0.600000 -1.500000
v 1.500000 0.630000 -1.500000
v -0.745552 0.630000 -1.500000
v -0.375000 0.600000 -1.252400
v -0.375000 0.630000 -1.252400
v 0.529430 0.630000 -0.877780
v 1.010530 0.630000 -0.782080
v 1.500000 0.300000 0.750000
v 1.500000 0.000000 -1.500000
v 1.500000 0.600000 -0.750000
v 1.500000 0.630000 -0.750000
v 1.010530 0.600000 -0.782080
v 0.064940 0.630000 -1.035450
v 0.529430 0.600000 -0.877780
v 0.064940 0.600000 -1.035450
v -1.125000 0.630000 0.046630
v -1.500000 0.600000 -0.203930
v -1.500000 0.630000 -0.203930
v 0.141200 0.630000 0.571111
v -0.509088 0.630000 0.350370
v 1.500000 0.630000 1.500000
v 1.500000 0.630000 0.750000
v 0.814740 0.600000 0.705086
v 0.814740 0.630000 0.705086
v 0.141200 0.600000 0.571111
v -0.509088 0.600000 0.350370
v -1.125000 0.600000 0.046630
v -1.500000 0.300000 -1.500000
v 1.500000 0.300000 -0.750000
v 1.500000 0.600000 0.750000
v -1.500000 0.600000 -1.500000
vt -0.000000 3.000000
vt -3.000000 0.000000
vt -0.000000 0.000000
vt 0.000000 0.630000
vt -1.703930 0.300000
vt -0.754448 0.300000
vt -0.754448 0.600000
vt -3.000000 0.630000
vt -1.039410 0.630000
vt -0.593751 0.600000
vt -0.593751 0.630000
vt 2.029430 2.377780
vt 2.510530 2.282080
vt 3.000000 3.000000
vt 0.750000 0.300000
vt 0.000000 0.000000
vt 3.000000 0.000000
vt 2.355900 0.630000
vt 2.846420 0.600000
vt 2.846420 0.630000
vt 1.526550 0.630000
vt 2.017080 0.600000
vt 2.017080 0.630000
vt 0.666892 0.630000
vt 1.157420 0.600000
vt 1.157420 0.630000
vt -0.208376 0.630000
vt 0.282148 0.600000
vt 0.282148 0.630000
vt 0.495646 0.630000
vt 0.946655 0.600000
vt 0.946655 0.630000
vt 0.000000 0.000000
vt 1.641200 0.928889
vt 0.990912 1.149630
vt 3.000000 0.630000
vt -2.944520 0.630000
vt -2.257790 0.600000
vt -2.257790 0.630000
vt -2.115180 0.630000
vt -1.428450 0.600000
vt -1.428450 0.630000
vt -1.255520 0.630000
vt -0.568787 0.600000
vt -0.568787 0.630000
vt -0.380253 0.630000
vt 0.306480 0.600000
vt 0.306480 0.630000
vt -3.000000 3.000000
vt -1.703930 0.630000
vt -1.703930 0.600000
vt -3.000000 0.300000
vt -3.000000 0.000000
vt -3.000000 0.000000
vt -0.000000 0.000000
vt -0.000000 0.300000
vt -0.754448 0.630000
vt -1.039410 0.600000
vt 3.000000 2.250000
vt 0.754448 3.000000
vt 1.125000 2.752400
vt 1.564940 2.535450
vt 3.000000 0.630000
vt 2.250000 0.630000
vt 2.250000 0.600000
vt 2.250000 0.300000
vt 0.750000 0.630000
vt 0.000000 0.630000
vt 0.750000 0.600000
vt 2.355900 0.600000
vt 1.526550 0.600000
vt 0.666892 0.600000
vt -0.208376 0.600000
vt 0.495646 0.600000
vt 0.375000 1.453370
vt 0.000000 1.703930
vt 3.000000 0.000000
vt 3.000000 0.750000
vt 2.314740 0.794914
vt 3.000000 0.000000
vt -2.944520 0.600000
vt -2.115180 0.600000
vt -1.255520 0.600000
vt -0.380253 0.600000
vt -3.000000 0.600000
vt -0.000000 0.600000
vt 1.564940 2.535450
vt 1.125000 2.752400
vt 0.375000 1.453370
vt 0.754448 3.000000
vt 0.000000 1.703930
vt 0.000000 3.000000
vt 0.990912 1.149630
vt 1.641200 0.928889
vt 2.314740 0.794914
vt 2.029430 2.377780
vt 3.000000 0.750000
vt 2.510530 2.282080
vt 3.000000 2.250000
vn 0.0000 -1.0000 -0.0000
vn -1.0000 0.0000 0.0000
vn 0.0000 0.0000 -1.0000
vn -0.5556 0.0000 0.8315
vn -0.5000 0.0000 0.8660
vn 0.0000 1.0000 0.0000
vn 1.0000 0.0000 0.0000
vn -0.1305 0.0000 0.9914
vn -0.0654 0.0000 0.9979
vn -0.2588 0.0000 0.9659
vn -0.3827 0.0000 0.9239
vn 0.5000 0.0000 -0.8660
vn 0.5556 0.0000 -0.8315
vn 0.0000 0.0000 1.0000
vn 0.0654 0.0000 -0.9979
vn 0.1305 0.0000 -0.9914
vn 0.2588 0.0000 -0.9659
vn 0.3827 0.0000 -0.9239
usemtl Stone.060
s 1
f 1/1/1 2/2/1 3/3/1
f 3/3/2 4/4/2 5/5/2
f 6/6/3 7/7/3 8/8/3
f 9/9/4 10/10/5 11/11/5
f 12/12/6 13/13/6 8/14/6
f 14/15/7 2/16/7 15/17/7
f 13/18/8 16/19/9 17/20/9
f 12/21/10 18/22/8 13/23/8
f 19/24/11 20/25/10 12/26/10
f 11/27/5 21/28/11 19/29/11
f 22/30/12 23/31/13 24/32/13
f 4/33/6 25/34/6 26/35/6
f 3/3/14 27/36/14 4/4/14
f 28/37/15 29/38/16 30/39/16
f 30/40/16 31/41/17 25/42/17
f 25/43/17 32/44/18 26/45/18
f 26/46/18 33/47/12 22/48/12
f 1/1/1 15/49/1 2/2/1
f 24/50/2 23/51/2 4/4/2
f 23/51/2 5/5/2 4/4/2
f 5/5/2 34/52/2 1/53/2
f 1/53/2 3/3/2 5/5/2
f 8/8/3 15/54/3 6/6/3
f 15/54/3 1/55/3 6/6/3
f 1/55/3 34/56/3 6/6/3
f 7/7/3 9/57/3 8/8/3
f 9/9/4 7/58/4 10/10/5
f 13/13/6 17/59/6 8/14/6
f 8/14/6 9/60/6 11/61/6
f 11/61/6 19/62/6 8/14/6
f 19/62/6 12/12/6 8/14/6
f 8/63/7 17/64/7 16/65/7
f 8/63/7 16/65/7 35/66/7
f 28/67/7 27/68/7 36/69/7
f 27/68/7 2/16/7 14/15/7
f 36/69/7 27/68/7 14/15/7
f 15/17/7 8/63/7 35/66/7
f 15/17/7 35/66/7 14/15/7
f 13/18/8 18/70/8 16/19/9
f 12/21/10 20/71/10 18/22/8
f 19/24/11 21/72/11 20/25/10
f 11/27/5 10/73/5 21/28/11
f 22/30/12 33/74/12 23/31/13
f 22/75/6 24/76/6 4/33/6
f 4/33/6 27/77/6 25/34/6
f 27/77/6 28/78/6 30/79/6
f 27/77/6 30/79/6 25/34/6
f 26/35/6 22/75/6 4/33/6
f 3/3/14 2/80/14 27/36/14
f 28/37/15 36/81/15 29/38/16
f 30/40/16 29/82/16 31/41/17
f 25/43/17 31/83/17 32/44/18
f 26/46/18 32/84/18 33/47/12
usemtl Asphalt.047
f 34/52/2 23/51/2 37/85/2
f 6/6/3 37/86/3 7/7/3
f 21/87/6 10/88/6 33/89/6
f 36/69/7 35/66/7 16/65/7
f 34/52/2 5/5/2 23/51/2
f 6/6/3 34/56/3 37/86/3
f 10/88/6 7/90/6 23/91/6
f 7/90/6 37/92/6 23/91/6
f 23/91/6 33/89/6 10/88/6
f 33/89/6 32/93/6 21/87/6
f 32/93/6 31/94/6 21/87/6
f 31/94/6 29/95/6 20/96/6
f 29/95/6 36/97/6 18/98/6
f 20/96/6 29/95/6 18/98/6
f 36/97/6 16/99/6 18/98/6
f 21/87/6 31/94/6 20/96/6
f 36/69/7 14/15/7 35/66/7
