# Blender v2.79 (sub 7) OBJ File: ''
# www.blender.org
mtllib roadTile_252.mtl
o Mesh1_Group1_Model.015
v -0.750000 0.630000 -1.500000
v -0.750000 0.455000 1.500000
v -0.750000 0.455000 -1.500000
v -1.125000 0.550000 -1.500000
v -0.750000 0.630000 1.500000
v -1.125000 0.550000 1.500000
v -1.125000 0.630000 -1.500000
v -0.750000 0.000000 -1.500000
v -1.125000 0.000000 -1.500000
v -1.125000 0.630000 1.500000
v -1.125000 0.000000 1.500000
v -0.750000 0.000000 1.500000
v -1.500000 0.550000 -1.500000
v -1.500000 0.550000 1.500000
v -1.500000 0.000000 1.500000
v -1.500000 0.000000 -1.500000
v 1.500000 0.000000 -1.500000
v 1.500000 0.000000 1.500000
v 1.500000 0.455000 1.500000
v 1.500000 0.455000 -1.500000
vt 3.000000 0.630000
vt 0.000000 0.455000
vt 3.000000 0.455000
vt -0.750000 0.455000
vt -0.375000 0.550000
vt -0.750000 0.630000
vt 0.750000 0.455000
vt 0.750000 0.630000
vt 0.375000 0.550000
vt -0.000000 0.550000
vt -3.000000 0.630000
vt -3.000000 0.550000
vt 0.375000 3.000000
vt 0.750000 0.000000
vt 0.750000 3.000000
vt 0.000000 0.630000
vt -0.750000 0.000000
vt -0.375000 0.000000
vt -0.375000 0.630000
vt 0.375000 0.630000
vt 0.375000 0.000000
vt 0.750000 0.000000
vt -0.000000 0.630000
vt 0.375000 0.000000
vt -0.375000 3.000000
vt -0.750000 3.000000
vt -0.750000 0.000000
vt 0.375000 0.000000
vt 0.000000 3.000000
vt 0.000000 0.000000
vt 0.000000 0.550000
vt -0.000000 0.000000
vt -3.000000 0.550000
vt -3.000000 0.000000
vt 0.000000 0.000000
vt 0.000000 0.550000
vt -3.000000 3.000000
vt -3.000000 0.000000
vt -0.375000 0.000000
vt -0.000000 3.000000
vt 0.375000 3.000000
vt 0.000000 0.455000
vt 3.000000 0.000000
vt 3.000000 0.455000
vt 3.000000 3.000000
vt 0.750000 0.000000
vt 3.000000 0.000000
vt -3.000000 0.455000
vt -3.000000 0.000000
vt 3.000000 0.455000
vt 3.000000 0.000000
vt 0.000000 0.000000
vt 0.750000 3.000000
vn 1.0000 0.0000 0.0000
vn -0.0000 0.0000 -1.0000
vn 0.0000 0.0000 1.0000
vn -1.0000 0.0000 0.0000
vn 0.0000 1.0000 0.0000
vn 0.0000 -1.0000 -0.0000
usemtl Stone.012
s 1
f 1/1/1 2/2/1 3/3/1
f 3/4/2 4/5/2 1/6/2
f 2/7/3 5/8/3 6/9/3
f 6/10/4 7/11/4 4/12/4
f 7/13/5 5/14/5 1/15/5
f 1/1/1 5/16/1 2/2/1
f 3/4/2 8/17/2 9/18/2
f 9/18/2 4/5/2 3/4/2
f 4/5/2 7/19/2 1/6/2
f 5/8/3 10/20/3 6/9/3
f 6/9/3 11/21/3 2/7/3
f 11/21/3 12/22/3 2/7/3
f 6/10/4 10/23/4 7/11/4
f 7/13/5 10/24/5 5/14/5
usemtl Grass.006
f 9/25/6 8/26/6 12/27/6
f 6/28/5 13/29/5 14/30/5
f 11/21/3 14/31/3 15/32/3
f 15/32/4 13/33/4 16/34/4
f 4/5/2 16/35/2 13/36/2
f 8/26/6 17/37/6 18/38/6
f 12/27/6 11/39/6 9/25/6
f 11/39/6 15/32/6 9/25/6
f 8/26/6 18/38/6 12/27/6
f 15/32/6 16/40/6 9/25/6
f 6/28/5 4/41/5 13/29/5
f 11/21/3 6/9/3 14/31/3
f 15/32/4 14/31/4 13/33/4
f 4/5/2 9/18/2 16/35/2
usemtl Water.005
f 19/42/1 17/43/1 20/44/1
f 20/45/5 2/46/5 19/47/5
f 8/17/2 20/48/2 17/49/2
f 19/50/3 12/22/3 18/51/3
f 19/42/1 18/52/1 17/43/1
f 20/45/5 3/53/5 2/46/5
f 8/17/2 3/4/2 20/48/2
f 19/50/3 2/7/3 12/22/3
