# Blender v2.79 (sub 7) OBJ File: ''
# www.blender.org
mtllib roadTile_005.mtl
o Mesh1_Group1_Model.012
v 3.000000 0.550000 -3.000000
v 0.000000 0.550000 -3.000000
v 0.000000 1.650000 0.000000
v 3.000000 0.550000 0.000000
v 3.000000 0.000000 0.000000
v 3.000000 0.000000 -3.000000
v 0.000000 0.000000 -3.000000
v 0.000000 0.000000 0.000000
vt 2.121320 -1.630010
vt 3.000000 0.000000
vt 3.000000 3.000000
vt 3.000000 0.000000
vt 0.000000 0.550000
vt 0.000000 0.000000
vt 0.000000 0.550000
vt -3.000000 -0.000000
vt 0.000000 -0.000000
vt -0.000000 -0.000000
vt 3.000000 0.550000
vt -0.000000 1.650000
vt -3.000000 0.550000
vt -3.000000 3.000000
vt -3.000000 0.000000
vt -0.000000 0.759554
vt 3.000000 0.550000
vt -3.000000 0.550000
vt 3.000000 0.000000
vt -3.000000 0.000000
vt -0.000000 3.000000
vn 0.1736 0.9694 -0.1736
vn 0.0000 1.0000 0.0000
vn 1.0000 0.0000 0.0000
vn 0.0000 0.0000 -1.0000
vn 0.0000 -0.0000 1.0000
vn -1.0000 0.0000 0.0000
vn 0.0000 -1.0000 -0.0000
vn 0.3255 0.8877 -0.3255
usemtl Stone.009
s 1
f 2/1/1 4/2/1 1/3/2
f 6/4/3 4/5/3 5/6/3
f 2/7/4 6/8/4 7/9/4
f 8/10/5 4/11/5 3/12/5
f 2/13/6 8/10/6 3/12/6
f 8/10/7 6/14/7 5/15/7
f 2/1/1 3/16/8 4/2/1
f 6/4/3 1/17/3 4/5/3
f 2/7/4 1/18/4 6/8/4
f 8/10/5 5/19/5 4/11/5
f 2/13/6 7/20/6 8/10/6
f 8/10/7 7/21/7 6/14/7
