# Blender v2.79 (sub 7) OBJ File: ''
# www.blender.org
mtllib roadTile_101.mtl
o Mesh1_Group1_Model.257
v 1.500000 0.000000 -1.500000
v 1.500000 0.570000 -0.660720
v 1.500000 0.570000 -0.428960
v -1.500000 0.000000 1.500000
v 1.500000 0.000000 1.500000
v 1.500000 0.630000 1.500000
v -1.500000 0.630000 1.500000
v -1.500000 0.630000 -1.500000
v -1.500000 0.000000 -1.500000
v 0.483650 0.630000 -1.418150
v 0.920270 0.630000 -0.920270
v 0.428960 0.570000 -1.500000
v 0.660720 0.570000 -1.500000
v 1.500000 0.630000 -1.500000
v 1.052850 0.630000 -1.052850
v 1.500000 0.630000 -0.660720
v 1.500000 0.630000 -0.428960
v 1.418150 0.630000 -0.483650
v 0.428960 0.630000 -1.500000
v 0.660720 0.630000 -1.500000
v 1.418150 0.570000 -0.483650
v 1.052850 0.570000 -1.052850
v 0.920270 0.570000 -0.920270
v 0.483650 0.570000 -1.418150
vt 3.000000 0.000000
vt 2.160720 0.570000
vt 1.928960 0.570000
vt -0.000000 0.000000
vt -3.000000 3.000000
vt -3.000000 0.000000
vt 3.000000 0.630000
vt 0.000000 0.630000
vt -3.000000 0.630000
vt -3.000000 0.000000
vt 1.983650 2.918150
vt -0.000000 3.000000
vt 2.420270 2.420270
vt -1.928960 0.570000
vt -2.160720 0.570000
vt -3.000000 -0.000000
vt 3.000000 3.000000
vt 2.552850 2.552850
vt 3.000000 2.160720
vt 0.000000 0.630000
vt -0.000000 0.000000
vt 3.000000 0.630000
vt 2.160720 0.630000
vt 1.928960 0.630000
vt 0.000000 3.000000
vt 3.000000 -0.000000
vt 0.000000 -0.000000
vt 3.000000 0.000000
vt 3.000000 1.928960
vt 2.918150 1.983650
vt 1.928960 3.000000
vt -0.000000 -0.000000
vt -0.000000 0.630000
vt -1.928960 0.630000
vt -2.160720 0.630000
vt -3.000000 0.630000
vt 2.160720 3.000000
vt -1.422740 0.630000
vt -1.324290 0.570000
vt -1.324290 0.630000
vt 3.000000 2.160720
vt 2.552850 2.552850
vt 2.420270 2.420270
vt 1.324290 0.630000
vt 1.422740 0.570000
vt 1.422740 0.630000
vt 0.223861 0.630000
vt 0.886067 0.570000
vt 0.886067 0.630000
vt -0.886067 0.630000
vt -0.223861 0.570000
vt -0.223861 0.630000
vt -0.830859 0.630000
vt -0.236124 0.570000
vt -0.236124 0.630000
vt 0.236124 0.630000
vt 0.830859 0.570000
vt 0.830859 0.630000
vt -1.422740 0.570000
vt 2.160720 3.000000
vt 1.928960 3.000000
vt 1.983650 2.918150
vt 2.918150 1.983650
vt 3.000000 1.928960
vt 1.324290 0.570000
vt 0.223861 0.570000
vt -0.886067 0.570000
vt -0.830859 0.570000
vt 0.236124 0.570000
vn 1.0000 -0.0000 0.0000
vn 0.0000 -1.0000 -0.0000
vn 0.0000 0.0000 1.0000
vn -1.0000 0.0000 0.0000
vn 0.0000 1.0000 0.0000
vn -0.0000 0.0000 -1.0000
vn 0.5556 0.0000 -0.8315
vn 0.6088 0.0000 -0.7934
vn 0.7934 0.0000 -0.6088
vn 0.8315 0.0000 -0.5556
vn 0.7071 0.0000 -0.7071
vn -0.7518 0.0000 0.6593
vn -0.7071 0.0000 0.7071
vn -0.6593 0.0000 0.7518
usemtl Stone.218
s 1
f 1/1/1 2/2/1 3/3/1
f 4/4/2 1/5/2 5/6/2
f 4/4/3 6/7/3 7/8/3
f 4/4/4 8/9/4 9/10/4
f 10/11/5 8/12/5 11/13/5
f 12/14/6 13/15/6 1/16/6
f 14/17/5 15/18/5 16/19/5
f 6/20/1 5/21/1 3/3/1
f 5/21/1 1/1/1 3/3/1
f 1/1/1 14/22/1 2/2/1
f 14/22/1 16/23/1 2/2/1
f 3/3/1 17/24/1 6/20/1
f 4/4/2 9/25/2 1/5/2
f 4/4/3 5/26/3 6/7/3
f 4/4/4 7/8/4 8/9/4
f 7/27/5 6/28/5 11/13/5
f 6/28/5 17/29/5 18/30/5
f 6/28/5 18/30/5 11/13/5
f 19/31/5 8/12/5 10/11/5
f 8/12/5 7/27/5 11/13/5
f 1/16/6 9/32/6 12/14/6
f 9/32/6 8/33/6 12/14/6
f 8/33/6 19/34/6 12/14/6
f 13/15/6 20/35/6 14/36/6
f 13/15/6 14/36/6 1/16/6
f 14/17/5 20/37/5 15/18/5
usemtl Grey_Asphalt.017
f 17/38/7 21/39/8 18/40/8
f 2/41/5 22/42/5 23/43/5
f 10/44/9 12/45/10 19/46/10
f 11/47/11 24/48/9 10/49/9
f 18/50/8 23/51/11 11/52/11
f 20/53/12 22/54/13 15/55/13
f 15/56/13 2/57/14 16/58/14
f 17/38/7 3/59/7 21/39/8
f 22/42/5 13/60/5 23/43/5
f 13/60/5 12/61/5 24/62/5
f 23/43/5 13/60/5 24/62/5
f 23/43/5 21/63/5 2/41/5
f 21/63/5 3/64/5 2/41/5
f 10/44/9 24/65/9 12/45/10
f 11/47/11 23/66/11 24/48/9
f 18/50/8 21/67/8 23/51/11
f 20/53/12 13/68/12 22/54/13
f 15/56/13 22/69/13 2/57/14
