# Blender v2.79 (sub 7) OBJ File: ''
# www.blender.org
mtllib roadTile_216.mtl
o Mesh1_Group1_Model.288
v 0.000000 1.650000 -2.250000
v 0.000000 1.650000 -2.625000
v 0.000000 0.000000 -2.625000
v 0.000000 0.000000 -2.250000
v 0.000000 1.555000 -2.250000
v 3.000000 0.550000 -2.250000
v 3.000000 0.550000 -2.625000
v 3.000000 0.000000 -2.250000
v 3.000000 0.000000 -2.625000
v 3.000000 0.455000 -2.250000
v 0.000000 0.000000 -0.750000
v 0.000000 0.000000 -0.375000
v 0.000000 1.650000 -0.375000
v 0.000000 1.650000 -0.750000
v 0.000000 1.555000 -0.750000
v 3.000000 0.550000 -0.750000
v 3.000000 0.550000 -0.375000
v 3.000000 0.000000 -0.375000
v 3.000000 0.000000 -0.750000
v 3.000000 0.455000 -0.750000
v 0.000000 0.000000 -3.000000
v 3.000000 0.000000 -3.000000
v 3.000000 0.000000 0.000000
v 0.000000 0.000000 0.000000
v 0.000000 1.650000 -3.000000
v 3.000000 0.550000 -3.000000
v 0.000000 1.650000 0.000000
v 3.000000 0.550000 0.000000
vt -2.625000 0.000000
vt -2.250000 0.000000
vt -2.250000 1.555000
vt 2.625000 -2.627290
vt 2.250000 0.568020
vt 2.250000 -2.627290
vt 2.625000 0.550000
vt 2.250000 0.550000
vt 2.250000 0.455000
vt -0.375000 1.650000
vt -0.750000 1.650000
vt -0.750000 1.555000
vt 0.375000 0.000000
vt 0.750000 0.000000
vt 0.750000 0.455000
vt 0.375000 0.568020
vt 0.750000 -2.627290
vt 0.750000 0.568020
vt -0.000000 1.555000
vt -3.000000 0.550000
vt -3.000000 0.455000
vt 3.000000 0.550000
vt 0.000000 1.555000
vt 3.000000 0.455000
vt -2.250000 1.650000
vt -2.625000 1.650000
vt 2.625000 0.568020
vt 2.250000 0.000000
vt 2.625000 0.000000
vt -0.750000 0.000000
vt -0.375000 0.000000
vt 0.750000 0.550000
vt 0.375000 0.550000
vt 0.375000 -2.627290
vt -0.000000 1.650000
vt 0.000000 1.650000
vt -3.000000 0.375000
vt -0.000000 0.000000
vt -0.000000 0.375000
vt -3.000000 1.650000
vt -3.000000 0.000000
vt 3.000000 -2.627290
vt 3.000000 0.568020
vt 3.000000 0.000000
vt 3.000000 0.550000
vt -0.000000 -0.000000
vt -3.000000 0.550000
vt -3.000000 -0.000000
vt 0.000000 1.650000
vt 0.000000 0.568020
vt 0.000000 -2.627290
vt 0.000000 0.550000
vt 0.000000 0.000000
vt 3.000000 0.550000
vt -0.000000 2.250000
vt -0.000000 2.625000
vt -3.000000 2.250000
vt 0.000000 3.000000
vt -3.000000 2.625000
vt -3.000000 3.000000
vt -3.000000 0.750000
vt -0.000000 0.750000
vt -3.000000 0.000000
vt -0.000000 1.650000
vt 3.000000 -0.000000
vt 0.750000 0.535316
vt 2.250000 -2.659990
vt 2.250000 0.535316
vt 0.750000 -2.659990
vn -1.0000 0.0000 0.0000
vn 0.3443 0.9389 0.0000
vn 1.0000 0.0000 0.0000
vn 0.0000 0.0000 -1.0000
vn 0.0000 0.0000 1.0000
vn 0.0000 -1.0000 -0.0000
usemtl Stone.245
s 1
f 3/1/1 4/2/1 5/3/1
f 7/4/2 1/5/2 6/6/2
f 7/7/3 6/8/3 10/9/3
f 13/10/1 14/11/1 15/12/1
f 18/13/3 19/14/3 20/15/3
f 13/16/2 16/17/2 14/18/2
f 15/19/4 16/20/4 20/21/4
f 6/22/5 5/23/5 10/24/5
f 5/3/1 1/25/1 2/26/1
f 2/26/1 3/1/1 5/3/1
f 7/4/2 2/27/2 1/5/2
f 10/9/3 8/28/3 9/29/3
f 9/29/3 7/7/3 10/9/3
f 15/12/1 11/30/1 12/31/1
f 12/31/1 13/10/1 15/12/1
f 20/15/3 16/32/3 17/33/3
f 17/33/3 18/13/3 20/15/3
f 13/16/2 17/34/2 16/17/2
f 15/19/4 14/35/4 16/20/4
f 6/22/5 1/36/5 5/23/5
usemtl Grass.119
f 18/37/6 24/38/6 12/39/6
f 3/1/1 25/40/1 21/41/1
f 2/27/2 26/42/2 25/43/2
f 7/7/3 22/44/3 26/45/3
f 21/46/4 26/47/4 22/48/4
f 13/10/1 24/38/1 27/49/1
f 17/34/2 27/50/2 28/51/2
f 18/13/3 28/52/3 23/53/3
f 24/38/5 28/54/5 27/49/5
f 4/55/6 3/56/6 8/57/6
f 3/56/6 21/58/6 9/59/6
f 8/57/6 3/56/6 9/59/6
f 21/58/6 22/60/6 9/59/6
f 8/57/6 19/61/6 4/55/6
f 19/61/6 18/37/6 11/62/6
f 4/55/6 19/61/6 11/62/6
f 12/39/6 11/62/6 18/37/6
f 18/37/6 23/63/6 24/38/6
f 3/1/1 2/26/1 25/40/1
f 2/27/2 7/4/2 26/42/2
f 7/7/3 9/29/3 22/44/3
f 21/46/4 25/64/4 26/47/4
f 13/10/1 12/31/1 24/38/1
f 17/34/2 13/16/2 27/50/2
f 18/13/3 17/33/3 28/52/3
f 24/38/5 23/65/5 28/54/5
usemtl Water.046
f 8/28/3 20/15/3 19/14/3
f 15/66/2 10/67/2 5/68/2
f 11/30/1 5/3/1 4/2/1
f 8/28/3 10/9/3 20/15/3
f 15/66/2 20/69/2 10/67/2
f 11/30/1 15/12/1 5/3/1
