# Blender v2.79 (sub 7) OBJ File: ''
# www.blender.org
mtllib roadTile_001.mtl
o Mesh1_Group1_Model.145
v -1.500000 0.000000 -1.500000
v -1.500000 0.455000 1.500000
v -1.500000 0.455000 -1.500000
v 1.500000 0.000000 -1.500000
v 1.500000 0.455000 -1.500000
v 1.500000 0.000000 1.500000
v 1.500000 0.455000 1.500000
v -1.500000 0.000000 1.500000
vt -3.000000 -0.000000
vt -0.000000 0.455000
vt -3.000000 0.455000
vt -3.000000 -0.000000
vt -0.000000 0.455000
vt -3.000000 0.455000
vt 0.000000 0.000000
vt 3.000000 0.455000
vt 0.000000 0.455000
vt -0.000000 0.000000
vt 3.000000 0.455000
vt -3.000000 -0.000000
vt -0.000000 3.000000
vt -3.000000 3.000000
vt 3.000000 -0.000000
vt 0.000000 3.000000
vt -0.000000 0.000000
vt -0.000000 -0.000000
vt 3.000000 0.000000
vt 3.000000 0.000000
vt 3.000000 3.000000
vn -1.0000 0.0000 0.0000
vn 0.0000 0.0000 -1.0000
vn 1.0000 0.0000 0.0000
vn 0.0000 0.0000 1.0000
vn 0.0000 -1.0000 -0.0000
vn 0.0000 1.0000 0.0000
usemtl Water.029
s 1
f 1/1/1 2/2/1 3/3/1
f 4/4/2 3/5/2 5/6/2
f 6/7/3 5/8/3 7/9/3
f 8/10/4 7/11/4 2/2/4
f 6/12/5 1/13/5 4/14/5
f 7/15/6 3/16/6 2/17/6
f 1/1/1 8/10/1 2/2/1
f 4/4/2 1/18/2 3/5/2
f 6/7/3 4/19/3 5/8/3
f 8/10/4 6/20/4 7/11/4
f 6/12/5 8/10/5 1/13/5
f 7/15/6 5/21/6 3/16/6
