# Blender v2.79 (sub 7) OBJ File: ''
# www.blender.org
mtllib roadTile_125.mtl
o Mesh1_Group1_Model.073
v 2.625000 0.000000 -2.625000
v 2.625000 0.000000 0.000000
v 0.000000 0.000000 0.000000
v 0.000000 0.000000 -2.625000
v 2.625000 1.730000 -0.375000
v 2.625000 1.730000 0.000000
v 2.625000 0.300000 -2.625000
v 2.625000 0.300000 -0.375000
v 2.625000 0.600000 -0.375000
v 0.375000 1.730000 -2.625000
v 0.000000 1.730000 -2.625000
v 0.000000 1.730000 0.000000
v 0.375000 1.730000 -0.375000
v 0.375000 0.600000 -2.625000
v 0.375000 0.300000 -2.625000
v 0.375000 0.600000 -0.375000
v 2.625000 0.600000 -2.625000
vt -2.625000 -0.000000
vt -0.000000 2.625000
vt -2.625000 2.625000
vt 0.375000 0.600000
vt 0.000000 1.730000
vt 0.000000 0.000000
vt 0.375000 0.375000
vt 0.000000 2.625000
vt 0.000000 0.000000
vt -0.375000 0.600000
vt -0.375000 0.300000
vt 0.000000 0.000000
vt -2.625000 1.730000
vt -0.000000 0.000000
vt -0.000000 1.730000
vt 2.625000 0.000000
vt 2.625000 1.730000
vt 0.375000 0.600000
vt 2.625000 1.730000
vt 0.375000 1.730000
vt -0.375000 0.600000
vt -2.625000 1.730000
vt -2.625000 0.600000
vt 0.375000 1.730000
vt 2.625000 0.000000
vt 0.375000 0.300000
vt 2.625000 0.300000
vt 0.375000 2.625000
vt 2.625000 0.000000
vt 2.625000 0.375000
vt -2.625000 0.300000
vt -2.625000 0.000000
vt 0.000000 1.730000
vt -0.375000 1.730000
vt -2.625000 0.000000
vt 2.625000 0.600000
vt -0.375000 1.730000
vt 0.375000 2.625000
vt 2.625000 0.375000
vt 2.625000 2.625000
vt -2.625000 0.600000
vt 2.625000 0.600000
vt 0.375000 0.375000
vn 0.0000 -1.0000 -0.0000
vn 1.0000 -0.0000 0.0000
vn 0.0000 1.0000 -0.0000
vn 0.0000 0.0000 -1.0000
vn -1.0000 0.0000 0.0000
vn 0.0000 -0.0000 1.0000
usemtl Stone.056
s 1
f 2/1/1 4/2/1 1/3/1
f 9/4/2 6/5/2 2/6/2
f 13/7/3 11/8/3 12/9/3
f 14/10/4 15/11/4 4/12/4
f 11/13/5 3/14/5 12/15/5
f 12/15/6 2/16/6 6/17/6
f 16/18/2 10/19/2 13/20/2
f 16/21/4 5/22/4 9/23/4
f 2/1/1 3/14/1 4/2/1
f 9/4/2 5/24/2 6/5/2
f 2/6/2 1/25/2 8/26/2
f 1/25/2 7/27/2 8/26/2
f 8/26/2 9/4/2 2/6/2
f 13/7/3 10/28/3 11/8/3
f 12/9/3 6/29/3 13/7/3
f 6/29/3 5/30/3 13/7/3
f 7/31/4 1/32/4 15/11/4
f 1/32/4 4/12/4 15/11/4
f 4/12/4 11/33/4 14/10/4
f 11/33/4 10/34/4 14/10/4
f 11/13/5 4/35/5 3/14/5
f 12/15/6 3/14/6 2/16/6
f 16/18/2 14/36/2 10/19/2
f 16/21/4 13/37/4 5/22/4
usemtl Asphalt.045
f 14/38/3 9/39/3 17/40/3
f 7/31/4 14/10/4 17/41/4
f 8/26/2 17/42/2 9/4/2
f 14/38/3 16/43/3 9/39/3
f 7/31/4 15/11/4 14/10/4
f 8/26/2 7/27/2 17/42/2
