# Blender v2.79 (sub 7) OBJ File: ''
# www.blender.org
mtllib roadTile_068.mtl
o Mesh1_Group1_Model.038
v -1.339190 0.600000 1.500000
v 0.402930 0.315000 1.500000
v 0.402930 0.600000 1.500000
v -0.348350 0.600000 0.348350
v -1.500000 0.600000 1.339190
v -1.409010 0.600000 1.409010
v -1.500000 0.600000 -0.402930
v -1.500000 0.315000 1.339190
v -1.339190 0.315000 1.500000
v 0.247600 0.600000 1.125000
v -1.125000 0.600000 -0.247600
v -1.500000 0.315000 -0.402930
v -1.339190 0.630000 1.500000
v -1.409010 0.630000 1.409010
v -1.500000 0.630000 1.500000
v -1.500000 0.630000 1.339190
v -1.500000 0.000000 -1.500000
v -1.500000 0.000000 1.500000
v -1.500000 0.630000 -0.402930
v -1.125000 0.630000 -0.247600
v -0.348350 0.630000 0.348350
v 0.247600 0.630000 1.125000
v 1.500000 0.630000 -1.500000
v 0.402930 0.630000 1.500000
v 1.500000 0.000000 1.500000
v 1.500000 0.000000 -1.500000
v 1.500000 0.630000 1.500000
v -1.500000 0.630000 -1.500000
vt 0.160810 0.600000
vt 1.902930 0.315000
vt 1.902930 0.600000
vt 1.151650 1.151650
vt 0.000000 0.160810
vt 0.090990 0.090990
vt -1.902930 0.600000
vt -0.160810 0.315000
vt -0.160810 0.600000
vt 0.160810 0.315000
vt 0.160810 0.000000
vt 1.902930 0.000000
vt 1.747600 0.375000
vt 0.375000 1.747600
vt 0.000000 1.902930
vt -1.902930 0.315000
vt -0.097895 0.630000
vt 0.016796 0.600000
vt 0.016796 0.630000
vt 0.000000 0.000000
vt 0.090990 0.090990
vt 0.000000 0.160810
vt -3.000000 0.000000
vt -0.000000 0.000000
vt -0.016796 0.630000
vt 0.097895 0.600000
vt 0.097895 0.630000
vt -0.728218 0.630000
vt -0.322321 0.600000
vt -0.322321 0.630000
vt 1.151650 1.151650
vt 1.747600 0.375000
vt 3.000000 3.000000
vt 0.322321 0.630000
vt 0.728218 0.600000
vt 0.728218 0.630000
vt -0.212585 0.630000
vt 0.766361 0.600000
vt 0.766361 0.630000
vt -0.766361 0.630000
vt 0.212585 0.600000
vt 0.212585 0.630000
vt 0.000000 3.000000
vt -3.000000 -0.000000
vt -0.000000 -0.000000
vt -3.000000 0.630000
vt -3.000000 -0.000000
vt -0.000000 0.000000
vt 3.000000 0.630000
vt -0.000000 0.630000
vt -0.097895 0.600000
vt 0.160810 0.000000
vt -0.000000 0.630000
vt -0.160810 0.630000
vt -1.902930 0.630000
vt -3.000000 0.630000
vt -0.016796 0.600000
vt -0.728218 0.600000
vt 1.902930 0.000000
vt 3.000000 0.000000
vt 0.000000 3.000000
vt 0.375000 1.747600
vt 0.000000 1.902930
vt 0.322321 0.600000
vt -0.212585 0.600000
vt -0.766361 0.600000
vt 3.000000 0.630000
vt 1.902930 0.630000
vt 0.160810 0.630000
vt 3.000000 0.000000
vt -3.000000 3.000000
vt -0.000000 0.630000
vt 3.000000 0.000000
vn 0.0000 0.0000 1.0000
vn -0.0000 1.0000 0.0000
vn -1.0000 0.0000 0.0000
vn 0.7933 0.0000 -0.6088
vn 0.7071 0.0000 -0.7071
vn 0.6088 0.0000 -0.7933
vn -0.3827 0.0000 0.9239
vn -0.5000 0.0000 0.8660
vn -0.8660 0.0000 0.5000
vn -0.9239 0.0000 0.3827
vn -0.7071 0.0000 0.7071
vn 0.0000 -1.0000 -0.0000
vn 0.0000 0.0000 -1.0000
vn 1.0000 0.0000 0.0000
usemtl Asphalt.023
s 1
f 1/1/1 2/2/1 3/3/1
f 4/4/2 5/5/2 6/6/2
f 7/7/3 8/8/3 5/9/3
f 1/1/1 9/10/1 2/2/1
f 6/6/2 1/11/2 4/4/2
f 1/11/2 3/12/2 10/13/2
f 10/13/2 4/4/2 1/11/2
f 4/4/2 11/14/2 5/5/2
f 11/14/2 7/15/2 5/5/2
f 7/7/3 12/16/3 8/8/3
usemtl Stone.031
f 13/17/4 6/18/5 14/19/5
f 15/20/2 14/21/2 16/22/2
f 12/16/3 17/23/3 18/24/3
f 14/25/5 5/26/6 16/27/6
f 19/28/7 11/29/8 20/30/8
f 21/31/2 22/32/2 23/33/2
f 22/34/9 3/35/10 24/36/10
f 21/37/11 10/38/9 22/39/9
f 20/40/8 4/41/11 21/42/11
f 2/2/1 9/10/1 18/24/1
f 17/43/12 25/44/12 18/24/12
f 17/45/13 23/46/13 26/47/13
f 25/48/14 23/49/14 27/50/14
f 13/17/4 1/51/4 6/18/5
f 15/20/2 13/52/2 14/21/2
f 15/53/3 16/54/3 5/9/3
f 15/53/3 5/9/3 8/8/3
f 19/55/3 28/56/3 7/7/3
f 28/56/3 17/23/3 12/16/3
f 7/7/3 28/56/3 12/16/3
f 18/24/3 15/53/3 8/8/3
f 18/24/3 8/8/3 12/16/3
f 14/25/5 6/57/5 5/26/6
f 19/28/7 7/58/7 11/29/8
f 22/32/2 24/59/2 27/60/2
f 27/60/2 23/33/2 22/32/2
f 23/33/2 28/61/2 20/62/2
f 21/31/2 23/33/2 20/62/2
f 28/61/2 19/63/2 20/62/2
f 22/34/9 10/64/9 3/35/10
f 21/37/11 4/65/11 10/38/9
f 20/40/8 11/66/8 4/41/11
f 27/67/1 24/68/1 3/3/1
f 27/67/1 3/3/1 2/2/1
f 13/69/1 15/53/1 1/1/1
f 15/53/1 18/24/1 9/10/1
f 1/1/1 15/53/1 9/10/1
f 25/70/1 27/67/1 2/2/1
f 25/70/1 2/2/1 18/24/1
f 17/43/12 26/71/12 25/44/12
f 17/45/13 28/72/13 23/46/13
f 25/48/14 26/73/14 23/49/14
