# Blender v2.79 (sub 7) OBJ File: ''
# www.blender.org
mtllib roadTile_016.mtl
o Mesh1_Group1_Model.175
v 3.000000 0.550000 -3.000000
v 3.000000 0.000000 -3.000000
v 0.000000 0.000000 -3.000000
v 0.000000 0.550000 -3.000000
v 0.750000 0.550000 -3.000000
v 0.750000 0.455000 -3.000000
v 0.750000 0.300000 -3.000000
v 2.250000 0.300000 -3.000000
v 2.250000 0.455000 -3.000000
v 2.250000 0.550000 -3.000000
v 3.000000 0.550000 -2.250000
v 3.000000 0.455000 -2.250000
v 3.000000 0.300000 -2.250000
v 3.000000 0.300000 -0.750000
v 3.000000 0.455000 -0.750000
v 3.000000 0.550000 -0.750000
v 3.000000 0.550000 0.000000
v 3.000000 0.000000 0.000000
v 2.535670 0.550000 -2.506750
v 1.875000 0.550000 -0.284010
v 0.870142 0.550000 -0.657812
v 0.310318 0.550000 -1.675170
v 0.000000 0.550000 0.000000
v 0.000000 0.000000 0.000000
v 2.535670 0.455000 -2.506750
v 0.310318 0.455000 -1.675170
v 0.870142 0.455000 -0.657812
v 1.875000 0.455000 -0.284010
vt -3.000000 0.000000
vt -0.000000 0.000000
vt -0.750000 0.300000
vt 3.000000 0.000000
vt 0.750000 0.300000
vt 0.000000 0.000000
vt 3.000000 3.000000
vt 2.535670 2.506750
vt 3.000000 2.250000
vt 0.870142 0.657812
vt 0.310318 1.675170
vt 0.000000 0.000000
vt 0.000000 0.000000
vt -3.000000 0.550000
vt -3.000000 0.000000
vt -3.000000 3.000000
vt -0.000000 3.000000
vt 3.000000 0.000000
vt 0.000000 0.550000
vt -2.250000 0.550000
vt -3.000000 0.550000
vt -2.250000 0.455000
vt -2.250000 0.300000
vt -0.000000 0.550000
vt -0.750000 0.550000
vt -0.750000 0.455000
vt 3.000000 0.550000
vt 2.250000 0.300000
vt 2.250000 0.550000
vt 2.250000 0.455000
vt 0.750000 0.550000
vt 0.000000 0.550000
vt 0.750000 0.455000
vt 2.250000 3.000000
vt 0.750000 3.000000
vt 0.000000 3.000000
vt 3.000000 0.000000
vt 3.000000 0.750000
vt 1.875000 0.284010
vt -3.000000 -0.000000
vt 3.000000 0.550000
vt -0.898378 0.455000
vt -1.468380 0.550000
vt -1.468380 0.455000
vt 3.000000 0.750000
vt 3.000000 2.250000
vt 2.535670 2.506750
vt 1.687640 0.550000
vt 3.083530 0.455000
vt 3.083530 0.550000
vt -1.658330 0.550000
vt -0.586195 0.455000
vt -0.586195 0.550000
vt -3.058650 0.550000
vt -1.840960 0.455000
vt -1.840960 0.550000
vt 0.156820 0.550000
vt 1.318030 0.455000
vt 1.318030 0.550000
vt 1.536570 0.455000
vt 1.005990 0.550000
vt 1.005990 0.455000
vt -0.898378 0.550000
vt 2.250000 3.000000
vt 0.750000 3.000000
vt 0.310318 1.675170
vt 0.870142 0.657812
vt 1.875000 0.284010
vt 1.687640 0.455000
vt -1.658330 0.455000
vt -3.058650 0.455000
vt 0.156820 0.455000
vt 1.536570 0.550000
vn -0.0000 0.0000 -1.0000
vn 1.0000 0.0000 0.0000
vn 0.0000 1.0000 0.0000
vn -1.0000 0.0000 0.0000
vn 0.0000 -1.0000 -0.0000
vn 0.0000 -0.0000 1.0000
vn -0.8653 0.0000 0.5012
vn 0.9491 0.0000 0.3150
vn 0.3487 0.0000 -0.9373
vn -0.3827 0.0000 -0.9239
vn 0.8761 0.0000 -0.4821
vn -0.4839 0.0000 0.8751
usemtl Grass.075
s 1
f 2/1/1 3/2/1 7/3/1
f 2/4/2 14/5/2 18/6/2
f 1/7/3 19/8/3 11/9/3
f 21/10/3 22/11/3 23/12/3
f 24/13/4 4/14/4 3/15/4
f 2/16/5 24/13/5 3/17/5
f 18/18/6 23/19/6 24/13/6
f 10/20/1 1/21/1 9/22/1
f 1/21/1 2/1/1 8/23/1
f 9/22/1 1/21/1 8/23/1
f 3/2/1 4/24/1 7/3/1
f 4/24/1 5/25/1 6/26/1
f 6/26/1 7/3/1 4/24/1
f 7/3/1 8/23/1 2/1/1
f 2/4/2 1/27/2 13/28/2
f 1/27/2 11/29/2 12/30/2
f 12/30/2 13/28/2 1/27/2
f 16/31/2 17/32/2 15/33/2
f 17/32/2 18/6/2 14/5/2
f 15/33/2 17/32/2 14/5/2
f 2/4/2 13/28/2 14/5/2
f 1/7/3 10/34/3 19/8/3
f 22/11/3 5/35/3 4/36/3
f 17/37/3 16/38/3 20/39/3
f 23/12/3 17/37/3 20/39/3
f 22/11/3 4/36/3 23/12/3
f 23/12/3 20/39/3 21/10/3
f 24/13/4 23/19/4 4/14/4
f 2/16/5 18/40/5 24/13/5
f 18/18/6 17/41/6 23/19/6
usemtl Alternate_Dirt.006
f 25/42/7 10/43/7 9/44/7
f 15/45/3 12/46/3 25/47/3
f 8/23/1 6/26/1 9/22/1
f 22/48/8 6/49/8 5/50/8
f 20/51/9 27/52/9 21/53/9
f 16/54/10 28/55/10 20/56/10
f 21/57/11 26/58/11 22/59/11
f 14/5/2 12/30/2 15/33/2
f 12/60/12 19/61/12 25/62/12
f 25/42/7 19/63/7 10/43/7
f 25/47/3 9/64/3 6/65/3
f 6/65/3 26/66/3 25/47/3
f 26/66/3 27/67/3 25/47/3
f 27/67/3 28/68/3 25/47/3
f 28/68/3 15/45/3 25/47/3
f 8/23/1 7/3/1 6/26/1
f 22/48/8 26/69/8 6/49/8
f 20/51/9 28/70/9 27/52/9
f 16/54/10 15/71/10 28/55/10
f 21/57/11 27/72/11 26/58/11
f 14/5/2 13/28/2 12/30/2
f 12/60/12 11/73/12 19/61/12
