# Blender v2.79 (sub 7) OBJ File: ''
# www.blender.org
mtllib roadTile_180.mtl
o Mesh1_Group1_Model.059
v 0.591492 0.883120 -0.750000
v 0.591492 0.883120 -0.375000
v 0.591492 0.000000 -0.375000
v 0.591492 0.000000 -0.750000
v 0.591492 0.883120 -2.250000
v 0.000000 1.100000 -2.250000
v 0.000000 0.000000 -2.250000
v 0.591492 0.000000 -2.250000
v 0.000000 0.000000 -0.750000
v 0.000000 0.000000 -0.375000
v 0.000000 1.650000 -0.375000
v 0.000000 1.730000 -0.375000
v 0.000000 1.730000 -0.750000
v 0.000000 1.700000 -0.750000
v 0.000000 1.400000 -0.750000
v 0.000000 1.400000 -2.250000
v 0.000000 1.700000 -2.250000
v 0.000000 1.730000 -2.250000
v 0.000000 1.730000 -2.625000
v 0.000000 1.650000 -2.625000
v 0.000000 0.000000 -2.625000
v 0.000000 1.100000 -0.750000
v 3.000000 0.000000 -0.375000
v 3.000000 0.000000 -2.625000
v 3.000000 0.550000 -2.625000
v 3.000000 0.630000 -2.625000
v 3.000000 0.630000 -2.250000
v 3.000000 0.600000 -2.250000
v 3.000000 0.300000 -2.250000
v 3.000000 0.300000 -0.750000
v 3.000000 0.600000 -0.750000
v 3.000000 0.630000 -0.750000
v 3.000000 0.630000 -0.375000
v 3.000000 0.550000 -0.375000
v 0.591492 0.000000 -2.625000
v 0.591492 0.883120 -2.625000
v 0.591492 0.883120 -3.000000
v 3.000000 0.000000 -3.000000
v 3.000000 0.000000 0.000000
v 0.591492 0.883120 0.000000
v 0.591492 0.000000 0.000000
v 0.000000 0.000000 0.000000
v 3.000000 0.550000 0.000000
v 0.000000 1.650000 0.000000
v 3.000000 0.550000 -3.000000
v 0.000000 0.000000 -3.000000
v 0.000000 1.650000 -3.000000
v 0.591492 0.000000 -3.000000
vt 0.375000 0.883120
vt 0.750000 0.000000
vt 0.750000 0.883120
vt 0.591492 0.883120
vt 0.000000 0.000000
vt 0.591492 0.000000
vt -2.250000 1.400000
vt -2.250000 1.100000
vt -0.750000 1.100000
vt -0.591492 0.883120
vt -0.000000 0.000000
vt -0.000000 1.100000
vt 0.375000 0.000000
vt 2.625000 0.000000
vt 0.750000 0.300000
vt -3.000000 0.630000
vt 0.000000 1.650000
vt 0.000000 1.730000
vt 2.625000 -2.599750
vt 2.250000 0.595561
vt 2.250000 -2.599750
vt 0.000000 1.700000
vt 3.000000 0.630000
vt 0.000000 1.730000
vt -0.000000 1.700000
vt -3.000000 0.630000
vt -3.000000 0.600000
vt 0.375000 0.595561
vt 0.750000 -2.599750
vt 0.750000 0.595561
vt -0.000000 1.650000
vt 3.000000 0.630000
vt 0.000000 1.730000
vt 2.625000 0.000000
vt 2.250000 0.883120
vt 2.250000 0.000000
vt 0.375000 0.000000
vt 0.000000 1.100000
vt -0.750000 0.000000
vt -0.375000 0.000000
vt -0.375000 1.650000
vt -0.375000 1.730000
vt -0.750000 1.700000
vt -0.750000 1.730000
vt -2.625000 0.000000
vt -2.250000 0.000000
vt -0.750000 1.400000
vt -2.625000 1.650000
vt -2.250000 1.730000
vt -2.625000 1.730000
vt -2.250000 1.700000
vt -0.591492 0.000000
vt 2.625000 0.550000
vt 2.250000 0.300000
vt 2.625000 0.630000
vt 2.250000 0.600000
vt 2.250000 0.630000
vt 0.375000 0.630000
vt 0.375000 0.550000
vt 0.750000 0.600000
vt 0.750000 0.630000
vt -3.000000 0.550000
vt 2.625000 0.595561
vt 3.000000 0.600000
vt -0.000000 1.730000
vt 0.375000 -2.599750
vt 3.000000 0.550000
vt 2.625000 0.883120
vt -0.750000 -0.251320
vt -2.250000 -0.251320
vt -2.625000 -2.816630
vt -0.591492 0.375000
vt -0.591492 0.000000
vt -0.000000 0.000000
vt 0.000000 0.883120
vt 0.000000 0.000000
vt 0.591492 0.883120
vt 3.000000 0.550000
vt 0.000000 1.650000
vt -0.000000 -0.000000
vt 3.000000 0.550000
vt 3.000000 0.000000
vt -3.000000 0.550000
vt -3.000000 -0.000000
vt -0.591492 0.883120
vt -3.000000 0.000000
vt 3.000000 0.568020
vt 2.625000 -2.627290
vt 3.000000 -2.627290
vt 0.000000 -2.627290
vt 0.375000 0.568020
vt 0.000000 0.568020
vt -0.591492 2.625000
vt -0.000000 2.250000
vt -0.000000 2.625000
vt 3.000000 0.000000
vt 3.000000 0.883120
vt -0.750000 0.378680
vt -2.250000 0.378680
vt -2.625000 -0.251320
vt -3.000000 -0.251320
vt -3.000000 -2.816630
vt -0.375000 -2.816630
vt -0.000000 -2.816630
vt -0.000000 -0.251320
vt -0.375000 -0.251320
vt -0.000000 0.375000
vt -0.000000 0.750000
vt -0.591492 0.750000
vt 3.000000 0.000000
vt 0.591492 -0.000000
vt -0.000000 0.550000
vt -0.591492 -0.000000
vt -0.000000 -0.000000
vt -0.000000 1.650000
vt -3.000000 1.650000
vt 2.625000 0.568020
vt 0.375000 -2.627290
vt -0.000000 3.000000
vt -0.591492 3.000000
vt -0.591492 2.250000
vt 2.250000 0.585233
vt 0.750000 -2.610080
vt 2.250000 -2.610080
vt 0.750000 0.585233
vn 1.0000 0.0000 0.0000
vn 0.0000 0.0000 1.0000
vn -1.0000 0.0000 0.0000
vn 0.0000 0.0000 -1.0000
vn 0.3443 0.9389 0.0000
vn -0.3443 -0.9389 -0.0000
vn 0.0000 -1.0000 -0.0000
usemtl Stone.048
s 1
f 2/1/1 4/2/1 1/3/1
f 5/4/2 7/5/2 8/6/2
f 16/7/3 6/8/3 22/9/3
f 1/10/4 9/11/4 22/12/4
f 23/13/1 24/14/1 30/15/1
f 26/16/4 20/17/4 19/18/4
f 26/19/5 18/20/5 27/21/5
f 17/22/2 27/23/2 18/24/2
f 14/25/4 32/26/4 31/27/4
f 12/28/5 32/29/5 13/30/5
f 11/31/2 33/32/2 12/33/2
f 35/34/1 5/35/1 8/36/1
f 2/1/1 3/37/1 4/2/1
f 5/4/2 6/38/2 7/5/2
f 22/9/3 9/39/3 10/40/3
f 11/41/3 12/42/3 14/43/3
f 12/42/3 13/44/3 14/43/3
f 22/9/3 10/40/3 11/41/3
f 21/45/3 7/46/3 6/8/3
f 11/41/3 14/43/3 15/47/3
f 20/48/3 21/45/3 6/8/3
f 18/49/3 19/50/3 17/51/3
f 19/50/3 20/48/3 17/51/3
f 16/7/3 17/51/3 20/48/3
f 22/9/3 11/41/3 15/47/3
f 22/9/3 15/47/3 16/7/3
f 16/7/3 20/48/3 6/8/3
f 1/10/4 4/52/4 9/11/4
f 24/14/1 25/53/1 29/54/1
f 25/53/1 26/55/1 28/56/1
f 29/54/1 25/53/1 28/56/1
f 26/55/1 27/57/1 28/56/1
f 33/58/1 34/59/1 31/60/1
f 34/59/1 23/13/1 30/15/1
f 31/60/1 32/61/1 33/58/1
f 30/15/1 31/60/1 34/59/1
f 24/14/1 29/54/1 30/15/1
f 26/16/4 25/62/4 20/17/4
f 26/19/5 19/63/5 18/20/5
f 17/22/2 28/64/2 27/23/2
f 14/25/4 13/65/4 32/26/4
f 12/28/5 33/66/5 32/29/5
f 11/31/2 34/67/2 33/32/2
f 35/34/1 36/68/1 5/35/1
usemtl Grass.028
f 1/69/6 5/70/6 24/71/6
f 3/72/7 41/73/7 42/74/7
f 3/37/1 40/75/1 41/76/1
f 40/77/2 43/78/2 44/79/2
f 34/59/1 39/80/1 23/13/1
f 45/81/1 24/14/1 38/82/1
f 45/83/4 38/84/4 37/85/4
f 20/48/3 46/86/3 21/45/3
f 47/87/5 25/88/5 45/89/5
f 43/90/5 11/91/5 44/92/5
f 44/79/3 10/40/3 42/74/3
f 35/93/7 7/94/7 21/95/7
f 36/68/1 48/96/1 37/97/1
f 22/98/6 6/99/6 5/70/6
f 36/100/6 37/101/6 38/102/6
f 1/69/6 22/98/6 5/70/6
f 5/70/6 36/100/6 24/71/6
f 36/100/6 38/102/6 24/71/6
f 24/71/6 23/103/6 1/69/6
f 23/103/6 39/104/6 40/105/6
f 40/105/6 2/106/6 23/103/6
f 2/106/6 1/69/6 23/103/6
f 42/74/7 10/107/7 3/72/7
f 10/107/7 9/108/7 3/72/7
f 9/108/7 4/109/7 3/72/7
f 3/37/1 2/1/1 40/75/1
f 40/77/2 39/110/2 43/78/2
f 44/79/2 42/74/2 40/77/2
f 42/74/2 41/111/2 40/77/2
f 34/59/1 43/112/1 39/80/1
f 45/81/1 25/53/1 24/14/1
f 48/113/4 46/114/4 37/85/4
f 46/114/4 47/115/4 37/85/4
f 47/115/4 45/83/4 37/85/4
f 20/48/3 47/116/3 46/86/3
f 47/87/5 20/117/5 25/88/5
f 43/90/5 34/118/5 11/91/5
f 44/79/3 11/41/3 10/40/3
f 46/119/7 48/120/7 35/93/7
f 35/93/7 8/121/7 7/94/7
f 21/95/7 46/119/7 35/93/7
f 36/68/1 35/34/1 48/96/1
usemtl Asphalt.037
f 17/122/5 31/123/5 28/124/5
f 17/51/3 15/47/3 14/43/3
f 31/60/1 29/54/1 28/56/1
f 17/122/5 14/125/5 31/123/5
f 17/51/3 16/7/3 15/47/3
f 31/60/1 30/15/1 29/54/1
