# Blender v2.79 (sub 7) OBJ File: ''
# www.blender.org
mtllib roadTile_048.mtl
o Mesh1_Group1_Model.261
v 1.339190 0.600000 1.500000
v -0.402930 0.315000 1.500000
v 1.339190 0.315000 1.500000
v 0.826670 0.600000 -0.582340
v 1.051440 0.600000 -1.125000
v -0.402930 0.600000 -1.500000
v 1.339190 0.315000 -1.500000
v -0.402930 0.315000 -1.500000
v -0.402930 0.600000 1.500000
v 1.339190 0.600000 -1.500000
v -0.622222 0.600000 -0.970570
v -0.750000 0.600000 0.000000
v 0.750000 0.600000 0.000000
v -0.622222 0.600000 0.970571
v 0.826670 0.600000 0.582343
v 1.051440 0.600000 1.125000
v -0.752370 0.000000 1.500000
v 1.500000 0.000000 1.500000
v -0.936757 0.630000 1.054851
v -0.752370 0.550000 1.500000
v -0.752370 0.630000 1.500000
v -0.750000 0.630000 0.000000
v -0.622222 0.630000 -0.970570
v -0.936757 0.630000 -1.054850
v 1.500000 0.000000 -1.500000
v 1.500000 0.630000 -1.500000
v 1.500000 0.630000 -1.098840
v 1.500000 0.550000 -1.098840
v 0.826670 0.630000 0.582343
v 1.188890 0.630000 0.485290
v 1.125000 0.630000 0.000000
v 1.500000 0.000000 1.098836
v 1.500000 0.550000 1.098836
v 1.376200 0.630000 -0.937500
v 1.188890 0.630000 -0.485290
v 1.376200 0.550000 -0.937500
v 1.188890 0.550000 -0.485290
v 1.125000 0.550000 0.000000
v 1.376200 0.630000 0.937500
v 1.188890 0.550000 0.485290
v 1.500000 0.630000 1.098836
v 1.376200 0.550000 0.937500
v 1.339190 0.630000 -1.500000
v 1.051440 0.630000 -1.125000
v -0.402930 0.630000 -1.500000
v -0.622222 0.630000 0.970571
v -0.402930 0.630000 1.500000
v 1.051440 0.630000 1.125000
v 1.339190 0.630000 1.500000
v 0.750000 0.630000 0.000000
v 0.826670 0.630000 -0.582340
v -0.752370 0.630000 -1.500000
v -0.936757 0.550000 -1.054850
v -1.075630 0.550000 0.000000
v -1.075630 0.630000 0.000000
v -0.936757 0.550000 1.054851
v 1.500000 0.630000 1.500000
v -0.752370 0.550000 -1.500000
v -0.752370 0.000000 -1.500000
v 1.500000 0.000000 -1.098840
v -1.500000 0.550000 1.500000
v -1.500000 0.550000 -1.500000
v -1.500000 0.000000 1.500000
v -1.500000 0.000000 -1.500000
vt 2.839190 0.600000
vt 1.097070 0.315000
vt 2.839190 0.315000
vt 2.326670 2.082340
vt 2.551440 2.625000
vt 1.097070 3.000000
vt -1.097070 0.600000
vt -2.839190 0.315000
vt -1.097070 0.315000
vt 1.097070 0.600000
vt 2.839190 3.000000
vt 0.877778 2.470570
vt 0.750000 1.500000
vt 2.250000 1.500000
vt 0.877778 0.529429
vt 1.097070 0.000000
vt 2.326670 0.917657
vt 2.839190 0.000000
vt 2.551440 0.375000
vt -2.839190 0.600000
vt 0.747630 0.000000
vt 3.000000 0.000000
vt -0.195720 0.630000
vt 0.286106 0.550000
vt 0.286106 0.630000
vt 0.750000 1.500000
vt 0.877778 2.470570
vt 0.563243 2.554850
vt -3.000000 0.000000
vt 3.000000 0.630000
vt 2.598840 0.630000
vt 2.598840 0.550000
vt 2.326670 0.917657
vt 2.688890 1.014710
vt 2.625000 1.500000
vt -0.000000 0.000000
vt 0.401164 0.000000
vt 0.401164 0.550000
vt 3.684720 0.630000
vt 3.888080 0.550000
vt 3.888080 0.630000
vt 2.863160 0.630000
vt 3.352630 0.550000
vt 3.352630 0.630000
vt 1.829800 0.630000
vt 2.319270 0.550000
vt 2.319270 0.630000
vt 0.655063 0.630000
vt 1.144540 0.550000
vt 1.144540 0.630000
vt -0.580993 0.630000
vt -0.091519 0.550000
vt -0.091519 0.630000
vt -1.508020 0.630000
vt -1.304660 0.550000
vt -1.304660 0.630000
vt -4.108450 0.630000
vt -3.635770 0.600000
vt -3.635770 0.630000
vt 2.618420 0.630000
vt 3.191470 0.600000
vt 3.191470 0.630000
vt 1.585060 0.630000
vt 2.564010 0.600000
vt 2.564010 0.630000
vt 0.410326 0.630000
vt 1.389270 0.600000
vt 1.389270 0.630000
vt -0.419832 0.630000
vt 0.153217 0.600000
vt 0.153217 0.630000
vt 1.255710 0.630000
vt 1.728390 0.600000
vt 1.728390 0.630000
vt 0.042572 0.630000
vt 0.629940 0.600000
vt 0.629940 0.630000
vt -1.193480 0.630000
vt -0.606115 0.600000
vt -0.606115 0.630000
vt -2.368220 0.630000
vt -1.780850 0.600000
vt -1.780850 0.630000
vt -3.401580 0.630000
vt -2.814210 0.600000
vt -2.814210 0.630000
vt -3.057740 0.630000
vt -2.575920 0.550000
vt -2.575920 0.630000
vt -2.606510 0.630000
vt -1.542560 0.550000
vt -1.542560 0.630000
vt -1.431780 0.630000
vt -0.367823 0.550000
vt -0.367823 0.630000
vt 0.747630 0.630000
vt 0.747630 0.550000
vt 1.097070 0.630000
vt 3.000000 0.630000
vt 2.839190 0.630000
vt -0.195720 0.550000
vt 1.097070 3.000000
vt 0.747630 3.000000
vt 0.424370 1.500000
vt 0.563243 0.445149
vt 0.747630 0.000000
vt 0.877778 0.529429
vt 1.097070 0.000000
vt -0.747630 0.550000
vt -0.747630 0.630000
vt -1.097070 0.630000
vt -2.839190 0.630000
vt -3.000000 0.630000
vt -0.747630 0.000000
vt 2.598840 0.000000
vt 3.000000 0.000000
vt 2.839190 0.000000
vt 3.000000 -0.000000
vt 3.000000 0.401164
vt 2.551440 0.375000
vt 2.876200 0.562500
vt 2.326670 2.082340
vt 2.250000 1.500000
vt 2.688890 1.985290
vt 2.839190 3.000000
vt 2.551440 2.625000
vt 3.000000 2.598840
vt 3.000000 3.000000
vt 2.876200 2.437500
vt 0.401164 0.630000
vt -0.000000 0.630000
vt 3.684720 0.550000
vt 2.863160 0.550000
vt 1.829800 0.550000
vt 0.655063 0.550000
vt -0.580993 0.550000
vt -1.508020 0.550000
vt -4.108450 0.600000
vt 2.618420 0.600000
vt 1.585060 0.600000
vt 0.410326 0.600000
vt -0.419832 0.600000
vt 1.255710 0.600000
vt 0.042572 0.600000
vt -1.193480 0.600000
vt -2.368220 0.600000
vt -3.401580 0.600000
vt -3.057740 0.550000
vt -2.606510 0.550000
vt -1.431780 0.550000
vt 0.000000 0.550000
vt 0.424370 1.500000
vt 0.563243 2.554850
vt 0.000000 3.000000
vt -0.747630 3.000000
vt -3.000000 0.401164
vt -0.747630 0.000000
vt -3.000000 0.550000
vt -0.000000 0.000000
vt -0.000000 0.000000
vt -0.000000 0.550000
vt 2.688890 1.985290
vt 2.625000 1.500000
vt 3.000000 2.598840
vt 0.000000 0.000000
vt 0.747630 0.000000
vt 0.563243 0.445149
vt 0.747630 3.000000
vt -0.000000 3.000000
vt -3.000000 3.000000
vt -3.000000 2.598840
vt -3.000000 0.000000
vt -3.000000 -0.000000
vt 2.876200 0.562500
vt 3.000000 0.401164
vt 2.688890 1.014710
vt 2.876200 2.437500
vn 0.0000 0.0000 1.0000
vn -0.0000 1.0000 0.0000
vn 0.0000 0.0000 -1.0000
vn -0.9659 0.0000 0.2588
vn -0.9239 0.0000 0.3827
vn 1.0000 0.0000 0.0000
vn 0.8660 0.0000 0.5000
vn 0.7934 0.0000 0.6088
vn 0.9659 0.0000 0.2588
vn 0.9659 0.0000 -0.2588
vn 0.8660 0.0000 -0.5000
vn 0.7933 0.0000 -0.6088
vn -0.7934 0.0000 -0.6088
vn -0.8660 0.0000 -0.5000
vn 0.9239 0.0000 0.3827
vn 0.9239 0.0000 -0.3827
vn -0.8660 0.0000 0.5000
vn -0.7934 0.0000 0.6088
vn -1.0000 0.0000 -0.0000
vn -0.9659 0.0000 -0.2588
vn -0.9239 0.0000 -0.3827
vn 0.0000 -1.0000 -0.0000
usemtl Asphalt.179
s 1
f 1/1/1 2/2/1 3/3/1
f 4/4/2 5/5/2 6/6/2
f 6/7/3 7/8/3 8/9/3
f 1/1/1 9/10/1 2/2/1
f 5/5/2 10/11/2 6/6/2
f 6/6/2 11/12/2 4/4/2
f 11/12/2 12/13/2 13/14/2
f 12/13/2 14/15/2 13/14/2
f 14/15/2 9/16/2 15/17/2
f 13/14/2 14/15/2 15/17/2
f 9/16/2 1/18/2 16/19/2
f 9/16/2 16/19/2 15/17/2
f 11/12/2 13/14/2 4/4/2
f 6/7/3 10/20/3 7/8/3
usemtl Stone.222
f 17/21/1 18/22/1 2/2/1
f 19/23/4 20/24/5 21/25/5
f 22/26/2 23/27/2 24/28/2
f 8/9/3 7/8/3 25/29/3
f 26/30/6 27/31/6 28/32/6
f 29/33/2 30/34/2 31/35/2
f 18/36/6 32/37/6 33/38/6
f 34/39/7 28/40/8 27/41/8
f 35/42/9 36/43/7 34/44/7
f 31/45/6 37/46/9 35/47/9
f 30/48/10 38/49/6 31/50/6
f 39/51/11 40/52/10 30/53/10
f 41/54/12 42/55/11 39/56/11
f 43/57/13 5/58/14 44/59/14
f 23/60/9 6/61/15 45/62/15
f 22/63/6 11/64/9 23/65/9
f 46/66/10 12/67/6 22/68/6
f 47/69/16 14/70/10 46/71/10
f 48/72/17 1/73/18 49/74/18
f 29/75/4 16/76/17 48/77/17
f 50/78/19 15/79/4 29/80/4
f 51/81/20 13/82/19 50/83/19
f 44/84/14 4/85/20 51/86/20
f 52/87/21 53/88/20 24/89/20
f 24/90/20 54/91/19 55/92/19
f 55/93/19 56/94/4 19/95/4
f 21/96/1 20/97/1 9/10/1
f 20/97/1 17/21/1 2/2/1
f 21/96/1 9/10/1 47/98/1
f 18/22/1 57/99/1 3/3/1
f 57/99/1 49/100/1 1/1/1
f 1/1/1 3/3/1 57/99/1
f 9/10/1 20/97/1 2/2/1
f 18/22/1 3/3/1 2/2/1
f 19/23/4 56/101/4 20/24/5
f 23/27/2 45/102/2 52/103/2
f 52/103/2 24/28/2 23/27/2
f 24/28/2 55/104/2 22/26/2
f 55/104/2 19/105/2 22/26/2
f 19/105/2 21/106/2 46/107/2
f 22/26/2 19/105/2 46/107/2
f 21/106/2 47/108/2 46/107/2
f 58/109/3 52/110/3 6/7/3
f 52/110/3 45/111/3 6/7/3
f 43/112/3 26/113/3 10/20/3
f 26/113/3 25/29/3 7/8/3
f 10/20/3 26/113/3 7/8/3
f 59/114/3 58/109/3 8/9/3
f 58/109/3 6/7/3 8/9/3
f 59/114/3 8/9/3 25/29/3
f 28/32/6 60/115/6 25/116/6
f 25/116/6 26/30/6 28/32/6
f 49/117/2 57/118/2 41/119/2
f 49/117/2 41/119/2 48/120/2
f 41/119/2 39/121/2 48/120/2
f 29/33/2 48/120/2 39/121/2
f 51/122/2 50/123/2 31/35/2
f 50/123/2 29/33/2 31/35/2
f 51/122/2 31/35/2 35/124/2
f 43/125/2 44/126/2 27/127/2
f 44/126/2 51/122/2 35/124/2
f 27/127/2 26/128/2 43/125/2
f 34/129/2 27/127/2 44/126/2
f 44/126/2 35/124/2 34/129/2
f 29/33/2 39/121/2 30/34/2
f 33/38/6 41/130/6 57/131/6
f 57/131/6 18/36/6 33/38/6
f 34/39/7 36/132/7 28/40/8
f 35/42/9 37/133/9 36/43/7
f 31/45/6 38/134/6 37/46/9
f 30/48/10 40/135/10 38/49/6
f 39/51/11 42/136/11 40/52/10
f 41/54/12 33/137/12 42/55/11
f 43/57/13 10/138/13 5/58/14
f 23/60/9 11/139/9 6/61/15
f 22/63/6 12/140/6 11/64/9
f 46/66/10 14/141/10 12/67/6
f 47/69/16 9/142/16 14/70/10
f 48/72/17 16/143/17 1/73/18
f 29/75/4 15/144/4 16/76/17
f 50/78/19 13/145/19 15/79/4
f 51/81/20 4/146/20 13/82/19
f 44/84/14 5/147/14 4/85/20
f 52/87/21 58/148/21 53/88/20
f 24/90/20 53/149/20 54/91/19
f 55/93/19 54/150/19 56/94/4
usemtl Grass.111
f 61/151/1 17/21/1 20/97/1
f 54/152/2 53/153/2 62/154/2
f 59/155/22 32/156/22 17/157/22
f 62/158/19 63/159/19 61/151/19
f 58/109/3 64/160/3 62/161/3
f 28/32/6 32/37/6 60/115/6
f 37/162/2 38/163/2 28/164/2
f 61/151/1 63/159/1 17/21/1
f 61/165/2 20/166/2 56/167/2
f 61/165/2 56/167/2 54/152/2
f 53/153/2 58/168/2 62/154/2
f 61/165/2 54/152/2 62/154/2
f 17/157/22 63/159/22 64/169/22
f 59/155/22 25/170/22 60/171/22
f 17/157/22 64/169/22 59/155/22
f 32/156/22 18/172/22 17/157/22
f 59/155/22 60/171/22 32/156/22
f 62/158/19 64/173/19 63/159/19
f 58/109/3 59/114/3 64/160/3
f 28/32/6 33/38/6 32/37/6
f 42/174/2 33/175/2 40/176/2
f 33/175/2 28/164/2 38/163/2
f 40/176/2 33/175/2 38/163/2
f 28/164/2 36/177/2 37/162/2
