# Blender v2.79 (sub 7) OBJ File: ''
# www.blender.org
mtllib roadTile_037.mtl
o Mesh1_Group1_Model.271
v 1.500000 0.000000 1.500000
v -1.500000 0.000000 -1.500000
v 1.500000 0.000000 -1.500000
v 1.500000 0.550000 -1.500000
v 1.500000 1.650000 1.500000
v -1.500000 1.650000 1.500000
v -1.500000 0.000000 1.500000
v -1.500000 1.650000 -1.500000
vt -3.000000 0.000000
vt 0.000000 3.000000
vt -3.000000 3.000000
vt -0.000000 0.000000
vt 3.000000 0.550000
vt -0.000000 1.650000
vt 3.000000 -0.000000
vt 0.000000 1.650000
vt -0.000000 0.000000
vt 0.000000 3.000000
vt 0.000000 0.000000
vt 3.000000 0.000000
vt -3.000000 1.650000
vt -3.000000 0.000000
vt -3.000000 0.550000
vt -0.000000 -0.000000
vt -0.000000 1.650000
vt 2.121320 -1.123640
vt -2.121320 -1.123640
vt -0.000000 -3.513200
vt 3.000000 0.000000
vt 3.000000 1.650000
vt -3.000000 -0.000000
vn 0.0000 -1.0000 -0.0000
vn 1.0000 0.0000 0.0000
vn 0.0000 -0.0000 1.0000
vn 0.0000 1.0000 0.0000
vn -1.0000 0.0000 0.0000
vn 0.0000 0.0000 -1.0000
vn 0.3255 0.8877 -0.3255
usemtl Grass.114
s 1
f 1/1/1 2/2/1 3/3/1
f 1/4/2 4/5/2 5/6/2
f 1/7/3 6/8/3 7/9/3
f 8/10/4 6/11/4 5/12/4
f 7/9/5 8/13/5 2/14/5
f 4/15/6 2/16/6 8/17/6
f 8/18/7 5/19/7 4/20/7
f 1/1/1 7/9/1 2/2/1
f 1/4/2 3/21/2 4/5/2
f 1/7/3 5/22/3 6/8/3
f 7/9/5 6/8/5 8/13/5
f 4/15/6 3/23/6 2/16/6
