# Blender v2.79 (sub 7) OBJ File: ''
# www.blender.org
mtllib roadTile_034.mtl
o Mesh1_Group1_Model.259
v 0.000000 0.600000 0.000000
v 0.000000 0.300000 0.000000
v 3.000000 0.300000 0.000000
v 3.000000 0.600000 0.000000
v 0.000000 0.600000 -3.000000
v 0.000000 0.300000 -3.000000
v 3.000000 0.300000 -3.000000
v 3.000000 0.600000 -3.000000
v 0.000000 0.000000 -3.000000
v 3.000000 0.000000 -3.000000
v 0.000000 0.000000 0.000000
v 3.000000 0.000000 0.000000
vt -0.000000 0.300000
vt 3.000000 0.600000
vt -0.000000 0.600000
vt -3.000000 0.300000
vt -3.000000 0.600000
vt 0.000000 0.300000
vt -3.000000 0.600000
vt -3.000000 0.300000
vt 0.000000 0.600000
vt 3.000000 0.300000
vt 3.000000 0.600000
vt 3.000000 -0.000000
vt 0.000000 3.000000
vt -0.000000 0.000000
vt 3.000000 0.300000
vt 0.000000 0.600000
vt 0.000000 0.300000
vt 3.000000 3.000000
vt -3.000000 -0.000000
vt -0.000000 -0.000000
vt -3.000000 -0.000000
vt -0.000000 0.000000
vt 3.000000 0.000000
vt 3.000000 0.000000
vt -3.000000 -0.000000
vt -0.000000 3.000000
vt -3.000000 3.000000
vt 0.000000 0.000000
vt -118.110001 -0.000000
vt -0.000000 118.110001
vt -118.110001 118.110001
vt -0.000000 0.000000
vn 0.0000 -0.0000 1.0000
vn -1.0000 0.0000 0.0000
vn 0.0000 0.0000 -1.0000
vn 1.0000 0.0000 0.0000
vn 0.0000 1.0000 0.0000
vn 0.0000 -1.0000 -0.0000
usemtl Asphalt.177
s 1
f 2/1/1 4/2/1 1/3/1
f 6/4/2 1/3/2 5/5/2
f 6/6/3 8/7/3 7/8/3
f 4/9/4 7/10/4 8/11/4
f 4/12/5 5/13/5 1/14/5
f 2/1/1 3/15/1 4/2/1
f 6/4/2 2/1/2 1/3/2
f 6/6/3 5/16/3 8/7/3
f 4/9/4 3/17/4 7/10/4
f 4/12/5 8/18/5 5/13/5
usemtl Stone.220
f 6/6/3 10/19/3 9/20/3
f 2/1/2 9/21/2 11/22/2
f 3/15/1 11/22/1 12/23/1
f 3/17/4 10/24/4 7/10/4
f 12/25/6 9/26/6 10/27/6
f 6/6/3 7/8/3 10/19/3
f 2/1/2 6/4/2 9/21/2
f 3/15/1 2/1/1 11/22/1
f 3/17/4 12/28/4 10/24/4
f 12/25/6 11/22/6 9/26/6
usemtl FrontColor.009
f 3/29/6 6/30/6 7/31/6
f 3/29/6 2/32/6 6/30/6
