# Blender v2.79 (sub 7) OBJ File: ''
# www.blender.org
mtllib roadTile_179.mtl
o Mesh1_Group1_Model.253
v 1.500000 1.650000 1.125000
v -1.500000 1.650000 1.500000
v 1.500000 1.650000 1.500000
v 1.500000 0.000000 1.125000
v 1.500000 0.000000 1.500000
v 1.500000 0.000000 -1.125000
v -1.500000 0.000000 -1.125000
v -1.500000 1.650000 1.125000
v -1.500000 0.000000 1.500000
v 1.500000 1.650000 -1.125000
v 1.500000 0.000000 -1.500000
v 1.500000 1.650000 -1.500000
v -1.500000 1.650000 -1.125000
v -1.500000 1.650000 -1.500000
v -1.500000 0.000000 -1.500000
v -1.500000 0.000000 1.125000
v -1.500000 1.400000 0.750000
v -1.500000 1.400000 -0.750000
v -1.500000 1.730000 1.125000
v 1.500000 1.730000 1.125000
v 1.500000 1.730000 0.750000
v -1.500000 1.730000 0.750000
v 1.500000 0.300000 0.750000
v 1.500000 1.730000 -1.125000
v -1.500000 1.730000 -1.125000
v -1.500000 1.730000 -0.750000
v 1.500000 1.730000 -0.750000
v 1.500000 0.600000 -0.750000
v 1.500000 0.600000 0.750000
v 1.500000 0.300000 -0.750000
vt 3.000000 0.375000
vt 0.000000 0.000000
vt 3.000000 0.000000
vt 0.375000 0.000000
vt 0.000000 1.650000
vt 0.000000 0.000000
vt -3.000000 2.625000
vt -3.000000 0.375000
vt -0.000000 2.625000
vt -0.375000 1.650000
vt 0.000000 0.000000
vt 0.000000 1.650000
vt 2.625000 1.650000
vt 3.000000 0.000000
vt 3.000000 1.650000
vt 0.000000 2.625000
vt 3.000000 3.000000
vt 0.000000 3.000000
vt -2.625000 0.000000
vt -3.000000 1.650000
vt -3.000000 0.000000
vt -0.000000 0.000000
vt -3.000000 1.650000
vt -3.000000 0.000000
vt 3.000000 -0.000000
vt 0.000000 0.375000
vt 0.375000 1.650000
vt -3.000000 0.000000
vt -0.000000 0.375000
vt -0.000000 3.000000
vt -3.000000 3.000000
vt -0.375000 0.000000
vt 2.625000 0.000000
vt 3.000000 2.625000
vt -2.625000 1.650000
vt -0.000000 1.650000
vt 3.000000 1.650000
vt -0.750000 1.400000
vt -2.250000 1.400000
vt 0.000000 1.730000
vt 3.000000 1.650000
vt 3.000000 1.730000
vt 0.000000 0.375000
vt 3.000000 0.750000
vt 0.000000 0.750000
vt 0.750000 0.300000
vt -3.000000 1.730000
vt -0.000000 1.650000
vt -0.000000 1.730000
vt 3.000000 2.625000
vt 0.000000 2.250000
vt 3.000000 2.250000
vt 3.000000 1.730000
vt 0.000000 1.730000
vt 3.000000 0.600000
vt -3.000000 1.730000
vt -3.000000 0.600000
vt -0.000000 1.730000
vt -0.375000 1.730000
vt -0.750000 1.730000
vt -2.250000 1.730000
vt -2.625000 1.730000
vt 0.000000 1.650000
vt 3.000000 0.375000
vt 2.250000 0.600000
vt 2.625000 1.730000
vt 2.250000 1.730000
vt 2.250000 0.300000
vt 0.375000 1.730000
vt 0.750000 1.730000
vt 0.750000 0.600000
vt -3.000000 1.650000
vt 0.000000 2.625000
vt 0.750000 -2.595950
vt 2.250000 0.609809
vt 0.750000 0.609809
vt 2.250000 -2.595950
vn 0.0000 1.0000 0.0000
vn 1.0000 0.0000 0.0000
vn 0.0000 -1.0000 -0.0000
vn -1.0000 -0.0000 0.0000
vn 0.0000 0.0000 -1.0000
vn 0.0000 -0.0000 1.0000
vn 0.3525 0.9358 0.0000
usemtl Grass.107
s 1
f 1/1/1 2/2/1 3/3/1
f 4/4/2 3/5/2 5/6/2
f 6/7/3 4/8/3 7/9/3
f 8/10/4 9/11/4 2/12/4
f 10/13/2 11/14/2 12/15/2
f 13/16/1 12/17/1 14/18/1
f 7/19/4 14/20/4 15/21/4
f 15/22/5 12/23/5 11/24/5
f 5/25/6 2/12/6 9/11/6
f 1/1/1 8/26/1 2/2/1
f 4/4/2 1/27/2 3/5/2
f 5/28/3 9/11/3 16/29/3
f 7/9/3 15/30/3 11/31/3
f 5/28/3 16/29/3 4/8/3
f 16/29/3 7/9/3 4/8/3
f 11/31/3 6/7/3 7/9/3
f 8/10/4 16/32/4 9/11/4
f 10/13/2 6/33/2 11/14/2
f 13/16/1 10/34/1 12/17/1
f 7/19/4 13/35/4 14/20/4
f 15/22/5 14/36/5 12/23/5
f 5/25/6 3/37/6 2/12/6
usemtl Stone.216
f 16/32/4 17/38/4 18/39/4
f 19/40/6 1/41/6 20/42/6
f 19/43/1 21/44/1 22/45/1
f 4/4/2 6/33/2 23/46/2
f 24/47/5 13/48/5 25/49/5
f 24/50/1 26/51/1 27/52/1
f 27/53/6 26/54/6 28/55/6
f 21/56/5 29/57/5 22/58/5
f 13/35/4 7/19/4 18/39/4
f 7/19/4 16/32/4 18/39/4
f 8/10/4 19/59/4 22/60/4
f 26/61/4 25/62/4 13/35/4
f 18/39/4 26/61/4 13/35/4
f 16/32/4 8/10/4 17/38/4
f 8/10/4 22/60/4 17/38/4
f 19/40/6 8/63/6 1/41/6
f 19/43/1 20/64/1 21/44/1
f 6/33/2 10/13/2 28/65/2
f 10/13/2 24/66/2 27/67/2
f 6/33/2 28/65/2 30/68/2
f 27/67/2 28/65/2 10/13/2
f 20/69/2 1/27/2 21/70/2
f 1/27/2 4/4/2 29/71/2
f 29/71/2 4/4/2 23/46/2
f 29/71/2 21/70/2 1/27/2
f 6/33/2 30/68/2 23/46/2
f 24/47/5 10/72/5 13/48/5
f 24/50/1 25/73/1 26/51/1
usemtl Asphalt.175
f 29/74/7 26/75/7 22/76/7
f 23/46/2 28/65/2 29/71/2
f 26/61/4 17/38/4 22/60/4
f 29/74/7 28/77/7 26/75/7
f 23/46/2 30/68/2 28/65/2
f 26/61/4 18/39/4 17/38/4
