# Blender v2.79 (sub 7) OBJ File: ''
# www.blender.org
mtllib roadTile_243.mtl
o Mesh1_Group1_Model.210
v 3.000000 0.455000 -0.750000
v 3.000000 0.000000 -0.750000
v 3.000000 0.000000 -3.000000
v 3.000000 0.455000 -3.000000
v 0.750000 0.000000 -3.000000
v 0.750000 0.455000 -3.000000
v 0.769249 0.455000 -2.706320
v 0.826667 0.455000 -2.417660
v 0.921271 0.455000 -2.138960
v 1.051440 0.455000 -1.875000
v 1.214950 0.455000 -1.630290
v 1.409010 0.455000 -1.409010
v 1.630290 0.455000 -1.214950
v 1.875000 0.455000 -1.051440
v 2.138960 0.455000 -0.921271
v 2.417660 0.455000 -0.826667
v 2.706320 0.455000 -0.769249
v 3.000000 0.630000 -0.375000
v 3.000000 0.550000 -0.375000
v 3.000000 0.000000 -0.375000
v 3.000000 0.630000 -0.750000
v 2.657370 0.630000 -0.397457
v 2.657370 0.550000 -0.397457
v 0.750000 0.630000 -3.000000
v 0.375000 0.630000 -3.000000
v 0.397457 0.630000 -2.657370
v 0.464445 0.630000 -2.320600
v 0.574816 0.630000 -1.995460
v 0.726683 0.630000 -1.687500
v 0.917447 0.630000 -1.402000
v 1.143840 0.630000 -1.143840
v 1.402000 0.630000 -0.917447
v 1.687500 0.630000 -0.726683
v 1.995460 0.630000 -0.574816
v 2.320600 0.630000 -0.464445
v 2.706320 0.630000 -0.769249
v 2.417660 0.630000 -0.826667
v 2.138960 0.630000 -0.921271
v 1.875000 0.630000 -1.051440
v 1.630290 0.630000 -1.214950
v 1.409010 0.630000 -1.409010
v 1.214950 0.630000 -1.630290
v 1.051440 0.630000 -1.875000
v 0.921271 0.630000 -2.138960
v 0.826667 0.630000 -2.417660
v 0.769249 0.630000 -2.706320
v 0.375000 0.000000 -3.000000
v 0.375000 0.550000 -3.000000
v 2.320600 0.550000 -0.464445
v 1.995460 0.550000 -0.574816
v 1.687500 0.550000 -0.726683
v 1.402000 0.550000 -0.917447
v 1.143840 0.550000 -1.143840
v 0.917447 0.550000 -1.402000
v 0.726683 0.550000 -1.687500
v 0.574816 0.550000 -1.995460
v 0.464445 0.550000 -2.320600
v 0.397457 0.550000 -2.657370
v 3.000000 0.000000 0.000000
v 0.000000 0.000000 0.000000
v 0.000000 0.000000 -3.000000
v 3.000000 0.550000 0.000000
v 0.000000 0.550000 -3.000000
v 0.000000 0.550000 0.000000
vt 0.750000 0.000000
vt 3.000000 0.455000
vt 0.750000 0.455000
vt -3.000000 0.000000
vt -0.750000 0.455000
vt -3.000000 0.455000
vt 2.417660 0.826667
vt 2.706320 0.769249
vt 3.000000 3.000000
vt 3.000000 0.000000
vt -0.750000 0.000000
vt 3.000000 0.750000
vt 0.750000 3.000000
vt 0.769249 2.706320
vt 0.826667 2.417660
vt 0.921271 2.138960
vt 1.051440 1.875000
vt 1.214950 1.630290
vt 1.409010 1.409010
vt 1.630290 1.214950
vt 1.875000 1.051440
vt 2.138960 0.921271
vt 0.750000 0.630000
vt 0.375000 0.550000
vt 2.969050 0.630000
vt 2.625680 0.550000
vt 2.969050 0.550000
vt 1.687500 0.726683
vt 1.875000 1.051440
vt 1.630290 1.214950
vt -0.375000 0.550000
vt -0.750000 0.630000
vt 2.528770 0.630000
vt 2.185400 0.550000
vt 2.528770 0.550000
vt 2.048160 0.630000
vt 1.704790 0.550000
vt 2.048160 0.550000
vt 1.535440 0.630000
vt 1.192070 0.550000
vt 1.535440 0.550000
vt 0.999381 0.630000
vt 0.656015 0.550000
vt 0.999381 0.550000
vt 0.449165 0.630000
vt 0.105799 0.550000
vt 0.449165 0.550000
vt -0.105799 0.630000
vt -0.449165 0.550000
vt -0.105799 0.550000
vt -0.656015 0.630000
vt -0.999381 0.550000
vt -0.656015 0.550000
vt -1.192070 0.630000
vt -1.535440 0.550000
vt -1.192070 0.550000
vt -1.704790 0.630000
vt -2.048160 0.550000
vt -1.704790 0.550000
vt -2.185400 0.630000
vt -2.528770 0.550000
vt -2.185400 0.550000
vt -2.625680 0.630000
vt -2.969050 0.550000
vt -2.625680 0.550000
vt 2.944520 0.455000
vt 2.650210 0.630000
vt 2.650210 0.455000
vt 2.504240 0.455000
vt 2.209930 0.630000
vt 2.209930 0.455000
vt 2.023630 0.455000
vt 1.729310 0.630000
vt 1.729310 0.455000
vt 1.510910 0.455000
vt 1.216600 0.630000
vt 1.216600 0.455000
vt 0.974855 0.455000
vt 0.680541 0.630000
vt 0.680541 0.455000
vt 0.424639 0.455000
vt 0.130325 0.630000
vt 0.130325 0.455000
vt -0.130325 0.455000
vt -0.424639 0.630000
vt -0.424639 0.455000
vt -0.680541 0.455000
vt -0.974855 0.630000
vt -0.974855 0.455000
vt -1.216600 0.455000
vt -1.510910 0.630000
vt -1.510910 0.455000
vt -1.729310 0.455000
vt -2.023630 0.630000
vt -2.023630 0.455000
vt -2.209930 0.455000
vt -2.504240 0.630000
vt -2.504240 0.455000
vt -2.650210 0.455000
vt -2.944520 0.630000
vt -2.944520 0.455000
vt 0.375000 0.630000
vt 0.375000 0.000000
vt 2.625680 0.630000
vt 0.769249 2.706320
vt 0.750000 3.000000
vt 0.375000 3.000000
vt 0.397457 2.657370
vt 0.464445 2.320600
vt 0.826667 2.417660
vt 0.574816 1.995460
vt 0.921271 2.138960
vt 0.726683 1.687500
vt 1.051440 1.875000
vt 0.917447 1.402000
vt 1.143840 1.143840
vt 1.409010 1.409010
vt 1.214950 1.630290
vt 1.402000 0.917447
vt 1.995460 0.574816
vt 2.138960 0.921271
vt 2.320600 0.464445
vt 2.417660 0.826667
vt 2.657370 0.397457
vt 3.000000 0.375000
vt 2.706320 0.769249
vt 3.000000 0.750000
vt -0.375000 0.000000
vt -0.375000 0.630000
vt 2.185400 0.630000
vt 1.704790 0.630000
vt 1.192070 0.630000
vt 0.656015 0.630000
vt 0.105799 0.630000
vt -0.449165 0.630000
vt -0.999381 0.630000
vt -1.535440 0.630000
vt -2.048160 0.630000
vt -2.528770 0.630000
vt -2.969050 0.630000
vt 2.944520 0.630000
vt 2.504240 0.630000
vt 2.023630 0.630000
vt 1.510910 0.630000
vt 0.974855 0.630000
vt 0.424639 0.630000
vt -0.130325 0.630000
vt -0.680541 0.630000
vt -1.216600 0.630000
vt -1.729310 0.630000
vt -2.209930 0.630000
vt -2.650210 0.630000
vt -0.750000 3.000000
vt -3.000000 3.000000
vt -3.000000 0.750000
vt 0.000000 0.550000
vt 0.000000 0.000000
vt 1.143840 1.143840
vt 0.917447 1.402000
vt 0.000000 0.000000
vt 0.000000 -0.000000
vt 0.000000 0.550000
vt -0.000000 0.550000
vt -3.000000 0.000000
vt -0.000000 0.000000
vt 3.000000 0.550000
vt -3.000000 0.375000
vt -3.000000 -0.000000
vt -0.000000 3.000000
vt -0.375000 3.000000
vt 3.000000 0.000000
vt 2.320600 0.464445
vt 3.000000 0.375000
vt 2.657370 0.397457
vt 0.375000 3.000000
vt 0.000000 3.000000
vt 0.397457 2.657370
vt 0.464445 2.320600
vt 1.995460 0.574816
vt 0.574816 1.995460
vt 1.687500 0.726683
vt 1.402000 0.917447
vt 0.726683 1.687500
vt -3.000000 0.550000
vt 3.000000 0.000000
vn 1.0000 0.0000 0.0000
vn 0.0000 0.0000 -1.0000
vn -0.0000 1.0000 0.0000
vn -0.0654 0.0000 0.9979
vn -0.1305 0.0000 0.9914
vn -0.2588 0.0000 0.9659
vn -0.3827 0.0000 0.9239
vn -0.5000 0.0000 0.8660
vn -0.6088 0.0000 0.7934
vn -0.7071 0.0000 0.7071
vn -0.7934 0.0000 0.6088
vn -0.8660 0.0000 0.5000
vn -0.9239 0.0000 0.3827
vn -0.9659 0.0000 0.2588
vn -0.9914 0.0000 0.1305
vn -0.9979 0.0000 0.0654
vn 0.9979 0.0000 -0.0654
vn 0.9914 0.0000 -0.1305
vn 0.9659 0.0000 -0.2588
vn 0.9239 0.0000 -0.3827
vn 0.8660 0.0000 -0.5000
vn 0.7934 0.0000 -0.6088
vn 0.7071 0.0000 -0.7071
vn 0.6088 0.0000 -0.7934
vn 0.5000 0.0000 -0.8660
vn 0.3827 0.0000 -0.9239
vn 0.2588 0.0000 -0.9659
vn 0.1305 0.0000 -0.9914
vn 0.0654 0.0000 -0.9979
vn 0.0000 -1.0000 -0.0000
vn -1.0000 0.0000 0.0000
vn 0.0000 -0.0000 1.0000
usemtl Water.032
s 1
f 2/1/1 4/2/1 1/3/1
f 3/4/2 6/5/2 4/6/2
f 16/7/3 17/8/3 4/9/3
f 2/1/1 3/10/1 4/2/1
f 3/4/2 5/11/2 6/5/2
f 1/12/3 4/9/3 17/8/3
f 4/9/3 6/13/3 7/14/3
f 8/15/3 4/9/3 7/14/3
f 8/15/3 9/16/3 4/9/3
f 9/16/3 10/17/3 4/9/3
f 10/17/3 11/18/3 4/9/3
f 11/18/3 12/19/3 4/9/3
f 12/19/3 13/20/3 4/9/3
f 13/20/3 14/21/3 4/9/3
f 14/21/3 15/22/3 4/9/3
f 15/22/3 16/7/3 4/9/3
usemtl Stone.183
f 1/3/1 21/23/1 19/24/1
f 18/25/4 23/26/5 19/27/4
f 33/28/3 39/29/3 40/30/3
f 6/5/2 48/31/2 24/32/2
f 22/33/5 49/34/6 23/35/5
f 35/36/6 50/37/7 49/38/6
f 34/39/7 51/40/8 50/41/7
f 33/42/8 52/43/9 51/44/8
f 32/45/9 53/46/10 52/47/9
f 31/48/10 54/49/11 53/50/10
f 30/51/11 55/52/12 54/53/11
f 29/54/12 56/55/13 55/56/12
f 28/57/13 57/58/14 56/59/13
f 27/60/14 58/61/15 57/62/14
f 26/63/15 48/64/16 58/65/15
f 6/66/17 46/67/18 7/68/18
f 7/69/18 45/70/19 8/71/19
f 8/72/19 44/73/20 9/74/20
f 9/75/20 43/76/21 10/77/21
f 10/78/21 42/79/22 11/80/22
f 11/81/22 41/82/23 12/83/23
f 12/84/23 40/85/24 13/86/24
f 13/87/24 39/88/25 14/89/25
f 14/90/25 38/91/26 15/92/26
f 15/93/26 37/94/27 16/95/27
f 16/96/27 36/97/28 17/98/28
f 17/99/28 21/100/29 1/101/29
f 21/23/1 18/102/1 19/24/1
f 19/24/1 20/103/1 1/3/1
f 20/103/1 2/1/1 1/3/1
f 18/25/4 22/104/5 23/26/5
f 46/105/3 24/106/3 25/107/3
f 25/107/3 26/108/3 46/105/3
f 26/108/3 27/109/3 45/110/3
f 27/109/3 28/111/3 44/112/3
f 28/111/3 29/113/3 43/114/3
f 29/113/3 30/115/3 43/114/3
f 30/115/3 31/116/3 41/117/3
f 43/114/3 30/115/3 42/118/3
f 31/116/3 32/119/3 41/117/3
f 32/119/3 33/28/3 40/30/3
f 41/117/3 32/119/3 40/30/3
f 33/28/3 34/120/3 38/121/3
f 34/120/3 35/122/3 37/123/3
f 35/122/3 22/124/3 37/123/3
f 22/124/3 18/125/3 36/126/3
f 37/123/3 22/124/3 36/126/3
f 18/125/3 21/127/3 36/126/3
f 34/120/3 37/123/3 38/121/3
f 26/108/3 45/110/3 46/105/3
f 28/111/3 43/114/3 44/112/3
f 44/112/3 45/110/3 27/109/3
f 42/118/3 30/115/3 41/117/3
f 33/28/3 38/121/3 39/29/3
f 6/5/2 5/11/2 47/128/2
f 47/128/2 48/31/2 6/5/2
f 48/31/2 25/129/2 24/32/2
f 22/33/5 35/130/6 49/34/6
f 35/36/6 34/131/7 50/37/7
f 34/39/7 33/132/8 51/40/8
f 33/42/8 32/133/9 52/43/9
f 32/45/9 31/134/10 53/46/10
f 31/48/10 30/135/11 54/49/11
f 30/51/11 29/136/12 55/52/12
f 29/54/12 28/137/13 56/55/13
f 28/57/13 27/138/14 57/58/14
f 27/60/14 26/139/15 58/61/15
f 26/63/15 25/140/16 48/64/16
f 6/66/17 24/141/17 46/67/18
f 7/69/18 46/142/18 45/70/19
f 8/72/19 45/143/19 44/73/20
f 9/75/20 44/144/20 43/76/21
f 10/78/21 43/145/21 42/79/22
f 11/81/22 42/146/22 41/82/23
f 12/84/23 41/147/23 40/85/24
f 13/87/24 40/148/24 39/88/25
f 14/90/25 39/149/25 38/91/26
f 15/93/26 38/150/26 37/94/27
f 16/96/27 37/151/27 36/97/28
f 17/99/28 36/152/28 21/100/29
usemtl Grass.089
f 5/153/30 3/154/30 2/155/30
f 20/103/1 62/156/1 59/157/1
f 53/158/3 54/159/3 64/160/3
f 48/31/2 61/161/2 63/162/2
f 64/163/31 61/164/31 60/165/31
f 60/165/32 62/166/32 64/163/32
f 2/155/30 20/167/30 60/165/30
f 20/167/30 59/168/30 60/165/30
f 2/155/30 60/165/30 5/153/30
f 60/165/30 61/169/30 47/170/30
f 47/170/30 5/153/30 60/165/30
f 20/103/1 19/24/1 62/156/1
f 64/160/3 62/171/3 49/172/3
f 62/171/3 19/173/3 23/174/3
f 62/171/3 23/174/3 49/172/3
f 48/175/3 63/176/3 58/177/3
f 63/176/3 64/160/3 57/178/3
f 58/177/3 63/176/3 57/178/3
f 64/160/3 49/172/3 50/179/3
f 56/180/3 57/178/3 64/160/3
f 64/160/3 50/179/3 51/181/3
f 64/160/3 51/181/3 52/182/3
f 55/183/3 56/180/3 64/160/3
f 54/159/3 55/183/3 64/160/3
f 64/160/3 52/182/3 53/158/3
f 48/31/2 47/128/2 61/161/2
f 64/163/31 63/184/31 61/164/31
f 60/165/32 59/185/32 62/166/32
