# Blender v2.79 (sub 7) OBJ File: ''
# www.blender.org
mtllib roadTile_059.mtl
o Mesh1_Group1_Model.197
v 0.750000 0.600000 0.000000
v 0.750000 0.300000 0.000000
v 3.000000 0.300000 0.000000
v 3.000000 0.600000 0.000000
v 3.000000 0.600000 -3.000000
v 3.000000 0.300000 -3.000000
v 0.750000 0.300000 -3.000000
v 0.750000 0.600000 -3.000000
v 0.750000 0.630000 0.000000
v 0.000000 0.630000 0.000000
v 0.000000 0.000000 0.000000
v 3.000000 0.000000 0.000000
v 0.750000 0.630000 -3.000000
v 0.000000 0.630000 -3.000000
v 3.000000 0.000000 -3.000000
v 0.000000 0.000000 -3.000000
vt 0.750000 0.300000
vt 3.000000 0.600000
vt 0.750000 0.600000
vt -3.000000 0.300000
vt -0.750000 0.600000
vt -3.000000 0.600000
vt 0.000000 0.300000
vt 3.000000 0.600000
vt 0.000000 0.600000
vt 3.000000 3.000000
vt 0.750000 0.000000
vt 3.000000 0.000000
vt 3.000000 0.300000
vt -0.750000 0.300000
vt 3.000000 0.300000
vt 0.750000 3.000000
vt 0.000000 0.630000
vt -0.000000 0.000000
vt 0.000000 0.630000
vt 3.000000 0.600000
vt 3.000000 0.630000
vt 0.750000 0.000000
vt 0.000000 3.000000
vt 0.000000 0.000000
vt -3.000000 0.000000
vt 0.000000 0.000000
vt 0.000000 0.000000
vt 3.000000 0.000000
vt -3.000000 0.000000
vt -0.000000 3.000000
vt -3.000000 3.000000
vt -3.000000 0.630000
vt -3.000000 0.000000
vt 3.000000 0.000000
vt 0.750000 0.630000
vt 0.000000 0.600000
vt 0.750000 3.000000
vt -0.750000 0.630000
vt 0.000000 0.630000
vn 0.0000 -0.0000 1.0000
vn 0.0000 0.0000 -1.0000
vn 1.0000 0.0000 0.0000
vn 0.0000 1.0000 0.0000
vn 0.0000 -1.0000 -0.0000
vn -1.0000 0.0000 0.0000
usemtl Asphalt.141
s 1
f 2/1/1 4/2/1 1/3/1
f 6/4/2 8/5/2 5/6/2
f 3/7/3 5/8/3 4/9/3
f 5/10/4 1/11/4 4/12/4
f 2/1/1 3/13/1 4/2/1
f 6/4/2 7/14/2 8/5/2
f 3/7/3 6/15/3 5/8/3
f 5/10/4 8/16/4 1/11/4
usemtl Stone.170
f 2/1/1 10/17/1 11/18/1
f 9/19/3 8/20/3 13/21/3
f 9/22/4 14/23/4 10/24/4
f 7/14/2 15/25/2 16/26/2
f 6/15/3 12/27/3 15/28/3
f 12/29/5 16/30/5 15/31/5
f 11/18/6 14/32/6 16/33/6
f 12/34/1 3/13/1 2/1/1
f 1/3/1 9/35/1 10/17/1
f 11/18/1 12/34/1 2/1/1
f 2/1/1 1/3/1 10/17/1
f 9/19/3 1/36/3 8/20/3
f 9/22/4 13/37/4 14/23/4
f 13/38/2 8/5/2 14/39/2
f 8/5/2 7/14/2 14/39/2
f 14/39/2 7/14/2 16/26/2
f 7/14/2 6/4/2 15/25/2
f 6/15/3 3/7/3 12/27/3
f 12/29/5 11/18/5 16/30/5
f 11/18/6 10/17/6 14/32/6
