# Blender v2.79 (sub 7) OBJ File: ''
# www.blender.org
mtllib roadTile_040.mtl
o Mesh1_Group1_Model.056
v 0.000000 0.000000 0.000000
v 0.000000 0.550000 0.000000
v 0.000000 0.550000 -3.000000
v 0.000000 0.000000 -3.000000
v 3.000000 0.000000 0.000000
v 3.000000 0.550000 0.000000
v 3.000000 0.000000 -3.000000
v 3.000000 0.000000 -2.437500
v 3.000000 0.000000 -0.562500
v 3.000000 0.550000 -3.000000
v 3.000000 0.550000 -2.437500
v 0.562500 0.550000 -0.562500
v 0.562500 0.550000 -2.437500
v 3.000000 0.550000 -0.562500
v 0.562500 0.630000 -0.562500
v 0.562500 0.630000 -2.437500
v 3.000000 0.630000 -1.125000
v 1.125000 0.630000 -1.125000
v 1.125000 0.630000 -1.875000
v 3.000000 0.630000 -1.875000
v 3.000000 0.630000 -2.437500
v 3.000000 0.630000 -0.562500
v 3.000000 0.600000 -1.125000
v 1.125000 0.600000 -1.125000
v 1.125000 0.600000 -1.875000
v 3.000000 0.600000 -1.875000
v 3.000000 0.300000 -1.875000
v 3.000000 0.300000 -1.125000
vt -0.000000 0.550000
vt -3.000000 -0.000000
vt -0.000000 -0.000000
vt 3.000000 0.550000
vt -3.000000 0.562500
vt -3.000000 0.000000
vt -3.000000 0.000000
vt -0.000000 0.550000
vt -3.000000 0.550000
vt 2.437500 0.550000
vt 3.000000 0.000000
vt 3.000000 0.550000
vt 0.562500 2.437500
vt 0.000000 3.000000
vt 0.000000 0.000000
vt 0.562500 0.000000
vt 0.000000 0.550000
vt 0.000000 0.000000
vt -3.000000 0.550000
vt 3.000000 0.000000
vt -0.000000 3.000000
vt -3.000000 2.437500
vt -3.000000 3.000000
vt -0.000000 0.000000
vt 2.437500 0.000000
vt 3.000000 2.437500
vt 3.000000 3.000000
vt 3.000000 0.000000
vt 0.562500 0.562500
vt 3.000000 0.562500
vt 0.562500 0.550000
vt -2.437500 0.630000
vt -0.562500 0.550000
vt -0.562500 0.630000
vt 1.125000 1.875000
vt 0.562500 2.437500
vt 0.562500 0.562500
vt -1.125000 0.600000
vt -3.000000 0.630000
vt -3.000000 0.600000
vt 1.125000 0.630000
vt 3.000000 0.600000
vt 3.000000 0.630000
vt 1.125000 0.300000
vt -3.000000 0.630000
vt -0.562500 0.550000
vt -0.562500 0.630000
vt 0.562500 0.630000
vt 3.000000 0.550000
vt 3.000000 0.630000
vt -2.437500 0.550000
vt 3.000000 0.562500
vt 3.000000 1.125000
vt 1.125000 1.125000
vt 3.000000 1.875000
vt 3.000000 2.437500
vt -1.125000 0.630000
vt 1.125000 0.600000
vt 1.875000 0.300000
vt 2.437500 0.630000
vt 1.875000 0.600000
vt 1.875000 0.630000
vt 0.562500 0.630000
vt 1.125000 0.600000
vt 1.125000 0.630000
vt -3.000000 0.550000
vt 0.562500 0.550000
vt 1.125000 1.875000
vt 3.000000 1.125000
vt 3.000000 1.875000
vt 1.125000 1.125000
vt -73.818901 23.622000
vt -44.291302 24.803101
vt -73.818901 24.803101
vt -44.291302 23.622000
vn -1.0000 0.0000 0.0000
vn 0.0000 -0.0000 1.0000
vn 0.0000 -1.0000 -0.0000
vn 0.0000 0.0000 -1.0000
vn 1.0000 0.0000 0.0000
vn -0.0000 1.0000 0.0000
usemtl Grass.026
s 1
f 2/1/1 4/2/1 1/3/1
f 1/3/2 6/4/2 2/1/2
f 9/5/3 5/6/3 1/3/3
f 7/7/4 3/8/4 10/9/4
f 11/10/5 7/11/5 10/12/5
f 13/13/6 3/14/6 2/15/6
f 9/16/5 6/17/5 5/18/5
f 2/1/1 3/19/1 4/2/1
f 1/3/2 5/20/2 6/4/2
f 1/3/3 4/21/3 8/22/3
f 4/21/3 7/23/3 8/22/3
f 8/22/3 9/5/3 1/3/3
f 7/7/4 4/24/4 3/8/4
f 11/10/5 8/25/5 7/11/5
f 13/13/6 11/26/6 10/27/6
f 2/15/6 6/28/6 12/29/6
f 6/28/6 14/30/6 12/29/6
f 13/13/6 10/27/6 3/14/6
f 2/15/6 12/29/6 13/13/6
f 9/16/5 14/31/5 6/17/5
usemtl Stone.045
f 16/32/1 12/33/1 15/34/1
f 19/35/6 16/36/6 15/37/6
f 24/38/4 17/39/4 23/40/4
f 19/41/2 26/42/2 20/43/2
f 9/16/5 8/25/5 28/44/5
f 21/45/4 13/46/4 16/47/4
f 15/48/2 14/49/2 22/50/2
f 16/32/1 13/51/1 12/33/1
f 22/52/6 17/53/6 18/54/6
f 19/35/6 20/55/6 21/56/6
f 15/37/6 22/52/6 18/54/6
f 19/35/6 21/56/6 16/36/6
f 15/37/6 18/54/6 19/35/6
f 24/38/4 18/57/4 17/39/4
f 19/41/2 25/58/2 26/42/2
f 8/25/5 11/10/5 27/59/5
f 11/10/5 21/60/5 26/61/5
f 27/59/5 11/10/5 26/61/5
f 21/60/5 20/62/5 26/61/5
f 22/63/5 14/31/5 23/64/5
f 14/31/5 9/16/5 28/44/5
f 23/64/5 17/65/5 22/63/5
f 28/44/5 23/64/5 14/31/5
f 8/25/5 27/59/5 28/44/5
f 21/45/4 11/66/4 13/46/4
f 15/48/2 12/67/2 14/49/2
usemtl Asphalt.034
f 25/68/6 23/69/6 26/70/6
f 28/44/5 26/61/5 23/64/5
f 25/68/6 24/71/6 23/69/6
f 28/44/5 27/59/5 26/61/5
usemtl FrontColor.001
f 25/72/1 18/73/1 19/74/1
f 25/72/1 24/75/1 18/73/1
