# Blender v2.79 (sub 7) OBJ File: ''
# www.blender.org
mtllib roadTile_030.mtl
o Mesh1_Group1_Model.062
v 2.250000 0.600000 -2.250000
v 2.250000 0.600000 -3.000000
v 0.000000 0.600000 -3.000000
v 0.000000 0.600000 0.000000
v 2.250000 0.600000 0.000000
v 2.250000 0.600000 -0.750000
v 3.000000 0.600000 -0.750000
v 3.000000 0.600000 -2.250000
v 0.000000 0.300000 -3.000000
v 0.000000 0.300000 0.000000
v 2.250000 0.300000 -3.000000
v 2.250000 0.300000 0.000000
v 3.000000 0.300000 -0.750000
v 3.000000 0.300000 -2.250000
v 2.250000 0.630000 -2.250000
v 2.250000 0.630000 -3.000000
v 3.000000 0.630000 -2.250000
v 3.000000 0.630000 -0.375000
v 3.000000 0.550000 -0.375000
v 3.000000 0.000000 -0.375000
v 3.000000 0.000000 -2.625000
v 3.000000 0.550000 -2.625000
v 3.000000 0.630000 -2.625000
v 3.000000 0.630000 -0.750000
v 2.625000 0.630000 -0.375000
v 2.625000 0.550000 -0.375000
v 2.625000 0.630000 0.000000
v 2.250000 0.630000 -0.750000
v 2.250000 0.630000 0.000000
v 2.625000 0.550000 0.000000
v 0.000000 0.000000 0.000000
v 2.625000 0.000000 0.000000
v 2.625000 0.630000 -3.000000
v 2.625000 0.550000 -3.000000
v 2.625000 0.000000 -3.000000
v 0.000000 0.000000 -3.000000
v 2.625000 0.630000 -2.625000
v 2.625000 0.550000 -2.625000
v 3.000000 0.000000 -3.000000
v 3.000000 0.000000 0.000000
v 3.000000 0.550000 -3.000000
v 3.000000 0.550000 0.000000
vt 2.250000 2.250000
vt 0.000000 3.000000
vt 2.250000 0.750000
vt -3.000000 0.300000
vt 0.000000 0.600000
vt -3.000000 0.600000
vt -2.250000 0.300000
vt -0.000000 0.600000
vt -2.250000 0.600000
vt -0.000000 0.300000
vt 2.250000 0.600000
vt 0.750000 0.300000
vt 2.250000 0.600000
vt 0.750000 0.600000
vt 2.250000 3.000000
vt 0.000000 0.000000
vt 2.250000 0.000000
vt 3.000000 0.750000
vt 3.000000 2.250000
vt -0.000000 0.300000
vt 2.250000 0.300000
vt 2.250000 0.300000
vt -2.250000 0.600000
vt -3.000000 0.630000
vt -3.000000 0.600000
vt 3.000000 0.600000
vt 2.250000 0.630000
vt 2.250000 0.600000
vt 0.375000 0.000000
vt 2.625000 0.000000
vt 2.625000 0.630000
vt 3.000000 0.550000
vt 3.000000 0.630000
vt 2.625000 0.375000
vt 3.000000 0.750000
vt 2.250000 0.750000
vt 0.000000 0.630000
vt 0.375000 0.550000
vt 0.375000 0.630000
vt 2.625000 0.000000
vt 2.625000 0.550000
vt -2.625000 0.550000
vt -2.625000 0.000000
vt 2.625000 0.630000
vt 3.000000 0.550000
vt 3.000000 0.630000
vt 2.625000 2.625000
vt 2.250000 3.000000
vt 2.250000 2.250000
vt -3.000000 0.630000
vt -2.625000 0.550000
vt -2.625000 0.630000
vt -3.000000 0.000000
vt 0.000000 0.000000
vt 0.000000 0.600000
vt -0.750000 0.630000
vt -0.750000 0.600000
vt -2.250000 0.600000
vt -3.000000 0.630000
vt -3.000000 0.600000
vt -2.250000 0.630000
vt 3.000000 0.630000
vt 0.750000 0.630000
vt 0.375000 0.630000
vt 0.375000 0.550000
vt 2.625000 0.550000
vt 2.625000 0.630000
vt 2.250000 0.630000
vt 2.625000 0.550000
vt 2.250000 0.000000
vt 2.625000 0.000000
vt 3.000000 0.375000
vt 0.000000 0.550000
vt 2.625000 0.630000
vt 2.250000 0.630000
vt -2.250000 0.630000
vt -2.625000 0.630000
vt -0.000000 0.000000
vt 2.625000 0.550000
vt 3.000000 2.250000
vt 3.000000 2.625000
vt 2.625000 3.000000
vt -3.000000 0.550000
vt 0.000000 0.630000
vt -2.250000 0.630000
vt -2.625000 0.000000
vt -0.000000 3.000000
vt -3.000000 0.550000
vt -3.000000 0.000000
vt 2.625000 2.625000
vt 3.000000 3.000000
vt 2.625000 3.000000
vt 3.000000 0.000000
vt 3.000000 0.550000
vt 0.000000 0.550000
vt 0.000000 -0.000000
vt 2.625000 0.375000
vt 3.000000 0.000000
vt 3.000000 0.375000
vt 3.000000 0.000000
vt 3.000000 0.550000
vt -2.625000 3.000000
vt -3.000000 3.000000
vt -3.000000 2.625000
vt -3.000000 0.375000
vt -3.000000 0.000000
vt 3.000000 2.625000
vt 2.625000 0.000000
vn -0.0000 1.0000 0.0000
vn -1.0000 0.0000 0.0000
vn 0.0000 0.0000 -1.0000
vn 0.0000 -0.0000 1.0000
vn 1.0000 0.0000 0.0000
vn -0.0000 -1.0000 -0.0000
usemtl Asphalt.038
s 1
f 1/1/1 3/2/1 6/3/1
f 9/4/2 4/5/2 3/6/2
f 11/7/3 3/8/3 2/9/3
f 10/10/4 5/11/4 4/5/4
f 13/12/5 8/13/5 7/14/5
f 1/1/1 2/15/1 3/2/1
f 3/2/1 4/16/1 6/3/1
f 4/16/1 5/17/1 6/3/1
f 6/3/1 7/18/1 8/19/1
f 6/3/1 8/19/1 1/1/1
f 9/4/2 10/10/2 4/5/2
f 11/7/3 9/20/3 3/8/3
f 10/10/4 12/21/4 5/11/4
f 13/12/5 14/22/5 8/13/5
usemtl Stone.049
f 1/23/2 16/24/2 2/25/2
f 8/26/4 15/27/4 1/28/4
f 20/29/5 21/30/5 13/12/5
f 25/31/4 19/32/4 18/33/4
f 25/34/1 24/35/1 28/36/1
f 27/37/5 26/38/5 25/39/5
f 12/21/4 32/40/4 30/41/4
f 11/7/3 34/42/3 35/43/3
f 37/44/5 34/45/5 33/46/5
f 37/47/1 16/48/1 15/49/1
f 23/50/3 38/51/3 37/52/3
f 10/10/2 36/53/2 31/54/2
f 5/55/2 28/56/2 6/57/2
f 6/58/3 24/59/3 7/60/3
f 1/23/2 15/61/2 16/24/2
f 8/26/4 17/62/4 15/27/4
f 24/63/5 18/64/5 7/14/5
f 18/64/5 19/65/5 7/14/5
f 21/30/5 22/66/5 14/22/5
f 22/66/5 23/67/5 8/13/5
f 14/22/5 22/66/5 8/13/5
f 23/67/5 17/68/5 8/13/5
f 19/65/5 20/29/5 13/12/5
f 7/14/5 19/65/5 13/12/5
f 21/30/5 14/22/5 13/12/5
f 25/31/4 26/69/4 19/32/4
f 29/70/1 27/71/1 25/34/1
f 25/34/1 18/72/1 24/35/1
f 28/36/1 29/70/1 25/34/1
f 27/37/5 30/73/5 26/38/5
f 10/10/4 31/54/4 12/21/4
f 31/54/4 32/40/4 12/21/4
f 30/41/4 27/74/4 5/11/4
f 27/74/4 29/75/4 5/11/4
f 5/11/4 12/21/4 30/41/4
f 16/76/3 33/77/3 2/9/3
f 33/77/3 34/42/3 2/9/3
f 35/43/3 36/78/3 11/7/3
f 36/78/3 9/20/3 11/7/3
f 11/7/3 2/9/3 34/42/3
f 37/44/5 38/79/5 34/45/5
f 17/80/1 23/81/1 37/47/1
f 37/47/1 33/82/1 16/48/1
f 15/49/1 17/80/1 37/47/1
f 23/50/3 22/83/3 38/51/3
f 10/10/2 9/4/2 36/53/2
f 5/55/2 29/84/2 28/56/2
f 6/58/3 28/85/3 24/59/3
usemtl Grass.031
f 32/86/6 31/54/6 36/87/6
f 35/43/3 41/88/3 39/89/3
f 38/90/1 41/91/1 34/92/1
f 22/66/5 39/93/5 41/94/5
f 20/29/5 42/95/5 40/96/5
f 26/97/1 42/98/1 19/99/1
f 30/41/4 40/100/4 42/101/4
f 36/87/6 35/102/6 32/86/6
f 35/102/6 39/103/6 21/104/6
f 21/104/6 20/105/6 32/86/6
f 20/105/6 40/106/6 32/86/6
f 35/102/6 21/104/6 32/86/6
f 35/43/3 34/42/3 41/88/3
f 38/90/1 22/107/1 41/91/1
f 22/66/5 21/30/5 39/93/5
f 20/29/5 19/65/5 42/95/5
f 26/97/1 30/108/1 42/98/1
f 30/41/4 32/40/4 40/100/4
