# Blender v2.79 (sub 7) OBJ File: ''
# www.blender.org
mtllib roadTile_258.mtl
o Mesh1_Group1_Model.183
v -1.500000 0.000000 -1.500000
v 1.500000 0.000000 1.500000
v -1.500000 0.000000 1.500000
v -1.500000 0.300000 -0.750000
v -1.500000 1.650000 1.500000
v 1.500000 0.630000 0.750000
v -1.500000 1.650000 0.750000
v 1.500000 0.630000 1.500000
v 1.500000 0.300000 0.750000
v 1.500000 0.000000 -1.500000
v -1.500000 1.650000 -0.750000
v 1.500000 0.630000 -1.500000
v -1.500000 1.650000 -1.500000
v 1.500000 0.630000 -0.750000
v -1.500000 0.600000 -0.750000
v 1.500000 0.600000 -0.750000
v -1.500000 0.600000 0.750000
v 1.500000 0.600000 0.750000
v -1.500000 0.300000 0.750000
v 1.500000 0.300000 -0.750000
vt 0.000000 3.000000
vt -3.000000 0.000000
vt -0.000000 0.000000
vt -2.250000 0.300000
vt -3.000000 0.000000
vt 0.000000 0.531139
vt 0.750000 -2.637520
vt 0.750000 0.531139
vt 3.000000 0.630000
vt 3.000000 -0.000000
vt 0.750000 0.300000
vt 0.000000 -0.000000
vt 3.000000 -0.000000
vt 2.250000 0.531139
vt 3.000000 -2.637520
vt 3.000000 0.531139
vt 3.000000 0.630000
vt 0.000000 0.600000
vt 3.000000 0.600000
vt -0.000000 0.600000
vt -3.000000 0.630000
vt -3.000000 0.600000
vt -0.000000 -0.000000
vt -3.000000 0.630000
vt -3.000000 -0.000000
vt -3.000000 3.000000
vt -0.000000 1.650000
vt -0.750000 0.600000
vt -0.750000 1.650000
vt -0.750000 0.300000
vt -2.250000 1.650000
vt -3.000000 1.650000
vt -2.250000 0.600000
vt -0.000000 -2.637520
vt 3.000000 0.630000
vt 2.250000 0.300000
vt 2.250000 0.630000
vt 2.250000 0.600000
vt 0.750000 0.630000
vt -0.000000 0.630000
vt 0.750000 0.600000
vt 2.250000 -2.637520
vt 0.000000 1.650000
vt -0.000000 1.650000
vt -0.000000 1.650000
vt 3.000000 2.250000
vt 0.000000 0.750000
vt 3.000000 0.750000
vt 0.000000 2.250000
vn 0.0000 -1.0000 -0.0000
vn -1.0000 0.0000 0.0000
vn 0.3219 0.9468 0.0000
vn 0.0000 -0.0000 1.0000
vn 1.0000 0.0000 0.0000
vn 0.0000 0.0000 -1.0000
vn 0.0000 1.0000 0.0000
usemtl Stone.157
s 1
f 1/1/1 2/2/1 3/3/1
f 4/4/2 1/5/2 3/3/2
f 5/6/3 6/7/3 7/8/3
f 8/9/4 3/3/4 2/10/4
f 9/11/5 2/12/5 10/13/5
f 11/14/3 12/15/3 13/16/3
f 14/17/4 15/18/4 16/19/4
f 17/20/6 6/21/6 18/22/6
f 1/23/6 12/24/6 10/25/6
f 1/1/1 10/26/1 2/2/1
f 3/3/2 5/27/2 17/28/2
f 5/27/2 7/29/2 17/28/2
f 17/28/2 19/30/2 3/3/2
f 11/31/2 13/32/2 15/33/2
f 13/32/2 1/5/2 15/33/2
f 4/4/2 15/33/2 1/5/2
f 3/3/2 19/30/2 4/4/2
f 5/6/3 8/34/3 6/7/3
f 8/9/4 5/27/4 3/3/4
f 10/13/5 12/35/5 20/36/5
f 12/35/5 14/37/5 16/38/5
f 16/38/5 20/36/5 12/35/5
f 6/39/5 8/40/5 18/41/5
f 8/40/5 2/12/5 9/11/5
f 18/41/5 8/40/5 9/11/5
f 10/13/5 20/36/5 9/11/5
f 11/14/3 14/42/3 12/15/3
f 14/17/4 11/43/4 15/18/4
f 17/20/6 7/44/6 6/21/6
f 1/23/6 13/45/6 12/24/6
usemtl Asphalt.128
f 16/46/7 17/47/7 18/48/7
f 18/41/5 20/36/5 16/38/5
f 15/33/2 19/30/2 17/28/2
f 16/46/7 15/49/7 17/47/7
f 18/41/5 9/11/5 20/36/5
f 15/33/2 4/4/2 19/30/2
