# Blender v2.79 (sub 7) OBJ File: ''
# www.blender.org
mtllib roadTile_066.mtl
o Mesh1_Group1_Model.224
v -0.651261 0.630000 -0.750000
v -0.622222 0.600000 -0.970570
v -0.622222 0.630000 -0.970570
v -1.500000 0.630000 -0.750000
v -0.402930 0.600000 -1.500000
v -0.402930 0.630000 -1.500000
v -0.402930 0.630000 1.500000
v -0.622222 0.600000 0.970571
v -0.622222 0.630000 0.970571
v -1.500000 0.630000 1.500000
v -1.500000 0.315000 -0.750000
v -1.500000 0.000000 -1.500000
v -1.500000 0.000000 1.500000
v -0.651261 0.630000 0.750000
v -1.500000 0.600000 0.750000
v -1.500000 0.630000 0.750000
v -0.651261 0.600000 0.750000
v -0.651261 0.600000 -0.750000
v -0.402930 0.315000 -1.500000
v 1.339190 0.315000 -1.500000
v 1.500000 0.000000 -1.500000
v 1.339190 0.630000 -1.500000
v 1.051440 0.600000 -1.125000
v 1.051440 0.630000 -1.125000
v 0.826670 0.630000 0.582343
v 1.051440 0.630000 1.125000
v 1.500000 0.630000 1.500000
v -0.402930 0.315000 1.500000
v 1.500000 0.000000 1.500000
v 1.339190 0.600000 1.500000
v 1.339190 0.630000 1.500000
v 1.051440 0.600000 1.125000
v 0.750000 0.630000 0.000000
v 0.826670 0.600000 0.582343
v 0.826670 0.630000 -0.582340
v 0.750000 0.600000 0.000000
v 0.826670 0.600000 -0.582340
v 1.500000 0.630000 -1.500000
v -1.500000 0.630000 -1.500000
v -0.402930 0.600000 1.500000
v -1.500000 0.315000 0.750000
v -1.500000 0.600000 -0.750000
v 1.339190 0.600000 -1.500000
v 1.339190 0.315000 1.500000
vt 2.341530 0.630000
vt 2.564010 0.600000
vt 2.564010 0.630000
vt 0.000000 2.250000
vt 0.848739 2.250000
vt 0.877778 2.470570
vt 2.618420 0.630000
vt 3.191470 0.600000
vt 3.191470 0.630000
vt -0.419832 0.630000
vt 0.153217 0.600000
vt 0.153217 0.630000
vt 0.000000 0.000000
vt 1.097070 0.000000
vt 0.877778 0.529429
vt -2.250000 0.315000
vt -3.000000 0.000000
vt -0.000000 0.000000
vt -0.848739 0.630000
vt -0.000000 0.600000
vt -0.000000 0.630000
vt 0.410326 0.630000
vt 0.632801 0.600000
vt 0.632801 0.630000
vt 0.000000 0.630000
vt 0.848739 0.600000
vt 0.848739 0.630000
vt -1.097070 0.315000
vt -2.839190 0.315000
vt -3.000000 0.000000
vt -4.108450 0.630000
vt -3.635770 0.600000
vt -3.635770 0.630000
vt 2.326670 0.917657
vt 2.551440 0.375000
vt 3.000000 0.000000
vt 1.097070 0.315000
vt 3.000000 0.000000
vt 1.255710 0.630000
vt 1.728390 0.600000
vt 1.728390 0.630000
vt 0.042572 0.630000
vt 0.629940 0.600000
vt 0.629940 0.630000
vt -1.193480 0.630000
vt -0.606115 0.600000
vt -0.606115 0.630000
vt -2.368220 0.630000
vt -1.780850 0.600000
vt -1.780850 0.630000
vt -3.401580 0.630000
vt -2.814210 0.600000
vt -2.814210 0.630000
vt -3.000000 3.000000
vt -0.000000 3.000000
vt 0.000000 0.630000
vt 3.000000 0.000000
vt 3.000000 0.630000
vt 2.341530 0.600000
vt 1.097070 3.000000
vt 0.000000 3.000000
vt 2.618420 0.600000
vt -0.419832 0.600000
vt 0.848739 0.750000
vt 0.000000 0.750000
vt -0.000000 0.630000
vt -0.750000 0.315000
vt -0.750000 0.630000
vt -0.750000 0.600000
vt -2.250000 0.630000
vt -3.000000 0.630000
vt -2.250000 0.600000
vt -0.848739 0.600000
vt 0.410326 0.600000
vt 0.000000 0.600000
vt -0.000000 0.000000
vt -0.000000 0.630000
vt -1.097070 0.630000
vt -1.097070 0.600000
vt -2.839190 0.630000
vt -3.000000 0.630000
vt -2.839190 0.600000
vt -4.108450 0.600000
vt 2.839190 0.000000
vt 3.000000 3.000000
vt 2.250000 1.500000
vt 2.839190 3.000000
vt 2.551440 2.625000
vt 2.326670 2.082340
vt 3.000000 0.630000
vt 2.839190 0.315000
vt 2.839190 0.630000
vt 2.839190 0.600000
vt 1.097070 0.630000
vt 1.097070 0.600000
vt 1.255710 0.600000
vt 0.042572 0.600000
vt -1.193480 0.600000
vt -2.368220 0.600000
vt -3.401580 0.600000
vt -3.000000 0.000000
vt 0.000000 0.000000
vt 2.326670 2.082340
vt 2.551440 2.625000
vt 1.097070 3.000000
vt 0.848739 0.750000
vt 0.877778 0.529429
vt 2.326670 0.917657
vt 1.097070 0.000000
vt 2.839190 0.000000
vt 2.551440 0.375000
vt 0.000000 2.250000
vt 0.000000 0.750000
vt 2.250000 1.500000
vt 0.848739 2.250000
vt 0.877778 2.470570
vt 2.839190 3.000000
vn 0.9914 0.0000 0.1305
vn 0.9659 0.0000 0.2588
vn 0.0000 1.0000 -0.0000
vn 0.9239 0.0000 0.3827
vn 0.9239 0.0000 -0.3827
vn 0.9659 0.0000 -0.2588
vn -1.0000 0.0000 0.0000
vn 0.0000 0.0000 -1.0000
vn 0.9914 0.0000 -0.1305
vn 0.0000 0.0000 1.0000
vn -0.7934 0.0000 -0.6088
vn -0.8660 0.0000 -0.5000
vn -0.8660 0.0000 0.5000
vn -0.7934 0.0000 0.6088
vn -0.9659 0.0000 0.2588
vn -0.9659 0.0000 -0.2588
vn 0.0000 -1.0000 -0.0000
vn 1.0000 0.0000 0.0000
usemtl Stone.194
s 1
f 1/1/1 2/2/2 3/3/2
f 4/4/3 1/5/3 3/6/3
f 3/7/2 5/8/4 6/9/4
f 7/10/5 8/11/6 9/12/6
f 10/13/3 7/14/3 9/15/3
f 11/16/7 12/17/7 13/18/7
f 14/19/8 15/20/8 16/21/8
f 9/22/6 17/23/9 14/24/9
f 4/25/10 18/26/10 1/27/10
f 19/28/8 20/29/8 21/30/8
f 22/31/11 23/32/12 24/33/12
f 25/34/3 26/35/3 27/36/3
f 28/37/10 13/18/10 29/38/10
f 26/39/13 30/40/14 31/41/14
f 25/42/15 32/43/13 26/44/13
f 33/45/7 34/46/15 25/47/15
f 35/48/16 36/49/7 33/50/7
f 24/51/12 37/52/16 35/53/16
f 21/54/17 13/18/17 12/55/17
f 27/56/18 21/57/18 38/58/18
f 1/1/1 18/59/1 2/2/2
f 3/6/3 6/60/3 39/61/3
f 39/61/3 4/4/3 3/6/3
f 3/7/2 2/62/2 5/8/4
f 7/10/5 40/63/5 8/11/6
f 14/64/3 16/65/3 9/15/3
f 16/65/3 10/13/3 9/15/3
f 13/18/7 10/66/7 41/67/7
f 10/66/7 16/68/7 15/69/7
f 15/69/7 41/67/7 10/66/7
f 4/70/7 39/71/7 42/72/7
f 39/71/7 12/17/7 11/16/7
f 42/72/7 39/71/7 11/16/7
f 13/18/7 41/67/7 11/16/7
f 14/19/8 17/73/8 15/20/8
f 9/22/6 8/74/6 17/23/9
f 4/25/10 42/75/10 18/26/10
f 12/76/8 39/77/8 19/28/8
f 39/77/8 6/78/8 5/79/8
f 39/77/8 5/79/8 19/28/8
f 22/80/8 38/81/8 43/82/8
f 38/81/8 21/30/8 20/29/8
f 43/82/8 38/81/8 20/29/8
f 12/76/8 19/28/8 21/30/8
f 22/31/11 43/83/11 23/32/12
f 26/35/3 31/84/3 27/36/3
f 27/36/3 38/85/3 33/86/3
f 38/85/3 22/87/3 24/88/3
f 35/89/3 38/85/3 24/88/3
f 35/89/3 33/86/3 38/85/3
f 33/86/3 25/34/3 27/36/3
f 29/38/10 27/90/10 44/91/10
f 27/90/10 31/92/10 30/93/10
f 30/93/10 44/91/10 27/90/10
f 7/94/10 10/66/10 40/95/10
f 10/66/10 13/18/10 28/37/10
f 40/95/10 10/66/10 28/37/10
f 29/38/10 44/91/10 28/37/10
f 26/39/13 32/96/13 30/40/14
f 25/42/15 34/97/15 32/43/13
f 33/45/7 36/98/7 34/46/15
f 35/48/16 37/99/16 36/49/7
f 24/51/12 23/100/12 37/52/16
f 21/54/17 29/101/17 13/18/17
f 27/56/18 29/102/18 21/57/18
usemtl Asphalt.160
f 37/103/3 23/104/3 5/105/3
f 15/69/7 11/16/7 41/67/7
f 5/79/8 20/29/8 19/28/8
f 30/93/10 28/37/10 44/91/10
f 17/106/3 8/107/3 34/108/3
f 8/107/3 40/109/3 34/108/3
f 40/109/3 30/110/3 32/111/3
f 40/109/3 32/111/3 34/108/3
f 42/112/3 15/113/3 17/106/3
f 17/106/3 34/108/3 36/114/3
f 18/115/3 42/112/3 17/106/3
f 5/105/3 2/116/3 37/103/3
f 2/116/3 18/115/3 37/103/3
f 23/104/3 43/117/3 5/105/3
f 17/106/3 36/114/3 18/115/3
f 36/114/3 37/103/3 18/115/3
f 15/69/7 42/72/7 11/16/7
f 5/79/8 43/82/8 20/29/8
f 30/93/10 40/95/10 28/37/10
