# Blender v2.79 (sub 7) OBJ File: ''
# www.blender.org
mtllib roadTile_240.mtl
o Mesh1_Group1_Model.123
v 0.000000 1.150000 -2.250000
v 3.000000 0.600000 -2.250000
v 3.000000 0.630000 -2.250000
v 0.000000 1.180000 -2.250000
v 0.000000 1.180000 -3.000000
v 0.000000 0.550000 -3.000000
v 0.000000 0.550000 0.000000
v 0.000000 1.180000 0.000000
v 0.000000 1.180000 -0.750000
v 0.000000 1.150000 -0.750000
v 0.000000 0.850000 -0.750000
v 0.000000 0.850000 -2.250000
v 3.000000 0.000000 -3.000000
v 3.000000 0.630000 -3.000000
v 3.000000 0.000000 0.000000
v 3.000000 0.300000 -2.250000
v 3.000000 0.300000 -0.750000
v 3.000000 0.600000 -0.750000
v 3.000000 0.630000 -0.750000
v 3.000000 0.630000 0.000000
vt 0.000000 1.150000
vt 3.000000 0.630000
vt 0.000000 1.180000
vt -3.000000 0.550000
vt 0.000000 0.550000
vt -0.750000 0.850000
vt -0.000000 0.550000
vt -3.000000 0.630000
vt -3.000000 0.000000
vt -3.000000 0.099180
vt -0.000000 -2.950820
vt 0.000000 0.099180
vt 0.750000 0.300000
vt 0.000000 0.000000
vt 3.000000 0.000000
vt -0.000000 1.150000
vt -3.000000 0.630000
vt -3.000000 0.600000
vt 0.000000 0.212787
vt 0.750000 -2.837210
vt 0.750000 0.212787
vt 3.000000 0.630000
vt 0.000000 1.180000
vt 3.000000 -2.837210
vt 2.250000 0.212787
vt 2.250000 -2.837210
vt 3.000000 0.600000
vt -2.250000 1.180000
vt -3.000000 1.180000
vt -2.250000 1.150000
vt -2.250000 0.850000
vt -0.750000 1.180000
vt -0.750000 1.150000
vt -0.000000 1.180000
vt -3.000000 -2.950820
vt 3.000000 0.630000
vt 2.250000 0.630000
vt 2.250000 0.600000
vt 2.250000 0.300000
vt 0.750000 0.630000
vt 0.000000 0.630000
vt 0.750000 0.600000
vt -0.000000 1.180000
vt 0.000000 -2.837210
vt 3.000000 0.000000
vt 3.000000 0.212787
vt 2.250000 0.207377
vt 0.750000 -2.842620
vt 2.250000 -2.842620
vt 0.750000 0.207377
vn -0.0000 0.0000 1.0000
vn -1.0000 0.0000 0.0000
vn 0.0000 0.0000 -1.0000
vn -0.1803 -0.9836 -0.0000
vn 1.0000 0.0000 0.0000
vn 0.1803 0.9836 0.0000
usemtl Stone.102
s 1
f 1/1/1 3/2/1 4/3/1
f 6/4/2 7/5/2 11/6/2
f 6/7/3 14/8/3 13/9/3
f 6/10/4 15/11/4 7/12/4
f 17/13/5 15/14/5 13/15/5
f 10/16/3 19/17/3 18/18/3
f 8/19/6 19/20/6 9/21/6
f 7/5/1 20/22/1 8/23/1
f 14/24/6 4/25/6 3/26/6
f 1/1/1 2/27/1 3/2/1
f 4/28/2 5/29/2 1/30/2
f 5/29/2 6/4/2 12/31/2
f 1/30/2 5/29/2 12/31/2
f 7/5/2 8/23/2 11/6/2
f 8/23/2 9/32/2 10/33/2
f 10/33/2 11/6/2 8/23/2
f 11/6/2 12/31/2 6/4/2
f 6/7/3 5/34/3 14/8/3
f 6/10/4 13/35/4 15/11/4
f 14/36/5 3/37/5 2/38/5
f 14/36/5 2/38/5 16/39/5
f 19/40/5 20/41/5 18/42/5
f 20/41/5 15/14/5 17/13/5
f 18/42/5 20/41/5 17/13/5
f 13/15/5 14/36/5 16/39/5
f 13/15/5 16/39/5 17/13/5
f 10/16/3 9/43/3 19/17/3
f 8/19/6 20/44/6 19/20/6
f 7/5/1 15/45/1 20/22/1
f 14/24/6 5/46/6 4/25/6
usemtl Asphalt.079
f 1/47/6 18/48/6 2/49/6
f 12/31/2 10/33/2 1/30/2
f 18/42/5 16/39/5 2/38/5
f 1/47/6 10/50/6 18/48/6
f 12/31/2 11/6/2 10/33/2
f 18/42/5 17/13/5 16/39/5
