# Blender v2.79 (sub 7) OBJ File: ''
# www.blender.org
mtllib roadTile_258.mtl
o Mesh1_Group1_Model.183
v 0.000000 0.000000 0.000000
v 0.000000 0.000000 -3.000000
v 3.000000 0.000000 -3.000000
v 3.000000 0.000000 0.000000
v 0.000000 1.650000 0.000000
v 0.000000 1.650000 -0.750000
v 0.000000 0.600000 -0.750000
v 0.000000 0.300000 -0.750000
v 0.000000 0.300000 -2.250000
v 0.000000 0.600000 -2.250000
v 0.000000 1.650000 -2.250000
v 0.000000 1.650000 -3.000000
v 3.000000 0.630000 0.000000
v 3.000000 0.630000 -0.750000
v 3.000000 0.630000 -3.000000
v 3.000000 0.630000 -2.250000
v 3.000000 0.600000 -2.250000
v 3.000000 0.300000 -2.250000
v 3.000000 0.300000 -0.750000
v 3.000000 0.600000 -0.750000
vt 0.000000 3.000000
vt -3.000000 0.000000
vt -0.000000 0.000000
vt -2.250000 0.300000
vt -3.000000 0.000000
vt 0.000000 0.531139
vt 0.750000 -2.637520
vt 0.750000 0.531139
vt 3.000000 0.630000
vt 3.000000 -0.000000
vt 0.750000 0.300000
vt 0.000000 -0.000000
vt 3.000000 -0.000000
vt 2.250000 0.531139
vt 3.000000 -2.637520
vt 3.000000 0.531139
vt 3.000000 0.630000
vt 0.000000 0.600000
vt 3.000000 0.600000
vt -0.000000 0.600000
vt -3.000000 0.630000
vt -3.000000 0.600000
vt -0.000000 -0.000000
vt -3.000000 0.630000
vt -3.000000 -0.000000
vt -3.000000 3.000000
vt -0.000000 1.650000
vt -0.750000 0.600000
vt -0.750000 1.650000
vt -0.750000 0.300000
vt -2.250000 1.650000
vt -3.000000 1.650000
vt -2.250000 0.600000
vt -0.000000 -2.637520
vt 3.000000 0.630000
vt 2.250000 0.300000
vt 2.250000 0.630000
vt 2.250000 0.600000
vt 0.750000 0.630000
vt -0.000000 0.630000
vt 0.750000 0.600000
vt 2.250000 -2.637520
vt 0.000000 1.650000
vt -0.000000 1.650000
vt -0.000000 1.650000
vt 3.000000 2.250000
vt 0.000000 0.750000
vt 3.000000 0.750000
vt 0.000000 2.250000
vn 0.0000 -1.0000 -0.0000
vn -1.0000 0.0000 0.0000
vn 0.3219 0.9468 0.0000
vn 0.0000 -0.0000 1.0000
vn 1.0000 0.0000 0.0000
vn 0.0000 0.0000 -1.0000
vn 0.0000 1.0000 0.0000
usemtl Stone.157
s 1
f 2/1/1 4/2/1 1/3/1
f 9/4/2 2/5/2 1/3/2
f 5/6/3 14/7/3 6/8/3
f 13/9/4 1/3/4 4/10/4
f 19/11/5 4/12/5 3/13/5
f 11/14/3 15/15/3 12/16/3
f 16/17/4 10/18/4 17/19/4
f 7/20/6 14/21/6 20/22/6
f 2/23/6 15/24/6 3/25/6
f 2/1/1 3/26/1 4/2/1
f 1/3/2 5/27/2 7/28/2
f 5/27/2 6/29/2 7/28/2
f 7/28/2 8/30/2 1/3/2
f 11/31/2 12/32/2 10/33/2
f 12/32/2 2/5/2 10/33/2
f 9/4/2 10/33/2 2/5/2
f 1/3/2 8/30/2 9/4/2
f 5/6/3 13/34/3 14/7/3
f 13/9/4 5/27/4 1/3/4
f 3/13/5 15/35/5 18/36/5
f 15/35/5 16/37/5 17/38/5
f 17/38/5 18/36/5 15/35/5
f 14/39/5 13/40/5 20/41/5
f 13/40/5 4/12/5 19/11/5
f 20/41/5 13/40/5 19/11/5
f 3/13/5 18/36/5 19/11/5
f 11/14/3 16/42/3 15/15/3
f 16/17/4 11/43/4 10/18/4
f 7/20/6 6/44/6 14/21/6
f 2/23/6 12/45/6 15/24/6
usemtl Asphalt.128
f 17/46/7 7/47/7 20/48/7
f 20/41/5 18/36/5 17/38/5
f 10/33/2 8/30/2 7/28/2
f 17/46/7 10/49/7 7/47/7
f 20/41/5 19/11/5 18/36/5
f 10/33/2 9/4/2 8/30/2
