# Blender v2.79 (sub 7) OBJ File: ''
# www.blender.org
mtllib roadTile_147.mtl
o Mesh1_Group1_Model.189
v 0.754448 0.000000 0.000000
v 0.754448 0.600000 0.000000
v 0.000000 0.600000 0.000000
v 0.000000 0.000000 0.000000
v 0.000000 0.600000 -0.754448
v 0.000000 0.000000 -0.754448
v 0.024925 0.600000 -0.717145
v 0.717145 0.600000 -0.024925
v 0.348350 0.600000 -0.348350
v 1.468970 0.630000 0.000000
v 0.754448 0.630000 0.000000
v 1.468970 0.000000 0.000000
v 1.468970 0.550000 0.000000
v 1.312500 0.630000 -0.077164
v 0.945430 0.630000 -0.322432
v 0.613515 0.630000 -0.613515
v 0.322432 0.630000 -0.945430
v 0.077164 0.630000 -1.312500
v 0.000000 0.630000 -1.468970
v 0.000000 0.630000 -0.754448
v 0.024925 0.630000 -0.717145
v 0.348350 0.630000 -0.348350
v 0.717145 0.630000 -0.024925
v 1.312500 0.550000 -0.077164
v 0.000000 0.550000 -1.468970
v 0.000000 0.000000 -1.468970
v 0.077164 0.550000 -1.312500
v 0.322432 0.550000 -0.945430
v 0.613515 0.550000 -0.613515
v 0.945430 0.550000 -0.322432
v 0.000000 0.550000 -3.000000
v 3.000000 0.550000 0.000000
v 3.000000 0.550000 -3.000000
v 0.000000 0.000000 -3.000000
v 3.000000 0.000000 -3.000000
v 3.000000 0.000000 0.000000
vt 0.754448 0.600000
vt 0.000000 0.000000
vt 0.754448 0.000000
vt 0.000000 0.600000
vt -0.754448 0.000000
vt 0.000000 0.000000
vt 0.717145 0.024925
vt 0.348350 0.348350
vt -0.754448 0.600000
vt 0.024925 0.717145
vt 0.000000 0.754448
vt 0.754448 0.000000
vt 1.468970 0.000000
vt 1.468970 0.550000
vt 0.613515 0.613515
vt 0.322432 0.945430
vt 0.024925 0.717145
vt -1.317480 0.630000
vt -1.143020 0.550000
vt -1.143020 0.630000
vt -1.468970 0.550000
vt 1.143020 0.630000
vt 1.317480 0.550000
vt 1.317480 0.630000
vt 0.606963 0.630000
vt 1.048430 0.550000
vt 1.048430 0.630000
vt 0.056746 0.630000
vt 0.498218 0.550000
vt 0.498218 0.630000
vt -0.498218 0.630000
vt -0.056746 0.550000
vt -0.056746 0.630000
vt -1.048430 0.630000
vt -0.606963 0.550000
vt -0.606963 0.630000
vt -0.627300 0.630000
vt -0.582436 0.600000
vt -0.582436 0.630000
vt -0.522744 0.630000
vt -0.032220 0.600000
vt -0.032220 0.630000
vt 0.032220 0.630000
vt 0.522744 0.600000
vt 0.522744 0.630000
vt 0.582436 0.630000
vt 0.627300 0.600000
vt 0.627300 0.630000
vt 1.468970 0.630000
vt 0.754448 0.630000
vt 0.717145 0.024925
vt 0.754448 -0.000000
vt 0.945430 0.322432
vt 1.468970 0.000000
vt 1.312500 0.077164
vt 0.348350 0.348350
vt 0.000000 1.468970
vt 0.000000 0.754448
vt 0.077164 1.312500
vt -1.317480 0.550000
vt -0.754448 0.630000
vt -1.468970 0.630000
vt -1.468970 0.000000
vt 1.143020 0.550000
vt 0.606963 0.550000
vt 0.056746 0.550000
vt -0.498218 0.550000
vt -1.048430 0.550000
vt -0.627300 0.600000
vt -0.522744 0.600000
vt 0.032220 0.600000
vt 0.582436 0.600000
vt 1.468970 0.000000
vt 3.000000 0.000000
vt 3.000000 3.000000
vt -3.000000 0.000000
vt -0.000000 1.468970
vt -3.000000 3.000000
vt -1.468970 0.000000
vt -0.000000 0.000000
vt -3.000000 0.550000
vt -3.000000 0.000000
vt -0.000000 0.550000
vt 3.000000 0.000000
vt 3.000000 0.550000
vt 3.000000 0.000000
vt 3.000000 0.550000
vt 0.000000 3.000000
vt 0.000000 1.468970
vt 0.077164 1.312500
vt 0.322432 0.945430
vt 0.613515 0.613515
vt 0.945430 0.322432
vt 1.312500 0.077164
vt -3.000000 0.550000
vt -0.754448 0.000000
vt -0.000000 0.754448
vt 0.000000 3.000000
vt -3.000000 0.000000
vt -0.000000 0.550000
vt -0.000000 0.000000
vn -0.0000 -0.0000 1.0000
vn -1.0000 0.0000 0.0000
vn 0.0000 1.0000 0.0000
vn 0.4423 -0.0000 -0.8969
vn 0.5000 -0.0000 -0.8660
vn 0.8660 0.0000 -0.5000
vn 0.8969 0.0000 -0.4423
vn 0.7934 0.0000 -0.6088
vn 0.7071 0.0000 -0.7071
vn 0.6088 0.0000 -0.7934
vn -0.8315 0.0000 0.5556
vn -0.7934 0.0000 0.6088
vn -0.7071 0.0000 0.7071
vn -0.6088 -0.0000 0.7934
vn -0.5556 0.0000 0.8315
vn -0.0000 -1.0000 -0.0000
vn 0.0000 0.0000 -1.0000
vn 1.0000 0.0000 0.0000
usemtl Asphalt.134
s 1
f 2/1/1 4/2/1 1/3/1
f 3/4/2 6/5/2 4/2/2
f 3/6/3 8/7/3 9/8/3
f 2/1/1 3/4/1 4/2/1
f 3/4/2 5/9/2 6/5/2
f 7/10/3 5/11/3 3/6/3
f 3/6/3 2/12/3 8/7/3
f 9/8/3 7/10/3 3/6/3
usemtl Stone.163
f 1/3/1 12/13/1 13/14/1
f 16/15/3 17/16/3 21/17/3
f 10/18/4 24/19/5 14/20/5
f 25/21/2 6/5/2 5/9/2
f 18/22/6 25/23/7 19/24/7
f 17/25/8 27/26/6 18/27/6
f 16/28/9 28/29/8 17/30/8
f 15/31/10 29/32/9 16/33/9
f 14/34/5 30/35/10 15/36/10
f 20/37/11 7/38/12 21/39/12
f 21/40/12 9/41/13 22/42/13
f 22/43/13 8/44/14 23/45/14
f 23/46/14 2/47/15 11/48/15
f 13/14/1 10/49/1 2/1/1
f 10/49/1 11/50/1 2/1/1
f 2/1/1 1/3/1 13/14/1
f 23/51/3 11/52/3 15/53/3
f 11/52/3 10/54/3 14/55/3
f 11/52/3 14/55/3 15/53/3
f 21/17/3 22/56/3 16/15/3
f 22/56/3 23/51/3 15/53/3
f 19/57/3 20/58/3 18/59/3
f 20/58/3 21/17/3 17/16/3
f 18/59/3 20/58/3 17/16/3
f 22/56/3 15/53/3 16/15/3
f 10/18/4 13/60/4 24/19/5
f 5/9/2 20/61/2 19/62/2
f 25/21/2 26/63/2 6/5/2
f 5/9/2 19/62/2 25/21/2
f 18/22/6 27/64/6 25/23/7
f 17/25/8 28/65/8 27/26/6
f 16/28/9 29/66/9 28/29/8
f 15/31/10 30/67/10 29/32/9
f 14/34/5 24/68/5 30/35/10
f 20/37/11 5/69/11 7/38/12
f 21/40/12 7/70/12 9/41/13
f 22/43/13 9/71/13 8/44/14
f 23/46/14 8/72/14 2/47/15
usemtl Grass.081
f 13/73/3 32/74/3 33/75/3
f 25/21/2 34/76/2 26/63/2
f 26/77/16 35/78/16 12/79/16
f 34/80/17 33/81/17 35/82/17
f 32/83/18 35/84/18 33/85/18
f 13/14/1 36/86/1 32/87/1
f 33/75/3 31/88/3 25/89/3
f 25/89/3 27/90/3 33/75/3
f 27/90/3 28/91/3 33/75/3
f 28/91/3 29/92/3 33/75/3
f 29/92/3 30/93/3 33/75/3
f 30/93/3 24/94/3 33/75/3
f 24/94/3 13/73/3 33/75/3
f 25/21/2 31/95/2 34/76/2
f 12/79/16 1/96/16 6/97/16
f 1/96/16 4/2/16 6/97/16
f 6/97/16 26/77/16 12/79/16
f 26/77/16 34/98/16 35/78/16
f 35/78/16 36/99/16 12/79/16
f 34/80/17 31/100/17 33/81/17
f 32/83/18 36/101/18 35/84/18
f 13/14/1 12/13/1 36/86/1
