# Blender v2.79 (sub 7) OBJ File: ''
# www.blender.org
mtllib roadTile_049.mtl
o Mesh1_Group1_Model.107
v -0.348350 0.630000 0.348350
v 0.247600 0.630000 1.125000
v 0.529600 0.630000 0.962185
v 0.402930 0.300000 1.500000
v -1.500000 0.000000 1.500000
v 0.752370 0.000000 1.500000
v -1.339190 0.630000 1.500000
v -1.409010 0.600000 1.409010
v -1.409010 0.630000 1.409010
v -1.500000 0.630000 1.500000
v -1.500000 0.630000 1.339191
v -1.500000 0.300000 -0.402930
v -1.500000 0.000000 -0.752370
v -1.500000 0.630000 -0.402930
v -1.125000 0.600000 -0.247600
v -1.125000 0.630000 -0.247600
v -0.348350 0.600000 0.348350
v 0.247600 0.600000 1.125000
v 0.402930 0.600000 1.500000
v 0.402930 0.630000 1.500000
v -0.962185 0.630000 -0.529600
v -1.500000 0.550000 -0.752370
v -1.500000 0.630000 -0.752370
v -0.118090 0.630000 0.118090
v -0.962185 0.550000 -0.529600
v -0.118090 0.550000 0.118090
v 0.752370 0.630000 1.500000
v 0.529600 0.550000 0.962185
v -1.500000 0.600000 1.339191
v 0.752370 0.550000 1.500000
v -1.339190 0.300000 1.500000
v -1.339190 0.600000 1.500000
v -1.500000 0.300000 1.339191
v -1.500000 0.600000 -0.402930
v 1.500000 0.550000 -1.500000
v -1.500000 0.550000 -1.500000
v -1.500000 0.000000 -1.500000
v 1.500000 0.000000 -1.500000
v 1.500000 0.000000 1.500000
v 1.500000 0.550000 1.500000
vt 1.151650 1.151650
vt 1.747600 0.375000
vt 2.029600 0.537815
vt 1.902930 0.300000
vt 0.000000 0.000000
vt 2.252370 0.000000
vt -0.097895 0.630000
vt 0.016796 0.600000
vt 0.016796 0.630000
vt 0.000000 -0.000000
vt 0.090990 0.090990
vt 0.000000 0.160809
vt -1.902930 0.300000
vt -2.252370 0.000000
vt -0.728218 0.630000
vt -0.322321 0.600000
vt -0.322321 0.630000
vt -0.766361 0.630000
vt 0.212585 0.600000
vt 0.212585 0.630000
vt -0.212585 0.630000
vt 0.766361 0.600000
vt 0.766361 0.630000
vt 0.322321 0.630000
vt 0.728218 0.600000
vt 0.728218 0.630000
vt 0.279818 0.630000
vt 0.861945 0.550000
vt 0.861945 0.630000
vt -0.255089 0.630000
vt 0.808864 0.550000
vt 0.808864 0.630000
vt -0.808864 0.630000
vt 0.255089 0.550000
vt 0.255089 0.630000
vt -0.861945 0.630000
vt -0.279818 0.550000
vt -0.279818 0.630000
vt -0.016796 0.630000
vt 0.097895 0.600000
vt 0.097895 0.630000
vt 1.902930 0.000000
vt 2.252370 0.000000
vt 1.381910 1.381910
vt 0.537815 2.029600
vt 0.000000 2.252370
vt 0.000000 1.902930
vt 0.375000 1.747600
vt 1.902930 0.630000
vt 1.902930 0.600000
vt 2.252370 0.630000
vt 2.252370 0.550000
vt 0.160810 0.300000
vt 0.160810 0.600000
vt 0.000000 0.630000
vt 0.160810 0.630000
vt -0.097895 0.600000
vt 0.160810 -0.000000
vt -0.160809 0.630000
vt -0.160809 0.600000
vt -0.160809 0.300000
vt -1.902930 0.600000
vt -2.252370 0.550000
vt -1.902930 0.630000
vt -2.252370 0.630000
vt -0.728218 0.600000
vt -0.766361 0.600000
vt -0.212585 0.600000
vt 0.322321 0.600000
vt 0.279818 0.550000
vt -0.255089 0.550000
vt -0.808864 0.550000
vt -0.861945 0.550000
vt -0.016796 0.600000
vt 1.151650 1.151650
vt 0.000000 0.160809
vt 0.090990 0.090990
vt 0.160810 0.000000
vt 1.902930 0.000000
vt 1.747600 0.375000
vt 0.375000 1.747600
vt 0.000000 1.902930
vt 1.381910 1.381910
vt 2.029600 0.537815
vt 3.000000 3.000000
vt -3.000000 0.550000
vt -0.000000 -0.000000
vt -3.000000 0.550000
vt -3.000000 -0.000000
vt -3.000000 3.000000
vt -3.000000 0.000000
vt -2.252370 0.000000
vt -0.000000 0.550000
vt 3.000000 0.000000
vt 3.000000 0.550000
vt 3.000000 0.000000
vt 3.000000 0.550000
vt -0.000000 3.000000
vt 0.537815 2.029600
vt 0.000000 2.252370
vt 2.252370 0.000000
vt 3.000000 0.000000
vt -3.000000 0.000000
vt -0.000000 0.550000
vt -0.000000 2.252370
vt -0.000000 3.000000
vt -0.000000 0.000000
vn 0.0000 1.0000 0.0000
vn -0.0000 0.0000 1.0000
vn 0.7933 0.0000 -0.6088
vn 0.7071 0.0000 -0.7071
vn -1.0000 0.0000 0.0000
vn -0.3827 0.0000 0.9239
vn -0.5000 0.0000 0.8660
vn -0.7071 0.0000 0.7071
vn -0.8660 0.0000 0.5000
vn -0.9239 0.0000 0.3827
vn 0.5000 0.0000 -0.8660
vn 0.3827 0.0000 -0.9239
vn 0.8660 0.0000 -0.5000
vn 0.9239 0.0000 -0.3827
vn 0.6088 0.0000 -0.7934
vn 0.0000 0.0000 -1.0000
vn -0.0000 -1.0000 -0.0000
vn 1.0000 0.0000 0.0000
usemtl Stone.086
s 1
f 1/1/1 2/2/1 3/3/1
f 4/4/2 5/5/2 6/6/2
f 7/7/3 8/8/4 9/9/4
f 10/10/1 9/11/1 11/12/1
f 12/13/5 13/14/5 5/5/5
f 14/15/6 15/16/7 16/17/7
f 16/18/7 17/19/8 1/20/8
f 1/21/8 18/22/9 2/23/9
f 2/24/9 19/25/10 20/26/10
f 21/27/11 22/28/12 23/29/12
f 24/30/4 25/31/11 21/32/11
f 3/33/13 26/34/4 24/35/4
f 27/36/14 28/37/13 3/38/13
f 9/39/4 29/40/15 11/41/15
f 2/2/1 20/42/1 3/3/1
f 20/42/1 27/43/1 3/3/1
f 3/3/1 24/44/1 1/1/1
f 24/44/1 21/45/1 1/1/1
f 21/45/1 23/46/1 14/47/1
f 1/1/1 21/45/1 16/48/1
f 14/47/1 16/48/1 21/45/1
f 20/49/2 19/50/2 27/51/2
f 19/50/2 4/4/2 30/52/2
f 27/51/2 19/50/2 30/52/2
f 31/53/2 32/54/2 10/55/2
f 32/54/2 7/56/2 10/55/2
f 31/53/2 10/55/2 5/5/2
f 6/6/2 30/52/2 4/4/2
f 4/4/2 31/53/2 5/5/2
f 7/7/3 32/57/3 8/8/4
f 10/10/1 7/58/1 9/11/1
f 11/59/5 29/60/5 10/55/5
f 29/60/5 33/61/5 10/55/5
f 12/13/5 34/62/5 22/63/5
f 34/62/5 14/64/5 23/65/5
f 34/62/5 23/65/5 22/63/5
f 5/5/5 10/55/5 33/61/5
f 5/5/5 33/61/5 12/13/5
f 12/13/5 22/63/5 13/14/5
f 14/15/6 34/66/6 15/16/7
f 16/18/7 15/67/7 17/19/8
f 1/21/8 17/68/8 18/22/9
f 2/24/9 18/69/9 19/25/10
f 21/27/11 25/70/11 22/28/12
f 24/30/4 26/71/4 25/31/11
f 3/33/13 28/72/13 26/34/4
f 27/36/14 30/73/14 28/37/13
f 9/39/4 8/74/4 29/40/15
usemtl Asphalt.068
f 31/53/2 19/50/2 32/54/2
f 17/75/1 29/76/1 8/77/1
f 29/60/5 12/13/5 33/61/5
f 31/53/2 4/4/2 19/50/2
f 8/77/1 32/78/1 17/75/1
f 32/78/1 19/79/1 18/80/1
f 18/80/1 17/75/1 32/78/1
f 17/75/1 15/81/1 29/76/1
f 15/81/1 34/82/1 29/76/1
f 29/60/5 34/62/5 12/13/5
usemtl Grass.050
f 26/83/1 28/84/1 35/85/1
f 36/86/5 13/14/5 22/63/5
f 37/87/16 35/88/16 38/89/16
f 38/90/17 39/91/17 6/92/17
f 40/93/18 38/94/18 35/95/18
f 30/52/2 39/96/2 40/97/2
f 35/85/1 36/98/1 25/99/1
f 36/98/1 22/100/1 25/99/1
f 30/101/1 40/102/1 28/84/1
f 40/102/1 35/85/1 28/84/1
f 35/85/1 25/99/1 26/83/1
f 36/86/5 37/103/5 13/14/5
f 37/87/16 36/104/16 35/88/16
f 5/5/17 13/105/17 6/92/17
f 13/105/17 37/106/17 38/90/17
f 6/92/17 13/105/17 38/90/17
f 40/93/18 39/107/18 38/94/18
f 30/52/2 6/6/2 39/96/2
