# Blender v2.79 (sub 7) OBJ File: ''
# www.blender.org
mtllib roadTile_289.mtl
o Mesh1_Group1_Model.045
v 0.000000 1.700000 -0.750000
v 0.000000 1.700000 -2.250000
v 0.000000 1.400000 -2.250000
v 0.000000 1.400000 -0.750000
v 3.000000 0.600000 -2.250000
v 3.000000 0.600000 -0.750000
v 3.000000 0.300000 -0.750000
v 3.000000 0.300000 -2.250000
v 3.000000 0.630000 -2.250000
v 0.000000 1.730000 -2.250000
v 3.000000 0.630000 -0.750000
v 3.000000 0.630000 0.000000
v 3.000000 0.000000 0.000000
v 3.000000 0.000000 -3.000000
v 3.000000 0.630000 -3.000000
v 0.000000 1.730000 -0.750000
v 0.000000 1.730000 -3.000000
v 0.000000 0.000000 -3.000000
v 0.000000 0.000000 0.000000
v 0.000000 1.730000 0.000000
vt -2.250000 1.700000
vt -0.750000 1.400000
vt -0.750000 1.700000
vt 2.250000 0.585233
vt 0.750000 -2.610080
vt 2.250000 -2.610080
vt 0.750000 0.600000
vt 2.250000 0.300000
vt 2.250000 0.600000
vt -2.250000 1.400000
vt 0.750000 0.585233
vt 0.750000 0.300000
vt 0.000000 1.700000
vt 3.000000 0.630000
vt 0.000000 1.730000
vt 0.000000 0.000000
vt 3.000000 0.000000
vt -0.000000 1.700000
vt -3.000000 0.630000
vt -3.000000 0.600000
vt -3.000000 0.000000
vt 3.000000 -2.599750
vt 2.250000 0.595561
vt 2.250000 -2.599750
vt -3.000000 0.630000
vt -0.000000 0.000000
vt -0.000000 1.730000
vt -3.000000 3.000000
vt -0.000000 0.000000
vt -0.000000 3.000000
vt 3.000000 0.630000
vt 0.000000 1.730000
vt -0.000000 0.595561
vt 0.750000 -2.599750
vt 0.750000 0.595561
vt 3.000000 0.600000
vt 3.000000 0.630000
vt 2.250000 0.630000
vt 0.750000 0.630000
vt 0.000000 0.630000
vt -0.000000 1.730000
vt -0.750000 1.730000
vt -2.250000 1.730000
vt -3.000000 1.730000
vt 3.000000 0.595561
vt -3.000000 0.000000
vt -3.000000 0.000000
vt 3.000000 0.000000
vt -0.000000 -2.599750
vn -1.0000 0.0000 0.0000
vn 0.3443 0.9389 0.0000
vn 1.0000 0.0000 0.0000
vn 0.0000 0.0000 1.0000
vn 0.0000 0.0000 -1.0000
vn 0.0000 -1.0000 -0.0000
usemtl Asphalt.027
s 1
f 2/1/1 4/2/1 1/3/1
f 2/4/2 6/5/2 5/6/2
f 6/7/3 8/8/3 5/9/3
f 2/1/1 3/10/1 4/2/1
f 2/4/2 1/11/2 6/5/2
f 6/7/3 7/12/3 8/8/3
usemtl Stone.037
f 2/13/4 9/14/4 10/15/4
f 7/12/3 13/16/3 14/17/3
f 1/18/5 11/19/5 6/20/5
f 4/2/1 3/10/1 18/21/1
f 15/22/2 10/23/2 9/24/2
f 15/25/5 18/26/5 17/27/5
f 14/28/6 19/29/6 18/30/6
f 19/29/4 12/31/4 20/32/4
f 20/33/2 11/34/2 16/35/2
f 2/13/4 5/36/4 9/14/4
f 15/37/3 9/38/3 5/9/3
f 15/37/3 5/9/3 8/8/3
f 11/39/3 12/40/3 6/7/3
f 12/40/3 13/16/3 7/12/3
f 6/7/3 12/40/3 7/12/3
f 14/17/3 15/37/3 8/8/3
f 14/17/3 8/8/3 7/12/3
f 1/18/5 16/41/5 11/19/5
f 20/32/1 16/42/1 1/3/1
f 20/32/1 1/3/1 4/2/1
f 18/21/1 19/29/1 4/2/1
f 19/29/1 20/32/1 4/2/1
f 10/43/1 17/44/1 2/1/1
f 17/44/1 18/21/1 3/10/1
f 2/1/1 17/44/1 3/10/1
f 15/22/2 17/45/2 10/23/2
f 15/25/5 14/46/5 18/26/5
f 14/28/6 13/47/6 19/29/6
f 19/29/4 13/48/4 12/31/4
f 20/33/2 12/49/2 11/34/2
