# Blender v2.79 (sub 7) OBJ File: ''
# www.blender.org
mtllib roadTile_047.mtl
o Mesh1_Group1_Model.111
v 0.265165 1.730000 -2.734830
v 0.297508 1.730000 -2.771710
v 0.297508 1.650000 -2.771710
v 0.265165 1.650000 -2.734830
v 0.750000 1.730000 -3.000000
v 0.375000 1.730000 -3.000000
v 0.371792 1.730000 -2.951050
v 0.362222 1.730000 -2.902940
v 0.346455 1.730000 -2.856490
v 0.324760 1.730000 -2.812500
v 0.228286 1.730000 -2.702490
v 0.187500 1.730000 -2.675240
v 0.143506 1.730000 -2.653550
v 0.097057 1.730000 -2.637780
v 0.048947 1.730000 -2.628210
v 0.000000 1.730000 -2.625000
v 0.000000 1.730000 -2.250000
v 0.097895 1.730000 -2.256420
v 0.194114 1.730000 -2.275560
v 0.287013 1.730000 -2.307090
v 0.375000 1.730000 -2.350480
v 0.456571 1.730000 -2.404980
v 0.530330 1.730000 -2.469670
v 0.595015 1.730000 -2.543430
v 0.649519 1.730000 -2.625000
v 0.692910 1.730000 -2.712990
v 0.724444 1.730000 -2.805890
v 0.743584 1.730000 -2.902110
v 3.000000 0.000000 -3.000000
v 0.375000 0.000000 -3.000000
v 0.375000 1.650000 -3.000000
v 0.750000 0.600000 -3.000000
v 0.750000 0.300000 -3.000000
v 3.000000 0.300000 -3.000000
v 3.000000 0.000000 0.000000
v 3.000000 0.300000 0.000000
v 0.000000 0.300000 0.000000
v 0.000000 0.000000 0.000000
v 0.000000 1.650000 -2.625000
v 0.000000 0.000000 -2.625000
v 0.000000 0.300000 -2.250000
v 0.000000 0.600000 -2.250000
v 0.048947 1.650000 -2.628210
v 0.097057 1.650000 -2.637780
v 0.143506 1.650000 -2.653550
v 0.187500 1.650000 -2.675240
v 0.228286 1.650000 -2.702490
v 0.324760 1.650000 -2.812500
v 0.346455 1.650000 -2.856490
v 0.362222 1.650000 -2.902940
v 0.371792 1.650000 -2.951050
v 0.097895 0.600000 -2.256420
v 0.743584 0.600000 -2.902110
v 0.724444 0.600000 -2.805890
v 0.692910 0.600000 -2.712990
v 0.649519 0.600000 -2.625000
v 0.595015 0.600000 -2.543430
v 0.530330 0.600000 -2.469670
v 0.456571 0.600000 -2.404980
v 0.375000 0.600000 -2.350480
v 0.287013 0.600000 -2.307090
v 0.194114 0.600000 -2.275560
v 0.000000 0.000000 -3.000000
v 0.000000 1.650000 -3.000000
v 3.000000 0.600000 0.000000
v 3.000000 0.600000 -3.000000
v 0.000000 0.600000 0.000000
vt -2.280050 1.730000
vt -2.230990 1.650000
vt -2.230990 1.730000
vt 0.324760 2.812500
vt 0.297508 2.771710
vt 0.649519 2.625000
vt -0.375000 -0.000000
vt -0.375000 1.650000
vt -0.750000 0.600000
vt 3.000000 0.300000
vt 0.000000 0.000000
vt 3.000000 0.000000
vt 3.000000 0.300000
vt 0.000000 0.000000
vt 3.000000 0.000000
vt -2.625000 -0.000000
vt -2.250000 0.600000
vt -2.625000 1.650000
vt -0.220736 1.730000
vt -0.171683 1.650000
vt -0.171683 1.730000
vt -0.609797 1.730000
vt -0.560745 1.650000
vt -0.560745 1.730000
vt -0.988845 1.730000
vt -0.939792 1.650000
vt -0.939792 1.730000
vt -1.351390 1.730000
vt -1.302340 1.650000
vt -1.302340 1.730000
vt -1.691240 1.730000
vt -1.642180 1.650000
vt -1.642180 1.730000
vt -2.002560 1.730000
vt -1.953510 1.650000
vt -1.953510 1.730000
vt -2.518940 1.730000
vt -2.469880 1.650000
vt -2.469880 1.730000
vt -2.715140 1.730000
vt -2.666090 1.650000
vt -2.666090 1.730000
vt -2.865320 1.730000
vt -2.816260 1.650000
vt -2.816260 1.730000
vt -2.966880 1.730000
vt -2.917830 1.650000
vt -2.917830 1.730000
vt -3.018100 1.730000
vt -2.969050 1.650000
vt -2.969050 1.730000
vt 0.245262 0.600000
vt 0.147157 1.730000
vt 0.147157 0.600000
vt 3.042630 0.600000
vt 2.944520 1.730000
vt 2.944520 0.600000
vt 2.991410 0.600000
vt 2.893300 1.730000
vt 2.893300 0.600000
vt 2.889840 0.600000
vt 2.791740 1.730000
vt 2.791740 0.600000
vt 2.739670 0.600000
vt 2.641570 1.730000
vt 2.641570 0.600000
vt 2.543460 0.600000
vt 2.445360 1.730000
vt 2.445360 0.600000
vt 2.304570 0.600000
vt 2.206470 1.730000
vt 2.206470 0.600000
vt 2.027090 0.600000
vt 1.928990 1.730000
vt 1.928990 0.600000
vt 1.715760 0.600000
vt 1.617660 1.730000
vt 1.617660 0.600000
vt 1.375920 0.600000
vt 1.277810 1.730000
vt 1.277810 0.600000
vt 1.013370 0.600000
vt 0.915266 1.730000
vt 0.915266 0.600000
vt 0.634323 0.600000
vt 0.536219 1.730000
vt 0.536219 0.600000
vt -2.280050 1.650000
vt 0.743584 2.902110
vt 0.750000 3.000000
vt 0.375000 3.000000
vt 0.371792 2.951050
vt 0.692910 2.712990
vt 0.724444 2.805890
vt 0.362222 2.902940
vt 0.595015 2.543430
vt 0.265165 2.734830
vt 0.456571 2.404980
vt 0.530330 2.469670
vt 0.228286 2.702490
vt 0.187500 2.675240
vt 0.287013 2.307090
vt 0.375000 2.350480
vt 0.143506 2.653550
vt 0.097895 2.256420
vt 0.194114 2.275560
vt 0.097057 2.637780
vt 0.000000 2.625000
vt -0.000000 2.250000
vt 0.048947 2.628210
vt 0.346455 2.856490
vt -3.000000 0.300000
vt -3.000000 -0.000000
vt -0.750000 0.300000
vt -0.375000 1.730000
vt -0.750000 1.730000
vt 0.000000 0.300000
vt 0.000000 0.300000
vt -2.250000 1.730000
vt -2.625000 1.730000
vt -2.250000 0.300000
vt -0.220736 1.650000
vt -0.609797 1.650000
vt -0.988845 1.650000
vt -1.351390 1.650000
vt -1.691240 1.650000
vt -2.002560 1.650000
vt -2.518940 1.650000
vt -2.715140 1.650000
vt -2.865320 1.650000
vt -2.966880 1.650000
vt -3.018100 1.650000
vt 0.245262 1.730000
vt 3.042630 1.730000
vt 2.991410 1.730000
vt 2.889840 1.730000
vt 2.739670 1.730000
vt 2.543460 1.730000
vt 2.304570 1.730000
vt 2.027090 1.730000
vt 1.715760 1.730000
vt 1.375920 1.730000
vt 1.013370 1.730000
vt 0.634323 1.730000
vt -3.000000 0.000000
vt -0.000000 2.625000
vt -0.375000 3.000000
vt 0.362222 2.902940
vt 0.371792 2.951050
vt 0.000000 3.000000
vt -3.000000 1.650000
vt -3.000000 0.000000
vt 0.000000 -0.000000
vt 0.000000 1.650000
vt -3.000000 3.000000
vt -0.000000 3.000000
vt 0.375000 3.000000
vt 0.000000 2.625000
vt 0.048947 2.628210
vt 0.097057 2.637780
vt 0.143506 2.653550
vt 0.187500 2.675240
vt 0.228286 2.702490
vt 0.265165 2.734830
vt 0.297508 2.771710
vt 0.324760 2.812500
vt 0.346455 2.856490
vt 3.000000 0.600000
vt 0.000000 0.600000
vt 3.000000 0.600000
vt 0.000000 0.600000
vt 0.530330 2.469670
vt 0.456571 2.404980
vt 3.000000 0.000000
vt -3.000000 0.600000
vt 3.000000 3.000000
vt 0.595015 2.543430
vt 0.750000 3.000000
vt 0.743584 2.902110
vt 0.724444 2.805890
vt -0.000000 2.250000
vt 0.000000 -0.000000
vt 0.097895 2.256420
vt 0.194114 2.275560
vt 0.287013 2.307090
vt 0.692910 2.712990
vt 0.649519 2.625000
vt 0.375000 2.350480
vn -0.7934 0.0000 -0.6087
vn -0.7071 0.0000 -0.7071
vn 0.0000 1.0000 0.0000
vn -0.0000 0.0000 -1.0000
vn 0.0000 -0.0000 1.0000
vn 1.0000 0.0000 0.0000
vn -1.0000 0.0000 0.0000
vn -0.1306 0.0000 -0.9914
vn -0.0654 0.0000 -0.9979
vn -0.2588 0.0000 -0.9659
vn -0.1305 0.0000 -0.9914
vn -0.3827 0.0000 -0.9239
vn -0.4999 0.0000 -0.8661
vn -0.6087 0.0000 -0.7934
vn -0.8660 0.0000 -0.5000
vn -0.9239 0.0000 -0.3827
vn -0.9659 0.0000 -0.2588
vn -0.9914 0.0000 -0.1305
vn -0.9979 0.0000 -0.0654
vn 0.1305 0.0000 0.9914
vn 0.0654 0.0000 0.9979
vn 0.9979 0.0000 0.0654
vn 0.9914 0.0000 0.1305
vn 0.9659 0.0000 0.2588
vn 0.9239 0.0000 0.3827
vn 0.8660 0.0000 0.5000
vn 0.7934 0.0000 0.6088
vn 0.7071 0.0000 0.7071
vn 0.6088 0.0000 0.7934
vn 0.5000 0.0000 0.8660
vn 0.3827 0.0000 0.9239
vn 0.2588 0.0000 0.9659
vn -0.0000 -1.0000 -0.0000
usemtl Stone.090
s 1
f 2/1/1 4/2/2 1/3/2
f 10/4/3 2/5/3 25/6/3
f 30/7/4 31/8/4 32/9/4
f 36/10/5 38/11/5 35/12/5
f 34/13/6 35/14/6 29/15/6
f 40/16/7 42/17/7 39/18/7
f 15/19/8 39/20/9 16/21/9
f 14/22/10 43/23/11 15/24/8
f 13/25/12 44/26/10 14/27/10
f 12/28/13 45/29/12 13/30/12
f 11/31/14 46/32/13 12/33/13
f 1/34/2 47/35/14 11/36/14
f 10/37/15 3/38/1 2/39/1
f 9/40/16 48/41/15 10/42/15
f 8/43/17 49/44/16 9/45/16
f 7/46/18 50/47/17 8/48/17
f 6/49/19 51/50/18 7/51/18
f 52/52/20 17/53/21 42/54/21
f 32/55/22 28/56/23 53/57/23
f 53/58/23 27/59/24 54/60/24
f 54/61/24 26/62/25 55/63/25
f 55/64/25 25/65/26 56/66/26
f 56/67/26 24/68/27 57/69/27
f 57/70/27 23/71/28 58/72/28
f 58/73/28 22/74/29 59/75/29
f 59/76/29 21/77/30 60/78/30
f 60/79/30 20/80/31 61/81/31
f 61/82/31 19/83/32 62/84/32
f 62/85/32 18/86/20 52/87/20
f 2/1/1 3/88/1 4/2/2
f 28/89/3 5/90/3 6/91/3
f 28/89/3 6/91/3 7/92/3
f 26/93/3 27/94/3 8/95/3
f 27/94/3 28/89/3 7/92/3
f 24/96/3 25/6/3 2/5/3
f 25/6/3 26/93/3 10/4/3
f 24/96/3 2/5/3 1/97/3
f 22/98/3 23/99/3 11/100/3
f 23/99/3 24/96/3 1/97/3
f 22/98/3 11/100/3 12/101/3
f 20/102/3 21/103/3 13/104/3
f 21/103/3 22/98/3 12/101/3
f 13/104/3 21/103/3 12/101/3
f 18/105/3 19/106/3 14/107/3
f 19/106/3 20/102/3 13/104/3
f 16/108/3 17/109/3 18/105/3
f 15/110/3 16/108/3 18/105/3
f 19/106/3 13/104/3 14/107/3
f 27/94/3 7/92/3 8/95/3
f 14/107/3 15/110/3 18/105/3
f 26/93/3 8/95/3 9/111/3
f 26/93/3 9/111/3 10/4/3
f 11/100/3 23/99/3 1/97/3
f 34/112/4 29/113/4 33/114/4
f 29/113/4 30/7/4 33/114/4
f 31/8/4 6/115/4 5/116/4
f 5/116/4 32/9/4 31/8/4
f 32/9/4 33/114/4 30/7/4
f 36/10/5 37/117/5 38/11/5
f 34/13/6 36/118/6 35/14/6
f 17/119/7 16/120/7 39/18/7
f 40/16/7 38/11/7 41/121/7
f 38/11/7 37/117/7 41/121/7
f 41/121/7 42/17/7 40/16/7
f 42/17/7 17/119/7 39/18/7
f 15/19/8 43/122/11 39/20/9
f 14/22/10 44/123/10 43/23/11
f 13/25/12 45/124/12 44/26/10
f 12/28/13 46/125/13 45/29/12
f 11/31/14 47/126/14 46/32/13
f 1/34/2 4/127/2 47/35/14
f 10/37/15 48/128/15 3/38/1
f 9/40/16 49/129/16 48/41/15
f 8/43/17 50/130/17 49/44/16
f 7/46/18 51/131/18 50/47/17
f 6/49/19 31/132/19 51/50/18
f 52/52/20 18/133/20 17/53/21
f 32/55/22 5/134/22 28/56/23
f 53/58/23 28/135/23 27/59/24
f 54/61/24 27/136/24 26/62/25
f 55/64/25 26/137/25 25/65/26
f 56/67/26 25/138/26 24/68/27
f 57/70/27 24/139/27 23/71/28
f 58/73/28 23/140/28 22/74/29
f 59/76/29 22/141/29 21/77/30
f 60/79/30 21/142/30 20/80/31
f 61/82/31 20/143/31 19/83/32
f 62/85/32 19/144/32 18/86/20
usemtl Grass.053
f 35/145/33 40/146/33 30/147/33
f 50/148/3 51/149/3 64/150/3
f 40/16/7 64/151/7 63/152/7
f 31/8/4 63/153/4 64/154/4
f 29/155/33 35/145/33 30/147/33
f 35/145/33 38/11/33 40/146/33
f 40/146/33 63/156/33 30/147/33
f 31/157/3 64/150/3 51/149/3
f 64/150/3 39/158/3 43/159/3
f 44/160/3 64/150/3 43/159/3
f 44/160/3 45/161/3 64/150/3
f 45/161/3 46/162/3 64/150/3
f 46/162/3 47/163/3 64/150/3
f 47/163/3 4/164/3 64/150/3
f 4/164/3 3/165/3 64/150/3
f 3/165/3 48/166/3 64/150/3
f 48/166/3 49/167/3 64/150/3
f 49/167/3 50/148/3 64/150/3
f 40/16/7 39/18/7 64/151/7
f 31/8/4 30/7/4 63/153/4
usemtl Asphalt.072
f 36/118/6 66/168/6 65/169/6
f 37/117/5 65/170/5 67/171/5
f 41/121/7 67/171/7 42/17/7
f 58/172/3 59/173/3 65/174/3
f 34/112/4 32/9/4 66/175/4
f 36/118/6 34/13/6 66/168/6
f 37/117/5 36/10/5 65/170/5
f 41/121/7 37/117/7 67/171/7
f 65/174/3 66/176/3 57/177/3
f 66/176/3 32/178/3 53/179/3
f 66/176/3 53/179/3 54/180/3
f 42/181/3 67/182/3 52/183/3
f 67/182/3 65/174/3 59/173/3
f 52/183/3 67/182/3 62/184/3
f 62/184/3 67/182/3 61/185/3
f 66/176/3 54/180/3 55/186/3
f 66/176/3 55/186/3 56/187/3
f 61/185/3 67/182/3 60/188/3
f 60/188/3 67/182/3 59/173/3
f 66/176/3 56/187/3 57/177/3
f 65/174/3 57/177/3 58/172/3
f 34/112/4 33/114/4 32/9/4
