# Blender v2.79 (sub 7) OBJ File: ''
# www.blender.org
mtllib roadTile_063.mtl
o Mesh1_Group1_Model.092
v 1.500000 0.000000 -1.500000
v -1.500000 0.630000 -1.500000
v 1.500000 0.630000 -1.500000
v 1.500000 0.300000 0.750000
v 1.500000 0.000000 1.500000
v 1.125000 0.600000 -0.750000
v 1.500000 0.630000 -0.750000
v 1.125000 0.630000 -0.750000
v 0.750000 0.630000 -1.312500
v -1.500000 0.000000 -1.500000
v -1.500000 0.000000 1.500000
v -1.500000 0.300000 -0.750000
v 1.500000 0.630000 1.500000
v -1.500000 0.630000 1.500000
v 1.500000 0.630000 0.750000
v -1.500000 0.630000 0.750000
v -1.500000 0.600000 0.750000
v 1.500000 0.600000 0.750000
v -1.125000 0.600000 -0.750000
v -1.500000 0.630000 -0.750000
v -1.500000 0.600000 -0.750000
v -1.125000 0.630000 -0.750000
v -0.750000 0.600000 -1.312500
v -0.750000 0.630000 -1.312500
v 0.750000 0.600000 -1.312500
v 1.500000 0.600000 -0.750000
v 1.500000 0.300000 -0.750000
v -1.500000 0.300000 0.750000
vt -3.000000 0.000000
vt -0.000000 0.630000
vt -3.000000 0.630000
vt 0.750000 0.300000
vt -0.000000 -0.000000
vt 3.000000 -0.000000
vt 2.625000 0.600000
vt 3.000000 0.630000
vt 2.625000 0.630000
vt -1.092070 0.630000
vt -0.416025 0.600000
vt -0.416025 0.630000
vt 2.250000 2.812500
vt 3.000000 3.000000
vt 0.000000 3.000000
vt -3.000000 -0.000000
vt 0.000000 -0.000000
vt -2.250000 0.300000
vt -3.000000 3.000000
vt -3.000000 0.000000
vt 3.000000 0.630000
vt 0.000000 0.630000
vt 0.000000 -0.000000
vt 3.000000 0.750000
vt 0.000000 0.750000
vt -0.000000 0.600000
vt -3.000000 0.630000
vt -3.000000 0.600000
vt 0.375000 0.600000
vt 0.000000 0.630000
vt 0.000000 0.600000
vt 2.080130 0.630000
vt 2.756170 0.600000
vt 2.756170 0.630000
vt 0.750000 0.630000
vt 2.250000 0.600000
vt 2.250000 0.630000
vt -0.000000 0.000000
vt 2.250000 0.630000
vt 2.250000 0.600000
vt 3.000000 0.630000
vt 2.250000 0.300000
vt 0.750000 0.600000
vt -0.000000 0.630000
vt 0.750000 0.630000
vt 3.000000 0.600000
vt -1.092070 0.600000
vt 2.625000 2.250000
vt 3.000000 2.250000
vt 0.000000 2.250000
vt 0.375000 2.250000
vt 0.750000 2.812500
vt -0.750000 0.300000
vt -0.750000 0.630000
vt -0.750000 0.600000
vt -2.250000 0.630000
vt -3.000000 0.630000
vt -2.250000 0.600000
vt 0.000000 3.000000
vt 3.000000 0.000000
vt 3.000000 0.000000
vt -0.000000 0.630000
vt 0.375000 0.630000
vt 2.080130 0.600000
vt 0.750000 0.600000
vt 2.625000 2.250000
vt 0.375000 2.250000
vt 0.000000 0.750000
vt 3.000000 0.750000
vt 3.000000 2.250000
vt 2.250000 2.812500
vt 0.750000 2.812500
vt 0.000000 2.250000
vn 0.0000 0.0000 -1.0000
vn 1.0000 0.0000 0.0000
vn 0.0000 0.0000 1.0000
vn -0.8321 0.0000 0.5547
vn 0.0000 1.0000 0.0000
vn -1.0000 0.0000 0.0000
vn 0.0000 -1.0000 -0.0000
vn 0.8321 0.0000 0.5547
usemtl Stone.073
s 1
f 1/1/1 2/2/1 3/3/1
f 4/4/2 5/5/2 1/6/2
f 6/7/3 7/8/3 8/9/3
f 9/10/4 6/11/4 8/12/4
f 9/13/5 3/14/5 2/15/5
f 10/16/6 11/17/6 12/18/6
f 11/17/7 1/19/7 5/20/7
f 11/17/3 13/21/3 14/22/3
f 14/23/5 15/24/5 16/25/5
f 17/26/1 15/27/1 18/28/1
f 19/29/3 20/30/3 21/31/3
f 22/32/8 23/33/8 24/34/8
f 24/35/3 25/36/3 9/37/3
f 1/1/1 10/38/1 2/2/1
f 7/39/2 26/40/2 3/41/2
f 26/40/2 27/42/2 3/41/2
f 4/4/2 18/43/2 13/44/2
f 18/43/2 15/45/2 13/44/2
f 1/6/2 3/41/2 27/42/2
f 4/4/2 13/44/2 5/5/2
f 1/6/2 27/42/2 4/4/2
f 6/7/3 26/46/3 7/8/3
f 9/10/4 25/47/4 6/11/4
f 9/13/5 8/48/5 3/14/5
f 8/48/5 7/49/5 3/14/5
f 2/15/5 20/50/5 22/51/5
f 2/15/5 22/51/5 24/52/5
f 2/15/5 24/52/5 9/13/5
f 11/17/6 14/22/6 28/53/6
f 14/22/6 16/54/6 17/55/6
f 17/55/6 28/53/6 14/22/6
f 20/56/6 2/57/6 21/58/6
f 2/57/6 10/16/6 12/18/6
f 21/58/6 2/57/6 12/18/6
f 11/17/6 28/53/6 12/18/6
f 11/17/7 10/59/7 1/19/7
f 11/17/3 5/60/3 13/21/3
f 14/23/5 13/61/5 15/24/5
f 17/26/1 16/62/1 15/27/1
f 19/29/3 22/63/3 20/30/3
f 22/32/8 19/64/8 23/33/8
f 24/35/3 23/65/3 25/36/3
usemtl Asphalt.058
f 4/4/2 26/40/2 18/43/2
f 6/66/5 19/67/5 17/68/5
f 12/18/6 17/55/6 21/58/6
f 4/4/2 27/42/2 26/40/2
f 18/69/5 26/70/5 6/66/5
f 6/66/5 25/71/5 23/72/5
f 19/67/5 21/73/5 17/68/5
f 6/66/5 23/72/5 19/67/5
f 17/68/5 18/69/5 6/66/5
f 12/18/6 28/53/6 17/55/6
