# Blender v2.79 (sub 7) OBJ File: ''
# www.blender.org
mtllib roadTile_208.mtl
o Mesh1_Group1_Model.167
v 1.500000 1.730000 -0.750000
v -1.500000 1.730000 -0.375000
v 1.500000 1.730000 -0.375000
v 1.500000 1.400000 1.125000
v 1.500000 0.000000 1.500000
v 1.500000 0.000000 -0.750000
v 0.439640 0.872689 1.500000
v 0.547820 0.777817 1.500000
v 1.500000 1.730000 1.500000
v -1.500000 1.100000 -0.750000
v -1.500000 1.100000 1.500000
v -1.500000 1.400000 1.125000
v 0.547820 0.777817 -0.750000
v 0.439640 0.872689 -0.750000
v 0.870000 0.000000 1.500000
v 0.870000 0.000000 -0.750000
v 0.860590 0.143579 1.500000
v 0.860590 0.143579 -0.750000
v 0.832520 0.284701 1.500000
v 0.832520 0.284701 -0.750000
v 0.786270 0.420952 1.500000
v 0.786270 0.420952 -0.750000
v 0.722630 0.550000 1.500000
v 0.722630 0.550000 -0.750000
v 0.642690 0.669638 1.500000
v 0.642690 0.669638 -0.750000
v 0.320000 0.952628 1.500000
v 0.320000 0.952628 -0.750000
v 0.190950 1.016270 1.500000
v 0.190950 1.016270 -0.750000
v 0.054700 1.062520 1.500000
v 0.054700 1.062520 -0.750000
v -0.086420 1.090590 1.500000
v -0.086420 1.090590 -0.750000
v -0.230000 1.100000 1.500000
v -0.230000 1.100000 -0.750000
v -1.500000 1.730000 1.500000
v 1.500000 1.730000 1.125000
v -1.500000 1.730000 1.125000
v -1.500000 1.700000 1.125000
v 1.500000 1.700000 1.125000
v 1.500000 1.700000 -0.375000
v -1.500000 1.700000 -0.375000
v -1.500000 1.730000 -0.750000
v 1.500000 1.400000 -0.375000
v -1.500000 1.400000 -0.375000
vt 3.000000 2.250000
vt 0.000000 1.875000
vt 3.000000 1.875000
vt 0.375000 1.400000
vt 0.000000 0.000000
vt 2.250000 0.000000
vt 1.939640 0.872689
vt 2.047820 0.777817
vt 3.000000 1.730000
vt -2.250000 1.100000
vt 0.000000 1.100000
vt -0.375000 1.400000
vt -3.000000 1.730000
vt -2.047820 0.777817
vt -1.939640 0.872689
vt -2.370000 0.000000
vt -3.000000 2.250000
vt -3.000000 0.000000
vt -2.250000 -0.155005
vt -0.000000 -0.011118
vt -2.250000 -0.011118
vt -2.250000 -0.319708
vt -0.000000 -0.175821
vt -2.250000 -0.175821
vt -2.250000 -0.480172
vt -0.000000 -0.336285
vt -2.250000 -0.336285
vt -2.250000 -0.633650
vt -0.000000 -0.489763
vt -2.250000 -0.489763
vt -2.250000 -0.777518
vt -0.000000 -0.633631
vt -2.250000 -0.633631
vt -2.250000 -0.909313
vt -0.000000 -0.765426
vt -2.250000 -0.765426
vt -2.250000 -1.026780
vt -0.000000 -0.882893
vt -2.250000 -0.882893
vt -2.250000 -1.127910
vt -0.000000 -0.984023
vt -2.250000 -0.984023
vt -2.250000 -1.210970
vt -0.000000 -1.067080
vt -2.250000 -1.067080
vt -2.250000 -1.274540
vt -0.000000 -1.130660
vt -2.250000 -1.130660
vt -2.250000 -1.317540
vt -0.000000 -1.173650
vt -2.250000 -1.173650
vt -2.250000 -1.339220
vt -0.000000 -1.195340
vt -2.250000 -1.195340
vt -1.270000 2.250000
vt 0.000000 0.000000
vt -0.000000 2.250000
vt 0.000000 0.000000
vt 3.000000 0.375000
vt 0.000000 0.375000
vt -0.000000 1.700000
vt -3.000000 1.730000
vt -3.000000 1.700000
vt 3.000000 1.700000
vt 0.000000 1.730000
vt 0.000000 1.700000
vt 0.000000 2.250000
vt 0.375000 1.730000
vt 0.000000 1.730000
vt 0.375000 1.700000
vt 2.250000 1.730000
vt 1.875000 1.400000
vt 1.875000 1.730000
vt 1.875000 1.700000
vt 0.000000 1.730000
vt 1.413580 1.090590
vt 1.270000 1.100000
vt 2.370000 -0.000000
vt 3.000000 0.000000
vt 2.360590 0.143579
vt 2.286270 0.420952
vt 2.332520 0.284701
vt 1.554700 1.062520
vt 1.690950 1.016270
vt 1.820000 0.952628
vt 2.222630 0.550000
vt 2.142690 0.669638
vt -1.875000 1.730000
vt -2.250000 1.730000
vt -1.875000 1.700000
vt -1.875000 1.400000
vt -0.375000 1.730000
vt -0.375000 1.700000
vt -0.000000 1.100000
vt -0.000000 1.730000
vt -1.270000 1.100000
vt -1.413580 1.090590
vt -3.000000 -0.000000
vt -2.286270 0.420952
vt -2.370000 -0.000000
vt -2.360590 0.143579
vt -2.332520 0.284701
vt -1.554700 1.062520
vt -1.690950 1.016270
vt -2.222630 0.550000
vt -2.142690 0.669638
vt -1.820000 0.952628
vt -2.370000 2.250000
vt -0.000000 -0.155005
vt -0.000000 -0.319708
vt -0.000000 -0.480172
vt -0.000000 -0.633650
vt -0.000000 -0.777518
vt -0.000000 -0.909313
vt -0.000000 -1.026780
vt -0.000000 -1.127910
vt -0.000000 -1.210970
vt -0.000000 -1.274540
vt -0.000000 -1.317540
vt -0.000000 -1.339220
vt -1.270000 0.000000
vt 3.000000 0.000000
vt -0.000000 1.730000
vt 3.000000 1.730000
vt 0.000000 1.875000
vt 3.000000 0.375000
vt 3.000000 1.875000
vt 0.000000 0.375000
vn 0.0000 1.0000 0.0000
vn 1.0000 0.0000 0.0000
vn 0.0000 -0.0000 1.0000
vn -1.0000 0.0000 0.0000
vn 0.0000 0.0000 -1.0000
vn 0.0000 -1.0000 -0.0000
vn -0.9979 -0.0654 -0.0000
vn -0.9914 -0.1305 -0.0000
vn -0.9659 -0.2588 -0.0000
vn -0.9239 -0.3827 -0.0000
vn -0.8660 -0.5000 -0.0000
vn -0.7934 -0.6088 -0.0000
vn -0.7071 -0.7071 -0.0000
vn -0.6088 -0.7934 -0.0000
vn -0.5000 -0.8660 -0.0000
vn -0.3827 -0.9239 -0.0000
vn -0.2588 -0.9659 0.0000
vn -0.1305 -0.9914 -0.0000
vn -0.0654 -0.9979 -0.0000
usemtl Stone.142
s 1
f 1/1/1 2/2/1 3/3/1
f 4/4/2 5/5/2 6/6/2
f 7/7/3 8/8/3 9/9/3
f 10/10/4 11/11/4 12/12/4
f 1/13/5 13/14/5 14/15/5
f 15/16/6 6/17/6 5/18/6
f 16/19/7 17/20/8 18/21/8
f 18/22/8 19/23/9 20/24/9
f 20/25/9 21/26/10 22/27/10
f 22/28/10 23/29/11 24/30/11
f 24/31/11 25/32/12 26/33/12
f 26/34/12 8/35/13 13/36/13
f 13/37/13 7/38/14 14/39/14
f 14/40/14 27/41/15 28/42/15
f 28/43/15 29/44/16 30/45/16
f 30/46/16 31/47/17 32/48/17
f 32/49/17 33/50/18 34/51/18
f 34/52/18 35/53/19 36/54/19
f 36/55/6 11/56/6 10/57/6
f 37/58/1 38/59/1 39/60/1
f 40/61/5 38/62/5 41/63/5
f 42/64/3 2/65/3 43/66/3
f 1/1/1 44/67/1 2/2/1
f 38/68/2 9/69/2 41/70/2
f 9/69/2 5/5/2 4/4/2
f 41/70/2 9/69/2 4/4/2
f 6/6/2 1/71/2 45/72/2
f 1/71/2 3/73/2 42/74/2
f 42/74/2 45/72/2 1/71/2
f 45/72/2 4/4/2 6/6/2
f 9/9/3 37/75/3 33/76/3
f 37/75/3 11/11/3 35/77/3
f 37/75/3 35/77/3 33/76/3
f 15/78/3 5/79/3 17/80/3
f 5/79/3 9/9/3 21/81/3
f 17/80/3 5/79/3 19/82/3
f 19/82/3 5/79/3 21/81/3
f 9/9/3 33/76/3 31/83/3
f 9/9/3 31/83/3 29/84/3
f 9/9/3 29/84/3 27/85/3
f 23/86/3 21/81/3 9/9/3
f 25/87/3 23/86/3 9/9/3
f 9/9/3 27/85/3 7/7/3
f 8/8/3 25/87/3 9/9/3
f 2/88/4 44/89/4 43/90/4
f 44/89/4 10/10/4 46/91/4
f 43/90/4 44/89/4 46/91/4
f 11/11/4 37/75/4 12/12/4
f 37/75/4 39/92/4 40/93/4
f 40/93/4 12/12/4 37/75/4
f 12/12/4 46/91/4 10/10/4
f 10/94/5 44/95/5 36/96/5
f 44/95/5 1/13/5 34/97/5
f 36/96/5 44/95/5 34/97/5
f 1/13/5 6/98/5 22/99/5
f 6/98/5 16/100/5 18/101/5
f 6/98/5 18/101/5 20/102/5
f 6/98/5 20/102/5 22/99/5
f 32/103/5 34/97/5 1/13/5
f 30/104/5 32/103/5 1/13/5
f 1/13/5 22/99/5 24/105/5
f 1/13/5 24/105/5 26/106/5
f 28/107/5 30/104/5 1/13/5
f 14/15/5 28/107/5 1/13/5
f 1/13/5 26/106/5 13/14/5
f 15/16/6 16/108/6 6/17/6
f 16/19/7 15/109/7 17/20/8
f 18/22/8 17/110/8 19/23/9
f 20/25/9 19/111/9 21/26/10
f 22/28/10 21/112/10 23/29/11
f 24/31/11 23/113/11 25/32/12
f 26/34/12 25/114/12 8/35/13
f 13/37/13 8/115/13 7/38/14
f 14/40/14 7/116/14 27/41/15
f 28/43/15 27/117/15 29/44/16
f 30/46/16 29/118/16 31/47/17
f 32/49/17 31/119/17 33/50/18
f 34/52/18 33/120/18 35/53/19
f 36/55/6 35/121/6 11/56/6
f 37/58/1 9/122/1 38/59/1
f 40/61/5 39/123/5 38/62/5
f 42/64/3 3/124/3 2/65/3
usemtl Asphalt.114
f 43/125/1 41/126/1 42/127/1
f 46/91/4 40/93/4 43/90/4
f 4/4/2 42/74/2 41/70/2
f 43/125/1 40/128/1 41/126/1
f 46/91/4 12/12/4 40/93/4
f 4/4/2 45/72/2 42/74/2
