# Blender v2.79 (sub 7) OBJ File: ''
# www.blender.org
mtllib roadTile_084.mtl
o Mesh1_Group1_Model.128
v 3.000000 0.300000 0.000000
v 0.750000 0.300000 0.000000
v 0.750000 0.600000 0.000000
v 0.750000 1.730000 0.000000
v 0.000000 1.730000 0.000000
v 0.000000 0.000000 0.000000
v 3.000000 0.000000 0.000000
v 3.000000 0.000000 -3.000000
v 3.000000 0.300000 -3.000000
v 0.750000 0.600000 -3.000000
v 0.750000 0.300000 -3.000000
v 0.000000 0.000000 -3.000000
v 0.000000 1.730000 -3.000000
v 0.750000 1.730000 -3.000000
v 3.000000 0.600000 0.000000
v 3.000000 0.600000 -3.000000
vt 0.750000 0.600000
vt 0.000000 1.730000
vt -0.000000 0.000000
vt 3.000000 0.300000
vt 0.000000 0.000000
vt 3.000000 0.000000
vt -0.750000 0.300000
vt -3.000000 0.000000
vt 0.000000 0.000000
vt 0.000000 1.730000
vt 3.000000 0.600000
vt 3.000000 1.730000
vt 0.750000 0.000000
vt 0.000000 3.000000
vt 0.000000 0.000000
vt -3.000000 1.730000
vt -3.000000 0.000000
vt -3.000000 0.000000
vt -0.000000 3.000000
vt -3.000000 3.000000
vt 3.000000 0.000000
vt 3.000000 0.300000
vt 0.750000 0.300000
vt 0.750000 1.730000
vt 0.000000 0.300000
vt -0.750000 1.730000
vt -0.750000 0.600000
vt 0.000000 1.730000
vt -3.000000 0.300000
vt 0.000000 0.600000
vt 0.750000 3.000000
vt 3.000000 0.600000
vt 3.000000 0.600000
vt 0.000000 0.600000
vt -3.000000 0.600000
vt 3.000000 3.000000
vt 0.750000 0.000000
vt 3.000000 0.000000
vt 0.750000 3.000000
vn 0.0000 -0.0000 1.0000
vn 1.0000 0.0000 0.0000
vn 0.0000 0.0000 -1.0000
vn 0.0000 1.0000 0.0000
vn -1.0000 0.0000 0.0000
vn 0.0000 -1.0000 -0.0000
usemtl Stone.107
s 1
f 3/1/1 5/2/1 6/3/1
f 9/4/2 7/5/2 8/6/2
f 11/7/3 8/8/3 12/9/3
f 4/10/2 10/11/2 14/12/2
f 4/13/4 13/14/4 5/15/4
f 6/3/5 13/16/5 12/17/5
f 7/18/6 12/19/6 8/20/6
f 7/21/1 1/22/1 2/23/1
f 3/1/1 4/24/1 5/2/1
f 6/3/1 7/21/1 2/23/1
f 2/23/1 3/1/1 6/3/1
f 9/4/2 1/25/2 7/5/2
f 14/26/3 10/27/3 13/28/3
f 10/27/3 11/7/3 12/9/3
f 11/7/3 9/29/3 8/8/3
f 12/9/3 13/28/3 10/27/3
f 4/10/2 3/30/2 10/11/2
f 4/13/4 14/31/4 13/14/4
f 6/3/5 5/2/5 13/16/5
f 7/18/6 6/3/6 12/19/6
usemtl Asphalt.084
f 2/23/1 15/32/1 3/1/1
f 1/25/2 16/33/2 15/34/2
f 9/29/3 10/27/3 16/35/3
f 16/36/4 3/37/4 15/38/4
f 2/23/1 1/22/1 15/32/1
f 1/25/2 9/4/2 16/33/2
f 9/29/3 11/7/3 10/27/3
f 16/36/4 10/39/4 3/37/4
