# Blender v2.79 (sub 7) OBJ File: ''
# www.blender.org
mtllib roadTile_050.mtl
o Mesh1_Group1_Model.132
v -1.125000 0.000000 -1.500000
v -1.125000 1.650000 -1.500000
v -0.750000 0.600000 -1.500000
v 1.500000 0.300000 -1.500000
v 1.500000 0.000000 1.500000
v 1.500000 0.000000 -1.500000
v -1.125000 0.000000 1.500000
v -0.750000 0.600000 1.500000
v -1.125000 1.650000 1.500000
v -1.125000 1.730000 -1.500000
v -1.125000 1.730000 1.500000
v -0.750000 1.730000 1.500000
v -0.750000 1.730000 -1.500000
v -0.750000 0.300000 -1.500000
v 1.500000 0.300000 1.500000
v -0.750000 0.300000 1.500000
v -1.500000 0.000000 -1.500000
v -1.500000 1.650000 -1.500000
v -1.500000 1.650000 1.500000
v -1.500000 0.000000 1.500000
v 1.500000 0.600000 -1.500000
v 1.500000 0.600000 1.500000
vt -0.375000 0.000000
vt -0.375000 1.650000
vt -0.750000 0.600000
vt 3.000000 0.300000
vt 0.000000 0.000000
vt 3.000000 0.000000
vt 0.375000 0.000000
vt 0.750000 0.600000
vt 0.375000 1.650000
vt -3.000000 1.730000
vt -0.000000 1.650000
vt -0.000000 1.730000
vt 0.375000 3.000000
vt 0.750000 0.000000
vt 0.750000 3.000000
vt 0.000000 1.730000
vt 3.000000 0.600000
vt 3.000000 1.730000
vt -3.000000 0.300000
vt -3.000000 0.000000
vt -0.750000 0.300000
vt -0.375000 1.730000
vt -0.750000 1.730000
vt 0.000000 0.300000
vt 0.750000 1.730000
vt 0.375000 1.730000
vt 3.000000 0.000000
vt 0.750000 0.300000
vt 3.000000 0.300000
vt -3.000000 1.650000
vt 0.375000 0.000000
vt 0.000000 0.600000
vt -0.375000 0.000000
vt -0.000000 3.000000
vt -0.375000 3.000000
vt 0.375000 0.000000
vt 0.000000 3.000000
vt 0.000000 0.000000
vt 0.000000 1.650000
vt -0.000000 0.000000
vt -3.000000 1.650000
vt -3.000000 0.000000
vt 0.000000 0.000000
vt -0.000000 1.650000
vt -3.000000 3.000000
vt -3.000000 0.000000
vt 0.375000 3.000000
vt 3.000000 0.600000
vt 0.000000 0.600000
vt 3.000000 0.600000
vt 3.000000 3.000000
vt 0.750000 0.000000
vt 3.000000 0.000000
vt -3.000000 0.600000
vt 0.750000 3.000000
vn -0.0000 0.0000 -1.0000
vn 1.0000 0.0000 0.0000
vn -0.0000 -0.0000 1.0000
vn -1.0000 0.0000 0.0000
vn 0.0000 1.0000 0.0000
vn 0.0000 -1.0000 -0.0000
usemtl Stone.111
s 1
f 1/1/1 2/2/1 3/3/1
f 4/4/2 5/5/2 6/6/2
f 7/7/3 8/8/3 9/9/3
f 10/10/4 9/11/4 11/12/4
f 10/13/5 12/14/5 13/15/5
f 12/16/2 3/17/2 13/18/2
f 4/19/1 6/20/1 14/21/1
f 6/20/1 1/1/1 14/21/1
f 2/2/1 10/22/1 13/23/1
f 13/23/1 3/3/1 2/2/1
f 3/3/1 14/21/1 1/1/1
f 4/4/2 15/24/2 5/5/2
f 12/25/3 11/26/3 9/9/3
f 7/7/3 5/27/3 16/28/3
f 5/27/3 15/29/3 16/28/3
f 16/28/3 8/8/3 7/7/3
f 8/8/3 12/25/3 9/9/3
f 10/10/4 2/30/4 9/11/4
f 10/13/5 11/31/5 12/14/5
f 12/16/2 8/32/2 3/17/2
usemtl Grass.058
f 7/33/6 17/34/6 1/35/6
f 9/36/5 18/37/5 19/38/5
f 7/7/3 19/39/3 20/40/3
f 20/40/4 18/41/4 17/42/4
f 2/2/1 17/43/1 18/44/1
f 1/35/6 6/45/6 5/46/6
f 7/33/6 20/40/6 17/34/6
f 1/35/6 5/46/6 7/33/6
f 9/36/5 2/47/5 18/37/5
f 7/7/3 9/9/3 19/39/3
f 20/40/4 19/39/4 18/41/4
f 2/2/1 1/1/1 17/43/1
usemtl Asphalt.088
f 15/24/2 21/48/2 22/49/2
f 16/28/3 22/50/3 8/8/3
f 21/51/5 8/52/5 22/53/5
f 4/19/1 3/3/1 21/54/1
f 15/24/2 4/4/2 21/48/2
f 16/28/3 15/29/3 22/50/3
f 21/51/5 3/55/5 8/52/5
f 4/19/1 14/21/1 3/3/1
