# Blender v2.79 (sub 7) OBJ File: ''
# www.blender.org
mtllib roadTile_171.mtl
o Mesh1_Group1_Model.166
v 0.000000 1.650000 0.000000
v 0.000000 1.100000 0.000000
v 1.500000 0.000000 0.000000
v 3.000000 0.000000 0.000000
v 3.000000 0.550000 0.000000
v 0.000000 1.650000 -0.375000
v 0.000000 1.100000 -0.375000
v 0.000000 1.650000 -3.000000
v 0.000000 1.100000 -3.000000
v 0.000000 1.100000 -2.625000
v 0.000000 1.650000 -2.625000
v 3.000000 0.000000 -3.000000
v 1.500000 0.000000 -3.000000
v 3.000000 0.550000 -3.000000
v 3.000000 0.000000 -2.625000
v 3.000000 0.000000 -0.375000
v 3.000000 0.550000 -2.625000
v 3.000000 0.550000 -0.375000
v 0.000000 1.730000 -0.375000
v 0.000000 1.730000 -0.750000
v 0.000000 1.700000 -0.750000
v 0.000000 1.400000 -0.750000
v 0.000000 1.400000 -2.250000
v 0.000000 1.700000 -2.250000
v 0.000000 1.730000 -2.250000
v 0.000000 1.730000 -2.625000
v 3.000000 0.630000 -2.625000
v 3.000000 0.630000 -2.250000
v 3.000000 0.600000 -2.250000
v 3.000000 0.300000 -2.250000
v 3.000000 0.300000 -0.750000
v 3.000000 0.600000 -0.750000
v 3.000000 0.630000 -0.750000
v 3.000000 0.630000 -0.375000
vt 1.500000 0.000000
vt 3.000000 -0.000000
vt 3.000000 0.550000
vt -0.375000 1.100000
vt 0.000000 1.650000
vt -0.375000 1.650000
vt -3.000000 1.100000
vt -2.625000 1.650000
vt -3.000000 1.650000
vt -1.500000 0.000000
vt -0.000000 1.650000
vt -3.000000 0.550000
vt -1.500000 3.000000
vt -3.000000 2.625000
vt -3.000000 0.375000
vt -2.625000 0.650500
vt -3.000000 0.650500
vt -3.000000 -1.209610
vt 2.625000 0.550000
vt 3.000000 0.000000
vt 3.000000 0.550000
vt 2.625000 -2.627290
vt 3.000000 0.568020
vt 2.625000 0.568020
vt 0.375000 0.568020
vt 0.000000 -2.627290
vt 0.375000 -2.627290
vt 0.375000 0.000000
vt 0.000000 0.550000
vt 0.000000 0.000000
vt 0.000000 1.100000
vt -2.625000 1.100000
vt -3.000000 0.000000
vt -0.000000 1.100000
vt -3.000000 0.000000
vt -1.500000 0.000000
vt -3.000000 3.000000
vt -0.000000 -1.209610
vt -0.375000 0.650500
vt -0.000000 0.650500
vt 2.625000 0.000000
vt 3.000000 -2.627290
vt 0.000000 0.568020
vt 0.375000 0.550000
vt -2.250000 1.400000
vt -0.000000 1.650000
vt -3.000000 0.630000
vt -3.000000 0.550000
vt 2.625000 -2.599750
vt 2.250000 0.595561
vt 2.250000 -2.599750
vt 0.750000 0.300000
vt 0.000000 1.700000
vt 3.000000 0.630000
vt 0.000000 1.730000
vt -0.000000 1.700000
vt -3.000000 0.630000
vt -3.000000 0.600000
vt 0.375000 0.595561
vt 0.750000 -2.599750
vt 0.750000 0.595561
vt 0.000000 1.650000
vt 3.000000 0.630000
vt 0.000000 1.730000
vt -2.625000 1.730000
vt -2.250000 1.700000
vt -2.250000 1.730000
vt -0.750000 1.400000
vt -0.375000 1.730000
vt -0.750000 1.700000
vt -0.750000 1.730000
vt -0.000000 1.730000
vt 2.625000 0.595561
vt 2.250000 0.300000
vt 2.625000 0.630000
vt 2.250000 0.600000
vt 2.250000 0.630000
vt 0.375000 0.630000
vt 0.750000 0.600000
vt 0.750000 0.630000
vt 3.000000 0.600000
vt -0.000000 1.730000
vt 0.375000 -2.599750
vt 3.000000 0.550000
vt 2.250000 0.585233
vt 0.750000 -2.610080
vt 2.250000 -2.610080
vt 0.750000 0.585233
vn 0.0000 -0.0000 1.0000
vn -1.0000 0.0000 0.0000
vn 0.0000 0.0000 -1.0000
vn 0.0000 -1.0000 -0.0000
vn -0.5914 -0.8064 -0.0000
vn 1.0000 0.0000 0.0000
vn 0.3443 0.9389 0.0000
usemtl Grass.072
s 1
f 3/1/1 4/2/1 5/3/1
f 7/4/2 1/5/2 6/6/2
f 9/7/2 11/8/2 8/9/2
f 13/10/3 8/11/3 14/12/3
f 13/13/4 15/14/4 16/15/4
f 10/16/5 9/17/5 13/18/5
f 17/19/6 12/20/6 14/21/6
f 17/22/7 8/23/7 11/24/7
f 6/25/7 5/26/7 18/27/7
f 16/28/6 5/29/6 4/30/6
f 5/3/1 1/5/1 3/1/1
f 1/5/1 2/31/1 3/1/1
f 7/4/2 2/31/2 1/5/2
f 9/7/2 10/32/2 11/8/2
f 14/12/3 12/33/3 13/10/3
f 13/10/3 9/34/3 8/11/3
f 4/35/4 3/36/4 16/15/4
f 3/36/4 13/13/4 16/15/4
f 13/13/4 12/37/4 15/14/4
f 13/18/5 3/38/5 7/39/5
f 3/38/5 2/40/5 7/39/5
f 7/39/5 10/16/5 13/18/5
f 17/19/6 15/41/6 12/20/6
f 17/22/7 14/42/7 8/23/7
f 6/25/7 1/43/7 5/26/7
f 16/28/6 18/44/6 5/29/6
usemtl Stone.141
f 10/32/2 7/4/2 23/45/2
f 11/46/3 27/47/3 17/48/3
f 27/49/7 25/50/7 28/51/7
f 16/28/6 15/41/6 31/52/6
f 24/53/1 28/54/1 25/55/1
f 21/56/3 33/57/3 32/58/3
f 19/59/7 33/60/7 20/61/7
f 6/62/1 34/63/1 19/64/1
f 26/65/2 11/8/2 24/66/2
f 11/8/2 10/32/2 23/45/2
f 26/65/2 24/66/2 25/67/2
f 7/4/2 6/6/2 22/68/2
f 6/6/2 19/69/2 21/70/2
f 22/68/2 6/6/2 21/70/2
f 19/69/2 20/71/2 21/70/2
f 24/66/2 11/8/2 23/45/2
f 7/4/2 22/68/2 23/45/2
f 11/46/3 26/72/3 27/47/3
f 27/49/7 26/73/7 25/50/7
f 15/41/6 17/19/6 30/74/6
f 17/19/6 27/75/6 29/76/6
f 30/74/6 17/19/6 29/76/6
f 27/75/6 28/77/6 29/76/6
f 34/78/6 18/44/6 32/79/6
f 18/44/6 16/28/6 31/52/6
f 32/79/6 33/80/6 34/78/6
f 31/52/6 32/79/6 18/44/6
f 15/41/6 30/74/6 31/52/6
f 24/53/1 29/81/1 28/54/1
f 21/56/3 20/82/3 33/57/3
f 19/59/7 34/83/7 33/60/7
f 6/62/1 18/84/1 34/63/1
usemtl Asphalt.113
f 24/85/7 32/86/7 29/87/7
f 24/66/2 22/68/2 21/70/2
f 32/79/6 30/74/6 29/76/6
f 24/85/7 21/88/7 32/86/7
f 24/66/2 23/45/2 22/68/2
f 32/79/6 31/52/6 30/74/6
