# Blender v2.79 (sub 7) OBJ File: ''
# www.blender.org
mtllib roadTile_234.mtl
o Mesh1_Group1_Model.075
v 2.259150 0.455000 -2.903140
v 2.250000 0.455000 -3.000000
v 0.750000 0.455000 -3.000000
v 0.756827 0.455000 -2.701910
v 0.804783 0.455000 -2.407630
v 0.892946 0.455000 -2.122790
v 1.019630 0.455000 -1.852870
v 1.182390 0.455000 -1.603050
v 1.378120 0.455000 -1.378120
v 1.603050 0.455000 -1.182390
v 1.852870 0.455000 -1.019630
v 2.122790 0.455000 -0.892946
v 2.407630 0.455000 -0.804783
v 2.701910 0.455000 -0.756827
v 3.000000 0.455000 -0.750000
v 3.000000 0.455000 -2.250000
v 2.903140 0.455000 -2.259150
v 2.808190 0.455000 -2.280370
v 2.716650 0.455000 -2.313320
v 2.629960 0.455000 -2.357480
v 2.549490 0.455000 -2.412170
v 2.476510 0.455000 -2.476510
v 2.412170 0.455000 -2.549490
v 2.357480 0.455000 -2.629960
v 2.313320 0.455000 -2.716650
v 2.280370 0.455000 -2.808190
v 3.000000 0.000000 -0.750000
v 3.000000 0.000000 -2.250000
v 2.250000 0.000000 -3.000000
v 0.750000 0.000000 -3.000000
v 2.250000 1.730000 -3.000000
v 2.259150 1.730000 -2.903140
v 2.625000 1.730000 -3.000000
v 2.625000 1.650000 -3.000000
v 2.625000 0.000000 -3.000000
v 2.628210 1.650000 -2.951050
v 2.628210 1.730000 -2.951050
v 3.000000 0.000000 -2.625000
v 3.000000 1.650000 -2.625000
v 3.000000 1.730000 -2.625000
v 3.000000 1.730000 -2.250000
v 2.951050 1.650000 -2.628210
v 2.951050 1.730000 -2.628210
v 2.902940 1.650000 -2.637780
v 2.902940 1.730000 -2.637780
v 2.856490 1.650000 -2.653550
v 2.856490 1.730000 -2.653550
v 2.812500 1.650000 -2.675240
v 2.812500 1.730000 -2.675240
v 2.771710 1.650000 -2.702490
v 2.771710 1.730000 -2.702490
v 2.734830 1.650000 -2.734830
v 2.734830 1.730000 -2.734830
v 2.702490 1.650000 -2.771710
v 2.702490 1.730000 -2.771710
v 2.675240 1.650000 -2.812500
v 2.675240 1.730000 -2.812500
v 2.653550 1.650000 -2.856490
v 2.653550 1.730000 -2.856490
v 2.637780 1.650000 -2.902940
v 2.637780 1.730000 -2.902940
v 2.280370 1.730000 -2.808190
v 2.313320 1.730000 -2.716650
v 2.357480 1.730000 -2.629960
v 2.412170 1.730000 -2.549490
v 2.476510 1.730000 -2.476510
v 2.549490 1.730000 -2.412170
v 2.629960 1.730000 -2.357480
v 2.716650 1.730000 -2.313320
v 2.808190 1.730000 -2.280370
v 2.903140 1.730000 -2.259150
v 3.000000 1.730000 -0.375000
v 3.000000 1.650000 -0.375000
v 3.000000 0.000000 -0.375000
v 3.000000 1.730000 -0.750000
v 2.657370 1.650000 -0.397457
v 2.657370 1.730000 -0.397457
v 0.375000 0.000000 -3.000000
v 0.375000 1.650000 -3.000000
v 0.375000 1.730000 -3.000000
v 0.750000 1.730000 -3.000000
v 0.397457 1.650000 -2.657370
v 0.397457 1.730000 -2.657370
v 0.464445 1.650000 -2.320600
v 0.464445 1.730000 -2.320600
v 0.574816 1.650000 -1.995460
v 0.574816 1.730000 -1.995460
v 0.726683 1.650000 -1.687500
v 0.726683 1.730000 -1.687500
v 0.917447 1.650000 -1.402000
v 0.917447 1.730000 -1.402000
v 1.143840 1.650000 -1.143840
v 1.143840 1.730000 -1.143840
v 1.402000 1.650000 -0.917447
v 1.402000 1.730000 -0.917447
v 1.687500 1.650000 -0.726683
v 1.687500 1.730000 -0.726683
v 1.995460 1.650000 -0.574816
v 1.995460 1.730000 -0.574816
v 2.320600 1.650000 -0.464445
v 2.320600 1.730000 -0.464445
v 2.701910 1.730000 -0.756827
v 2.407630 1.730000 -0.804783
v 2.122790 1.730000 -0.892946
v 1.852870 1.730000 -1.019630
v 1.603050 1.730000 -1.182390
v 1.378120 1.730000 -1.378120
v 1.182390 1.730000 -1.603050
v 1.019630 1.730000 -1.852870
v 0.892946 1.730000 -2.122790
v 0.804783 1.730000 -2.407630
v 0.756827 1.730000 -2.701910
v 3.000000 1.650000 -3.000000
v 3.000000 0.000000 -3.000000
v 3.000000 0.000000 0.000000
v 0.000000 0.000000 0.000000
v 0.000000 0.000000 -3.000000
v 3.000000 1.650000 0.000000
v 0.000000 1.650000 -3.000000
v 0.000000 1.650000 0.000000
vt 2.476510 2.476510
vt 1.603050 1.182390
vt 2.549490 2.412170
vt 2.250000 0.000000
vt 0.750000 0.455000
vt 0.750000 0.000000
vt -0.750000 0.000000
vt -2.250000 0.455000
vt -2.250000 0.000000
vt 2.259150 2.903140
vt 2.250000 3.000000
vt 0.750000 3.000000
vt 0.756827 2.701910
vt 0.804783 2.407630
vt 2.280370 2.808190
vt 2.313320 2.716650
vt 0.892946 2.122790
vt 1.019630 1.852870
vt 2.357480 2.629960
vt 1.182390 1.603050
vt 2.412170 2.549490
vt 1.378120 1.378120
vt 1.852870 1.019630
vt 2.122790 0.892946
vt 2.629960 2.357480
vt 2.407630 0.804783
vt 2.716650 2.313320
vt 2.808190 2.280370
vt 2.701910 0.756827
vt 3.000000 0.750000
vt 2.903140 2.259150
vt 3.000000 2.250000
vt 2.250000 0.455000
vt -0.750000 0.455000
vt -2.775150 0.455000
vt -2.677860 1.730000
vt -2.775150 1.730000
vt -2.250000 1.730000
vt -2.625000 1.650000
vt 2.821890 1.650000
vt 2.772840 1.730000
vt 2.772840 1.650000
vt 2.625000 1.650000
vt 2.250000 1.730000
vt -2.772840 1.650000
vt -2.821890 1.730000
vt -2.821890 1.650000
vt -2.332560 1.650000
vt -2.381610 1.730000
vt -2.381610 1.650000
vt -1.851950 1.650000
vt -1.901000 1.730000
vt -1.901000 1.650000
vt -1.339230 1.650000
vt -1.388280 1.730000
vt -1.388280 1.650000
vt -0.803172 1.650000
vt -0.852224 1.730000
vt -0.852224 1.650000
vt -0.252956 1.650000
vt -0.302008 1.730000
vt -0.302008 1.650000
vt 0.302008 1.650000
vt 0.252956 1.730000
vt 0.252956 1.650000
vt 0.852224 1.650000
vt 0.803172 1.730000
vt 0.803172 1.650000
vt 1.388280 1.650000
vt 1.339230 1.730000
vt 1.339230 1.650000
vt 1.901000 1.650000
vt 1.851950 1.730000
vt 1.851950 1.650000
vt 2.381610 1.650000
vt 2.332560 1.730000
vt 2.332560 1.650000
vt 2.771710 2.702490
vt 2.734830 2.734830
vt 2.476510 2.476510
vt -2.340590 0.455000
vt -2.243300 1.730000
vt -2.340590 1.730000
vt -1.869890 0.455000
vt -1.772590 1.730000
vt -1.869890 1.730000
vt -1.370450 0.455000
vt -1.273160 1.730000
vt -1.370450 1.730000
vt -0.850161 0.455000
vt -0.752869 1.730000
vt -0.850161 1.730000
vt -0.317230 0.455000
vt -0.219938 1.730000
vt -0.317230 1.730000
vt 0.219938 0.455000
vt 0.317230 1.730000
vt 0.219938 1.730000
vt 0.752869 0.455000
vt 0.850161 1.730000
vt 0.752869 1.730000
vt 1.273160 0.455000
vt 1.370450 1.730000
vt 1.273160 1.730000
vt 1.772590 0.455000
vt 1.869890 1.730000
vt 1.772590 1.730000
vt 2.243300 0.455000
vt 2.340590 1.730000
vt 2.243300 1.730000
vt 2.677860 0.455000
vt 2.775150 1.730000
vt 2.677860 1.730000
vt 0.750000 1.730000
vt 0.375000 1.650000
vt 2.969050 1.650000
vt 2.625680 1.730000
vt 2.625680 1.650000
vt -0.375000 1.650000
vt -0.750000 1.730000
vt -2.625680 1.650000
vt -2.969050 1.730000
vt -2.969050 1.650000
vt -2.185400 1.650000
vt -2.528770 1.730000
vt -2.528770 1.650000
vt -1.704790 1.650000
vt -2.048160 1.730000
vt -2.048160 1.650000
vt -1.192070 1.650000
vt -1.535440 1.730000
vt -1.535440 1.650000
vt -0.656015 1.650000
vt -0.999381 1.730000
vt -0.999381 1.650000
vt -0.105799 1.650000
vt -0.449165 1.730000
vt -0.449165 1.650000
vt 0.449165 1.650000
vt 0.105799 1.730000
vt 0.105799 1.650000
vt 0.999381 1.650000
vt 0.656015 1.730000
vt 0.656015 1.650000
vt 1.535440 1.650000
vt 1.192070 1.730000
vt 1.192070 1.650000
vt 2.048160 1.650000
vt 1.704790 1.730000
vt 1.704790 1.650000
vt 2.528770 1.650000
vt 2.185400 1.730000
vt 2.185400 1.650000
vt 1.852870 1.019630
vt 1.603050 1.182390
vt 1.402000 0.917447
vt -2.683870 0.455000
vt -2.982040 1.730000
vt -2.982040 0.455000
vt -2.246840 0.455000
vt -2.545010 1.730000
vt -2.545010 0.455000
vt -1.763840 0.455000
vt -2.062010 1.730000
vt -2.062010 0.455000
vt -1.244130 0.455000
vt -1.542300 1.730000
vt -1.542300 0.455000
vt -0.697684 0.455000
vt -0.995851 1.730000
vt -0.995851 0.455000
vt -0.134989 0.455000
vt -0.433156 1.730000
vt -0.433156 0.455000
vt 0.433156 0.455000
vt 0.134989 1.730000
vt 0.134989 0.455000
vt 0.995851 0.455000
vt 0.697684 1.730000
vt 0.697684 0.455000
vt 1.542300 0.455000
vt 1.244130 1.730000
vt 1.244130 0.455000
vt 2.062010 0.455000
vt 1.763840 1.730000
vt 1.763840 0.455000
vt 2.545010 0.455000
vt 2.246840 1.730000
vt 2.246840 0.455000
vt 2.982040 0.455000
vt 2.683870 1.730000
vt 2.683870 0.455000
vt -2.677860 0.455000
vt -2.625000 1.730000
vt -2.625000 0.000000
vt 2.821890 1.730000
vt 2.625000 0.000000
vt 2.625000 1.730000
vt -2.772840 1.730000
vt -2.332560 1.730000
vt -1.851950 1.730000
vt -1.339230 1.730000
vt -0.803172 1.730000
vt -0.252956 1.730000
vt 0.302008 1.730000
vt 0.852224 1.730000
vt 1.388280 1.730000
vt 1.901000 1.730000
vt 2.381610 1.730000
vt 2.903140 2.259150
vt 3.000000 2.250000
vt 3.000000 2.625000
vt 2.951050 2.628210
vt 2.716650 2.313320
vt 2.808190 2.280370
vt 2.902940 2.637780
vt 2.549490 2.412170
vt 2.629960 2.357480
vt 2.812500 2.675240
vt 2.856490 2.653550
vt 2.412170 2.549490
vt 2.702490 2.771710
vt 2.675240 2.812500
vt 2.313320 2.716650
vt 2.357480 2.629960
vt 2.653550 2.856490
vt 2.259150 2.903140
vt 2.280370 2.808190
vt 2.628210 2.951050
vt 2.637780 2.902940
vt 2.625000 3.000000
vt 2.250000 3.000000
vt -2.243300 0.455000
vt -1.772590 0.455000
vt -1.273160 0.455000
vt -0.752869 0.455000
vt -0.219938 0.455000
vt 0.317230 0.455000
vt 0.850161 0.455000
vt 1.370450 0.455000
vt 1.869890 0.455000
vt 2.340590 0.455000
vt 2.775150 0.455000
vt 0.375000 1.730000
vt 0.375000 0.000000
vt 2.969050 1.730000
vt -0.375000 0.000000
vt -0.375000 1.730000
vt -2.625680 1.730000
vt -2.185400 1.730000
vt -1.704790 1.730000
vt -1.192070 1.730000
vt -0.656015 1.730000
vt -0.105799 1.730000
vt 0.449165 1.730000
vt 0.999381 1.730000
vt 1.535440 1.730000
vt 2.048160 1.730000
vt 2.528770 1.730000
vt 0.756827 2.701910
vt 0.750000 3.000000
vt 0.375000 3.000000
vt 0.397457 2.657370
vt 0.464445 2.320600
vt 0.804783 2.407630
vt 0.574816 1.995460
vt 0.892946 2.122790
vt 0.726683 1.687500
vt 0.917447 1.402000
vt 1.019630 1.852870
vt 1.143840 1.143840
vt 1.182390 1.603050
vt 1.687500 0.726683
vt 1.378120 1.378120
vt 1.995460 0.574816
vt 2.122790 0.892946
vt 2.320600 0.464445
vt 2.407630 0.804783
vt 2.657370 0.397457
vt 3.000000 0.375000
vt 2.701910 0.756827
vt 3.000000 0.750000
vt -2.683870 1.730000
vt -2.246840 1.730000
vt -1.763840 1.730000
vt -1.244130 1.730000
vt -0.697684 1.730000
vt -0.134989 1.730000
vt 0.433156 1.730000
vt 0.995851 1.730000
vt 1.542300 1.730000
vt 2.062010 1.730000
vt 2.545010 1.730000
vt 2.982040 1.730000
vt 2.902940 2.637780
vt 2.951050 2.628210
vt 3.000000 3.000000
vt -3.000000 1.650000
vt -3.000000 0.000000
vt -3.000000 0.750000
vt -0.000000 -0.000000
vt -0.750000 3.000000
vt 3.000000 -0.000000
vt 3.000000 1.650000
vt 1.143840 1.143840
vt 0.917447 1.402000
vt 0.000000 0.000000
vt 0.000000 1.650000
vt 0.000000 0.000000
vt 3.000000 0.000000
vt 0.000000 1.650000
vt -3.000000 1.650000
vt -3.000000 0.000000
vt -0.000000 0.000000
vt -0.000000 1.650000
vt 3.000000 2.625000
vt 2.625000 3.000000
vt 2.628210 2.951050
vt 2.637780 2.902940
vt 2.653550 2.856490
vt 2.675240 2.812500
vt 2.702490 2.771710
vt 2.734830 2.734830
vt 2.771710 2.702490
vt 2.812500 2.675240
vt 2.856490 2.653550
vt -2.250000 3.000000
vt -2.625000 3.000000
vt -3.000000 2.625000
vt -3.000000 3.000000
vt -3.000000 2.250000
vt -0.000000 3.000000
vt -0.375000 3.000000
vt -3.000000 0.375000
vt -3.000000 0.000000
vt 3.000000 0.000000
vt 2.320600 0.464445
vt 3.000000 0.375000
vt 2.657370 0.397457
vt 0.375000 3.000000
vt 0.000000 3.000000
vt 0.397457 2.657370
vt 0.464445 2.320600
vt 1.995460 0.574816
vt 0.574816 1.995460
vt 1.687500 0.726683
vt 1.402000 0.917447
vt 0.726683 1.687500
vt 3.000000 1.650000
vn -0.0000 1.0000 -0.0000
vn 1.0000 0.0000 0.0000
vn 0.0000 0.0000 -1.0000
vn -0.9956 0.0000 0.0940
vn -0.9877 0.0000 0.1564
vn 0.9979 0.0000 -0.0654
vn 0.9914 0.0000 -0.1305
vn 0.1305 0.0000 -0.9914
vn 0.0654 0.0000 -0.9979
vn 0.2588 0.0000 -0.9659
vn 0.3827 0.0000 -0.9239
vn 0.4999 0.0000 -0.8661
vn 0.6087 0.0000 -0.7934
vn 0.7071 0.0000 -0.7071
vn 0.7934 0.0000 -0.6087
vn 0.8661 0.0000 -0.4999
vn 0.9239 0.0000 -0.3827
vn 0.9659 0.0000 -0.2588
vn -0.9603 0.0000 0.2789
vn -0.9178 0.0000 0.3971
vn -0.8608 0.0000 0.5090
vn -0.7901 0.0000 0.6129
vn -0.7071 0.0000 0.7071
vn -0.6129 0.0000 0.7901
vn -0.6129 0.0000 0.7902
vn -0.5090 0.0000 0.8608
vn -0.3971 0.0000 0.9178
vn -0.2789 0.0000 0.9603
vn -0.1564 0.0000 0.9877
vn -0.0940 0.0000 0.9956
vn -0.0654 -0.0000 0.9979
vn -0.1305 -0.0000 0.9914
vn -0.9914 0.0000 0.1305
vn -0.9979 0.0000 0.0654
vn -0.9659 0.0000 0.2588
vn -0.9239 0.0000 0.3827
vn -0.8660 0.0000 0.5000
vn -0.7934 0.0000 0.6088
vn -0.6088 0.0000 0.7934
vn -0.5000 0.0000 0.8660
vn -0.3827 0.0000 0.9239
vn -0.2588 -0.0000 0.9659
vn 0.0921 0.0000 -0.9958
vn 0.0229 0.0000 -0.9997
vn 0.2288 0.0000 -0.9735
vn 0.3611 0.0000 -0.9325
vn 0.4865 0.0000 -0.8737
vn 0.6026 0.0000 -0.7980
vn 0.7980 0.0000 -0.6026
vn 0.8737 0.0000 -0.4865
vn 0.9325 0.0000 -0.3611
vn 0.9735 0.0000 -0.2288
vn 0.9958 0.0000 -0.0921
vn 0.9997 0.0000 -0.0229
vn 0.0000 -1.0000 -0.0000
vn 0.0000 -0.0000 1.0000
vn -1.0000 0.0000 0.0000
usemtl Water.018
s 1
f 22/1/1 10/2/1 21/3/1
f 28/4/2 15/5/2 27/6/2
f 30/7/3 2/8/3 29/9/3
f 1/10/1 2/11/1 3/12/1
f 3/12/1 4/13/1 1/10/1
f 4/13/1 5/14/1 26/15/1
f 26/15/1 5/14/1 25/16/1
f 5/14/1 6/17/1 25/16/1
f 6/17/1 7/18/1 24/19/1
f 25/16/1 6/17/1 24/19/1
f 7/18/1 8/20/1 23/21/1
f 8/20/1 9/22/1 22/1/1
f 9/22/1 10/2/1 22/1/1
f 10/2/1 11/23/1 21/3/1
f 23/21/1 8/20/1 22/1/1
f 11/23/1 12/24/1 20/25/1
f 12/24/1 13/26/1 19/27/1
f 19/27/1 13/26/1 18/28/1
f 13/26/1 14/29/1 18/28/1
f 14/29/1 15/30/1 17/31/1
f 18/28/1 14/29/1 17/31/1
f 15/30/1 16/32/1 17/31/1
f 24/19/1 7/18/1 23/21/1
f 26/15/1 1/10/1 4/13/1
f 12/24/1 19/27/1 20/25/1
f 11/23/1 20/25/1 21/3/1
f 28/4/2 16/33/2 15/5/2
f 30/7/3 3/34/3 2/8/3
usemtl Stone.058
f 2/35/4 32/36/5 31/37/4
f 2/8/3 31/38/3 34/39/3
f 34/40/6 37/41/7 36/42/7
f 39/43/2 41/44/2 16/33/2
f 42/45/8 40/46/9 39/47/9
f 44/48/10 43/49/8 42/50/8
f 46/51/11 45/52/10 44/53/10
f 48/54/12 47/55/11 46/56/11
f 50/57/13 49/58/12 48/59/12
f 52/60/14 51/61/13 50/62/13
f 54/63/15 53/64/14 52/65/14
f 56/66/16 55/67/15 54/68/15
f 58/69/17 57/70/16 56/71/16
f 60/72/18 59/73/17 58/74/17
f 36/75/7 61/76/18 60/77/18
f 51/78/1 53/79/1 66/80/1
f 1/81/5 62/82/19 32/83/5
f 26/84/19 63/85/20 62/86/19
f 25/87/20 64/88/21 63/89/20
f 24/90/21 65/91/22 64/92/21
f 23/93/22 66/94/23 65/95/22
f 22/96/23 67/97/24 66/98/23
f 21/99/25 68/100/26 67/101/24
f 20/102/26 69/103/27 68/104/26
f 19/105/27 70/106/28 69/107/27
f 18/108/28 71/109/29 70/110/28
f 17/111/29 41/112/30 71/113/29
f 15/5/2 75/114/2 73/115/2
f 73/116/31 77/117/32 76/118/32
f 79/119/3 81/120/3 3/34/3
f 82/121/33 80/122/34 79/123/34
f 84/124/35 83/125/33 82/126/33
f 86/127/36 85/128/35 84/129/35
f 88/130/37 87/131/36 86/132/36
f 90/133/38 89/134/37 88/135/37
f 92/136/23 91/137/38 90/138/38
f 94/139/39 93/140/23 92/141/23
f 96/142/40 95/143/39 94/144/39
f 98/145/41 97/146/40 96/147/40
f 100/148/42 99/149/41 98/150/41
f 76/151/32 101/152/42 100/153/42
f 105/154/1 106/155/1 95/156/1
f 14/157/43 75/158/44 15/159/44
f 13/160/45 102/161/43 14/162/43
f 12/163/46 103/164/45 13/165/45
f 11/166/47 104/167/46 12/168/46
f 10/169/48 105/170/47 11/171/47
f 9/172/14 106/173/48 10/174/48
f 8/175/49 107/176/14 9/177/14
f 7/178/50 108/179/49 8/180/49
f 6/181/51 109/182/50 7/183/50
f 5/184/52 110/185/51 6/186/51
f 4/187/53 111/188/52 5/189/52
f 3/190/54 112/191/53 4/192/53
f 2/35/4 1/193/5 32/36/5
f 31/38/3 33/194/3 34/39/3
f 34/39/3 35/195/3 2/8/3
f 35/195/3 29/9/3 2/8/3
f 34/40/6 33/196/6 37/41/7
f 16/33/2 28/4/2 38/197/2
f 39/43/2 40/198/2 41/44/2
f 16/33/2 38/197/2 39/43/2
f 42/45/8 43/199/8 40/46/9
f 44/48/10 45/200/10 43/49/8
f 46/51/11 47/201/11 45/52/10
f 48/54/12 49/202/12 47/55/11
f 50/57/13 51/203/13 49/58/12
f 52/60/14 53/204/14 51/61/13
f 54/63/15 55/205/15 53/64/14
f 56/66/16 57/206/16 55/67/15
f 58/69/17 59/207/17 57/70/16
f 60/72/18 61/208/18 59/73/17
f 36/75/7 37/209/7 61/76/18
f 71/210/1 41/211/1 40/212/1
f 71/210/1 40/212/1 43/213/1
f 69/214/1 70/215/1 45/216/1
f 70/215/1 71/210/1 43/213/1
f 67/217/1 68/218/1 49/219/1
f 68/218/1 69/214/1 47/220/1
f 67/217/1 51/78/1 66/80/1
f 65/221/1 66/80/1 55/222/1
f 65/221/1 55/222/1 57/223/1
f 63/224/1 64/225/1 59/226/1
f 64/225/1 65/221/1 57/223/1
f 59/226/1 64/225/1 57/223/1
f 32/227/1 62/228/1 37/229/1
f 62/228/1 63/224/1 61/230/1
f 61/230/1 63/224/1 59/226/1
f 33/231/1 31/232/1 32/227/1
f 37/229/1 33/231/1 32/227/1
f 51/78/1 67/217/1 49/219/1
f 70/215/1 43/213/1 45/216/1
f 61/230/1 37/229/1 62/228/1
f 69/214/1 45/216/1 47/220/1
f 47/220/1 49/219/1 68/218/1
f 55/222/1 66/80/1 53/79/1
f 1/81/5 26/233/19 62/82/19
f 26/84/19 25/234/20 63/85/20
f 25/87/20 24/235/21 64/88/21
f 24/90/21 23/236/22 65/91/22
f 23/93/22 22/237/23 66/94/23
f 22/96/23 21/238/25 67/97/24
f 21/99/25 20/239/26 68/100/26
f 20/102/26 19/240/27 69/103/27
f 19/105/27 18/241/28 70/106/28
f 18/108/28 17/242/29 71/109/29
f 17/111/29 16/243/30 41/112/30
f 75/114/2 72/244/2 73/115/2
f 73/115/2 74/245/2 15/5/2
f 74/245/2 27/6/2 15/5/2
f 73/116/31 72/246/31 77/117/32
f 3/34/3 30/7/3 78/247/3
f 79/119/3 80/248/3 81/120/3
f 3/34/3 78/247/3 79/119/3
f 82/121/33 83/249/33 80/122/34
f 84/124/35 85/250/35 83/125/33
f 86/127/36 87/251/36 85/128/35
f 88/130/37 89/252/37 87/131/36
f 90/133/38 91/253/38 89/134/37
f 92/136/23 93/254/23 91/137/38
f 94/139/39 95/255/39 93/140/23
f 96/142/40 97/256/40 95/143/39
f 98/145/41 99/257/41 97/146/40
f 100/148/42 101/258/42 99/149/41
f 76/151/32 77/259/32 101/152/42
f 112/260/1 81/261/1 80/262/1
f 80/262/1 83/263/1 112/260/1
f 83/263/1 85/264/1 111/265/1
f 85/264/1 87/266/1 110/267/1
f 87/266/1 89/268/1 110/267/1
f 89/268/1 91/269/1 109/270/1
f 91/269/1 93/271/1 108/272/1
f 93/271/1 95/156/1 106/155/1
f 95/156/1 97/273/1 105/154/1
f 93/271/1 106/155/1 107/274/1
f 97/273/1 99/275/1 104/276/1
f 99/275/1 101/277/1 104/276/1
f 104/276/1 101/277/1 103/278/1
f 101/277/1 77/279/1 103/278/1
f 77/279/1 72/280/1 102/281/1
f 103/278/1 77/279/1 102/281/1
f 72/280/1 75/282/1 102/281/1
f 91/269/1 108/272/1 109/270/1
f 108/272/1 93/271/1 107/274/1
f 83/263/1 111/265/1 112/260/1
f 110/267/1 111/265/1 85/264/1
f 109/270/1 110/267/1 89/268/1
f 97/273/1 104/276/1 105/154/1
f 14/157/43 102/283/43 75/158/44
f 13/160/45 103/284/45 102/161/43
f 12/163/46 104/285/46 103/164/45
f 11/166/47 105/286/47 104/167/46
f 10/169/48 106/287/48 105/170/47
f 9/172/14 107/288/14 106/173/48
f 8/175/49 108/289/49 107/176/14
f 7/178/50 109/290/50 108/179/49
f 6/181/51 110/291/51 109/182/50
f 5/184/52 111/292/52 110/185/51
f 4/187/53 112/293/53 111/188/52
f 3/190/54 81/294/54 112/191/53
usemtl Grass.039
f 44/295/1 42/296/1 113/297/1
f 35/195/3 113/298/3 114/299/3
f 27/300/55 116/301/55 30/302/55
f 39/43/2 114/303/2 113/304/2
f 92/305/1 90/306/1 120/307/1
f 74/245/2 118/308/2 115/309/2
f 115/310/56 120/311/56 116/301/56
f 116/301/57 119/312/57 117/313/57
f 79/119/3 117/314/3 119/315/3
f 39/316/1 113/297/1 42/296/1
f 113/297/1 34/317/1 36/318/1
f 60/319/1 113/297/1 36/318/1
f 60/319/1 58/320/1 113/297/1
f 58/320/1 56/321/1 113/297/1
f 56/321/1 54/322/1 113/297/1
f 54/322/1 52/323/1 113/297/1
f 52/323/1 50/324/1 113/297/1
f 50/324/1 48/325/1 113/297/1
f 48/325/1 46/326/1 113/297/1
f 46/326/1 44/295/1 113/297/1
f 35/195/3 34/39/3 113/298/3
f 29/327/55 35/328/55 38/329/55
f 35/328/55 114/330/55 38/329/55
f 38/329/55 28/331/55 29/327/55
f 28/331/55 27/300/55 30/302/55
f 117/332/55 78/333/55 116/301/55
f 78/333/55 30/302/55 116/301/55
f 30/302/55 29/327/55 28/331/55
f 27/300/55 74/334/55 116/301/55
f 74/334/55 115/335/55 116/301/55
f 39/43/2 38/197/2 114/303/2
f 120/307/1 118/336/1 100/337/1
f 118/336/1 73/338/1 76/339/1
f 118/336/1 76/339/1 100/337/1
f 79/340/1 119/341/1 82/342/1
f 119/341/1 120/307/1 84/343/1
f 82/342/1 119/341/1 84/343/1
f 120/307/1 100/337/1 98/344/1
f 86/345/1 84/343/1 120/307/1
f 120/307/1 98/344/1 96/346/1
f 120/307/1 96/346/1 94/347/1
f 88/348/1 86/345/1 120/307/1
f 90/306/1 88/348/1 120/307/1
f 120/307/1 94/347/1 92/305/1
f 74/245/2 73/115/2 118/308/2
f 115/310/56 118/349/56 120/311/56
f 116/301/57 120/311/57 119/312/57
f 79/119/3 78/247/3 117/314/3
