# Blender v2.79 (sub 7) OBJ File: ''
# www.blender.org
mtllib roadTile_101.mtl
o Mesh1_Group1_Model.257
v 3.000000 0.000000 0.000000
v 3.000000 0.000000 -3.000000
v 3.000000 0.630000 -3.000000
v 3.000000 0.630000 -2.160720
v 3.000000 0.570000 -2.160720
v 3.000000 0.570000 -1.928960
v 3.000000 0.630000 -1.928960
v 3.000000 0.630000 0.000000
v 0.000000 0.000000 0.000000
v 0.000000 0.000000 -3.000000
v 0.000000 0.630000 0.000000
v 0.000000 0.630000 -3.000000
v 2.918150 0.630000 -1.983650
v 2.420270 0.630000 -2.420270
v 1.983650 0.630000 -2.918150
v 1.928960 0.630000 -3.000000
v 1.928960 0.570000 -3.000000
v 2.160720 0.570000 -3.000000
v 2.160720 0.630000 -3.000000
v 2.552850 0.630000 -2.552850
v 2.918150 0.570000 -1.983650
v 1.983650 0.570000 -2.918150
v 2.420270 0.570000 -2.420270
v 2.552850 0.570000 -2.552850
vt 3.000000 0.000000
vt 2.160720 0.570000
vt 1.928960 0.570000
vt -0.000000 0.000000
vt -3.000000 3.000000
vt -3.000000 0.000000
vt 3.000000 0.630000
vt 0.000000 0.630000
vt -3.000000 0.630000
vt -3.000000 0.000000
vt 1.983650 2.918150
vt -0.000000 3.000000
vt 2.420270 2.420270
vt -1.928960 0.570000
vt -2.160720 0.570000
vt -3.000000 -0.000000
vt 3.000000 3.000000
vt 2.552850 2.552850
vt 3.000000 2.160720
vt 0.000000 0.630000
vt -0.000000 0.000000
vt 3.000000 0.630000
vt 2.160720 0.630000
vt 1.928960 0.630000
vt 0.000000 3.000000
vt 3.000000 -0.000000
vt 0.000000 -0.000000
vt 3.000000 0.000000
vt 3.000000 1.928960
vt 2.918150 1.983650
vt 1.928960 3.000000
vt -0.000000 -0.000000
vt -0.000000 0.630000
vt -1.928960 0.630000
vt -2.160720 0.630000
vt -3.000000 0.630000
vt 2.160720 3.000000
vt -1.422740 0.630000
vt -1.324290 0.570000
vt -1.324290 0.630000
vt 3.000000 2.160720
vt 2.552850 2.552850
vt 2.420270 2.420270
vt 1.324290 0.630000
vt 1.422740 0.570000
vt 1.422740 0.630000
vt 0.223861 0.630000
vt 0.886067 0.570000
vt 0.886067 0.630000
vt -0.886067 0.630000
vt -0.223861 0.570000
vt -0.223861 0.630000
vt -0.830859 0.630000
vt -0.236124 0.570000
vt -0.236124 0.630000
vt 0.236124 0.630000
vt 0.830859 0.570000
vt 0.830859 0.630000
vt -1.422740 0.570000
vt 2.160720 3.000000
vt 1.928960 3.000000
vt 1.983650 2.918150
vt 2.918150 1.983650
vt 3.000000 1.928960
vt 1.324290 0.570000
vt 0.223861 0.570000
vt -0.886067 0.570000
vt -0.830859 0.570000
vt 0.236124 0.570000
vn 1.0000 -0.0000 0.0000
vn 0.0000 -1.0000 -0.0000
vn 0.0000 -0.0000 1.0000
vn -1.0000 0.0000 0.0000
vn 0.0000 1.0000 0.0000
vn -0.0000 0.0000 -1.0000
vn 0.5556 0.0000 -0.8315
vn 0.6088 0.0000 -0.7934
vn 0.7934 0.0000 -0.6088
vn 0.8315 0.0000 -0.5556
vn 0.7071 0.0000 -0.7071
vn -0.7518 0.0000 0.6593
vn -0.7071 0.0000 0.7071
vn -0.6593 0.0000 0.7518
usemtl Stone.218
s 1
f 2/1/1 5/2/1 6/3/1
f 9/4/2 2/5/2 1/6/2
f 9/4/3 8/7/3 11/8/3
f 9/4/4 12/9/4 10/10/4
f 15/11/5 12/12/5 14/13/5
f 17/14/6 18/15/6 2/16/6
f 3/17/5 20/18/5 4/19/5
f 8/20/1 1/21/1 6/3/1
f 1/21/1 2/1/1 6/3/1
f 2/1/1 3/22/1 5/2/1
f 3/22/1 4/23/1 5/2/1
f 6/3/1 7/24/1 8/20/1
f 9/4/2 10/25/2 2/5/2
f 9/4/3 1/26/3 8/7/3
f 9/4/4 11/8/4 12/9/4
f 11/27/5 8/28/5 14/13/5
f 8/28/5 7/29/5 13/30/5
f 8/28/5 13/30/5 14/13/5
f 16/31/5 12/12/5 15/11/5
f 12/12/5 11/27/5 14/13/5
f 2/16/6 10/32/6 17/14/6
f 10/32/6 12/33/6 17/14/6
f 12/33/6 16/34/6 17/14/6
f 18/15/6 19/35/6 3/36/6
f 18/15/6 3/36/6 2/16/6
f 3/17/5 19/37/5 20/18/5
usemtl Grey_Asphalt.017
f 7/38/7 21/39/8 13/40/8
f 5/41/5 24/42/5 23/43/5
f 15/44/9 17/45/10 16/46/10
f 14/47/11 22/48/9 15/49/9
f 13/50/8 23/51/11 14/52/11
f 19/53/12 24/54/13 20/55/13
f 20/56/13 5/57/14 4/58/14
f 7/38/7 6/59/7 21/39/8
f 24/42/5 18/60/5 23/43/5
f 18/60/5 17/61/5 22/62/5
f 23/43/5 18/60/5 22/62/5
f 23/43/5 21/63/5 5/41/5
f 21/63/5 6/64/5 5/41/5
f 15/44/9 22/65/9 17/45/10
f 14/47/11 23/66/11 22/48/9
f 13/50/8 21/67/8 23/51/11
f 19/53/12 18/68/12 24/54/13
f 20/56/13 24/69/13 5/57/14
