# Blender v2.79 (sub 7) OBJ File: ''
# www.blender.org
mtllib roadTile_103.mtl
o Mesh1_Group1_Model.034
v 3.000000 0.570000 -1.875000
v 0.000000 1.670000 -1.875000
v 0.000000 1.730000 -1.875000
v 3.000000 0.630000 -1.875000
v 3.000000 0.570000 -2.062500
v 0.000000 1.670000 -2.062500
v 3.000000 0.570000 -0.937500
v 0.000000 1.670000 -0.937500
v 0.000000 1.730000 -0.937500
v 3.000000 0.630000 -0.937500
v 3.000000 0.570000 -1.125000
v 0.000000 1.670000 -1.125000
v 3.000000 0.630000 -1.125000
v 0.000000 1.730000 -1.125000
v 3.000000 0.630000 -2.062500
v 0.000000 1.730000 -2.062500
v 3.000000 0.630000 -3.000000
v 3.000000 0.630000 0.000000
v 3.000000 0.000000 0.000000
v 3.000000 0.000000 -3.000000
v 0.000000 1.730000 -3.000000
v 0.000000 1.730000 0.000000
v 0.000000 0.000000 -3.000000
v 0.000000 0.000000 0.000000
vt 0.000000 1.670000
vt -3.000000 0.630000
vt -3.000000 0.570000
vt 1.875000 -2.620400
vt 2.062500 0.574905
vt 1.875000 0.574905
vt -0.000000 1.670000
vt -3.000000 0.630000
vt -3.000000 0.570000
vt 0.937500 -2.620400
vt 1.125000 0.574905
vt 0.937500 0.574905
vt -0.000000 1.670000
vt 3.000000 0.630000
vt -0.000000 1.730000
vt -0.000000 1.670000
vt 3.000000 0.630000
vt -0.000000 1.730000
vt 0.000000 1.730000
vt 2.062500 -2.620400
vt -0.000000 1.730000
vt 1.125000 -2.620400
vt 3.000000 0.570000
vt 3.000000 0.570000
vt 1.875000 0.570000
vt 1.125000 0.570000
vt 3.000000 -0.000000
vt 2.062500 0.595561
vt 3.000000 -2.599750
vt 3.000000 0.595561
vt -1.125000 1.670000
vt -1.875000 1.670000
vt 0.000000 0.000000
vt 0.937500 -2.599750
vt -0.000000 0.595561
vt 0.000000 -2.599750
vt 1.875000 -2.599750
vt 1.125000 0.595561
vt 1.125000 -2.599750
vt 3.000000 0.630000
vt 0.000000 1.730000
vt -3.000000 3.000000
vt -3.000000 0.000000
vt -3.000000 0.630000
vt -0.000000 -0.000000
vt -0.000000 1.730000
vt 3.000000 0.630000
vt 2.062500 0.570000
vt 2.062500 0.630000
vt 0.000000 0.630000
vt 0.000000 -0.000000
vt 0.937500 0.570000
vt 0.937500 0.630000
vt 1.875000 0.630000
vt 1.125000 0.630000
vt 2.062500 -2.599750
vt -0.937500 1.670000
vt -0.937500 1.730000
vt -3.000000 1.730000
vt -3.000000 0.000000
vt -2.062500 1.670000
vt -2.062500 1.730000
vt -1.125000 1.730000
vt -1.875000 1.730000
vt 0.937500 0.595561
vt 1.875000 0.595561
vt 3.000000 -0.000000
vt 0.000000 3.000000
vt -3.000000 -0.000000
vn -0.0000 0.0000 -1.0000
vn 0.3443 0.9389 0.0000
vn -0.0000 0.0000 1.0000
vn 1.0000 0.0000 0.0000
vn -1.0000 0.0000 0.0000
vn 0.0000 -1.0000 -0.0000
usemtl Grey_Asphalt.001
s 1
f 2/1/1 4/2/1 1/3/1
f 1/4/2 6/5/2 2/6/2
f 8/7/1 10/8/1 7/9/1
f 7/10/2 12/11/2 8/12/2
f 12/13/3 13/14/3 14/15/3
f 6/16/3 15/17/3 16/18/3
f 2/1/1 3/19/1 4/2/1
f 1/4/2 5/20/2 6/5/2
f 8/7/1 9/21/1 10/8/1
f 7/10/2 11/22/2 12/11/2
f 12/13/3 11/23/3 13/14/3
f 6/16/3 5/24/3 15/17/3
usemtl Stone.027
f 1/25/4 11/26/4 20/27/4
f 16/28/2 17/29/2 21/30/2
f 12/31/5 2/32/5 24/33/5
f 10/34/2 22/35/2 18/36/2
f 4/37/2 14/38/2 13/39/2
f 24/33/3 18/40/3 22/41/3
f 24/33/6 20/42/6 19/43/6
f 17/44/1 23/45/1 21/46/1
f 20/27/4 17/47/4 5/48/4
f 17/47/4 15/49/4 5/48/4
f 18/50/4 19/51/4 7/52/4
f 19/51/4 20/27/4 11/26/4
f 7/52/4 19/51/4 11/26/4
f 7/52/4 10/53/4 18/50/4
f 4/54/4 13/55/4 11/26/4
f 1/25/4 4/54/4 11/26/4
f 20/27/4 5/48/4 1/25/4
f 16/28/2 15/56/2 17/29/2
f 24/33/5 22/41/5 8/57/5
f 22/41/5 9/58/5 8/57/5
f 21/59/5 23/60/5 6/61/5
f 23/60/5 24/33/5 2/32/5
f 6/61/5 23/60/5 2/32/5
f 6/61/5 16/62/5 21/59/5
f 14/63/5 3/64/5 2/32/5
f 12/31/5 14/63/5 2/32/5
f 24/33/5 8/57/5 12/31/5
f 10/34/2 9/65/2 22/35/2
f 4/37/2 3/66/2 14/38/2
f 24/33/3 19/67/3 18/40/3
f 24/33/6 23/68/6 20/42/6
f 17/44/1 20/69/1 23/45/1
