# Blender v2.79 (sub 7) OBJ File: ''
# www.blender.org
mtllib roadTile_042.mtl
o Mesh1_Group1_Model.066
v 3.000000 0.455000 0.000000
v 1.875000 0.455000 0.000000
v 1.875000 0.000000 0.000000
v 3.000000 0.000000 0.000000
v 0.000000 0.455000 -3.000000
v 0.000000 0.455000 -1.875000
v 0.244737 0.455000 -1.858960
v 0.485286 0.455000 -1.811110
v 0.717531 0.455000 -1.732270
v 0.937500 0.455000 -1.623800
v 1.141430 0.455000 -1.487540
v 1.325830 0.455000 -1.325830
v 1.487540 0.455000 -1.141430
v 1.623800 0.455000 -0.937500
v 1.732270 0.455000 -0.717531
v 1.811110 0.455000 -0.485286
v 1.858960 0.455000 -0.244737
v 3.000000 0.455000 -3.000000
v 0.000000 0.000000 -3.000000
v 0.000000 0.000000 -1.875000
v 3.000000 0.000000 -3.000000
v 0.750000 0.000000 0.000000
v 0.000000 0.000000 0.000000
v 0.000000 0.000000 -0.750000
v 0.750000 0.455000 0.000000
v 0.750000 0.550000 0.000000
v 0.000000 0.550000 0.000000
v 0.000000 0.455000 -0.750000
v 0.000000 0.550000 -0.750000
v 0.743584 0.550000 -0.097895
v 0.724444 0.550000 -0.194114
v 0.692910 0.550000 -0.287013
v 0.649519 0.550000 -0.375000
v 0.595015 0.550000 -0.456571
v 0.530330 0.550000 -0.530330
v 0.456571 0.550000 -0.595015
v 0.375000 0.550000 -0.649519
v 0.287013 0.550000 -0.692910
v 0.194114 0.550000 -0.724444
v 0.097895 0.550000 -0.743584
v 0.743584 0.455000 -0.097895
v 0.724444 0.455000 -0.194114
v 0.692910 0.455000 -0.287013
v 0.649519 0.455000 -0.375000
v 0.595015 0.455000 -0.456571
v 0.530330 0.455000 -0.530330
v 0.456571 0.455000 -0.595015
v 0.375000 0.455000 -0.649519
v 0.287013 0.455000 -0.692910
v 0.194114 0.455000 -0.724444
v 0.097895 0.455000 -0.743584
vt 1.875000 0.455000
vt 3.000000 0.000000
vt 3.000000 0.455000
vt 1.325830 1.325830
vt 1.487540 1.141430
vt 3.000000 3.000000
vt -1.875000 0.000000
vt -3.000000 0.455000
vt -3.000000 0.000000
vt -0.000000 0.455000
vt -3.000000 -0.000000
vt -0.000000 -0.000000
vt 0.000000 0.000000
vt 3.000000 0.455000
vt 0.000000 0.455000
vt 1.875000 0.000000
vt 0.000000 3.000000
vt 0.937500 1.623800
vt 0.000000 1.875000
vt 0.244737 1.858960
vt 0.485286 1.811110
vt 1.875000 0.000000
vt 3.000000 0.000000
vt 1.858960 0.244737
vt 1.623800 0.937500
vt 1.811110 0.485286
vt 1.732270 0.717531
vt 0.717531 1.732270
vt 1.141430 1.487540
vt -1.875000 0.455000
vt -3.000000 0.455000
vt 3.000000 0.000000
vt -0.000000 1.875000
vt -3.000000 3.000000
vt -1.875000 0.000000
vt 0.750000 0.455000
vt 0.750000 0.550000
vt 0.000000 0.550000
vt -0.750000 0.455000
vt -0.000000 -0.000000
vt 0.194114 0.724444
vt 0.097895 0.743584
vt 0.000000 0.000000
vt 0.049052 0.455000
vt -0.049052 0.550000
vt -0.049052 0.455000
vt 0.049052 0.455000
vt -0.049052 0.550000
vt -0.049052 0.455000
vt 0.049052 0.455000
vt -0.049052 0.550000
vt -0.049052 0.455000
vt 0.049052 0.455000
vt -0.049052 0.550000
vt -0.049052 0.455000
vt 0.049052 0.455000
vt -0.049052 0.550000
vt -0.049052 0.455000
vt 0.049052 0.455000
vt -0.049052 0.550000
vt -0.049052 0.455000
vt 0.049052 0.455000
vt -0.049052 0.550000
vt -0.049052 0.455000
vt 0.049052 0.455000
vt -0.049052 0.550000
vt -0.049052 0.455000
vt 0.049052 0.455000
vt -0.049052 0.550000
vt -0.049052 0.455000
vt 0.049052 0.455000
vt -0.049052 0.550000
vt -0.049052 0.455000
vt 0.049052 0.455000
vt -0.049052 0.550000
vt -0.049052 0.455000
vt 0.049052 0.455000
vt -0.049052 0.550000
vt -0.049052 0.455000
vt -0.750000 0.000000
vt -0.000000 0.750000
vt -0.000000 3.000000
vt -3.000000 0.000000
vt 0.750000 0.000000
vt -0.750000 0.550000
vt -0.750000 0.000000
vt 0.000000 0.750000
vt 0.750000 0.000000
vt 0.743584 0.097895
vt 0.724444 0.194114
vt 0.692910 0.287013
vt 0.649519 0.375000
vt 0.595015 0.456571
vt 0.530330 0.530330
vt 0.456571 0.595015
vt 0.375000 0.649519
vt 0.287013 0.692910
vt 0.049052 0.550000
vt 0.049052 0.550000
vt 0.049052 0.550000
vt 0.049052 0.550000
vt 0.049052 0.550000
vt 0.049052 0.550000
vt 0.049052 0.550000
vt 0.049052 0.550000
vt 0.049052 0.550000
vt 0.049052 0.550000
vt 0.049052 0.550000
vt 0.049052 0.550000
vt 0.530330 0.530330
vt 0.456571 0.595015
vt 0.743584 0.097895
vt 0.750000 0.000000
vt 0.724444 0.194114
vt 0.692910 0.287013
vt 0.649519 0.375000
vt 0.595015 0.456571
vt 0.287013 0.692910
vt 0.194114 0.724444
vt 0.097895 0.743584
vt 0.000000 0.750000
vt 0.375000 0.649519
vn 0.0000 -0.0000 1.0000
vn -0.0000 1.0000 0.0000
vn -1.0000 0.0000 0.0000
vn 0.0000 0.0000 -1.0000
vn 1.0000 0.0000 0.0000
vn -0.0000 -1.0000 -0.0000
vn 0.9914 0.0000 -0.1305
vn 0.9979 0.0000 -0.0654
vn 0.9659 0.0000 -0.2588
vn 0.9239 0.0000 -0.3827
vn 0.8660 0.0000 -0.5000
vn 0.7934 0.0000 -0.6088
vn 0.7071 0.0000 -0.7071
vn 0.6088 0.0000 -0.7934
vn 0.5000 0.0000 -0.8660
vn 0.3827 0.0000 -0.9239
vn 0.2588 0.0000 -0.9659
vn 0.1305 0.0000 -0.9914
vn 0.0654 0.0000 -0.9979
usemtl Water.017
s 1
f 2/1/1 4/2/1 1/3/1
f 12/4/2 13/5/2 18/6/2
f 20/7/3 5/8/3 19/9/3
f 5/10/4 21/11/4 19/12/4
f 4/13/5 18/14/5 1/15/5
f 2/1/1 3/16/1 4/2/1
f 18/6/2 5/17/2 10/18/2
f 5/17/2 6/19/2 7/20/2
f 5/17/2 7/20/2 8/21/2
f 2/22/2 1/23/2 17/24/2
f 1/23/2 18/6/2 14/25/2
f 17/24/2 1/23/2 16/26/2
f 16/26/2 1/23/2 15/27/2
f 5/17/2 8/21/2 9/28/2
f 5/17/2 9/28/2 10/18/2
f 15/27/2 1/23/2 14/25/2
f 18/6/2 10/18/2 11/29/2
f 13/5/2 14/25/2 18/6/2
f 18/6/2 11/29/2 12/4/2
f 20/7/3 6/30/3 5/8/3
f 5/10/4 18/31/4 21/11/4
f 4/13/5 21/32/5 18/14/5
usemtl Grass.035
f 20/33/6 21/34/6 3/35/6
f 25/36/1 26/37/1 27/38/1
f 27/38/3 28/39/3 23/40/3
f 39/41/2 40/42/2 27/43/2
f 41/44/7 26/45/8 25/46/8
f 42/47/9 30/48/7 41/49/7
f 43/50/10 31/51/9 42/52/9
f 44/53/11 32/54/10 43/55/10
f 45/56/12 33/57/11 44/58/11
f 46/59/13 34/60/12 45/61/12
f 47/62/14 35/63/13 46/64/13
f 48/65/15 36/66/14 47/67/14
f 49/68/16 37/69/15 48/70/15
f 50/71/17 38/72/16 49/73/16
f 51/74/18 39/75/17 50/76/17
f 28/77/19 40/78/18 51/79/18
f 3/35/6 22/80/6 24/81/6
f 22/80/6 23/40/6 24/81/6
f 24/81/6 20/33/6 3/35/6
f 20/33/6 19/82/6 21/34/6
f 21/34/6 4/83/6 3/35/6
f 27/38/1 23/40/1 25/36/1
f 23/40/1 22/84/1 25/36/1
f 29/85/3 28/39/3 27/38/3
f 28/39/3 24/86/3 23/40/3
f 29/87/2 27/43/2 40/42/2
f 27/43/2 26/88/2 30/89/2
f 31/90/2 27/43/2 30/89/2
f 31/90/2 32/91/2 27/43/2
f 32/91/2 33/92/2 27/43/2
f 33/92/2 34/93/2 27/43/2
f 34/93/2 35/94/2 27/43/2
f 35/94/2 36/95/2 27/43/2
f 36/95/2 37/96/2 27/43/2
f 37/96/2 38/97/2 27/43/2
f 38/97/2 39/41/2 27/43/2
f 41/44/7 30/98/7 26/45/8
f 42/47/9 31/99/9 30/48/7
f 43/50/10 32/100/10 31/51/9
f 44/53/11 33/101/11 32/54/10
f 45/56/12 34/102/12 33/57/11
f 46/59/13 35/103/13 34/60/12
f 47/62/14 36/104/14 35/63/13
f 48/65/15 37/105/15 36/66/14
f 49/68/16 38/106/16 37/69/15
f 50/71/17 39/107/17 38/72/16
f 51/74/18 40/108/18 39/75/17
f 28/77/19 29/109/19 40/78/18
usemtl Sand.001
f 3/16/1 25/36/1 22/84/1
f 46/110/2 11/29/2 47/111/2
f 6/30/3 24/86/3 28/39/3
f 3/16/1 2/1/1 25/36/1
f 41/112/2 25/113/2 2/22/2
f 2/22/2 17/24/2 41/112/2
f 17/24/2 16/26/2 42/114/2
f 42/114/2 16/26/2 43/115/2
f 16/26/2 15/27/2 43/115/2
f 15/27/2 14/25/2 43/115/2
f 14/25/2 13/5/2 44/116/2
f 13/5/2 12/4/2 45/117/2
f 14/25/2 44/116/2 43/115/2
f 12/4/2 11/29/2 46/110/2
f 11/29/2 10/18/2 47/111/2
f 10/18/2 9/28/2 49/118/2
f 9/28/2 8/21/2 50/119/2
f 8/21/2 7/20/2 50/119/2
f 7/20/2 6/19/2 51/120/2
f 50/119/2 7/20/2 51/120/2
f 6/19/2 28/121/2 51/120/2
f 9/28/2 50/119/2 49/118/2
f 45/117/2 12/4/2 46/110/2
f 42/114/2 41/112/2 17/24/2
f 44/116/2 13/5/2 45/117/2
f 10/18/2 49/118/2 48/122/2
f 10/18/2 48/122/2 47/111/2
f 6/30/3 20/7/3 24/86/3
