# Blender v2.79 (sub 7) OBJ File: ''
# www.blender.org
mtllib roadTile_149.mtl
o Mesh1_Group1_Model.292
v -0.750000 0.600000 -0.750000
v -1.500000 0.630000 -0.750000
v -1.500000 0.600000 -0.750000
v -1.500000 0.600000 0.750000
v 1.500000 0.630000 0.750000
v 1.500000 0.600000 0.750000
v -1.500000 0.000000 -1.125000
v -1.500000 0.000000 1.125000
v -1.500000 0.300000 -0.750000
v 1.500000 0.000000 1.125000
v 1.500000 0.000000 -1.125000
v 1.500000 0.300000 0.750000
v 0.750000 0.630000 -1.500000
v 1.125000 0.630000 -1.500000
v 1.125000 0.550000 -1.500000
v -1.125000 0.630000 -1.125000
v -1.500000 0.550000 -1.125000
v -1.500000 0.630000 -1.125000
v -0.750000 0.630000 -1.500000
v -1.125000 0.630000 -1.500000
v -0.750000 0.630000 -0.750000
v 0.750000 0.600000 -0.750000
v 0.750000 0.630000 -0.750000
v 1.500000 0.630000 -0.750000
v 1.500000 0.600000 -0.750000
v 1.125000 0.630000 -1.125000
v 1.500000 0.630000 -1.125000
v 1.125000 0.550000 -1.125000
v -1.125000 0.550000 -1.125000
v -1.500000 0.630000 1.125000
v -1.500000 0.630000 0.750000
v 1.500000 0.550000 1.125000
v 1.500000 0.630000 1.125000
v -1.500000 0.550000 1.125000
v -1.500000 0.300000 0.750000
v 1.500000 0.550000 -1.125000
v 1.500000 0.300000 -0.750000
v 1.125000 0.000000 -1.500000
v -1.125000 0.000000 -1.500000
v -1.125000 0.550000 -1.500000
v -1.500000 0.000000 1.500000
v 1.500000 0.550000 1.500000
v -1.500000 0.550000 1.500000
v 1.500000 0.000000 1.500000
v 1.500000 0.000000 -1.500000
v 1.500000 0.550000 -1.500000
v -1.500000 0.000000 -1.500000
v -1.500000 0.550000 -1.500000
vt 0.750000 0.600000
vt 0.000000 0.630000
vt 0.000000 0.600000
vt -0.000000 0.600000
vt -3.000000 0.630000
vt -3.000000 0.600000
vt -2.625000 -0.000000
vt -0.375000 -0.000000
vt -2.250000 0.300000
vt 0.375000 -0.000000
vt 2.625000 -0.000000
vt 0.750000 0.300000
vt -2.250000 0.630000
vt -2.625000 0.630000
vt -2.625000 0.550000
vt -0.375000 0.630000
vt -0.000000 0.550000
vt -0.000000 0.630000
vt 0.750000 3.000000
vt 0.375000 3.000000
vt 0.375000 2.625000
vt 2.250000 0.600000
vt 3.000000 0.630000
vt 2.250000 0.630000
vt 2.250000 3.022780
vt 0.750000 2.272180
vt 2.250000 2.272180
vt -3.000000 0.630000
vt -2.250000 0.600000
vt -2.250000 0.630000
vt 3.000000 0.630000
vt 2.250000 0.600000
vt 3.000000 0.600000
vt 2.625000 2.625000
vt 2.250000 3.000000
vt 2.250000 2.250000
vt -3.000000 0.630000
vt -2.625000 0.550000
vt -2.625000 0.630000
vt 2.625000 0.630000
vt 3.000000 0.550000
vt 3.000000 0.630000
vt -3.000000 0.630000
vt -2.625000 0.550000
vt -2.625000 0.630000
vt 0.000000 0.375000
vt 3.000000 0.750000
vt 0.000000 0.750000
vt 0.000000 0.630000
vt 3.000000 0.550000
vt 3.000000 0.630000
vt 0.750000 0.630000
vt -0.000000 0.630000
vt -0.375000 0.550000
vt -0.750000 0.300000
vt -0.375000 0.630000
vt -0.750000 0.600000
vt -0.750000 0.630000
vt -2.625000 0.630000
vt -2.625000 0.550000
vt -2.250000 0.600000
vt -2.250000 0.630000
vt 2.625000 0.550000
vt 2.250000 0.300000
vt 2.625000 0.630000
vt 2.250000 0.600000
vt 2.250000 0.630000
vt 0.375000 0.630000
vt 0.375000 0.550000
vt 0.750000 0.600000
vt 0.750000 0.630000
vt -2.625000 -0.000000
vt -0.375000 -0.000000
vt -0.375000 0.550000
vt -0.750000 0.630000
vt -0.375000 0.630000
vt -0.375000 0.550000
vt 0.000000 2.625000
vt 0.000000 2.250000
vt 0.750000 2.250000
vt 0.750000 3.022780
vt 2.250000 0.630000
vt 3.000000 2.250000
vt 3.000000 2.625000
vt 2.625000 3.000000
vt -3.000000 0.550000
vt 2.625000 0.550000
vt -3.000000 0.550000
vt 3.000000 0.375000
vt 0.000000 0.550000
vt 3.000000 0.750000
vt 2.250000 2.250000
vt 0.750000 2.250000
vt 0.000000 2.250000
vt 0.000000 0.750000
vt 3.000000 2.250000
vt -2.625000 3.000000
vt -3.000000 2.625000
vt -0.000000 0.375000
vt -0.000000 0.000000
vt 3.000000 0.550000
vt 0.000000 0.550000
vt 3.000000 0.375000
vt 0.000000 0.000000
vt 3.000000 0.000000
vt 0.000000 0.550000
vt 0.000000 -0.000000
vt 3.000000 -0.000000
vt 3.000000 0.550000
vt 2.625000 3.000000
vt 3.000000 2.625000
vt 3.000000 3.000000
vt -3.000000 0.550000
vt -3.000000 0.000000
vt -0.000000 0.000000
vt -0.000000 0.550000
vt 0.375000 2.625000
vt 0.000000 3.000000
vt 0.000000 2.625000
vt -3.000000 0.550000
vt -3.000000 -0.000000
vt -3.000000 0.375000
vt -3.000000 0.000000
vt -0.000000 2.625000
vt -0.375000 3.000000
vt 0.000000 3.000000
vt -3.000000 3.000000
vt 3.000000 0.000000
vt 0.000000 0.375000
vt 2.625000 2.625000
vt 0.375000 3.000000
vn 0.0000 0.0000 1.0000
vn 0.0000 0.0000 -1.0000
vn -1.0000 0.0000 0.0000
vn 1.0000 0.0000 0.0000
vn 0.0000 1.0000 0.0000
vn 0.0000 0.9992 0.0400
vn -0.0000 0.9998 0.0200
vn 0.0000 -1.0000 -0.0000
usemtl Stone.249
s 1
f 1/1/1 2/2/1 3/3/1
f 4/4/2 5/5/2 6/6/2
f 7/7/3 8/8/3 9/9/3
f 10/10/4 11/11/4 12/12/4
f 13/13/2 14/14/2 15/15/2
f 16/16/2 17/17/2 18/18/2
f 19/19/5 20/20/5 16/21/5
f 1/22/4 19/23/4 21/24/4
f 13/25/6 1/26/7 22/27/7
f 13/28/3 22/29/3 23/30/3
f 24/31/1 22/32/1 25/33/1
f 26/34/5 13/35/5 23/36/5
f 27/37/2 28/38/2 26/39/2
f 26/40/4 15/41/4 14/42/4
f 20/43/3 29/44/3 16/45/3
f 30/46/5 5/47/5 31/48/5
f 30/49/1 32/50/1 33/51/1
f 1/1/1 21/52/1 2/2/1
f 4/4/2 31/53/2 5/5/2
f 8/8/3 34/54/3 35/55/3
f 34/54/3 30/56/3 4/57/3
f 35/55/3 34/54/3 4/57/3
f 30/56/3 31/58/3 4/57/3
f 18/59/3 17/60/3 3/61/3
f 17/60/3 7/7/3 9/9/3
f 3/61/3 2/62/3 18/59/3
f 9/9/3 3/61/3 17/60/3
f 8/8/3 35/55/3 9/9/3
f 11/11/4 36/63/4 37/64/4
f 36/63/4 27/65/4 25/66/4
f 37/64/4 36/63/4 25/66/4
f 27/65/4 24/67/4 25/66/4
f 33/68/4 32/69/4 6/70/4
f 32/69/4 10/10/4 12/12/4
f 6/70/4 5/71/4 33/68/4
f 12/12/4 6/70/4 32/69/4
f 11/11/4 37/64/4 12/12/4
f 15/15/2 38/72/2 13/13/2
f 38/72/2 39/73/2 13/13/2
f 39/73/2 40/74/2 19/75/2
f 40/74/2 20/76/2 19/75/2
f 19/75/2 13/13/2 39/73/2
f 16/16/2 29/77/2 17/17/2
f 18/78/5 2/79/5 16/21/5
f 2/79/5 21/80/5 16/21/5
f 21/80/5 19/19/5 16/21/5
f 13/25/6 19/81/6 1/26/7
f 24/31/1 23/82/1 22/32/1
f 24/83/5 27/84/5 26/34/5
f 26/34/5 14/85/5 13/35/5
f 23/36/5 24/83/5 26/34/5
f 27/37/2 36/86/2 28/38/2
f 26/40/4 28/87/4 15/41/4
f 20/43/3 40/88/3 29/44/3
f 30/46/5 33/89/5 5/47/5
f 30/49/1 34/90/1 32/50/1
usemtl Asphalt.202
f 6/91/5 22/92/7 1/93/7
f 12/12/4 25/66/4 6/70/4
f 9/9/3 4/57/3 3/61/3
f 3/94/5 4/95/5 1/93/7
f 4/95/5 6/91/5 1/93/7
f 6/91/5 25/96/5 22/92/7
f 12/12/4 37/64/4 25/66/4
f 9/9/3 35/55/3 4/57/3
usemtl Grass.122
f 38/97/8 11/98/8 8/99/8
f 41/100/1 42/101/1 43/102/1
f 34/54/3 41/100/3 43/102/3
f 32/103/5 43/104/5 42/105/5
f 10/10/4 42/106/4 44/107/4
f 36/63/4 45/108/4 46/109/4
f 15/110/5 36/111/5 46/112/5
f 38/72/2 46/113/2 45/114/2
f 40/74/2 47/115/2 48/116/2
f 29/117/5 48/118/5 17/119/5
f 7/7/3 48/120/3 47/121/3
f 10/122/8 44/123/8 41/100/8
f 8/99/8 7/124/8 39/125/8
f 7/124/8 47/126/8 39/125/8
f 10/122/8 41/100/8 8/99/8
f 38/97/8 45/127/8 11/98/8
f 11/98/8 10/122/8 8/99/8
f 39/125/8 38/97/8 8/99/8
f 41/100/1 44/128/1 42/101/1
f 34/54/3 8/8/3 41/100/3
f 32/103/5 34/129/5 43/104/5
f 10/10/4 32/69/4 42/106/4
f 36/63/4 11/11/4 45/108/4
f 15/110/5 28/130/5 36/111/5
f 38/72/2 15/15/2 46/113/2
f 40/74/2 39/73/2 47/115/2
f 29/117/5 40/131/5 48/118/5
f 7/7/3 17/60/3 48/120/3
