# Blender v2.79 (sub 7) OBJ File: ''
# www.blender.org
mtllib roadTile_260.mtl
o Mesh1_Group1_Model.163
v 0.375000 0.630000 1.500000
v 0.937500 0.630000 1.500000
v 0.937500 0.630000 0.937500
v 1.500000 0.630000 0.375000
v 0.375000 0.600000 0.375000
v 0.375000 0.630000 0.375000
v 1.500000 0.000000 0.937500
v 1.500000 0.000000 -0.937500
v 1.500000 0.300000 0.375000
v 0.937500 0.000000 0.937500
v -0.937500 0.000000 0.937500
v -0.937500 0.000000 -0.937500
v 0.937500 0.000000 -1.500000
v -0.937500 0.000000 -1.500000
v 0.375000 0.315000 -1.500000
v -0.937500 0.630000 -1.500000
v -0.937500 0.630000 -0.937500
v -0.375000 0.630000 -1.500000
v -1.500000 0.630000 -0.375000
v -0.375000 0.600000 -0.375000
v -0.375000 0.630000 -0.375000
v -1.500000 0.300000 -0.375000
v -1.500000 0.000000 -0.937500
v -1.500000 0.000000 0.937500
v -1.500000 0.630000 -0.937500
v -1.500000 0.630000 0.937500
v -0.937500 0.630000 0.937500
v -1.500000 0.630000 0.375000
v -0.375000 0.630000 1.500000
v -0.375000 0.600000 0.375000
v -0.375000 0.630000 0.375000
v -0.937500 0.000000 1.500000
v 0.937500 0.000000 1.500000
v 0.375000 0.315000 1.500000
v -0.937500 0.630000 1.500000
v 1.500000 0.630000 0.937500
v 0.375000 0.600000 1.500000
v 0.375000 0.630000 -0.375000
v 1.500000 0.600000 -0.375000
v 1.500000 0.630000 -0.375000
v 0.937500 0.630000 -0.937500
v 0.375000 0.630000 -1.500000
v 1.500000 0.630000 -0.937500
v 0.937500 0.000000 -0.937500
v 0.937500 0.630000 -1.500000
v 0.375000 0.600000 -0.375000
v -0.375000 0.600000 -1.500000
v -1.500000 0.600000 0.375000
v 1.500000 0.600000 0.375000
v 1.500000 0.300000 -0.375000
v -0.375000 0.315000 -1.500000
v 0.375000 0.600000 -1.500000
v -1.500000 0.600000 -0.375000
v -1.500000 0.300000 0.375000
v -0.375000 0.600000 1.500000
v -0.375000 0.315000 1.500000
vt 1.875000 0.000000
vt 2.437500 0.000000
vt 2.437500 0.562500
vt -3.000000 0.630000
vt -1.875000 0.600000
vt -1.875000 0.630000
vt 0.562500 0.000000
vt 2.437500 0.000000
vt 1.125000 0.300000
vt -2.437500 0.562500
vt -0.562500 0.562500
vt -0.562500 2.437500
vt -2.437500 -0.000000
vt -0.562500 -0.000000
vt -1.875000 0.315000
vt -3.000000 0.630000
vt -2.437500 -0.000000
vt -2.437500 0.630000
vt 1.125000 3.000000
vt 0.562500 3.000000
vt 0.562500 2.437500
vt -0.000000 0.630000
vt 1.125000 0.600000
vt 1.125000 0.630000
vt -1.875000 0.300000
vt -2.437500 0.000000
vt -0.562500 0.000000
vt -0.562500 0.630000
vt 0.000000 -0.000000
vt 0.000000 0.630000
vt 0.000000 0.630000
vt 0.562500 0.000000
vt 0.562500 0.630000
vt 0.000000 1.125000
vt 0.000000 0.562500
vt 0.562500 0.562500
vt -0.000000 0.630000
vt 1.125000 0.600000
vt 1.125000 0.630000
vt 0.562500 0.000000
vt 2.437500 0.000000
vt 1.875000 0.315000
vt -0.562500 0.630000
vt 0.000000 0.000000
vt 0.000000 0.630000
vt -0.000000 0.630000
vt 0.562500 0.000000
vt 0.562500 0.630000
vt 2.437500 0.630000
vt 3.000000 0.000000
vt 3.000000 0.630000
vt -1.125000 0.630000
vt 0.000000 0.600000
vt 0.000000 0.630000
vt 1.875000 0.630000
vt 3.000000 0.600000
vt 3.000000 0.630000
vt 2.437500 2.437500
vt 1.875000 3.000000
vt 1.875000 1.875000
vt -3.000000 0.630000
vt -2.437500 0.000000
vt -2.437500 0.630000
vt 2.437500 0.630000
vt 3.000000 0.000000
vt 3.000000 0.630000
vt -3.000000 0.630000
vt -1.875000 0.600000
vt -1.875000 0.630000
vt 1.875000 0.630000
vt 3.000000 0.600000
vt 3.000000 0.630000
vt -1.125000 0.630000
vt 0.000000 0.600000
vt 0.000000 0.630000
vt 3.000000 0.562500
vt 3.000000 1.125000
vt 1.875000 1.125000
vt -3.000000 0.600000
vt 2.437500 0.630000
vt 1.875000 0.300000
vt 1.875000 0.630000
vt 1.875000 0.600000
vt 1.125000 0.630000
vt 0.562500 0.630000
vt 1.125000 0.600000
vt -0.562500 3.000000
vt -2.437500 3.000000
vt -2.437500 2.437500
vt -3.000000 2.437500
vt -3.000000 0.562500
vt 0.000000 0.562500
vt 0.000000 2.437500
vt -2.437500 0.000000
vt -0.562500 0.000000
vt -0.562500 0.630000
vt -1.125000 0.315000
vt -1.125000 0.630000
vt -1.125000 0.600000
vt -1.875000 0.630000
vt -2.437500 0.630000
vt -1.875000 0.600000
vt -3.000000 0.000000
vt 0.000000 2.437500
vt 0.000000 1.875000
vt 1.125000 1.875000
vt -0.000000 0.600000
vt -1.875000 0.630000
vt -2.437500 0.630000
vt -1.875000 0.600000
vt -0.562500 0.630000
vt -1.125000 0.300000
vt -1.125000 0.630000
vt -1.125000 0.600000
vt -0.562500 -0.000000
vt 0.000000 0.000000
vt 0.562500 0.000000
vt 1.125000 0.000000
vt 1.125000 1.125000
vt -0.000000 0.600000
vt 1.125000 0.630000
vt 0.562500 0.630000
vt 1.125000 0.600000
vt 1.125000 0.315000
vt 2.437500 0.630000
vt 1.875000 0.630000
vt 1.875000 0.600000
vt -0.562500 0.000000
vt -0.000000 0.000000
vt 2.437500 0.000000
vt -1.125000 0.600000
vt 1.875000 0.600000
vt 3.000000 1.875000
vt 3.000000 2.437500
vt 2.437500 3.000000
vt -3.000000 0.000000
vt 2.437500 0.000000
vt -3.000000 0.600000
vt 1.875000 0.600000
vt -1.125000 0.600000
vt 1.125000 1.875000
vt 1.125000 1.125000
vt 1.875000 1.125000
vt 3.000000 1.125000
vt 3.000000 1.875000
vt 1.875000 1.875000
vt 1.875000 3.000000
vt 1.125000 3.000000
vt -0.000000 1.875000
vt -0.000000 1.125000
vt 1.125000 0.000000
vt 1.875000 0.000000
vn 0.0000 1.0000 0.0000
vn 0.0000 0.0000 -1.0000
vn 1.0000 0.0000 0.0000
vn 0.0000 -1.0000 -0.0000
vn -1.0000 0.0000 0.0000
vn 0.0000 0.0000 1.0000
usemtl Stone.138
s 1
f 1/1/1 2/2/1 3/3/1
f 4/4/2 5/5/2 6/6/2
f 7/7/3 8/8/3 9/9/3
f 10/10/4 11/11/4 12/12/4
f 13/13/2 14/14/2 15/15/2
f 16/16/5 12/17/5 17/18/5
f 18/19/1 16/20/1 17/21/1
f 19/22/6 20/23/6 21/24/6
f 22/25/5 23/26/5 24/27/5
f 17/28/2 23/29/2 25/30/2
f 26/31/6 11/32/6 27/33/6
f 28/34/1 26/35/1 27/36/1
f 29/37/3 30/38/3 31/39/3
f 32/40/6 33/41/6 34/42/6
f 27/43/5 32/44/5 35/45/5
f 2/46/3 10/47/3 3/48/3
f 3/49/6 7/50/6 36/51/6
f 6/52/5 37/53/5 1/54/5
f 38/55/6 39/56/6 40/57/6
f 41/58/1 42/59/1 38/60/1
f 43/61/2 44/62/2 41/63/2
f 41/64/3 13/65/3 45/66/3
f 42/67/5 46/68/5 38/69/5
f 21/70/3 47/71/3 18/72/3
f 31/73/2 48/74/2 28/75/2
f 36/76/1 4/77/1 3/3/1
f 4/77/1 6/78/1 3/3/1
f 6/78/1 1/1/1 3/3/1
f 4/4/2 49/79/2 5/5/2
f 8/8/3 43/80/3 50/81/3
f 43/80/3 40/82/3 39/83/3
f 39/83/3 50/81/3 43/80/3
f 4/84/3 36/85/3 49/86/3
f 36/85/3 7/7/3 9/9/3
f 49/86/3 36/85/3 9/9/3
f 8/8/3 50/81/3 9/9/3
f 12/12/4 14/87/4 13/88/4
f 44/89/4 8/90/4 7/91/4
f 12/12/4 13/88/4 44/89/4
f 24/92/4 23/93/4 12/12/4
f 33/94/4 32/95/4 11/11/4
f 11/11/4 24/92/4 12/12/4
f 12/12/4 44/89/4 10/10/4
f 44/89/4 7/91/4 10/10/4
f 10/10/4 33/94/4 11/11/4
f 14/14/2 16/96/2 51/97/2
f 16/96/2 18/98/2 47/99/2
f 47/99/2 51/97/2 16/96/2
f 42/100/2 45/101/2 52/102/2
f 45/101/2 13/13/2 15/15/2
f 52/102/2 45/101/2 15/15/2
f 14/14/2 51/97/2 15/15/2
f 16/16/5 14/103/5 12/17/5
f 25/104/1 19/105/1 17/21/1
f 19/105/1 21/106/1 17/21/1
f 21/106/1 18/19/1 17/21/1
f 19/22/6 53/107/6 20/23/6
f 19/108/5 25/109/5 53/110/5
f 25/109/5 23/26/5 22/25/5
f 53/110/5 25/109/5 22/25/5
f 24/27/5 26/111/5 54/112/5
f 26/111/5 28/113/5 48/114/5
f 48/114/5 54/112/5 26/111/5
f 54/112/5 22/25/5 24/27/5
f 17/28/2 12/115/2 23/29/2
f 26/31/6 24/116/6 11/32/6
f 35/117/1 29/118/1 27/36/1
f 29/118/1 31/119/1 27/36/1
f 31/119/1 28/34/1 27/36/1
f 29/37/3 55/120/3 30/38/3
f 29/121/6 35/122/6 55/123/6
f 35/122/6 32/40/6 56/124/6
f 55/123/6 35/122/6 56/124/6
f 33/41/6 2/125/6 34/42/6
f 2/125/6 1/126/6 37/127/6
f 37/127/6 34/42/6 2/125/6
f 34/42/6 56/124/6 32/40/6
f 27/43/5 11/128/5 32/44/5
f 2/46/3 33/129/3 10/47/3
f 3/49/6 10/130/6 7/50/6
f 6/52/5 5/131/5 37/53/5
f 38/55/6 46/132/6 39/56/6
f 40/133/1 43/134/1 41/58/1
f 41/58/1 45/135/1 42/59/1
f 38/60/1 40/133/1 41/58/1
f 43/61/2 8/136/2 44/62/2
f 41/64/3 44/137/3 13/65/3
f 42/67/5 52/138/5 46/68/5
f 21/70/3 20/139/3 47/71/3
f 31/73/2 30/140/2 48/74/2
usemtl Asphalt.110
f 20/141/1 30/142/1 5/143/1
f 52/102/2 51/97/2 47/99/2
f 53/110/5 54/112/5 48/114/5
f 55/123/6 34/42/6 37/127/6
f 49/86/3 50/81/3 39/83/3
f 49/144/1 39/145/1 46/146/1
f 46/146/1 52/147/1 47/148/1
f 20/141/1 53/149/1 48/150/1
f 46/146/1 47/148/1 20/141/1
f 5/143/1 49/144/1 46/146/1
f 55/151/1 37/152/1 5/143/1
f 20/141/1 48/150/1 30/142/1
f 30/142/1 55/151/1 5/143/1
f 5/143/1 46/146/1 20/141/1
f 52/102/2 15/15/2 51/97/2
f 53/110/5 22/25/5 54/112/5
f 55/123/6 56/124/6 34/42/6
f 49/86/3 9/9/3 50/81/3
