# Blender v2.79 (sub 7) OBJ File: ''
# www.blender.org
mtllib roadTile_071.mtl
o Mesh1_Group1_Model.017
v -0.750000 0.600000 -0.750000
v -1.500000 0.600000 1.500000
v 1.500000 0.600000 1.500000
v -0.750000 0.300000 -1.500000
v 1.500000 0.600000 -1.500000
v 1.500000 0.300000 -1.500000
v 1.500000 0.300000 1.500000
v -1.500000 0.300000 1.500000
v -1.500000 0.600000 -0.750000
v -0.750000 0.600000 -1.500000
v -1.500000 0.300000 -0.750000
v 1.500000 0.000000 -1.500000
v -1.500000 0.000000 -1.500000
v 1.500000 0.000000 1.500000
v -1.500000 0.000000 1.500000
v -1.500000 0.630000 -0.750000
v -0.750000 0.630000 -0.750000
v -0.750000 0.630000 -1.500000
v -1.500000 0.630000 -1.500000
vt 0.750000 2.250000
vt 0.000000 0.000000
vt 3.000000 0.000000
vt -0.750000 0.300000
vt -3.000000 0.600000
vt -3.000000 0.300000
vt 0.000000 0.300000
vt 3.000000 0.600000
vt 0.000000 0.600000
vt 0.000000 0.300000
vt 3.000000 0.600000
vt 0.000000 0.600000
vt -2.250000 0.600000
vt 3.000000 3.000000
vt 0.750000 3.000000
vt 0.000000 2.250000
vt -0.750000 0.600000
vt 3.000000 0.300000
vt 3.000000 0.300000
vt -2.250000 0.300000
vt -3.000000 0.000000
vt 0.000000 0.000000
vt 0.000000 0.000000
vt 3.000000 0.000000
vt -0.000000 0.000000
vt -3.000000 0.000000
vt -0.000000 3.000000
vt -3.000000 3.000000
vt 3.000000 0.000000
vt 0.750000 0.600000
vt -0.000000 0.630000
vt -0.000000 0.600000
vt 3.000000 0.600000
vt 2.250000 0.630000
vt 2.250000 0.600000
vt 0.000000 2.250000
vt 0.750000 3.000000
vt 0.000000 3.000000
vt -0.750000 0.630000
vt 0.000000 0.630000
vt -2.250000 0.630000
vt -3.000000 0.630000
vt -3.000000 0.000000
vt 0.750000 0.630000
vt 3.000000 0.630000
vt 0.750000 2.250000
vn 0.0000 1.0000 0.0000
vn 0.0000 0.0000 -1.0000
vn 1.0000 0.0000 0.0000
vn 0.0000 0.0000 1.0000
vn -1.0000 0.0000 0.0000
vn 0.0000 -1.0000 -0.0000
usemtl Asphalt.008
s 1
f 1/1/1 2/2/1 3/3/1
f 4/4/2 5/5/2 6/6/2
f 7/7/3 5/8/3 3/9/3
f 8/10/4 3/11/4 2/12/4
f 9/13/5 8/10/5 2/12/5
f 3/3/1 5/14/1 1/1/1
f 5/14/1 10/15/1 1/1/1
f 1/1/1 9/16/1 2/2/1
f 4/4/2 10/17/2 5/5/2
f 7/7/3 6/18/3 5/8/3
f 8/10/4 7/19/4 3/11/4
f 9/13/5 11/20/5 8/10/5
usemtl Stone.014
f 4/4/2 12/21/2 13/22/2
f 6/18/3 14/23/3 12/24/3
f 15/25/5 8/10/5 11/20/5
f 14/26/6 13/27/6 12/28/6
f 8/10/4 14/29/4 7/19/4
f 1/30/4 16/31/4 9/32/4
f 10/33/3 17/34/3 1/35/3
f 16/36/1 18/37/1 19/38/1
f 18/39/2 10/17/2 19/40/2
f 10/17/2 4/4/2 19/40/2
f 19/40/2 4/4/2 13/22/2
f 4/4/2 6/6/2 12/21/2
f 6/18/3 7/7/3 14/23/3
f 16/41/5 19/42/5 9/13/5
f 19/42/5 13/43/5 11/20/5
f 9/13/5 19/42/5 11/20/5
f 13/43/5 15/25/5 11/20/5
f 14/26/6 15/25/6 13/27/6
f 8/10/4 15/25/4 14/29/4
f 1/30/4 17/44/4 16/31/4
f 10/33/3 18/45/3 17/34/3
f 16/36/1 17/46/1 18/37/1
