# Blender v2.79 (sub 7) OBJ File: ''
# www.blender.org
mtllib roadTile_155.mtl
o Mesh1_Group1_Model.141
v 0.782470 0.630000 0.232270
v 0.562500 0.600000 0.123800
v 0.562500 0.630000 0.123800
v 0.281250 0.630000 0.610937
v 0.358570 0.630000 -0.012460
v 0.937500 0.000000 -1.500000
v -0.937500 0.000000 -1.500000
v 0.375000 0.300000 -1.500000
v 0.942310 0.630000 -1.426580
v 0.937500 0.550000 -1.500000
v 0.937500 0.630000 -1.500000
v 1.218750 0.630000 -1.012860
v 1.157570 0.630000 -1.053740
v 0.937500 0.630000 -0.525720
v 1.500000 0.000000 0.937500
v 1.500000 0.000000 -0.937500
v 1.500000 0.300000 0.375000
v 1.500000 0.630000 -0.937500
v 1.426580 0.550000 -0.942310
v 1.426580 0.630000 -0.942310
v 1.354410 0.550000 -0.956670
v 1.354410 0.630000 -0.956670
v 1.284740 0.550000 -0.980320
v 1.284740 0.630000 -0.980320
v 1.218750 0.550000 -1.012860
v 1.157570 0.550000 -1.053740
v 1.102250 0.550000 -1.102250
v 1.102250 0.630000 -1.102250
v 1.053740 0.550000 -1.157570
v 1.053740 0.630000 -1.157570
v 1.012860 0.550000 -1.218750
v 1.012860 0.630000 -1.218750
v 0.980320 0.550000 -1.284740
v 0.980320 0.630000 -1.284740
v 0.956670 0.550000 -1.354410
v 0.956670 0.630000 -1.354410
v 0.942310 0.550000 -1.426580
v 1.353160 0.630000 -0.384620
v 1.500000 0.600000 -0.375000
v 1.500000 0.630000 -0.375000
v 1.208830 0.630000 -0.413330
v 1.353160 0.600000 -0.384620
v 1.069480 0.630000 -0.460640
v 1.208830 0.600000 -0.413330
v 1.069480 0.600000 -0.460640
v 0.815140 0.630000 -0.607480
v 0.937500 0.600000 -0.525720
v 0.704500 0.630000 -0.704500
v 0.815140 0.600000 -0.607480
v 0.607480 0.630000 -0.815140
v 0.704500 0.600000 -0.704500
v 0.525720 0.630000 -0.937500
v 0.607480 0.600000 -0.815140
v 0.460640 0.630000 -1.069480
v 0.525720 0.600000 -0.937500
v 0.413330 0.630000 -1.208830
v 0.460640 0.600000 -1.069480
v 0.384620 0.630000 -1.353160
v 0.413330 0.600000 -1.208830
v 0.375000 0.630000 -1.500000
v 0.384620 0.600000 -1.353160
v -0.358960 0.630000 -1.255260
v -0.375000 0.600000 -1.500000
v -0.375000 0.630000 -1.500000
v -0.311110 0.630000 -1.014710
v -0.358960 0.600000 -1.255260
v -0.232270 0.630000 -0.782470
v -0.311110 0.600000 -1.014710
v -0.123800 0.630000 -0.562500
v -0.232270 0.600000 -0.782470
v 0.012460 0.630000 -0.358570
v -0.123800 0.600000 -0.562500
v 0.174170 0.630000 -0.174170
v 0.012460 0.600000 -0.358570
v 0.174170 0.600000 -0.174170
v 0.358570 0.600000 -0.012460
v 1.014710 0.630000 0.311110
v 0.782470 0.600000 0.232270
v 1.255260 0.630000 0.358960
v 1.014710 0.600000 0.311110
v 1.500000 0.630000 0.375000
v 1.255260 0.600000 0.358960
v 1.181840 0.630000 0.916647
v 1.500000 0.550000 0.937500
v 1.500000 0.630000 0.937500
v 0.869130 0.630000 0.854444
v 1.181840 0.550000 0.916647
v 0.567210 0.630000 0.751956
v 0.869130 0.550000 0.854444
v 0.567210 0.550000 0.751956
v 0.016140 0.630000 0.433800
v 0.281250 0.550000 0.610937
v -0.223570 0.630000 0.223570
v 0.016140 0.550000 0.433800
v -0.433800 0.630000 -0.016140
v -0.223570 0.550000 0.223570
v -0.610937 0.630000 -0.281250
v -0.433800 0.550000 -0.016140
v -0.751956 0.630000 -0.567210
v -0.610937 0.550000 -0.281250
v -0.854444 0.630000 -0.869130
v -0.751956 0.550000 -0.567210
v -0.916647 0.630000 -1.181840
v -0.854444 0.550000 -0.869130
v -0.937500 0.630000 -1.500000
v -0.916647 0.550000 -1.181840
v -0.937500 0.550000 -1.500000
v -0.375000 0.300000 -1.500000
v 0.375000 0.600000 -1.500000
v 1.500000 0.550000 -0.937500
v 1.500000 0.300000 -0.375000
v 1.500000 0.600000 0.375000
v -1.500000 0.000000 1.500000
v 1.500000 0.550000 -1.500000
v 1.500000 0.000000 -1.500000
v -1.500000 0.550000 1.500000
v 1.500000 0.550000 1.500000
v 1.500000 0.000000 1.500000
v -1.500000 0.000000 -1.500000
v -1.500000 0.550000 -1.500000
vt -1.486380 0.630000
vt -1.241120 0.600000
vt -1.241120 0.630000
vt 1.781250 0.889063
vt 2.062500 1.376200
vt 1.858570 1.512460
vt -2.437500 -0.000000
vt -0.562500 -0.000000
vt -1.875000 0.300000
vt 2.760580 0.630000
vt 2.834160 0.550000
vt 2.834160 0.630000
vt 2.718750 2.512860
vt 2.657570 2.553740
vt 2.437500 2.025720
vt 0.562500 -0.000000
vt 2.437500 -0.000000
vt 1.125000 0.300000
vt -2.834160 0.630000
vt -2.760580 0.550000
vt -2.760580 0.630000
vt -2.393870 0.630000
vt -2.320300 0.550000
vt -2.320300 0.630000
vt -1.913260 0.630000
vt -1.839680 0.550000
vt -1.839680 0.630000
vt -1.400540 0.630000
vt -1.326960 0.550000
vt -1.326960 0.630000
vt -0.864487 0.630000
vt -0.790909 0.550000
vt -0.790909 0.630000
vt -0.314271 0.630000
vt -0.240693 0.550000
vt -0.240693 0.630000
vt 0.240693 0.630000
vt 0.314271 0.550000
vt 0.314271 0.630000
vt 0.790909 0.630000
vt 0.864487 0.550000
vt 0.864487 0.630000
vt 1.326960 0.630000
vt 1.400540 0.550000
vt 1.400540 0.630000
vt 1.839680 0.630000
vt 1.913260 0.550000
vt 1.913260 0.630000
vt 2.320300 0.630000
vt 2.393870 0.550000
vt 2.393870 0.630000
vt 2.723790 0.630000
vt 2.870950 0.600000
vt 2.870950 0.630000
vt 2.283510 0.630000
vt 2.430660 0.600000
vt 2.430660 0.630000
vt 1.802890 0.630000
vt 1.950050 0.600000
vt 1.950050 0.630000
vt 1.290170 0.630000
vt 1.437330 0.600000
vt 1.437330 0.630000
vt 0.754120 0.630000
vt 0.901277 0.600000
vt 0.901277 0.630000
vt 0.203903 0.630000
vt 0.351060 0.600000
vt 0.351060 0.630000
vt -0.351060 0.630000
vt -0.203903 0.600000
vt -0.203903 0.630000
vt -0.901277 0.630000
vt -0.754120 0.600000
vt -0.754120 0.630000
vt -1.437330 0.630000
vt -1.290170 0.600000
vt -1.290170 0.630000
vt -1.950050 0.630000
vt -1.802890 0.600000
vt -1.802890 0.630000
vt -2.430660 0.630000
vt -2.283510 0.600000
vt -2.283510 0.630000
vt -2.870950 0.630000
vt -2.723790 0.600000
vt -2.723790 0.630000
vt 2.674740 0.630000
vt 2.920000 0.600000
vt 2.920000 0.630000
vt 2.234450 0.630000
vt 2.479720 0.600000
vt 2.479720 0.630000
vt 1.753840 0.630000
vt 1.999100 0.600000
vt 1.999100 0.630000
vt 1.241120 0.630000
vt 1.486380 0.600000
vt 1.486380 0.630000
vt 0.705067 0.630000
vt 0.950329 0.600000
vt 0.950329 0.630000
vt 0.154851 0.630000
vt 0.400113 0.600000
vt 0.400113 0.630000
vt -0.400113 0.630000
vt -0.154851 0.600000
vt -0.154851 0.630000
vt -0.950329 0.630000
vt -0.705067 0.600000
vt -0.705067 0.630000
vt -1.999100 0.630000
vt -1.753840 0.600000
vt -1.753840 0.630000
vt -2.479720 0.630000
vt -2.234450 0.600000
vt -2.234450 0.630000
vt -2.920000 0.630000
vt -2.674740 0.600000
vt -2.674740 0.630000
vt 2.637950 0.630000
vt 2.956790 0.550000
vt 2.956790 0.630000
vt 2.197660 0.630000
vt 2.516510 0.550000
vt 2.516510 0.630000
vt 1.717050 0.630000
vt 2.035890 0.550000
vt 2.035890 0.630000
vt 1.204330 0.630000
vt 1.523170 0.550000
vt 1.523170 0.630000
vt 0.668278 0.630000
vt 0.987118 0.550000
vt 0.987118 0.630000
vt 0.118062 0.630000
vt 0.436902 0.550000
vt 0.436902 0.630000
vt -0.436902 0.630000
vt -0.118062 0.550000
vt -0.118062 0.630000
vt -0.987118 0.630000
vt -0.668278 0.550000
vt -0.668278 0.630000
vt -1.523170 0.630000
vt -1.204330 0.550000
vt -1.204330 0.630000
vt -2.035890 0.630000
vt -1.717050 0.550000
vt -1.717050 0.630000
vt -2.516510 0.630000
vt -2.197660 0.550000
vt -2.197660 0.630000
vt -2.956790 0.630000
vt -2.637950 0.550000
vt -2.637950 0.630000
vt -1.486380 0.600000
vt 1.141040 2.755260
vt 1.125000 3.000000
vt 0.562500 3.000000
vt 0.583353 2.681840
vt 0.645556 2.369130
vt 1.188890 2.514710
vt 0.748044 2.067210
vt 0.889063 1.781250
vt 1.376200 2.062500
vt 1.267730 2.282470
vt 1.066200 1.516140
vt 1.276430 1.276430
vt 1.512460 1.858570
vt 1.516140 1.066200
vt 1.674170 1.674170
vt 2.067210 0.748044
vt 2.369130 0.645556
vt 2.514710 1.188890
vt 2.681840 0.583353
vt 3.000000 0.562500
vt 2.755260 1.141040
vt 3.000000 1.125000
vt 2.282470 1.267730
vt -0.562500 0.550000
vt -1.125000 0.300000
vt -0.562500 0.630000
vt -1.125000 0.600000
vt -1.125000 0.630000
vt -2.437500 0.630000
vt -2.437500 0.550000
vt -1.875000 0.600000
vt -1.875000 0.630000
vt 2.760580 0.550000
vt 2.853160 1.884620
vt 3.000000 1.875000
vt 2.926580 2.442310
vt 3.000000 2.437500
vt 2.569480 1.960640
vt 2.708830 1.913330
vt 2.854410 2.456670
vt 2.315140 2.107480
vt 2.602250 2.602250
vt 2.107480 2.315140
vt 2.204500 2.204500
vt 2.553740 2.657570
vt 2.512860 2.718750
vt 1.960640 2.569480
vt 2.025720 2.437500
vt 2.480320 2.784740
vt 1.884620 2.853160
vt 1.913330 2.708830
vt 2.456670 2.854410
vt 2.437500 3.000000
vt 1.875000 3.000000
vt 2.442310 2.926580
vt 2.784740 2.480320
vt 2.437500 0.550000
vt 1.875000 0.300000
vt 2.437500 0.630000
vt 1.875000 0.600000
vt 1.875000 0.630000
vt 0.562500 0.630000
vt 0.562500 0.550000
vt 1.125000 0.600000
vt 1.125000 0.630000
vt -2.834160 0.550000
vt -2.393870 0.550000
vt -1.913260 0.550000
vt -1.400540 0.550000
vt -0.864487 0.550000
vt -0.314271 0.550000
vt 0.240693 0.550000
vt 0.790909 0.550000
vt 1.326960 0.550000
vt 1.839680 0.550000
vt 2.320300 0.550000
vt 2.723790 0.600000
vt 2.283510 0.600000
vt 1.802890 0.600000
vt 1.290170 0.600000
vt 0.754120 0.600000
vt 0.203903 0.600000
vt -0.351060 0.600000
vt -0.901277 0.600000
vt -1.437330 0.600000
vt -1.950050 0.600000
vt -2.430660 0.600000
vt -2.870950 0.600000
vt 2.674740 0.600000
vt 2.234450 0.600000
vt 1.753840 0.600000
vt 1.241120 0.600000
vt 0.705067 0.600000
vt 0.154851 0.600000
vt -0.400113 0.600000
vt -0.950329 0.600000
vt -1.999100 0.600000
vt -2.479720 0.600000
vt -2.920000 0.600000
vt 2.637950 0.550000
vt 2.197660 0.550000
vt 1.717050 0.550000
vt 1.204330 0.550000
vt 0.668278 0.550000
vt 0.118062 0.550000
vt -0.436902 0.550000
vt -0.987118 0.550000
vt -1.523170 0.550000
vt -2.035890 0.550000
vt -2.516510 0.550000
vt -2.956790 0.550000
vt -3.000000 0.562500
vt 0.000000 0.000000
vt -0.562500 3.000000
vt -3.000000 0.550000
vt -3.000000 -0.000000
vt 2.854410 2.456670
vt 2.926580 2.442310
vt 3.000000 3.000000
vt 3.000000 0.000000
vt 3.000000 0.550000
vt 1.276430 1.276430
vt 1.066200 1.516140
vt 0.000000 0.000000
vt 0.000000 0.550000
vt 0.000000 0.000000
vt 3.000000 0.550000
vt -0.000000 0.550000
vt -3.000000 0.000000
vt -3.000000 0.550000
vt -0.000000 -0.000000
vt -0.000000 0.550000
vt -2.437500 3.000000
vt -3.000000 2.437500
vt -3.000000 3.000000
vt -3.000000 -0.000000
vt -0.000000 3.000000
vt 3.000000 2.437500
vt 2.437500 3.000000
vt 2.442310 2.926580
vt 2.456670 2.854410
vt 2.480320 2.784740
vt 2.512860 2.718750
vt 2.553740 2.657570
vt 2.602250 2.602250
vt 2.657570 2.553740
vt 2.718750 2.512860
vt 2.784740 2.480320
vt 3.000000 0.000000
vt 2.067210 0.748044
vt 3.000000 0.562500
vt 2.681840 0.583353
vt 2.369130 0.645556
vt 0.562500 3.000000
vt 0.000000 3.000000
vt 0.583353 2.681840
vt 0.748044 2.067210
vt 0.645556 2.369130
vt 1.781250 0.889063
vt 1.516140 1.066200
vt 0.889063 1.781250
vt 3.000000 0.000000
vt 2.062500 1.376200
vt 2.437500 2.025720
vt 2.315140 2.107480
vt 1.884620 2.853160
vt 1.875000 3.000000
vt 1.125000 3.000000
vt 1.141040 2.755260
vt 1.188890 2.514710
vt 1.913330 2.708830
vt 1.267730 2.282470
vt 1.376200 2.062500
vt 1.960640 2.569480
vt 1.512460 1.858570
vt 2.025720 2.437500
vt 1.674170 1.674170
vt 2.107480 2.315140
vt 1.858570 1.512460
vt 2.204500 2.204500
vt 2.282470 1.267730
vt 2.569480 1.960640
vt 2.514710 1.188890
vt 2.708830 1.913330
vt 2.755260 1.141040
vt 3.000000 1.125000
vt 2.853160 1.884620
vt 3.000000 1.875000
vn 0.3827 0.0000 -0.9239
vn 0.5000 0.0000 -0.8660
vn 0.0000 1.0000 0.0000
vn -0.0000 0.0000 -1.0000
vn 0.9914 0.0000 -0.1305
vn 0.9979 0.0000 -0.0654
vn 1.0000 0.0000 0.0000
vn 0.0654 0.0000 -0.9979
vn 0.1305 0.0000 -0.9914
vn 0.2588 0.0000 -0.9659
vn 0.6087 0.0000 -0.7934
vn 0.7071 0.0000 -0.7071
vn 0.7934 0.0000 -0.6087
vn 0.8660 0.0000 -0.5000
vn 0.9239 0.0000 -0.3827
vn 0.9659 0.0000 -0.2588
vn -0.1305 0.0000 0.9914
vn -0.0654 0.0000 0.9979
vn -0.2588 0.0000 0.9659
vn -0.3827 0.0000 0.9239
vn -0.5000 0.0000 0.8660
vn -0.6087 0.0000 0.7934
vn -0.7071 0.0000 0.7071
vn -0.7934 0.0000 0.6087
vn -0.8660 0.0000 0.5000
vn -0.9239 0.0000 0.3827
vn -0.9659 0.0000 0.2588
vn -0.9914 0.0000 0.1305
vn -0.9979 0.0000 0.0654
vn 0.7934 0.0000 -0.6088
vn 0.6088 0.0000 -0.7934
vn -0.6088 0.0000 0.7933
vn -0.7933 0.0000 0.6088
vn 0.0000 -1.0000 -0.0000
vn 0.0000 0.0000 1.0000
vn -1.0000 0.0000 0.0000
usemtl Stone.120
s 1
f 1/1/1 2/2/2 3/3/2
f 4/4/3 3/5/3 5/6/3
f 6/7/4 7/8/4 8/9/4
f 9/10/5 10/11/6 11/12/6
f 12/13/3 13/14/3 14/15/3
f 15/16/7 16/17/7 17/18/7
f 18/19/8 19/20/9 20/21/9
f 20/22/9 21/23/10 22/24/10
f 22/25/10 23/26/1 24/27/1
f 24/28/1 25/29/2 12/30/2
f 12/31/2 26/32/11 13/33/11
f 13/34/11 27/35/12 28/36/12
f 28/37/12 29/38/13 30/39/13
f 30/40/13 31/41/14 32/42/14
f 32/43/14 33/44/15 34/45/15
f 34/46/15 35/47/16 36/48/16
f 36/49/16 37/50/5 9/51/5
f 38/52/17 39/53/18 40/54/18
f 41/55/19 42/56/17 38/57/17
f 43/58/20 44/59/19 41/60/19
f 14/61/21 45/62/20 43/63/20
f 46/64/22 47/65/21 14/66/21
f 48/67/23 49/68/22 46/69/22
f 50/70/24 51/71/23 48/72/23
f 52/73/25 53/74/24 50/75/24
f 54/76/26 55/77/25 52/78/25
f 56/79/27 57/80/26 54/81/26
f 58/82/28 59/83/27 56/84/27
f 60/85/29 61/86/28 58/87/28
f 62/88/5 63/89/6 64/90/6
f 65/91/16 66/92/5 62/93/5
f 67/94/15 68/95/16 65/96/16
f 69/97/14 70/98/15 67/99/15
f 71/100/30 72/101/14 69/102/14
f 73/103/12 74/104/30 71/105/30
f 5/106/31 75/107/12 73/108/12
f 3/109/2 76/110/31 5/111/31
f 77/112/10 78/113/1 1/114/1
f 79/115/9 80/116/10 77/117/10
f 81/118/8 82/119/9 79/120/9
f 83/121/17 84/122/18 85/123/18
f 86/124/19 87/125/17 83/126/17
f 88/127/20 89/128/19 86/129/19
f 4/130/21 90/131/20 88/132/20
f 91/133/32 92/134/21 4/135/21
f 93/136/23 94/137/32 91/138/32
f 95/139/33 96/140/23 93/141/23
f 97/142/25 98/143/33 95/144/33
f 99/145/26 100/146/25 97/147/25
f 101/148/27 102/149/26 99/150/26
f 103/151/28 104/152/27 101/153/27
f 105/154/29 106/155/28 103/156/28
f 1/1/1 78/157/1 2/2/2
f 62/158/3 64/159/3 105/160/3
f 105/160/3 103/161/3 62/158/3
f 103/161/3 101/162/3 65/163/3
f 101/162/3 99/164/3 65/163/3
f 99/164/3 97/165/3 69/166/3
f 67/167/3 99/164/3 69/166/3
f 97/165/3 95/168/3 69/166/3
f 95/168/3 93/169/3 71/170/3
f 69/166/3 95/168/3 71/170/3
f 93/169/3 91/171/3 73/172/3
f 91/171/3 4/4/3 5/6/3
f 73/172/3 91/171/3 5/6/3
f 4/4/3 88/173/3 3/5/3
f 88/173/3 86/174/3 77/175/3
f 86/174/3 83/176/3 77/175/3
f 83/176/3 85/177/3 79/178/3
f 77/175/3 83/176/3 79/178/3
f 85/177/3 81/179/3 79/178/3
f 88/173/3 77/175/3 1/180/3
f 103/161/3 65/163/3 62/158/3
f 99/164/3 67/167/3 65/163/3
f 88/173/3 1/180/3 3/5/3
f 71/170/3 93/169/3 73/172/3
f 7/8/4 107/181/4 108/182/4
f 107/181/4 105/183/4 63/184/4
f 108/182/4 107/181/4 63/184/4
f 105/183/4 64/185/4 63/184/4
f 11/186/4 10/187/4 109/188/4
f 10/187/4 6/7/4 8/9/4
f 109/188/4 60/189/4 11/186/4
f 8/9/4 109/188/4 10/187/4
f 7/8/4 108/182/4 8/9/4
f 9/10/5 37/190/5 10/11/6
f 38/191/3 40/192/3 20/193/3
f 40/192/3 18/194/3 20/193/3
f 43/195/3 41/196/3 22/197/3
f 41/196/3 38/191/3 20/193/3
f 46/198/3 14/15/3 13/14/3
f 14/15/3 43/195/3 12/13/3
f 46/198/3 13/14/3 28/199/3
f 50/200/3 48/201/3 30/202/3
f 48/201/3 46/198/3 28/199/3
f 50/200/3 30/202/3 32/203/3
f 54/204/3 52/205/3 34/206/3
f 52/205/3 50/200/3 32/203/3
f 34/206/3 52/205/3 32/203/3
f 58/207/3 56/208/3 36/209/3
f 56/208/3 54/204/3 34/206/3
f 11/210/3 60/211/3 9/212/3
f 60/211/3 58/207/3 9/212/3
f 56/208/3 34/206/3 36/209/3
f 41/196/3 20/193/3 22/197/3
f 36/209/3 9/212/3 58/207/3
f 43/195/3 22/197/3 24/213/3
f 43/195/3 24/213/3 12/13/3
f 30/202/3 48/201/3 28/199/3
f 16/17/7 110/214/7 111/215/7
f 110/214/7 18/216/7 39/217/7
f 111/215/7 110/214/7 39/217/7
f 18/216/7 40/218/7 39/217/7
f 85/219/7 84/220/7 112/221/7
f 84/220/7 15/16/7 17/18/7
f 112/221/7 81/222/7 85/219/7
f 17/18/7 112/221/7 84/220/7
f 16/17/7 111/215/7 17/18/7
f 18/19/8 110/223/8 19/20/9
f 20/22/9 19/224/9 21/23/10
f 22/25/10 21/225/10 23/26/1
f 24/28/1 23/226/1 25/29/2
f 12/31/2 25/227/2 26/32/11
f 13/34/11 26/228/11 27/35/12
f 28/37/12 27/229/12 29/38/13
f 30/40/13 29/230/13 31/41/14
f 32/43/14 31/231/14 33/44/15
f 34/46/15 33/232/15 35/47/16
f 36/49/16 35/233/16 37/50/5
f 38/52/17 42/234/17 39/53/18
f 41/55/19 44/235/19 42/56/17
f 43/58/20 45/236/20 44/59/19
f 14/61/21 47/237/21 45/62/20
f 46/64/22 49/238/22 47/65/21
f 48/67/23 51/239/23 49/68/22
f 50/70/24 53/240/24 51/71/23
f 52/73/25 55/241/25 53/74/24
f 54/76/26 57/242/26 55/77/25
f 56/79/27 59/243/27 57/80/26
f 58/82/28 61/244/28 59/83/27
f 60/85/29 109/245/29 61/86/28
f 62/88/5 66/246/5 63/89/6
f 65/91/16 68/247/16 66/92/5
f 67/94/15 70/248/15 68/95/16
f 69/97/14 72/249/14 70/98/15
f 71/100/30 74/250/30 72/101/14
f 73/103/12 75/251/12 74/104/30
f 5/106/31 76/252/31 75/107/12
f 3/109/2 2/253/2 76/110/31
f 77/112/10 80/254/10 78/113/1
f 79/115/9 82/255/9 80/116/10
f 81/118/8 112/256/8 82/119/9
f 83/121/17 87/257/17 84/122/18
f 86/124/19 89/258/19 87/125/17
f 88/127/20 90/259/20 89/128/19
f 4/130/21 92/260/21 90/131/20
f 91/133/32 94/261/32 92/134/21
f 93/136/23 96/262/23 94/137/32
f 95/139/33 98/263/33 96/140/23
f 97/142/25 100/264/25 98/143/33
f 99/145/26 102/265/26 100/146/25
f 101/148/27 104/266/27 102/149/26
f 103/151/28 106/267/28 104/152/27
f 105/154/29 107/268/29 106/155/28
usemtl Grass.064
f 15/269/34 113/270/34 7/271/34
f 6/7/4 114/272/4 115/273/4
f 21/274/3 19/275/3 114/276/3
f 110/214/7 115/277/7 114/278/7
f 96/279/3 98/280/3 116/281/3
f 15/16/7 117/282/7 118/283/7
f 113/270/35 117/284/35 116/285/35
f 119/286/36 116/285/36 120/287/36
f 107/181/4 119/288/4 120/289/4
f 7/271/34 6/290/34 16/291/34
f 6/290/34 115/292/34 16/291/34
f 16/291/34 15/269/34 7/271/34
f 15/269/34 118/293/34 113/270/34
f 113/270/34 119/294/34 7/271/34
f 6/7/4 10/187/4 114/272/4
f 110/295/3 114/276/3 19/275/3
f 114/276/3 10/296/3 37/297/3
f 35/298/3 114/276/3 37/297/3
f 35/298/3 33/299/3 114/276/3
f 33/299/3 31/300/3 114/276/3
f 31/300/3 29/301/3 114/276/3
f 29/301/3 27/302/3 114/276/3
f 27/302/3 26/303/3 114/276/3
f 26/303/3 25/304/3 114/276/3
f 25/304/3 23/305/3 114/276/3
f 23/305/3 21/274/3 114/276/3
f 110/214/7 16/17/7 115/277/7
f 116/281/3 117/306/3 90/307/3
f 117/306/3 84/308/3 87/309/3
f 117/306/3 87/309/3 89/310/3
f 107/311/3 120/312/3 106/313/3
f 120/312/3 116/281/3 102/314/3
f 106/313/3 120/312/3 104/315/3
f 104/315/3 120/312/3 102/314/3
f 117/306/3 89/310/3 90/307/3
f 116/281/3 90/307/3 92/316/3
f 116/281/3 92/316/3 94/317/3
f 100/318/3 102/314/3 116/281/3
f 98/280/3 100/318/3 116/281/3
f 116/281/3 94/317/3 96/279/3
f 15/16/7 84/220/7 117/282/7
f 113/270/35 118/319/35 117/284/35
f 119/286/36 113/270/36 116/285/36
f 107/181/4 7/8/4 119/288/4
usemtl Asphalt.094
f 2/320/3 47/321/3 49/322/3
f 8/9/4 63/184/4 109/188/4
f 17/18/7 39/217/7 112/221/7
f 61/323/3 109/324/3 63/325/3
f 63/325/3 66/326/3 61/323/3
f 66/326/3 68/327/3 59/328/3
f 68/327/3 70/329/3 59/328/3
f 70/329/3 72/330/3 57/331/3
f 72/330/3 74/332/3 55/333/3
f 74/332/3 75/334/3 53/335/3
f 55/333/3 74/332/3 53/335/3
f 75/334/3 76/336/3 51/337/3
f 76/336/3 2/320/3 49/322/3
f 51/337/3 76/336/3 49/322/3
f 2/320/3 78/338/3 45/339/3
f 78/338/3 80/340/3 44/341/3
f 80/340/3 82/342/3 44/341/3
f 82/342/3 112/343/3 42/344/3
f 44/341/3 82/342/3 42/344/3
f 112/343/3 39/345/3 42/344/3
f 78/338/3 44/341/3 45/339/3
f 72/330/3 55/333/3 57/331/3
f 66/326/3 59/328/3 61/323/3
f 70/329/3 57/331/3 59/328/3
f 53/335/3 75/334/3 51/337/3
f 2/320/3 45/339/3 47/321/3
f 8/9/4 108/182/4 63/184/4
f 17/18/7 111/215/7 39/217/7
