# Blender v2.79 (sub 7) OBJ File: ''
# www.blender.org
mtllib roadTile_080.mtl
o Mesh1_Group1_Model.238
v 1.125000 0.600000 0.750000
v 1.125000 0.600000 -0.750000
v -1.125000 0.600000 -0.750000
v 1.500000 0.300000 0.750000
v 1.500000 0.600000 -0.750000
v 1.500000 0.600000 0.750000
v -1.500000 0.300000 -0.750000
v -1.500000 0.600000 0.750000
v -1.500000 0.600000 -0.750000
v -1.125000 0.600000 0.750000
v -0.750000 0.600000 1.312500
v 0.750000 0.600000 1.312500
v 0.750000 0.600000 -1.312500
v -0.750000 0.600000 -1.312500
v 1.500000 0.300000 -0.750000
v -1.500000 0.300000 0.750000
v -1.500000 0.630000 0.750000
v -1.125000 0.630000 0.750000
v -0.750000 0.630000 1.312500
v -1.500000 0.630000 1.500000
v 1.500000 0.630000 1.500000
v 1.500000 0.630000 0.750000
v 1.125000 0.630000 0.750000
v 0.750000 0.630000 1.312500
v 1.500000 0.000000 1.500000
v 1.500000 0.000000 -1.500000
v -1.500000 0.000000 1.500000
v -1.500000 0.000000 -1.500000
v -1.500000 0.630000 -1.500000
v 1.500000 0.630000 -1.500000
v 0.750000 0.630000 -1.312500
v 1.125000 0.630000 -0.750000
v -0.750000 0.630000 -1.312500
v -1.125000 0.630000 -0.750000
v -1.500000 0.630000 -0.750000
v 1.500000 0.630000 -0.750000
vt 2.625000 0.750000
vt 2.625000 2.250000
vt 0.375000 2.250000
vt 0.750000 0.300000
vt 2.250000 0.600000
vt 0.750000 0.600000
vt -2.250000 0.300000
vt -0.750000 0.600000
vt -2.250000 0.600000
vt 0.000000 2.250000
vt 0.000000 0.750000
vt 0.375000 0.750000
vt 0.750000 0.187500
vt 2.250000 0.187500
vt 3.000000 0.750000
vt 3.000000 2.250000
vt 2.250000 2.812500
vt 0.750000 2.812500
vt 2.250000 0.300000
vt -0.750000 0.300000
vt -0.375000 0.600000
vt -0.000000 0.630000
vt -0.375000 0.630000
vt -0.260016 0.630000
vt 0.416025 0.600000
vt 0.416025 0.630000
vt 0.750000 0.187500
vt 0.000000 -0.000000
vt 3.000000 0.000000
vt -2.625000 0.600000
vt -3.000000 0.630000
vt -3.000000 0.600000
vt -2.080130 0.630000
vt -1.404080 0.600000
vt -1.404080 0.630000
vt -2.250000 0.630000
vt -0.750000 0.600000
vt -0.750000 0.630000
vt -0.000000 -0.000000
vt 3.000000 -0.000000
vt 0.000000 0.000000
vt 3.000000 0.630000
vt 0.000000 0.630000
vt -3.000000 -0.000000
vt -3.000000 3.000000
vt -3.000000 0.000000
vt -3.000000 0.000000
vt -0.000000 0.630000
vt -3.000000 0.630000
vt 2.250000 2.812500
vt 3.000000 3.000000
vt 0.000000 3.000000
vt -1.092070 0.630000
vt -0.416025 0.600000
vt -0.416025 0.630000
vt 0.750000 0.630000
vt 2.250000 0.600000
vt 2.250000 0.630000
vt 2.080130 0.630000
vt 2.756170 0.600000
vt 2.756170 0.630000
vt 0.375000 0.600000
vt 0.000000 0.630000
vt 0.000000 0.600000
vt 2.625000 0.600000
vt 3.000000 0.630000
vt 2.625000 0.630000
vt -0.000000 0.600000
vt -0.260016 0.600000
vt 3.000000 0.750000
vt 2.625000 0.750000
vt 2.250000 0.187500
vt 0.375000 0.750000
vt 0.000000 0.750000
vt -2.625000 0.630000
vt -2.080130 0.600000
vt -2.250000 0.600000
vt 2.250000 0.630000
vt 3.000000 0.630000
vt -0.000000 0.630000
vt 0.750000 0.630000
vt 3.000000 0.000000
vt -0.750000 0.630000
vt -2.250000 0.630000
vt -3.000000 0.630000
vt 0.000000 3.000000
vt -0.000000 0.000000
vt 2.625000 2.250000
vt 3.000000 2.250000
vt 0.000000 2.250000
vt 0.375000 2.250000
vt 0.750000 2.812500
vt -1.092070 0.600000
vt 0.750000 0.600000
vt 2.080130 0.600000
vt 0.375000 0.630000
vt 3.000000 0.600000
vn 0.0000 1.0000 0.0000
vn 1.0000 0.0000 0.0000
vn -1.0000 0.0000 0.0000
vn 0.0000 0.0000 -1.0000
vn 0.8321 0.0000 -0.5547
vn -0.8321 0.0000 -0.5547
vn 0.0000 0.0000 1.0000
vn 0.0000 -1.0000 -0.0000
vn -0.8321 0.0000 0.5547
vn 0.8321 0.0000 0.5547
usemtl Asphalt.166
s 1
f 1/1/1 2/2/1 3/3/1
f 4/4/2 5/5/2 6/6/2
f 7/7/3 8/8/3 9/9/3
f 9/10/1 8/11/1 10/12/1
f 10/12/1 11/13/1 12/14/1
f 1/1/1 6/15/1 5/16/1
f 10/12/1 12/14/1 1/1/1
f 3/3/1 9/10/1 10/12/1
f 13/17/1 14/18/1 3/3/1
f 1/1/1 5/16/1 2/2/1
f 2/2/1 13/17/1 3/3/1
f 3/3/1 10/12/1 1/1/1
f 4/4/2 15/19/2 5/5/2
f 7/7/3 16/20/3 8/8/3
usemtl Stone.202
f 10/21/4 17/22/4 18/23/4
f 19/24/5 10/25/5 18/26/5
f 19/27/1 20/28/1 21/29/1
f 1/30/4 22/31/4 6/32/4
f 23/33/6 12/34/6 24/35/6
f 24/36/4 11/37/4 19/38/4
f 4/4/2 25/39/2 26/40/2
f 27/41/7 21/42/7 20/43/7
f 28/44/3 27/41/3 7/7/3
f 27/41/8 26/45/8 25/46/8
f 26/47/4 29/48/4 30/49/4
f 31/50/1 30/51/1 29/52/1
f 31/53/9 2/54/9 32/55/9
f 33/56/7 13/57/7 31/58/7
f 34/59/10 14/60/10 33/61/10
f 3/62/7 35/63/7 9/64/7
f 2/65/7 36/66/7 32/67/7
f 10/21/4 8/68/4 17/22/4
f 19/24/5 11/69/5 10/25/5
f 21/29/1 22/70/1 23/71/1
f 21/29/1 23/71/1 24/72/1
f 18/73/1 17/74/1 20/28/1
f 21/29/1 24/72/1 19/27/1
f 19/27/1 18/73/1 20/28/1
f 1/30/4 23/75/4 22/31/4
f 23/33/6 1/76/6 12/34/6
f 24/36/4 12/77/4 11/37/4
f 36/78/2 5/5/2 30/79/2
f 5/5/2 15/19/2 30/79/2
f 4/4/2 6/6/2 21/80/2
f 6/6/2 22/81/2 21/80/2
f 26/40/2 30/79/2 15/19/2
f 4/4/2 21/80/2 25/39/2
f 26/40/2 15/19/2 4/4/2
f 27/41/7 25/82/7 21/42/7
f 27/41/3 20/43/3 16/20/3
f 20/43/3 17/83/3 8/8/3
f 8/8/3 16/20/3 20/43/3
f 35/84/3 29/85/3 9/9/3
f 29/85/3 28/44/3 7/7/3
f 9/9/3 29/85/3 7/7/3
f 27/41/3 16/20/3 7/7/3
f 27/41/8 28/86/8 26/45/8
f 26/47/4 28/87/4 29/48/4
f 31/50/1 32/88/1 30/51/1
f 32/88/1 36/89/1 30/51/1
f 29/52/1 35/90/1 34/91/1
f 29/52/1 34/91/1 33/92/1
f 29/52/1 33/92/1 31/50/1
f 31/53/9 13/93/9 2/54/9
f 33/56/7 14/94/7 13/57/7
f 34/59/10 3/95/10 14/60/10
f 3/62/7 34/96/7 35/63/7
f 2/65/7 5/97/7 36/66/7
