# Blender v2.79 (sub 7) OBJ File: ''
# www.blender.org
mtllib roadTile_242.mtl
o Mesh1_Group1_Model.047
v 2.625000 0.000000 0.000000
v 0.000000 0.000000 0.000000
v 0.000000 0.000000 -0.375000
v 0.000000 0.000000 -0.750000
v 0.000000 0.000000 -2.250000
v 0.000000 0.000000 -2.625000
v 0.000000 0.000000 -3.000000
v 2.625000 0.000000 -3.000000
v 3.000000 0.000000 -3.000000
v 3.000000 0.000000 0.000000
v 2.625000 0.550000 0.000000
v 0.000000 0.550000 0.000000
v 2.298950 0.550000 -0.371792
v 2.250000 0.550000 -0.375000
v 0.000000 0.550000 -0.375000
v 2.621790 0.550000 -0.048947
v 2.612220 0.550000 -0.097057
v 2.596450 0.550000 -0.143506
v 2.574760 0.550000 -0.187500
v 2.547510 0.550000 -0.228286
v 2.515170 0.550000 -0.265165
v 2.478290 0.550000 -0.297508
v 2.437500 0.550000 -0.324760
v 2.393510 0.550000 -0.346455
v 2.347060 0.550000 -0.362222
v 0.000000 0.550000 -3.000000
v 2.625000 0.550000 -3.000000
v 0.000000 0.550000 -2.625000
v 2.250000 0.550000 -2.625000
v 2.298950 0.550000 -2.628210
v 2.347060 0.550000 -2.637780
v 2.393510 0.550000 -2.653550
v 2.437500 0.550000 -2.675240
v 2.478290 0.550000 -2.702490
v 2.515170 0.550000 -2.734830
v 2.547510 0.550000 -2.771710
v 2.574760 0.550000 -2.812500
v 2.596450 0.550000 -2.856490
v 2.612220 0.550000 -2.902940
v 2.621790 0.550000 -2.951050
v 2.625000 0.630000 0.000000
v 3.000000 0.455000 0.000000
v 3.000000 0.630000 0.000000
v 2.621790 0.630000 -0.048947
v 2.298950 0.630000 -0.371792
v 2.250000 0.630000 -0.375000
v 2.347060 0.630000 -0.362222
v 2.393510 0.630000 -0.346455
v 2.437500 0.630000 -0.324760
v 2.478290 0.630000 -0.297508
v 2.515170 0.630000 -0.265165
v 2.547510 0.630000 -0.228286
v 2.574760 0.630000 -0.187500
v 2.596450 0.630000 -0.143506
v 2.612220 0.630000 -0.097057
v 2.347890 0.630000 -0.743584
v 2.250000 0.630000 -0.750000
v 0.000000 0.630000 -0.750000
v 0.000000 0.630000 -0.375000
v 2.993580 0.630000 -0.097895
v 2.974440 0.630000 -0.194114
v 2.942910 0.630000 -0.287013
v 2.899520 0.630000 -0.375000
v 2.845020 0.630000 -0.456571
v 2.780330 0.630000 -0.530330
v 2.706570 0.630000 -0.595015
v 2.625000 0.630000 -0.649519
v 2.537010 0.630000 -0.692910
v 2.444110 0.630000 -0.724444
v 2.250000 0.455000 -0.750000
v 2.347890 0.455000 -0.743584
v 0.000000 0.455000 -0.750000
v 2.625000 0.630000 -3.000000
v 3.000000 0.630000 -3.000000
v 3.000000 0.455000 -3.000000
v 0.000000 0.630000 -2.625000
v 2.250000 0.630000 -2.625000
v 0.000000 0.455000 -2.250000
v 0.000000 0.630000 -2.250000
v 2.250000 0.455000 -2.250000
v 2.250000 0.630000 -2.250000
v 2.347890 0.455000 -2.256420
v 2.347890 0.630000 -2.256420
v 2.444110 0.455000 -2.275560
v 2.444110 0.630000 -2.275560
v 2.537010 0.455000 -2.307090
v 2.537010 0.630000 -2.307090
v 2.625000 0.455000 -2.350480
v 2.625000 0.630000 -2.350480
v 2.706570 0.455000 -2.404980
v 2.706570 0.630000 -2.404980
v 2.780330 0.455000 -2.469670
v 2.780330 0.630000 -2.469670
v 2.845020 0.455000 -2.543430
v 2.845020 0.630000 -2.543430
v 2.899520 0.455000 -2.625000
v 2.899520 0.630000 -2.625000
v 2.942910 0.455000 -2.712990
v 2.942910 0.630000 -2.712990
v 2.974440 0.455000 -2.805890
v 2.974440 0.630000 -2.805890
v 2.993580 0.455000 -2.902110
v 2.993580 0.630000 -2.902110
v 2.298950 0.630000 -2.628210
v 2.621790 0.630000 -2.951050
v 2.612220 0.630000 -2.902940
v 2.596450 0.630000 -2.856490
v 2.574760 0.630000 -2.812500
v 2.547510 0.630000 -2.771710
v 2.515170 0.630000 -2.734830
v 2.478290 0.630000 -2.702490
v 2.437500 0.630000 -2.675240
v 2.393510 0.630000 -2.653550
v 2.347060 0.630000 -2.637780
v 2.444110 0.455000 -0.724444
v 2.537010 0.455000 -0.692910
v 2.625000 0.455000 -0.649519
v 2.706570 0.455000 -0.595015
v 2.780330 0.455000 -0.530330
v 2.845020 0.455000 -0.456571
v 2.899520 0.455000 -0.375000
v 2.942910 0.455000 -0.287013
v 2.974440 0.455000 -0.194114
v 2.993580 0.455000 -0.097895
vt -0.000000 2.250000
vt -0.000000 2.625000
vt -2.625000 3.000000
vt 2.625000 0.000000
vt 0.000000 0.550000
vt -0.000000 0.000000
vt 2.596450 0.143506
vt 2.547510 0.228286
vt 2.393510 0.346455
vt -2.625000 0.550000
vt -0.000000 -0.000000
vt -0.000000 0.550000
vt 2.596450 2.856490
vt 2.625000 3.000000
vt 2.437500 2.675240
vt -2.625000 0.000000
vt -3.000000 0.550000
vt -3.000000 0.000000
vt -0.375000 0.550000
vt -3.000000 0.000000
vt -2.625000 0.000000
vt -0.000000 0.375000
vt -0.000000 0.750000
vt -3.000000 3.000000
vt -0.000000 3.000000
vt 2.625000 0.550000
vt 2.347060 0.362222
vt 2.298950 0.371792
vt 2.250000 0.375000
vt 0.000000 0.375000
vt 0.000000 0.000000
vt 2.625000 0.000000
vt 2.621790 0.048947
vt 2.612220 0.097057
vt 2.574760 0.187500
vt 2.515170 0.265165
vt 2.478290 0.297508
vt 2.437500 0.324760
vt -2.625000 -0.000000
vt 0.000000 3.000000
vt 0.000000 2.625000
vt 2.250000 2.625000
vt 2.298950 2.628210
vt 2.347060 2.637780
vt 2.393510 2.653550
vt 2.478290 2.702490
vt 2.574760 2.812500
vt 2.515170 2.734830
vt 2.547510 2.771710
vt 2.612220 2.902940
vt 2.621790 2.951050
vt -2.625000 0.550000
vt -0.375000 0.000000
vt 3.000000 0.455000
vt 3.000000 0.630000
vt 0.171683 0.550000
vt 0.122631 0.630000
vt 0.122631 0.550000
vt 2.269710 0.550000
vt 2.220660 0.630000
vt 2.220660 0.550000
vt 2.231290 0.550000
vt 2.182240 0.630000
vt 2.182240 0.550000
vt 2.155120 0.550000
vt 2.106070 0.630000
vt 2.106070 0.550000
vt 2.042490 0.550000
vt 1.993440 0.630000
vt 1.993440 0.550000
vt 1.895330 0.550000
vt 1.846280 0.630000
vt 1.846280 0.550000
vt 1.716170 0.550000
vt 1.667110 0.630000
vt 1.667110 0.550000
vt 1.508050 0.550000
vt 1.459000 0.630000
vt 1.459000 0.550000
vt 1.274560 0.550000
vt 1.225510 0.630000
vt 1.225510 0.550000
vt 1.019680 0.550000
vt 0.970623 0.630000
vt 0.970623 0.550000
vt 0.747765 0.550000
vt 0.698713 0.630000
vt 0.698713 0.550000
vt 0.463479 0.550000
vt 0.414427 0.630000
vt 0.414427 0.550000
vt 2.437500 0.324760
vt 2.478290 0.297508
vt 2.625000 0.649519
vt -2.196130 0.630000
vt -2.294230 0.455000
vt -2.196130 0.455000
vt -2.250000 0.455000
vt -0.000000 0.630000
vt -2.250000 0.630000
vt -3.000000 0.455000
vt -3.000000 0.630000
vt -0.000000 0.550000
vt -2.250000 0.630000
vt -2.250000 0.550000
vt -2.250000 0.455000
vt -2.250000 0.630000
vt -0.750000 0.630000
vt -0.750000 0.455000
vt 2.250000 0.550000
vt 0.000000 0.630000
vt 0.000000 0.550000
vt 2.250000 0.455000
vt 0.000000 0.630000
vt 0.000000 0.455000
vt 2.490440 0.630000
vt 2.392340 0.455000
vt 2.490440 0.455000
vt 2.841090 0.630000
vt 2.742990 0.455000
vt 2.841090 0.455000
vt 3.143960 0.630000
vt 3.045860 0.455000
vt 3.143960 0.455000
vt 3.393880 0.630000
vt 3.295780 0.455000
vt 3.393880 0.455000
vt 3.586570 0.630000
vt 3.488460 0.455000
vt 3.586570 0.455000
vt 3.718730 0.630000
vt 3.620620 0.455000
vt 3.718730 0.455000
vt 3.788100 0.630000
vt 3.690000 0.455000
vt 3.788100 0.455000
vt 3.793490 0.630000
vt 3.695390 0.455000
vt 3.793490 0.455000
vt 3.734820 0.630000
vt 3.636720 0.455000
vt 3.734820 0.455000
vt 3.613080 0.630000
vt 3.514980 0.455000
vt 3.613080 0.455000
vt 3.430360 0.630000
vt 3.332260 0.455000
vt 3.430360 0.455000
vt 3.189790 0.630000
vt 3.091680 0.455000
vt 3.189790 0.455000
vt 2.478290 2.702490
vt 2.437500 2.675240
vt 2.625000 2.350480
vt -2.416870 0.550000
vt -2.465920 0.630000
vt -2.465920 0.550000
vt -2.767510 0.550000
vt -2.816560 0.630000
vt -2.816560 0.550000
vt -3.070390 0.550000
vt -3.119440 0.630000
vt -3.119440 0.550000
vt -3.320300 0.550000
vt -3.369360 0.630000
vt -3.369360 0.550000
vt -3.512990 0.550000
vt -3.562040 0.630000
vt -3.562040 0.550000
vt -3.645150 0.550000
vt -3.694200 0.630000
vt -3.694200 0.550000
vt -3.714520 0.550000
vt -3.763570 0.630000
vt -3.763570 0.550000
vt -3.719920 0.550000
vt -3.768970 0.630000
vt -3.768970 0.550000
vt -3.661240 0.550000
vt -3.710290 0.630000
vt -3.710290 0.550000
vt -3.539500 0.550000
vt -3.588560 0.630000
vt -3.588560 0.550000
vt -3.356780 0.550000
vt -3.405840 0.630000
vt -3.405840 0.550000
vt -3.116210 0.550000
vt -3.165260 0.630000
vt -3.165260 0.550000
vt -2.157710 0.630000
vt -2.255820 0.455000
vt -2.157710 0.455000
vt -2.081540 0.630000
vt -2.179650 0.455000
vt -2.081540 0.455000
vt -1.968910 0.630000
vt -2.067020 0.455000
vt -1.968910 0.455000
vt -1.821750 0.630000
vt -1.919860 0.455000
vt -1.821750 0.455000
vt -1.642590 0.630000
vt -1.740690 0.455000
vt -1.642590 0.455000
vt -1.434480 0.630000
vt -1.532580 0.455000
vt -1.434480 0.455000
vt -1.200980 0.630000
vt -1.299090 0.455000
vt -1.200980 0.455000
vt -0.946097 0.630000
vt -1.044200 0.455000
vt -0.946097 0.455000
vt -0.674186 0.630000
vt -0.772291 0.455000
vt -0.674186 0.455000
vt -0.389901 0.630000
vt -0.488006 0.455000
vt -0.389901 0.455000
vt -0.098105 0.630000
vt -0.196209 0.455000
vt -0.098105 0.455000
vt 2.625000 0.630000
vt 3.000000 0.000000
vt 0.171683 0.630000
vt 2.269710 0.630000
vt 2.231290 0.630000
vt 2.155120 0.630000
vt 2.042490 0.630000
vt 1.895330 0.630000
vt 1.716170 0.630000
vt 1.508050 0.630000
vt 1.274560 0.630000
vt 1.019680 0.630000
vt 0.747765 0.630000
vt 0.463479 0.630000
vt 2.444110 0.724444
vt 2.347890 0.743584
vt 2.298950 0.371792
vt 2.250000 0.750000
vt 2.250000 0.375000
vt 0.000000 0.750000
vt 0.000000 0.375000
vt 2.537010 0.692910
vt 2.347060 0.362222
vt 2.706570 0.595015
vt 2.515170 0.265165
vt 2.845020 0.456571
vt 2.780330 0.530330
vt 2.547510 0.228286
vt 2.574760 0.187500
vt 2.942910 0.287013
vt 2.899520 0.375000
vt 2.596450 0.143506
vt 2.993580 0.097895
vt 2.974440 0.194114
vt 2.612220 0.097057
vt 2.625000 0.000000
vt 3.000000 0.000000
vt 2.621790 0.048947
vt 2.393510 0.346455
vt -2.294230 0.630000
vt -0.000000 0.455000
vt -3.000000 -0.000000
vt -2.625000 0.630000
vt -0.000000 0.630000
vt -2.625000 0.630000
vt -2.250000 0.000000
vt -0.750000 0.000000
vt -0.375000 0.630000
vt 2.250000 0.630000
vt 2.250000 0.630000
vt 2.392340 0.630000
vt 2.742990 0.630000
vt 3.045860 0.630000
vt 3.295780 0.630000
vt 3.488460 0.630000
vt 3.620620 0.630000
vt 3.690000 0.630000
vt 3.695390 0.630000
vt 3.636720 0.630000
vt 3.514980 0.630000
vt 3.332260 0.630000
vt 3.091680 0.630000
vt 2.250000 2.625000
vt 0.000000 2.625000
vt 0.000000 2.250000
vt 2.250000 2.250000
vt 2.347890 2.256420
vt 2.298950 2.628210
vt 2.444110 2.275560
vt 2.537010 2.307090
vt 2.347060 2.637780
vt 2.706570 2.404980
vt 2.515170 2.734830
vt 2.780330 2.469670
vt 2.845020 2.543430
vt 2.547510 2.771710
vt 2.574760 2.812500
vt 2.899520 2.625000
vt 2.942910 2.712990
vt 2.596450 2.856490
vt 2.974440 2.805890
vt 2.993580 2.902110
vt 2.612220 2.902940
vt 3.000000 3.000000
vt 2.625000 3.000000
vt 2.621790 2.951050
vt 2.393510 2.653550
vt -2.416870 0.630000
vt -2.767510 0.630000
vt -3.070390 0.630000
vt -3.320300 0.630000
vt -3.512990 0.630000
vt -3.645150 0.630000
vt -3.714520 0.630000
vt -3.719920 0.630000
vt -3.661240 0.630000
vt -3.539500 0.630000
vt -3.356780 0.630000
vt -3.116210 0.630000
vt -2.255820 0.630000
vt -2.179650 0.630000
vt -2.067020 0.630000
vt -1.919860 0.630000
vt -1.740690 0.630000
vt -1.532580 0.630000
vt -1.299090 0.630000
vt -1.044200 0.630000
vt -0.772291 0.630000
vt -0.488006 0.630000
vt -0.196209 0.630000
vt 2.250000 2.250000
vt 0.000000 2.250000
vt 2.250000 0.750000
vt 3.000000 0.000000
vt -0.000000 0.455000
vt -0.000000 0.000000
vt 2.993580 0.097895
vt 3.000000 0.000000
vt 3.000000 3.000000
vt 2.993580 2.902110
vt 2.974440 0.194114
vt 2.974440 2.805890
vt 2.942910 0.287013
vt 2.942910 2.712990
vt 2.899520 0.375000
vt 2.899520 2.625000
vt 2.845020 0.456571
vt 2.845020 2.543430
vt 2.780330 0.530330
vt 2.780330 2.469670
vt 2.706570 0.595015
vt 2.706570 2.404980
vt 2.625000 0.649519
vt 2.625000 2.350480
vt 2.537010 0.692910
vt 2.537010 2.307090
vt 2.444110 0.724444
vt 2.444110 2.275560
vt 2.347890 0.743584
vt 2.347890 2.256420
vt 0.000000 0.750000
vt 3.000000 0.455000
vn -0.0000 -1.0000 -0.0000
vn -0.0000 -0.0000 1.0000
vn 0.0000 1.0000 0.0000
vn 0.0000 0.0000 -1.0000
vn -1.0000 0.0000 0.0000
vn -0.9979 -0.0000 0.0654
vn -0.9914 -0.0000 0.1305
vn -0.1305 0.0000 0.9914
vn -0.0327 0.0000 0.9995
vn -0.2588 0.0000 0.9659
vn -0.3827 0.0000 0.9239
vn -0.5000 0.0000 0.8660
vn -0.6087 0.0000 0.7934
vn -0.7071 0.0000 0.7071
vn -0.7934 0.0000 0.6087
vn -0.8661 0.0000 0.4999
vn -0.9239 0.0000 0.3827
vn -0.9659 -0.0000 0.2588
vn 0.0327 0.0000 -0.9995
vn 0.1305 0.0000 -0.9914
vn -0.0327 0.0000 -0.9995
vn 0.0327 0.0000 0.9995
vn 0.1305 0.0000 0.9914
vn 0.2588 0.0000 0.9659
vn 0.3827 0.0000 0.9239
vn 0.5000 0.0000 0.8660
vn 0.6088 0.0000 0.7934
vn 0.7071 0.0000 0.7071
vn 0.7934 0.0000 0.6088
vn 0.8660 0.0000 0.5000
vn 0.9239 0.0000 0.3827
vn 0.9659 0.0000 0.2588
vn 0.9914 0.0000 0.1305
vn 0.9979 0.0000 0.0654
vn -0.1305 0.0000 -0.9914
vn -0.2588 0.0000 -0.9659
vn -0.3827 0.0000 -0.9239
vn -0.4999 0.0000 -0.8661
vn -0.6087 0.0000 -0.7934
vn -0.7071 0.0000 -0.7071
vn -0.7934 0.0000 -0.6087
vn -0.8661 0.0000 -0.4999
vn -0.9239 0.0000 -0.3827
vn -0.9659 0.0000 -0.2588
vn -0.9914 0.0000 -0.1305
vn -0.9979 0.0000 -0.0654
vn 0.2588 0.0000 -0.9659
vn 0.3827 0.0000 -0.9239
vn 0.5000 0.0000 -0.8660
vn 0.6088 0.0000 -0.7934
vn 0.7071 0.0000 -0.7071
vn 0.7934 0.0000 -0.6088
vn 0.8660 0.0000 -0.5000
vn 0.9239 0.0000 -0.3827
vn 0.9659 0.0000 -0.2588
vn 0.9914 0.0000 -0.1305
vn 0.9979 -0.0000 -0.0654
vn 1.0000 0.0000 0.0000
usemtl Grass.019
s 1
f 5/1/1 6/2/1 8/3/1
f 1/4/2 12/5/2 2/6/2
f 18/7/3 20/8/3 24/9/3
f 27/10/4 7/11/4 26/12/4
f 38/13/3 27/14/3 33/15/3
f 6/16/5 26/17/5 7/18/5
f 15/19/5 2/6/5 12/5/5
f 10/20/1 1/21/1 8/3/1
f 1/21/1 2/6/1 3/22/1
f 3/22/1 4/23/1 1/21/1
f 4/23/1 5/1/1 8/3/1
f 8/3/1 9/24/1 10/20/1
f 6/2/1 7/25/1 8/3/1
f 1/21/1 4/23/1 8/3/1
f 1/4/2 11/26/2 12/5/2
f 25/27/3 13/28/3 14/29/3
f 14/29/3 15/30/3 12/31/3
f 12/31/3 11/32/3 14/29/3
f 11/32/3 16/33/3 14/29/3
f 16/33/3 17/34/3 18/7/3
f 18/7/3 19/35/3 20/8/3
f 20/8/3 21/36/3 22/37/3
f 22/37/3 23/38/3 20/8/3
f 23/38/3 24/9/3 20/8/3
f 24/9/3 25/27/3 16/33/3
f 25/27/3 14/29/3 16/33/3
f 16/33/3 18/7/3 24/9/3
f 27/10/4 8/39/4 7/11/4
f 26/40/3 28/41/3 29/42/3
f 29/42/3 30/43/3 31/44/3
f 31/44/3 32/45/3 29/42/3
f 32/45/3 33/15/3 27/14/3
f 29/42/3 32/45/3 27/14/3
f 33/15/3 34/46/3 37/47/3
f 34/46/3 35/48/3 37/47/3
f 35/48/3 36/49/3 37/47/3
f 37/47/3 38/13/3 33/15/3
f 38/13/3 39/50/3 27/14/3
f 39/50/3 40/51/3 27/14/3
f 27/14/3 26/40/3 29/42/3
f 6/16/5 28/52/5 26/17/5
f 15/19/5 3/53/5 2/6/5
usemtl Stone.039
f 42/54/2 43/55/2 11/26/2
f 11/56/6 44/57/7 16/58/7
f 13/59/8 46/60/9 14/61/9
f 25/62/10 45/63/8 13/64/8
f 24/65/11 47/66/10 25/67/10
f 23/68/12 48/69/11 24/70/11
f 22/71/13 49/72/12 23/73/12
f 21/74/14 50/75/13 22/76/13
f 20/77/15 51/78/14 21/79/14
f 19/80/16 52/81/15 20/82/15
f 18/83/17 53/84/16 19/85/16
f 17/86/18 54/87/17 18/88/17
f 16/89/7 55/90/18 17/91/18
f 49/92/3 50/93/3 67/94/3
f 57/95/19 71/96/20 70/97/19
f 70/98/19 58/99/4 57/100/19
f 75/101/4 27/10/4 74/102/4
f 28/103/4 77/104/21 29/105/21
f 78/106/5 79/107/5 28/52/5
f 15/19/5 58/108/5 72/109/5
f 14/110/9 59/111/2 15/112/2
f 80/113/22 79/114/2 78/115/2
f 83/116/23 80/117/22 82/118/23
f 85/119/24 82/120/23 84/121/24
f 87/122/25 84/123/24 86/124/25
f 89/125/26 86/126/25 88/127/26
f 91/128/27 88/129/26 90/130/27
f 93/131/28 90/132/27 92/133/28
f 95/134/29 92/135/28 94/136/29
f 97/137/30 94/138/29 96/139/30
f 99/140/31 96/141/30 98/142/31
f 101/143/32 98/144/31 100/145/32
f 103/146/33 100/147/32 102/148/33
f 74/149/34 102/150/33 75/151/34
f 111/152/3 112/153/3 89/154/3
f 29/155/21 104/156/35 30/157/35
f 30/158/35 114/159/36 31/160/36
f 31/161/36 113/162/37 32/163/37
f 32/164/37 112/165/38 33/166/38
f 33/167/38 111/168/39 34/169/39
f 34/170/39 110/171/40 35/172/40
f 35/173/40 109/174/41 36/175/41
f 36/176/41 108/177/42 37/178/42
f 37/179/42 107/180/43 38/181/43
f 38/182/43 106/183/44 39/184/44
f 39/185/44 105/186/45 40/187/45
f 40/188/45 73/189/46 27/190/46
f 56/191/20 115/192/47 71/193/20
f 69/194/47 116/195/48 115/196/47
f 68/197/48 117/198/49 116/199/48
f 67/200/49 118/201/50 117/202/49
f 66/203/50 119/204/51 118/205/50
f 65/206/51 120/207/52 119/208/51
f 64/209/52 121/210/53 120/211/52
f 63/212/53 122/213/54 121/214/53
f 62/215/54 123/216/55 122/217/54
f 61/218/55 124/219/56 123/220/55
f 60/221/56 42/222/57 124/223/56
f 43/55/2 41/224/2 11/26/2
f 11/26/2 1/4/2 42/54/2
f 1/4/2 10/225/2 42/54/2
f 11/56/6 41/226/6 44/57/7
f 13/59/8 45/227/8 46/60/9
f 25/62/10 47/228/10 45/63/8
f 24/65/11 48/229/11 47/66/10
f 23/68/12 49/230/12 48/69/11
f 22/71/13 50/231/13 49/72/12
f 21/74/14 51/232/14 50/75/13
f 20/77/15 52/233/15 51/78/14
f 19/80/16 53/234/16 52/81/15
f 18/83/17 54/235/17 53/84/16
f 17/86/18 55/236/18 54/87/17
f 16/89/7 44/237/7 55/90/18
f 69/238/3 56/239/3 45/240/3
f 56/239/3 57/241/3 46/242/3
f 57/241/3 58/243/3 59/244/3
f 57/241/3 59/244/3 46/242/3
f 68/245/3 69/238/3 47/246/3
f 56/239/3 46/242/3 45/240/3
f 66/247/3 67/94/3 50/93/3
f 67/94/3 68/245/3 49/92/3
f 66/247/3 50/93/3 51/248/3
f 64/249/3 65/250/3 52/251/3
f 65/250/3 66/247/3 51/248/3
f 64/249/3 52/251/3 53/252/3
f 62/253/3 63/254/3 54/255/3
f 63/254/3 64/249/3 53/252/3
f 54/255/3 63/254/3 53/252/3
f 60/256/3 61/257/3 55/258/3
f 61/257/3 62/253/3 54/255/3
f 41/259/3 43/260/3 60/256/3
f 44/261/3 41/259/3 60/256/3
f 61/257/3 54/255/3 55/258/3
f 69/238/3 45/240/3 47/246/3
f 55/258/3 44/261/3 60/256/3
f 68/245/3 47/246/3 48/262/3
f 52/251/3 65/250/3 51/248/3
f 68/245/3 48/262/3 49/92/3
f 57/95/19 56/263/20 71/96/20
f 70/98/19 72/264/4 58/99/4
f 75/101/4 9/265/4 8/39/4
f 8/39/4 27/10/4 75/101/4
f 27/10/4 73/266/4 74/102/4
f 28/103/4 76/267/4 77/104/21
f 79/107/5 76/268/5 28/52/5
f 28/52/5 6/16/5 78/106/5
f 6/16/5 5/269/5 78/106/5
f 72/109/5 4/270/5 3/53/5
f 15/19/5 59/271/5 58/108/5
f 72/109/5 3/53/5 15/19/5
f 14/110/9 46/272/9 59/111/2
f 80/113/22 81/273/22 79/114/2
f 83/116/23 81/274/22 80/117/22
f 85/119/24 83/275/23 82/120/23
f 87/122/25 85/276/24 84/123/24
f 89/125/26 87/277/25 86/126/25
f 91/128/27 89/278/26 88/129/26
f 93/131/28 91/279/27 90/132/27
f 95/134/29 93/280/28 92/135/28
f 97/137/30 95/281/29 94/138/29
f 99/140/31 97/282/30 96/141/30
f 101/143/32 99/283/31 98/144/31
f 103/146/33 101/284/32 100/147/32
f 74/149/34 103/285/33 102/150/33
f 77/286/3 76/287/3 79/288/3
f 79/288/3 81/289/3 77/286/3
f 81/289/3 83/290/3 104/291/3
f 83/290/3 85/292/3 104/291/3
f 85/292/3 87/293/3 114/294/3
f 104/291/3 85/292/3 114/294/3
f 87/293/3 89/154/3 112/153/3
f 89/154/3 91/295/3 111/152/3
f 111/152/3 91/295/3 110/296/3
f 91/295/3 93/297/3 110/296/3
f 93/297/3 95/298/3 109/299/3
f 109/299/3 95/298/3 108/300/3
f 95/298/3 97/301/3 108/300/3
f 97/301/3 99/302/3 107/303/3
f 99/302/3 101/304/3 107/303/3
f 101/304/3 103/305/3 106/306/3
f 107/303/3 101/304/3 106/306/3
f 103/305/3 74/307/3 73/308/3
f 103/305/3 73/308/3 105/309/3
f 97/301/3 107/303/3 108/300/3
f 81/289/3 104/291/3 77/286/3
f 103/305/3 105/309/3 106/306/3
f 113/310/3 114/294/3 87/293/3
f 93/297/3 109/299/3 110/296/3
f 112/153/3 113/310/3 87/293/3
f 29/155/21 77/311/21 104/156/35
f 30/158/35 104/312/35 114/159/36
f 31/161/36 114/313/36 113/162/37
f 32/164/37 113/314/37 112/165/38
f 33/167/38 112/315/38 111/168/39
f 34/170/39 111/316/39 110/171/40
f 35/173/40 110/317/40 109/174/41
f 36/176/41 109/318/41 108/177/42
f 37/179/42 108/319/42 107/180/43
f 38/182/43 107/320/43 106/183/44
f 39/185/44 106/321/44 105/186/45
f 40/188/45 105/322/45 73/189/46
f 56/191/20 69/323/47 115/192/47
f 69/194/47 68/324/48 116/195/48
f 68/197/48 67/325/49 117/198/49
f 67/200/49 66/326/50 118/201/50
f 66/203/50 65/327/51 119/204/51
f 65/206/51 64/328/52 120/207/52
f 64/209/52 63/329/53 121/210/53
f 63/212/53 62/330/54 122/213/54
f 62/215/54 61/331/55 123/216/55
f 61/218/55 60/332/56 124/219/56
f 60/221/56 43/333/57 42/222/57
usemtl Water.013
f 80/334/3 78/335/3 70/336/3
f 9/337/58 42/338/58 10/339/58
f 4/270/5 78/106/5 5/269/5
f 124/340/3 42/341/3 75/342/3
f 124/340/3 75/342/3 102/343/3
f 123/344/3 124/340/3 100/345/3
f 124/340/3 102/343/3 100/345/3
f 122/346/3 123/344/3 98/347/3
f 123/344/3 100/345/3 98/347/3
f 121/348/3 122/346/3 96/349/3
f 122/346/3 98/347/3 96/349/3
f 120/350/3 121/348/3 96/349/3
f 120/350/3 96/349/3 94/351/3
f 119/352/3 120/350/3 92/353/3
f 120/350/3 94/351/3 92/353/3
f 118/354/3 119/352/3 90/355/3
f 119/352/3 92/353/3 90/355/3
f 117/356/3 118/354/3 90/355/3
f 117/356/3 90/355/3 88/357/3
f 116/358/3 117/356/3 88/357/3
f 116/358/3 88/357/3 86/359/3
f 115/360/3 116/358/3 86/359/3
f 115/360/3 86/359/3 84/361/3
f 71/362/3 115/360/3 84/361/3
f 71/362/3 84/361/3 82/363/3
f 78/335/3 72/364/3 70/336/3
f 70/336/3 71/362/3 80/334/3
f 71/362/3 82/363/3 80/334/3
f 9/337/58 75/365/58 42/338/58
f 4/270/5 72/109/5 78/106/5
