# Blender v2.79 (sub 7) OBJ File: ''
# www.blender.org
mtllib roadTile_124.mtl
o Mesh1_Group1_Model.277
v -1.500000 0.000000 1.500000
v -1.500000 0.000000 -1.125000
v -1.125000 0.000000 -1.125000
v 1.500000 0.300000 -1.500000
v 1.500000 0.000000 1.500000
v 1.500000 0.000000 -1.500000
v -0.750000 0.600000 -1.500000
v -0.750000 0.300000 -1.500000
v -1.125000 0.000000 -1.500000
v -1.125000 1.730000 -1.500000
v -1.125000 1.730000 -1.125000
v -0.750000 1.730000 -1.500000
v -0.750000 0.600000 -0.750000
v -1.500000 1.730000 -0.750000
v -1.500000 0.600000 -0.750000
v -1.500000 0.300000 -0.750000
v -1.500000 1.730000 -1.125000
v -1.500000 0.300000 1.500000
v 1.500000 0.300000 1.500000
v -0.750000 1.730000 -0.750000
v -1.500000 0.600000 1.500000
v 1.500000 0.600000 1.500000
v 1.500000 0.600000 -1.500000
vt 0.000000 0.000000
vt -0.000000 2.625000
vt -0.375000 2.625000
vt 3.000000 0.300000
vt 0.000000 0.000000
vt 3.000000 0.000000
vt -0.750000 0.600000
vt -0.750000 0.300000
vt -0.375000 0.000000
vt -3.000000 1.730000
vt -2.625000 0.000000
vt -2.625000 1.730000
vt 0.750000 3.000000
vt 0.375000 3.000000
vt 0.375000 2.625000
vt 0.750000 0.600000
vt -0.000000 1.730000
vt -0.000000 0.600000
vt -2.250000 0.300000
vt -2.250000 0.600000
vt -2.625000 0.000000
vt -0.375000 1.730000
vt 0.000000 0.000000
vt 0.000000 1.730000
vt -0.000000 0.300000
vt 3.000000 0.000000
vt 3.000000 0.300000
vt 3.000000 0.600000
vt 2.250000 1.730000
vt 2.250000 0.600000
vt -0.375000 3.000000
vt -3.000000 3.000000
vt -3.000000 -0.000000
vt 0.000000 0.300000
vt -3.000000 0.300000
vt -3.000000 0.000000
vt -0.375000 1.730000
vt -0.750000 1.730000
vt -3.000000 0.000000
vt 0.000000 2.625000
vt 0.000000 2.250000
vt 0.750000 2.250000
vt 0.750000 1.730000
vt -2.250000 1.730000
vt -2.625000 1.730000
vt -0.375000 0.000000
vt 3.000000 1.730000
vt 0.750000 2.250000
vt 0.000000 0.000000
vt 3.000000 0.000000
vt -3.000000 0.600000
vt 3.000000 0.600000
vt 0.000000 0.600000
vt 3.000000 0.600000
vt 0.000000 0.600000
vt 3.000000 3.000000
vt 0.750000 3.000000
vt 0.000000 2.250000
vn 0.0000 -1.0000 -0.0000
vn 1.0000 0.0000 0.0000
vn 0.0000 0.0000 -1.0000
vn -1.0000 0.0000 0.0000
vn 0.0000 1.0000 0.0000
vn 0.0000 0.0000 1.0000
usemtl Stone.235
s 1
f 1/1/1 2/2/1 3/3/1
f 4/4/2 5/5/2 6/6/2
f 7/7/3 8/8/3 9/9/3
f 10/10/4 3/11/4 11/12/4
f 12/13/5 10/14/5 11/15/5
f 13/16/6 14/17/6 15/18/6
f 16/19/4 15/20/4 2/21/4
f 11/22/3 2/23/3 17/24/3
f 18/25/6 5/26/6 19/27/6
f 7/28/2 20/29/2 13/30/2
f 9/31/1 6/32/1 3/3/1
f 6/32/1 5/33/1 3/3/1
f 5/33/1 1/1/1 3/3/1
f 4/4/2 19/34/2 5/5/2
f 4/35/3 6/36/3 8/8/3
f 6/36/3 9/9/3 8/8/3
f 9/9/3 10/37/3 7/7/3
f 10/37/3 12/38/3 7/7/3
f 10/10/4 9/39/4 3/11/4
f 17/40/5 14/41/5 11/15/5
f 14/41/5 20/42/5 11/15/5
f 20/42/5 12/13/5 11/15/5
f 13/16/6 20/43/6 14/17/6
f 14/44/4 17/45/4 15/20/4
f 17/45/4 2/21/4 15/20/4
f 2/21/4 1/1/4 16/19/4
f 1/1/4 18/25/4 16/19/4
f 11/22/3 3/46/3 2/23/3
f 18/25/6 1/1/6 5/26/6
f 7/28/2 12/47/2 20/29/2
usemtl Asphalt.191
f 13/48/5 21/49/5 22/50/5
f 8/8/3 23/51/3 4/35/3
f 19/34/2 23/52/2 22/53/2
f 18/25/6 22/54/6 21/55/6
f 15/20/4 18/25/4 21/55/4
f 22/50/5 23/56/5 13/48/5
f 23/56/5 7/57/5 13/48/5
f 13/48/5 15/58/5 21/49/5
f 8/8/3 7/7/3 23/51/3
f 19/34/2 4/4/2 23/52/2
f 18/25/6 19/27/6 22/54/6
f 15/20/4 16/19/4 18/25/4
