# Blender v2.79 (sub 7) OBJ File: ''
# www.blender.org
mtllib roadTile_161.mtl
o Mesh1_Group1_Model.150
v 3.000000 0.600000 -2.250000
v 3.000000 0.600000 -0.750000
v 3.000000 0.300000 -0.750000
v 3.000000 0.300000 -2.250000
v 0.000000 1.700000 -2.250000
v 0.000000 1.700000 -0.750000
v 0.000000 1.400000 -2.250000
v 0.000000 1.400000 -0.750000
v 3.000000 0.630000 -2.250000
v 0.000000 1.730000 -2.250000
v 3.000000 0.000000 -0.375000
v 3.000000 0.000000 -2.625000
v 3.000000 0.550000 -2.625000
v 3.000000 0.630000 -2.625000
v 3.000000 0.630000 -0.750000
v 3.000000 0.630000 -0.375000
v 3.000000 0.550000 -0.375000
v 0.000000 1.650000 -2.625000
v 0.000000 1.100000 -2.625000
v 0.000000 1.100000 -0.375000
v 0.000000 1.650000 -0.375000
v 0.000000 1.730000 -0.375000
v 0.000000 1.730000 -0.750000
v 0.000000 1.730000 -2.625000
v 3.000000 0.000000 0.000000
v 0.000000 1.100000 0.000000
v 0.000000 1.100000 -3.000000
v 3.000000 0.000000 -3.000000
v 0.000000 1.650000 0.000000
v 3.000000 0.550000 0.000000
v 0.000000 1.650000 -3.000000
v 3.000000 0.550000 -3.000000
vt 0.750000 0.600000
vt 2.250000 0.300000
vt 2.250000 0.600000
vt 2.250000 0.585233
vt 0.750000 -2.610080
vt 2.250000 -2.610080
vt -2.250000 1.700000
vt -0.750000 1.400000
vt -0.750000 1.700000
vt 0.750000 0.300000
vt 0.750000 0.585233
vt -2.250000 1.400000
vt 0.000000 1.700000
vt 3.000000 0.630000
vt 0.000000 1.730000
vt 0.375000 -0.000000
vt 2.625000 -0.000000
vt -2.625000 1.100000
vt -0.375000 1.100000
vt -0.000000 1.650000
vt -3.000000 0.630000
vt -3.000000 0.550000
vt 2.625000 -2.599750
vt 2.250000 0.595561
vt 2.250000 -2.599750
vt 0.000000 1.650000
vt 3.000000 0.630000
vt 0.000000 1.730000
vt 0.375000 0.595561
vt 0.750000 -2.599750
vt 0.750000 0.595561
vt -0.000000 1.700000
vt -3.000000 0.630000
vt -3.000000 0.600000
vt 3.000000 0.600000
vt 2.625000 0.550000
vt 2.625000 0.630000
vt 2.250000 0.630000
vt 0.375000 0.630000
vt 0.375000 0.550000
vt 0.750000 0.630000
vt -2.625000 1.730000
vt -2.625000 1.650000
vt -2.250000 1.730000
vt -0.375000 1.650000
vt -0.375000 1.730000
vt -0.750000 1.730000
vt -0.000000 1.730000
vt 2.625000 0.595561
vt 3.000000 0.550000
vt 0.375000 -2.599750
vt -0.000000 1.730000
vt -0.375000 0.378680
vt -2.625000 0.378680
vt -2.625000 -2.816630
vt 0.000000 1.100000
vt 3.000000 0.550000
vt 0.000000 1.650000
vt -3.000000 1.100000
vt -3.000000 1.650000
vt -3.000000 0.550000
vt -0.000000 1.100000
vt -0.000000 1.650000
vt 3.000000 0.000000
vt 3.000000 0.550000
vt 2.625000 -2.627290
vt 3.000000 0.568020
vt 2.625000 0.568020
vt 0.375000 0.568020
vt 0.000000 -2.627290
vt 0.375000 -2.627290
vt 0.000000 0.550000
vt 0.000000 0.000000
vt -0.375000 -2.816630
vt -0.000000 -2.816630
vt -0.000000 0.378680
vt -3.000000 0.378680
vt -3.000000 -2.816630
vt 3.000000 -0.000000
vt -3.000000 0.000000
vt 3.000000 -2.627290
vt 0.000000 0.568020
vn 1.0000 0.0000 0.0000
vn 0.3443 0.9389 0.0000
vn -1.0000 0.0000 0.0000
vn 0.0000 0.0000 1.0000
vn -0.0000 0.0000 -1.0000
vn -0.3443 -0.9389 -0.0000
usemtl Asphalt.099
s 1
f 2/1/1 4/2/1 1/3/1
f 5/4/2 2/5/2 1/6/2
f 5/7/3 8/8/3 6/9/3
f 2/1/1 3/10/1 4/2/1
f 5/4/2 6/11/2 2/5/2
f 5/7/3 7/12/3 8/8/3
usemtl Stone.126
f 5/13/4 9/14/4 10/15/4
f 11/16/1 12/17/1 3/10/1
f 19/18/3 20/19/3 7/12/3
f 18/20/5 14/21/5 13/22/5
f 14/23/2 10/24/2 9/25/2
f 21/26/4 16/27/4 22/28/4
f 22/29/2 15/30/2 23/31/2
f 6/32/5 15/33/5 2/34/5
f 5/13/4 1/35/4 9/14/4
f 12/17/1 13/36/1 4/2/1
f 13/36/1 14/37/1 1/3/1
f 4/2/1 13/36/1 1/3/1
f 14/37/1 9/38/1 1/3/1
f 16/39/1 17/40/1 2/1/1
f 17/40/1 11/16/1 3/10/1
f 2/1/1 15/41/1 16/39/1
f 3/10/1 2/1/1 17/40/1
f 12/17/1 4/2/1 3/10/1
f 24/42/3 18/43/3 5/7/3
f 18/43/3 19/18/3 7/12/3
f 24/42/3 5/7/3 10/44/3
f 20/19/3 21/45/3 8/8/3
f 21/45/3 22/46/3 6/9/3
f 8/8/3 21/45/3 6/9/3
f 22/46/3 23/47/3 6/9/3
f 5/7/3 18/43/3 7/12/3
f 20/19/3 8/8/3 7/12/3
f 18/20/5 24/48/5 14/21/5
f 14/23/2 24/49/2 10/24/2
f 21/26/4 17/50/4 16/27/4
f 22/29/2 16/51/2 15/30/2
f 6/32/5 23/52/5 15/33/5
usemtl Grass.068
f 20/53/6 19/54/6 12/55/6
f 26/56/4 30/57/4 29/58/4
f 20/19/3 29/58/3 21/45/3
f 27/59/3 18/43/3 31/60/3
f 32/61/5 27/62/5 31/63/5
f 13/36/1 28/64/1 32/65/1
f 13/66/2 31/67/2 18/68/2
f 21/69/2 30/70/2 17/71/2
f 11/16/1 30/72/1 25/73/1
f 11/74/6 25/75/6 26/76/6
f 11/74/6 26/76/6 20/53/6
f 27/77/6 28/78/6 12/55/6
f 12/55/6 11/74/6 20/53/6
f 19/54/6 27/77/6 12/55/6
f 26/56/4 25/79/4 30/57/4
f 20/19/3 26/56/3 29/58/3
f 27/59/3 19/18/3 18/43/3
f 32/61/5 28/80/5 27/62/5
f 13/36/1 12/17/1 28/64/1
f 13/66/2 32/81/2 31/67/2
f 21/69/2 29/82/2 30/70/2
f 11/16/1 17/40/1 30/72/1
