# Blender v2.79 (sub 7) OBJ File: ''
# www.blender.org
mtllib roadTile_019.mtl
o Mesh1_Group1_Model.256
v -1.330200 2.312860 0.897789
v -1.095713 2.530890 1.033170
v -1.095713 2.312860 1.033170
v -1.330200 2.312860 1.168551
v -1.095713 2.312860 1.303931
v -0.861227 2.312860 1.168551
v -0.691427 1.445120 1.266585
v -1.095713 1.445120 1.500000
v -0.691427 1.445120 0.799755
v -0.691427 0.786685 0.799755
v -0.691427 0.786685 1.266585
v -0.869313 0.651510 1.163882
v -1.037100 0.651510 1.091783
v -0.869313 0.651510 0.902458
v -1.095713 0.651510 1.294595
v -1.154327 0.651510 1.091783
v -1.322114 0.651510 1.163882
v -1.154327 0.651510 0.974557
v -1.095713 0.651510 0.771745
v -1.322114 0.651510 0.902458
v -1.500000 0.786685 0.799755
v -1.500000 0.786685 1.266585
v -1.500000 1.445120 0.799755
v -1.095713 0.786685 1.500000
v -1.500000 1.445120 1.266585
v -1.095713 1.445120 0.566340
v -0.861227 2.312860 0.897789
v -1.095713 2.312860 0.762409
v -1.095713 0.786685 0.566340
v -1.037100 0.651510 0.974557
v -1.003409 0.000000 0.940866
v -1.188018 0.000000 0.940866
v -1.188018 0.000000 1.125474
v -1.003409 0.000000 1.125474
vt 0.154054 2.312860
vt -0.116708 2.530890
vt -0.116708 2.312860
vt -0.331449 1.699260
vt -0.466830 2.019440
vt -0.602211 1.699260
vt 0.252088 1.847300
vt 0.116708 2.167480
vt -0.018673 1.847300
vt 0.583538 1.871400
vt 0.448157 1.551220
vt 0.718918 1.551220
vt 0.404287 0.466830
vt 0.169800 0.602211
vt 0.169800 0.331449
vt 0.816953 1.379400
vt 0.448157 2.263600
vt 0.350123 1.379400
vt 0.700245 1.262950
vt 0.331449 2.147140
vt 0.233415 1.262950
vt 0.700245 0.786686
vt 0.233415 1.445120
vt 0.233415 0.786686
vt 0.336118 0.896338
vt 0.700245 1.119760
vt 0.233415 1.119760
vt -0.630687 0.336118
vt -0.462900 0.408217
vt -0.630687 0.597542
vt -0.404287 0.205405
vt -0.345673 0.408217
vt -0.177886 0.336118
vt -0.345673 0.525443
vt -0.404287 0.728255
vt -0.177886 0.597542
vt -0.700245 0.475970
vt -0.336118 0.252552
vt -0.233415 0.475970
vt -0.233415 0.786686
vt -0.700245 1.445120
vt -0.700245 0.786686
vt 0.350123 0.786686
vt -0.116708 1.445120
vt -0.116708 0.786686
vt 0.247420 0.091605
vt -0.116708 0.315023
vt -0.014005 0.091605
vt 0.816953 0.636917
vt 0.452825 0.413498
vt 0.714250 0.413498
vt 0.816953 0.786686
vt 0.350123 1.445120
vt 0.350123 1.457040
vt -0.018673 2.341240
vt -0.116708 1.457040
vt -0.331449 2.302420
vt -0.700245 1.418220
vt -0.233415 1.418220
vt -0.448157 2.185960
vt -0.816953 1.301770
vt -0.350123 1.301770
vt 0.638773 0.331449
vt 0.638773 0.602211
vt -0.448157 1.255140
vt -0.583538 1.575330
vt -0.718918 1.255140
vt 0.018673 0.959063
vt -0.116708 1.279250
vt -0.252088 0.959063
vt 0.602211 1.107100
vt 0.466830 1.427290
vt 0.331449 1.107100
vt -0.387469 2.312860
vt 0.018673 2.108320
vt -0.350123 1.224130
vt 0.116708 1.224130
vt 0.116708 0.786686
vt -0.350123 1.445120
vt -0.350123 0.786686
vt 0.014005 1.057280
vt -0.350123 1.280700
vt -0.247420 1.057280
vt -0.350123 0.958810
vt -0.714250 0.735392
vt -0.452825 0.735392
vt -0.350123 0.786686
vt -0.816953 1.445120
vt -0.816953 0.786686
vt -0.462900 0.525443
vt 0.404287 0.196069
vt 0.718918 2.263600
vt 0.602211 2.147140
vt 0.700245 1.445120
vt 0.597542 0.896338
vt -0.597542 0.252552
vt -0.233415 1.445120
vt 0.350123 0.315023
vt 0.350123 0.636917
vt 0.816953 1.445120
vt 0.252088 2.341240
vt -0.602211 2.302420
vt -0.718918 2.185960
vt 0.404287 0.737591
vt -0.252088 2.108320
vt 0.116708 1.445120
vt 0.116708 1.280700
vt -0.816953 0.958810
vt -0.350123 1.445120
vt -0.345673 0.623505
vt -0.496591 -0.028875
vt -0.311982 -0.028875
vt -0.408217 0.668492
vt -0.559134 0.016112
vt -0.374526 0.016112
vt 0.462900 0.671722
vt 0.311982 0.019342
vt 0.496591 0.019342
vt 0.559134 -0.025646
vt 0.408217 0.626735
vt 0.374526 -0.025646
vt -0.311982 0.559134
vt -0.496591 0.374526
vt -0.311982 0.374526
vt -0.462900 0.623505
vt -0.525443 0.668492
vt 0.345673 0.671722
vt 0.525443 0.626735
vt -0.496591 0.559134
vn 0.5000 0.0000 -0.8660
vn -0.6809 0.7323 0.0000
vn -0.3405 0.7323 0.5897
vn 0.3405 0.7323 0.5897
vn 0.0000 1.0000 0.0000
vn 0.4977 0.0964 0.8620
vn 0.4907 0.1920 0.8499
vn 0.4977 0.0965 0.8620
vn 0.9954 0.0963 -0.0000
vn 0.9814 0.1920 0.0000
vn 0.9954 0.0961 0.0000
vn 1.0000 0.0000 0.0000
vn 0.6050 -0.7962 0.0000
vn 0.0000 -1.0000 -0.0000
vn -0.6050 -0.7962 0.0000
vn -1.0000 -0.0000 0.0000
vn -0.9954 0.0963 -0.0000
vn -0.5000 -0.0000 0.8660
vn -0.4977 0.0964 0.8620
vn -0.3025 -0.7962 0.5240
vn 0.3025 -0.7962 0.5240
vn 0.5000 -0.0000 0.8660
vn -0.4977 0.0965 0.8620
vn -0.4907 0.1920 0.8499
vn -0.9814 0.1920 0.0000
vn -0.4907 0.1920 -0.8499
vn -0.4977 0.0965 -0.8620
vn -0.3405 0.7323 -0.5897
vn 0.3405 0.7323 -0.5897
vn 0.6809 0.7323 0.0000
vn 0.4907 0.1920 -0.8499
vn 0.4977 0.0963 -0.8620
vn 0.4977 0.0965 -0.8620
vn 0.3025 -0.7962 -0.5240
vn -0.3025 -0.7962 -0.5240
vn -0.5000 0.0000 -0.8660
vn 0.0000 0.0516 -0.9987
vn -0.9987 0.0516 0.0000
vn 0.0000 0.0516 0.9987
vn 0.9987 0.0516 0.0000
usemtl Grass.110
s 1
f 1/1/1 2/2/1 3/3/1
f 4/4/2 2/5/2 1/6/2
f 5/7/3 2/8/3 4/9/3
f 2/10/4 5/11/4 6/12/4
f 3/13/5 1/14/5 4/15/5
f 7/16/6 5/17/7 8/18/8
f 9/19/9 6/20/10 7/21/11
f 10/22/12 7/23/11 11/24/12
f 12/25/13 10/26/13 11/27/13
f 12/28/14 13/29/14 14/30/14
f 15/31/14 13/29/14 12/28/14
f 15/31/14 16/32/14 13/29/14
f 17/33/14 16/32/14 15/31/14
f 16/32/14 17/33/14 18/34/14
f 17/33/14 19/35/14 18/34/14
f 19/35/14 17/33/14 20/36/14
f 21/37/15 17/38/15 22/39/15
f 22/40/16 23/41/17 21/42/16
f 24/43/18 25/44/19 22/45/18
f 15/46/20 22/47/20 17/48/20
f 11/49/21 15/50/21 12/51/21
f 11/52/22 8/53/8 24/43/22
f 8/54/23 4/55/24 25/56/19
f 4/57/25 23/58/17 25/59/17
f 1/60/26 26/61/27 23/62/27
f 3/13/5 6/63/5 27/64/5
f 1/65/28 2/66/28 28/67/28
f 28/68/29 2/69/29 27/70/29
f 27/71/30 2/72/30 6/73/30
f 2/2/1 6/74/1 3/3/1
f 28/75/31 9/76/32 26/77/33
f 29/78/1 9/79/32 10/80/1
f 19/81/34 10/82/34 14/83/34
f 21/84/35 19/85/35 20/86/35
f 21/87/36 26/88/27 29/89/36
f 30/90/14 19/35/14 14/30/14
f 18/34/14 19/35/14 30/90/14
f 30/90/14 14/30/14 13/29/14
f 4/15/5 5/91/5 3/13/5
f 5/91/5 6/63/5 3/13/5
f 7/16/6 6/92/7 5/17/7
f 9/19/9 27/93/10 6/20/10
f 10/22/12 9/94/9 7/23/11
f 12/25/13 14/95/13 10/26/13
f 21/37/15 20/96/15 17/38/15
f 22/40/16 25/97/17 23/41/17
f 24/43/18 8/53/23 25/44/19
f 15/46/20 24/98/20 22/47/20
f 11/49/21 24/99/21 15/50/21
f 11/52/22 7/100/6 8/53/8
f 8/54/23 5/101/24 4/55/24
f 4/57/25 1/102/25 23/58/17
f 1/60/26 28/103/26 26/61/27
f 27/64/5 28/104/5 3/13/5
f 28/104/5 1/14/5 3/13/5
f 28/75/31 27/105/31 9/76/32
f 29/78/1 26/106/33 9/79/32
f 19/81/34 29/107/34 10/82/34
f 21/84/35 29/108/35 19/85/35
f 21/87/36 23/109/27 26/88/27
usemtl Alternate_Dirt.011
f 18/110/37 31/111/37 32/112/37
f 16/113/38 32/114/38 33/115/38
f 13/116/39 33/117/39 34/118/39
f 31/119/40 13/120/40 34/121/40
f 32/122/14 34/123/14 33/124/14
f 18/110/37 30/125/37 31/111/37
f 16/113/38 18/126/38 32/114/38
f 13/116/39 16/127/39 33/117/39
f 31/119/40 30/128/40 13/120/40
f 32/122/14 31/129/14 34/123/14
