# Blender v2.79 (sub 7) OBJ File: ''
# www.blender.org
mtllib roadTile_256.mtl
o Mesh1_Group1_Model.274
v 1.945600 1.730000 -0.089445
v 1.620460 1.730000 -0.199816
v 1.620460 0.000000 -0.199816
v 1.945600 0.000000 -0.089445
v 0.375000 1.730000 -2.625000
v 0.000000 1.730000 -2.625000
v 0.022457 1.730000 -2.282370
v 0.089445 1.730000 -1.945600
v 0.199816 1.730000 -1.620460
v 0.351683 1.730000 -1.312500
v 0.542447 1.730000 -1.027000
v 0.768845 1.730000 -0.768845
v 1.027000 1.730000 -0.542447
v 1.312500 1.730000 -0.351683
v 2.282370 1.730000 -0.022457
v 2.625000 1.730000 0.000000
v 2.625000 1.730000 -0.375000
v 2.326910 1.730000 -0.381827
v 2.032630 1.730000 -0.429783
v 1.747790 1.730000 -0.517946
v 1.477870 1.730000 -0.644626
v 1.228050 1.730000 -0.807391
v 1.003120 1.730000 -1.003120
v 0.807391 1.730000 -1.228050
v 0.644626 1.730000 -1.477870
v 0.517946 1.730000 -1.747790
v 0.429783 1.730000 -2.032630
v 0.381827 1.730000 -2.326910
v 2.250000 0.000000 -2.625000
v 0.000000 0.000000 -2.625000
v 0.375000 0.600000 -2.625000
v 0.375000 0.300000 -2.625000
v 1.875000 0.300000 -2.625000
v 1.875000 0.600000 -2.625000
v 1.875000 1.730000 -2.625000
v 2.250000 1.730000 -2.625000
v 2.253210 0.000000 -2.576050
v 2.262780 0.000000 -2.527940
v 2.278550 0.000000 -2.481490
v 2.300240 0.000000 -2.437500
v 2.327490 0.000000 -2.396710
v 2.359830 0.000000 -2.359830
v 2.396710 0.000000 -2.327490
v 2.437500 0.000000 -2.300240
v 2.481490 0.000000 -2.278550
v 2.527940 0.000000 -2.262780
v 2.576050 0.000000 -2.253210
v 2.625000 0.000000 -2.250000
v 2.625000 0.000000 0.000000
v 2.282370 0.000000 -0.022457
v 1.312500 0.000000 -0.351683
v 1.027000 0.000000 -0.542447
v 0.768845 0.000000 -0.768845
v 0.542447 0.000000 -1.027000
v 0.351683 0.000000 -1.312500
v 0.199816 0.000000 -1.620460
v 0.089445 0.000000 -1.945600
v 0.022457 0.000000 -2.282370
v 2.253210 1.730000 -2.576050
v 2.625000 1.730000 -1.875000
v 2.625000 1.730000 -2.250000
v 2.576050 1.730000 -2.253210
v 2.527940 1.730000 -2.262780
v 2.481490 1.730000 -2.278550
v 2.437500 1.730000 -2.300240
v 2.396710 1.730000 -2.327490
v 2.359830 1.730000 -2.359830
v 2.327490 1.730000 -2.396710
v 2.300240 1.730000 -2.437500
v 2.278550 1.730000 -2.481490
v 2.262780 1.730000 -2.527940
v 1.884150 1.730000 -2.528140
v 1.905370 1.730000 -2.433190
v 1.938320 1.730000 -2.341650
v 1.982480 1.730000 -2.254960
v 2.037170 1.730000 -2.174490
v 2.101510 1.730000 -2.101510
v 2.174490 1.730000 -2.037170
v 2.254960 1.730000 -1.982480
v 2.341650 1.730000 -1.938320
v 2.433190 1.730000 -1.905370
v 2.528140 1.730000 -1.884150
v 2.625000 0.600000 -1.875000
v 2.625000 0.300000 -1.875000
v 2.625000 0.300000 -0.375000
v 2.625000 0.600000 -0.375000
v 2.528140 0.600000 -1.884150
v 1.884150 0.600000 -2.528140
v 1.905370 0.600000 -2.433190
v 1.938320 0.600000 -2.341650
v 1.982480 0.600000 -2.254960
v 2.037170 0.600000 -2.174490
v 2.101510 0.600000 -2.101510
v 2.174490 0.600000 -2.037170
v 2.254960 0.600000 -1.982480
v 2.341650 0.600000 -1.938320
v 2.433190 0.600000 -1.905370
v 0.381827 0.600000 -2.326910
v 0.429783 0.600000 -2.032630
v 0.517946 0.600000 -1.747790
v 0.644626 0.600000 -1.477870
v 0.807391 0.600000 -1.228050
v 1.003120 0.600000 -1.003120
v 1.228050 0.600000 -0.807391
v 1.477870 0.600000 -0.644626
v 1.747790 0.600000 -0.517946
v 2.032630 0.600000 -0.429783
v 2.326910 0.600000 -0.381827
vt 1.470230 1.730000
vt 1.813600 0.000000
vt 1.813600 1.730000
vt 1.477870 0.644626
vt 1.228050 0.807391
vt 1.027000 0.542447
vt -2.250000 0.000000
vt -0.000000 0.000000
vt -1.875000 0.300000
vt -2.396710 2.327490
vt -2.437500 2.300240
vt -1.312500 0.351683
vt 2.423170 1.730000
vt 2.472220 -0.000000
vt 2.472220 1.730000
vt 2.396710 2.327490
vt 2.359830 2.359830
vt 2.101510 2.101510
vt 0.000000 0.000000
vt 2.250000 0.000000
vt 0.375000 0.300000
vt -2.472220 1.730000
vt -2.423170 0.000000
vt -2.423170 1.730000
vt -2.086980 1.730000
vt -2.037920 0.000000
vt -2.037920 1.730000
vt -1.666440 1.730000
vt -1.617390 0.000000
vt -1.617390 1.730000
vt -1.217810 1.730000
vt -1.168760 0.000000
vt -1.168760 1.730000
vt -0.748762 1.730000
vt -0.699710 -0.000000
vt -0.699710 1.730000
vt -0.267323 1.730000
vt -0.218271 -0.000000
vt -0.218271 1.730000
vt 0.218271 1.730000
vt 0.267323 -0.000000
vt 0.267323 1.730000
vt 0.699710 1.730000
vt 0.748762 -0.000000
vt 0.748762 1.730000
vt 1.168760 1.730000
vt 1.217810 -0.000000
vt 1.217810 1.730000
vt 1.617390 1.730000
vt 1.666440 -0.000000
vt 1.666440 1.730000
vt 2.037920 1.730000
vt 2.086980 -0.000000
vt 2.086980 1.730000
vt 2.437070 0.600000
vt 2.339780 1.730000
vt 2.339780 0.600000
vt -2.339780 0.600000
vt -2.437070 1.730000
vt -2.437070 0.600000
vt -1.959110 0.600000
vt -2.056400 1.730000
vt -2.056400 0.600000
vt -1.546770 0.600000
vt -1.644060 1.730000
vt -1.644060 0.600000
vt -1.109260 0.600000
vt -1.206550 1.730000
vt -1.206550 0.600000
vt -0.653484 0.600000
vt -0.750776 1.730000
vt -0.750776 0.600000
vt -0.186634 0.600000
vt -0.283926 1.730000
vt -0.283926 0.600000
vt 0.283926 0.600000
vt 0.186634 1.730000
vt 0.186634 0.600000
vt 0.750776 0.600000
vt 0.653484 1.730000
vt 0.653484 0.600000
vt 1.206550 0.600000
vt 1.109260 1.730000
vt 1.109260 0.600000
vt 1.644060 0.600000
vt 1.546770 1.730000
vt 1.546770 0.600000
vt 2.056400 0.600000
vt 1.959110 1.730000
vt 1.959110 0.600000
vt 2.615720 0.600000
vt 2.317560 1.730000
vt 2.317560 0.600000
vt 2.235210 0.600000
vt 1.937040 1.730000
vt 1.937040 0.600000
vt 1.814660 0.600000
vt 1.516490 1.730000
vt 1.516490 0.600000
vt 1.362150 0.600000
vt 1.063980 1.730000
vt 1.063980 0.600000
vt 0.886360 0.600000
vt 0.588193 1.730000
vt 0.588193 0.600000
vt 0.396424 0.600000
vt 0.098257 1.730000
vt 0.098257 0.600000
vt -0.098257 0.600000
vt -0.396424 1.730000
vt -0.396424 0.600000
vt -0.588193 0.600000
vt -0.886360 1.730000
vt -0.886360 0.600000
vt -1.063980 0.600000
vt -1.362150 1.730000
vt -1.362150 0.600000
vt -1.516490 0.600000
vt -1.814660 1.730000
vt -1.814660 0.600000
vt -1.937040 0.600000
vt -2.235210 1.730000
vt -2.235210 0.600000
vt -2.317560 0.600000
vt -2.615720 1.730000
vt -2.615720 0.600000
vt 2.276010 1.730000
vt 2.619380 0.000000
vt 2.619380 1.730000
vt 1.890770 1.730000
vt 2.234130 0.000000
vt 2.234130 1.730000
vt 1.021600 1.730000
vt 1.364970 0.000000
vt 1.364970 1.730000
vt 0.552553 1.730000
vt 0.895919 0.000000
vt 0.895919 1.730000
vt 0.071113 1.730000
vt 0.414480 0.000000
vt 0.414480 1.730000
vt -0.414480 1.730000
vt -0.071113 0.000000
vt -0.071113 1.730000
vt -0.895919 1.730000
vt -0.552553 0.000000
vt -0.552553 1.730000
vt -1.364970 1.730000
vt -1.021600 0.000000
vt -1.021600 1.730000
vt -1.813600 1.730000
vt -1.470230 0.000000
vt -1.470230 1.730000
vt -2.234130 1.730000
vt -1.890770 0.000000
vt -1.890770 1.730000
vt -2.619380 1.730000
vt -2.276010 0.000000
vt -2.276010 1.730000
vt 1.470230 0.000000
vt 0.381827 2.326910
vt 0.375000 2.625000
vt 0.000000 2.625000
vt 0.022457 2.282370
vt 0.089445 1.945600
vt 0.429783 2.032630
vt 0.199816 1.620460
vt 0.517946 1.747790
vt 0.351683 1.312500
vt 0.542447 1.027000
vt 0.644626 1.477870
vt 0.768845 0.768845
vt 0.807391 1.228050
vt 1.312500 0.351683
vt 1.003120 1.003120
vt 1.620460 0.199816
vt 1.747790 0.517946
vt 1.945600 0.089445
vt 2.032630 0.429783
vt 2.282370 0.022457
vt 2.625000 0.000000
vt 2.326910 0.381827
vt 2.625000 0.375000
vt -0.000000 1.730000
vt -0.375000 0.600000
vt -0.375000 1.730000
vt -0.375000 0.300000
vt -1.875000 0.600000
vt -1.875000 1.730000
vt -2.250000 1.730000
vt -0.022457 2.282370
vt 0.000000 2.625000
vt -2.250000 2.625000
vt -2.253210 2.576050
vt -0.199816 1.620460
vt -0.089445 1.945600
vt -2.262780 2.527940
vt -0.542447 1.027000
vt -0.351683 1.312500
vt -2.300240 2.437500
vt -2.278550 2.481490
vt -1.027000 0.542447
vt -0.768845 0.768845
vt -2.359830 2.359830
vt -2.327490 2.396710
vt -1.620460 0.199816
vt -2.282370 0.022457
vt -1.945600 0.089445
vt -2.527940 2.262780
vt -2.481490 2.278550
vt -2.625000 2.250000
vt -2.625000 -0.000000
vt -2.576050 2.253210
vt 2.423170 -0.000000
vt 2.528140 1.884150
vt 2.625000 1.875000
vt 2.625000 2.250000
vt 2.576050 2.253210
vt 2.341650 1.938320
vt 2.433190 1.905370
vt 2.527940 2.262780
vt 2.174490 2.037170
vt 2.254960 1.982480
vt 2.437500 2.300240
vt 2.481490 2.278550
vt 2.037170 2.174490
vt 2.327490 2.396710
vt 2.300240 2.437500
vt 1.938320 2.341650
vt 1.982480 2.254960
vt 2.278550 2.481490
vt 1.884150 2.528140
vt 1.905370 2.433190
vt 2.253210 2.576050
vt 2.262780 2.527940
vt 2.250000 2.625000
vt 1.875000 2.625000
vt 2.250000 1.730000
vt 1.875000 0.600000
vt 1.875000 1.730000
vt 1.875000 0.300000
vt 0.375000 1.730000
vt 0.000000 1.730000
vt 0.375000 0.600000
vt -2.472220 0.000000
vt -2.086980 0.000000
vt -1.666440 0.000000
vt -1.217810 0.000000
vt -0.748762 -0.000000
vt -0.267323 -0.000000
vt 0.218271 -0.000000
vt 0.699710 -0.000000
vt 1.168760 -0.000000
vt 1.617390 -0.000000
vt 2.037920 -0.000000
vt 2.437070 1.730000
vt -2.339780 1.730000
vt -1.959110 1.730000
vt -1.546770 1.730000
vt -1.109260 1.730000
vt -0.653484 1.730000
vt -0.186634 1.730000
vt 0.283926 1.730000
vt 0.750776 1.730000
vt 1.206550 1.730000
vt 1.644060 1.730000
vt 2.056400 1.730000
vt 2.615720 1.730000
vt 2.235210 1.730000
vt 1.814660 1.730000
vt 1.362150 1.730000
vt 0.886360 1.730000
vt 0.396424 1.730000
vt -0.098257 1.730000
vt -0.588193 1.730000
vt -1.063980 1.730000
vt -1.516490 1.730000
vt -1.937040 1.730000
vt -2.317560 1.730000
vt 2.276010 0.000000
vt 1.890770 0.000000
vt 1.021600 0.000000
vt 0.552553 0.000000
vt 0.071113 0.000000
vt -0.414480 0.000000
vt -0.895919 0.000000
vt -1.364970 0.000000
vt -1.813600 0.000000
vt -2.234130 0.000000
vt -2.619380 0.000000
vt 2.101510 2.101510
vt 1.228050 0.807391
vt 2.174490 2.037170
vt 1.884150 2.528140
vt 1.875000 2.625000
vt 0.375000 2.625000
vt 0.381827 2.326910
vt 0.429783 2.032630
vt 1.905370 2.433190
vt 1.938320 2.341650
vt 0.517946 1.747790
vt 0.644626 1.477870
vt 1.982480 2.254960
vt 0.807391 1.228050
vt 2.037170 2.174490
vt 1.003120 1.003120
vt 1.477870 0.644626
vt 1.747790 0.517946
vt 2.254960 1.982480
vt 2.032630 0.429783
vt 2.341650 1.938320
vt 2.433190 1.905370
vt 2.326910 0.381827
vt 2.625000 0.375000
vt 2.528140 1.884150
vt 2.625000 1.875000
vn -0.3827 -0.0000 0.9239
vn -0.2588 -0.0000 0.9659
vn 0.0000 1.0000 -0.0000
vn 0.0000 0.0000 -1.0000
vn 0.0000 -1.0000 -0.0000
vn 0.9914 0.0000 -0.1305
vn 0.9979 0.0000 -0.0654
vn 1.0000 -0.0000 0.0000
vn 0.0654 0.0000 -0.9979
vn 0.1305 0.0000 -0.9914
vn 0.2588 0.0000 -0.9659
vn 0.3827 0.0000 -0.9239
vn 0.4999 0.0000 -0.8661
vn 0.6087 0.0000 -0.7934
vn 0.7071 0.0000 -0.7071
vn 0.7934 0.0000 -0.6087
vn 0.8661 0.0000 -0.4999
vn 0.9239 0.0000 -0.3827
vn 0.9659 0.0000 -0.2588
vn -0.0940 -0.0000 0.9956
vn -0.1564 -0.0000 0.9877
vn -0.9877 0.0000 0.1564
vn -0.9956 0.0000 0.0940
vn -0.9603 0.0000 0.2789
vn -0.9178 0.0000 0.3971
vn -0.8608 0.0000 0.5090
vn -0.7901 0.0000 0.6129
vn -0.7071 0.0000 0.7071
vn -0.7902 0.0000 0.6129
vn -0.6129 0.0000 0.7901
vn -0.5090 -0.0000 0.8608
vn -0.3971 -0.0000 0.9178
vn -0.2789 -0.0000 0.9603
vn 0.9997 0.0000 -0.0229
vn 0.9958 0.0000 -0.0921
vn 0.9735 0.0000 -0.2288
vn 0.9325 0.0000 -0.3611
vn 0.8737 0.0000 -0.4865
vn 0.7980 0.0000 -0.6026
vn 0.6026 0.0000 -0.7980
vn 0.4865 0.0000 -0.8737
vn 0.3611 0.0000 -0.9325
vn 0.2288 0.0000 -0.9735
vn 0.0921 0.0000 -0.9958
vn 0.0229 0.0000 -0.9997
vn -0.1305 -0.0000 0.9914
vn -0.0654 -0.0000 0.9979
vn -0.5000 -0.0000 0.8660
vn -0.6088 -0.0000 0.7934
vn -0.7934 -0.0000 0.6088
vn -0.8660 -0.0000 0.5000
vn -0.9239 -0.0000 0.3827
vn -0.9659 -0.0000 0.2588
vn -0.9914 -0.0000 0.1305
vn -0.9979 0.0000 0.0654
usemtl Stone.232
s 1
f 2/1/1 4/2/2 1/3/2
f 21/4/3 22/5/3 13/6/3
f 29/7/4 30/8/4 33/9/4
f 43/10/5 44/11/5 51/12/5
f 59/13/6 29/14/7 36/15/7
f 66/16/3 67/17/3 77/18/3
f 49/19/8 48/20/8 85/21/8
f 61/22/9 47/23/10 62/24/10
f 62/25/10 46/26/11 63/27/11
f 63/28/11 45/29/12 64/30/12
f 64/31/12 44/32/13 65/33/13
f 65/34/13 43/35/14 66/36/14
f 66/37/14 42/38/15 67/39/15
f 67/40/15 41/41/16 68/42/16
f 68/43/16 40/44/17 69/45/17
f 69/46/17 39/47/18 70/48/18
f 70/49/18 38/50/19 71/51/19
f 71/52/19 37/53/6 59/54/6
f 83/55/20 82/56/21 87/57/21
f 88/58/22 35/59/23 34/60/23
f 89/61/24 72/62/22 88/63/22
f 90/64/25 73/65/24 89/66/24
f 91/67/26 74/68/25 90/69/25
f 92/70/27 75/71/26 91/72/26
f 93/73/28 76/74/29 92/75/27
f 94/76/30 77/77/28 93/78/28
f 95/79/31 78/80/30 94/81/30
f 96/82/32 79/83/31 95/84/31
f 97/85/33 80/86/32 96/87/32
f 87/88/21 81/89/33 97/90/33
f 31/91/34 28/92/35 98/93/35
f 98/94/35 27/95/36 99/96/36
f 99/97/36 26/98/37 100/99/37
f 100/100/37 25/101/38 101/102/38
f 101/103/38 24/104/39 102/105/39
f 102/106/39 23/107/15 103/108/15
f 103/109/15 22/110/40 104/111/40
f 104/112/40 21/113/41 105/114/41
f 105/115/41 20/116/42 106/117/42
f 106/118/42 19/119/43 107/120/43
f 107/121/43 18/122/44 108/123/44
f 108/124/44 17/125/45 86/126/45
f 15/127/46 49/128/47 16/129/47
f 1/130/2 50/131/46 15/132/46
f 14/133/48 3/134/1 2/135/1
f 13/136/49 51/137/48 14/138/48
f 12/139/28 52/140/49 13/141/49
f 11/142/50 53/143/28 12/144/28
f 10/145/51 54/146/50 11/147/50
f 9/148/52 55/149/51 10/150/51
f 8/151/53 56/152/52 9/153/52
f 7/154/54 57/155/53 8/156/53
f 6/157/55 58/158/54 7/159/54
f 2/1/1 3/160/1 4/2/2
f 28/161/3 5/162/3 6/163/3
f 6/163/3 7/164/3 28/161/3
f 7/164/3 8/165/3 27/166/3
f 8/165/3 9/167/3 26/168/3
f 9/167/3 10/169/3 26/168/3
f 10/169/3 11/170/3 25/171/3
f 11/170/3 12/172/3 24/173/3
f 12/172/3 13/6/3 22/5/3
f 13/6/3 14/174/3 21/4/3
f 12/172/3 22/5/3 23/175/3
f 14/174/3 2/176/3 20/177/3
f 2/176/3 1/178/3 20/177/3
f 20/177/3 1/178/3 19/179/3
f 1/178/3 15/180/3 19/179/3
f 15/180/3 16/181/3 18/182/3
f 19/179/3 15/180/3 18/182/3
f 16/181/3 17/183/3 18/182/3
f 11/170/3 24/173/3 25/171/3
f 24/173/3 12/172/3 23/175/3
f 7/164/3 27/166/3 28/161/3
f 26/168/3 27/166/3 8/165/3
f 25/171/3 26/168/3 10/169/3
f 14/174/3 20/177/3 21/4/3
f 30/8/4 6/184/4 31/185/4
f 6/184/4 5/186/4 31/185/4
f 31/185/4 32/187/4 30/8/4
f 33/9/4 34/188/4 29/7/4
f 34/188/4 35/189/4 36/190/4
f 34/188/4 36/190/4 29/7/4
f 30/8/4 32/187/4 33/9/4
f 58/191/5 30/192/5 29/193/5
f 58/191/5 29/193/5 37/194/5
f 56/195/5 57/196/5 38/197/5
f 57/196/5 58/191/5 37/194/5
f 54/198/5 55/199/5 40/200/5
f 55/199/5 56/195/5 39/201/5
f 39/201/5 56/195/5 38/197/5
f 52/202/5 53/203/5 42/204/5
f 53/203/5 54/198/5 41/205/5
f 40/200/5 55/199/5 39/201/5
f 3/206/5 51/12/5 44/11/5
f 51/12/5 52/202/5 43/10/5
f 41/205/5 54/198/5 40/200/5
f 50/207/5 4/208/5 46/209/5
f 4/208/5 3/206/5 45/210/5
f 42/204/5 53/203/5 41/205/5
f 48/211/5 49/212/5 50/207/5
f 47/213/5 48/211/5 50/207/5
f 57/196/5 37/194/5 38/197/5
f 46/209/5 47/213/5 50/207/5
f 45/210/5 46/209/5 4/208/5
f 52/202/5 42/204/5 43/10/5
f 44/11/5 45/210/5 3/206/5
f 59/13/6 37/214/6 29/14/7
f 82/215/3 60/216/3 61/217/3
f 82/215/3 61/217/3 62/218/3
f 80/219/3 81/220/3 63/221/3
f 81/220/3 82/215/3 62/218/3
f 78/222/3 79/223/3 65/224/3
f 79/223/3 80/219/3 64/225/3
f 78/222/3 66/16/3 77/18/3
f 76/226/3 77/18/3 68/227/3
f 76/226/3 68/227/3 69/228/3
f 74/229/3 75/230/3 70/231/3
f 75/230/3 76/226/3 69/228/3
f 70/231/3 75/230/3 69/228/3
f 72/232/3 73/233/3 59/234/3
f 73/233/3 74/229/3 71/235/3
f 71/235/3 74/229/3 70/231/3
f 36/236/3 35/237/3 72/232/3
f 59/234/3 36/236/3 72/232/3
f 66/16/3 78/222/3 65/224/3
f 81/220/3 62/218/3 63/221/3
f 71/235/3 59/234/3 73/233/3
f 80/219/3 63/221/3 64/225/3
f 64/225/3 65/224/3 79/223/3
f 68/227/3 77/18/3 67/17/3
f 48/20/8 61/238/8 83/239/8
f 61/238/8 60/240/8 83/239/8
f 83/239/8 84/241/8 48/20/8
f 17/242/8 16/243/8 86/244/8
f 16/243/8 49/19/8 86/244/8
f 85/21/8 86/244/8 49/19/8
f 48/20/8 84/241/8 85/21/8
f 61/22/9 48/245/9 47/23/10
f 62/25/10 47/246/10 46/26/11
f 63/28/11 46/247/11 45/29/12
f 64/31/12 45/248/12 44/32/13
f 65/34/13 44/249/13 43/35/14
f 66/37/14 43/250/14 42/38/15
f 67/40/15 42/251/15 41/41/16
f 68/43/16 41/252/16 40/44/17
f 69/46/17 40/253/17 39/47/18
f 70/49/18 39/254/18 38/50/19
f 71/52/19 38/255/19 37/53/6
f 83/55/20 60/256/20 82/56/21
f 88/58/22 72/257/22 35/59/23
f 89/61/24 73/258/24 72/62/22
f 90/64/25 74/259/25 73/65/24
f 91/67/26 75/260/26 74/68/25
f 92/70/27 76/261/29 75/71/26
f 93/73/28 77/262/28 76/74/29
f 94/76/30 78/263/30 77/77/28
f 95/79/31 79/264/31 78/80/30
f 96/82/32 80/265/32 79/83/31
f 97/85/33 81/266/33 80/86/32
f 87/88/21 82/267/21 81/89/33
f 31/91/34 5/268/34 28/92/35
f 98/94/35 28/269/35 27/95/36
f 99/97/36 27/270/36 26/98/37
f 100/100/37 26/271/37 25/101/38
f 101/103/38 25/272/38 24/104/39
f 102/106/39 24/273/39 23/107/15
f 103/109/15 23/274/15 22/110/40
f 104/112/40 22/275/40 21/113/41
f 105/115/41 21/276/41 20/116/42
f 106/118/42 20/277/42 19/119/43
f 107/121/43 19/278/43 18/122/44
f 108/124/44 18/279/44 17/125/45
f 15/127/46 50/280/46 49/128/47
f 1/130/2 4/281/2 50/131/46
f 14/133/48 51/282/48 3/134/1
f 13/136/49 52/283/49 51/137/48
f 12/139/28 53/284/28 52/140/49
f 11/142/50 54/285/50 53/143/28
f 10/145/51 55/286/51 54/146/50
f 9/148/52 56/287/52 55/149/51
f 8/151/53 57/288/53 56/152/52
f 7/154/54 58/289/54 57/155/53
f 6/157/55 30/290/55 58/158/54
usemtl Asphalt.188
f 93/291/3 104/292/3 94/293/3
f 33/9/4 31/185/4 34/188/4
f 85/21/8 83/239/8 86/244/8
f 88/294/3 34/295/3 31/296/3
f 31/296/3 98/297/3 88/294/3
f 98/297/3 99/298/3 89/299/3
f 89/299/3 99/298/3 90/300/3
f 99/298/3 100/301/3 90/300/3
f 100/301/3 101/302/3 91/303/3
f 90/300/3 100/301/3 91/303/3
f 101/302/3 102/304/3 92/305/3
f 102/304/3 103/306/3 93/291/3
f 103/306/3 104/292/3 93/291/3
f 104/292/3 105/307/3 94/293/3
f 92/305/3 102/304/3 93/291/3
f 105/307/3 106/308/3 95/309/3
f 106/308/3 107/310/3 96/311/3
f 96/311/3 107/310/3 97/312/3
f 107/310/3 108/313/3 97/312/3
f 108/313/3 86/314/3 87/315/3
f 97/312/3 108/313/3 87/315/3
f 86/314/3 83/316/3 87/315/3
f 91/303/3 101/302/3 92/305/3
f 89/299/3 88/294/3 98/297/3
f 106/308/3 96/311/3 95/309/3
f 105/307/3 95/309/3 94/293/3
f 33/9/4 32/187/4 31/185/4
f 85/21/8 84/241/8 83/239/8
