# Blender v2.79 (sub 7) OBJ File: ''
# www.blender.org
mtllib roadTile_183.mtl
o Mesh1_Group1_Model.275
v 3.000000 0.000000 0.000000
v 3.000000 0.550000 0.000000
v 0.000000 1.100000 0.000000
v 0.000000 0.550000 0.000000
v 3.000000 0.000000 -0.375000
v 3.000000 0.550000 -0.375000
v 0.000000 0.550000 -0.375000
v 0.000000 0.550000 -2.625000
v 0.000000 0.550000 -3.000000
v 3.000000 0.000000 -3.000000
v 3.000000 0.000000 -2.625000
v 0.000000 1.100000 -0.375000
v 3.000000 0.550000 -3.000000
v 3.000000 0.550000 -2.625000
v 0.000000 1.100000 -3.000000
v 0.000000 1.100000 -2.625000
v 0.000000 1.180000 -0.375000
v 3.000000 0.630000 -0.375000
v 0.000000 1.180000 -0.750000
v 0.000000 1.150000 -0.750000
v 0.000000 0.850000 -0.750000
v 0.000000 0.850000 -2.250000
v 0.000000 1.150000 -2.250000
v 0.000000 1.180000 -2.250000
v 0.000000 1.180000 -2.625000
v 3.000000 0.630000 -0.750000
v 3.000000 0.630000 -2.625000
v 3.000000 0.630000 -2.250000
v 3.000000 0.600000 -2.250000
v 3.000000 0.300000 -2.250000
v 3.000000 0.300000 -0.750000
v 3.000000 0.600000 -0.750000
vt 3.000000 0.550000
vt 0.000000 0.550000
vt 3.000000 0.000000
vt 0.375000 0.000000
vt 0.000000 0.550000
vt 0.000000 0.000000
vt -0.375000 -2.950820
vt -0.000000 -2.950820
vt -0.375000 0.099180
vt -0.375000 1.100000
vt 0.000000 1.100000
vt 0.000000 -2.851640
vt 0.375000 0.198361
vt 0.000000 0.198361
vt 2.625000 0.550000
vt 3.000000 -0.000000
vt 3.000000 0.550000
vt 3.000000 0.198361
vt 2.625000 -2.851640
vt 3.000000 -2.851640
vt -0.000000 0.550000
vt -3.000000 0.550000
vt -3.000000 0.000000
vt -2.625000 0.550000
vt -3.000000 1.100000
vt -3.000000 0.550000
vt 0.375000 0.550000
vt -0.000000 0.099180
vt -2.625000 0.099180
vt -3.000000 0.099180
vt -2.625000 -2.950820
vt -3.000000 -2.950820
vt -0.375000 0.550000
vt 0.375000 -2.851640
vt 2.625000 -0.000000
vt 2.625000 0.198361
vt -0.000000 1.100000
vt -2.625000 1.100000
vt 0.000000 1.100000
vt 3.000000 0.630000
vt 0.000000 1.180000
vt -2.250000 0.850000
vt 0.375000 0.212787
vt 0.750000 -2.837210
vt 0.750000 0.212787
vt 0.750000 0.300000
vt -3.000000 0.630000
vt -0.000000 1.100000
vt -0.000000 1.180000
vt 2.625000 -2.837210
vt 2.250000 0.212787
vt 2.250000 -2.837210
vt 0.000000 1.150000
vt 3.000000 0.630000
vt 0.000000 1.180000
vt -0.000000 1.150000
vt -3.000000 0.630000
vt -3.000000 0.600000
vt 3.000000 0.550000
vt -0.750000 0.850000
vt -0.375000 1.180000
vt -0.750000 1.150000
vt -0.750000 1.180000
vt -2.625000 1.180000
vt -2.250000 1.150000
vt -2.250000 1.180000
vt 0.375000 -2.837210
vt 2.250000 0.300000
vt 2.625000 0.630000
vt 2.250000 0.600000
vt 2.250000 0.630000
vt 0.375000 0.630000
vt 0.750000 0.600000
vt 0.750000 0.630000
vt -3.000000 0.550000
vt 2.625000 0.212787
vt 3.000000 0.600000
vt -0.000000 1.180000
vt 2.250000 0.207377
vt 0.750000 -2.842620
vt 2.250000 -2.842620
vt 0.750000 0.207377
vn 0.0000 -0.0000 1.0000
vn 1.0000 -0.0000 0.0000
vn -0.1803 -0.9836 -0.0000
vn -1.0000 0.0000 0.0000
vn 0.1803 0.9836 0.0000
vn 0.0000 0.0000 -1.0000
usemtl Grass.117
s 1
f 2/1/1 4/2/1 1/3/1
f 5/4/2 2/5/2 1/6/2
f 5/7/3 1/8/3 7/9/3
f 12/10/4 4/2/4 3/11/4
f 2/12/5 12/13/5 3/14/5
f 14/15/2 10/16/2 13/17/2
f 15/18/5 14/19/5 13/20/5
f 9/21/6 13/22/6 10/23/6
f 8/24/4 15/25/4 9/26/4
f 2/1/1 3/11/1 4/2/1
f 5/4/2 6/27/2 2/5/2
f 1/8/3 4/28/3 7/9/3
f 7/9/3 8/29/3 5/7/3
f 8/29/3 9/30/3 11/31/3
f 5/7/3 8/29/3 11/31/3
f 9/30/3 10/32/3 11/31/3
f 12/10/4 7/33/4 4/2/4
f 2/12/5 6/34/5 12/13/5
f 14/15/2 11/35/2 10/16/2
f 15/18/5 16/36/5 14/19/5
f 9/21/6 15/37/6 13/22/6
f 8/24/4 16/38/4 15/25/4
usemtl Stone.233
f 12/39/1 18/40/1 17/41/1
f 8/24/4 7/33/4 22/42/4
f 17/43/5 26/44/5 19/45/5
f 5/4/2 11/35/2 31/46/2
f 27/47/6 16/48/6 25/49/6
f 27/50/5 24/51/5 28/52/5
f 23/53/1 28/54/1 24/55/1
f 20/56/6 26/57/6 32/58/6
f 12/39/1 6/59/1 18/40/1
f 7/33/4 12/10/4 21/60/4
f 12/10/4 17/61/4 20/62/4
f 21/60/4 12/10/4 20/62/4
f 17/61/4 19/63/4 20/62/4
f 25/64/4 16/38/4 23/65/4
f 16/38/4 8/24/4 22/42/4
f 23/65/4 24/66/4 25/64/4
f 22/42/4 23/65/4 16/38/4
f 7/33/4 21/60/4 22/42/4
f 17/43/5 18/67/5 26/44/5
f 11/35/2 14/15/2 30/68/2
f 14/15/2 27/69/2 29/70/2
f 30/68/2 14/15/2 29/70/2
f 27/69/2 28/71/2 29/70/2
f 18/72/2 6/27/2 32/73/2
f 6/27/2 5/4/2 31/46/2
f 32/73/2 26/74/2 18/72/2
f 31/46/2 32/73/2 6/27/2
f 11/35/2 30/68/2 31/46/2
f 27/47/6 14/75/6 16/48/6
f 27/50/5 25/76/5 24/51/5
f 23/53/1 29/77/1 28/54/1
f 20/56/6 19/78/6 26/57/6
usemtl Asphalt.189
f 23/79/5 32/80/5 29/81/5
f 22/42/4 20/62/4 23/65/4
f 32/73/2 30/68/2 29/70/2
f 23/79/5 20/82/5 32/80/5
f 22/42/4 21/60/4 20/62/4
f 32/73/2 31/46/2 30/68/2
