# Blender v2.79 (sub 7) OBJ File: ''
# www.blender.org
mtllib roadTile_271.mtl
o Mesh1_Group1_Model.135
v 3.000000 0.600000 -1.125000
v 3.000000 0.300000 -1.125000
v 3.000000 0.300000 -1.875000
v 3.000000 0.600000 -1.875000
v 0.000000 0.600000 -1.125000
v 0.000000 0.600000 -1.875000
v 0.000000 0.300000 -1.875000
v 0.000000 0.300000 -1.125000
v 3.000000 0.000000 0.000000
v 3.000000 0.000000 -3.000000
v 3.000000 0.630000 -3.000000
v 3.000000 0.630000 -1.875000
v 3.000000 0.630000 -1.125000
v 3.000000 0.630000 0.000000
v 0.000000 0.000000 -3.000000
v 0.000000 0.000000 0.000000
v 0.000000 0.630000 -3.000000
v 0.000000 0.630000 0.000000
v 0.000000 0.630000 -1.125000
v 0.000000 0.630000 -1.875000
vt 1.125000 0.300000
vt 1.875000 0.600000
vt 1.125000 0.600000
vt 3.000000 1.125000
vt 0.000000 1.875000
vt 0.000000 1.125000
vt -1.875000 0.300000
vt -1.125000 0.600000
vt -1.875000 0.600000
vt 1.875000 0.300000
vt 3.000000 1.875000
vt -1.125000 0.300000
vt 0.000000 0.000000
vt 3.000000 0.000000
vt -3.000000 3.000000
vt -0.000000 0.000000
vt -0.000000 3.000000
vt -3.000000 -0.000000
vt -0.000000 0.630000
vt -3.000000 0.630000
vt -3.000000 0.000000
vt 3.000000 0.630000
vt -0.000000 0.630000
vt 3.000000 1.125000
vt 0.000000 0.000000
vt 3.000000 -0.000000
vt -0.000000 0.600000
vt -3.000000 0.630000
vt -3.000000 0.600000
vt 3.000000 0.600000
vt 0.000000 0.630000
vt 0.000000 0.600000
vt 0.000000 1.875000
vt 3.000000 3.000000
vt 0.000000 3.000000
vt 3.000000 0.630000
vt 1.875000 0.630000
vt 1.125000 0.630000
vt 0.000000 0.630000
vt -3.000000 -0.000000
vt -0.000000 -0.000000
vt -1.125000 0.630000
vt -1.875000 0.630000
vt -3.000000 0.630000
vt 3.000000 0.000000
vt 0.000000 1.125000
vt -0.000000 0.630000
vt 3.000000 0.630000
vt 3.000000 1.875000
vn 1.0000 0.0000 0.0000
vn 0.0000 1.0000 0.0000
vn -1.0000 0.0000 0.0000
vn 0.0000 -1.0000 -0.0000
vn 0.0000 0.0000 -1.0000
vn 0.0000 -0.0000 1.0000
usemtl Asphalt.091
s 1
f 2/1/1 4/2/1 1/3/1
f 1/4/2 6/5/2 5/6/2
f 7/7/3 5/8/3 6/9/3
f 2/1/1 3/10/1 4/2/1
f 1/4/2 4/11/2 6/5/2
f 7/7/3 8/12/3 5/8/3
usemtl Stone.114
f 9/13/1 10/14/1 2/1/1
f 10/15/4 16/16/4 15/17/4
f 10/18/5 17/19/5 11/20/5
f 8/12/3 7/7/3 15/21/3
f 16/16/6 14/22/6 18/23/6
f 13/24/2 18/25/2 14/26/2
f 5/27/5 13/28/5 1/29/5
f 4/30/6 20/31/6 6/32/6
f 20/33/2 11/34/2 17/35/2
f 10/14/1 11/36/1 3/10/1
f 11/36/1 12/37/1 4/2/1
f 4/2/1 3/10/1 11/36/1
f 13/38/1 14/39/1 1/3/1
f 14/39/1 9/13/1 2/1/1
f 1/3/1 14/39/1 2/1/1
f 10/14/1 3/10/1 2/1/1
f 10/15/4 9/40/4 16/16/4
f 10/18/5 15/41/5 17/19/5
f 16/16/3 18/23/3 8/12/3
f 18/23/3 19/42/3 5/8/3
f 5/8/3 8/12/3 18/23/3
f 20/43/3 17/44/3 6/9/3
f 17/44/3 15/21/3 7/7/3
f 6/9/3 17/44/3 7/7/3
f 16/16/3 8/12/3 15/21/3
f 16/16/6 9/45/6 14/22/6
f 13/24/2 19/46/2 18/25/2
f 5/27/5 19/47/5 13/28/5
f 4/30/6 12/48/6 20/31/6
f 20/33/2 12/49/2 11/34/2
