# Blender v2.79 (sub 7) OBJ File: ''
# www.blender.org
mtllib roadTile_185.mtl
o Mesh1_Group1_Model.222
v 2.259150 0.455000 -2.903140
v 2.250000 0.455000 -3.000000
v 0.750000 0.455000 -3.000000
v 0.756827 0.455000 -2.701910
v 0.804783 0.455000 -2.407630
v 0.892946 0.455000 -2.122790
v 1.019630 0.455000 -1.852870
v 1.182390 0.455000 -1.603050
v 1.378120 0.455000 -1.378120
v 1.603050 0.455000 -1.182390
v 1.852870 0.455000 -1.019630
v 2.122790 0.455000 -0.892946
v 2.407630 0.455000 -0.804783
v 2.701910 0.455000 -0.756827
v 3.000000 0.455000 -0.750000
v 3.000000 0.455000 -2.250000
v 2.903140 0.455000 -2.259150
v 2.808190 0.455000 -2.280370
v 2.716650 0.455000 -2.313320
v 2.629960 0.455000 -2.357480
v 2.549490 0.455000 -2.412170
v 2.476510 0.455000 -2.476510
v 2.412170 0.455000 -2.549490
v 2.357480 0.455000 -2.629960
v 2.313320 0.455000 -2.716650
v 2.280370 0.455000 -2.808190
v 3.000000 0.000000 -0.750000
v 3.000000 0.000000 -2.250000
v 2.250000 0.000000 -3.000000
v 0.750000 0.000000 -3.000000
v 2.259150 0.550000 -2.903140
v 2.250000 0.550000 -3.000000
v 2.280370 0.550000 -2.808190
v 2.313320 0.550000 -2.716650
v 2.357480 0.550000 -2.629960
v 2.412170 0.550000 -2.549490
v 2.476510 0.550000 -2.476510
v 2.549490 0.550000 -2.412170
v 2.629960 0.550000 -2.357480
v 2.716650 0.550000 -2.313320
v 2.808190 0.550000 -2.280370
v 2.903140 0.550000 -2.259150
v 3.000000 0.550000 -2.250000
v 3.000000 0.000000 -3.000000
v 3.000000 0.550000 -3.000000
v 3.000000 0.000000 0.000000
v 0.000000 0.000000 0.000000
v 0.000000 0.000000 -3.000000
v 0.750000 0.550000 -3.000000
v 0.000000 0.550000 -3.000000
v 0.756827 0.550000 -2.701910
v 0.000000 0.550000 0.000000
v 3.000000 0.550000 0.000000
v 3.000000 0.550000 -0.750000
v 2.701910 0.550000 -0.756827
v 2.407630 0.550000 -0.804783
v 2.122790 0.550000 -0.892946
v 1.852870 0.550000 -1.019630
v 1.603050 0.550000 -1.182390
v 1.378120 0.550000 -1.378120
v 1.182390 0.550000 -1.603050
v 1.019630 0.550000 -1.852870
v 0.892946 0.550000 -2.122790
v 0.804783 0.550000 -2.407630
vt 2.476510 2.476510
vt 1.603050 1.182390
vt 2.549490 2.412170
vt 2.250000 0.000000
vt 0.750000 0.455000
vt 0.750000 0.000000
vt -0.750000 0.000000
vt -2.250000 0.455000
vt -2.250000 0.000000
vt 2.259150 2.903140
vt 2.250000 3.000000
vt 0.750000 3.000000
vt 0.756827 2.701910
vt 0.804783 2.407630
vt 2.280370 2.808190
vt 2.313320 2.716650
vt 0.892946 2.122790
vt 1.019630 1.852870
vt 2.357480 2.629960
vt 1.182390 1.603050
vt 2.412170 2.549490
vt 1.378120 1.378120
vt 1.852870 1.019630
vt 2.122790 0.892946
vt 2.629960 2.357480
vt 2.407630 0.804783
vt 2.716650 2.313320
vt 2.808190 2.280370
vt 2.701910 0.756827
vt 3.000000 0.750000
vt 2.903140 2.259150
vt 3.000000 2.250000
vt 2.250000 0.455000
vt -0.750000 0.455000
vt -2.677860 0.455000
vt -2.775150 0.550000
vt -2.775150 0.455000
vt -2.243300 0.455000
vt -2.340590 0.550000
vt -2.340590 0.455000
vt -1.772590 0.455000
vt -1.869890 0.550000
vt -1.869890 0.455000
vt -1.273160 0.455000
vt -1.370450 0.550000
vt -1.370450 0.455000
vt -0.752869 0.455000
vt -0.850161 0.550000
vt -0.850161 0.455000
vt -0.219938 0.455000
vt -0.317230 0.550000
vt -0.317230 0.455000
vt 0.317230 0.455000
vt 0.219938 0.550000
vt 0.219938 0.455000
vt 0.850161 0.455000
vt 0.752869 0.550000
vt 0.752869 0.455000
vt 1.370450 0.455000
vt 1.273160 0.550000
vt 1.273160 0.455000
vt 1.869890 0.455000
vt 1.772590 0.550000
vt 1.772590 0.455000
vt 2.340590 0.455000
vt 2.243300 0.550000
vt 2.243300 0.455000
vt 2.775150 0.455000
vt 2.677860 0.550000
vt 2.677860 0.455000
vt 3.000000 0.000000
vt 3.000000 0.550000
vt -3.000000 0.750000
vt -0.000000 -0.000000
vt -0.750000 3.000000
vt -2.250000 0.550000
vt -3.000000 0.550000
vt -0.000000 0.000000
vt -0.000000 0.550000
vt 2.982040 0.455000
vt 2.683870 0.550000
vt 2.683870 0.455000
vt 0.000000 0.000000
vt 1.378120 1.378120
vt 1.182390 1.603050
vt 3.000000 0.000000
vt 0.000000 0.550000
vt 0.750000 0.550000
vt 0.000000 0.550000
vt -2.683870 0.455000
vt -2.982040 0.550000
vt -2.982040 0.455000
vt -2.246840 0.455000
vt -2.545010 0.550000
vt -2.545010 0.455000
vt -1.763840 0.455000
vt -2.062010 0.550000
vt -2.062010 0.455000
vt -1.244130 0.455000
vt -1.542300 0.550000
vt -1.542300 0.455000
vt -0.697684 0.455000
vt -0.995851 0.550000
vt -0.995851 0.455000
vt -0.134989 0.455000
vt -0.433156 0.550000
vt -0.433156 0.455000
vt 0.433156 0.455000
vt 0.134989 0.550000
vt 0.134989 0.455000
vt 0.995851 0.455000
vt 0.697684 0.550000
vt 0.697684 0.455000
vt 1.542300 0.455000
vt 1.244130 0.550000
vt 1.244130 0.455000
vt 2.062010 0.455000
vt 1.763840 0.550000
vt 1.763840 0.455000
vt 2.545010 0.455000
vt 2.246840 0.550000
vt 2.246840 0.455000
vt -3.000000 0.550000
vt -3.000000 0.000000
vt 2.808190 2.280370
vt 2.903140 2.259150
vt 3.000000 3.000000
vt -2.677860 0.550000
vt -2.243300 0.550000
vt -1.772590 0.550000
vt -1.273160 0.550000
vt -0.752869 0.550000
vt -0.219938 0.550000
vt 0.317230 0.550000
vt 0.850161 0.550000
vt 1.370450 0.550000
vt 1.869890 0.550000
vt 2.340590 0.550000
vt 2.775150 0.550000
vt 2.250000 0.550000
vt -2.250000 3.000000
vt -3.000000 2.250000
vt -3.000000 3.000000
vt -3.000000 -0.000000
vt -0.000000 3.000000
vt -3.000000 0.000000
vt -0.750000 0.550000
vt 2.982040 0.550000
vt 3.000000 0.000000
vt 2.122790 0.892946
vt 3.000000 0.750000
vt 2.701910 0.756827
vt 2.407630 0.804783
vt 0.750000 3.000000
vt 0.000000 3.000000
vt 0.756827 2.701910
vt 0.892946 2.122790
vt 0.804783 2.407630
vt 1.852870 1.019630
vt 1.603050 1.182390
vt 1.019630 1.852870
vt 3.000000 0.550000
vt 0.000000 0.000000
vt -2.683870 0.550000
vt -2.246840 0.550000
vt -1.763840 0.550000
vt -1.244130 0.550000
vt -0.697684 0.550000
vt -0.134989 0.550000
vt 0.433156 0.550000
vt 0.995851 0.550000
vt 1.542300 0.550000
vt 2.062010 0.550000
vt 2.545010 0.550000
vt 3.000000 2.250000
vt 2.250000 3.000000
vt 2.259150 2.903140
vt 2.280370 2.808190
vt 2.313320 2.716650
vt 2.357480 2.629960
vt 2.412170 2.549490
vt 2.476510 2.476510
vt 2.549490 2.412170
vt 2.629960 2.357480
vt 2.716650 2.313320
vn -0.0000 1.0000 -0.0000
vn 1.0000 0.0000 0.0000
vn 0.0000 0.0000 -1.0000
vn -0.9877 0.0000 0.1564
vn -0.9956 0.0000 0.0940
vn -0.9603 0.0000 0.2789
vn -0.9178 0.0000 0.3971
vn -0.8608 0.0000 0.5090
vn -0.7901 0.0000 0.6129
vn -0.7071 0.0000 0.7071
vn -0.6129 0.0000 0.7901
vn -0.5090 0.0000 0.8608
vn -0.3971 0.0000 0.9178
vn -0.2789 0.0000 0.9603
vn -0.1564 0.0000 0.9877
vn -0.0940 0.0000 0.9956
vn 0.0000 -1.0000 -0.0000
vn 0.9997 0.0000 -0.0229
vn 0.9958 0.0000 -0.0921
vn 0.0000 -0.0000 1.0000
vn 0.0921 0.0000 -0.9958
vn 0.0229 0.0000 -0.9997
vn 0.2288 0.0000 -0.9735
vn 0.3611 0.0000 -0.9325
vn 0.4865 0.0000 -0.8737
vn 0.6026 0.0000 -0.7980
vn 0.7071 0.0000 -0.7071
vn 0.7980 0.0000 -0.6026
vn 0.8737 0.0000 -0.4865
vn 0.9325 0.0000 -0.3611
vn 0.9735 0.0000 -0.2288
vn -1.0000 0.0000 0.0000
usemtl Water.035
s 1
f 22/1/1 10/2/1 21/3/1
f 28/4/2 15/5/2 27/6/2
f 30/7/3 2/8/3 29/9/3
f 1/10/1 2/11/1 3/12/1
f 3/12/1 4/13/1 1/10/1
f 4/13/1 5/14/1 26/15/1
f 26/15/1 5/14/1 25/16/1
f 5/14/1 6/17/1 25/16/1
f 6/17/1 7/18/1 24/19/1
f 25/16/1 6/17/1 24/19/1
f 7/18/1 8/20/1 23/21/1
f 8/20/1 9/22/1 22/1/1
f 9/22/1 10/2/1 22/1/1
f 10/2/1 11/23/1 21/3/1
f 23/21/1 8/20/1 22/1/1
f 11/23/1 12/24/1 20/25/1
f 12/24/1 13/26/1 19/27/1
f 19/27/1 13/26/1 18/28/1
f 13/26/1 14/29/1 18/28/1
f 14/29/1 15/30/1 17/31/1
f 18/28/1 14/29/1 17/31/1
f 15/30/1 16/32/1 17/31/1
f 24/19/1 7/18/1 23/21/1
f 26/15/1 1/10/1 4/13/1
f 12/24/1 19/27/1 20/25/1
f 11/23/1 20/25/1 21/3/1
f 28/4/2 16/33/2 15/5/2
f 30/7/3 3/34/3 2/8/3
usemtl Grass.093
f 1/35/4 32/36/5 2/37/5
f 26/38/6 31/39/4 1/40/4
f 25/41/7 33/42/6 26/43/6
f 24/44/8 34/45/7 25/46/7
f 23/47/9 35/48/8 24/49/8
f 22/50/10 36/51/9 23/52/9
f 21/53/11 37/54/10 22/55/10
f 20/56/12 38/57/11 21/58/11
f 19/59/13 39/60/12 20/61/12
f 18/62/14 40/63/13 19/64/13
f 17/65/15 41/66/14 18/67/14
f 16/68/16 42/69/15 17/70/15
f 16/33/2 44/71/2 45/72/2
f 27/73/17 47/74/17 30/75/17
f 2/8/3 32/76/3 45/77/3
f 3/34/3 48/78/3 50/79/3
f 3/80/18 51/81/19 4/82/19
f 52/83/1 60/84/1 61/85/1
f 46/86/20 52/87/20 47/74/20
f 15/5/2 54/88/2 53/89/2
f 14/90/21 54/91/22 15/92/22
f 13/93/23 55/94/21 14/95/21
f 12/96/24 56/97/23 13/98/23
f 11/99/25 57/100/24 12/101/24
f 10/102/26 58/103/25 11/104/25
f 9/105/27 59/106/26 10/107/26
f 8/108/28 60/109/27 9/110/27
f 7/111/29 61/112/28 8/113/28
f 6/114/30 62/115/29 7/116/29
f 5/117/31 63/118/30 6/119/30
f 4/120/19 64/121/31 5/122/31
f 47/74/32 50/123/32 48/124/32
f 41/125/1 42/126/1 45/127/1
f 1/35/4 31/128/4 32/36/5
f 26/38/6 33/129/6 31/39/4
f 25/41/7 34/130/7 33/42/6
f 24/44/8 35/131/8 34/45/7
f 23/47/9 36/132/9 35/48/8
f 22/50/10 37/133/10 36/51/9
f 21/53/11 38/134/11 37/54/10
f 20/56/12 39/135/12 38/57/11
f 19/59/13 40/136/13 39/60/12
f 18/62/14 41/137/14 40/63/13
f 17/65/15 42/138/15 41/66/14
f 16/68/16 43/139/16 42/69/15
f 45/72/2 43/140/2 16/33/2
f 16/33/2 28/4/2 44/71/2
f 30/75/17 29/141/17 28/142/17
f 29/141/17 44/143/17 28/142/17
f 28/142/17 27/73/17 30/75/17
f 27/73/17 46/144/17 47/74/17
f 47/74/17 48/145/17 30/75/17
f 45/77/3 44/146/3 2/8/3
f 44/146/3 29/9/3 2/8/3
f 50/79/3 49/147/3 3/34/3
f 3/34/3 30/7/3 48/78/3
f 3/80/18 49/148/18 51/81/19
f 52/83/1 53/149/1 57/150/1
f 53/149/1 54/151/1 55/152/1
f 53/149/1 55/152/1 56/153/1
f 49/154/1 50/155/1 51/156/1
f 50/155/1 52/83/1 63/157/1
f 51/156/1 50/155/1 64/158/1
f 64/158/1 50/155/1 63/157/1
f 53/149/1 56/153/1 57/150/1
f 52/83/1 57/150/1 58/159/1
f 52/83/1 58/159/1 59/160/1
f 62/161/1 63/157/1 52/83/1
f 61/85/1 62/161/1 52/83/1
f 52/83/1 59/160/1 60/84/1
f 46/86/20 53/162/20 52/87/20
f 53/89/2 46/163/2 15/5/2
f 46/163/2 27/6/2 15/5/2
f 14/90/21 55/164/21 54/91/22
f 13/93/23 56/165/23 55/94/21
f 12/96/24 57/166/24 56/97/23
f 11/99/25 58/167/25 57/100/24
f 10/102/26 59/168/26 58/103/25
f 9/105/27 60/169/27 59/106/26
f 8/108/28 61/170/28 60/109/27
f 7/111/29 62/171/29 61/112/28
f 6/114/30 63/172/30 62/115/29
f 5/117/31 64/173/31 63/118/30
f 4/120/19 51/174/19 64/121/31
f 47/74/32 52/87/32 50/123/32
f 42/126/1 43/175/1 45/127/1
f 45/127/1 32/176/1 31/177/1
f 31/177/1 33/178/1 45/127/1
f 33/178/1 34/179/1 45/127/1
f 34/179/1 35/180/1 45/127/1
f 35/180/1 36/181/1 45/127/1
f 36/181/1 37/182/1 45/127/1
f 37/182/1 38/183/1 45/127/1
f 38/183/1 39/184/1 45/127/1
f 39/184/1 40/185/1 45/127/1
f 40/185/1 41/125/1 45/127/1
