# Blender v2.79 (sub 7) OBJ File: ''
# www.blender.org
mtllib roadTile_213.mtl
o Mesh1_Group1_Model.226
v -1.500000 1.100000 1.500000
v 1.500000 0.000000 1.500000
v 1.500000 1.730000 1.500000
v -1.500000 1.100000 -0.750000
v -1.500000 1.400000 1.125000
v 1.500000 1.730000 -0.750000
v 1.500000 0.000000 -0.750000
v -1.500000 0.000000 -0.750000
v -1.500000 0.000000 1.500000
v 1.500000 1.400000 1.125000
v -1.500000 1.730000 -0.375000
v 1.500000 1.730000 -0.375000
v 1.500000 1.700000 -0.375000
v -1.500000 1.700000 -0.375000
v -1.500000 1.700000 1.125000
v 1.500000 1.730000 1.125000
v 1.500000 1.700000 1.125000
v -1.500000 1.730000 1.500000
v -1.500000 1.730000 1.125000
v -1.500000 1.730000 -0.750000
v -1.500000 1.400000 -0.375000
v 1.500000 1.400000 -0.375000
vt 0.000000 1.100000
vt 3.000000 0.000000
vt 3.000000 1.730000
vt -2.250000 1.100000
vt -0.375000 1.400000
vt -0.000000 1.100000
vt -3.000000 1.730000
vt -3.000000 -0.000000
vt -2.250000 0.000000
vt 0.000000 0.000000
vt -3.000000 2.250000
vt -3.000000 0.000000
vt 0.375000 1.400000
vt 0.000000 -0.000000
vt 2.250000 -0.000000
vt 3.000000 2.250000
vt 0.000000 1.875000
vt 3.000000 1.875000
vt 3.000000 1.700000
vt 0.000000 1.730000
vt 0.000000 1.700000
vt -0.000000 1.700000
vt -3.000000 1.730000
vt -3.000000 1.700000
vt 0.000000 0.000000
vt 3.000000 0.375000
vt 0.000000 0.375000
vt 0.000000 1.730000
vt -1.875000 1.730000
vt -2.250000 1.730000
vt -1.875000 1.700000
vt -1.875000 1.400000
vt -0.375000 1.730000
vt -0.375000 1.700000
vt -0.000000 0.000000
vt -0.000000 1.730000
vt -0.000000 2.250000
vt 0.375000 1.730000
vt 0.000000 1.730000
vt 0.375000 1.700000
vt 2.250000 1.730000
vt 1.875000 1.400000
vt 1.875000 1.730000
vt 1.875000 1.700000
vt 0.000000 2.250000
vt 3.000000 1.730000
vt -0.000000 1.730000
vt 3.000000 0.000000
vt 0.000000 1.875000
vt 3.000000 0.375000
vt 3.000000 1.875000
vt 0.000000 0.375000
vn 0.0000 -0.0000 1.0000
vn -1.0000 0.0000 0.0000
vn 0.0000 0.0000 -1.0000
vn 0.0000 -1.0000 -0.0000
vn 1.0000 0.0000 0.0000
vn 0.0000 1.0000 0.0000
usemtl Stone.195
s 1
f 1/1/1 2/2/1 3/3/1
f 4/4/2 1/1/2 5/5/2
f 4/6/3 6/7/3 7/8/3
f 1/1/2 8/9/2 9/10/2
f 9/10/4 7/11/4 2/12/4
f 10/13/5 2/14/5 7/15/5
f 6/16/6 11/17/6 12/18/6
f 13/19/1 11/20/1 14/21/1
f 15/22/3 16/23/3 17/24/3
f 18/25/6 16/26/6 19/27/6
f 3/3/1 18/28/1 1/1/1
f 1/1/1 9/10/1 2/2/1
f 11/29/2 20/30/2 14/31/2
f 20/30/2 4/4/2 21/32/2
f 14/31/2 20/30/2 21/32/2
f 1/1/2 18/28/2 5/5/2
f 18/28/2 19/33/2 15/34/2
f 15/34/2 5/5/2 18/28/2
f 5/5/2 21/32/2 4/4/2
f 7/8/3 8/35/3 4/6/3
f 4/6/3 20/36/3 6/7/3
f 1/1/2 4/4/2 8/9/2
f 9/10/4 8/37/4 7/11/4
f 16/38/5 3/39/5 17/40/5
f 3/39/5 2/14/5 10/13/5
f 17/40/5 3/39/5 10/13/5
f 7/15/5 6/41/5 22/42/5
f 6/41/5 12/43/5 13/44/5
f 13/44/5 22/42/5 6/41/5
f 22/42/5 10/13/5 7/15/5
f 6/16/6 20/45/6 11/17/6
f 13/19/1 12/46/1 11/20/1
f 15/22/3 19/47/3 16/23/3
f 18/25/6 3/48/6 16/26/6
usemtl Asphalt.161
f 14/49/6 17/50/6 13/51/6
f 21/32/2 15/34/2 14/31/2
f 10/13/5 13/44/5 17/40/5
f 14/49/6 15/52/6 17/50/6
f 21/32/2 5/5/2 15/34/2
f 10/13/5 22/42/5 13/44/5
