# Blender v2.79 (sub 7) OBJ File: ''
# www.blender.org
mtllib roadTile_136.mtl
o Mesh1_Group1_Model.094
v 0.031944 0.630000 -0.694857
v 0.000000 0.630000 -0.937500
v 0.000000 0.000000 -0.937500
v 0.031944 0.000000 -0.694857
v 2.437500 0.630000 -0.562500
v 0.937500 0.630000 -0.562500
v 0.840443 0.630000 -0.575278
v 0.750000 0.630000 -0.612741
v 0.672335 0.630000 -0.672335
v 0.612740 0.630000 -0.750000
v 0.575278 0.630000 -0.840443
v 0.562500 0.630000 -0.937500
v 0.575278 0.630000 -1.034560
v 0.612740 0.630000 -1.125000
v 0.672335 0.630000 -1.202670
v 0.750000 0.630000 -1.262260
v 0.840443 0.630000 -1.299720
v 0.937500 0.630000 -1.312500
v 2.437500 0.630000 -1.312500
v 2.437500 0.630000 -1.875000
v 0.937500 0.630000 -1.875000
v 0.694857 0.630000 -1.843060
v 0.468750 0.630000 -1.749400
v 0.274587 0.630000 -1.600410
v 0.125601 0.630000 -1.406250
v 0.031944 0.630000 -1.180140
v 0.125601 0.630000 -0.468750
v 0.274587 0.630000 -0.274587
v 0.468750 0.630000 -0.125601
v 0.694857 0.630000 -0.031944
v 0.937500 0.630000 0.000000
v 2.437500 0.630000 0.000000
v 2.437500 0.600000 -0.562500
v 0.937500 0.600000 -0.562500
v 2.437500 0.000000 0.000000
v 2.437500 0.000000 -1.875000
v 2.437500 0.600000 -1.312500
v 2.437500 0.300000 -1.312500
v 2.437500 0.300000 -0.562500
v 0.937500 0.000000 0.000000
v 0.694857 0.000000 -0.031944
v 0.468750 0.000000 -0.125601
v 0.274587 0.000000 -0.274587
v 0.125601 0.000000 -0.468750
v 0.031944 0.000000 -1.180140
v 0.125601 0.000000 -1.406250
v 0.274587 0.000000 -1.600410
v 0.468750 0.000000 -1.749400
v 0.694857 0.000000 -1.843060
v 0.937500 0.000000 -1.875000
v 0.937500 0.600000 -1.312500
v 0.840443 0.600000 -1.299720
v 0.750000 0.600000 -1.262260
v 0.672335 0.600000 -1.202670
v 0.612740 0.600000 -1.125000
v 0.575278 0.600000 -1.034560
v 0.562500 0.600000 -0.937500
v 0.575278 0.600000 -0.840443
v 0.612740 0.600000 -0.750000
v 0.672335 0.600000 -0.672335
v 0.750000 0.600000 -0.612741
v 0.840443 0.600000 -0.575278
vt -0.929480 0.630000
vt -0.684743 0.000000
vt -0.684743 0.630000
vt 0.575278 1.034560
vt 0.612740 1.125000
vt 0.125601 1.406250
vt -2.437500 0.630000
vt -0.937500 0.600000
vt -0.937500 0.630000
vt 0.000000 -0.000000
vt 1.875000 -0.000000
vt 0.562500 0.300000
vt -0.274587 1.600410
vt -0.694857 1.843060
vt -0.274587 0.274587
vt 0.937500 0.630000
vt 2.437500 0.000000
vt 2.437500 0.630000
vt 0.684743 0.630000
vt 0.929480 0.000000
vt 0.929480 0.630000
vt 0.385003 0.630000
vt 0.629740 0.000000
vt 0.629740 0.630000
vt 0.050687 0.630000
vt 0.295423 0.000000
vt 0.295423 0.630000
vt -0.295423 0.630000
vt -0.050687 0.000000
vt -0.050687 0.630000
vt -0.629740 0.630000
vt -0.385003 0.000000
vt -0.385003 0.630000
vt -1.174220 0.630000
vt -0.929480 0.000000
vt -1.347270 0.630000
vt -1.102530 0.000000
vt -1.102530 0.630000
vt -1.436850 0.630000
vt -1.192110 0.000000
vt -1.192110 0.630000
vt -1.436850 0.630000
vt -1.192110 0.000000
vt -1.192110 0.630000
vt -1.347270 0.630000
vt -1.102530 0.000000
vt -1.102530 0.630000
vt -1.174220 0.630000
vt -0.929480 0.000000
vt -0.929480 0.630000
vt -2.437500 0.630000
vt -0.937500 -0.000000
vt -0.937500 0.630000
vt 0.937500 0.630000
vt 2.437500 0.600000
vt 2.437500 0.630000
vt 1.002900 0.630000
vt 1.100800 0.600000
vt 1.100800 0.630000
vt 1.175960 0.630000
vt 1.273850 0.600000
vt 1.273850 0.630000
vt 1.265540 0.630000
vt 1.363430 0.600000
vt 1.363430 0.630000
vt 1.265540 0.630000
vt 1.363430 0.600000
vt 1.363430 0.630000
vt 1.175960 0.630000
vt 1.273850 0.600000
vt 1.273850 0.630000
vt 1.002900 0.630000
vt 1.100800 0.600000
vt 1.100800 0.630000
vt 0.758164 0.630000
vt 0.856059 0.600000
vt 0.856059 0.630000
vt 0.458424 0.630000
vt 0.556319 0.600000
vt 0.556319 0.630000
vt 0.124108 0.630000
vt 0.222002 0.600000
vt 0.222002 0.630000
vt -0.222002 0.630000
vt -0.124108 0.600000
vt -0.124108 0.630000
vt -0.556319 0.630000
vt -0.458424 0.600000
vt -0.458424 0.630000
vt -0.856059 0.630000
vt -0.758164 0.600000
vt -0.758164 0.630000
vt 2.437500 -0.000000
vt 2.437500 0.562500
vt 0.937500 0.562500
vt 0.937500 0.000000
vt 0.840443 0.575278
vt 0.694857 0.031944
vt 0.274587 0.274587
vt 0.468750 0.125601
vt 0.672335 0.672335
vt 0.750000 0.612741
vt 0.612740 0.750000
vt 0.031944 0.694857
vt 0.125601 0.468750
vt 0.575278 0.840443
vt 0.031944 1.180140
vt -0.000000 0.937500
vt 0.562500 0.937500
vt 0.274587 1.600410
vt 0.694857 1.843060
vt 0.468750 1.749400
vt 0.840443 1.299720
vt 0.750000 1.262260
vt 2.437500 1.875000
vt 0.937500 1.875000
vt 0.937500 1.312500
vt 2.437500 1.312500
vt 0.672335 1.202670
vt -2.437500 0.600000
vt 1.875000 0.630000
vt 1.312500 0.300000
vt 1.312500 0.630000
vt 1.312500 0.600000
vt 0.562500 0.630000
vt 0.000000 0.630000
vt 0.562500 0.600000
vt -0.937500 1.875000
vt -2.437500 1.875000
vt -2.437500 0.000000
vt -0.937500 0.000000
vt -0.694857 0.031944
vt -0.468750 0.125601
vt -0.125601 0.468750
vt -0.031944 1.180140
vt -0.031944 0.694857
vt 0.000000 0.937500
vt -0.125601 1.406250
vt -0.468750 1.749400
vt 0.937500 0.000000
vt 0.684743 0.000000
vt 0.385003 0.000000
vt 0.050687 0.000000
vt -0.295423 0.000000
vt -0.629740 0.000000
vt -1.174220 0.000000
vt -1.347270 0.000000
vt -1.436850 0.000000
vt -1.436850 0.000000
vt -1.347270 0.000000
vt -1.174220 0.000000
vt -2.437500 -0.000000
vt 0.937500 0.600000
vt 1.002900 0.600000
vt 1.175960 0.600000
vt 1.265540 0.600000
vt 1.265540 0.600000
vt 1.175960 0.600000
vt 1.002900 0.600000
vt 0.758164 0.600000
vt 0.458424 0.600000
vt 0.124108 0.600000
vt -0.222002 0.600000
vt -0.556319 0.600000
vt -0.856059 0.600000
vt 0.575278 0.840443
vt 0.672335 0.672335
vt 0.840443 1.299720
vt 0.750000 0.612741
vt 0.840443 0.575278
vt 0.937500 0.562500
vt 2.437500 0.562500
vt 2.437500 1.312500
vt 0.937500 1.312500
vt 0.750000 1.262260
vt 0.672335 1.202670
vt 0.612740 1.125000
vt 0.575278 1.034560
vt 0.562500 0.937500
vt 0.612740 0.750000
vn -1.0000 0.0000 -0.0000
vn -0.9659 0.0000 0.2588
vn 0.0000 1.0000 -0.0000
vn 0.0000 0.0000 -1.0000
vn 0.0654 0.0000 -0.9979
vn 1.0000 0.0000 0.0000
vn 0.0000 -1.0000 -0.0000
vn -0.0654 -0.0000 0.9979
vn 0.0000 -0.0000 1.0000
vn -0.2588 -0.0000 0.9659
vn -0.5000 -0.0000 0.8660
vn -0.7071 -0.0000 0.7071
vn -0.8660 -0.0000 0.5000
vn -0.9659 0.0000 -0.2588
vn -0.8660 0.0000 -0.5000
vn -0.7071 0.0000 -0.7071
vn -0.5000 0.0000 -0.8660
vn -0.2588 0.0000 -0.9659
vn -0.0654 0.0000 -0.9979
vn 0.0654 0.0000 0.9979
vn 0.2588 0.0000 0.9659
vn 0.5000 0.0000 0.8660
vn 0.7071 0.0000 0.7071
vn 0.8660 0.0000 0.5000
vn 0.9659 0.0000 0.2588
vn 0.9659 0.0000 -0.2588
vn 0.8660 0.0000 -0.5000
vn 0.7071 0.0000 -0.7071
vn 0.5000 0.0000 -0.8660
vn 0.2588 0.0000 -0.9659
usemtl Stone.075
s 1
f 2/1/1 4/2/2 1/3/2
f 13/4/3 14/5/3 25/6/3
f 5/7/4 34/8/5 6/9/5
f 35/10/6 36/11/6 39/12/6
f 47/13/7 49/14/7 43/15/7
f 31/16/8 35/17/9 32/18/9
f 30/19/10 40/20/8 31/21/8
f 29/22/11 41/23/10 30/24/10
f 28/25/12 42/26/11 29/27/11
f 27/28/13 43/29/12 28/30/12
f 1/31/2 44/32/13 27/33/13
f 26/34/14 3/35/1 2/1/1
f 25/36/15 45/37/14 26/38/14
f 24/39/16 46/40/15 25/41/15
f 23/42/17 47/43/16 24/44/16
f 22/45/18 48/46/17 23/47/17
f 21/48/19 49/49/18 22/50/18
f 20/51/4 50/52/19 21/53/19
f 18/54/20 37/55/9 19/56/9
f 17/57/21 51/58/20 18/59/20
f 16/60/22 52/61/21 17/62/21
f 15/63/23 53/64/22 16/65/22
f 14/66/24 54/67/23 15/68/23
f 13/69/25 55/70/24 14/71/24
f 12/72/6 56/73/25 13/74/25
f 11/75/26 57/76/6 12/77/6
f 10/78/27 58/79/26 11/80/26
f 9/81/28 59/82/27 10/83/27
f 8/84/29 60/85/28 9/86/28
f 7/87/30 61/88/29 8/89/29
f 6/90/5 62/91/30 7/92/30
f 2/1/1 3/35/1 4/2/2
f 32/93/3 5/94/3 6/95/3
f 32/93/3 6/95/3 31/96/3
f 6/95/3 7/97/3 31/96/3
f 30/98/3 31/96/3 7/97/3
f 28/99/3 29/100/3 9/101/3
f 29/100/3 30/98/3 8/102/3
f 28/99/3 9/101/3 10/103/3
f 1/104/3 27/105/3 11/106/3
f 27/105/3 28/99/3 10/103/3
f 11/106/3 27/105/3 10/103/3
f 26/107/3 2/108/3 12/109/3
f 2/108/3 1/104/3 11/106/3
f 24/110/3 25/6/3 14/5/3
f 25/6/3 26/107/3 13/4/3
f 13/4/3 26/107/3 12/109/3
f 22/111/3 23/112/3 17/113/3
f 23/112/3 24/110/3 16/114/3
f 17/113/3 23/112/3 16/114/3
f 20/115/3 21/116/3 18/117/3
f 21/116/3 22/111/3 17/113/3
f 18/117/3 19/118/3 20/115/3
f 17/113/3 18/117/3 21/116/3
f 2/108/3 11/106/3 12/109/3
f 30/98/3 7/97/3 8/102/3
f 8/102/3 9/101/3 29/100/3
f 15/119/3 16/114/3 24/110/3
f 14/5/3 15/119/3 24/110/3
f 5/7/4 33/120/4 34/8/5
f 36/11/6 20/121/6 38/122/6
f 20/121/6 19/123/6 37/124/6
f 37/124/6 38/122/6 20/121/6
f 5/125/6 32/126/6 33/127/6
f 32/126/6 35/10/6 39/12/6
f 33/127/6 32/126/6 39/12/6
f 36/11/6 38/122/6 39/12/6
f 50/128/7 36/129/7 35/130/7
f 35/130/7 40/131/7 50/128/7
f 40/131/7 41/132/7 49/14/7
f 41/132/7 42/133/7 43/15/7
f 43/15/7 44/134/7 45/135/7
f 44/134/7 4/136/7 45/135/7
f 4/136/7 3/137/7 45/135/7
f 45/135/7 46/138/7 47/13/7
f 47/13/7 48/139/7 49/14/7
f 49/14/7 50/128/7 40/131/7
f 41/132/7 43/15/7 49/14/7
f 45/135/7 47/13/7 43/15/7
f 31/16/8 40/140/8 35/17/9
f 30/19/10 41/141/10 40/20/8
f 29/22/11 42/142/11 41/23/10
f 28/25/12 43/143/12 42/26/11
f 27/28/13 44/144/13 43/29/12
f 1/31/2 4/145/2 44/32/13
f 26/34/14 45/146/14 3/35/1
f 25/36/15 46/147/15 45/37/14
f 24/39/16 47/148/16 46/40/15
f 23/42/17 48/149/17 47/43/16
f 22/45/18 49/150/18 48/46/17
f 21/48/19 50/151/19 49/49/18
f 20/51/4 36/152/4 50/52/19
f 18/54/20 51/153/20 37/55/9
f 17/57/21 52/154/21 51/58/20
f 16/60/22 53/155/22 52/61/21
f 15/63/23 54/156/23 53/64/22
f 14/66/24 55/157/24 54/67/23
f 13/69/25 56/158/25 55/70/24
f 12/72/6 57/159/6 56/73/25
f 11/75/26 58/160/26 57/76/6
f 10/78/27 59/161/27 58/79/26
f 9/81/28 60/162/28 59/82/27
f 8/84/29 61/163/29 60/85/28
f 7/87/30 62/164/30 61/88/29
f 6/90/5 34/165/5 62/91/30
usemtl Asphalt.059
f 58/166/3 60/167/3 52/168/3
f 33/127/6 38/122/6 37/124/6
f 61/169/3 62/170/3 34/171/3
f 34/171/3 33/172/3 37/173/3
f 37/173/3 51/174/3 34/171/3
f 51/174/3 52/168/3 34/171/3
f 52/168/3 53/175/3 54/176/3
f 54/176/3 55/177/3 52/168/3
f 55/177/3 56/178/3 52/168/3
f 56/178/3 57/179/3 58/166/3
f 58/166/3 59/180/3 60/167/3
f 60/167/3 61/169/3 52/168/3
f 61/169/3 34/171/3 52/168/3
f 56/178/3 58/166/3 52/168/3
f 33/127/6 39/12/6 38/122/6
