# Blender v2.79 (sub 7) OBJ File: ''
# www.blender.org
mtllib roadTile_062.mtl
o Mesh1_Group1_Model.199
v 3.000000 0.630000 0.000000
v 3.000000 0.000000 0.000000
v 3.000000 0.000000 -3.000000
v 3.000000 0.630000 -3.000000
v 3.000000 0.630000 -2.250000
v 3.000000 0.600000 -2.250000
v 3.000000 0.300000 -2.250000
v 3.000000 0.300000 -0.750001
v 3.000000 0.600000 -0.750001
v 3.000000 0.630000 -0.750001
v 0.000000 0.000000 0.000000
v 0.000000 0.630000 0.000000
v 0.000000 0.000000 -3.000000
v 0.000000 0.630000 -3.000000
v 0.750000 0.630000 -0.750001
v 0.750000 0.630000 -2.250000
v 0.750000 0.600000 -0.750001
v 0.750000 0.600000 -2.250000
vt 0.750001 0.300000
vt 0.000000 0.000000
vt 3.000000 0.000000
vt 3.000000 -0.000000
vt -0.000000 0.630000
vt -0.000000 0.000000
vt -3.000000 0.000000
vt -0.000000 3.000000
vt -3.000000 3.000000
vt -3.000000 0.630000
vt -3.000000 0.000000
vt 0.750000 0.750001
vt 0.750000 2.250000
vt 0.000000 3.000000
vt -0.750000 0.630000
vt -3.000000 0.600000
vt -0.750000 0.600000
vt 2.250000 0.600000
vt 0.750001 0.630000
vt 0.750001 0.600000
vt 0.750000 0.630000
vt 3.000000 0.600000
vt 3.000000 0.630000
vt 0.000000 0.000000
vt -3.000000 0.630000
vt -3.000000 0.000000
vt 0.750001 0.630000
vt 0.000000 0.630000
vt 0.750001 0.600000
vt 3.000000 0.630000
vt 2.250000 0.300000
vt 2.250000 0.630000
vt 2.250000 0.600000
vt 3.000000 0.630000
vt 3.000000 0.000000
vt 3.000000 0.750001
vt 3.000000 2.250000
vt 3.000000 3.000000
vt 0.000000 0.000000
vt -3.000000 0.630000
vt 2.250000 0.630000
vt 0.750000 0.600000
vt 0.000000 0.630000
vt 0.750000 2.250000
vt 3.000000 0.750001
vt 3.000000 2.250000
vt 0.750000 0.750001
vn 1.0000 0.0000 0.0000
vn 0.0000 -0.0000 1.0000
vn 0.0000 -1.0000 -0.0000
vn -1.0000 0.0000 0.0000
vn -0.0000 1.0000 0.0000
vn 0.0000 0.0000 -1.0000
usemtl Stone.172
s 1
f 8/1/1 2/2/1 3/3/1
f 2/4/2 12/5/2 11/6/2
f 2/7/3 13/8/3 3/9/3
f 11/6/4 14/10/4 13/11/4
f 15/12/5 16/13/5 14/14/5
f 15/15/6 9/16/6 17/17/6
f 18/18/1 15/19/1 17/20/1
f 16/21/2 6/22/2 5/23/2
f 13/24/6 4/25/6 3/26/6
f 10/27/1 1/28/1 9/29/1
f 1/28/1 2/2/1 8/1/1
f 9/29/1 1/28/1 8/1/1
f 3/3/1 4/30/1 7/31/1
f 4/30/1 5/32/1 6/33/1
f 6/33/1 7/31/1 4/30/1
f 7/31/1 8/1/1 3/3/1
f 2/4/2 1/34/2 12/5/2
f 2/7/3 11/6/3 13/8/3
f 11/6/4 12/5/4 14/10/4
f 1/35/5 10/36/5 15/12/5
f 16/13/5 5/37/5 4/38/5
f 12/39/5 1/35/5 15/12/5
f 16/13/5 4/38/5 14/14/5
f 12/39/5 15/12/5 14/14/5
f 15/15/6 10/40/6 9/16/6
f 18/18/1 16/41/1 15/19/1
f 16/21/2 18/42/2 6/22/2
f 13/24/6 14/43/6 4/25/6
usemtl Asphalt.143
f 18/44/5 9/45/5 6/46/5
f 8/1/1 6/33/1 9/29/1
f 18/44/5 17/47/5 9/45/5
f 8/1/1 7/31/1 6/33/1
