# Blender v2.79 (sub 7) OBJ File: ''
# www.blender.org
mtllib roadTile_104.mtl
o Mesh1_Group1_Model.242
v -1.500000 0.600000 -1.500000
v 1.500000 0.600000 -0.562500
v 1.500000 0.600000 -1.500000
v 1.500000 0.300000 -1.500000
v -1.500000 0.300000 -1.500000
v -1.500000 0.570000 -0.375000
v -1.500000 0.570000 -0.562500
v -1.500000 0.300000 1.500000
v 1.500000 0.600000 1.500000
v -1.500000 0.600000 1.500000
v 1.500000 0.300000 1.500000
v 1.500000 0.570000 0.375000
v 1.500000 0.570000 0.562500
v -1.500000 0.600000 0.375000
v 1.500000 0.600000 -0.375000
v -1.500000 0.600000 -0.375000
v -1.500000 0.600000 0.562500
v -1.500000 0.600000 -0.562500
v -1.500000 0.570000 0.375000
v -1.500000 0.570000 0.562500
v 1.500000 0.600000 0.562500
v 1.500000 0.570000 -0.375000
v 1.500000 0.570000 -0.562500
v 1.500000 0.600000 0.375000
v -1.500000 0.000000 1.500000
v 1.500000 0.000000 1.500000
v 1.500000 0.000000 -1.500000
v -1.500000 0.000000 -1.500000
vt 0.000000 3.000000
vt 3.000000 2.062500
vt 3.000000 3.000000
vt -0.000000 0.600000
vt -3.000000 0.300000
vt -0.000000 0.300000
vt -3.000000 0.300000
vt -1.875000 0.570000
vt -2.062500 0.570000
vt -0.000000 0.300000
vt 3.000000 0.600000
vt 0.000000 0.600000
vt 0.000000 0.300000
vt 1.125000 0.570000
vt 0.937500 0.570000
vt 0.000000 1.125000
vt 3.000000 1.875000
vt 0.000000 1.875000
vt 3.000000 0.000000
vt 0.000000 0.937500
vt 0.000000 0.000000
vt 0.000000 2.062500
vt -3.000000 0.600000
vt -2.062500 0.600000
vt -3.000000 0.600000
vt -1.125000 0.570000
vt -0.937500 0.570000
vt -0.937500 0.600000
vt -1.125000 0.600000
vt -1.875000 0.600000
vt 3.000000 0.300000
vt 0.937500 0.600000
vt 0.000000 0.600000
vt 3.000000 0.300000
vt 1.875000 0.570000
vt 3.000000 0.600000
vt 2.062500 0.570000
vt 2.062500 0.600000
vt 1.875000 0.600000
vt 1.125000 0.600000
vt 3.000000 1.125000
vt 3.000000 0.937500
vt 118.110001 0.000000
vt 0.000000 118.110001
vt 0.000000 0.000000
vt 118.110001 118.110001
vt 0.000000 -0.000000
vt 3.000000 0.000000
vt 0.000000 -0.000000
vt 3.000000 -0.000000
vt -3.000000 -0.000000
vt 0.000000 -0.000000
vt -3.000000 0.000000
vt -3.000000 3.000000
vt -0.000000 3.000000
vt -3.000000 0.000000
vt 3.000000 0.600000
vt 0.000000 0.570000
vt 3.000000 0.570000
vt 3.000000 1.875000
vt 0.000000 2.062500
vt 0.000000 1.875000
vt -3.000000 0.600000
vt 0.000000 0.570000
vt 0.000000 0.600000
vt -0.000000 0.600000
vt 3.000000 0.570000
vt 3.000000 0.600000
vt 0.000000 0.937500
vt 3.000000 1.125000
vt 0.000000 1.125000
vt -3.000000 0.600000
vt -0.000000 0.570000
vt -0.000000 0.600000
vt 0.000000 0.600000
vt 3.000000 2.062500
vt -3.000000 0.570000
vt -0.000000 0.570000
vt 3.000000 0.937500
vt -3.000000 0.570000
vn 0.0000 1.0000 0.0000
vn 0.0000 0.0000 -1.0000
vn -1.0000 0.0000 0.0000
vn 0.0000 0.0000 1.0000
vn 1.0000 0.0000 0.0000
vn 0.0000 -1.0000 -0.0000
usemtl Asphalt.169
s 1
f 1/1/1 2/2/1 3/3/1
f 1/4/2 4/5/2 5/6/2
f 5/7/3 6/8/3 7/9/3
f 8/10/4 9/11/4 10/12/4
f 11/13/5 12/14/5 13/15/5
f 14/16/1 15/17/1 16/18/1
f 9/19/1 17/20/1 10/21/1
f 1/1/1 18/22/1 2/2/1
f 1/4/2 3/23/2 4/5/2
f 18/24/3 1/25/3 7/9/3
f 1/25/3 5/7/3 7/9/3
f 5/7/3 8/10/3 19/26/3
f 8/10/3 10/12/3 20/27/3
f 10/12/3 17/28/3 20/27/3
f 19/26/3 14/29/3 16/30/3
f 8/10/3 20/27/3 19/26/3
f 19/26/3 16/30/3 6/8/3
f 5/7/3 19/26/3 6/8/3
f 8/10/4 11/31/4 9/11/4
f 21/32/5 9/33/5 13/15/5
f 9/33/5 11/13/5 13/15/5
f 11/13/5 4/34/5 22/35/5
f 4/34/5 3/36/5 23/37/5
f 3/36/5 2/38/5 23/37/5
f 22/35/5 15/39/5 24/40/5
f 4/34/5 23/37/5 22/35/5
f 22/35/5 24/40/5 12/14/5
f 11/13/5 22/35/5 12/14/5
f 14/16/1 24/41/1 15/17/1
f 9/19/1 21/42/1 17/20/1
usemtl FrontColor.008
f 11/43/1 5/44/1 8/45/1
f 11/43/1 4/46/1 5/44/1
usemtl Stone.206
f 11/31/4 25/47/4 26/48/4
f 4/34/5 26/49/5 27/50/5
f 5/6/2 27/51/2 28/52/2
f 8/10/3 28/53/3 25/47/3
f 27/54/6 25/47/6 28/55/6
f 11/31/4 8/10/4 25/47/4
f 4/34/5 11/13/5 26/49/5
f 5/6/2 4/5/2 27/51/2
f 8/10/3 5/7/3 28/53/3
f 27/54/6 26/56/6 25/47/6
usemtl Grey_Asphalt.014
f 2/57/4 7/58/4 23/59/4
f 22/60/1 7/61/1 6/62/1
f 15/63/2 6/64/2 16/65/2
f 14/66/4 12/67/4 24/68/4
f 20/69/1 12/70/1 19/71/1
f 21/72/2 20/73/2 17/74/2
f 2/57/4 18/75/4 7/58/4
f 22/60/1 23/76/1 7/61/1
f 15/63/2 22/77/2 6/64/2
f 14/66/4 19/78/4 12/67/4
f 20/69/1 13/79/1 12/70/1
f 21/72/2 13/80/2 20/73/2
