# Blender v2.79 (sub 7) OBJ File: ''
# www.blender.org
mtllib roadTile_012.mtl
o Mesh1_Group1_Model.262
v -1.500000 0.550000 -1.500000
v -1.500000 0.000000 1.500000
v -1.500000 1.650000 1.500000
v -1.500000 0.000000 -1.500000
v 1.500000 0.550000 -1.500000
v 1.500000 0.000000 -1.500000
v 1.500000 0.000000 1.500000
v 1.500000 0.550000 1.500000
v 0.621320 0.550000 -0.621320
v 0.880060 0.550000 -0.326280
v -1.108421 0.550000 -1.474330
v -0.723543 0.550000 -1.397780
v -0.351950 0.550000 -1.271640
v 0.000000 0.550000 -1.098080
v 0.326280 0.550000 -0.880060
v 1.098080 0.550000 0.000000
v 1.271640 0.550000 0.351950
v 1.397780 0.550000 0.723543
v 1.474330 0.550000 1.108421
vt -3.000000 0.550000
vt -0.000000 -0.000000
vt 0.000000 1.650000
vt 0.000000 -0.000000
vt -3.000000 0.550000
vt -3.000000 -0.000000
vt 0.000000 3.000000
vt -3.000000 0.000000
vt 3.000000 0.000000
vt 0.000000 0.550000
vt 0.000000 0.000000
vt 3.000000 3.000000
vt 2.121320 2.121320
vt 2.380060 1.826280
vt -0.000000 0.569094
vt -0.196209 -2.620190
vt 0.196209 -2.620190
vt -0.196209 -2.620190
vt 0.196209 -2.620190
vt -0.196209 -2.620190
vt 0.196209 -2.620190
vt -0.196209 -2.620190
vt 0.196209 -2.620190
vt -0.196209 -2.620190
vt 0.196209 -2.620190
vt -0.196209 -2.620190
vt 0.196209 -2.620190
vt -0.196209 -2.620190
vt 0.196209 -2.620190
vt -0.196209 -2.620190
vt 0.196209 -2.620190
vt -0.196209 -2.620190
vt 0.196209 -2.620190
vt -0.196209 -2.620190
vt 0.196209 -2.620190
vt -0.196209 -2.620190
vt 0.196209 -2.620190
vt -0.196209 -2.620190
vt 0.196209 -2.620190
vt 3.000000 0.550000
vt -3.000000 -0.000000
vt 0.000000 0.550000
vt -3.000000 3.000000
vt 3.000000 0.550000
vt -0.000000 3.000000
vt 0.391579 2.974330
vt 0.776457 2.897780
vt 2.974330 0.391579
vt 3.000000 0.000000
vt 2.897780 0.776457
vt 1.148050 2.771640
vt 1.500000 2.598080
vt 2.771640 1.148050
vt 2.598080 1.500000
vt 1.826280 2.380060
vt 3.000000 -0.000000
vn -1.0000 0.0000 0.0000
vn 0.0000 0.0000 -1.0000
vn 0.0000 -1.0000 -0.0000
vn 1.0000 0.0000 0.0000
vn 0.0000 1.0000 0.0000
vn 0.2222 0.9493 -0.2222
vn 0.0449 0.9389 -0.3413
vn 0.0226 0.9386 -0.3442
vn 0.0891 0.9389 -0.3325
vn 0.1317 0.9389 -0.3180
vn 0.1721 0.9389 -0.2981
vn 0.2096 0.9389 -0.2731
vn 0.2434 0.9389 -0.2434
vn 0.2731 0.9389 -0.2096
vn 0.2981 0.9389 -0.1721
vn 0.3180 0.9389 -0.1317
vn 0.3325 0.9389 -0.0891
vn 0.3413 0.9389 -0.0449
vn 0.3442 0.9386 -0.0226
vn 0.0000 -0.0000 1.0000
usemtl Grass.112
s 1
f 1/1/1 2/2/1 3/3/1
f 4/4/2 5/5/2 6/6/2
f 4/7/3 7/8/3 2/2/3
f 6/9/4 8/10/4 7/11/4
f 5/12/5 9/13/5 10/14/5
f 3/15/6 11/16/7 1/17/8
f 3/15/6 12/18/9 11/19/7
f 3/15/6 13/20/10 12/21/9
f 3/15/6 14/22/11 13/23/10
f 3/15/6 15/24/12 14/25/11
f 3/15/6 9/26/13 15/27/12
f 3/15/6 10/28/14 9/29/13
f 3/15/6 16/30/15 10/31/14
f 3/15/6 17/32/16 16/33/15
f 3/15/6 18/34/17 17/35/16
f 3/15/6 19/36/18 18/37/17
f 3/15/6 8/38/19 19/39/18
f 2/2/20 8/40/20 3/3/20
f 1/1/1 4/41/1 2/2/1
f 4/4/2 1/42/2 5/5/2
f 4/7/3 6/43/3 7/8/3
f 6/9/4 5/44/4 8/10/4
f 5/12/5 1/45/5 11/46/5
f 5/12/5 11/46/5 12/47/5
f 19/48/5 8/49/5 5/12/5
f 18/50/5 19/48/5 5/12/5
f 5/12/5 12/47/5 13/51/5
f 5/12/5 13/51/5 14/52/5
f 17/53/5 18/50/5 5/12/5
f 16/54/5 17/53/5 5/12/5
f 5/12/5 14/52/5 15/55/5
f 5/12/5 15/55/5 9/13/5
f 10/14/5 16/54/5 5/12/5
f 2/2/20 7/56/20 8/40/20
