# Blender v2.79 (sub 7) OBJ File: ''
# www.blender.org
mtllib roadTile_022.mtl
o Mesh1_Group1_Model.229
v 2.535670 0.455000 -2.506750
v 2.250000 0.455000 -3.000000
v 0.750000 0.455000 -3.000000
v 0.998188 0.455000 -1.898550
v 1.956180 0.455000 -0.971142
v 3.000000 0.455000 -0.750000
v 3.000000 0.455000 -2.250000
v 2.535670 0.550000 -2.506750
v 2.250000 0.550000 -3.000000
v 3.000000 0.550000 -2.250000
v 0.998188 0.550000 -1.898550
v 1.956180 0.550000 -0.971142
v 0.750000 0.550000 -3.000000
v 3.000000 0.550000 -0.750000
v 2.250000 0.300000 -3.000000
v 0.750000 0.300000 -3.000000
v 3.000000 0.300000 -0.750000
v 3.000000 0.300000 -2.250000
v 3.000000 0.000000 -3.000000
v 3.000000 0.550000 -3.000000
v 3.000000 0.550000 0.000000
v 3.000000 0.000000 0.000000
v 0.000000 0.000000 -3.000000
v 0.000000 0.550000 -3.000000
v 0.000000 0.000000 0.000000
v 0.000000 0.550000 0.000000
vt 3.000000 2.250000
vt 2.535670 2.506750
vt 1.956180 0.971142
vt -0.898378 0.455000
vt -1.468380 0.550000
vt -1.468380 0.455000
vt 1.536570 0.455000
vt 1.005990 0.550000
vt 1.005990 0.455000
vt 0.603348 0.455000
vt -0.730004 0.550000
vt -0.730004 0.455000
vt 2.761760 0.455000
vt 1.632690 0.550000
vt 1.632690 0.455000
vt -1.712430 0.455000
vt -2.779420 0.550000
vt -2.779420 0.455000
vt -2.250000 0.300000
vt -0.750000 0.455000
vt -2.250000 0.455000
vt 0.750000 0.300000
vt 2.250000 0.455000
vt 0.750000 0.455000
vt 2.250000 3.000000
vt 0.998188 1.898550
vt 0.750000 3.000000
vt 3.000000 0.750000
vt -0.898378 0.550000
vt 1.536570 0.550000
vt 0.603348 0.550000
vt 2.761760 0.550000
vt -1.712430 0.550000
vt -0.750000 0.300000
vt 2.250000 0.300000
vt 3.000000 0.000000
vt 0.000000 0.000000
vt -3.000000 0.000000
vt -0.000000 0.000000
vt -3.000000 3.000000
vt -0.000000 -0.000000
vt -0.000000 3.000000
vt 3.000000 0.000000
vt 0.000000 0.550000
vt 1.956180 0.971142
vt 0.998188 1.898550
vt 0.000000 0.000000
vt -3.000000 0.550000
vt -3.000000 0.000000
vt 3.000000 3.000000
vt 2.535670 2.506750
vt 3.000000 2.250000
vt 3.000000 0.550000
vt 2.250000 0.550000
vt 0.750000 0.550000
vt 0.000000 0.550000
vt -2.250000 0.550000
vt -3.000000 0.550000
vt -0.000000 0.550000
vt -0.750000 0.550000
vt -3.000000 -0.000000
vt 3.000000 0.550000
vt 0.750000 3.000000
vt 0.000000 3.000000
vt 3.000000 0.000000
vt 3.000000 0.750000
vt 2.250000 3.000000
vn 0.0000 1.0000 0.0000
vn -0.8653 0.0000 0.5012
vn -0.4839 0.0000 0.8751
vn 0.6955 0.0000 -0.7185
vn 0.9755 0.0000 -0.2198
vn 0.2073 0.0000 -0.9783
vn -0.0000 0.0000 -1.0000
vn 1.0000 0.0000 0.0000
vn 0.0000 -1.0000 -0.0000
vn 0.0000 -0.0000 1.0000
vn -1.0000 0.0000 0.0000
usemtl Alternate_Dirt.009
s 1
f 7/1/1 1/2/1 5/3/1
f 1/4/2 9/5/2 2/6/2
f 7/7/3 8/8/3 1/9/3
f 4/10/4 12/11/4 5/12/4
f 3/13/5 11/14/5 4/15/5
f 5/16/6 14/17/6 6/18/6
f 15/19/7 3/20/7 2/21/7
f 17/22/8 7/23/8 6/24/8
f 1/2/1 2/25/1 4/26/1
f 2/25/1 3/27/1 4/26/1
f 4/26/1 5/3/1 1/2/1
f 5/3/1 6/28/1 7/1/1
f 1/4/2 8/29/2 9/5/2
f 7/7/3 10/30/3 8/8/3
f 4/10/4 11/31/4 12/11/4
f 3/13/5 13/32/5 11/14/5
f 5/16/6 12/33/6 14/17/6
f 15/19/7 16/34/7 3/20/7
f 17/22/8 18/35/8 7/23/8
usemtl Grass.097
f 19/36/8 17/22/8 22/37/8
f 19/38/7 23/39/7 16/34/7
f 19/40/9 25/41/9 23/42/9
f 22/43/10 26/44/10 25/41/10
f 12/45/1 11/46/1 26/47/1
f 25/41/11 24/48/11 23/49/11
f 20/50/1 8/51/1 10/52/1
f 19/36/8 20/53/8 18/35/8
f 20/53/8 10/54/8 7/23/8
f 7/23/8 18/35/8 20/53/8
f 14/55/8 21/56/8 6/24/8
f 21/56/8 22/37/8 17/22/8
f 6/24/8 21/56/8 17/22/8
f 19/36/8 18/35/8 17/22/8
f 9/57/7 20/58/7 2/21/7
f 20/58/7 19/38/7 15/19/7
f 2/21/7 20/58/7 15/19/7
f 23/39/7 24/59/7 16/34/7
f 24/59/7 13/60/7 3/20/7
f 3/20/7 16/34/7 24/59/7
f 16/34/7 15/19/7 19/38/7
f 19/40/9 22/61/9 25/41/9
f 22/43/10 21/62/10 26/44/10
f 11/46/1 13/63/1 24/64/1
f 26/47/1 21/65/1 12/45/1
f 21/65/1 14/66/1 12/45/1
f 11/46/1 24/64/1 26/47/1
f 25/41/11 26/44/11 24/48/11
f 20/50/1 9/67/1 8/51/1
