# Blender v2.79 (sub 7) OBJ File: ''
# www.blender.org
mtllib roadTile_187.mtl
o Mesh1_Group1_Model.121
v -0.750000 0.550000 -0.750000
v -0.750000 0.600000 -1.500000
v -0.750000 0.550000 -1.500000
v -0.750000 0.630000 -1.500000
v -0.750000 0.945000 -0.750000
v -1.125000 0.630000 -1.500000
v -0.750000 0.975000 -0.750000
v -1.125000 0.550000 -1.500000
v -1.125000 0.000000 1.500000
v 1.125000 0.000000 1.500000
v -0.750000 0.300000 1.500000
v 0.750000 0.550000 -1.500000
v 0.750000 0.600000 -1.500000
v 1.125000 0.550000 -1.500000
v 1.125000 0.550000 -0.750000
v 1.125000 0.630000 -1.500000
v 0.750000 0.975000 -0.750000
v 1.125000 0.975000 0.750000
v 1.125000 0.975000 -0.750000
v 0.750000 0.630000 -1.500000
v 0.750000 0.945000 -0.750000
v 0.750000 0.975000 0.750000
v -0.750000 0.975000 0.750000
v -1.125000 0.975000 -0.750000
v -1.125000 0.550000 -0.750000
v -1.125000 0.550000 0.750000
v -1.125000 0.975000 0.750000
v -0.750000 0.630000 1.500000
v -0.750000 0.945000 0.750000
v -0.750000 0.600000 1.500000
v -0.750000 0.550000 0.750000
v -0.750000 0.550000 1.500000
v 0.750000 0.550000 0.750000
v 0.750000 0.600000 1.500000
v 0.750000 0.550000 1.500000
v 0.750000 0.630000 1.500000
v 0.750000 0.945000 0.750000
v 1.125000 0.630000 1.500000
v -0.750000 0.000000 -1.500000
v -1.125000 0.000000 -1.500000
v 1.125000 0.550000 1.500000
v 0.750000 0.300000 1.500000
v -1.125000 0.630000 1.500000
v -1.125000 0.550000 1.500000
v 1.125000 0.000000 -1.500000
v 0.750000 0.000000 -1.500000
v 1.125000 0.550000 0.750000
v 0.750000 0.550000 -0.750000
v -1.500000 0.000000 -0.750000
v 1.500000 0.000000 0.750000
v -1.500000 0.550000 1.500000
v -1.500000 0.000000 1.500000
v 1.500000 0.000000 1.500000
v 1.500000 0.550000 1.500000
v 1.500000 0.550000 0.750000
v 1.500000 0.455000 0.750000
v 1.500000 0.455000 -0.750000
v 1.500000 0.000000 -1.500000
v 1.500000 0.550000 -1.500000
v -1.500000 0.550000 -0.750000
v -1.500000 0.455000 -0.750000
v 1.500000 0.550000 -0.750000
v -1.500000 0.455000 0.750000
v -1.500000 0.550000 0.750000
v -1.500000 0.550000 -1.500000
v -1.500000 0.000000 -1.500000
v -1.500000 0.000000 0.750000
v 1.500000 0.000000 -0.750000
vt -2.250000 0.550000
vt -3.000000 0.600000
vt -3.000000 0.550000
vt 3.000000 0.630000
vt 2.250000 0.945000
vt 3.000000 0.600000
vt -0.375000 -2.462190
vt -0.750000 -1.636650
vt -0.750000 -2.462190
vt -0.750000 0.600000
vt -0.750000 0.550000
vt -0.375000 0.550000
vt 0.375000 0.000000
vt 2.625000 0.000000
vt 0.750000 0.300000
vt -2.250000 0.550000
vt -2.250000 0.600000
vt -2.625000 0.550000
vt 2.250000 0.550000
vt 3.000000 0.550000
vt 3.000000 0.630000
vt 2.250000 2.250000
vt 2.625000 0.750000
vt 2.625000 2.250000
vt -2.625000 -1.636650
vt -2.250000 -2.462190
vt -2.250000 -1.636650
vt -2.250000 0.975000
vt -2.250000 0.945000
vt -0.750000 0.975000
vt 0.750000 0.975000
vt 2.250000 0.975000
vt 0.375000 2.250000
vt 0.750000 0.750000
vt 0.750000 2.250000
vt -2.250000 0.550000
vt -0.750000 0.550000
vt -0.750000 0.975000
vt 0.375000 1.088830
vt 0.750000 0.263281
vt 0.750000 1.088830
vt -0.000000 0.630000
vt 0.750000 0.945000
vt -0.000000 0.600000
vt -0.750000 0.550000
vt -0.000000 0.550000
vt 0.750000 0.550000
vt 0.000000 0.600000
vt 0.000000 0.550000
vt -0.750000 0.945000
vt -2.250000 0.550000
vt -0.750000 0.750000
vt -0.375000 2.250000
vt -0.750000 2.250000
vt -0.000000 0.630000
vt -0.750000 0.945000
vt 2.625000 0.263281
vt 2.250000 1.088830
vt 2.250000 0.263281
vt -2.250000 0.945000
vt -0.375000 -1.636650
vt -0.750000 -0.000000
vt -0.375000 -0.000000
vt -0.375000 0.630000
vt -0.750000 0.630000
vt 2.625000 0.550000
vt 2.625000 0.630000
vt 2.250000 0.600000
vt 2.250000 0.630000
vt 2.250000 0.550000
vt 2.250000 0.300000
vt 0.375000 0.630000
vt 0.375000 0.550000
vt 0.750000 0.600000
vt 0.750000 0.550000
vt 0.750000 0.630000
vt -2.250000 0.630000
vt -2.625000 0.630000
vt -2.625000 -0.000000
vt -2.250000 -0.000000
vt 2.250000 0.975000
vt 0.750000 0.975000
vt 0.000000 0.630000
vt 0.750000 0.550000
vt 0.000000 0.550000
vt 2.250000 0.750000
vt -2.625000 -2.462190
vt -3.000000 0.630000
vt -3.000000 0.600000
vt 0.375000 0.750000
vt -0.000000 0.550000
vt -0.000000 0.630000
vt -2.250000 0.975000
vt -3.000000 0.630000
vt -3.000000 0.550000
vt 0.375000 0.263281
vt 0.750000 0.945000
vt -2.250000 0.945000
vt -2.625000 0.750000
vt -2.250000 0.750000
vt -2.625000 2.250000
vt -2.250000 2.250000
vt -0.375000 0.750000
vt 2.625000 1.088830
vt -0.000000 2.250000
vt -0.750000 3.000000
vt -3.000000 0.750000
vt 0.000000 0.550000
vt -0.000000 0.000000
vt 3.000000 0.000000
vt 3.000000 0.550000
vt 3.000000 0.750000
vt 2.625000 0.000000
vt 3.000000 0.000000
vt 0.750000 0.455000
vt 0.750000 0.550000
vt 0.000000 0.550000
vt 2.250000 0.455000
vt 3.000000 0.000000
vt 3.000000 0.550000
vt 0.000000 0.550000
vt 0.000000 0.455000
vt 0.375000 0.550000
vt 3.000000 3.000000
vt 2.625000 2.250000
vt 3.000000 2.250000
vt -3.000000 0.550000
vt -3.000000 0.000000
vt -0.000000 0.455000
vt -0.375000 0.550000
vt -0.750000 0.455000
vt 0.000000 0.000000
vt 0.375000 0.750000
vt 0.000000 0.750000
vt -2.250000 0.455000
vt -2.250000 0.550000
vt -3.000000 0.550000
vt 0.000000 2.250000
vt 0.375000 3.000000
vt -0.000000 3.000000
vt 0.000000 0.000000
vt 0.000000 0.550000
vt -2.625000 0.000000
vt -0.375000 0.000000
vt -0.000000 0.750000
vt -0.000000 3.000000
vt -0.375000 3.000000
vt -3.000000 0.000000
vt -2.625000 3.000000
vt -3.000000 3.000000
vt -3.000000 2.250000
vt -2.250000 3.000000
vt 2.625000 0.750000
vt 0.000000 0.000000
vt 0.750000 0.000000
vt 2.250000 0.550000
vt 2.250000 0.000000
vt 3.000000 0.455000
vt 3.000000 0.550000
vt 2.625000 0.550000
vt 2.250000 0.550000
vt 0.750000 0.550000
vt 2.625000 3.000000
vt -2.625000 0.550000
vt -3.000000 0.455000
vt -3.000000 0.550000
vt -0.000000 0.550000
vt -0.750000 0.550000
vt -0.750000 0.000000
vt 0.375000 0.000000
vt -3.000000 0.000000
vt -2.250000 0.000000
vt 0.375000 2.250000
vt 0.000000 0.750000
vt 3.000000 2.250000
vt 0.000000 2.250000
vt 3.000000 0.750000
vt -0.750000 -1.649180
vt -2.250000 -2.474730
vt -0.750000 -2.474730
vt 0.750000 2.250000
vt 2.250000 0.750000
vt 2.250000 2.250000
vt 0.750000 0.250743
vt 2.250000 1.076290
vt 0.750000 1.076290
vt -2.250000 -1.649180
vt 0.750000 0.750000
vt 2.250000 0.250743
vn -1.0000 0.0000 0.0000
vn 1.0000 0.0000 0.0000
vn 0.0000 0.9085 -0.4179
vn 0.0000 0.0000 -1.0000
vn 0.0000 0.0000 1.0000
vn 0.0000 1.0000 0.0000
vn 0.0000 0.9085 0.4179
vn 0.0000 -1.0000 -0.0000
usemtl Stone.100
s 1
f 1/1/1 2/2/1 3/3/1
f 4/4/2 5/5/2 2/6/2
f 6/7/3 7/8/3 4/9/3
f 2/10/4 3/11/4 8/12/4
f 9/13/5 10/14/5 11/15/5
f 12/16/4 13/17/4 14/18/4
f 15/19/2 14/20/2 16/21/2
f 17/22/6 18/23/6 19/24/6
f 19/25/3 20/26/3 17/27/3
f 17/28/1 21/29/1 22/30/1
f 23/31/2 5/5/2 7/32/2
f 24/33/6 23/34/6 7/35/6
f 25/36/1 26/37/1 27/38/1
f 27/39/7 28/40/7 23/41/7
f 28/42/2 29/43/2 23/31/2
f 30/44/1 31/45/1 32/46/1
f 33/47/2 34/48/2 35/49/2
f 29/50/4 33/51/4 31/45/4
f 31/52/8 25/53/8 1/54/8
f 36/55/1 37/56/1 34/48/1
f 38/57/7 22/58/7 36/59/7
f 1/1/1 5/60/1 2/2/1
f 4/4/2 7/32/2 5/5/2
f 6/7/3 24/61/3 7/8/3
f 3/11/4 39/62/4 40/63/4
f 40/63/4 8/12/4 3/11/4
f 8/12/4 6/64/4 2/10/4
f 6/64/4 4/65/4 2/10/4
f 41/66/5 38/67/5 34/68/5
f 38/67/5 36/69/5 34/68/5
f 34/68/5 35/70/5 41/66/5
f 35/70/5 42/71/5 41/66/5
f 41/66/5 42/71/5 10/14/5
f 43/72/5 44/73/5 30/74/5
f 44/73/5 9/13/5 11/15/5
f 30/74/5 44/73/5 32/75/5
f 30/74/5 28/76/5 43/72/5
f 11/15/5 32/75/5 44/73/5
f 10/14/5 42/71/5 11/15/5
f 20/77/4 16/78/4 13/17/4
f 16/78/4 14/18/4 13/17/4
f 14/18/4 45/79/4 46/80/4
f 46/80/4 12/16/4 14/18/4
f 16/21/2 19/81/2 15/19/2
f 19/81/2 18/82/2 15/19/2
f 18/82/2 38/83/2 47/84/2
f 38/83/2 41/85/2 47/84/2
f 47/84/2 15/19/2 18/82/2
f 17/22/6 22/86/6 18/23/6
f 19/25/3 16/87/3 20/26/3
f 17/28/1 20/88/1 21/29/1
f 20/88/1 13/89/1 21/29/1
f 21/29/1 37/56/1 22/30/1
f 23/31/2 29/43/2 5/5/2
f 24/33/6 27/90/6 23/34/6
f 44/91/1 43/92/1 26/37/1
f 43/92/1 27/38/1 26/37/1
f 27/38/1 24/93/1 25/36/1
f 24/93/1 6/94/1 25/36/1
f 6/94/1 8/95/1 25/36/1
f 27/39/7 43/96/7 28/40/7
f 28/42/2 30/44/2 29/43/2
f 30/44/1 29/50/1 31/45/1
f 33/47/2 37/97/2 34/48/2
f 29/50/4 37/98/4 33/51/4
f 47/99/8 33/100/8 15/101/8
f 33/100/8 31/52/8 48/102/8
f 15/101/8 33/100/8 48/102/8
f 31/52/8 26/103/8 25/53/8
f 1/54/8 48/102/8 31/52/8
f 36/55/1 22/30/1 37/56/1
f 38/57/7 18/104/7 22/58/7
usemtl Grass.055
f 49/105/8 39/106/8 50/107/8
f 9/13/5 51/108/5 52/109/5
f 41/66/5 53/110/5 54/111/5
f 55/112/6 41/113/6 54/114/6
f 56/115/2 55/116/2 54/117/2
f 57/118/2 58/119/2 59/120/2
f 60/121/5 61/122/5 25/123/5
f 59/124/6 15/125/6 62/126/6
f 45/79/4 59/127/4 58/128/4
f 63/129/4 26/130/4 31/45/4
f 63/131/1 52/109/1 51/108/1
f 51/132/6 26/133/6 64/134/6
f 61/135/1 60/136/1 65/137/1
f 60/138/6 8/139/6 65/140/6
f 8/12/4 66/141/4 65/142/4
f 10/143/8 9/144/8 67/145/8
f 9/144/8 52/109/8 67/145/8
f 67/145/8 49/105/8 50/107/8
f 49/105/8 66/146/8 40/147/8
f 67/145/8 50/107/8 10/143/8
f 50/107/8 53/148/8 10/143/8
f 45/149/8 58/150/8 68/151/8
f 68/151/8 50/107/8 46/152/8
f 46/152/8 50/107/8 39/106/8
f 40/147/8 39/106/8 49/105/8
f 45/149/8 68/151/8 46/152/8
f 9/13/5 44/73/5 51/108/5
f 41/66/5 10/14/5 53/110/5
f 55/112/6 47/153/6 41/113/6
f 54/117/2 53/154/2 56/115/2
f 53/154/2 50/155/2 56/115/2
f 59/120/2 62/156/2 57/118/2
f 57/118/2 68/157/2 58/119/2
f 57/158/5 62/159/5 15/160/5
f 48/161/5 1/162/5 57/158/5
f 1/162/5 25/123/5 61/122/5
f 57/158/5 1/162/5 61/122/5
f 57/158/5 15/160/5 48/161/5
f 59/124/6 14/163/6 15/125/6
f 45/79/4 14/18/4 59/127/4
f 33/51/4 47/164/4 56/165/4
f 47/164/4 55/166/4 56/165/4
f 33/51/4 56/165/4 63/129/4
f 63/129/4 64/167/4 26/130/4
f 31/45/4 33/51/4 63/129/4
f 51/108/1 64/168/1 63/131/1
f 63/131/1 67/169/1 52/109/1
f 51/132/6 44/170/6 26/133/6
f 65/137/1 66/171/1 61/135/1
f 66/171/1 49/172/1 61/135/1
f 60/138/6 25/173/6 8/139/6
f 8/12/4 40/63/4 66/141/4
usemtl Water.024
f 68/157/2 56/115/2 50/155/2
f 63/174/6 57/175/6 61/176/6
f 67/169/1 61/135/1 49/172/1
f 68/157/2 57/118/2 56/115/2
f 63/174/6 56/177/6 57/175/6
f 67/169/1 63/131/1 61/135/1
usemtl Asphalt.077
f 5/178/3 13/179/3 2/180/3
f 5/181/6 37/182/6 21/183/6
f 30/184/7 37/185/7 29/186/7
f 35/70/5 30/74/5 32/75/5
f 3/11/4 2/10/4 12/16/4
f 5/178/3 21/187/3 13/179/3
f 5/181/6 29/188/6 37/182/6
f 30/184/7 34/189/7 37/185/7
f 11/15/5 42/71/5 35/70/5
f 35/70/5 34/68/5 30/74/5
f 32/75/5 11/15/5 35/70/5
f 2/10/4 13/17/4 12/16/4
f 12/16/4 46/80/4 39/62/4
f 39/62/4 3/11/4 12/16/4
