# Blender v2.79 (sub 7) OBJ File: ''
# www.blender.org
mtllib roadTile_054.mtl
o Mesh1_Group1_Model.088
v -0.098000 0.600000 -0.582550
v -0.356160 0.550000 -0.356160
v -0.356160 0.600000 -0.356160
v -0.773317 0.600000 0.187500
v -0.448560 0.600000 0.375000
v -0.285050 0.600000 0.130290
v 1.500000 0.000000 -1.125000
v 1.500000 0.550000 -1.125000
v 1.500000 0.300000 -0.750000
v -1.125000 0.550000 1.500000
v -1.125000 0.000000 1.500000
v -0.750000 0.300000 1.500000
v -1.102543 0.600000 1.157369
v -1.125000 0.600000 1.500000
v -1.035555 0.600000 0.820600
v -1.102543 0.550000 1.157369
v -0.925184 0.600000 0.495460
v -1.035555 0.550000 0.820600
v -0.925184 0.550000 0.495460
v -0.582553 0.600000 -0.098000
v -0.773317 0.550000 0.187500
v -0.582553 0.550000 -0.098000
v 0.187500 0.600000 -0.773320
v -0.098000 0.550000 -0.582550
v 0.495460 0.600000 -0.925180
v 0.187500 0.550000 -0.773320
v 0.820600 0.600000 -1.035560
v 0.495460 0.550000 -0.925180
v 1.157370 0.600000 -1.102540
v 0.820600 0.550000 -1.035560
v 1.500000 0.600000 -1.125000
v 1.157370 0.550000 -1.102540
v 1.206320 0.600000 -0.730750
v 1.500000 0.600000 -0.750000
v 0.917660 0.600000 -0.673330
v 0.638960 0.600000 -0.578730
v 0.375000 0.600000 -0.448560
v -0.090990 0.600000 -0.090990
v 0.130290 0.600000 -0.285050
v -0.578729 0.600000 0.638962
v -0.673333 0.600000 0.917657
v -0.730751 0.600000 1.206316
v -0.750000 0.600000 1.500000
v 1.500000 0.300000 1.500000
v 1.500000 0.000000 1.500000
v -1.500000 0.000000 -1.500000
v 1.500000 0.000000 -1.500000
v -1.500000 0.550000 -1.500000
v 1.500000 0.550000 -1.500000
v -1.500000 0.550000 1.500000
v -1.500000 0.000000 1.500000
v 1.500000 0.600000 1.500000
vt -2.427200 0.600000
vt -2.083840 0.550000
vt -2.083840 0.600000
vt 0.726683 1.312500
vt 1.051440 1.125000
vt 1.214950 1.369710
vt 2.625000 -0.000000
vt 2.625000 0.550000
vt 2.250000 0.300000
vt 0.375000 0.550000
vt 0.375000 -0.000000
vt 0.750000 0.300000
vt -0.367893 0.600000
vt -0.024526 0.550000
vt -0.024526 0.600000
vt -0.756954 0.600000
vt -0.413588 0.550000
vt -0.413588 0.600000
vt -1.136000 0.600000
vt -0.792635 0.550000
vt -0.792635 0.600000
vt -1.498550 0.600000
vt -1.155180 0.550000
vt -1.155180 0.600000
vt -1.838390 0.600000
vt -1.495030 0.550000
vt -1.495030 0.600000
vt -2.149720 0.600000
vt -1.806350 0.550000
vt -1.806350 0.600000
vt -2.666090 0.600000
vt -2.322730 0.550000
vt -2.322730 0.600000
vt -2.862300 0.600000
vt -2.518940 0.550000
vt -2.518940 0.600000
vt -3.012470 0.600000
vt -2.669110 0.550000
vt -2.669110 0.600000
vt -3.114040 0.600000
vt -2.770670 0.550000
vt -2.770670 0.600000
vt -3.165260 0.600000
vt -2.821890 0.550000
vt -2.821890 0.600000
vt -2.427200 0.550000
vt 2.706320 2.230750
vt 3.000000 2.250000
vt 3.000000 2.625000
vt 2.657370 2.602540
vt 2.320600 2.535560
vt 2.417660 2.173330
vt 1.995460 2.425180
vt 2.138960 2.078730
vt 1.687500 2.273320
vt 1.875000 1.948560
vt 1.402000 2.082550
vt 1.143840 1.856160
vt 1.409010 1.590990
vt 1.630290 1.785050
vt 0.917447 1.598000
vt 0.574816 1.004540
vt 0.921271 0.861038
vt 0.464445 0.679400
vt 0.826667 0.582343
vt 0.397457 0.342631
vt 0.375000 0.000000
vt 0.769249 0.293684
vt 0.750000 0.000000
vt 0.000000 0.300000
vt 0.000000 -0.000000
vt 2.625000 0.600000
vt 2.250000 0.600000
vt 0.750000 0.600000
vt 0.375000 0.600000
vt 3.000000 -0.000000
vt 3.000000 0.300000
vt -0.367893 0.550000
vt -0.756954 0.550000
vt -1.136000 0.550000
vt -1.498550 0.550000
vt -1.838390 0.550000
vt -2.149720 0.550000
vt -2.666090 0.550000
vt -2.862300 0.550000
vt -3.012470 0.550000
vt -3.114040 0.550000
vt -3.165260 0.550000
vt 0.000000 3.000000
vt -3.000000 2.625000
vt -0.375000 0.000000
vt -3.000000 0.000000
vt -0.000000 0.550000
vt -3.000000 0.550000
vt 3.000000 -0.000000
vt 3.000000 0.550000
vt 1.143840 1.856160
vt 1.402000 2.082550
vt 0.000000 3.000000
vt 0.000000 0.550000
vt -0.000000 0.000000
vt -3.000000 0.550000
vt -3.000000 0.000000
vt -3.000000 3.000000
vt -3.000000 0.000000
vt -0.000000 0.000000
vt 0.000000 0.000000
vt 0.464445 0.679400
vt 0.375000 0.000000
vt 0.397457 0.342631
vt 3.000000 2.625000
vt 3.000000 3.000000
vt 2.657370 2.602540
vt 2.320600 2.535560
vt 0.574816 1.004540
vt 1.995460 2.425180
vt 0.726683 1.312500
vt 0.917447 1.598000
vt 1.687500 2.273320
vt 3.000000 0.600000
vt 0.000000 0.600000
vt 3.000000 0.000000
vn -0.6088 0.0000 -0.7934
vn -0.7071 0.0000 -0.7071
vn 0.0000 1.0000 -0.0000
vn 1.0000 0.0000 0.0000
vn 0.0000 0.0000 1.0000
vn -0.9914 0.0000 -0.1305
vn -0.9979 0.0000 -0.0654
vn -0.9659 0.0000 -0.2588
vn -0.9239 0.0000 -0.3827
vn -0.8660 0.0000 -0.5000
vn -0.7934 0.0000 -0.6088
vn -0.5000 0.0000 -0.8660
vn -0.3827 0.0000 -0.9239
vn -0.2588 0.0000 -0.9659
vn -0.1305 0.0000 -0.9914
vn -0.0654 0.0000 -0.9979
vn 0.0000 -1.0000 -0.0000
vn 0.0000 0.0000 -1.0000
vn -1.0000 0.0000 0.0000
usemtl Stone.069
s 1
f 1/1/1 2/2/2 3/3/2
f 4/4/3 5/5/3 6/6/3
f 7/7/4 8/8/4 9/9/4
f 10/10/5 11/11/5 12/12/5
f 13/13/6 10/14/7 14/15/7
f 15/16/8 16/17/6 13/18/6
f 17/19/9 18/20/8 15/21/8
f 4/22/10 19/23/9 17/24/9
f 20/25/11 21/26/10 4/27/10
f 3/28/2 22/29/11 20/30/11
f 23/31/12 24/32/1 1/33/1
f 25/34/13 26/35/12 23/36/12
f 27/37/14 28/38/13 25/39/13
f 29/40/15 30/41/14 27/42/14
f 31/43/16 32/44/15 29/45/15
f 1/1/1 24/46/1 2/2/2
f 33/47/3 34/48/3 31/49/3
f 31/49/3 29/50/3 33/47/3
f 29/50/3 27/51/3 35/52/3
f 27/51/3 25/53/3 36/54/3
f 25/53/3 23/55/3 37/56/3
f 23/55/3 1/57/3 37/56/3
f 1/57/3 3/58/3 38/59/3
f 37/56/3 1/57/3 39/60/3
f 3/58/3 20/61/3 38/59/3
f 20/61/3 4/4/3 6/6/3
f 38/59/3 20/61/3 6/6/3
f 4/4/3 17/62/3 40/63/3
f 17/62/3 15/64/3 41/65/3
f 15/64/3 13/66/3 41/65/3
f 13/66/3 14/67/3 42/68/3
f 41/65/3 13/66/3 42/68/3
f 14/67/3 43/69/3 42/68/3
f 17/62/3 41/65/3 40/63/3
f 29/50/3 35/52/3 33/47/3
f 25/53/3 37/56/3 36/54/3
f 36/54/3 35/52/3 27/51/3
f 39/60/3 1/57/3 38/59/3
f 4/4/3 40/63/3 5/5/3
f 44/70/4 45/71/4 9/9/4
f 45/71/4 7/7/4 9/9/4
f 8/8/4 31/72/4 34/73/4
f 8/8/4 34/73/4 9/9/4
f 43/74/5 14/75/5 10/10/5
f 11/11/5 45/76/5 12/12/5
f 45/76/5 44/77/5 12/12/5
f 12/12/5 43/74/5 10/10/5
f 13/13/6 16/78/6 10/14/7
f 15/16/8 18/79/8 16/17/6
f 17/19/9 19/80/9 18/20/8
f 4/22/10 21/81/10 19/23/9
f 20/25/11 22/82/11 21/26/10
f 3/28/2 2/83/2 22/29/11
f 23/31/12 26/84/12 24/32/1
f 25/34/13 28/85/13 26/35/12
f 27/37/14 30/86/14 28/38/13
f 29/40/15 32/87/15 30/41/14
f 31/43/16 8/88/16 32/44/15
usemtl Grass.043
f 46/89/17 7/90/17 11/91/17
f 47/92/18 48/93/18 49/94/18
f 8/8/4 47/95/4 49/96/4
f 2/97/3 24/98/3 48/99/3
f 11/11/5 50/100/5 51/101/5
f 51/101/19 48/102/19 46/103/19
f 51/101/17 46/89/17 11/91/17
f 46/89/17 47/104/17 7/90/17
f 7/90/17 45/105/17 11/91/17
f 47/92/18 46/106/18 48/93/18
f 8/8/4 7/7/4 47/95/4
f 48/99/3 50/107/3 18/108/3
f 50/107/3 10/109/3 16/110/3
f 50/107/3 16/110/3 18/108/3
f 8/111/3 49/112/3 32/113/3
f 49/112/3 48/99/3 30/114/3
f 32/113/3 49/112/3 30/114/3
f 48/99/3 18/108/3 19/115/3
f 28/116/3 30/114/3 48/99/3
f 48/99/3 19/115/3 21/117/3
f 48/99/3 21/117/3 22/118/3
f 26/119/3 28/116/3 48/99/3
f 24/98/3 26/119/3 48/99/3
f 48/99/3 22/118/3 2/97/3
f 11/11/5 10/10/5 50/100/5
f 51/101/19 50/100/19 48/102/19
usemtl Asphalt.055
f 12/12/5 52/120/5 43/74/5
f 44/70/4 34/73/4 52/121/4
f 41/65/3 42/68/3 52/122/3
f 12/12/5 44/77/5 52/120/5
f 44/70/4 9/9/4 34/73/4
f 43/69/3 52/122/3 42/68/3
f 52/122/3 34/48/3 33/47/3
f 35/52/3 52/122/3 33/47/3
f 35/52/3 36/54/3 52/122/3
f 36/54/3 37/56/3 52/122/3
f 37/56/3 39/60/3 52/122/3
f 39/60/3 38/59/3 52/122/3
f 38/59/3 6/6/3 52/122/3
f 6/6/3 5/5/3 52/122/3
f 5/5/3 40/63/3 52/122/3
f 40/63/3 41/65/3 52/122/3
