# Blender v2.79 (sub 7) OBJ File: ''
# www.blender.org
mtllib roadTile_226.mtl
o Mesh1_Group1_Model.216
v -0.908508 0.883120 1.125000
v -1.500000 0.000000 1.125000
v -1.500000 1.100000 1.125000
v -0.908508 0.883120 -0.375000
v 1.500000 0.000000 -0.750000
v -1.500000 0.000000 -0.375000
v -0.908508 0.000000 -0.375000
v -1.500000 1.400000 1.125000
v -1.500000 1.400000 -0.375000
v -1.500000 1.100000 -0.375000
v -0.908508 0.000000 1.500000
v -1.500000 0.000000 1.500000
v -0.908508 0.883120 1.500000
v -0.908508 0.000000 1.125000
v -1.500000 1.730000 1.500000
v 1.500000 0.630000 1.500000
v 1.500000 0.000000 1.500000
v 1.500000 0.300000 1.125000
v -0.908508 0.883120 -0.750000
v -1.500000 0.000000 -0.750000
v -1.500000 1.730000 -0.750000
v -0.908508 0.000000 -0.750000
v 1.500000 0.630000 -0.750000
v -1.500000 1.730000 -0.375000
v 1.500000 0.630000 -0.375000
v -1.500000 1.700000 -0.375000
v -1.500000 1.700000 1.125000
v 1.500000 0.630000 1.125000
v 1.500000 0.600000 1.125000
v -1.500000 1.730000 1.125000
v 1.500000 0.300000 -0.375000
v 1.500000 0.600000 -0.375000
vt -0.591492 0.883120
vt -0.000000 0.000000
vt -0.000000 1.100000
vt -1.875000 -0.251320
vt -2.250000 -2.816630
vt -0.375000 -0.251320
vt 0.591492 0.883120
vt 0.000000 0.000000
vt 0.591492 0.000000
vt -0.375000 1.400000
vt -1.875000 1.400000
vt -1.875000 1.100000
vt -0.000000 0.375000
vt -0.591492 -0.000000
vt -0.000000 0.000000
vt 0.000000 0.883120
vt 0.375000 0.000000
vt 0.375000 0.883120
vt 0.000000 1.730000
vt 0.591492 0.883120
vt 3.000000 0.630000
vt 0.000000 0.000000
vt 2.250000 0.000000
vt 0.375000 0.300000
vt -0.591492 0.883120
vt -0.000000 0.000000
vt -0.000000 1.730000
vt 2.250000 0.000000
vt 1.875000 0.883120
vt 1.875000 0.000000
vt -0.591492 2.250000
vt -0.000000 1.875000
vt -0.000000 2.250000
vt 2.250000 -2.599750
vt 1.875000 0.595561
vt 1.875000 -2.599750
vt 0.000000 1.700000
vt 3.000000 0.630000
vt 0.000000 1.730000
vt -0.000000 1.700000
vt -3.000000 0.630000
vt -3.000000 0.600000
vt -0.000000 0.595561
vt 0.375000 -2.599750
vt 0.375000 0.595561
vt -0.591492 0.000000
vt -0.375000 0.378680
vt -1.875000 0.378680
vt -2.250000 -0.251320
vt -0.000000 -2.816630
vt -0.000000 -0.251320
vt 0.000000 1.100000
vt -0.375000 1.100000
vt -0.375000 0.000000
vt -0.375000 1.730000
vt -0.375000 1.700000
vt -2.250000 0.000000
vt -1.875000 0.000000
vt -1.875000 1.730000
vt -2.250000 1.730000
vt -1.875000 1.700000
vt -0.591492 0.375000
vt -0.000000 0.000000
vt 0.591492 0.000000
vt 3.000000 0.000000
vt 2.250000 0.630000
vt 1.875000 0.300000
vt 1.875000 0.630000
vt 1.875000 0.600000
vt 0.375000 0.630000
vt 0.000000 0.630000
vt 0.375000 0.600000
vt -3.000000 0.630000
vt -3.000000 0.000000
vt -0.591492 0.000000
vt 2.250000 0.883120
vt -0.591492 1.875000
vt 2.250000 0.595561
vt 3.000000 0.600000
vt -0.000000 1.730000
vt 0.000000 -2.599750
vt 1.875000 0.585233
vt 0.375000 -2.610080
vt 1.875000 -2.610080
vt 0.375000 0.585233
vn 0.0000 0.0000 -1.0000
vn -0.3443 -0.9389 -0.0000
vn 0.0000 0.0000 1.0000
vn -1.0000 0.0000 0.0000
vn 0.0000 -1.0000 -0.0000
vn 1.0000 0.0000 0.0000
vn 0.3443 0.9389 0.0000
usemtl Stone.189
s 1
f 1/1/1 2/2/1 3/3/1
f 4/4/2 5/5/2 1/6/2
f 4/7/3 6/8/3 7/9/3
f 8/10/4 9/11/4 10/12/4
f 2/13/5 11/14/5 12/15/5
f 13/16/6 14/17/6 1/18/6
f 15/19/3 13/20/3 16/21/3
f 17/22/6 5/23/6 18/24/6
f 19/25/1 20/26/1 21/27/1
f 22/28/6 4/29/6 7/30/6
f 22/31/5 6/32/5 20/33/5
f 23/34/7 24/35/7 25/36/7
f 26/37/3 25/38/3 24/39/3
f 27/40/1 28/41/1 29/42/1
f 15/43/7 28/44/7 30/45/7
f 1/1/1 14/46/1 2/2/1
f 3/47/2 10/48/2 4/4/2
f 4/4/2 19/49/2 5/5/2
f 5/5/2 17/50/2 1/6/2
f 17/50/2 13/51/2 1/6/2
f 1/6/2 3/47/2 4/4/2
f 4/7/3 10/52/3 6/8/3
f 3/53/4 2/54/4 12/15/4
f 12/15/4 15/19/4 3/53/4
f 15/19/4 30/55/4 27/56/4
f 27/56/4 8/10/4 15/19/4
f 15/19/4 8/10/4 3/53/4
f 20/57/4 6/58/4 10/12/4
f 24/59/4 21/60/4 26/61/4
f 21/60/4 20/57/4 10/12/4
f 26/61/4 21/60/4 9/11/4
f 9/11/4 21/60/4 10/12/4
f 10/12/4 3/53/4 8/10/4
f 2/13/5 14/62/5 11/14/5
f 13/16/6 11/63/6 14/17/6
f 15/19/3 12/15/3 13/20/3
f 12/15/3 11/64/3 13/20/3
f 13/20/3 17/65/3 16/21/3
f 5/23/6 23/66/6 31/67/6
f 23/66/6 25/68/6 32/69/6
f 32/69/6 31/67/6 23/66/6
f 28/70/6 16/71/6 29/72/6
f 16/71/6 17/22/6 18/24/6
f 29/72/6 16/71/6 18/24/6
f 5/23/6 31/67/6 18/24/6
f 21/27/1 23/73/1 19/25/1
f 23/73/1 5/74/1 19/25/1
f 19/25/1 22/75/1 20/26/1
f 22/28/6 19/76/6 4/29/6
f 22/31/5 7/77/5 6/32/5
f 23/34/7 21/78/7 24/35/7
f 26/37/3 32/79/3 25/38/3
f 27/40/1 30/80/1 28/41/1
f 15/43/7 16/81/7 28/44/7
usemtl Asphalt.155
f 26/82/7 29/83/7 32/84/7
f 26/61/4 8/10/4 27/56/4
f 29/72/6 31/67/6 32/69/6
f 26/82/7 27/85/7 29/83/7
f 26/61/4 9/11/4 8/10/4
f 29/72/6 18/24/6 31/67/6
