# Blender v2.79 (sub 7) OBJ File: ''
# www.blender.org
mtllib roadTile_096.mtl
o Mesh1_Group1_Model.248
v 3.000000 0.000000 0.000000
v 0.000000 0.000000 0.000000
v 0.000000 0.000000 -3.000000
v 3.000000 0.000000 -3.000000
v 0.000000 0.630000 0.000000
v 3.000000 0.630000 0.000000
v 2.160720 0.630000 0.000000
v 2.160720 0.570000 0.000000
v 1.928960 0.570000 0.000000
v 1.928960 0.630000 0.000000
v 0.000000 0.630000 -3.000000
v 1.615750 0.630000 -0.468750
v 1.322860 0.630000 -1.062670
v 1.110000 0.630000 -1.689730
v 0.980810 0.630000 -2.339210
v 0.937500 0.630000 -3.000000
v 3.000000 0.630000 -3.000000
v 0.937500 0.570000 -3.000000
v 1.125000 0.570000 -3.000000
v 1.125000 0.630000 -3.000000
v 1.875000 0.630000 -3.000000
v 1.875000 0.570000 -3.000000
v 2.062500 0.570000 -3.000000
v 2.062500 0.630000 -3.000000
v 3.000000 0.630000 -0.461802
v 3.000000 0.570000 -0.461802
v 3.000000 0.570000 -0.178038
v 3.000000 0.630000 -0.178038
v 2.096190 0.630000 -2.486050
v 2.196670 0.630000 -1.980900
v 2.362220 0.630000 -1.493180
v 2.590020 0.630000 -1.031250
v 2.876170 0.630000 -0.603002
v 1.166710 0.630000 -2.363680
v 1.291110 0.630000 -1.738260
v 1.496090 0.630000 -1.134420
v 1.778130 0.630000 -0.562500
v 2.132400 0.630000 -0.032288
v 2.727420 0.630000 -0.488859
v 2.427650 0.630000 -0.937500
v 2.189000 0.630000 -1.421430
v 2.015560 0.630000 -1.932370
v 1.910290 0.630000 -2.461580
v 1.615750 0.570000 -0.468750
v 0.980810 0.570000 -2.339210
v 1.110000 0.570000 -1.689730
v 1.322860 0.570000 -1.062670
v 2.132400 0.570000 -0.032288
v 1.778130 0.570000 -0.562500
v 1.496090 0.570000 -1.134420
v 1.291110 0.570000 -1.738260
v 1.166710 0.570000 -2.363680
v 2.096190 0.570000 -2.486050
v 1.910290 0.570000 -2.461580
v 2.015560 0.570000 -1.932370
v 2.189000 0.570000 -1.421430
v 2.427650 0.570000 -0.937500
v 2.727420 0.570000 -0.488859
v 2.876170 0.570000 -0.603002
v 2.590020 0.570000 -1.031250
v 2.362220 0.570000 -1.493180
v 2.196670 0.570000 -1.980900
vt -0.000000 -0.000000
vt -3.000000 3.000000
vt -3.000000 0.000000
vt 3.000000 0.000000
vt 2.160720 0.570000
vt 1.928960 0.570000
vt -3.000000 0.630000
vt -3.000000 0.000000
vt 0.000000 0.000000
vt 1.322860 1.062670
vt 1.110000 1.689730
vt -3.000000 -0.000000
vt -1.875000 0.570000
vt -2.062500 0.570000
vt -0.000000 0.000000
vt 0.461802 0.570000
vt 0.178038 0.570000
vt 2.590020 1.031250
vt 2.876170 0.603002
vt 3.000000 3.000000
vt 2.189000 1.421430
vt 2.015560 1.932370
vt 1.496090 1.134420
vt 0.000000 3.000000
vt 1.928960 0.630000
vt 0.000000 0.630000
vt 3.000000 0.630000
vt 2.160720 0.630000
vt 1.928960 0.000000
vt 1.615750 0.468750
vt 0.937500 3.000000
vt -0.000000 3.000000
vt 0.980810 2.339210
vt -2.062500 0.630000
vt -3.000000 0.630000
vt -0.000000 -0.000000
vt -1.125000 0.570000
vt -0.000000 0.630000
vt -0.937500 0.570000
vt -0.937500 0.630000
vt -1.125000 0.630000
vt -1.875000 0.630000
vt 3.000000 0.000000
vt 3.000000 0.630000
vt 0.461802 0.630000
vt 0.178038 0.630000
vt -0.000000 0.630000
vt 3.000000 0.461802
vt 2.062500 3.000000
vt 2.096190 2.486050
vt 2.196670 1.980900
vt 2.362220 1.493180
vt 1.910290 2.461580
vt 1.875000 3.000000
vt 1.125000 3.000000
vt 1.166710 2.363680
vt 1.291110 1.738260
vt 1.778130 0.562500
vt 2.427650 0.937500
vt 2.132400 0.032288
vt 2.727420 0.488859
vt 2.160720 0.000000
vt 3.000000 0.000000
vt 3.000000 0.178038
vt -1.071670 0.630000
vt -0.507909 0.570000
vt -0.507909 0.630000
vt 1.615750 0.468750
vt 1.778130 0.562500
vt 1.496090 1.134420
vt -2.858680 0.630000
vt -2.343630 0.570000
vt -2.343630 0.630000
vt 2.362220 1.493180
vt 2.196670 1.980900
vt 2.015560 1.932370
vt 2.331370 0.630000
vt 2.870950 0.570000
vt 2.870950 0.630000
vt -2.920000 0.630000
vt -2.282320 0.570000
vt -2.282320 0.630000
vt -2.090650 0.630000
vt -1.452970 0.570000
vt -1.452970 0.630000
vt -1.230990 0.630000
vt -0.593313 0.570000
vt -0.593313 0.630000
vt -0.355726 0.630000
vt 0.281954 0.570000
vt 0.281954 0.630000
vt 0.520172 0.630000
vt 1.157850 0.570000
vt 1.157850 0.630000
vt 1.381720 0.630000
vt 1.424660 0.570000
vt 1.424660 0.630000
vt -1.844180 0.630000
vt -1.430770 0.570000
vt -1.430770 0.630000
vt -1.108800 0.630000
vt -0.569225 0.570000
vt -0.569225 0.630000
vt -0.232902 0.630000
vt 0.306674 0.570000
vt 0.306674 0.630000
vt 0.642366 0.630000
vt 1.181940 0.570000
vt 1.181940 0.630000
vt 1.502030 0.630000
vt 2.041600 0.570000
vt 2.041600 0.630000
vt 1.443030 0.630000
vt 1.630840 0.570000
vt 1.630840 0.630000
vt 0.581488 0.630000
vt 1.096540 0.570000
vt 1.096540 0.630000
vt -0.294411 0.630000
vt 0.220639 0.570000
vt 0.220639 0.630000
vt -1.169680 0.630000
vt -0.654629 0.570000
vt -0.654629 0.630000
vt -2.029340 0.630000
vt -1.514290 0.570000
vt -1.514290 0.630000
vt 2.270050 0.630000
vt 2.932260 0.570000
vt 2.932260 0.630000
vt 1.440710 0.630000
vt 2.102920 0.570000
vt 2.102920 0.630000
vt 0.581050 0.630000
vt 1.243260 0.570000
vt 1.243260 0.630000
vt -0.294217 0.630000
vt 0.367989 0.570000
vt 0.367989 0.630000
vt -1.071670 0.570000
vt 1.166710 2.363680
vt 1.125000 3.000000
vt 0.937500 3.000000
vt 0.980810 2.339210
vt 1.110000 1.689730
vt 1.291110 1.738260
vt 1.322860 1.062670
vt 1.928960 0.000000
vt 2.160720 0.000000
vt 2.132400 0.032288
vt -2.858680 0.570000
vt 2.096190 2.486050
vt 2.062500 3.000000
vt 1.875000 3.000000
vt 1.910290 2.461580
vt 2.189000 1.421430
vt 2.427650 0.937500
vt 2.590020 1.031250
vt 2.727420 0.488859
vt 3.000000 0.178038
vt 3.000000 0.461802
vt 2.876170 0.603002
vt 2.331370 0.570000
vt -2.920000 0.570000
vt -2.090650 0.570000
vt -1.230990 0.570000
vt -0.355726 0.570000
vt 0.520172 0.570000
vt 1.381720 0.570000
vt -1.844180 0.570000
vt -1.108800 0.570000
vt -0.232902 0.570000
vt 0.642366 0.570000
vt 1.502030 0.570000
vt 1.443030 0.570000
vt 0.581488 0.570000
vt -0.294411 0.570000
vt -1.169680 0.570000
vt -2.029340 0.570000
vt 2.270050 0.570000
vt 1.440710 0.570000
vt 0.581050 0.570000
vt -0.294217 0.570000
vn 0.0000 -1.0000 -0.0000
vn -0.0000 -0.0000 1.0000
vn -1.0000 0.0000 0.0000
vn 0.0000 1.0000 0.0000
vn 0.0000 0.0000 -1.0000
vn 1.0000 -0.0000 0.0000
vn 0.8315 0.0000 -0.5556
vn 0.8660 0.0000 -0.5000
vn -0.9979 0.0000 0.0654
vn -0.9914 0.0000 0.1305
vn 0.9914 0.0000 -0.1305
vn 0.9979 0.0000 -0.0654
vn -0.9659 0.0000 0.2588
vn -0.9239 0.0000 0.3827
vn -0.8660 0.0000 0.5000
vn -0.7933 0.0000 0.6088
vn -0.7518 -0.0000 0.6594
vn 0.7518 0.0000 -0.6593
vn 0.7934 0.0000 -0.6088
vn 0.9239 0.0000 -0.3827
vn 0.9659 0.0000 -0.2588
vn -0.7934 0.0000 0.6088
vn -0.7518 0.0000 0.6593
usemtl Stone.211
s 1
f 2/1/1 4/2/1 1/3/1
f 1/4/2 8/5/2 9/6/2
f 2/1/3 11/7/3 3/8/3
f 5/9/4 13/10/4 14/11/4
f 4/12/5 22/13/5 23/14/5
f 1/15/6 26/16/6 27/17/6
f 32/18/4 33/19/4 17/20/4
f 41/21/4 42/22/4 36/23/4
f 2/1/1 3/24/1 4/2/1
f 10/25/2 5/26/2 9/6/2
f 5/26/2 2/1/2 9/6/2
f 2/1/2 1/4/2 9/6/2
f 1/4/2 6/27/2 8/5/2
f 6/27/2 7/28/2 8/5/2
f 2/1/3 5/26/3 11/7/3
f 5/9/4 10/29/4 12/30/4
f 5/9/4 12/30/4 13/10/4
f 16/31/4 11/32/4 15/33/4
f 11/32/4 5/9/4 14/11/4
f 15/33/4 11/32/4 14/11/4
f 24/34/5 17/35/5 23/14/5
f 17/35/5 4/12/5 23/14/5
f 4/12/5 3/36/5 19/37/5
f 3/36/5 11/38/5 18/39/5
f 11/38/5 16/40/5 18/39/5
f 19/37/5 20/41/5 21/42/5
f 3/36/5 18/39/5 19/37/5
f 19/37/5 21/42/5 22/13/5
f 4/12/5 19/37/5 22/13/5
f 1/15/6 4/43/6 26/16/6
f 4/43/6 17/44/6 26/16/6
f 17/44/6 25/45/6 26/16/6
f 27/17/6 28/46/6 6/47/6
f 27/17/6 6/47/6 1/15/6
f 25/48/4 17/20/4 33/19/4
f 17/20/4 24/49/4 29/50/4
f 30/51/4 17/20/4 29/50/4
f 30/51/4 31/52/4 17/20/4
f 31/52/4 32/18/4 17/20/4
f 43/53/4 21/54/4 20/55/4
f 20/55/4 34/56/4 43/53/4
f 34/56/4 35/57/4 43/53/4
f 35/57/4 36/23/4 42/22/4
f 36/23/4 37/58/4 40/59/4
f 37/58/4 38/60/4 39/61/4
f 38/60/4 7/62/4 39/61/4
f 7/62/4 6/63/4 39/61/4
f 6/63/4 28/64/4 39/61/4
f 36/23/4 40/59/4 41/21/4
f 42/22/4 43/53/4 35/57/4
f 37/58/4 39/61/4 40/59/4
usemtl Grey_Asphalt.015
f 10/65/7 44/66/8 12/67/8
f 44/68/4 49/69/4 50/70/4
f 24/71/9 53/72/10 29/73/10
f 61/74/4 62/75/4 55/76/4
f 43/77/11 22/78/12 21/79/12
f 20/80/9 52/81/10 34/82/10
f 34/83/10 51/84/13 35/85/13
f 35/86/13 50/87/14 36/88/14
f 36/89/14 49/90/15 37/91/15
f 37/92/15 48/93/16 38/94/16
f 38/95/16 8/96/17 7/97/17
f 28/98/18 58/99/19 39/100/19
f 39/101/19 57/102/8 40/103/8
f 40/104/8 56/105/20 41/106/20
f 41/107/20 55/108/21 42/109/21
f 42/110/21 54/111/11 43/112/11
f 33/113/22 26/114/23 25/115/23
f 32/116/15 59/117/22 33/118/22
f 31/119/14 60/120/15 32/121/15
f 30/122/13 61/123/14 31/124/14
f 29/125/10 62/126/13 30/127/13
f 15/128/11 18/129/12 16/130/12
f 14/131/21 45/132/11 15/133/11
f 13/134/20 46/135/21 14/136/21
f 12/137/8 47/138/20 13/139/20
f 10/65/7 9/140/7 44/66/8
f 52/141/4 19/142/4 18/143/4
f 18/143/4 45/144/4 52/141/4
f 45/144/4 46/145/4 51/146/4
f 46/145/4 47/147/4 51/146/4
f 47/147/4 44/68/4 50/70/4
f 51/146/4 47/147/4 50/70/4
f 44/68/4 9/148/4 49/69/4
f 9/148/4 8/149/4 48/150/4
f 9/148/4 48/150/4 49/69/4
f 45/144/4 51/146/4 52/141/4
f 24/71/9 23/151/9 53/72/10
f 53/152/4 23/153/4 22/154/4
f 22/154/4 54/155/4 53/152/4
f 54/155/4 55/76/4 53/152/4
f 55/76/4 56/156/4 61/74/4
f 56/156/4 57/157/4 60/158/4
f 57/157/4 58/159/4 60/158/4
f 58/159/4 27/160/4 26/161/4
f 60/158/4 58/159/4 59/162/4
f 26/161/4 59/162/4 58/159/4
f 56/156/4 60/158/4 61/74/4
f 62/75/4 53/152/4 55/76/4
f 43/77/11 54/163/11 22/78/12
f 20/80/9 19/164/9 52/81/10
f 34/83/10 52/165/10 51/84/13
f 35/86/13 51/166/13 50/87/14
f 36/89/14 50/167/14 49/90/15
f 37/92/15 49/168/15 48/93/16
f 38/95/16 48/169/16 8/96/17
f 28/98/18 27/170/18 58/99/19
f 39/101/19 58/171/19 57/102/8
f 40/104/8 57/172/8 56/105/20
f 41/107/20 56/173/20 55/108/21
f 42/110/21 55/174/21 54/111/11
f 33/113/22 59/175/22 26/114/23
f 32/116/15 60/176/15 59/117/22
f 31/119/14 61/177/14 60/120/15
f 30/122/13 62/178/13 61/123/14
f 29/125/10 53/179/10 62/126/13
f 15/128/11 45/180/11 18/129/12
f 14/131/21 46/181/21 45/132/11
f 13/134/20 47/182/20 46/135/21
f 12/137/8 44/183/8 47/138/20
