# Blender v2.79 (sub 7) OBJ File: ''
# www.blender.org
mtllib roadTile_270.mtl
o Mesh1_Group1_Model.044
v -1.500000 1.400000 -0.750000
v -1.500000 1.100000 -1.500000
v -1.500000 1.100000 1.500000
v -1.500000 1.700000 0.750000
v 1.500000 0.630000 0.750000
v 1.500000 0.600000 0.750000
v -1.500000 1.700000 -0.750000
v 1.500000 0.630000 -0.750000
v -1.500000 1.730000 -0.750000
v 1.500000 0.300000 0.750000
v 1.500000 0.000000 1.500000
v 1.500000 0.000000 -1.500000
v -1.500000 1.730000 1.500000
v -1.500000 1.730000 0.750000
v 1.500000 0.630000 1.500000
v 1.500000 0.630000 -1.500000
v -1.500000 1.400000 0.750000
v -1.500000 1.730000 -1.500000
v 1.500000 0.600000 -0.750000
v 1.500000 0.300000 -0.750000
vt -2.250000 1.400000
vt -3.000000 1.100000
vt 0.000000 1.100000
vt -0.000000 1.700000
vt -3.000000 0.630000
vt -3.000000 0.600000
vt 0.000000 1.700000
vt 3.000000 0.630000
vt 0.000000 1.730000
vt 0.750000 0.300000
vt 0.000000 0.000000
vt 3.000000 0.000000
vt -0.000000 0.595561
vt 0.750000 -2.599750
vt 0.750000 0.595561
vt 3.000000 0.630000
vt 0.000000 1.730000
vt -3.000000 0.378680
vt -0.000000 -2.816630
vt 0.000000 0.378680
vt -0.000000 1.100000
vt -3.000000 0.630000
vt -3.000000 0.000000
vt 3.000000 -2.599750
vt 2.250000 0.595561
vt 2.250000 -2.599750
vt -0.750000 1.730000
vt -0.750000 1.700000
vt -0.750000 1.400000
vt -2.250000 1.730000
vt -3.000000 1.730000
vt -2.250000 1.700000
vt -0.000000 1.730000
vt 3.000000 0.600000
vt 3.000000 0.630000
vt 2.250000 0.630000
vt 2.250000 0.600000
vt 2.250000 0.300000
vt 0.750000 0.630000
vt 0.000000 0.630000
vt 0.750000 0.600000
vt -0.000000 -2.599750
vt 3.000000 -0.000000
vt -3.000000 -2.816630
vt -0.000000 1.730000
vt 3.000000 0.595561
vt 2.250000 0.585233
vt 0.750000 -2.610080
vt 2.250000 -2.610080
vt 0.750000 0.585233
vn -1.0000 0.0000 0.0000
vn 0.0000 0.0000 -1.0000
vn 0.0000 0.0000 1.0000
vn 1.0000 0.0000 0.0000
vn 0.3443 0.9389 0.0000
vn -0.3443 -0.9389 -0.0000
usemtl Stone.036
s 1
f 1/1/1 2/2/1 3/3/1
f 4/4/2 5/5/2 6/6/2
f 7/7/3 8/8/3 9/9/3
f 10/10/4 11/11/4 12/12/4
f 13/13/5 5/14/5 14/15/5
f 3/3/3 15/16/3 13/17/3
f 2/18/6 11/19/6 3/20/6
f 2/21/2 16/22/2 12/23/2
f 16/24/5 9/25/5 8/26/5
f 13/17/1 14/27/1 4/28/1
f 13/17/1 4/28/1 17/29/1
f 9/30/1 18/31/1 7/32/1
f 18/31/1 2/2/1 1/1/1
f 7/32/1 18/31/1 1/1/1
f 3/3/1 13/17/1 17/29/1
f 3/3/1 17/29/1 1/1/1
f 4/4/2 14/33/2 5/5/2
f 7/7/3 19/34/3 8/8/3
f 16/35/4 8/36/4 19/37/4
f 16/35/4 19/37/4 20/38/4
f 5/39/4 15/40/4 6/41/4
f 15/40/4 11/11/4 10/10/4
f 6/41/4 15/40/4 10/10/4
f 12/12/4 16/35/4 20/38/4
f 12/12/4 20/38/4 10/10/4
f 13/13/5 15/42/5 5/14/5
f 3/3/3 11/43/3 15/16/3
f 2/18/6 12/44/6 11/19/6
f 2/21/2 18/45/2 16/22/2
f 16/24/5 18/46/5 9/25/5
usemtl Asphalt.026
f 7/47/5 6/48/5 19/49/5
f 6/41/4 20/38/4 19/37/4
f 7/32/1 17/29/1 4/28/1
f 7/47/5 4/50/5 6/48/5
f 6/41/4 10/10/4 20/38/4
f 7/32/1 1/1/1 17/29/1
