# Blender v2.79 (sub 7) OBJ File: ''
# www.blender.org
mtllib roadTile_282.mtl
o Mesh1_Group1_Model.082
v -1.125000 0.550000 1.500000
v -1.500000 0.550000 -1.500000
v -1.500000 0.550000 1.500000
v -1.125000 0.000000 1.500000
v -1.500000 0.000000 1.500000
v -1.125000 0.000000 -1.500000
v -1.125000 0.550000 -1.500000
v -1.500000 0.000000 -1.500000
v -0.750000 0.000000 -1.500000
v 1.500000 0.000000 -1.500000
v 0.375000 0.000000 1.500000
v 1.500000 0.000000 1.500000
v -0.750000 0.000000 1.500000
v 1.500000 0.455000 1.500000
v 1.500000 0.455000 -1.500000
v 0.375000 0.455000 1.500000
v -0.750000 0.455000 -1.500000
v -0.750000 0.455000 1.500000
v -0.750000 0.630000 -1.500000
v -1.125000 0.630000 -1.500000
v -0.750000 0.630000 1.500000
v -1.125000 0.630000 1.500000
vt 0.375000 0.000000
vt 0.000000 3.000000
vt 0.000000 0.000000
vt 0.375000 0.000000
vt 0.000000 0.550000
vt -0.000000 0.000000
vt -0.375000 0.000000
vt -0.375000 3.000000
vt -0.375000 0.550000
vt 0.000000 0.000000
vt 0.000000 0.550000
vt -3.000000 0.550000
vt -3.000000 0.000000
vt 0.375000 3.000000
vt 0.375000 0.550000
vt -0.750000 3.000000
vt -3.000000 3.000000
vt -1.875000 0.000000
vt -3.000000 0.000000
vt -0.750000 0.000000
vt -0.000000 3.000000
vt -0.375000 0.000000
vt 0.000000 0.455000
vt 3.000000 0.000000
vt 3.000000 0.455000
vt 1.875000 0.000000
vt 3.000000 3.000000
vt 0.750000 3.000000
vt 1.875000 0.455000
vt 3.000000 0.000000
vt 3.000000 0.455000
vt -0.750000 0.455000
vt -3.000000 0.000000
vt -0.750000 0.000000
vt 0.000000 0.000000
vt 3.000000 -0.000000
vt 1.875000 0.000000
vt -3.000000 0.455000
vt 0.750000 0.000000
vt 0.750000 0.455000
vt 0.750000 0.000000
vt 3.000000 0.630000
vt 0.000000 0.455000
vt 3.000000 0.455000
vt -0.750000 0.630000
vt -0.000000 0.550000
vt -3.000000 0.630000
vt -3.000000 0.550000
vt 0.375000 3.000000
vt 0.750000 0.000000
vt 0.750000 3.000000
vt 0.750000 0.630000
vt 0.375000 0.630000
vt 0.000000 0.630000
vt -0.375000 0.630000
vt -0.000000 0.630000
vt 0.375000 0.000000
vn 0.0000 1.0000 0.0000
vn 0.0000 0.0000 1.0000
vn 0.0000 -1.0000 -0.0000
vn 0.0000 0.0000 -1.0000
vn -1.0000 0.0000 0.0000
vn 1.0000 0.0000 0.0000
usemtl Grass.042
s 1
f 1/1/1 2/2/1 3/3/1
f 4/4/2 3/5/2 5/6/2
f 4/7/3 5/6/3 6/8/3
f 7/9/4 8/10/4 2/11/4
f 5/6/5 2/12/5 8/13/5
f 1/1/1 7/14/1 2/2/1
f 4/4/2 1/15/2 3/5/2
f 9/16/3 10/17/3 11/18/3
f 10/17/3 12/19/3 11/18/3
f 11/18/3 13/20/3 9/16/3
f 13/20/3 4/7/3 6/8/3
f 5/6/3 8/21/3 6/8/3
f 6/8/3 9/16/3 13/20/3
f 7/9/4 6/22/4 8/10/4
f 5/6/5 3/5/5 2/12/5
usemtl Water.021
f 14/23/6 10/24/6 15/25/6
f 16/26/1 15/27/1 17/28/1
f 16/29/2 12/30/2 14/31/2
f 17/32/4 10/33/4 9/34/4
f 14/23/6 12/35/6 10/24/6
f 16/26/1 14/36/1 15/27/1
f 16/29/2 11/37/2 12/30/2
f 17/32/4 15/38/4 10/33/4
usemtl Sand.003
f 18/39/1 16/26/1 17/28/1
f 11/37/2 18/40/2 13/41/2
f 11/37/2 16/29/2 18/40/2
usemtl Stone.063
f 1/15/2 4/4/2 18/40/2
f 19/42/6 18/43/6 17/44/6
f 17/32/4 7/9/4 19/45/4
f 1/46/5 20/47/5 7/48/5
f 20/49/1 21/50/1 19/51/1
f 13/41/2 18/40/2 4/4/2
f 18/40/2 21/52/2 1/15/2
f 21/52/2 22/53/2 1/15/2
f 19/42/6 21/54/6 18/43/6
f 17/32/4 9/34/4 6/22/4
f 6/22/4 7/9/4 17/32/4
f 7/9/4 20/55/4 19/45/4
f 1/46/5 22/56/5 20/47/5
f 20/49/1 22/57/1 21/50/1
