# Blender v2.79 (sub 7) OBJ File: ''
# www.blender.org
mtllib roadTile_017.mtl
o Mesh1_Group1_Model.195
v 1.500000 0.455000 -0.750001
v 0.750000 0.455000 -1.285900
v 0.750000 0.550000 -1.285900
v 1.500000 0.550000 -0.750001
v 3.000000 0.455000 -0.750001
v 3.000000 0.455000 -2.250000
v 2.250000 0.455000 -2.437500
v 1.203500 0.455000 -2.175870
v 0.750000 0.455000 -1.767950
v 2.250000 0.455000 -0.937501
v 3.000000 0.300000 -0.750001
v 3.000000 0.300000 -2.250000
v 1.203500 0.550000 -2.175870
v 0.750000 0.550000 -1.767950
v 2.250000 0.550000 -2.437500
v 3.000000 0.550000 -2.250000
v 2.250000 0.550000 -0.937501
v 3.000000 0.550000 -0.750001
v 3.000000 0.550000 0.000000
v 3.000000 0.000000 0.000000
v 3.000000 0.000000 -3.000000
v 3.000000 0.550000 -3.000000
v 0.000000 0.000000 0.000000
v 0.000000 0.550000 0.000000
v 0.000000 0.000000 -3.000000
v 0.000000 0.550000 -3.000000
vt 0.137364 0.455000
vt -0.784423 0.550000
vt -0.784423 0.455000
vt 1.500000 0.750001
vt 2.250000 0.937501
vt 1.203500 2.175870
vt 0.750001 0.300000
vt 2.250000 0.455000
vt 0.750001 0.455000
vt 2.349910 0.455000
vt 1.739950 0.550000
vt 1.739950 0.455000
vt 2.774000 0.455000
vt 1.695290 0.550000
vt 1.695290 0.455000
vt 2.364720 0.455000
vt 1.591640 0.550000
vt 1.591640 0.455000
vt 1.767950 0.455000
vt 1.285900 0.550000
vt 1.285900 0.455000
vt -1.955440 0.455000
vt -2.728530 0.550000
vt -2.728530 0.455000
vt -1.637120 0.455000
vt -2.410200 0.550000
vt -2.410200 0.455000
vt 0.137364 0.550000
vt 3.000000 0.750001
vt 3.000000 2.250000
vt 2.250000 2.437500
vt 0.750000 1.767950
vt 0.750000 1.285900
vt 2.250000 0.300000
vt 2.349910 0.550000
vt 2.774000 0.550000
vt 2.364720 0.550000
vt 1.767950 0.550000
vt -1.955440 0.550000
vt -1.637120 0.550000
vt 0.000000 0.000000
vt 3.000000 0.000000
vt 3.000000 -0.000000
vt -0.000000 0.550000
vt -0.000000 0.000000
vt -3.000000 0.000000
vt -0.000000 3.000000
vt -3.000000 3.000000
vt -3.000000 0.550000
vt -3.000000 0.000000
vt 0.750000 1.285900
vt 0.750000 1.767950
vt 0.000000 3.000000
vt -0.000000 0.000000
vt -3.000000 0.550000
vt -3.000000 0.000000
vt 0.750001 0.550000
vt 0.000000 0.550000
vt 3.000000 0.550000
vt 2.250000 0.550000
vt 3.000000 0.550000
vt 2.250000 2.437500
vt 3.000000 2.250000
vt 3.000000 3.000000
vt -0.000000 0.000000
vt 3.000000 -0.000000
vt 1.500000 0.750001
vt 3.000000 0.750001
vt 2.250000 0.937501
vt 1.203500 2.175870
vt -0.000000 0.550000
vn 0.5814 0.0000 -0.8136
vn 0.0000 1.0000 0.0000
vn 1.0000 0.0000 0.0000
vn 0.6688 0.0000 0.7435
vn 0.2425 0.0000 0.9701
vn -0.2425 0.0000 0.9701
vn 0.2425 0.0000 -0.9701
vn -0.2425 0.0000 -0.9701
vn 0.0000 -0.0000 1.0000
vn 0.0000 -1.0000 -0.0000
vn -1.0000 0.0000 0.0000
vn 0.0000 0.0000 -1.0000
usemtl Alternate_Dirt.007
s 1
f 2/1/1 4/2/1 1/3/1
f 1/4/2 10/5/2 8/6/2
f 11/7/3 6/8/3 5/9/3
f 8/10/4 14/11/4 9/12/4
f 7/13/5 13/14/5 8/15/5
f 6/16/6 15/17/6 7/18/6
f 9/19/3 3/20/3 2/21/3
f 10/22/7 18/23/7 5/24/7
f 1/25/8 17/26/8 10/27/8
f 2/1/1 3/28/1 4/2/1
f 10/5/2 5/29/2 6/30/2
f 6/30/2 7/31/2 10/5/2
f 7/31/2 8/6/2 10/5/2
f 8/6/2 9/32/2 2/33/2
f 2/33/2 1/4/2 8/6/2
f 11/7/3 12/34/3 6/8/3
f 8/10/4 13/35/4 14/11/4
f 7/13/5 15/36/5 13/14/5
f 6/16/6 16/37/6 15/17/6
f 9/19/3 14/38/3 3/20/3
f 10/22/7 17/39/7 18/23/7
f 1/25/8 4/40/8 17/26/8
usemtl Grass.084
f 11/7/3 20/41/3 21/42/3
f 20/43/9 24/44/9 23/45/9
f 20/46/10 25/47/10 21/48/10
f 23/45/11 26/49/11 25/50/11
f 3/51/2 14/52/2 26/53/2
f 25/54/12 22/55/12 21/56/12
f 18/57/3 19/58/3 5/9/3
f 19/58/3 20/41/3 11/7/3
f 5/9/3 19/58/3 11/7/3
f 21/42/3 22/59/3 12/34/3
f 22/59/3 16/60/3 6/8/3
f 6/8/3 12/34/3 22/59/3
f 12/34/3 11/7/3 21/42/3
f 20/43/9 19/61/9 24/44/9
f 20/46/10 23/45/10 25/47/10
f 23/45/11 24/44/11 26/49/11
f 15/62/2 16/63/2 22/64/2
f 24/65/2 19/66/2 4/67/2
f 19/66/2 18/68/2 17/69/2
f 4/67/2 19/66/2 17/69/2
f 15/62/2 22/64/2 26/53/2
f 13/70/2 15/62/2 26/53/2
f 24/65/2 4/67/2 3/51/2
f 14/52/2 13/70/2 26/53/2
f 24/65/2 3/51/2 26/53/2
f 25/54/12 26/71/12 22/55/12
