# Blender v2.79 (sub 7) OBJ File: ''
# www.blender.org
mtllib roadTile_189.mtl
o Mesh1_Group1_Model.235
v 3.000000 0.550000 0.000000
v 3.000000 0.550000 -0.750000
v 0.000000 1.650000 -0.750000
v 0.000000 1.650000 0.000000
v 3.000000 0.000000 0.000000
v 3.000000 0.000000 -0.750000
v 3.000000 0.455000 -0.750000
v 0.000000 0.000000 -2.250000
v 0.000000 0.000000 -3.000000
v 3.000000 0.000000 -3.000000
v 3.000000 0.000000 -2.250000
v 0.000000 0.000000 0.000000
v 0.000000 0.000000 -0.750000
v 0.000000 1.555000 -2.250000
v 0.000000 1.650000 -2.250000
v 0.000000 1.650000 -3.000000
v 0.000000 1.555000 -0.750000
v 3.000000 0.550000 -2.250000
v 3.000000 0.455000 -2.250000
v 3.000000 0.550000 -3.000000
vt 0.750000 -2.627290
vt 0.000000 0.568020
vt 0.000000 -2.627290
vt 0.750000 0.455000
vt 0.750000 0.550000
vt 0.000000 0.550000
vt -3.000000 0.750000
vt -0.000000 0.000000
vt -0.000000 0.750000
vt -2.250000 1.555000
vt -2.250000 1.650000
vt -3.000000 1.650000
vt -0.750000 1.555000
vt 0.000000 1.650000
vt -0.000000 1.555000
vt -3.000000 0.550000
vt -3.000000 0.455000
vt 2.250000 0.455000
vt 3.000000 0.000000
vt 3.000000 0.550000
vt 3.000000 0.550000
vt 0.000000 1.555000
vt 3.000000 0.455000
vt 2.250000 0.568020
vt 3.000000 -2.627290
vt 3.000000 0.568020
vt -0.000000 -0.000000
vt -3.000000 0.550000
vt -3.000000 -0.000000
vt 3.000000 0.550000
vt 0.750000 0.568020
vt 0.000000 0.000000
vt 0.750000 0.000000
vt -0.000000 2.250000
vt 0.000000 3.000000
vt -3.000000 2.250000
vt -3.000000 3.000000
vt -3.000000 0.000000
vt -3.000000 0.000000
vt -2.250000 0.000000
vt -0.750000 1.650000
vt -0.750000 0.000000
vt -0.000000 1.650000
vt 2.250000 0.550000
vt 2.250000 0.000000
vt 0.000000 1.650000
vt 2.250000 -2.627290
vt -0.000000 1.650000
vt 3.000000 -0.000000
vt 0.750000 0.535316
vt 2.250000 -2.659990
vt 2.250000 0.535316
vt 0.750000 -2.659990
vn 0.3443 0.9389 0.0000
vn 1.0000 0.0000 0.0000
vn 0.0000 -1.0000 -0.0000
vn -1.0000 0.0000 0.0000
vn 0.0000 0.0000 -1.0000
vn 0.0000 0.0000 1.0000
usemtl Grass.100
s 1
f 2/1/1 4/2/1 1/3/1
f 7/4/2 2/5/2 1/6/2
f 6/7/3 12/8/3 13/9/3
f 14/10/4 15/11/4 16/12/4
f 17/13/4 12/8/4 4/14/4
f 17/15/5 2/16/5 7/17/5
f 19/18/2 10/19/2 20/20/2
f 18/21/6 14/22/6 19/23/6
f 15/24/1 20/25/1 16/26/1
f 9/27/5 20/28/5 10/29/5
f 12/8/6 1/30/6 4/14/6
f 2/1/1 3/31/1 4/2/1
f 1/6/2 5/32/2 7/4/2
f 5/32/2 6/33/2 7/4/2
f 13/9/3 8/34/3 6/7/3
f 8/34/3 9/35/3 11/36/3
f 6/7/3 8/34/3 11/36/3
f 9/35/3 10/37/3 11/36/3
f 6/7/3 5/38/3 12/8/3
f 16/12/4 9/39/4 14/10/4
f 9/39/4 8/40/4 14/10/4
f 4/14/4 3/41/4 17/13/4
f 17/13/4 13/42/4 12/8/4
f 17/15/5 3/43/5 2/16/5
f 20/20/2 18/44/2 19/18/2
f 19/18/2 11/45/2 10/19/2
f 18/21/6 15/46/6 14/22/6
f 15/24/1 18/47/1 20/25/1
f 9/27/5 16/48/5 20/28/5
f 12/8/6 5/49/6 1/30/6
usemtl Water.039
f 13/42/4 14/10/4 8/40/4
f 17/50/1 19/51/1 14/52/1
f 11/45/2 7/4/2 6/33/2
f 13/42/4 17/13/4 14/10/4
f 17/50/1 7/53/1 19/51/1
f 11/45/2 19/18/2 7/4/2
