# Blender v2.79 (sub 7) OBJ File: ''
# www.blender.org
mtllib roadTile_211.mtl
o Mesh1_Group1_Model.134
v -1.500000 1.700000 1.125000
v 1.500000 1.730000 1.125000
v 1.500000 1.700000 1.125000
v 1.500000 1.700000 -0.375000
v -1.500000 1.730000 -0.375000
v -1.500000 1.700000 -0.375000
v 1.500000 1.400000 1.125000
v 1.500000 0.000000 1.500000
v 1.500000 0.000000 -0.750000
v 0.870000 0.000000 1.500000
v 1.500000 1.730000 1.500000
v -1.500000 1.100000 -0.750000
v -1.500000 1.100000 1.500000
v -1.500000 1.400000 1.125000
v -1.500000 1.730000 -0.750000
v 1.500000 1.730000 -0.750000
v 0.870000 0.000000 -0.750000
v 1.500000 1.730000 -0.375000
v -1.500000 1.730000 1.500000
v -1.500000 1.730000 1.125000
v 1.500000 1.400000 -0.375000
v -1.500000 1.400000 -0.375000
vt -0.000000 1.700000
vt -3.000000 1.730000
vt -3.000000 1.700000
vt 3.000000 1.700000
vt 0.000000 1.730000
vt 0.000000 1.700000
vt 0.375000 1.400000
vt 0.000000 0.000000
vt 2.250000 0.000000
vt 2.370000 -0.000000
vt 3.000000 0.000000
vt 3.000000 1.730000
vt -2.250000 1.100000
vt 0.000000 1.100000
vt -0.375000 1.400000
vt -0.000000 1.100000
vt -0.000000 1.730000
vt -3.000000 1.730000
vt -2.250000 -2.149730
vt 0.000000 0.463099
vt -2.250000 0.463099
vt -2.370000 0.000000
vt -3.000000 2.250000
vt -3.000000 0.000000
vt 3.000000 2.250000
vt 0.000000 1.875000
vt 3.000000 1.875000
vt 0.000000 0.000000
vt 3.000000 0.375000
vt 0.000000 0.375000
vt -0.000000 1.730000
vt 3.000000 1.730000
vt 0.375000 1.730000
vt 0.000000 1.730000
vt 0.375000 1.700000
vt 2.250000 1.730000
vt 1.875000 1.400000
vt 1.875000 1.730000
vt 1.875000 1.700000
vt 0.000000 1.730000
vt -1.875000 1.730000
vt -2.250000 1.730000
vt -1.875000 1.700000
vt -1.875000 1.400000
vt -0.375000 1.730000
vt -0.375000 1.700000
vt -3.000000 0.000000
vt -2.370000 0.000000
vt -0.000000 -2.149730
vt -2.370000 2.250000
vt 0.000000 2.250000
vt 3.000000 0.000000
vt 0.000000 1.875000
vt 3.000000 0.375000
vt 3.000000 1.875000
vt 0.000000 0.375000
vn 0.0000 0.0000 -1.0000
vn 0.0000 0.0000 1.0000
vn 1.0000 0.0000 0.0000
vn -1.0000 0.0000 0.0000
vn -0.4210 -0.9071 -0.0000
vn 0.0000 -1.0000 -0.0000
vn 0.0000 1.0000 0.0000
usemtl Stone.113
s 1
f 1/1/1 2/2/1 3/3/1
f 4/4/2 5/5/2 6/6/2
f 7/7/3 8/8/3 9/9/3
f 10/10/2 8/11/2 11/12/2
f 12/13/4 13/14/4 14/15/4
f 12/16/1 15/17/1 16/18/1
f 17/19/5 13/20/5 12/21/5
f 10/22/6 9/23/6 8/24/6
f 16/25/7 5/26/7 18/27/7
f 19/28/7 2/29/7 20/30/7
f 1/1/1 20/31/1 2/2/1
f 4/4/2 18/32/2 5/5/2
f 2/33/3 11/34/3 3/35/3
f 11/34/3 8/8/3 7/7/3
f 3/35/3 11/34/3 7/7/3
f 9/9/3 16/36/3 21/37/3
f 16/36/3 18/38/3 4/39/3
f 4/39/3 21/37/3 16/36/3
f 21/37/3 7/7/3 9/9/3
f 11/12/2 19/40/2 13/14/2
f 13/14/2 10/10/2 11/12/2
f 5/41/4 15/42/4 6/43/4
f 15/42/4 12/13/4 22/44/4
f 6/43/4 15/42/4 22/44/4
f 13/14/4 19/40/4 14/15/4
f 19/40/4 20/45/4 1/46/4
f 1/46/4 14/15/4 19/40/4
f 14/15/4 22/44/4 12/13/4
f 9/47/1 17/48/1 16/18/1
f 17/48/1 12/16/1 16/18/1
f 17/19/5 10/49/5 13/20/5
f 10/22/6 17/50/6 9/23/6
f 16/25/7 15/51/7 5/26/7
f 19/28/7 11/52/7 2/29/7
usemtl Asphalt.090
f 6/53/7 3/54/7 4/55/7
f 22/44/4 1/46/4 6/43/4
f 7/7/3 4/39/3 3/35/3
f 6/53/7 1/56/7 3/54/7
f 22/44/4 14/15/4 1/46/4
f 7/7/3 21/37/3 4/39/3
