# Blender v2.79 (sub 7) OBJ File: ''
# www.blender.org
mtllib roadTile_269.mtl
o Mesh1_Group1_Model.186
v 1.500000 0.000000 1.500000
v 1.500000 0.000000 -1.500000
v 1.500000 0.300000 -0.750000
v -1.500000 0.630000 1.500000
v -1.500000 0.000000 1.500000
v -1.500000 0.000000 -1.500000
v -1.500000 0.300000 0.750000
v 1.500000 0.630000 -1.500000
v -1.500000 0.630000 -0.750000
v 1.500000 0.630000 -0.750000
v 1.500000 0.600000 -0.750000
v -1.500000 0.600000 -0.750000
v -1.500000 0.600000 0.750000
v 1.500000 0.630000 0.750000
v 1.500000 0.600000 0.750000
v -1.500000 0.630000 0.750000
v 1.500000 0.630000 1.500000
v 1.500000 0.300000 0.750000
v -1.500000 0.630000 -1.500000
v -1.500000 0.300000 -0.750000
vt 0.000000 0.000000
vt 3.000000 0.000000
vt 2.250000 0.300000
vt 3.000000 -0.000000
vt 0.000000 0.630000
vt 0.000000 0.000000
vt -0.000000 3.000000
vt -3.000000 0.000000
vt -3.000000 0.000000
vt -0.750000 0.300000
vt -0.000000 0.000000
vt -3.000000 0.630000
vt -3.000000 0.000000
vt 3.000000 3.000000
vt 0.000000 2.250000
vt 3.000000 2.250000
vt 3.000000 0.600000
vt 0.000000 0.630000
vt 0.000000 0.600000
vt -0.000000 0.600000
vt -3.000000 0.630000
vt -3.000000 0.600000
vt 0.000000 0.000000
vt 3.000000 0.750000
vt 0.000000 0.750000
vt 0.750000 0.630000
vt 0.000000 0.630000
vt 0.750000 0.600000
vt 0.750000 0.300000
vt 3.000000 0.630000
vt 2.250000 0.630000
vt 2.250000 0.600000
vt 3.000000 0.630000
vt -3.000000 3.000000
vt -2.250000 0.630000
vt -3.000000 0.630000
vt -2.250000 0.600000
vt -2.250000 0.300000
vt -0.750000 0.630000
vt -0.750000 0.600000
vt -0.000000 0.630000
vt 0.000000 3.000000
vt 3.000000 0.630000
vt -0.000000 0.630000
vt 3.000000 0.000000
vt 0.000000 2.250000
vt 3.000000 0.750000
vt 3.000000 2.250000
vt 0.000000 0.750000
vn 1.0000 0.0000 0.0000
vn 0.0000 0.0000 1.0000
vn 0.0000 -1.0000 -0.0000
vn -1.0000 0.0000 0.0000
vn 0.0000 0.0000 -1.0000
vn 0.0000 1.0000 0.0000
usemtl Stone.160
s 1
f 1/1/1 2/2/1 3/3/1
f 1/4/2 4/5/2 5/6/2
f 6/7/3 1/8/3 5/6/3
f 6/9/4 5/6/4 7/10/4
f 6/11/5 8/12/5 2/13/5
f 8/14/6 9/15/6 10/16/6
f 11/17/2 9/18/2 12/19/2
f 13/20/5 14/21/5 15/22/5
f 4/23/6 14/24/6 16/25/6
f 14/26/1 17/27/1 15/28/1
f 17/27/1 1/1/1 18/29/1
f 15/28/1 17/27/1 18/29/1
f 2/2/1 8/30/1 3/3/1
f 8/30/1 10/31/1 11/32/1
f 11/32/1 3/3/1 8/30/1
f 3/3/1 18/29/1 1/1/1
f 1/4/2 17/33/2 4/5/2
f 6/7/3 2/34/3 1/8/3
f 9/35/4 19/36/4 12/37/4
f 19/36/4 6/9/4 20/38/4
f 12/37/4 19/36/4 20/38/4
f 5/6/4 4/5/4 7/10/4
f 4/5/4 16/39/4 13/40/4
f 13/40/4 7/10/4 4/5/4
f 7/10/4 20/38/4 6/9/4
f 6/11/5 19/41/5 8/12/5
f 8/14/6 19/42/6 9/15/6
f 11/17/2 10/43/2 9/18/2
f 13/20/5 16/44/5 14/21/5
f 4/23/6 17/45/6 14/24/6
usemtl Asphalt.131
f 12/46/6 15/47/6 11/48/6
f 20/38/4 13/40/4 12/37/4
f 18/29/1 11/32/1 15/28/1
f 12/46/6 13/49/6 15/47/6
f 20/38/4 7/10/4 13/40/4
f 18/29/1 3/3/1 11/32/1
