# Blender v2.79 (sub 7) OBJ File: ''
# www.blender.org
mtllib roadTile_289.mtl
o Mesh1_Group1_Model.045
v -1.500000 1.700000 -0.750000
v -1.500000 1.400000 0.750000
v -1.500000 1.700000 0.750000
v 1.500000 0.600000 0.750000
v 1.500000 0.600000 -0.750000
v 1.500000 0.300000 -0.750000
v -1.500000 1.400000 -0.750000
v 1.500000 0.300000 0.750000
v 1.500000 0.630000 -0.750000
v -1.500000 1.730000 -0.750000
v 1.500000 0.000000 1.500000
v 1.500000 0.000000 -1.500000
v 1.500000 0.630000 0.750000
v -1.500000 0.000000 -1.500000
v 1.500000 0.630000 -1.500000
v -1.500000 1.730000 -1.500000
v -1.500000 0.000000 1.500000
v 1.500000 0.630000 1.500000
v -1.500000 1.730000 1.500000
v -1.500000 1.730000 0.750000
vt -2.250000 1.700000
vt -0.750000 1.400000
vt -0.750000 1.700000
vt 2.250000 0.585233
vt 0.750000 -2.610080
vt 2.250000 -2.610080
vt 0.750000 0.600000
vt 2.250000 0.300000
vt 2.250000 0.600000
vt -2.250000 1.400000
vt 0.750000 0.585233
vt 0.750000 0.300000
vt 0.000000 1.700000
vt 3.000000 0.630000
vt 0.000000 1.730000
vt 0.000000 0.000000
vt 3.000000 0.000000
vt -0.000000 1.700000
vt -3.000000 0.630000
vt -3.000000 0.600000
vt -3.000000 0.000000
vt 3.000000 -2.599750
vt 2.250000 0.595561
vt 2.250000 -2.599750
vt -3.000000 0.630000
vt -0.000000 0.000000
vt -0.000000 1.730000
vt -3.000000 3.000000
vt -0.000000 0.000000
vt -0.000000 3.000000
vt 3.000000 0.630000
vt 0.000000 1.730000
vt -0.000000 0.595561
vt 0.750000 -2.599750
vt 0.750000 0.595561
vt 3.000000 0.600000
vt 3.000000 0.630000
vt 2.250000 0.630000
vt 0.750000 0.630000
vt 0.000000 0.630000
vt -0.000000 1.730000
vt -0.750000 1.730000
vt -2.250000 1.730000
vt -3.000000 1.730000
vt 3.000000 0.595561
vt -3.000000 0.000000
vt -3.000000 0.000000
vt 3.000000 0.000000
vt -0.000000 -2.599750
vn -1.0000 0.0000 0.0000
vn 0.3443 0.9389 0.0000
vn 1.0000 0.0000 0.0000
vn 0.0000 0.0000 1.0000
vn 0.0000 0.0000 -1.0000
vn 0.0000 -1.0000 -0.0000
usemtl Asphalt.027
s 1
f 1/1/1 2/2/1 3/3/1
f 1/4/2 4/5/2 5/6/2
f 4/7/3 6/8/3 5/9/3
f 1/1/1 7/10/1 2/2/1
f 1/4/2 3/11/2 4/5/2
f 4/7/3 8/12/3 6/8/3
usemtl Stone.037
f 1/13/4 9/14/4 10/15/4
f 8/12/3 11/16/3 12/17/3
f 3/18/5 13/19/5 4/20/5
f 2/2/1 7/10/1 14/21/1
f 15/22/2 10/23/2 9/24/2
f 15/25/5 14/26/5 16/27/5
f 12/28/6 17/29/6 14/30/6
f 17/29/4 18/31/4 19/32/4
f 19/33/2 13/34/2 20/35/2
f 1/13/4 5/36/4 9/14/4
f 15/37/3 9/38/3 5/9/3
f 15/37/3 5/9/3 6/8/3
f 13/39/3 18/40/3 4/7/3
f 18/40/3 11/16/3 8/12/3
f 4/7/3 18/40/3 8/12/3
f 12/17/3 15/37/3 6/8/3
f 12/17/3 6/8/3 8/12/3
f 3/18/5 20/41/5 13/19/5
f 19/32/1 20/42/1 3/3/1
f 19/32/1 3/3/1 2/2/1
f 14/21/1 17/29/1 2/2/1
f 17/29/1 19/32/1 2/2/1
f 10/43/1 16/44/1 1/1/1
f 16/44/1 14/21/1 7/10/1
f 1/1/1 16/44/1 7/10/1
f 15/22/2 16/45/2 10/23/2
f 15/25/5 12/46/5 14/26/5
f 12/28/6 11/47/6 17/29/6
f 17/29/4 11/48/4 18/31/4
f 19/33/2 18/49/2 13/34/2
