# Blender v2.79 (sub 7) OBJ File: ''
# www.blender.org
mtllib roadTile_070.mtl
o Mesh1_Group1_Model.087
v 2.205090 0.600000 -2.314740
v 2.071110 0.600000 -1.641200
v 2.071110 0.630000 -1.641200
v 2.205090 0.630000 -2.314740
v 3.000000 0.000000 -3.000000
v 0.000000 0.000000 -3.000000
v 0.000000 0.300000 -3.000000
v 2.250000 0.300000 -3.000000
v 2.250000 0.600000 -3.000000
v 2.250000 0.630000 -3.000000
v 3.000000 0.630000 -3.000000
v 3.000000 0.000000 0.000000
v 3.000000 0.630000 0.000000
v 1.850370 0.630000 -0.990912
v 1.546630 0.630000 -0.375000
v 1.296070 0.630000 0.000000
v 1.850370 0.600000 -0.990912
v 1.546630 0.600000 -0.375000
v 1.296070 0.600000 0.000000
v 0.000000 0.300000 0.000000
v 0.000000 0.000000 0.000000
v 1.296070 0.300000 0.000000
v 0.000000 0.600000 0.000000
v 0.000000 0.600000 -3.000000
vt -2.013720 0.600000
vt -2.700450 0.630000
vt -2.700450 0.600000
vt -2.250000 0.300000
vt -3.000000 0.630000
vt -3.000000 -0.000000
vt 3.000000 -0.000000
vt 0.000000 0.630000
vt 0.000000 -0.000000
vt 2.071110 1.641200
vt 1.850370 0.990912
vt 3.000000 0.000000
vt -2.454000 0.600000
vt -3.140730 0.630000
vt -3.140730 0.600000
vt -1.533110 0.600000
vt -2.219840 0.630000
vt -2.219840 0.600000
vt -1.020390 0.600000
vt -1.707120 0.630000
vt -1.707120 0.600000
vt -0.720056 0.600000
vt -1.171060 0.630000
vt -1.171060 0.600000
vt 3.000000 0.630000
vt 1.296070 0.600000
vt 1.296070 0.300000
vt 0.000000 0.300000
vt -3.000000 0.000000
vt 0.000000 -0.000000
vt -2.013720 0.630000
vt 0.000000 -0.000000
vt 0.000000 0.300000
vt -2.250000 0.600000
vt -2.250000 0.630000
vt 3.000000 0.630000
vt 3.000000 3.000000
vt 2.250000 3.000000
vt 2.205090 2.314740
vt 1.546630 0.375000
vt 1.296070 0.000000
vt -2.454000 0.630000
vt -1.533110 0.630000
vt -1.020390 0.630000
vt -0.720056 0.630000
vt 3.000000 0.000000
vt 1.296070 0.630000
vt -3.000000 0.300000
vt 2.205090 2.314740
vt 2.250000 3.000000
vt -0.000000 3.000000
vt 0.000000 0.600000
vt -3.000000 0.600000
vt 0.000000 0.600000
vt 0.000000 -0.000000
vt 1.850370 0.990912
vt 1.296070 0.000000
vt 1.546630 0.375000
vt 2.071110 1.641200
vt -118.110001 118.110001
vt 0.000000 118.110001
vt -118.110001 0.000000
vn -0.9659 0.0000 -0.2588
vn -0.9914 0.0000 -0.1305
vn 0.0000 0.0000 -1.0000
vn 1.0000 0.0000 0.0000
vn 0.0000 1.0000 0.0000
vn -0.9979 0.0000 -0.0654
vn -0.9239 0.0000 -0.3827
vn -0.8660 0.0000 -0.5000
vn -0.8315 0.0000 -0.5556
vn -0.0000 -0.0000 1.0000
vn -1.0000 0.0000 0.0000
vn 0.0000 -1.0000 -0.0000
usemtl Stone.068
s 1
f 2/1/1 4/2/2 1/3/2
f 8/4/3 11/5/3 5/6/3
f 5/7/4 13/8/4 12/9/4
f 3/10/5 14/11/5 13/12/5
f 1/13/2 10/14/6 9/15/6
f 17/16/7 3/17/1 2/18/1
f 18/19/8 14/20/7 17/21/7
f 19/22/9 15/23/8 18/24/8
f 13/25/10 19/26/10 22/27/10
f 20/28/11 6/29/11 21/30/11
f 2/1/1 3/31/1 4/2/2
f 5/6/3 6/32/3 8/4/3
f 6/32/3 7/33/3 8/4/3
f 8/4/3 9/34/3 11/5/3
f 9/34/3 10/35/3 11/5/3
f 5/7/4 11/36/4 13/8/4
f 13/12/5 11/37/5 3/10/5
f 11/37/5 10/38/5 4/39/5
f 11/37/5 4/39/5 3/10/5
f 15/40/5 16/41/5 13/12/5
f 14/11/5 15/40/5 13/12/5
f 1/13/2 4/42/2 10/14/6
f 17/16/7 14/43/7 3/17/1
f 18/19/8 15/44/8 14/20/7
f 19/22/9 16/45/9 15/23/8
f 22/27/10 20/28/10 21/30/10
f 21/30/10 12/46/10 22/27/10
f 12/46/10 13/25/10 22/27/10
f 13/25/10 16/47/10 19/26/10
f 20/28/11 7/48/11 6/29/11
usemtl Asphalt.054
f 1/49/5 9/50/5 24/51/5
f 20/28/10 19/26/10 23/52/10
f 7/48/11 23/52/11 24/53/11
f 8/4/3 24/54/3 9/34/3
f 24/51/5 23/55/5 17/56/5
f 23/55/5 19/57/5 18/58/5
f 17/56/5 23/55/5 18/58/5
f 17/56/5 2/59/5 24/51/5
f 2/59/5 1/49/5 24/51/5
f 20/28/10 22/27/10 19/26/10
f 7/48/11 20/28/11 23/52/11
f 8/4/3 7/33/3 24/54/3
usemtl FrontColor.002
f 5/60/12 21/30/12 6/61/12
f 5/60/12 12/62/12 21/30/12
