# Blender v2.79 (sub 7) OBJ File: ''
# www.blender.org
mtllib roadTile_261.mtl
o Mesh1_Group1_Model.148
v 1.500000 0.630000 -0.750000
v -1.500000 1.730000 -0.375000
v 1.500000 0.630000 -0.375000
v 1.500000 0.000000 1.500000
v 1.500000 0.000000 -0.750000
v 1.500000 0.300000 -0.375000
v -1.500000 1.730000 1.500000
v -1.500000 1.100000 1.500000
v 0.000000 0.550000 1.500000
v 0.000000 0.000000 -0.750000
v 0.000000 0.000000 1.500000
v 0.000000 0.550000 -0.750000
v -1.500000 1.100000 -0.750000
v -1.500000 1.400000 1.125000
v 1.500000 0.630000 1.125000
v -1.500000 1.730000 1.125000
v -1.500000 1.700000 1.125000
v 1.500000 0.600000 1.125000
v -1.500000 1.700000 -0.375000
v -1.500000 1.730000 -0.750000
v 1.500000 0.630000 1.500000
v 1.500000 0.300000 1.125000
v 1.500000 0.600000 -0.375000
v -1.500000 1.400000 -0.375000
vt 2.250000 -2.599750
vt 1.875000 0.595561
vt 1.875000 -2.599750
vt 0.000000 -0.000000
vt 2.250000 0.000000
vt 1.875000 0.300000
vt 0.000000 1.730000
vt 0.000000 1.100000
vt 1.500000 0.550000
vt -1.500000 2.250000
vt -3.000000 0.000000
vt -1.500000 0.000000
vt -0.000000 0.550000
vt -2.250000 0.000000
vt -0.000000 0.000000
vt -0.000000 0.378680
vt -2.250000 -1.218970
vt -0.000000 -1.218970
vt -2.250000 1.100000
vt -0.375000 1.400000
vt -3.000000 0.000000
vt -1.500000 0.000000
vt -1.500000 0.550000
vt 0.000000 0.595561
vt 0.375000 -2.599750
vt 0.375000 0.595561
vt -0.000000 1.700000
vt -3.000000 0.630000
vt -3.000000 0.600000
vt 0.000000 1.700000
vt 3.000000 0.630000
vt 0.000000 1.730000
vt 2.250000 0.595561
vt 0.375000 0.630000
vt 0.000000 0.630000
vt 0.375000 0.600000
vt 0.375000 0.300000
vt 2.250000 0.630000
vt 1.875000 0.630000
vt 1.875000 0.600000
vt 1.500000 -0.000000
vt 3.000000 0.000000
vt 3.000000 0.630000
vt -3.000000 2.250000
vt -2.250000 0.550000
vt -2.250000 0.378680
vt -1.875000 1.730000
vt -2.250000 1.730000
vt -1.875000 1.700000
vt -1.875000 1.400000
vt -0.375000 1.730000
vt -0.375000 1.700000
vt -0.000000 1.100000
vt -0.000000 1.730000
vt -3.000000 0.630000
vt 0.000000 -2.599750
vt -0.000000 1.730000
vt 3.000000 0.600000
vt 1.875000 0.585233
vt 0.375000 -2.610080
vt 1.875000 -2.610080
vt 0.375000 0.585233
vn 0.3443 0.9389 0.0000
vn 1.0000 0.0000 0.0000
vn -0.0000 -0.0000 1.0000
vn 0.0000 -1.0000 -0.0000
vn -1.0000 0.0000 0.0000
vn -0.3443 -0.9389 -0.0000
vn 0.0000 0.0000 -1.0000
usemtl Stone.124
s 1
f 1/1/1 2/2/1 3/3/1
f 4/4/2 5/5/2 6/6/2
f 7/7/3 8/8/3 9/9/3
f 10/10/4 4/11/4 11/12/4
f 9/13/5 10/14/5 11/15/5
f 8/16/6 12/17/6 9/18/6
f 13/19/5 8/8/5 14/20/5
f 5/21/7 10/22/7 12/23/7
f 7/24/1 15/25/1 16/26/1
f 17/27/7 15/28/7 18/29/7
f 19/30/3 3/31/3 2/32/3
f 1/1/1 20/33/1 2/2/1
f 15/34/2 21/35/2 18/36/2
f 21/35/2 4/4/2 22/37/2
f 18/36/2 21/35/2 22/37/2
f 5/5/2 1/38/2 6/6/2
f 1/38/2 3/39/2 23/40/2
f 23/40/2 6/6/2 1/38/2
f 6/6/2 22/37/2 4/4/2
f 9/9/3 11/41/3 4/42/3
f 4/42/3 21/43/3 9/9/3
f 21/43/3 7/7/3 9/9/3
f 10/10/4 5/44/4 4/11/4
f 9/13/5 12/45/5 10/14/5
f 8/16/6 13/46/6 12/17/6
f 2/47/5 20/48/5 19/49/5
f 20/48/5 13/19/5 24/50/5
f 19/49/5 20/48/5 24/50/5
f 8/8/5 7/7/5 14/20/5
f 7/7/5 16/51/5 17/52/5
f 17/52/5 14/20/5 7/7/5
f 14/20/5 24/50/5 13/19/5
f 12/23/7 13/53/7 20/54/7
f 20/54/7 1/55/7 12/23/7
f 1/55/7 5/21/7 12/23/7
f 7/24/1 21/56/1 15/25/1
f 17/27/7 16/57/7 15/28/7
f 19/30/3 23/58/3 3/31/3
usemtl Asphalt.097
f 19/59/1 18/60/1 23/61/1
f 19/49/5 14/20/5 17/52/5
f 18/36/2 6/6/2 23/40/2
f 19/59/1 17/62/1 18/60/1
f 19/49/5 24/50/5 14/20/5
f 18/36/2 22/37/2 6/6/2
