# Blender v2.79 (sub 7) OBJ File: ''
# www.blender.org
mtllib roadTile_112.mtl
o Mesh1_Group1_Model.039
v -1.234835 0.630000 -1.234830
v -1.271714 0.000000 -1.202490
v -1.271714 0.630000 -1.202490
v -1.175240 0.630000 -1.312500
v -1.202492 0.630000 -1.271710
v -0.850481 0.630000 -1.125000
v -0.750000 0.600000 -1.500000
v -0.750000 0.300000 -1.500000
v -1.125000 0.630000 -1.500000
v 1.500000 0.000000 1.500000
v -1.234835 0.000000 -1.234830
v -1.202492 0.000000 -1.271710
v 1.500000 0.300000 1.500000
v -1.500000 0.000000 1.500000
v 1.500000 0.300000 -1.500000
v 1.500000 0.000000 -1.500000
v -1.500000 0.300000 1.500000
v -1.500000 0.300000 -0.750000
v -1.451053 0.630000 -1.128210
v -1.500000 0.000000 -1.125000
v -1.500000 0.630000 -1.125000
v -1.402943 0.630000 -1.137780
v -1.451053 0.000000 -1.128210
v -1.356494 0.630000 -1.153550
v -1.402943 0.000000 -1.137780
v -1.312500 0.630000 -1.175240
v -1.356494 0.000000 -1.153550
v -1.312500 0.000000 -1.175240
v -1.402105 0.600000 -0.756420
v -1.500000 0.630000 -0.750000
v -1.500000 0.600000 -0.750000
v -0.756416 0.630000 -1.402110
v -0.756416 0.600000 -1.402110
v -0.775556 0.630000 -1.305890
v -0.775556 0.600000 -1.305890
v -0.807090 0.630000 -1.212990
v -0.807090 0.600000 -1.212990
v -0.850481 0.600000 -1.125000
v -0.904985 0.630000 -1.043430
v -0.904985 0.600000 -1.043430
v -0.969670 0.630000 -0.969670
v -0.969670 0.600000 -0.969670
v -1.043429 0.630000 -0.904980
v -1.043429 0.600000 -0.904980
v -1.125000 0.630000 -0.850480
v -1.125000 0.600000 -0.850480
v -1.212987 0.630000 -0.807090
v -1.212987 0.600000 -0.807090
v -1.305886 0.630000 -0.775560
v -1.305886 0.600000 -0.775560
v -1.402105 0.630000 -0.756420
v -1.153545 0.630000 -1.356490
v -1.175240 0.000000 -1.312500
v -1.137778 0.630000 -1.402940
v -1.153545 0.000000 -1.356490
v -1.128208 0.630000 -1.451050
v -1.137778 0.000000 -1.402940
v -1.128208 0.000000 -1.451050
v -0.750000 0.630000 -1.500000
v -1.125000 0.000000 -1.500000
v 1.500000 0.600000 -1.500000
v 1.500000 0.600000 1.500000
v -1.500000 0.600000 1.500000
vt -2.002560 0.630000
vt -1.953510 -0.000000
vt -1.953510 0.630000
vt 0.324760 2.812500
vt 0.297508 2.771710
vt 0.649519 2.625000
vt -0.750000 0.600000
vt -0.750000 0.300000
vt -0.375000 0.630000
vt -3.000000 0.000000
vt -0.265165 2.734830
vt -0.297508 2.771710
vt 3.000000 0.300000
vt -0.000000 0.000000
vt 3.000000 0.000000
vt 3.000000 0.300000
vt 0.000000 0.000000
vt 3.000000 0.000000
vt 0.000000 0.300000
vt -2.250000 0.300000
vt -0.220736 0.630000
vt -0.171683 0.000000
vt -0.171683 0.630000
vt -0.609797 0.630000
vt -0.560745 0.000000
vt -0.560745 0.630000
vt -0.988845 0.630000
vt -0.939792 -0.000000
vt -0.939792 0.630000
vt -1.351390 0.630000
vt -1.302340 -0.000000
vt -1.302340 0.630000
vt -1.691240 0.630000
vt -1.642180 -0.000000
vt -1.642180 0.630000
vt 0.245262 0.600000
vt 0.147157 0.630000
vt 0.147157 0.600000
vt 3.042630 0.600000
vt 2.944520 0.630000
vt 2.944520 0.600000
vt 2.991410 0.600000
vt 2.893300 0.630000
vt 2.893300 0.600000
vt 2.889840 0.600000
vt 2.791740 0.630000
vt 2.791740 0.600000
vt 2.739670 0.600000
vt 2.641570 0.630000
vt 2.641570 0.600000
vt 2.543460 0.600000
vt 2.445360 0.630000
vt 2.445360 0.600000
vt 2.304570 0.600000
vt 2.206470 0.630000
vt 2.206470 0.600000
vt 2.027090 0.600000
vt 1.928990 0.630000
vt 1.928990 0.600000
vt 1.715760 0.600000
vt 1.617660 0.630000
vt 1.617660 0.600000
vt 1.375920 0.600000
vt 1.277810 0.630000
vt 1.277810 0.600000
vt 1.013370 0.600000
vt 0.915266 0.630000
vt 0.915266 0.600000
vt 0.634323 0.600000
vt 0.536219 0.630000
vt 0.536219 0.600000
vt -2.280050 0.630000
vt -2.230990 -0.000000
vt -2.230990 0.630000
vt -2.518940 0.630000
vt -2.469880 -0.000000
vt -2.469880 0.630000
vt -2.715140 0.630000
vt -2.666090 -0.000000
vt -2.666090 0.630000
vt -2.865320 0.630000
vt -2.816260 -0.000000
vt -2.816260 0.630000
vt -2.966880 0.630000
vt -2.917830 -0.000000
vt -2.917830 0.630000
vt -3.018100 0.630000
vt -2.969050 0.000000
vt -2.969050 0.630000
vt -2.002560 -0.000000
vt 0.743584 2.902110
vt 0.750000 3.000000
vt 0.375000 3.000000
vt 0.371792 2.951050
vt 0.692910 2.712990
vt 0.724444 2.805890
vt 0.362222 2.902940
vt 0.595015 2.543430
vt 0.265165 2.734830
vt 0.456571 2.404980
vt 0.530330 2.469670
vt 0.228286 2.702490
vt 0.187500 2.675240
vt 0.287013 2.307090
vt 0.375000 2.350480
vt 0.143506 2.653550
vt 0.097895 2.256420
vt 0.194114 2.275560
vt 0.097057 2.637780
vt 0.000000 2.625000
vt -0.000000 2.250000
vt 0.048947 2.628210
vt 0.346455 2.856490
vt -3.000000 0.300000
vt -3.000000 -0.000000
vt -0.375000 -0.000000
vt -0.750000 0.630000
vt -3.000000 3.000000
vt -0.228286 2.702490
vt -0.143506 2.653550
vt -0.097057 2.637780
vt -0.000000 2.625000
vt -0.048947 2.628210
vt -0.371792 2.951050
vt -0.375000 3.000000
vt -0.362222 2.902940
vt -0.187500 2.675240
vt -0.346455 2.856490
vt -0.324760 2.812500
vt 0.000000 0.300000
vt -2.250000 0.630000
vt -2.625000 0.630000
vt -2.250000 0.600000
vt -2.625000 0.000000
vt -0.220736 0.000000
vt -0.609797 -0.000000
vt -0.988845 -0.000000
vt -1.351390 -0.000000
vt -1.691240 -0.000000
vt 0.245262 0.630000
vt 3.042630 0.630000
vt 2.991410 0.630000
vt 2.889840 0.630000
vt 2.739670 0.630000
vt 2.543460 0.630000
vt 2.304570 0.630000
vt 2.027090 0.630000
vt 1.715760 0.630000
vt 1.375920 0.630000
vt 1.013370 0.630000
vt 0.634323 0.630000
vt -2.280050 -0.000000
vt -2.518940 -0.000000
vt -2.715140 -0.000000
vt -2.865320 -0.000000
vt -2.966880 -0.000000
vt -3.018100 0.000000
vt 3.000000 0.600000
vt 0.000000 0.600000
vt 3.000000 0.600000
vt 0.000000 0.600000
vt 0.530330 2.469670
vt 0.456571 2.404980
vt 3.000000 0.000000
vt -3.000000 0.600000
vt 3.000000 3.000000
vt 0.595015 2.543430
vt 0.750000 3.000000
vt 0.743584 2.902110
vt 0.724444 2.805890
vt -0.000000 2.250000
vt 0.000000 -0.000000
vt 0.097895 2.256420
vt 0.194114 2.275560
vt 0.287013 2.307090
vt 0.692910 2.712990
vt 0.649519 2.625000
vt 0.375000 2.350480
vn -0.7071 0.0000 -0.7071
vn -0.6087 0.0000 -0.7934
vn 0.0000 1.0000 -0.0000
vn 0.0000 0.0000 -1.0000
vn -0.0000 -1.0000 -0.0000
vn 0.0000 0.0000 1.0000
vn 1.0000 0.0000 0.0000
vn -1.0000 0.0000 0.0000
vn -0.1305 0.0000 -0.9914
vn -0.0654 0.0000 -0.9979
vn -0.2588 0.0000 -0.9659
vn -0.3827 0.0000 -0.9239
vn -0.4999 0.0000 -0.8661
vn 0.1305 0.0000 0.9914
vn 0.0654 0.0000 0.9979
vn 0.9979 0.0000 0.0654
vn 0.9914 0.0000 0.1305
vn 0.9659 0.0000 0.2588
vn 0.9239 0.0000 0.3827
vn 0.8660 0.0000 0.5000
vn 0.7934 0.0000 0.6088
vn 0.7071 0.0000 0.7071
vn 0.6088 0.0000 0.7934
vn 0.5000 0.0000 0.8660
vn 0.3827 0.0000 0.9239
vn 0.2588 0.0000 0.9659
vn -0.7934 0.0000 -0.6087
vn -0.8660 0.0000 -0.5000
vn -0.9239 0.0000 -0.3827
vn -0.9659 0.0000 -0.2588
vn -0.9914 0.0000 -0.1305
vn -0.9979 0.0000 -0.0654
usemtl Stone.032
s 1
f 1/1/1 2/2/2 3/3/2
f 4/4/3 5/5/3 6/6/3
f 7/7/4 8/8/4 9/9/4
f 10/10/5 11/11/5 12/12/5
f 13/13/6 14/14/6 10/15/6
f 15/16/7 10/17/7 16/18/7
f 14/14/8 17/19/8 18/20/8
f 19/21/9 20/22/10 21/23/10
f 22/24/11 23/25/9 19/26/9
f 24/27/12 25/28/11 22/29/11
f 26/30/13 27/31/12 24/32/12
f 3/33/2 28/34/13 26/35/13
f 29/36/14 30/37/15 31/38/15
f 7/39/16 32/40/17 33/41/17
f 33/42/17 34/43/18 35/44/18
f 35/45/18 36/46/19 37/47/19
f 37/48/19 6/49/20 38/50/20
f 38/51/20 39/52/21 40/53/21
f 40/54/21 41/55/22 42/56/22
f 42/57/22 43/58/23 44/59/23
f 44/60/23 45/61/24 46/62/24
f 46/63/24 47/64/25 48/65/25
f 48/66/25 49/67/26 50/68/26
f 50/69/26 51/70/14 29/71/14
f 5/72/27 11/73/1 1/74/1
f 4/75/28 12/76/27 5/77/27
f 52/78/29 53/79/28 4/80/28
f 54/81/30 55/82/29 52/83/29
f 56/84/31 57/85/30 54/86/30
f 9/87/32 58/88/31 56/89/31
f 1/1/1 11/90/1 2/2/2
f 32/91/3 59/92/3 9/93/3
f 32/91/3 9/93/3 56/94/3
f 36/95/3 34/96/3 54/97/3
f 34/96/3 32/91/3 56/94/3
f 39/98/3 6/6/3 5/5/3
f 6/6/3 36/95/3 4/4/3
f 39/98/3 5/5/3 1/99/3
f 43/100/3 41/101/3 3/102/3
f 41/101/3 39/98/3 1/99/3
f 43/100/3 3/102/3 26/103/3
f 47/104/3 45/105/3 24/106/3
f 45/105/3 43/100/3 26/103/3
f 24/106/3 45/105/3 26/103/3
f 51/107/3 49/108/3 22/109/3
f 49/108/3 47/104/3 24/106/3
f 21/110/3 30/111/3 51/107/3
f 19/112/3 21/110/3 51/107/3
f 49/108/3 24/106/3 22/109/3
f 34/96/3 56/94/3 54/97/3
f 22/109/3 19/112/3 51/107/3
f 36/95/3 54/97/3 52/113/3
f 36/95/3 52/113/3 4/4/3
f 3/102/3 41/101/3 1/99/3
f 15/114/4 16/115/4 8/8/4
f 16/115/4 60/116/4 8/8/4
f 60/116/4 9/9/4 8/8/4
f 9/9/4 59/117/4 7/7/4
f 16/118/5 10/10/5 12/12/5
f 10/10/5 14/14/5 2/119/5
f 27/120/5 14/14/5 25/121/5
f 14/14/5 20/122/5 23/123/5
f 14/14/5 23/123/5 25/121/5
f 58/124/5 60/125/5 16/118/5
f 57/126/5 58/124/5 16/118/5
f 14/14/5 27/120/5 28/127/5
f 14/14/5 28/127/5 2/119/5
f 55/128/5 57/126/5 16/118/5
f 53/129/5 55/128/5 16/118/5
f 10/10/5 2/119/5 11/11/5
f 12/12/5 53/129/5 16/118/5
f 13/13/6 17/19/6 14/14/6
f 15/16/7 13/130/7 10/17/7
f 30/131/8 21/132/8 31/133/8
f 21/132/8 20/134/8 18/20/8
f 31/133/8 21/132/8 18/20/8
f 20/134/8 14/14/8 18/20/8
f 19/21/9 23/135/9 20/22/10
f 22/24/11 25/136/11 23/25/9
f 24/27/12 27/137/12 25/28/11
f 26/30/13 28/138/13 27/31/12
f 3/33/2 2/139/2 28/34/13
f 29/36/14 51/140/14 30/37/15
f 7/39/16 59/141/16 32/40/17
f 33/42/17 32/142/17 34/43/18
f 35/45/18 34/143/18 36/46/19
f 37/48/19 36/144/19 6/49/20
f 38/51/20 6/145/20 39/52/21
f 40/54/21 39/146/21 41/55/22
f 42/57/22 41/147/22 43/58/23
f 44/60/23 43/148/23 45/61/24
f 46/63/24 45/149/24 47/64/25
f 48/66/25 47/150/25 49/67/26
f 50/69/26 49/151/26 51/70/14
f 5/72/27 12/152/27 11/73/1
f 4/75/28 53/153/28 12/76/27
f 52/78/29 55/154/29 53/79/28
f 54/81/30 57/155/30 55/82/29
f 56/84/31 58/156/31 57/85/30
f 9/87/32 60/157/32 58/88/31
usemtl Asphalt.024
f 13/130/7 61/158/7 62/159/7
f 17/19/6 62/160/6 63/161/6
f 18/20/8 63/161/8 31/133/8
f 42/162/3 44/163/3 62/164/3
f 15/114/4 7/7/4 61/165/4
f 13/130/7 15/16/7 61/158/7
f 17/19/6 13/13/6 62/160/6
f 18/20/8 17/19/8 63/161/8
f 62/164/3 61/166/3 40/167/3
f 61/166/3 7/168/3 33/169/3
f 61/166/3 33/169/3 35/170/3
f 31/171/3 63/172/3 29/173/3
f 63/172/3 62/164/3 44/163/3
f 29/173/3 63/172/3 50/174/3
f 50/174/3 63/172/3 48/175/3
f 61/166/3 35/170/3 37/176/3
f 61/166/3 37/176/3 38/177/3
f 48/175/3 63/172/3 46/178/3
f 46/178/3 63/172/3 44/163/3
f 61/166/3 38/177/3 40/167/3
f 62/164/3 40/167/3 42/162/3
f 15/114/4 8/8/4 7/7/4
