# Blender v2.79 (sub 7) OBJ File: ''
# www.blender.org
mtllib roadTile_154.mtl
o Mesh1_Group1_Model.030
v 3.000000 0.550000 -3.000000
v 3.000000 0.550000 -2.625000
v 3.000000 0.000000 -2.625000
v 3.000000 0.000000 -3.000000
v 0.000000 1.650000 -2.625000
v 0.000000 1.650000 -3.000000
v 0.000000 0.000000 -3.000000
v 3.000000 0.000000 -0.375000
v 3.000000 0.000000 0.000000
v 0.000000 0.000000 0.000000
v 0.000000 0.000000 -0.375000
v 0.000000 0.000000 -2.625000
v 3.000000 0.550000 -0.375000
v 0.000000 1.650000 -0.375000
v 0.000000 1.650000 0.000000
v 3.000000 0.550000 0.000000
v 0.000000 1.730000 -2.625000
v 3.000000 0.630000 -2.625000
v 0.000000 1.730000 -0.375000
v 0.000000 1.730000 -0.750000
v 0.000000 1.700000 -0.750000
v 0.000000 1.400000 -0.750000
v 0.000000 1.400000 -2.250000
v 0.000000 1.700000 -2.250000
v 0.000000 1.730000 -2.250000
v 3.000000 0.630000 -2.250000
v 3.000000 0.600000 -2.250000
v 3.000000 0.300000 -2.250000
v 3.000000 0.300000 -0.750000
v 3.000000 0.600000 -0.750000
v 3.000000 0.630000 -0.750000
v 3.000000 0.630000 -0.375000
vt 2.625000 0.550000
vt 3.000000 0.000000
vt 3.000000 0.550000
vt 2.625000 -2.627290
vt 3.000000 0.568020
vt 2.625000 0.568020
vt -0.000000 0.375000
vt -0.000000 2.625000
vt -3.000000 2.625000
vt -0.000000 0.000000
vt -3.000000 0.550000
vt -3.000000 0.000000
vt -2.625000 0.000000
vt -3.000000 1.650000
vt -3.000000 0.000000
vt 0.375000 0.568020
vt 0.000000 -2.627290
vt 0.375000 -2.627290
vt -0.375000 1.650000
vt -0.000000 -0.000000
vt 0.000000 1.650000
vt 3.000000 0.550000
vt 3.000000 0.000000
vt 0.375000 0.000000
vt 0.000000 0.550000
vt 0.000000 0.000000
vt 2.625000 0.000000
vt 3.000000 -2.627290
vt -0.000000 3.000000
vt -3.000000 3.000000
vt -3.000000 0.375000
vt -3.000000 0.000000
vt -0.000000 1.650000
vt -2.625000 1.650000
vt -0.000000 0.568020
vt -0.375000 0.000000
vt 0.375000 0.550000
vt -0.000000 1.650000
vt -3.000000 0.630000
vt -3.000000 0.550000
vt -0.750000 1.400000
vt -2.250000 1.400000
vt 0.750000 0.300000
vt 2.625000 -2.599750
vt 2.250000 0.595561
vt 2.250000 -2.599750
vt 0.000000 1.700000
vt 3.000000 0.630000
vt 0.000000 1.730000
vt -0.000000 1.700000
vt -3.000000 0.630000
vt -3.000000 0.600000
vt 0.375000 0.595561
vt 0.750000 -2.599750
vt 0.750000 0.595561
vt 0.000000 1.650000
vt 3.000000 0.630000
vt 0.000000 1.730000
vt -0.000000 1.730000
vt -0.375000 1.730000
vt -0.750000 1.700000
vt -0.750000 1.730000
vt -2.250000 1.730000
vt -2.625000 1.730000
vt -2.250000 1.700000
vt 2.250000 0.300000
vt 2.625000 0.630000
vt 2.250000 0.600000
vt 2.250000 0.630000
vt 0.375000 0.630000
vt 0.750000 0.600000
vt 0.750000 0.630000
vt 2.625000 0.595561
vt 3.000000 0.600000
vt -0.000000 1.730000
vt 0.375000 -2.599750
vt 3.000000 0.550000
vt 2.250000 0.585233
vt 0.750000 -2.610080
vt 2.250000 -2.610080
vt 0.750000 0.585233
vn 1.0000 0.0000 0.0000
vn 0.3443 0.9389 0.0000
vn 0.0000 -1.0000 -0.0000
vn 0.0000 0.0000 -1.0000
vn -1.0000 0.0000 0.0000
vn 0.0000 -0.0000 1.0000
usemtl Grass.012
s 1
f 2/1/1 4/2/1 1/3/1
f 2/4/2 6/5/2 5/6/2
f 11/7/3 12/8/3 3/9/3
f 7/10/4 1/11/4 4/12/4
f 12/13/5 6/14/5 7/15/5
f 14/16/2 16/17/2 13/18/2
f 14/19/5 10/20/5 15/21/5
f 16/22/6 10/20/6 9/23/6
f 8/24/1 16/25/1 9/26/1
f 2/1/1 3/27/1 4/2/1
f 2/4/2 1/28/2 6/5/2
f 12/8/3 7/29/3 4/30/3
f 3/9/3 8/31/3 11/7/3
f 8/31/3 9/32/3 11/7/3
f 12/8/3 4/30/3 3/9/3
f 9/32/3 10/20/3 11/7/3
f 7/10/4 6/33/4 1/11/4
f 12/13/5 5/34/5 6/14/5
f 14/16/2 15/35/2 16/17/2
f 14/19/5 11/36/5 10/20/5
f 16/22/6 15/21/6 10/20/6
f 8/24/1 13/37/1 16/25/1
usemtl Stone.023
f 5/38/4 18/39/4 2/40/4
f 11/36/5 22/41/5 23/42/5
f 8/24/1 3/27/1 29/43/1
f 18/44/2 25/45/2 26/46/2
f 24/47/6 26/48/6 25/49/6
f 21/50/4 31/51/4 30/52/4
f 19/53/2 31/54/2 20/55/2
f 14/56/6 32/57/6 19/58/6
f 5/38/4 17/59/4 18/39/4
f 5/34/5 12/13/5 23/42/5
f 12/13/5 11/36/5 23/42/5
f 14/19/5 19/60/5 21/61/5
f 19/60/5 20/62/5 21/61/5
f 25/63/5 17/64/5 24/65/5
f 17/64/5 5/34/5 24/65/5
f 23/42/5 24/65/5 5/34/5
f 11/36/5 14/19/5 22/41/5
f 21/61/5 22/41/5 14/19/5
f 3/27/1 2/1/1 28/66/1
f 2/1/1 18/67/1 27/68/1
f 28/66/1 2/1/1 27/68/1
f 18/67/1 26/69/1 27/68/1
f 32/70/1 13/37/1 30/71/1
f 13/37/1 8/24/1 29/43/1
f 30/71/1 31/72/1 32/70/1
f 29/43/1 30/71/1 13/37/1
f 3/27/1 28/66/1 29/43/1
f 18/44/2 17/73/2 25/45/2
f 24/47/6 27/74/6 26/48/6
f 21/50/4 20/75/4 31/51/4
f 19/53/2 32/76/2 31/54/2
f 14/56/6 13/77/6 32/57/6
usemtl Asphalt.016
f 24/78/2 30/79/2 27/80/2
f 24/65/5 22/41/5 21/61/5
f 30/71/1 28/66/1 27/68/1
f 24/78/2 21/81/2 30/79/2
f 24/65/5 23/42/5 22/41/5
f 30/71/1 29/43/1 28/66/1
