# Blender v2.79 (sub 7) OBJ File: ''
# www.blender.org
mtllib roadTile_283.mtl
o Mesh1_Group1_Model.249
v 0.375000 0.455000 1.500000
v 1.500000 0.000000 1.500000
v 1.500000 0.455000 1.500000
v 0.375000 0.455000 -1.500000
v 1.500000 0.455000 -1.500000
v 0.375000 0.000000 -1.500000
v 1.500000 0.000000 -1.500000
v 0.375000 0.000000 1.500000
v -1.125000 0.000000 1.500000
v -1.500000 0.000000 1.500000
v -1.500000 0.000000 -1.500000
v -1.125000 0.550000 -1.500000
v -1.500000 0.550000 -1.500000
v -1.125000 0.550000 1.500000
v -1.500000 0.550000 1.500000
v -0.750000 0.000000 1.500000
v -0.750000 0.000000 -1.500000
v -1.125000 0.000000 -1.500000
v -0.750000 0.455000 1.500000
v -0.750000 0.455000 -1.500000
v -0.750000 0.630000 -1.500000
v -0.750000 0.630000 1.500000
v -1.125000 0.630000 -1.500000
v -1.125000 0.630000 1.500000
vt 1.875000 0.455000
vt 3.000000 0.000000
vt 3.000000 0.455000
vt 1.875000 3.000000
vt 3.000000 0.000000
vt 3.000000 3.000000
vt -1.875000 0.000000
vt -3.000000 0.455000
vt -3.000000 0.000000
vt 0.000000 0.455000
vt 3.000000 0.000000
vt 3.000000 0.455000
vt 1.875000 0.000000
vt 1.875000 0.000000
vt -1.875000 0.455000
vt 0.000000 0.000000
vt -0.375000 0.000000
vt -0.000000 0.000000
vt -0.000000 3.000000
vt -0.375000 0.550000
vt -0.000000 0.000000
vt -0.000000 0.550000
vt 0.375000 0.000000
vt 0.000000 3.000000
vt 0.000000 0.000000
vt 0.375000 0.000000
vt 0.000000 0.550000
vt -3.000000 0.550000
vt -3.000000 0.000000
vt -1.875000 3.000000
vt -3.000000 3.000000
vt -3.000000 0.000000
vt -1.875000 0.000000
vt -0.750000 0.000000
vt -0.750000 3.000000
vt -0.375000 3.000000
vt -0.375000 0.000000
vt 0.375000 3.000000
vt 0.375000 0.550000
vt 0.750000 0.455000
vt 0.750000 0.000000
vt 0.750000 3.000000
vt 0.750000 0.000000
vt -0.750000 0.000000
vt -0.750000 0.455000
vt -0.750000 0.630000
vt 0.750000 0.630000
vt -0.000000 0.550000
vt -3.000000 0.630000
vt -3.000000 0.550000
vt 0.375000 3.000000
vt 0.750000 0.000000
vt 0.750000 3.000000
vt 3.000000 0.630000
vt 0.000000 0.455000
vt 3.000000 0.455000
vt -0.375000 0.630000
vt 0.375000 0.630000
vt -0.000000 0.630000
vt 0.375000 0.000000
vt 0.000000 0.630000
vn 0.0000 0.0000 1.0000
vn 0.0000 1.0000 0.0000
vn 0.0000 0.0000 -1.0000
vn 1.0000 0.0000 0.0000
vn 0.0000 -1.0000 -0.0000
vn -1.0000 0.0000 0.0000
usemtl Water.042
s 1
f 1/1/1 2/2/1 3/3/1
f 4/4/2 3/5/2 5/6/2
f 6/7/3 5/8/3 7/9/3
f 3/10/4 7/11/4 5/12/4
f 1/1/1 8/13/1 2/2/1
f 4/4/2 1/14/2 3/5/2
f 6/7/3 4/15/3 5/8/3
f 3/10/4 2/16/4 7/11/4
usemtl Grass.106
f 9/17/5 10/18/5 11/19/5
f 12/20/3 11/21/3 13/22/3
f 14/23/2 13/24/2 15/25/2
f 9/26/1 15/27/1 10/18/1
f 10/18/6 13/28/6 11/29/6
f 6/30/5 7/31/5 2/32/5
f 8/33/5 16/34/5 17/35/5
f 16/34/5 9/17/5 17/35/5
f 6/30/5 2/32/5 8/33/5
f 11/19/5 18/36/5 9/17/5
f 18/36/5 17/35/5 9/17/5
f 17/35/5 6/30/5 8/33/5
f 12/20/3 18/37/3 11/21/3
f 14/23/2 12/38/2 13/24/2
f 9/26/1 14/39/1 15/27/1
f 10/18/6 15/27/6 13/28/6
usemtl Sand.006
f 8/13/1 19/40/1 16/41/1
f 1/14/2 20/42/2 19/43/2
f 4/15/3 17/44/3 20/45/3
f 8/13/1 1/1/1 19/40/1
f 1/14/2 4/4/2 20/42/2
f 4/15/3 6/7/3 17/44/3
usemtl Stone.212
f 20/45/3 12/20/3 21/46/3
f 19/40/1 22/47/1 14/39/1
f 14/48/6 23/49/6 12/50/6
f 23/51/2 22/52/2 21/53/2
f 21/54/4 19/55/4 20/56/4
f 20/45/3 17/44/3 18/37/3
f 18/37/3 12/20/3 20/45/3
f 12/20/3 23/57/3 21/46/3
f 22/47/1 24/58/1 14/39/1
f 14/39/1 9/26/1 19/40/1
f 9/26/1 16/41/1 19/40/1
f 14/48/6 24/59/6 23/49/6
f 23/51/2 24/60/2 22/52/2
f 21/54/4 22/61/4 19/55/4
