# Blender v2.79 (sub 7) OBJ File: ''
# www.blender.org
mtllib roadTile_109.mtl
o Mesh1_Group1_Model.169
v -1.500000 0.630000 1.500000
v 1.500000 0.630000 1.125000
v -1.500000 0.630000 1.125000
v -1.500000 0.000000 -0.750000
v -1.500000 0.000000 1.500000
v -1.500000 0.300000 -0.375000
v 1.500000 0.000000 1.500000
v 1.500000 0.000000 -0.750000
v 1.500000 0.300000 1.125000
v 1.500000 0.630000 -0.750000
v -1.500000 0.630000 -0.750000
v -1.500000 0.630000 -0.375000
v 1.500000 0.630000 -0.375000
v -1.500000 0.600000 -0.375000
v -0.375000 0.600000 1.125000
v 1.500000 0.630000 1.500000
v -1.500000 0.300000 1.125000
v -1.500000 0.600000 1.125000
v 1.500000 0.300000 -0.375000
v 1.500000 0.600000 -0.375000
v 1.500000 0.600000 1.125000
v 0.375000 0.600000 1.125000
v -0.375000 0.600000 -0.187500
v -0.375000 0.600000 0.187500
v 0.375000 0.600000 0.937500
v 0.375000 0.600000 0.375000
v 0.375000 0.600000 -0.187500
v 0.375000 0.600000 0.000000
v 0.375000 0.600000 0.187500
v -0.375000 0.600000 0.000000
v -0.375000 0.600000 0.750000
v -0.375000 0.600000 0.375000
v -0.375000 0.600000 0.562500
v 0.375000 0.600000 0.750000
v 0.375000 0.600000 0.562500
v -0.375000 0.600000 0.937500
vt 0.000000 -0.000000
vt 3.000000 0.375000
vt 0.000000 0.375000
vt -2.250000 0.000000
vt 0.000000 0.000000
vt -1.875000 0.300000
vt -3.000000 0.000000
vt 0.000000 2.250000
vt -3.000000 2.250000
vt -0.000000 0.000000
vt 2.250000 0.000000
vt 0.375000 0.300000
vt -3.000000 0.630000
vt -0.000000 -0.000000
vt -0.000000 0.630000
vt 3.000000 2.250000
vt 0.000000 1.875000
vt 3.000000 1.875000
vt 0.000000 0.600000
vt 3.000000 0.630000
vt 0.000000 0.630000
vt -1.125000 0.600000
vt -0.000000 0.630000
vt -3.000000 0.630000
vt 0.000000 0.630000
vt 3.000000 -0.000000
vt 3.000000 0.630000
vt 3.000000 0.000000
vt -0.375000 0.300000
vt -0.375000 0.630000
vt -0.375000 0.600000
vt -1.875000 0.630000
vt -2.250000 0.630000
vt -1.875000 0.600000
vt 2.250000 0.630000
vt 1.875000 0.300000
vt 1.875000 0.630000
vt 1.875000 0.600000
vt 0.375000 0.630000
vt -0.000000 0.630000
vt 0.375000 0.600000
vt -3.000000 0.000000
vt 0.000000 2.250000
vt 3.000000 0.600000
vt -3.000000 0.600000
vt -1.875000 0.600000
vt -0.000000 0.600000
vt 0.000000 1.875000
vt 1.125000 1.687500
vt 3.000000 1.875000
vt 0.000000 0.375000
vt 1.125000 1.312500
vt 1.125000 0.375000
vt 3.000000 0.375000
vt 1.875000 0.562500
vt 1.875000 0.375000
vt 1.875000 1.125000
vt 1.875000 1.687500
vt 1.875000 1.500000
vt 1.875000 1.312500
vt 1.125000 1.500000
vt 1.125000 0.750000
vt 1.125000 1.125000
vt 1.125000 0.937500
vt 1.875000 0.750000
vt 1.875000 0.937500
vt 1.125000 0.562500
vn 0.0000 1.0000 0.0000
vn -1.0000 0.0000 0.0000
vn 0.0000 -1.0000 -0.0000
vn 1.0000 0.0000 0.0000
vn 0.0000 0.0000 -1.0000
vn 0.0000 0.0000 1.0000
vn 0.0006 1.0000 0.0000
vn -0.0003 0.9998 0.0210
vn 0.0000 0.9998 -0.0222
vn 0.6910 -0.4633 0.5549
vn 0.0000 0.9994 -0.0345
vn -0.8268 0.3931 0.4023
vn -0.8831 0.2291 0.4094
vn -0.1621 -0.1056 0.9811
usemtl Stone.144
s 1
f 1/1/1 2/2/1 3/3/1
f 4/4/2 5/5/2 6/6/2
f 7/7/3 4/8/3 8/9/3
f 7/10/4 8/11/4 9/12/4
f 10/13/5 4/14/5 11/15/5
f 10/16/1 12/17/1 13/18/1
f 14/19/6 13/20/6 12/21/6
f 15/22/5 3/23/5 2/24/5
f 1/25/6 7/26/6 16/27/6
f 1/1/1 16/28/1 2/2/1
f 5/5/2 1/25/2 17/29/2
f 1/25/2 3/30/2 18/31/2
f 18/31/2 17/29/2 1/25/2
f 12/32/2 11/33/2 14/34/2
f 11/33/2 4/4/2 6/6/2
f 14/34/2 11/33/2 6/6/2
f 5/5/2 17/29/2 6/6/2
f 7/7/3 5/5/3 4/8/3
f 8/11/4 10/35/4 19/36/4
f 10/35/4 13/37/4 20/38/4
f 20/38/4 19/36/4 10/35/4
f 2/39/4 16/40/4 21/41/4
f 16/40/4 7/10/4 9/12/4
f 21/41/4 16/40/4 9/12/4
f 8/11/4 19/36/4 9/12/4
f 10/13/5 8/42/5 4/14/5
f 10/16/1 11/43/1 12/17/1
f 14/19/6 20/44/6 13/20/6
f 2/24/5 21/45/5 22/46/5
f 15/22/5 18/47/5 3/23/5
f 2/24/5 22/46/5 15/22/5
f 1/25/6 5/5/6 7/26/6
usemtl Asphalt.116
f 14/48/1 23/49/1 20/50/1
f 23/49/1 14/48/1 18/51/1
f 6/6/2 18/31/2 14/34/2
f 18/51/1 24/52/1 23/49/1
f 24/52/1 18/51/1 15/53/1
f 21/54/1 25/55/1 22/56/1
f 25/55/1 21/54/1 20/50/1
f 9/12/4 20/38/4 21/41/4
f 20/50/1 26/57/1 25/55/1
f 20/50/1 27/58/1 26/57/1
f 20/50/1 23/49/1 27/58/1
f 28/59/7 26/57/1 27/58/1
f 28/59/7 29/60/8 26/57/1
f 30/61/9 29/60/8 28/59/7
f 30/61/9 24/52/1 29/60/8
f 24/52/1 30/61/9 23/49/1
f 31/62/10 32/63/11 24/52/1
f 32/63/11 31/62/10 33/64/1
f 34/65/12 25/55/1 35/66/13
f 34/65/12 36/67/14 25/55/1
f 31/62/10 36/67/14 34/65/12
f 31/62/10 15/53/1 36/67/14
f 24/52/1 15/53/1 31/62/10
f 35/66/13 25/55/1 26/57/1
f 32/63/11 35/66/13 26/57/1
f 32/63/11 33/64/1 35/66/13
f 6/6/2 17/29/2 18/31/2
f 9/12/4 19/36/4 20/38/4
usemtl White
f 27/58/1 30/61/9 28/59/7
f 29/60/8 32/63/11 26/57/1
f 35/66/13 31/62/10 34/65/12
f 25/55/1 15/53/1 22/56/1
f 27/58/1 23/49/1 30/61/9
f 29/60/8 24/52/1 32/63/11
f 35/66/13 33/64/1 31/62/10
f 25/55/1 36/67/14 15/53/1
