# Blender v2.79 (sub 7) OBJ File: ''
# www.blender.org
mtllib roadTile_184.mtl
o Mesh1_Group1_Model.057
v -1.500000 1.650000 1.125000
v -1.500000 0.000000 1.500000
v -1.500000 1.650000 1.500000
v 1.500000 1.650000 1.125000
v 1.500000 1.650000 1.500000
v 1.500000 0.000000 1.125000
v 1.500000 0.000000 1.500000
v 1.500000 0.000000 -1.125000
v -1.500000 0.000000 -1.125000
v 1.500000 1.650000 -1.125000
v 1.500000 0.000000 -1.500000
v 1.500000 1.650000 -1.500000
v -1.500000 1.650000 -1.125000
v -1.500000 1.650000 -1.500000
v -1.500000 0.000000 -1.500000
v -1.500000 0.000000 1.125000
v -1.500000 0.300000 -0.750000
v 1.500000 1.730000 -1.125000
v -1.500000 1.730000 -1.125000
v -1.500000 1.730000 -0.750000
v 1.500000 1.730000 -0.750000
v 1.500000 0.300000 0.750000
v 1.500000 0.600000 -0.750000
v -1.500000 0.600000 -0.750000
v -1.500000 0.600000 0.750000
v 1.500000 1.730000 0.750000
v 1.500000 0.600000 0.750000
v -1.500000 1.730000 1.125000
v -1.500000 1.730000 0.750000
v 1.500000 1.730000 1.125000
v -1.500000 0.300000 0.750000
v 1.500000 0.300000 -0.750000
vt -0.375000 1.650000
vt 0.000000 0.000000
vt 0.000000 1.650000
vt 3.000000 0.375000
vt 0.000000 0.000000
vt 3.000000 0.000000
vt 0.375000 0.000000
vt 0.000000 1.650000
vt 0.000000 0.000000
vt -3.000000 2.625000
vt -3.000000 0.375000
vt -0.000000 2.625000
vt 2.625000 1.650000
vt 3.000000 -0.000000
vt 3.000000 1.650000
vt 0.000000 2.625000
vt 3.000000 3.000000
vt 0.000000 3.000000
vt -2.625000 0.000000
vt -3.000000 1.650000
vt -3.000000 0.000000
vt -0.000000 0.000000
vt -3.000000 1.650000
vt -3.000000 0.000000
vt 3.000000 -0.000000
vt -0.375000 0.000000
vt 0.000000 0.375000
vt 0.375000 1.650000
vt -3.000000 0.000000
vt -0.000000 0.375000
vt -0.000000 3.000000
vt -3.000000 3.000000
vt 2.625000 -0.000000
vt 3.000000 2.625000
vt -2.625000 1.650000
vt -0.000000 1.650000
vt 3.000000 1.650000
vt -2.250000 0.300000
vt -3.000000 1.730000
vt -0.000000 1.650000
vt -0.000000 1.730000
vt 3.000000 2.625000
vt 0.000000 2.250000
vt 3.000000 2.250000
vt 0.750000 0.300000
vt 3.000000 0.600000
vt 0.000000 1.730000
vt 0.000000 0.600000
vt -0.000000 0.600000
vt -3.000000 1.730000
vt -3.000000 0.600000
vt 0.000000 0.375000
vt 3.000000 0.750000
vt 0.000000 0.750000
vt 0.000000 1.730000
vt 3.000000 1.650000
vt 3.000000 1.730000
vt -2.250000 1.730000
vt -2.625000 1.730000
vt -0.750000 0.600000
vt -0.375000 1.730000
vt -0.750000 1.730000
vt -0.750000 0.300000
vt -2.250000 0.600000
vt -3.000000 1.650000
vt 0.000000 2.625000
vt 2.250000 0.600000
vt 2.625000 1.730000
vt 2.250000 1.730000
vt 2.250000 0.300000
vt 0.375000 1.730000
vt 0.750000 1.730000
vt 0.750000 0.600000
vt 3.000000 1.730000
vt -0.000000 1.730000
vt 3.000000 0.375000
vt 0.000000 1.650000
vt 0.000000 2.250000
vt 3.000000 0.750000
vt 3.000000 2.250000
vt 0.000000 0.750000
vn -1.0000 -0.0000 0.0000
vn 0.0000 1.0000 0.0000
vn 1.0000 0.0000 0.0000
vn 0.0000 -1.0000 -0.0000
vn 0.0000 0.0000 -1.0000
vn 0.0000 -0.0000 1.0000
usemtl Grass.027
s 1
f 1/1/1 2/2/1 3/3/1
f 4/4/2 3/5/2 5/6/2
f 6/7/3 5/8/3 7/9/3
f 8/10/4 6/11/4 9/12/4
f 10/13/3 11/14/3 12/15/3
f 13/16/2 12/17/2 14/18/2
f 9/19/1 14/20/1 15/21/1
f 15/22/5 12/23/5 11/24/5
f 7/25/6 3/3/6 2/2/6
f 1/1/1 16/26/1 2/2/1
f 4/4/2 1/27/2 3/5/2
f 6/7/3 4/28/3 5/8/3
f 7/29/4 2/2/4 16/30/4
f 9/12/4 15/31/4 11/32/4
f 7/29/4 16/30/4 6/11/4
f 16/30/4 9/12/4 6/11/4
f 11/32/4 8/10/4 9/12/4
f 10/13/3 8/33/3 11/14/3
f 13/16/2 10/34/2 12/17/2
f 9/19/1 13/35/1 14/20/1
f 15/22/5 14/36/5 12/23/5
f 7/25/6 5/37/6 3/3/6
usemtl Stone.046
f 9/19/1 16/26/1 17/38/1
f 18/39/5 13/40/5 19/41/5
f 18/42/2 20/43/2 21/44/2
f 6/7/3 8/33/3 22/45/3
f 23/46/6 20/47/6 24/48/6
f 25/49/5 26/50/5 27/51/5
f 28/52/2 26/53/2 29/54/2
f 28/55/6 4/56/6 30/57/6
f 20/58/1 19/59/1 13/35/1
f 16/26/1 1/1/1 25/60/1
f 1/1/1 28/61/1 29/62/1
f 16/26/1 25/60/1 31/63/1
f 29/62/1 25/60/1 1/1/1
f 20/58/1 13/35/1 24/64/1
f 13/35/1 9/19/1 24/64/1
f 17/38/1 24/64/1 9/19/1
f 16/26/1 31/63/1 17/38/1
f 18/39/5 10/65/5 13/40/5
f 18/42/2 19/66/2 20/43/2
f 8/33/3 10/13/3 23/67/3
f 10/13/3 18/68/3 21/69/3
f 8/33/3 23/67/3 32/70/3
f 21/69/3 23/67/3 10/13/3
f 30/71/3 4/28/3 26/72/3
f 4/28/3 6/7/3 27/73/3
f 27/73/3 6/7/3 22/45/3
f 27/73/3 26/72/3 4/28/3
f 8/33/3 32/70/3 22/45/3
f 23/46/6 21/74/6 20/47/6
f 25/49/5 29/75/5 26/50/5
f 28/52/2 30/76/2 26/53/2
f 28/55/6 1/77/6 4/56/6
usemtl Asphalt.035
f 24/78/2 27/79/2 23/80/2
f 17/38/1 25/60/1 24/64/1
f 22/45/3 23/67/3 27/73/3
f 24/78/2 25/81/2 27/79/2
f 17/38/1 31/63/1 25/60/1
f 22/45/3 32/70/3 23/67/3
