# Blender v2.79 (sub 7) OBJ File: ''
# www.blender.org
mtllib roadTile_151.mtl
o Mesh1_Group1_Model.255
v -1.500000 0.550000 -1.500000
v -1.500000 0.000000 1.500000
v -1.500000 1.650000 1.500000
v 1.500000 0.000000 -1.500000
v 1.500000 0.550000 -1.500000
v 1.500000 0.550000 1.500000
v 1.500000 0.000000 1.500000
v -1.500000 0.000000 -1.500000
vt -3.000000 0.550000
vt 0.000000 0.000000
vt 0.000000 1.650000
vt -3.000000 0.000000
vt -0.000000 0.550000
vt -3.000000 0.550000
vt 3.000000 -0.000000
vt 0.000000 0.550000
vt 0.000000 -0.000000
vt -3.000000 3.000000
vt -3.000000 0.000000
vt 3.000000 0.550000
vt -0.000000 0.568020
vt 0.000000 -2.627290
vt 3.000000 -2.627290
vt -3.000000 -2.627290
vt -0.000000 -2.627290
vt -3.000000 0.000000
vt -0.000000 0.000000
vt 3.000000 0.550000
vt 0.000000 3.000000
vt 3.000000 0.000000
vn -1.0000 0.0000 0.0000
vn 0.0000 0.0000 -1.0000
vn 1.0000 0.0000 0.0000
vn 0.0000 -1.0000 -0.0000
vn 0.0000 -0.0000 1.0000
vn 0.3443 0.9389 0.0000
vn 0.0000 0.9389 -0.3443
usemtl Grass.109
s 1
f 1/1/1 2/2/1 3/3/1
f 4/4/2 1/5/2 5/6/2
f 4/7/3 6/8/3 7/9/3
f 2/2/4 4/10/4 7/11/4
f 2/2/5 6/12/5 3/3/5
f 3/13/6 6/14/6 5/15/6
f 3/13/7 5/16/7 1/17/7
f 1/1/1 8/18/1 2/2/1
f 4/4/2 8/19/2 1/5/2
f 4/7/3 5/20/3 6/8/3
f 2/2/4 8/21/4 4/10/4
f 2/2/5 7/22/5 6/12/5
