# Blender v2.79 (sub 7) OBJ File: ''
# www.blender.org
mtllib roadTile_081.mtl
o Mesh1_Group1_Model.243
v 0.375000 0.455000 1.500000
v 1.500000 0.000000 1.500000
v 1.500000 0.455000 1.500000
v -0.174170 0.455000 0.174170
v -0.012460 0.455000 0.358570
v 1.500000 0.455000 -1.500000
v -1.500000 0.000000 -0.375000
v -1.500000 0.455000 -1.500000
v -1.500000 0.000000 -1.500000
v 1.500000 0.000000 -1.500000
v 0.375000 0.000000 1.500000
v -0.562500 0.455000 -0.123800
v -1.500000 0.455000 -0.375000
v -1.255263 0.455000 -0.358960
v -1.014714 0.455000 -0.311110
v 0.358960 0.455000 1.255263
v 0.123800 0.455000 0.562500
v 0.311110 0.455000 1.014714
v 0.232270 0.455000 0.782469
v -0.782469 0.455000 -0.232270
v -0.358570 0.455000 0.012460
v -1.125000 0.000000 1.500000
v -1.500000 0.550000 1.500000
v -1.500000 0.000000 1.500000
v -1.402943 0.550000 1.137778
v -1.451053 0.550000 1.128208
v -1.500000 0.550000 1.125000
v -0.750000 0.000000 1.500000
v -1.500000 0.000000 1.125000
v -1.500000 0.000000 0.750000
v -1.125000 0.550000 1.500000
v -1.128208 0.550000 1.451053
v -1.137778 0.550000 1.402943
v -1.153545 0.550000 1.356494
v -1.175240 0.550000 1.312500
v -1.202492 0.550000 1.271714
v -1.234835 0.550000 1.234835
v -1.271714 0.550000 1.202492
v -1.312500 0.550000 1.175240
v -1.356494 0.550000 1.153545
v -0.750000 0.455000 1.500000
v -0.750000 0.630000 1.500000
v -1.128208 0.630000 1.451053
v -1.137778 0.630000 1.402943
v -1.312500 0.630000 1.175240
v -1.271714 0.630000 1.202492
v -1.125000 0.630000 0.850481
v -1.500000 0.630000 0.750000
v -1.500000 0.455000 0.750000
v -1.500000 0.630000 1.125000
v -1.451053 0.630000 1.128208
v -1.402943 0.630000 1.137778
v -1.356494 0.630000 1.153545
v -1.234835 0.630000 1.234835
v -1.202492 0.630000 1.271714
v -1.175240 0.630000 1.312500
v -1.153545 0.630000 1.356494
v -1.402105 0.630000 0.756416
v -1.402105 0.455000 0.756416
v -1.305886 0.630000 0.775556
v -1.305886 0.455000 0.775556
v -1.212987 0.630000 0.807090
v -1.212987 0.455000 0.807090
v -1.125000 0.455000 0.850481
v -1.043429 0.630000 0.904985
v -1.043429 0.455000 0.904985
v -0.969670 0.630000 0.969670
v -0.969670 0.455000 0.969670
v -0.904985 0.630000 1.043429
v -0.904985 0.455000 1.043429
v -0.850481 0.630000 1.125000
v -0.850481 0.455000 1.125000
v -0.807090 0.630000 1.212987
v -0.807090 0.455000 1.212987
v -0.775556 0.630000 1.305886
v -0.775556 0.455000 1.305886
v -0.756416 0.630000 1.402105
v -0.756416 0.455000 1.402105
v -1.125000 0.630000 1.500000
vt 1.875000 0.455000
vt 3.000000 0.000000
vt 3.000000 0.455000
vt 1.325830 1.325830
vt 1.487540 1.141430
vt 3.000000 3.000000
vt -1.875000 0.000000
vt -3.000000 0.455000
vt -3.000000 0.000000
vt -0.000000 0.455000
vt -3.000000 -0.000000
vt -0.000000 -0.000000
vt 0.000000 0.000000
vt 3.000000 0.455000
vt 0.000000 0.455000
vt 1.875000 0.000000
vt 0.000000 3.000000
vt 0.937500 1.623800
vt 0.000000 1.875000
vt 0.244737 1.858960
vt 0.485286 1.811110
vt 1.875000 0.000000
vt 3.000000 0.000000
vt 1.858960 0.244737
vt 1.623800 0.937500
vt 1.811110 0.485286
vt 1.732270 0.717531
vt 0.717531 1.732270
vt 1.141430 1.487540
vt -1.875000 0.455000
vt -3.000000 0.455000
vt 3.000000 0.000000
vt -0.000000 1.875000
vt -3.000000 3.000000
vt -1.875000 0.000000
vt 0.375000 0.000000
vt 0.000000 0.550000
vt -0.000000 -0.000000
vt 0.097057 0.362222
vt 0.048947 0.371792
vt 0.000000 0.000000
vt -0.375000 0.550000
vt -0.750000 0.000000
vt -0.375000 0.000000
vt -0.000000 0.375000
vt -0.000000 0.750000
vt -3.000000 0.000000
vt -0.000000 3.000000
vt 0.375000 0.550000
vt 0.000000 0.375000
vt 0.375000 0.000000
vt 0.371792 0.048947
vt 0.362222 0.097057
vt 0.346455 0.143506
vt 0.324760 0.187500
vt 0.297508 0.228286
vt 0.265165 0.265165
vt 0.228286 0.297508
vt 0.187500 0.324760
vt 0.143506 0.346455
vt -0.375000 0.000000
vt 0.750000 0.455000
vt 0.750000 0.630000
vt 0.024526 0.550000
vt -0.024526 0.630000
vt -0.024526 0.550000
vt 0.024526 0.550000
vt -0.024526 0.630000
vt -0.024526 0.550000
vt 0.187500 0.324760
vt 0.228286 0.297508
vt 0.375000 0.649519
vt -0.750000 0.630000
vt -0.750000 0.455000
vt 0.024526 0.550000
vt -0.024526 0.630000
vt -0.024526 0.550000
vt 0.024526 0.550000
vt -0.024526 0.630000
vt -0.024526 0.550000
vt 0.024526 0.550000
vt -0.024526 0.630000
vt -0.024526 0.550000
vt 0.024526 0.550000
vt -0.024526 0.630000
vt -0.024526 0.550000
vt 0.024526 0.550000
vt -0.024526 0.630000
vt -0.024526 0.550000
vt 0.024526 0.550000
vt -0.024526 0.630000
vt -0.024526 0.550000
vt 0.024526 0.550000
vt -0.024526 0.630000
vt -0.024526 0.550000
vt 0.024526 0.550000
vt -0.024526 0.630000
vt -0.024526 0.550000
vt 0.024526 0.550000
vt -0.024526 0.630000
vt -0.024526 0.550000
vt 0.024526 0.550000
vt -0.024526 0.630000
vt -0.024526 0.550000
vt 0.049052 0.455000
vt -0.049052 0.630000
vt -0.049052 0.455000
vt 0.049052 0.455000
vt -0.049052 0.630000
vt -0.049052 0.455000
vt 0.049052 0.455000
vt -0.049052 0.630000
vt -0.049052 0.455000
vt 0.049052 0.455000
vt -0.049052 0.630000
vt -0.049052 0.455000
vt 0.049052 0.455000
vt -0.049052 0.630000
vt -0.049052 0.455000
vt 0.049052 0.455000
vt -0.049052 0.630000
vt -0.049052 0.455000
vt 0.049052 0.455000
vt -0.049052 0.630000
vt -0.049052 0.455000
vt 0.049052 0.455000
vt -0.049052 0.630000
vt -0.049052 0.455000
vt 0.049052 0.455000
vt -0.049052 0.630000
vt -0.049052 0.455000
vt 0.049052 0.455000
vt -0.049052 0.630000
vt -0.049052 0.455000
vt 0.049052 0.455000
vt -0.049052 0.630000
vt -0.049052 0.455000
vt 0.049052 0.455000
vt -0.049052 0.630000
vt -0.049052 0.455000
vt 0.375000 0.630000
vt 0.750000 0.000000
vt 0.024526 0.630000
vt 0.024526 0.630000
vt 0.097895 0.743584
vt 0.000000 0.750000
vt 0.048947 0.371792
vt 0.000000 0.375000
vt 0.287013 0.692910
vt 0.194114 0.724444
vt 0.097057 0.362222
vt 0.456571 0.595015
vt 0.265165 0.265165
vt 0.595015 0.456571
vt 0.530330 0.530330
vt 0.297508 0.228286
vt 0.324760 0.187500
vt 0.692910 0.287013
vt 0.649519 0.375000
vt 0.346455 0.143506
vt 0.743584 0.097895
vt 0.724444 0.194114
vt 0.362222 0.097057
vt 0.375000 0.000000
vt 0.750000 0.000000
vt 0.371792 0.048947
vt 0.143506 0.346455
vt -0.750000 0.000000
vt -0.375000 0.630000
vt 0.024526 0.630000
vt 0.024526 0.630000
vt 0.024526 0.630000
vt 0.024526 0.630000
vt 0.024526 0.630000
vt 0.024526 0.630000
vt 0.024526 0.630000
vt 0.024526 0.630000
vt 0.024526 0.630000
vt 0.024526 0.630000
vt 0.049052 0.630000
vt 0.049052 0.630000
vt 0.049052 0.630000
vt 0.049052 0.630000
vt 0.049052 0.630000
vt 0.049052 0.630000
vt 0.049052 0.630000
vt 0.049052 0.630000
vt 0.049052 0.630000
vt 0.049052 0.630000
vt 0.049052 0.630000
vt 0.049052 0.630000
vt 0.530330 0.530330
vt 0.456571 0.595015
vt 0.743584 0.097895
vt 0.750000 0.000000
vt 0.724444 0.194114
vt 0.692910 0.287013
vt 0.649519 0.375000
vt 0.595015 0.456571
vt 0.287013 0.692910
vt 0.194114 0.724444
vt 0.097895 0.743584
vt 0.000000 0.750000
vt 0.375000 0.649519
vn 0.0000 0.0000 1.0000
vn -0.0000 1.0000 0.0000
vn -1.0000 0.0000 0.0000
vn 0.0000 0.0000 -1.0000
vn 1.0000 0.0000 0.0000
vn -0.0000 -1.0000 -0.0000
vn -0.9979 0.0000 0.0654
vn -0.9914 0.0000 0.1305
vn -0.9659 0.0000 0.2588
vn -0.1305 0.0000 0.9914
vn -0.0654 0.0000 0.9979
vn -0.2588 0.0000 0.9659
vn -0.3827 0.0000 0.9239
vn -0.5000 0.0000 0.8660
vn -0.6088 0.0000 0.7934
vn -0.7071 0.0000 0.7071
vn -0.6088 0.0000 0.7933
vn -0.7934 0.0000 0.6088
vn -0.8660 0.0000 0.5000
vn -0.9239 0.0000 0.3827
vn 0.0654 0.0000 -0.9979
vn 0.1305 0.0000 -0.9914
vn 0.2588 0.0000 -0.9659
vn 0.3827 0.0000 -0.9239
vn 0.5000 0.0000 -0.8660
vn 0.6088 0.0000 -0.7934
vn 0.7071 0.0000 -0.7071
vn 0.7934 0.0000 -0.6088
vn 0.8660 0.0000 -0.5000
vn 0.9239 0.0000 -0.3827
vn 0.9659 0.0000 -0.2588
vn 0.9914 -0.0000 -0.1305
vn 0.9979 0.0000 -0.0654
usemtl Water.041
s 1
f 1/1/1 2/2/1 3/3/1
f 4/4/2 5/5/2 6/6/2
f 7/7/3 8/8/3 9/9/3
f 8/10/4 10/11/4 9/12/4
f 2/13/5 6/14/5 3/15/5
f 1/1/1 11/16/1 2/2/1
f 6/6/2 8/17/2 12/18/2
f 8/17/2 13/19/2 14/20/2
f 8/17/2 14/20/2 15/21/2
f 1/22/2 3/23/2 16/24/2
f 3/23/2 6/6/2 17/25/2
f 16/24/2 3/23/2 18/26/2
f 18/26/2 3/23/2 19/27/2
f 8/17/2 15/21/2 20/28/2
f 8/17/2 20/28/2 12/18/2
f 19/27/2 3/23/2 17/25/2
f 6/6/2 12/18/2 21/29/2
f 5/5/2 17/25/2 6/6/2
f 6/6/2 21/29/2 4/4/2
f 7/7/3 13/30/3 8/8/3
f 8/10/4 6/31/4 10/11/4
f 2/13/5 10/32/5 6/14/5
usemtl Grass.103
f 7/33/6 10/34/6 11/35/6
f 22/36/1 23/37/1 24/38/1
f 25/39/2 26/40/2 23/41/2
f 27/42/3 24/38/3 23/37/3
f 28/43/6 22/44/6 29/45/6
f 22/44/6 24/38/6 29/45/6
f 29/45/6 30/46/6 28/43/6
f 30/46/6 7/33/6 11/35/6
f 10/34/6 2/47/6 11/35/6
f 11/35/6 28/43/6 30/46/6
f 7/33/6 9/48/6 10/34/6
f 22/36/1 31/49/1 23/37/1
f 27/50/2 23/41/2 26/40/2
f 23/41/2 31/51/2 32/52/2
f 33/53/2 23/41/2 32/52/2
f 33/53/2 34/54/2 23/41/2
f 34/54/2 35/55/2 23/41/2
f 35/55/2 36/56/2 23/41/2
f 36/56/2 37/57/2 23/41/2
f 37/57/2 38/58/2 23/41/2
f 38/58/2 39/59/2 23/41/2
f 39/59/2 40/60/2 23/41/2
f 40/60/2 25/39/2 23/41/2
f 27/42/3 29/61/3 24/38/3
usemtl Stone.207
f 41/62/1 42/63/1 31/49/1
f 31/64/7 43/65/8 32/66/8
f 32/67/8 44/68/9 33/69/9
f 45/70/2 46/71/2 47/72/2
f 27/42/3 48/73/3 49/74/3
f 26/75/10 50/76/11 27/77/11
f 25/78/12 51/79/10 26/80/10
f 40/81/13 52/82/12 25/83/12
f 39/84/14 53/85/13 40/86/13
f 38/87/15 45/88/14 39/89/14
f 37/90/16 46/91/17 38/92/15
f 36/93/18 54/94/16 37/95/16
f 35/96/19 55/97/18 36/98/18
f 34/99/20 56/100/19 35/101/19
f 33/102/9 57/103/20 34/104/20
f 49/105/21 58/106/22 59/107/22
f 59/108/22 60/109/23 61/110/23
f 61/111/23 62/112/24 63/113/24
f 63/114/24 47/115/25 64/116/25
f 64/117/25 65/118/26 66/119/26
f 66/120/26 67/121/27 68/122/27
f 68/123/27 69/124/28 70/125/28
f 70/126/28 71/127/29 72/128/29
f 72/129/29 73/130/30 74/131/30
f 74/132/30 75/133/31 76/134/31
f 76/135/31 77/136/32 78/137/32
f 78/138/32 42/139/33 41/140/33
f 42/63/1 79/141/1 31/49/1
f 31/49/1 22/36/1 41/62/1
f 22/36/1 28/142/1 41/62/1
f 31/64/7 79/143/7 43/65/8
f 32/67/8 43/144/8 44/68/9
f 58/145/2 48/146/2 51/147/2
f 48/146/2 50/148/2 51/147/2
f 62/149/2 60/150/2 52/151/2
f 60/150/2 58/145/2 51/147/2
f 65/152/2 47/72/2 46/71/2
f 47/72/2 62/149/2 45/70/2
f 65/152/2 46/71/2 54/153/2
f 69/154/2 67/155/2 55/156/2
f 67/155/2 65/152/2 54/153/2
f 69/154/2 55/156/2 56/157/2
f 73/158/2 71/159/2 57/160/2
f 71/159/2 69/154/2 56/157/2
f 57/160/2 71/159/2 56/157/2
f 77/161/2 75/162/2 44/163/2
f 75/162/2 73/158/2 57/160/2
f 79/164/2 42/165/2 43/166/2
f 42/165/2 77/161/2 43/166/2
f 75/162/2 57/160/2 44/163/2
f 60/150/2 51/147/2 52/151/2
f 44/163/2 43/166/2 77/161/2
f 62/149/2 52/151/2 53/167/2
f 62/149/2 53/167/2 45/70/2
f 55/156/2 67/155/2 54/153/2
f 49/74/3 30/168/3 29/61/3
f 27/42/3 50/169/3 48/73/3
f 49/74/3 29/61/3 27/42/3
f 26/75/10 51/170/10 50/76/11
f 25/78/12 52/171/12 51/79/10
f 40/81/13 53/172/13 52/82/12
f 39/84/14 45/173/14 53/85/13
f 38/87/15 46/174/17 45/88/14
f 37/90/16 54/175/16 46/91/17
f 36/93/18 55/176/18 54/94/16
f 35/96/19 56/177/19 55/97/18
f 34/99/20 57/178/20 56/100/19
f 33/102/9 44/179/9 57/103/20
f 49/105/21 48/180/21 58/106/22
f 59/108/22 58/181/22 60/109/23
f 61/111/23 60/182/23 62/112/24
f 63/114/24 62/183/24 47/115/25
f 64/117/25 47/184/25 65/118/26
f 66/120/26 65/185/26 67/121/27
f 68/123/27 67/186/27 69/124/28
f 70/126/28 69/187/28 71/127/29
f 72/129/29 71/188/29 73/130/30
f 74/132/30 73/189/30 75/133/31
f 76/135/31 75/190/31 77/136/32
f 78/138/32 77/191/32 42/139/33
usemtl Sand.005
f 68/192/2 21/29/2 66/193/2
f 11/16/1 41/62/1 28/142/1
f 13/30/3 30/168/3 49/74/3
f 78/194/2 41/195/2 1/22/2
f 1/22/2 16/24/2 78/194/2
f 16/24/2 18/26/2 76/196/2
f 76/196/2 18/26/2 74/197/2
f 18/26/2 19/27/2 74/197/2
f 19/27/2 17/25/2 74/197/2
f 17/25/2 5/5/2 72/198/2
f 5/5/2 4/4/2 70/199/2
f 17/25/2 72/198/2 74/197/2
f 4/4/2 21/29/2 68/192/2
f 21/29/2 12/18/2 66/193/2
f 12/18/2 20/28/2 63/200/2
f 20/28/2 15/21/2 61/201/2
f 15/21/2 14/20/2 61/201/2
f 14/20/2 13/19/2 59/202/2
f 61/201/2 14/20/2 59/202/2
f 13/19/2 49/203/2 59/202/2
f 20/28/2 61/201/2 63/200/2
f 70/199/2 4/4/2 68/192/2
f 76/196/2 78/194/2 16/24/2
f 72/198/2 5/5/2 70/199/2
f 12/18/2 63/200/2 64/204/2
f 12/18/2 64/204/2 66/193/2
f 11/16/1 1/1/1 41/62/1
f 13/30/3 7/7/3 30/168/3
