# Blender v2.79 (sub 7) OBJ File: ''
# www.blender.org
mtllib roadTile_259.mtl
o Mesh1_Group1_Model.276
v 3.000000 1.385560 -1.741110
v 3.000000 1.410000 -1.500000
v 0.000000 1.410000 -1.500000
v 0.000000 1.385560 -1.741110
v 3.000000 1.650000 -3.000000
v 3.000000 1.385560 -1.258890
v 3.000000 1.650000 0.000000
v 3.000000 1.313220 -1.027600
v 3.000000 1.195930 -0.815525
v 3.000000 1.038460 -0.631311
v 3.000000 0.847222 -0.482450
v 3.000000 0.000000 0.000000
v 0.000000 1.650000 0.000000
v 0.000000 0.000000 0.000000
v 0.000000 0.847222 -0.482450
v 0.000000 1.038460 -0.631311
v 0.000000 1.195930 -0.815525
v 0.000000 1.313220 -1.027600
v 0.000000 1.385560 -1.258890
v 0.000000 1.650000 -3.000000
v 0.000000 0.000000 -3.000000
v 3.000000 0.000000 -3.000000
v 0.000000 0.630000 -2.625000
v 0.000000 0.300000 -2.250000
v 0.000000 0.300000 -0.750000
v 0.000000 0.630000 -0.375000
v 3.000000 0.630000 -0.375000
v 3.000000 0.300000 -0.750000
v 3.000000 0.300000 -2.250000
v 3.000000 0.600000 -2.250000
v 3.000000 0.630000 -2.625000
v 3.000000 0.847222 -2.517550
v 3.000000 1.038460 -2.368690
v 3.000000 1.139910 -2.250000
v 3.000000 1.195930 -2.184480
v 3.000000 1.275000 -2.041500
v 3.000000 1.313220 -1.972400
v 0.000000 1.313220 -1.972400
v 3.000000 1.275000 -0.958498
v 0.000000 1.275000 -0.958498
v 3.000000 1.139910 -0.750000
v 0.000000 1.139910 -0.750000
v 0.000000 1.275000 -2.041500
v 0.000000 1.195930 -2.184480
v 0.000000 1.139910 -2.250000
v 0.000000 1.038460 -2.368690
v 0.000000 0.847222 -2.517550
v 3.000000 0.630000 -2.250000
v 0.000000 0.630000 -2.250000
v 0.000000 0.600000 -2.250000
v 3.000000 0.600000 -0.750000
v 3.000000 0.630000 -0.750000
v 0.000000 0.600000 -0.750000
v 0.000000 0.630000 -0.750000
vt 3.000000 -1.350130
vt 0.000000 -1.592470
vt 3.000000 -1.592470
vt 3.000000 1.650000
vt 1.500000 1.410000
vt 1.741110 1.385560
vt 1.258890 1.385560
vt 0.000000 1.650000
vt 1.027600 1.313220
vt 0.815525 1.195930
vt 0.631311 1.038460
vt 0.482450 0.847222
vt 0.000000 -0.000000
vt 0.000000 -0.000000
vt 3.000000 1.650000
vt 0.000000 1.650000
vt -0.482450 0.847222
vt -0.631311 1.038460
vt -0.815525 1.195930
vt -1.027600 1.313220
vt -1.258890 1.385560
vt -3.000000 1.650000
vt 3.000000 3.000000
vt 0.000000 0.000000
vt 3.000000 0.000000
vt -0.000000 1.650000
vt -3.000000 -0.000000
vt -0.000000 -0.000000
vt -3.000000 -0.000000
vt -2.625000 0.630000
vt -2.250000 0.300000
vt -0.750000 0.300000
vt -0.375000 0.630000
vt -3.000000 0.730957
vt -0.000000 0.973302
vt -3.000000 0.973302
vt 0.375000 0.630000
vt 0.750000 0.300000
vt 3.000000 -0.000000
vt 0.000000 3.000000
vt -3.000000 0.000000
vt 2.250000 0.300000
vt 2.250000 0.600000
vt 2.625000 0.630000
vt 2.517550 0.847222
vt 2.368690 1.038460
vt 2.250000 1.139910
vt 2.184480 1.195930
vt 2.041500 1.275000
vt 1.972400 1.313220
vt 3.000000 -1.248150
vt 0.000000 -1.490490
vt 3.000000 -1.490490
vt -1.741110 1.385560
vt -1.972400 1.313220
vt -1.500000 1.410000
vt -3.000000 1.392230
vt 0.000000 1.634570
vt -3.000000 1.634570
vt -3.000000 1.372740
vt 0.000000 1.615080
vt -3.000000 1.615080
vt -3.000000 1.455840
vt -0.000000 1.534800
vt -3.000000 1.534800
vt 0.958498 1.275000
vt -3.000000 1.292450
vt -0.000000 1.455840
vt -3.000000 1.310780
vt -0.000000 1.396980
vt -3.000000 1.396980
vt 0.750000 1.139910
vt -3.000000 1.154640
vt -0.000000 1.310780
vt -3.000000 0.964897
vt -0.000000 1.207240
vt -3.000000 1.207240
vt -0.750000 1.139910
vt -0.958498 1.275000
vt -2.041500 1.275000
vt -2.184480 1.195930
vt -2.250000 1.139910
vt -2.368690 1.038460
vt -2.517550 0.847222
vt 3.000000 -0.356823
vt 0.000000 -0.599168
vt 3.000000 -0.599168
vt 3.000000 -0.635520
vt 0.000000 -0.877864
vt 3.000000 -0.877864
vt 3.000000 -0.969623
vt 0.000000 -1.125770
vt 3.000000 -1.125770
vt 3.000000 -0.883421
vt 0.000000 -0.969623
vt 3.000000 -1.169400
vt 0.000000 -1.332780
vt 3.000000 -1.332780
vt 3.000000 -1.090440
vt 0.000000 -1.169400
vt 3.000000 2.625000
vt 0.000000 2.250000
vt 3.000000 2.250000
vt 2.250000 0.630000
vt 3.000000 0.629997
vt 0.000000 0.599997
vt 3.000000 0.599997
vt -2.250000 0.600000
vt -2.250000 0.630000
vt 0.750000 0.600000
vt 0.750000 0.630000
vt -3.000000 0.599999
vt -0.000000 0.629999
vt -3.000000 0.629999
vt -0.750000 0.630000
vt -0.750000 0.600000
vt 3.000000 0.750000
vt 0.000000 0.375000
vt 3.000000 0.375000
vt 0.000000 -1.350130
vt 3.000000 -0.000000
vt -0.000000 3.000000
vt -3.000000 1.650000
vt -0.000000 0.730957
vt -3.000000 3.000000
vt 0.000000 -1.248150
vt 0.000000 1.392230
vt 0.000000 1.372740
vt -0.000000 1.292450
vt -0.000000 1.154640
vt -0.000000 0.964897
vt 0.000000 -0.356823
vt 0.000000 -0.635520
vt 0.000000 -0.883421
vt 0.000000 -1.090440
vt 0.000000 2.625000
vt 0.000000 0.629997
vt -0.000000 0.599999
vt 0.000000 0.750000
vt 3.000000 2.250000
vt 0.000000 0.750000
vt 3.000000 0.750000
vt 0.000000 2.250000
vn 0.0000 -1.0000 -0.0000
vn 0.0000 -0.9797 0.2007
vn 1.0000 -0.0000 0.0000
vn 0.0000 -0.0000 1.0000
vn -1.0000 0.0000 0.0000
vn 0.0000 1.0000 0.0000
vn 0.0000 0.0000 -1.0000
vn 0.0000 -0.4434 -0.8963
vn 0.0000 -0.5315 -0.8470
vn 0.0000 -0.9194 0.3933
vn 0.0000 -0.9797 -0.2007
vn 0.0000 -0.9194 -0.3933
vn 0.0000 -0.8751 -0.4840
vn 0.0000 -0.8218 -0.5698
vn 0.0000 -0.7601 -0.6498
vn 0.0000 -0.6907 -0.7231
vn 0.0000 -0.5315 0.8470
vn 0.0000 -0.4434 0.8963
vn 0.0000 -0.6907 0.7231
vn 0.0000 -0.7601 0.6498
vn 0.0000 -0.8218 0.5698
vn 0.0000 -0.8751 0.4840
vn 0.9950 0.0000 -0.0998
usemtl Stone.234
s 1
f 2/1/1 4/2/2 1/3/2
f 5/4/3 2/5/3 1/6/3
f 5/4/3 6/7/3 2/5/3
f 7/8/3 6/7/3 5/4/3
f 6/7/3 7/8/3 8/9/3
f 8/9/3 7/8/3 9/10/3
f 9/10/3 7/8/3 10/11/3
f 10/11/3 7/8/3 11/12/3
f 11/12/3 7/8/3 12/13/3
f 14/14/4 7/15/4 13/16/4
f 13/16/5 15/17/5 14/14/5
f 15/17/5 13/16/5 16/18/5
f 16/18/5 13/16/5 17/19/5
f 17/19/5 13/16/5 18/20/5
f 18/20/5 13/16/5 19/21/5
f 19/21/5 13/16/5 20/22/5
f 5/23/6 13/24/6 7/25/6
f 20/26/7 22/27/7 21/28/7
f 21/29/5 23/30/5 20/22/5
f 21/29/5 24/31/5 23/30/5
f 21/29/5 25/32/5 24/31/5
f 14/14/5 25/32/5 21/29/5
f 25/32/5 14/14/5 26/33/5
f 14/14/5 15/17/5 26/33/5
f 27/34/8 15/35/9 11/36/9
f 11/12/3 12/13/3 27/37/3
f 12/13/3 28/38/3 27/37/3
f 28/38/3 12/13/3 22/39/3
f 21/40/1 12/41/1 14/14/1
f 28/38/3 22/39/3 29/42/3
f 29/42/3 22/39/3 30/43/3
f 30/43/3 22/39/3 31/44/3
f 5/4/3 31/44/3 22/39/3
f 5/4/3 32/45/3 31/44/3
f 5/4/3 33/46/3 32/45/3
f 5/4/3 34/47/3 33/46/3
f 5/4/3 35/48/3 34/47/3
f 5/4/3 36/49/3 35/48/3
f 5/4/3 37/50/3 36/49/3
f 5/4/3 1/6/3 37/50/3
f 1/51/2 38/52/10 37/53/10
f 4/54/5 20/22/5 38/55/5
f 3/56/5 20/22/5 4/54/5
f 19/21/5 20/22/5 3/56/5
f 6/57/11 3/58/1 2/59/1
f 8/60/12 19/61/11 6/62/11
f 39/63/13 18/64/12 8/65/12
f 8/9/3 9/10/3 39/66/3
f 9/67/14 40/68/13 39/63/13
f 41/69/15 17/70/14 9/71/14
f 9/10/3 10/11/3 41/72/3
f 10/73/16 42/74/15 41/69/15
f 11/75/9 16/76/16 10/77/16
f 16/18/5 17/19/5 42/78/5
f 17/19/5 18/20/5 40/79/5
f 38/55/5 20/22/5 43/80/5
f 43/80/5 20/22/5 44/81/5
f 44/81/5 20/22/5 45/82/5
f 45/82/5 20/22/5 46/83/5
f 46/83/5 20/22/5 47/84/5
f 47/84/5 20/22/5 23/30/5
f 32/85/17 23/86/18 31/87/18
f 33/88/19 47/89/17 32/90/17
f 34/91/20 46/92/19 33/93/19
f 35/94/21 45/95/20 34/91/20
f 36/96/22 44/97/21 35/98/21
f 37/99/10 43/100/22 36/96/22
f 31/101/6 49/102/6 48/103/6
f 31/44/3 48/104/3 30/43/3
f 48/105/4 50/106/4 30/107/4
f 23/30/5 50/108/5 49/109/5
f 50/108/5 23/30/5 24/31/5
f 51/110/23 52/111/3 28/38/3
f 51/112/7 54/113/7 52/114/7
f 25/32/5 54/115/5 53/116/5
f 25/32/5 26/33/5 54/115/5
f 52/117/6 26/118/6 27/119/6
f 27/37/3 28/38/3 52/111/3
f 2/1/1 3/120/1 4/2/2
f 14/14/4 12/121/4 7/15/4
f 5/23/6 20/122/6 13/24/6
f 20/26/7 5/123/7 22/27/7
f 27/34/8 26/124/8 15/35/9
f 21/40/1 22/125/1 12/41/1
f 1/51/2 4/126/2 38/52/10
f 6/57/11 19/127/11 3/58/1
f 8/60/12 18/128/12 19/61/11
f 39/63/13 40/68/13 18/64/12
f 9/67/14 17/129/14 40/68/13
f 41/69/15 42/74/15 17/70/14
f 10/73/16 16/130/16 42/74/15
f 11/75/9 15/131/9 16/76/16
f 32/85/17 47/132/17 23/86/18
f 33/88/19 46/133/19 47/89/17
f 34/91/20 45/95/20 46/92/19
f 35/94/21 44/134/21 45/95/20
f 36/96/22 43/100/22 44/97/21
f 37/99/10 38/135/10 43/100/22
f 31/101/6 23/136/6 49/102/6
f 48/105/4 49/137/4 50/106/4
f 51/112/7 53/138/7 54/113/7
f 52/117/6 54/139/6 26/118/6
usemtl Asphalt.190
f 50/108/5 25/32/5 53/116/5
f 30/140/6 53/141/6 51/142/6
f 51/110/23 29/42/3 30/43/3
f 50/108/5 24/31/5 25/32/5
f 30/140/6 50/143/6 53/141/6
f 51/110/23 28/38/3 29/42/3
