# Blender v2.79 (sub 7) OBJ File: ''
# www.blender.org
mtllib roadTile_003.mtl
o Mesh1_Group1_Model.117
v -1.500000 0.000000 1.500000
v 1.500000 0.630000 1.500000
v -1.500000 1.730000 1.500000
v -1.500000 1.730000 -1.500000
v -1.500000 0.000000 -1.500000
v 1.500000 0.000000 -1.500000
v 1.500000 0.000000 1.500000
v 1.500000 0.630000 -1.500000
vt 0.000000 -0.000000
vt 3.000000 0.630000
vt 0.000000 1.730000
vt -3.000000 1.730000
vt -3.000000 -0.000000
vt -3.000000 3.000000
vt -3.000000 0.000000
vt -3.000000 0.630000
vt -0.000000 -0.000000
vt -0.000000 1.730000
vt 3.000000 -0.000000
vt 0.000000 0.630000
vt 0.000000 -0.000000
vt -0.000000 0.595561
vt 3.000000 -2.599750
vt 3.000000 0.595561
vt 3.000000 -0.000000
vt -0.000000 3.000000
vt -3.000000 -0.000000
vt 3.000000 0.630000
vt 0.000000 -2.599750
vn 0.0000 -0.0000 1.0000
vn -1.0000 0.0000 0.0000
vn 0.0000 -1.0000 -0.0000
vn 0.0000 0.0000 -1.0000
vn 1.0000 0.0000 0.0000
vn 0.3443 0.9389 0.0000
usemtl Stone.096
s 1
f 1/1/1 2/2/1 3/3/1
f 1/1/2 4/4/2 5/5/2
f 1/1/3 6/6/3 7/7/3
f 8/8/4 5/9/4 4/10/4
f 6/11/5 2/12/5 7/13/5
f 3/14/6 8/15/6 4/16/6
f 1/1/1 7/17/1 2/2/1
f 1/1/2 3/3/2 4/4/2
f 1/1/3 5/18/3 6/6/3
f 8/8/4 6/19/4 5/9/4
f 6/11/5 8/20/5 2/12/5
f 3/14/6 2/21/6 8/15/6
