# Blender v2.79 (sub 7) OBJ File: ''
# www.blender.org
mtllib roadTile_113.mtl
o Mesh1_Group1_Model.096
v -1.500000 0.300000 1.500000
v 1.500000 0.600000 1.500000
v -1.500000 0.600000 1.500000
v -1.500000 0.600000 -0.750000
v -0.750000 0.600000 -0.750000
v -0.750000 0.300000 -1.500000
v 1.500000 0.600000 -1.500000
v 1.500000 0.300000 -1.500000
v 1.500000 0.300000 1.500000
v -1.500000 0.300000 -0.750000
v -0.750000 0.600000 -1.500000
v -1.125000 0.630000 -1.500000
v -1.500000 0.000000 1.500000
v -1.500000 0.000000 -1.125000
v -1.125000 0.000000 -1.125000
v 1.500000 0.000000 1.500000
v 1.500000 0.000000 -1.500000
v -1.125000 0.630000 -1.125000
v -1.500000 0.630000 -1.125000
v -0.750000 0.630000 -1.500000
v -1.500000 0.630000 -0.750000
v -0.750000 0.630000 -0.750000
v -1.125000 0.000000 -1.500000
vt 0.000000 0.300000
vt 3.000000 0.600000
vt 0.000000 0.600000
vt -2.250000 0.600000
vt 0.750000 2.250000
vt 0.000000 0.000000
vt 3.000000 0.000000
vt -0.750000 0.300000
vt -3.000000 0.600000
vt -3.000000 0.300000
vt 0.000000 0.300000
vt 3.000000 0.600000
vt 0.000000 0.600000
vt 3.000000 0.300000
vt -2.250000 0.300000
vt 3.000000 3.000000
vt 0.750000 3.000000
vt 0.000000 2.250000
vt -0.750000 0.600000
vt 3.000000 0.300000
vt -0.375000 0.630000
vt 0.000000 0.000000
vt -0.000000 2.625000
vt -0.375000 2.625000
vt 0.000000 0.000000
vt 3.000000 0.000000
vt 3.000000 0.000000
vt -0.375000 0.630000
vt -0.000000 0.000000
vt -0.000000 0.630000
vt 0.750000 3.000000
vt 0.375000 3.000000
vt 0.375000 2.625000
vt 0.750000 0.600000
vt -0.000000 0.630000
vt -0.000000 0.600000
vt 3.000000 0.600000
vt 2.250000 0.630000
vt 2.250000 0.600000
vt -3.000000 0.630000
vt -2.625000 0.000000
vt -2.625000 0.630000
vt -3.000000 0.000000
vt -0.375000 0.000000
vt -0.750000 0.630000
vt -0.375000 3.000000
vt -3.000000 3.000000
vt -3.000000 -0.000000
vt -2.250000 0.630000
vt -2.625000 0.630000
vt -2.625000 0.000000
vt -0.375000 0.000000
vt 0.000000 2.625000
vt 0.000000 2.250000
vt 0.750000 2.250000
vt 0.750000 0.630000
vt 3.000000 0.630000
vt -3.000000 0.000000
vn 0.0000 0.0000 1.0000
vn -1.0000 0.0000 0.0000
vn 0.0000 1.0000 0.0000
vn 0.0000 0.0000 -1.0000
vn 1.0000 0.0000 0.0000
vn 0.0000 -1.0000 -0.0000
usemtl Asphalt.060
s 1
f 1/1/1 2/2/1 3/3/1
f 4/4/2 1/1/2 3/3/2
f 5/5/3 3/6/3 2/7/3
f 6/8/4 7/9/4 8/10/4
f 9/11/5 7/12/5 2/13/5
f 1/1/1 9/14/1 2/2/1
f 4/4/2 10/15/2 1/1/2
f 2/7/3 7/16/3 5/5/3
f 7/16/3 11/17/3 5/5/3
f 5/5/3 4/18/3 3/6/3
f 6/8/4 11/19/4 7/9/4
f 9/11/5 8/20/5 7/12/5
usemtl Stone.077
f 11/19/4 6/8/4 12/21/4
f 13/22/6 14/23/6 15/24/6
f 8/20/5 16/25/5 17/26/5
f 1/1/1 16/27/1 9/14/1
f 13/22/2 1/1/2 10/15/2
f 18/28/4 14/29/4 19/30/4
f 20/31/3 12/32/3 18/33/3
f 5/34/1 21/35/1 4/36/1
f 11/37/5 22/38/5 5/39/5
f 12/40/2 15/41/2 18/42/2
f 8/10/4 17/43/4 6/8/4
f 17/43/4 23/44/4 6/8/4
f 23/44/4 12/21/4 6/8/4
f 12/21/4 20/45/4 11/19/4
f 23/46/6 17/47/6 15/24/6
f 17/47/6 16/48/6 15/24/6
f 16/48/6 13/22/6 15/24/6
f 8/20/5 9/11/5 16/25/5
f 1/1/1 13/22/1 16/27/1
f 21/49/2 19/50/2 4/4/2
f 19/50/2 14/51/2 10/15/2
f 4/4/2 19/50/2 10/15/2
f 14/51/2 13/22/2 10/15/2
f 18/28/4 15/52/4 14/29/4
f 19/53/3 21/54/3 18/33/3
f 21/54/3 22/55/3 18/33/3
f 22/55/3 20/31/3 18/33/3
f 5/34/1 22/56/1 21/35/1
f 11/37/5 20/57/5 22/38/5
f 12/40/2 23/58/2 15/41/2
