# Blender v2.79 (sub 7) OBJ File: ''
# www.blender.org
mtllib roadTile_058.mtl
o Mesh1_Group1_Model.091
v 3.000000 0.300000 0.000000
v 0.000000 0.300000 0.000000
v 0.000000 0.000000 0.000000
v 3.000000 0.000000 0.000000
v 0.000000 0.300000 -3.000000
v 0.000000 0.000000 -3.000000
v 3.000000 0.000000 -3.000000
v 3.000000 0.300000 -3.000000
v 0.000000 0.600000 -3.000000
v 0.000000 0.600000 0.000000
v 3.000000 0.600000 -3.000000
v 3.000000 0.600000 0.000000
vt 0.000000 0.300000
vt 3.000000 0.000000
vt 3.000000 0.300000
vt -3.000000 0.000000
vt -0.000000 0.000000
vt 3.000000 0.300000
vt 0.000000 0.000000
vt 3.000000 0.000000
vt 0.000000 0.300000
vt -3.000000 0.000000
vt 0.000000 0.000000
vt -3.000000 0.000000
vt -0.000000 3.000000
vt -3.000000 3.000000
vt -3.000000 0.300000
vt 0.000000 0.300000
vt -3.000000 0.300000
vt 0.000000 0.000000
vt 118.110001 118.110001
vt 0.000000 118.110001
vt 118.110001 0.000000
vt -0.000000 0.600000
vt -3.000000 0.600000
vt 0.000000 0.600000
vt 0.000000 0.000000
vt 3.000000 3.000000
vt 0.000000 3.000000
vt 3.000000 0.600000
vt 3.000000 0.600000
vt 0.000000 0.600000
vt -3.000000 0.600000
vt 3.000000 -0.000000
vn 0.0000 -0.0000 1.0000
vn -1.0000 0.0000 0.0000
vn 1.0000 0.0000 0.0000
vn 0.0000 0.0000 -1.0000
vn 0.0000 -1.0000 -0.0000
vn 0.0000 1.0000 0.0000
usemtl Stone.072
s 1
f 2/1/1 4/2/1 1/3/1
f 2/1/2 6/4/2 3/5/2
f 8/6/3 4/7/3 7/8/3
f 5/9/4 7/10/4 6/11/4
f 4/12/5 6/13/5 7/14/5
f 2/1/1 3/5/1 4/2/1
f 2/1/2 5/15/2 6/4/2
f 8/6/3 1/16/3 4/7/3
f 5/9/4 8/17/4 7/10/4
f 4/12/5 3/5/5 6/13/5
usemtl FrontColor.003
f 2/18/6 8/19/6 5/20/6
f 2/18/6 1/21/6 8/19/6
usemtl Asphalt.057
f 5/15/2 10/22/2 9/23/2
f 9/24/4 8/17/4 5/9/4
f 10/25/6 11/26/6 9/27/6
f 2/1/1 12/28/1 10/22/1
f 1/16/3 11/29/3 12/30/3
f 5/15/2 2/1/2 10/22/2
f 9/24/4 11/31/4 8/17/4
f 10/25/6 12/32/6 11/26/6
f 2/1/1 1/3/1 12/28/1
f 1/16/3 8/6/3 11/29/3
