# Blender v2.79 (sub 7) OBJ File: ''
# www.blender.org
mtllib roadTile_026.mtl
o Mesh1_Group1_Model.036
v 1.500000 0.600000 -0.750000
v 0.000000 0.630000 -0.750000
v 0.000000 0.600000 -0.750000
v -0.194110 0.600000 0.724444
v 0.000000 0.630000 0.749999
v 0.000000 0.600000 0.749999
v -0.375000 0.600000 0.649519
v -0.194110 0.630000 0.724444
v -0.530330 0.600000 0.530330
v -0.375000 0.630000 0.649519
v -0.649519 0.600000 0.375000
v -0.530330 0.630000 0.530330
v -0.724444 0.600000 0.194110
v -0.649519 0.630000 0.375000
v -0.750000 0.600000 0.000000
v -0.724444 0.630000 0.194110
v -0.724444 0.600000 -0.194110
v -0.750000 0.630000 0.000000
v -0.649519 0.600000 -0.375000
v -0.724444 0.630000 -0.194110
v -0.530330 0.600000 -0.530330
v -0.649519 0.630000 -0.375000
v -0.375000 0.600000 -0.649520
v -0.530330 0.630000 -0.530330
v -0.194110 0.600000 -0.724440
v -0.375000 0.630000 -0.649520
v -0.194110 0.630000 -0.724440
v -1.125082 0.630000 -0.000080
v 1.500000 0.000000 1.125000
v 1.500000 0.000000 -1.125000
v 1.500000 0.300000 0.749999
v 0.000000 0.630000 -1.125160
v -0.291190 0.550000 -1.086830
v -0.291190 0.630000 -1.086830
v 1.500000 0.630000 -1.125000
v 0.000000 0.550000 -1.125160
v -0.562541 0.550000 -0.974430
v -0.562541 0.630000 -0.974430
v -0.795553 0.550000 -0.795640
v -0.795553 0.630000 -0.795640
v -0.974350 0.550000 -0.562620
v -0.974350 0.630000 -0.562620
v -1.086746 0.550000 -0.291280
v -1.086746 0.630000 -0.291280
v -1.125082 0.550000 -0.000080
v -1.086746 0.550000 0.291110
v -1.086746 0.630000 0.291110
v -0.974350 0.550000 0.562459
v -0.974350 0.630000 0.562459
v -0.795553 0.550000 0.795471
v -0.795553 0.630000 0.795471
v -0.562541 0.550000 0.974267
v -0.562541 0.630000 0.974267
v -0.291190 0.550000 1.086663
v -0.291190 0.630000 1.086663
v 0.000000 0.550000 1.125000
v 0.000000 0.630000 1.125000
v 1.500000 0.550000 1.125000
v 1.500000 0.630000 1.125000
v 1.500000 0.630000 0.749999
v 1.500000 0.600000 0.749999
v 1.500000 0.630000 -0.750000
v 1.500000 0.550000 -1.125000
v 1.500000 0.300000 -0.750000
v -1.500000 0.000000 -1.500000
v 1.500000 0.000000 -1.500000
v 1.500000 0.550000 1.500000
v 1.500000 0.000000 1.500000
v -1.500000 0.550000 -1.500000
v -1.500000 0.550000 1.500000
v 1.500000 0.550000 -1.500000
v -1.500000 0.000000 1.500000
vt 3.000000 0.600000
vt 1.500000 0.630000
vt 1.500000 0.600000
vt -1.193480 0.600000
vt -1.389270 0.630000
vt -1.389270 0.600000
vt -0.713899 0.600000
vt -0.909689 0.630000
vt -0.909689 0.600000
vt -0.178993 0.600000
vt -0.374782 0.630000
vt -0.374782 0.600000
vt 0.374783 0.600000
vt 0.178994 0.630000
vt 0.178994 0.600000
vt 0.909689 0.600000
vt 0.713900 0.630000
vt 0.713900 0.600000
vt 1.389270 0.600000
vt 1.193480 0.630000
vt 1.193480 0.600000
vt 1.780850 0.600000
vt 1.585060 0.630000
vt 1.585060 0.600000
vt 2.057740 0.600000
vt 1.861950 0.630000
vt 1.861950 0.600000
vt 2.201070 0.600000
vt 2.005280 0.630000
vt 2.005280 0.600000
vt 2.201070 0.600000
vt 2.005280 0.630000
vt 2.005280 0.600000
vt 2.057740 0.600000
vt 1.861950 0.630000
vt 1.861950 0.600000
vt 1.780850 0.600000
vt 1.585060 0.630000
vt 1.585060 0.600000
vt 0.374918 1.500080
vt 0.750000 1.500000
vt 0.775556 1.694110
vt 0.375000 -0.000000
vt 2.625000 -0.000000
vt 0.750001 0.300000
vt -1.829820 0.630000
vt -1.536110 0.550000
vt -1.536110 0.630000
vt -2.999710 0.630000
vt -1.499710 0.550000
vt -1.499710 0.630000
vt -2.106730 0.630000
vt -1.813020 0.550000
vt -1.813020 0.630000
vt -2.250080 0.630000
vt -1.956370 0.550000
vt -1.956370 0.630000
vt -2.250090 0.630000
vt -1.956380 0.550000
vt -1.956380 0.630000
vt -2.106770 0.630000
vt -1.813070 0.550000
vt -1.813070 0.630000
vt -1.829890 0.630000
vt -1.536190 0.550000
vt -1.536190 0.630000
vt -1.438310 0.630000
vt -1.144610 0.550000
vt -1.144610 0.630000
vt -0.958723 0.630000
vt -0.665018 0.550000
vt -0.665018 0.630000
vt -0.423806 0.630000
vt -0.130101 0.550000
vt -0.130101 0.630000
vt 0.129985 0.630000
vt 0.423690 0.550000
vt 0.423690 0.630000
vt 0.664910 0.630000
vt 0.958615 0.550000
vt 0.958615 0.630000
vt 1.144510 0.630000
vt 1.438220 0.550000
vt 1.438220 0.630000
vt 1.500000 0.630000
vt 3.000000 0.550000
vt 3.000000 0.630000
vt -1.500000 0.600000
vt -3.000000 0.630000
vt -3.000000 0.600000
vt 3.000000 0.630000
vt -1.193480 0.630000
vt -0.713899 0.630000
vt -0.178993 0.630000
vt 0.374783 0.630000
vt 0.909689 0.630000
vt 1.389270 0.630000
vt 1.780850 0.630000
vt 2.057740 0.630000
vt 2.201070 0.630000
vt 2.201070 0.630000
vt 2.057740 0.630000
vt 1.780850 0.630000
vt 1.500000 2.250000
vt 3.000000 2.250000
vt 3.000000 2.625000
vt 1.500000 2.625160
vt 1.208810 2.586830
vt 0.937459 2.474430
vt 1.305890 2.224440
vt 0.704447 2.295640
vt 1.125000 2.149520
vt 0.969670 2.030330
vt 0.525650 2.062620
vt 0.413254 1.791280
vt 0.850481 1.875000
vt 0.413254 1.208890
vt 0.775556 1.305890
vt 0.525650 0.937541
vt 0.704447 0.704529
vt 0.850481 1.125000
vt 0.937459 0.525733
vt 0.969670 0.969670
vt 1.208810 0.413337
vt 1.125000 0.850481
vt 1.305890 0.775556
vt 1.500000 0.375000
vt 3.000000 0.375000
vt 1.500000 0.750001
vt 3.000000 0.750001
vt 2.625000 0.550000
vt 2.250000 0.300000
vt 2.625000 0.630000
vt 2.250000 0.600000
vt 2.250000 0.630000
vt 0.375000 0.630000
vt 0.375000 0.550000
vt 0.750001 0.600000
vt 0.750001 0.630000
vt -1.829820 0.550000
vt -2.999710 0.550000
vt -2.106730 0.550000
vt -2.250080 0.550000
vt -2.250090 0.550000
vt -2.106770 0.550000
vt -1.829890 0.550000
vt -1.438310 0.550000
vt -0.958723 0.550000
vt -0.423806 0.550000
vt 0.129985 0.550000
vt 0.664910 0.550000
vt 1.144510 0.550000
vt 1.500000 0.550000
vt -1.500000 0.630000
vt 0.969670 0.969670
vt 1.500000 0.750001
vt 1.305890 2.224440
vt 1.125000 0.850481
vt 1.305890 0.775556
vt 3.000000 0.750001
vt 3.000000 2.250000
vt 1.500000 2.250000
vt 1.125000 2.149520
vt 0.969670 2.030330
vt 0.850481 1.875000
vt 0.775556 1.694110
vt 0.750000 1.500000
vt 0.775556 1.305890
vt 0.850481 1.125000
vt -0.000000 3.000000
vt -3.000000 3.000000
vt -3.000000 2.625000
vt 0.000000 0.550000
vt 0.000000 -0.000000
vt 0.000000 3.000000
vt -0.000000 0.000000
vt 0.374918 1.500080
vt 3.000000 0.000000
vt 3.000000 0.550000
vt 0.000000 0.000000
vt -3.000000 0.550000
vt -3.000000 0.000000
vt -0.000000 0.000000
vt -3.000000 0.550000
vt -3.000000 0.000000
vt 3.000000 -0.000000
vt -0.000000 0.550000
vt -3.000000 0.375000
vt -3.000000 0.000000
vt 1.500000 2.625160
vt 3.000000 2.625000
vt 3.000000 3.000000
vt 3.000000 -0.000000
vt 1.500000 0.375000
vt 3.000000 0.375000
vt 1.208810 2.586830
vt 1.208810 0.413337
vt 0.937459 0.525733
vt 0.937459 2.474430
vt 0.704447 2.295640
vt 0.704447 0.704529
vt 0.525650 0.937541
vt 0.525650 2.062620
vt 0.413254 1.791280
vt 0.413254 1.208890
vt 0.000000 0.550000
vt 3.000000 0.550000
vn 0.0000 0.0000 1.0000
vn 0.0654 0.0000 0.9979
vn 0.2588 0.0000 -0.9659
vn 0.0654 0.0000 -0.9979
vn 0.5000 0.0000 -0.8660
vn 0.7071 0.0000 -0.7071
vn 0.8660 0.0000 -0.5000
vn 0.9659 0.0000 -0.2588
vn 1.0000 0.0000 -0.0000
vn 0.9659 0.0000 0.2588
vn 0.8660 0.0000 0.5000
vn 0.7071 0.0000 0.7071
vn 0.5000 0.0000 0.8660
vn 0.2588 0.0000 0.9659
vn 0.0000 1.0000 -0.0000
vn -0.0653 0.0000 -0.9979
vn -0.2588 0.0000 -0.9659
vn 0.0001 0.0000 -1.0000
vn -0.5000 0.0000 -0.8660
vn -0.7071 0.0000 -0.7071
vn -0.8660 0.0000 -0.5000
vn -0.9659 0.0000 -0.2588
vn -1.0000 0.0000 0.0000
vn -0.9659 0.0000 0.2588
vn -0.8660 0.0000 0.5000
vn -0.7071 0.0000 0.7071
vn -0.5000 0.0000 0.8660
vn -0.2588 0.0000 0.9659
vn -0.0654 0.0000 0.9979
vn 0.0000 0.0000 -1.0000
vn 0.0000 -1.0000 -0.0000
usemtl Stone.029
s 1
f 1/1/1 2/2/2 3/3/2
f 4/4/3 5/5/4 6/6/4
f 7/7/5 8/8/3 4/9/3
f 9/10/6 10/11/5 7/12/5
f 11/13/7 12/14/6 9/15/6
f 13/16/8 14/17/7 11/18/7
f 15/19/9 16/20/8 13/21/8
f 17/22/10 18/23/9 15/24/9
f 19/25/11 20/26/10 17/27/10
f 21/28/12 22/29/11 19/30/11
f 23/31/13 24/32/12 21/33/12
f 25/34/14 26/35/13 23/36/13
f 3/37/2 27/38/14 25/39/14
f 28/40/15 18/41/15 20/42/15
f 29/43/9 30/44/9 31/45/9
f 32/46/16 33/47/17 34/48/17
f 35/49/18 36/50/16 32/51/16
f 34/52/17 37/53/19 38/54/19
f 38/55/19 39/56/20 40/57/20
f 40/58/20 41/59/21 42/60/21
f 42/61/21 43/62/22 44/63/22
f 44/64/22 45/65/23 28/66/23
f 28/67/23 46/68/24 47/69/24
f 47/70/24 48/71/25 49/72/25
f 49/73/25 50/74/26 51/75/26
f 51/76/26 52/77/27 53/78/27
f 53/79/27 54/80/28 55/81/28
f 55/82/28 56/83/29 57/84/29
f 57/85/29 58/86/1 59/87/1
f 6/88/4 60/89/30 61/90/30
f 1/1/1 62/91/1 2/2/2
f 4/4/3 8/92/3 5/5/4
f 7/7/5 10/93/5 8/8/3
f 9/10/6 12/94/6 10/11/5
f 11/13/7 14/95/7 12/14/6
f 13/16/8 16/96/8 14/17/7
f 15/19/9 18/97/9 16/20/8
f 17/22/10 20/98/10 18/23/9
f 19/25/11 22/99/11 20/26/10
f 21/28/12 24/100/12 22/29/11
f 23/31/13 26/101/13 24/32/12
f 25/34/14 27/102/14 26/35/13
f 3/37/2 2/103/2 27/38/14
f 2/104/15 62/105/15 35/106/15
f 35/106/15 32/107/15 2/104/15
f 32/107/15 34/108/15 2/104/15
f 34/108/15 38/109/15 27/110/15
f 38/109/15 40/111/15 26/112/15
f 26/112/15 40/111/15 24/113/15
f 40/111/15 42/114/15 24/113/15
f 42/114/15 44/115/15 22/116/15
f 24/113/15 42/114/15 22/116/15
f 44/115/15 28/40/15 20/42/15
f 28/40/15 47/117/15 18/41/15
f 18/41/15 47/117/15 16/118/15
f 47/117/15 49/119/15 16/118/15
f 49/119/15 51/120/15 14/121/15
f 51/120/15 53/122/15 12/123/15
f 53/122/15 55/124/15 10/125/15
f 10/125/15 55/124/15 8/126/15
f 55/124/15 57/127/15 8/126/15
f 57/127/15 59/128/15 5/129/15
f 8/126/15 57/127/15 5/129/15
f 59/128/15 60/130/15 5/129/15
f 49/119/15 14/121/15 16/118/15
f 27/110/15 2/104/15 34/108/15
f 53/122/15 10/125/15 12/123/15
f 26/112/15 27/110/15 38/109/15
f 51/120/15 12/123/15 14/121/15
f 20/42/15 22/116/15 44/115/15
f 30/44/9 63/131/9 64/132/9
f 63/131/9 35/133/9 1/134/9
f 64/132/9 63/131/9 1/134/9
f 35/133/9 62/135/9 1/134/9
f 59/136/9 58/137/9 61/138/9
f 58/137/9 29/43/9 31/45/9
f 61/138/9 60/139/9 59/136/9
f 31/45/9 61/138/9 58/137/9
f 30/44/9 64/132/9 31/45/9
f 32/46/16 36/140/16 33/47/17
f 35/49/18 63/141/18 36/50/16
f 34/52/17 33/142/17 37/53/19
f 38/55/19 37/143/19 39/56/20
f 40/58/20 39/144/20 41/59/21
f 42/61/21 41/145/21 43/62/22
f 44/64/22 43/146/22 45/65/23
f 28/67/23 45/147/23 46/68/24
f 47/70/24 46/148/24 48/71/25
f 49/73/25 48/149/25 50/74/26
f 51/76/26 50/150/26 52/77/27
f 53/79/27 52/151/27 54/80/28
f 55/82/28 54/152/28 56/83/29
f 57/85/29 56/153/29 58/86/1
f 6/88/4 5/154/4 60/89/30
usemtl Asphalt.021
f 9/155/15 6/156/15 25/157/15
f 31/45/9 1/134/9 61/138/9
f 7/158/15 4/159/15 9/155/15
f 4/159/15 6/156/15 9/155/15
f 6/156/15 61/160/15 1/161/15
f 1/161/15 3/162/15 6/156/15
f 3/162/15 25/157/15 6/156/15
f 25/157/15 23/163/15 21/164/15
f 21/164/15 19/165/15 25/157/15
f 19/165/15 17/166/15 25/157/15
f 17/166/15 15/167/15 13/168/15
f 13/168/15 11/169/15 9/155/15
f 17/166/15 13/168/15 25/157/15
f 13/168/15 9/155/15 25/157/15
f 31/45/9 64/132/9 1/134/9
usemtl Grass.014
f 65/170/31 66/171/31 30/172/31
f 29/43/9 67/173/9 68/174/9
f 69/175/15 70/176/15 45/177/15
f 63/131/9 66/178/9 71/179/9
f 65/180/30 71/181/30 66/182/30
f 72/183/23 69/184/23 65/185/23
f 68/186/1 70/187/1 72/183/1
f 30/172/31 29/188/31 65/170/31
f 29/188/31 68/189/31 72/183/31
f 65/170/31 29/188/31 72/183/31
f 29/43/9 58/137/9 67/173/9
f 36/190/15 63/191/15 71/192/15
f 70/176/15 67/193/15 56/194/15
f 67/193/15 58/195/15 56/194/15
f 36/190/15 71/192/15 69/175/15
f 33/196/15 36/190/15 69/175/15
f 70/176/15 56/194/15 54/197/15
f 70/176/15 54/197/15 52/198/15
f 37/199/15 33/196/15 69/175/15
f 39/200/15 37/199/15 69/175/15
f 70/176/15 52/198/15 50/201/15
f 70/176/15 50/201/15 48/202/15
f 41/203/15 39/200/15 69/175/15
f 43/204/15 41/203/15 69/175/15
f 70/176/15 48/202/15 46/205/15
f 45/177/15 43/204/15 69/175/15
f 70/176/15 46/205/15 45/177/15
f 63/131/9 30/44/9 66/178/9
f 65/180/30 69/206/30 71/181/30
f 72/183/23 70/187/23 69/184/23
f 68/186/1 67/207/1 70/187/1
