# Blender v2.79 (sub 7) OBJ File: ''
# www.blender.org
mtllib roadTile_244.mtl
o Mesh1_Group1_Model.239
v 3.000000 0.000000 -0.750000
v 3.000000 0.000000 -2.250000
v 3.000000 0.455000 -2.250000
v 3.000000 0.455000 -0.750000
v 2.902110 0.455000 -0.743584
v 2.902110 0.455000 -2.256420
v 2.805890 0.455000 -2.275560
v 2.712990 0.455000 -2.307090
v 2.625000 0.455000 -2.350480
v 2.543430 0.455000 -2.404980
v 2.469670 0.455000 -2.469670
v 2.404980 0.455000 -2.543430
v 2.350480 0.455000 -2.625000
v 2.307090 0.455000 -2.712990
v 2.275560 0.455000 -2.805890
v 2.256420 0.455000 -2.902110
v 2.250000 0.455000 -3.000000
v 0.750000 0.455000 -3.000000
v 0.750000 0.455000 0.000000
v 2.250000 0.455000 0.000000
v 2.256420 0.455000 -0.097895
v 2.275560 0.455000 -0.194114
v 2.307090 0.455000 -0.287013
v 2.350480 0.455000 -0.375000
v 2.404980 0.455000 -0.456571
v 2.469670 0.455000 -0.530330
v 2.543430 0.455000 -0.595015
v 2.625000 0.455000 -0.649519
v 2.712990 0.455000 -0.692910
v 2.805890 0.455000 -0.724444
v 0.750000 0.000000 0.000000
v 2.250000 0.000000 0.000000
v 2.250000 0.000000 -3.000000
v 0.750000 0.000000 -3.000000
v 0.375000 0.000000 0.000000
v 0.000000 0.000000 0.000000
v 0.000000 0.000000 -3.000000
v 0.375000 0.000000 -3.000000
v 2.625000 0.000000 -3.000000
v 3.000000 0.000000 -3.000000
v 3.000000 0.000000 -2.625000
v 3.000000 0.000000 -0.375000
v 3.000000 0.000000 0.000000
v 2.625000 0.000000 0.000000
v 0.375000 0.550000 0.000000
v 0.000000 0.550000 0.000000
v 0.375000 0.550000 -3.000000
v 0.000000 0.550000 -3.000000
v 3.000000 0.550000 0.000000
v 2.625000 0.550000 0.000000
v 3.000000 0.550000 -0.375000
v 2.951050 0.550000 -0.371792
v 2.902940 0.550000 -0.362222
v 2.856490 0.550000 -0.346455
v 2.812500 0.550000 -0.324760
v 2.771710 0.550000 -0.297508
v 2.734830 0.550000 -0.265165
v 2.702490 0.550000 -0.228286
v 2.675240 0.550000 -0.187500
v 2.653550 0.550000 -0.143506
v 2.637780 0.550000 -0.097057
v 2.628210 0.550000 -0.048947
v 3.000000 0.550000 -3.000000
v 3.000000 0.550000 -2.625000
v 2.625000 0.550000 -3.000000
v 2.628210 0.550000 -2.951050
v 2.637780 0.550000 -2.902940
v 2.653550 0.550000 -2.856490
v 2.675240 0.550000 -2.812500
v 2.702490 0.550000 -2.771710
v 2.734830 0.550000 -2.734830
v 2.771710 0.550000 -2.702490
v 2.812500 0.550000 -2.675240
v 2.856490 0.550000 -2.653550
v 2.902940 0.550000 -2.637780
v 2.951050 0.550000 -2.628210
v 0.375000 0.630000 0.000000
v 0.750000 0.630000 0.000000
v 0.375000 0.630000 -3.000000
v 0.750000 0.630000 -3.000000
v 2.902110 0.630000 -0.743584
v 3.000000 0.630000 -0.750000
v 2.805890 0.630000 -0.724444
v 2.712990 0.630000 -0.692910
v 2.625000 0.630000 -0.649519
v 2.543430 0.630000 -0.595015
v 2.469670 0.630000 -0.530330
v 2.404980 0.630000 -0.456571
v 2.350480 0.630000 -0.375000
v 2.307090 0.630000 -0.287013
v 2.275560 0.630000 -0.194114
v 2.256420 0.630000 -0.097895
v 2.250000 0.630000 0.000000
v 2.625000 0.630000 0.000000
v 3.000000 0.630000 -0.375000
v 2.951050 0.630000 -0.371792
v 2.628210 0.630000 -0.048947
v 2.637780 0.630000 -0.097057
v 2.653550 0.630000 -0.143506
v 2.675240 0.630000 -0.187500
v 2.702490 0.630000 -0.228286
v 2.734830 0.630000 -0.265165
v 2.771710 0.630000 -0.297508
v 2.812500 0.630000 -0.324760
v 2.856490 0.630000 -0.346455
v 2.902940 0.630000 -0.362222
v 3.000000 0.630000 -2.250000
v 2.902110 0.630000 -2.256420
v 3.000000 0.630000 -2.625000
v 2.625000 0.630000 -3.000000
v 2.250000 0.630000 -3.000000
v 2.628210 0.630000 -2.951050
v 2.951050 0.630000 -2.628210
v 2.902940 0.630000 -2.637780
v 2.856490 0.630000 -2.653550
v 2.812500 0.630000 -2.675240
v 2.771710 0.630000 -2.702490
v 2.734830 0.630000 -2.734830
v 2.702490 0.630000 -2.771710
v 2.675240 0.630000 -2.812500
v 2.653550 0.630000 -2.856490
v 2.637780 0.630000 -2.902940
v 2.256420 0.630000 -2.902110
v 2.275560 0.630000 -2.805890
v 2.307090 0.630000 -2.712990
v 2.350480 0.630000 -2.625000
v 2.404980 0.630000 -2.543430
v 2.469670 0.630000 -2.469670
v 2.543430 0.630000 -2.404980
v 2.625000 0.630000 -2.350480
v 2.712990 0.630000 -2.307090
v 2.805890 0.630000 -2.275560
vt 2.250000 0.000000
vt 0.750000 0.455000
vt 0.750000 0.000000
vt 2.275560 2.805890
vt 2.256420 2.902110
vt 0.750000 3.000000
vt 2.250000 0.000000
vt 0.750000 0.455000
vt 0.750000 0.000000
vt -0.750000 0.000000
vt -2.250000 0.455000
vt -2.250000 0.000000
vt 2.250000 0.455000
vt 2.902110 0.743584
vt 3.000000 0.750000
vt 3.000000 2.250000
vt 2.902110 2.256420
vt 2.805890 0.724444
vt 2.805890 2.275560
vt 2.712990 0.692910
vt 2.712990 2.307090
vt 2.625000 0.649519
vt 2.625000 2.350480
vt 2.543430 0.595015
vt 2.543430 2.404980
vt 2.469670 0.530330
vt 2.469670 2.469670
vt 2.404980 0.456571
vt 2.404980 2.543430
vt 2.350480 0.375000
vt 0.750000 0.000000
vt 2.350480 2.625000
vt 2.307090 0.287013
vt 2.307090 2.712990
vt 2.275560 0.194114
vt 2.250000 0.000000
vt 2.256420 0.097895
vt 2.250000 3.000000
vt 2.250000 0.455000
vt -0.750000 0.455000
vt -3.000000 0.750000
vt -3.000000 0.375000
vt -2.625000 0.000000
vt 0.375000 0.000000
vt 0.000000 0.550000
vt 0.000000 0.000000
vt 0.375000 0.000000
vt 0.000000 3.000000
vt 0.000000 0.000000
vt -0.375000 0.550000
vt -0.000000 0.000000
vt -0.000000 0.550000
vt 2.625000 0.550000
vt 3.000000 -0.000000
vt 3.000000 0.550000
vt 2.637780 0.097057
vt 2.628210 0.048947
vt 3.000000 0.000000
vt 0.375000 -0.000000
vt 0.000000 0.550000
vt 0.000000 -0.000000
vt 2.625000 0.550000
vt 3.000000 0.000000
vt 3.000000 0.550000
vt 2.902940 2.637780
vt 2.951050 2.628210
vt 3.000000 3.000000
vt -2.625000 0.000000
vt -3.000000 0.550000
vt -3.000000 0.000000
vt -3.000000 0.550000
vt -3.000000 0.000000
vt -0.750000 0.000000
vt -0.375000 0.000000
vt -0.750000 3.000000
vt -0.375000 3.000000
vt -0.000000 3.000000
vt -2.250000 3.000000
vt -2.625000 3.000000
vt -3.000000 2.250000
vt -2.250000 0.000000
vt -3.000000 3.000000
vt -3.000000 2.625000
vt -3.000000 0.000000
vt 0.375000 0.550000
vt 0.375000 3.000000
vt -0.375000 0.000000
vt 2.625000 0.000000
vt 2.625000 0.000000
vt 3.000000 0.375000
vt 2.951050 0.371792
vt 2.902940 0.362222
vt 2.856490 0.346455
vt 2.812500 0.324760
vt 2.771710 0.297508
vt 2.734830 0.265165
vt 2.702490 0.228286
vt 2.675240 0.187500
vt 2.653550 0.143506
vt 0.375000 0.550000
vt 2.625000 0.000000
vt 3.000000 2.625000
vt 2.625000 3.000000
vt 2.628210 2.951050
vt 2.637780 2.902940
vt 2.653550 2.856490
vt 2.675240 2.812500
vt 2.702490 2.771710
vt 2.734830 2.734830
vt 2.771710 2.702490
vt 2.812500 2.675240
vt 2.856490 2.653550
vt -2.625000 0.550000
vt 0.750000 0.630000
vt -0.000000 0.550000
vt -3.000000 0.630000
vt -3.000000 0.550000
vt -0.750000 0.630000
vt 0.375000 3.000000
vt 0.750000 0.000000
vt 0.750000 3.000000
vt 3.000000 0.630000
vt 0.000000 0.455000
vt 3.000000 0.455000
vt -2.944520 0.630000
vt -3.042630 0.455000
vt -2.944520 0.455000
vt -2.893300 0.630000
vt -2.991410 0.455000
vt -2.893300 0.455000
vt -2.791740 0.630000
vt -2.889840 0.455000
vt -2.791740 0.455000
vt -2.641570 0.630000
vt -2.739670 0.455000
vt -2.641570 0.455000
vt -2.445360 0.630000
vt -2.543460 0.455000
vt -2.445360 0.455000
vt -2.206470 0.630000
vt -2.304570 0.455000
vt -2.206470 0.455000
vt -1.928990 0.630000
vt -2.027090 0.455000
vt -1.928990 0.455000
vt -1.617660 0.630000
vt -1.715760 0.455000
vt -1.617660 0.455000
vt -1.277810 0.630000
vt -1.375920 0.455000
vt -1.277810 0.455000
vt -0.915266 0.630000
vt -1.013370 0.455000
vt -0.915266 0.455000
vt -0.536219 0.630000
vt -0.634323 0.455000
vt -0.536219 0.455000
vt -0.147157 0.630000
vt -0.245262 0.455000
vt -0.147157 0.455000
vt 2.250000 0.630000
vt 0.750000 0.630000
vt 3.018100 0.550000
vt 2.969050 0.630000
vt 2.969050 0.550000
vt 2.675240 0.187500
vt 2.702490 0.228286
vt 2.350480 0.375000
vt 0.220736 0.550000
vt 0.171683 0.630000
vt 0.171683 0.550000
vt 0.609797 0.550000
vt 0.560745 0.630000
vt 0.560745 0.550000
vt 0.988845 0.550000
vt 0.939792 0.630000
vt 0.939792 0.550000
vt 1.351390 0.550000
vt 1.302340 0.630000
vt 1.302340 0.550000
vt 1.691240 0.550000
vt 1.642180 0.630000
vt 1.642180 0.550000
vt 2.002560 0.550000
vt 1.953510 0.630000
vt 1.953510 0.550000
vt 2.280050 0.550000
vt 2.230990 0.630000
vt 2.230990 0.550000
vt 2.518940 0.550000
vt 2.469880 0.630000
vt 2.469880 0.550000
vt 2.715140 0.550000
vt 2.666090 0.630000
vt 2.666090 0.550000
vt 2.865320 0.550000
vt 2.816260 0.630000
vt 2.816260 0.550000
vt 2.966880 0.550000
vt 2.917830 0.630000
vt 2.917830 0.550000
vt 2.846420 0.630000
vt 2.748320 0.455000
vt 2.846420 0.455000
vt 2.250000 0.630000
vt -2.250000 0.630000
vt 2.821890 0.550000
vt 2.772840 0.630000
vt 2.772840 0.550000
vt 2.812500 2.675240
vt 2.771710 2.702490
vt 2.625000 2.350480
vt -2.772840 0.550000
vt -2.821890 0.630000
vt -2.821890 0.550000
vt -2.332560 0.550000
vt -2.381610 0.630000
vt -2.381610 0.550000
vt -1.851950 0.550000
vt -1.901000 0.630000
vt -1.901000 0.550000
vt -1.339230 0.550000
vt -1.388280 0.630000
vt -1.388280 0.550000
vt -0.803172 0.550000
vt -0.852224 0.630000
vt -0.852224 0.550000
vt -0.252956 0.550000
vt -0.302008 0.630000
vt -0.302008 0.550000
vt 0.302008 0.550000
vt 0.252956 0.630000
vt 0.252956 0.550000
vt 0.852224 0.550000
vt 0.803172 0.630000
vt 0.803172 0.550000
vt 1.388280 0.550000
vt 1.339230 0.630000
vt 1.339230 0.550000
vt 1.901000 0.550000
vt 1.851950 0.630000
vt 1.851950 0.550000
vt 2.381610 0.550000
vt 2.332560 0.630000
vt 2.332560 0.550000
vt -2.748320 0.630000
vt -2.846420 0.455000
vt -2.748320 0.455000
vt -2.308030 0.630000
vt -2.406140 0.455000
vt -2.308030 0.455000
vt -1.827420 0.630000
vt -1.925520 0.455000
vt -1.827420 0.455000
vt -1.314700 0.630000
vt -1.412800 0.455000
vt -1.314700 0.455000
vt -0.778646 0.630000
vt -0.876750 0.455000
vt -0.778646 0.455000
vt -0.228430 0.630000
vt -0.326534 0.455000
vt -0.228430 0.455000
vt 0.326534 0.630000
vt 0.228430 0.455000
vt 0.326534 0.455000
vt 0.876750 0.630000
vt 0.778646 0.455000
vt 0.876750 0.455000
vt 1.412800 0.630000
vt 1.314700 0.455000
vt 1.412800 0.455000
vt 1.925520 0.630000
vt 1.827420 0.455000
vt 1.925520 0.455000
vt 2.406140 0.630000
vt 2.308030 0.455000
vt 2.406140 0.455000
vt 0.375000 0.630000
vt -0.000000 0.630000
vt -0.375000 0.630000
vt 0.375000 0.000000
vt 0.000000 0.630000
vt -3.042630 0.630000
vt -2.991410 0.630000
vt -2.889840 0.630000
vt -2.739670 0.630000
vt -2.543460 0.630000
vt -2.304570 0.630000
vt -2.027090 0.630000
vt -1.715760 0.630000
vt -1.375920 0.630000
vt -1.013370 0.630000
vt -0.634323 0.630000
vt -0.245262 0.630000
vt 2.625000 0.630000
vt 0.375000 0.630000
vt 3.018100 0.630000
vt 2.256420 0.097895
vt 2.250000 0.000000
vt 2.625000 0.000000
vt 2.628210 0.048947
vt 2.307090 0.287013
vt 2.275560 0.194114
vt 2.637780 0.097057
vt 2.404980 0.456571
vt 2.734830 0.265165
vt 2.543430 0.595015
vt 2.469670 0.530330
vt 2.771710 0.297508
vt 2.812500 0.324760
vt 2.712990 0.692910
vt 2.625000 0.649519
vt 2.856490 0.346455
vt 2.902110 0.743584
vt 2.805890 0.724444
vt 2.902940 0.362222
vt 3.000000 0.375000
vt 3.000000 0.750000
vt 2.951050 0.371792
vt 2.653550 0.143506
vt 0.220736 0.630000
vt 0.609797 0.630000
vt 0.988845 0.630000
vt 1.351390 0.630000
vt 1.691240 0.630000
vt 2.002560 0.630000
vt 2.280050 0.630000
vt 2.518940 0.630000
vt 2.715140 0.630000
vt 2.865320 0.630000
vt 2.966880 0.630000
vt 2.748320 0.630000
vt 2.625000 0.630000
vt -2.625000 0.630000
vt 2.821890 0.630000
vt 2.902110 2.256420
vt 3.000000 2.250000
vt 3.000000 2.625000
vt 2.951050 2.628210
vt 2.712990 2.307090
vt 2.805890 2.275560
vt 2.902940 2.637780
vt 2.543430 2.404980
vt 2.734830 2.734830
vt 2.404980 2.543430
vt 2.469670 2.469670
vt 2.702490 2.771710
vt 2.675240 2.812500
vt 2.307090 2.712990
vt 2.350480 2.625000
vt 2.653550 2.856490
vt 2.256420 2.902110
vt 2.275560 2.805890
vt 2.637780 2.902940
vt 2.625000 3.000000
vt 2.250000 3.000000
vt 2.628210 2.951050
vt 2.856490 2.653550
vt -2.772840 0.630000
vt -2.332560 0.630000
vt -1.851950 0.630000
vt -1.339230 0.630000
vt -0.803172 0.630000
vt -0.252956 0.630000
vt 0.302008 0.630000
vt 0.852224 0.630000
vt 1.388280 0.630000
vt 1.901000 0.630000
vt 2.381610 0.630000
vt -2.846420 0.630000
vt -2.406140 0.630000
vt -1.925520 0.630000
vt -1.412800 0.630000
vt -0.876750 0.630000
vt -0.326534 0.630000
vt 0.228430 0.630000
vt 0.778646 0.630000
vt 1.314700 0.630000
vt 1.827420 0.630000
vt 2.308030 0.630000
vn 1.0000 0.0000 0.0000
vn 0.0000 1.0000 0.0000
vn 0.0000 -0.0000 1.0000
vn 0.0000 0.0000 -1.0000
vn 0.0000 -1.0000 -0.0000
vn -1.0000 0.0000 0.0000
vn -0.1305 0.0000 -0.9914
vn -0.0654 0.0000 -0.9979
vn -0.2588 0.0000 -0.9659
vn -0.3827 0.0000 -0.9239
vn -0.5000 0.0000 -0.8660
vn -0.6088 0.0000 -0.7934
vn -0.7071 0.0000 -0.7071
vn -0.7934 0.0000 -0.6088
vn -0.8660 0.0000 -0.5000
vn -0.9239 0.0000 -0.3827
vn -0.9659 -0.0000 -0.2588
vn -0.9914 -0.0000 -0.1305
vn -0.9979 -0.0000 -0.0654
vn 0.0654 0.0000 0.9979
vn 0.1305 0.0000 0.9914
vn 0.9914 0.0000 0.1305
vn 0.9979 -0.0000 0.0654
vn 0.9659 0.0000 0.2588
vn 0.9239 -0.0000 0.3827
vn 0.8661 0.0000 0.4999
vn 0.7934 0.0000 0.6087
vn 0.7071 0.0000 0.7071
vn 0.6087 0.0000 0.7934
vn 0.5000 0.0000 0.8660
vn 0.3827 0.0000 0.9239
vn 0.2588 0.0000 0.9659
vn -0.0654 0.0000 0.9979
vn -0.1305 0.0000 0.9914
vn 0.9979 0.0000 -0.0654
vn 0.9914 0.0000 -0.1305
vn 0.1305 0.0000 -0.9914
vn 0.0654 0.0000 -0.9979
vn 0.2588 0.0000 -0.9659
vn 0.3827 0.0000 -0.9239
vn 0.4999 0.0000 -0.8661
vn 0.6087 0.0000 -0.7934
vn 0.7071 0.0000 -0.7071
vn 0.7934 0.0000 -0.6087
vn 0.8661 0.0000 -0.4999
vn 0.9239 0.0000 -0.3827
vn 0.9659 0.0000 -0.2588
vn -0.9914 0.0000 0.1305
vn -0.9979 0.0000 0.0654
vn -0.9659 0.0000 0.2588
vn -0.9239 0.0000 0.3827
vn -0.8660 0.0000 0.5000
vn -0.7934 0.0000 0.6088
vn -0.7071 0.0000 0.7071
vn -0.6088 0.0000 0.7934
vn -0.5000 0.0000 0.8660
vn -0.3827 0.0000 0.9239
vn -0.2588 0.0000 0.9659
usemtl Water.040
s 1
f 2/1/1 4/2/1 1/3/1
f 15/4/2 16/5/2 18/6/2
f 32/7/3 19/8/3 31/9/3
f 34/10/4 17/11/4 33/12/4
f 2/1/1 3/13/1 4/2/1
f 5/14/2 4/15/2 3/16/2
f 5/14/2 3/16/2 6/17/2
f 30/18/2 5/14/2 6/17/2
f 30/18/2 6/17/2 7/19/2
f 29/20/2 30/18/2 8/21/2
f 30/18/2 7/19/2 8/21/2
f 28/22/2 29/20/2 9/23/2
f 29/20/2 8/21/2 9/23/2
f 27/24/2 28/22/2 10/25/2
f 28/22/2 9/23/2 10/25/2
f 26/26/2 27/24/2 10/25/2
f 26/26/2 10/25/2 11/27/2
f 25/28/2 26/26/2 11/27/2
f 25/28/2 11/27/2 12/29/2
f 24/30/2 25/28/2 19/31/2
f 25/28/2 12/29/2 18/6/2
f 25/28/2 18/6/2 19/31/2
f 12/29/2 13/32/2 18/6/2
f 23/33/2 24/30/2 19/31/2
f 13/32/2 14/34/2 18/6/2
f 22/35/2 23/33/2 19/31/2
f 14/34/2 15/4/2 18/6/2
f 19/31/2 20/36/2 21/37/2
f 21/37/2 22/35/2 19/31/2
f 16/5/2 17/38/2 18/6/2
f 32/7/3 20/39/3 19/8/3
f 34/10/4 18/40/4 17/11/4
usemtl Grass.102
f 1/41/5 42/42/5 44/43/5
f 35/44/3 46/45/3 36/46/3
f 45/47/2 48/48/2 46/49/2
f 47/50/4 37/51/4 48/52/4
f 50/53/3 43/54/3 49/55/3
f 61/56/2 62/57/2 49/58/2
f 42/59/1 49/60/1 43/61/1
f 64/62/1 40/63/1 63/64/1
f 75/65/2 76/66/2 63/67/2
f 39/68/4 63/69/4 40/70/4
f 36/46/6 48/71/6 37/72/6
f 31/73/5 35/74/5 34/75/5
f 35/74/5 36/46/5 38/76/5
f 34/75/5 35/74/5 38/76/5
f 36/46/5 37/77/5 38/76/5
f 34/75/5 33/78/5 31/73/5
f 33/78/5 39/79/5 2/80/5
f 31/73/5 33/78/5 32/81/5
f 44/43/5 32/81/5 1/41/5
f 1/41/5 33/78/5 2/80/5
f 39/79/5 40/82/5 41/83/5
f 32/81/5 33/78/5 1/41/5
f 42/42/5 43/84/5 44/43/5
f 39/79/5 41/83/5 2/80/5
f 35/44/3 45/85/3 46/45/3
f 45/47/2 47/86/2 48/48/2
f 47/50/4 38/87/4 37/51/4
f 50/53/3 44/88/3 43/54/3
f 50/89/2 49/58/2 62/57/2
f 49/58/2 51/90/2 52/91/2
f 53/92/2 49/58/2 52/91/2
f 53/92/2 54/93/2 49/58/2
f 54/93/2 55/94/2 49/58/2
f 55/94/2 56/95/2 49/58/2
f 56/95/2 57/96/2 49/58/2
f 57/96/2 58/97/2 49/58/2
f 58/97/2 59/98/2 49/58/2
f 59/98/2 60/99/2 49/58/2
f 60/99/2 61/56/2 49/58/2
f 42/59/1 51/100/1 49/60/1
f 64/62/1 41/101/1 40/63/1
f 64/102/2 63/67/2 76/66/2
f 63/67/2 65/103/2 66/104/2
f 67/105/2 63/67/2 66/104/2
f 67/105/2 68/106/2 63/67/2
f 68/106/2 69/107/2 63/67/2
f 69/107/2 70/108/2 63/67/2
f 70/108/2 71/109/2 63/67/2
f 71/109/2 72/110/2 63/67/2
f 72/110/2 73/111/2 63/67/2
f 73/111/2 74/112/2 63/67/2
f 74/112/2 75/65/2 63/67/2
f 39/68/4 65/113/4 63/69/4
f 36/46/6 46/45/6 48/71/6
usemtl Stone.203
f 19/8/3 78/114/3 45/85/3
f 45/115/6 79/116/6 47/117/6
f 18/40/4 47/50/4 80/118/4
f 79/119/2 78/120/2 80/121/2
f 80/122/1 19/123/1 18/124/1
f 81/125/7 4/126/8 5/127/7
f 83/128/9 5/129/7 30/130/9
f 84/131/10 30/132/9 29/133/10
f 85/134/11 29/135/10 28/136/11
f 86/137/12 28/138/11 27/139/12
f 87/140/13 27/141/12 26/142/13
f 88/143/14 26/144/13 25/145/14
f 89/146/15 25/147/14 24/148/15
f 90/149/16 24/150/15 23/151/16
f 91/152/17 23/153/16 22/154/17
f 92/155/18 22/156/17 21/157/18
f 93/158/19 21/159/18 20/160/19
f 50/53/3 93/161/3 20/39/3
f 4/2/1 82/162/1 51/100/1
f 51/163/20 96/164/21 52/165/21
f 100/166/2 101/167/2 89/168/2
f 62/169/22 94/170/23 50/171/23
f 61/172/24 97/173/22 62/174/22
f 60/175/25 98/176/24 61/177/24
f 59/178/26 99/179/25 60/180/25
f 58/181/27 100/182/26 59/183/26
f 57/184/28 101/185/27 58/186/27
f 56/187/29 102/188/28 57/189/28
f 55/190/30 103/191/29 56/192/29
f 54/193/31 104/194/30 55/195/30
f 53/196/32 105/197/31 54/198/31
f 52/199/21 106/200/32 53/201/32
f 107/202/33 6/203/34 3/204/33
f 64/62/1 107/205/1 3/13/1
f 17/11/4 111/206/4 65/113/4
f 65/207/35 112/208/36 66/209/36
f 116/210/2 117/211/2 130/212/2
f 76/213/37 109/214/38 64/215/38
f 75/216/39 113/217/37 76/218/37
f 74/219/40 114/220/39 75/221/39
f 73/222/41 115/223/40 74/224/40
f 72/225/42 116/226/41 73/227/41
f 71/228/43 117/229/42 72/230/42
f 70/231/44 118/232/43 71/233/43
f 69/234/45 119/235/44 70/236/44
f 68/237/46 120/238/45 69/239/45
f 67/240/47 121/241/46 68/242/46
f 66/243/36 122/244/47 67/245/47
f 123/246/48 17/247/49 16/248/48
f 124/249/50 16/250/48 15/251/50
f 125/252/51 15/253/50 14/254/51
f 126/255/52 14/256/51 13/257/52
f 127/258/53 13/259/52 12/260/53
f 128/261/54 12/262/53 11/263/54
f 129/264/55 11/265/54 10/266/55
f 130/267/56 10/268/55 9/269/56
f 131/270/57 9/271/56 8/272/57
f 132/273/58 8/274/57 7/275/58
f 108/276/34 7/277/58 6/278/34
f 78/114/3 77/279/3 45/85/3
f 45/85/3 35/44/3 19/8/3
f 35/44/3 31/9/3 19/8/3
f 45/115/6 77/280/6 79/116/6
f 18/40/4 34/10/4 38/87/4
f 38/87/4 47/50/4 18/40/4
f 47/50/4 79/281/4 80/118/4
f 79/119/2 77/282/2 78/120/2
f 80/122/1 78/283/1 19/123/1
f 81/125/7 82/284/8 4/126/8
f 83/128/9 81/285/7 5/129/7
f 84/131/10 83/286/9 30/132/9
f 85/134/11 84/287/10 29/135/10
f 86/137/12 85/288/11 28/138/11
f 87/140/13 86/289/12 27/141/12
f 88/143/14 87/290/13 26/144/13
f 89/146/15 88/291/14 25/147/14
f 90/149/16 89/292/15 24/150/15
f 91/152/17 90/293/16 23/153/16
f 92/155/18 91/294/17 22/156/17
f 93/158/19 92/295/18 21/159/18
f 20/39/3 32/7/3 44/88/3
f 50/53/3 94/296/3 93/161/3
f 20/39/3 44/88/3 50/53/3
f 82/162/1 95/297/1 51/100/1
f 51/100/1 42/59/1 4/2/1
f 42/59/1 1/3/1 4/2/1
f 51/163/20 95/298/20 96/164/21
f 92/299/2 93/300/2 94/301/2
f 92/299/2 94/301/2 97/302/2
f 90/303/2 91/304/2 98/305/2
f 91/304/2 92/299/2 97/302/2
f 88/306/2 89/168/2 101/167/2
f 89/168/2 90/303/2 100/166/2
f 88/306/2 101/167/2 102/307/2
f 86/308/2 87/309/2 103/310/2
f 87/309/2 88/306/2 102/307/2
f 86/308/2 103/310/2 104/311/2
f 84/312/2 85/313/2 105/314/2
f 85/313/2 86/308/2 104/311/2
f 105/314/2 85/313/2 104/311/2
f 81/315/2 83/316/2 106/317/2
f 83/316/2 84/312/2 105/314/2
f 95/318/2 82/319/2 81/315/2
f 96/320/2 95/318/2 81/315/2
f 83/316/2 105/314/2 106/317/2
f 91/304/2 97/302/2 98/305/2
f 106/317/2 96/320/2 81/315/2
f 90/303/2 98/305/2 99/321/2
f 90/303/2 99/321/2 100/166/2
f 103/310/2 87/309/2 102/307/2
f 62/169/22 97/322/22 94/170/23
f 61/172/24 98/323/24 97/173/22
f 60/175/25 99/324/25 98/176/24
f 59/178/26 100/325/26 99/179/25
f 58/181/27 101/326/27 100/182/26
f 57/184/28 102/327/28 101/185/27
f 56/187/29 103/328/29 102/188/28
f 55/190/30 104/329/30 103/191/29
f 54/193/31 105/330/31 104/194/30
f 53/196/32 106/331/32 105/197/31
f 52/199/21 96/332/21 106/200/32
f 107/202/33 108/333/34 6/203/34
f 3/13/1 2/1/1 41/101/1
f 64/62/1 109/334/1 107/205/1
f 3/13/1 41/101/1 64/62/1
f 111/206/4 110/335/4 65/113/4
f 65/113/4 39/68/4 17/11/4
f 39/68/4 33/12/4 17/11/4
f 65/207/35 110/336/35 112/208/36
f 108/337/2 107/338/2 109/339/2
f 108/337/2 109/339/2 113/340/2
f 131/341/2 132/342/2 114/343/2
f 132/342/2 108/337/2 113/340/2
f 129/344/2 130/212/2 117/211/2
f 130/212/2 131/341/2 116/210/2
f 129/344/2 117/211/2 118/345/2
f 127/346/2 128/347/2 119/348/2
f 128/347/2 129/344/2 118/345/2
f 127/346/2 119/348/2 120/349/2
f 125/350/2 126/351/2 121/352/2
f 126/351/2 127/346/2 120/349/2
f 121/352/2 126/351/2 120/349/2
f 123/353/2 124/354/2 122/355/2
f 124/354/2 125/350/2 121/352/2
f 110/356/2 111/357/2 123/353/2
f 112/358/2 110/356/2 123/353/2
f 124/354/2 121/352/2 122/355/2
f 132/342/2 113/340/2 114/343/2
f 122/355/2 112/358/2 123/353/2
f 131/341/2 114/343/2 115/359/2
f 131/341/2 115/359/2 116/210/2
f 119/348/2 128/347/2 118/345/2
f 76/213/37 113/360/37 109/214/38
f 75/216/39 114/361/39 113/217/37
f 74/219/40 115/362/40 114/220/39
f 73/222/41 116/363/41 115/223/40
f 72/225/42 117/364/42 116/226/41
f 71/228/43 118/365/43 117/229/42
f 70/231/44 119/366/44 118/232/43
f 69/234/45 120/367/45 119/235/44
f 68/237/46 121/368/46 120/238/45
f 67/240/47 122/369/47 121/241/46
f 66/243/36 112/370/36 122/244/47
f 123/246/48 111/371/49 17/247/49
f 124/249/50 123/372/48 16/250/48
f 125/252/51 124/373/50 15/253/50
f 126/255/52 125/374/51 14/256/51
f 127/258/53 126/375/52 13/259/52
f 128/261/54 127/376/53 12/262/53
f 129/264/55 128/377/54 11/265/54
f 130/267/56 129/378/55 10/268/55
f 131/270/57 130/379/56 9/271/56
f 132/273/58 131/380/57 8/274/57
f 108/276/34 132/381/58 7/277/58
