# Blender v2.79 (sub 7) OBJ File: ''
# www.blender.org
mtllib roadTile_263.mtl
o Mesh1_Group1_Model.290
v 1.500000 0.000000 -0.750000
v 1.500000 1.650000 0.750000
v 1.500000 0.000000 0.750000
v 1.500000 1.650000 -0.750000
v 1.500000 0.000000 1.125000
v -1.500000 0.000000 1.500000
v 1.500000 1.650000 1.500000
v -1.500000 1.650000 1.500000
v -1.500000 1.650000 -1.500000
v -1.500000 0.000000 -1.500000
v 1.500000 1.650000 1.125000
v 1.500000 0.000000 1.500000
v 1.500000 1.650000 -1.125000
v 1.500000 0.000000 -1.500000
v 1.500000 1.650000 -1.500000
v 1.500000 0.000000 -1.125000
vt 2.250000 0.000000
vt 0.750000 1.650000
vt 0.750000 0.000000
vt 2.250000 1.650000
vt -3.000000 0.750000
vt -3.000000 0.375000
vt -0.000000 -0.000000
vt 3.000000 1.650000
vt 0.000000 1.650000
vt -3.000000 1.650000
vt -3.000000 0.000000
vt 0.000000 -0.000000
vt 3.000000 0.375000
vt 3.000000 0.750000
vt 0.375000 0.000000
vt 0.000000 1.650000
vt 0.000000 0.000000
vt 2.625000 1.650000
vt 3.000000 0.000000
vt 3.000000 1.650000
vt -3.000000 0.000000
vt -0.000000 1.650000
vt -3.000000 1.650000
vt -3.000000 0.000000
vt 0.000000 3.000000
vt -3.000000 2.250000
vt -3.000000 3.000000
vt -3.000000 2.625000
vt 3.000000 0.000000
vt 3.000000 3.000000
vt 0.000000 3.000000
vt 3.000000 2.625000
vt 3.000000 2.250000
vt 3.000000 0.000000
vt 0.375000 1.650000
vt 2.625000 0.000000
vt -0.000000 0.000000
vn 1.0000 0.0000 0.0000
vn 0.0000 -1.0000 -0.0000
vn 0.0000 -0.0000 1.0000
vn -1.0000 0.0000 0.0000
vn -0.0000 1.0000 0.0000
vn 0.0000 0.0000 -1.0000
usemtl Water.047
s 1
f 1/1/1 2/2/1 3/3/1
f 1/1/1 4/4/1 2/2/1
usemtl Grass.120
f 3/5/2 5/6/2 6/7/2
f 6/7/3 7/8/3 8/9/3
f 6/7/4 9/10/4 10/11/4
f 8/12/5 11/13/5 2/14/5
f 5/15/1 7/16/1 12/17/1
f 13/18/1 14/19/1 15/20/1
f 14/21/6 9/22/6 15/23/6
f 5/6/2 12/24/2 6/7/2
f 6/7/2 10/25/2 1/26/2
f 10/25/2 14/27/2 16/28/2
f 16/28/2 1/26/2 10/25/2
f 1/26/2 3/5/2 6/7/2
f 6/7/3 12/29/3 7/8/3
f 6/7/4 8/9/4 9/10/4
f 15/30/5 9/31/5 13/32/5
f 9/31/5 8/12/5 4/33/5
f 13/32/5 9/31/5 4/33/5
f 8/12/5 7/34/5 11/13/5
f 2/14/5 4/33/5 8/12/5
f 5/15/1 11/35/1 7/16/1
f 13/18/1 16/36/1 14/19/1
f 14/21/6 10/37/6 9/22/6
usemtl Stone.247
f 11/35/1 3/3/1 2/2/1
f 16/36/1 4/4/1 1/1/1
f 11/35/1 5/15/1 3/3/1
f 16/36/1 13/18/1 4/4/1
