# Blender v2.79 (sub 7) OBJ File: ''
# www.blender.org
mtllib roadTile_137.mtl
o Mesh1_Group1_Model.284
v 3.000000 0.600000 -0.750000
v 2.250000 0.600000 -0.750000
v 2.250000 0.630000 -0.750000
v 3.000000 0.630000 -0.750000
v 2.250000 0.600000 -2.250000
v 2.250000 0.630000 -3.000000
v 0.750000 0.630000 -3.000000
v 0.750000 0.600000 -2.250000
v 2.250000 0.630000 -2.250000
v 3.000000 0.600000 -2.250000
v 3.000000 0.630000 -2.250000
v 3.000000 0.630000 -0.375000
v 3.000000 0.000000 -0.375000
v 3.000000 0.000000 -2.625000
v 3.000000 0.630000 -2.625000
v 3.000000 0.300000 -2.250000
v 3.000000 0.300000 -0.750000
v 2.625000 0.630000 -0.375000
v 2.625000 0.000000 -0.375000
v 2.625000 0.630000 0.000000
v 2.250000 0.630000 0.000000
v 2.625000 0.000000 0.000000
v 0.375000 0.630000 0.000000
v 0.375000 0.000000 0.000000
v 0.750000 0.630000 0.000000
v 0.375000 0.630000 -0.375000
v 0.375000 0.000000 -0.375000
v 0.000000 0.630000 -0.375000
v 0.750000 0.630000 -0.750000
v 0.000000 0.630000 -0.750000
v 0.000000 0.000000 -0.375000
v 0.000000 0.000000 -2.625000
v 0.000000 0.600000 -0.750000
v 0.000000 0.300000 -0.750000
v 0.000000 0.300000 -2.250000
v 0.000000 0.600000 -2.250000
v 0.000000 0.630000 -2.250000
v 0.000000 0.630000 -2.625000
v 0.375000 0.000000 -2.625000
v 0.375000 0.000000 -3.000000
v 2.625000 0.000000 -3.000000
v 2.625000 0.000000 -2.625000
v 0.375000 0.630000 -2.625000
v 0.375000 0.630000 -3.000000
v 0.750000 0.630000 -2.250000
v 2.625000 0.630000 -3.000000
v 2.625000 0.630000 -2.625000
v 0.750000 0.600000 -0.750000
vt -2.250000 0.600000
vt -3.000000 0.630000
vt -3.000000 0.600000
vt 2.250000 3.022780
vt 0.750000 2.272180
vt 2.250000 2.272180
vt -3.000000 0.630000
vt -2.250000 0.600000
vt -2.250000 0.630000
vt 3.000000 0.630000
vt 2.250000 0.600000
vt 3.000000 0.600000
vt 0.375000 -0.000000
vt 2.625000 -0.000000
vt 2.250000 0.300000
vt 2.625000 0.630000
vt 3.000000 0.000000
vt 3.000000 0.630000
vt 2.625000 0.375000
vt 3.000000 0.750000
vt 2.250000 0.750000
vt 0.000000 0.630000
vt 0.375000 0.000000
vt 0.375000 0.630000
vt 2.250000 0.630000
vt 0.750000 0.630000
vt 0.375000 -0.000000
vt -0.375000 0.630000
vt -0.000000 -0.000000
vt 0.000000 0.630000
vt 0.375000 0.375000
vt 0.750000 0.000000
vt 0.750000 0.750000
vt 0.000000 0.630000
vt 0.375000 -0.000000
vt 0.375000 0.630000
vt -2.625000 -0.000000
vt -0.375000 -0.000000
vt -2.250000 0.300000
vt -0.375000 2.625000
vt -2.625000 2.625000
vt -2.625000 0.375000
vt -0.375000 0.630000
vt 0.000000 0.000000
vt 0.000000 0.630000
vt 0.375000 2.625000
vt 0.000000 2.250000
vt 0.750000 2.250000
vt -3.000000 0.630000
vt -2.625000 0.000000
vt -2.625000 0.630000
vt -0.750000 0.630000
vt -2.250000 0.630000
vt -2.625000 -0.000000
vt 2.625000 0.630000
vt 3.000000 -0.000000
vt 3.000000 0.630000
vt 2.625000 2.625000
vt 2.250000 3.000000
vt 2.250000 2.250000
vt -3.000000 0.630000
vt -2.625000 -0.000000
vt -2.625000 0.630000
vt 0.750000 0.600000
vt 0.000000 0.630000
vt 0.000000 0.600000
vt 2.250000 0.600000
vt 3.000000 0.630000
vt 2.250000 0.630000
vt -0.750000 0.630000
vt -0.000000 0.600000
vt -0.000000 0.630000
vt -0.000000 0.630000
vt 0.750000 0.600000
vt 0.750000 0.630000
vt -2.250000 -0.725420
vt -0.750000 0.025180
vt -2.250000 0.025180
vt -0.750000 0.600000
vt 0.000000 0.630000
vt -0.750000 0.630000
vt -2.250000 0.630000
vt 0.750000 3.022780
vt 2.250000 0.630000
vt 0.750000 0.630000
vt 0.375000 0.630000
vt 0.750000 0.600000
vt 0.750000 0.300000
vt 2.625000 0.630000
vt 2.250000 0.630000
vt 2.250000 0.600000
vt 2.625000 0.000000
vt 2.250000 0.000000
vt 2.625000 0.000000
vt 3.000000 0.375000
vt 0.000000 0.000000
vt 0.375000 0.630000
vt 2.625000 0.000000
vt 2.625000 0.630000
vt -0.375000 0.000000
vt 0.000000 0.750000
vt 0.000000 0.375000
vt 0.375000 0.000000
vt 0.000000 -0.000000
vt -0.375000 0.630000
vt -0.750000 0.300000
vt -0.750000 0.630000
vt -0.750000 0.600000
vt -2.250000 0.630000
vt -2.625000 0.630000
vt -2.250000 0.600000
vt -2.625000 0.000000
vt -0.375000 0.000000
vt -0.375000 0.375000
vt -0.000000 0.375000
vt 0.000000 2.625000
vt -3.000000 2.625000
vt -3.000000 0.375000
vt -0.375000 3.000000
vt -2.625000 3.000000
vt -0.375000 0.000000
vt 0.750000 3.000000
vt 0.375000 3.000000
vt 0.000000 2.625000
vt -3.000000 -0.000000
vt -2.625000 0.630000
vt -0.375000 -0.000000
vt -0.375000 0.630000
vt 2.625000 0.000000
vt 3.000000 2.250000
vt 3.000000 2.625000
vt 2.625000 3.000000
vt -3.000000 -0.000000
vt 0.750000 0.630000
vt -0.750000 0.600000
vt -0.750000 -0.725420
vt 0.750000 2.250000
vt 0.000000 0.750000
vt 0.750000 0.750000
vt 3.000000 2.250000
vt 2.250000 2.250000
vt 3.000000 0.750000
vt 2.250000 0.750000
vt 0.000000 2.250000
vn 0.0000 0.0000 -1.0000
vn 0.0000 0.9992 0.0400
vn -0.0000 0.9998 0.0200
vn -1.0000 0.0000 0.0000
vn 0.0000 0.0000 1.0000
vn 1.0000 0.0000 0.0000
vn 0.0000 1.0000 0.0000
vn 0.0000 -1.0000 -0.0000
vn 0.0000 0.9998 -0.0200
vn 0.0000 0.9992 -0.0400
usemtl Stone.242
s 1
f 2/1/1 4/2/1 1/3/1
f 6/4/2 8/5/3 5/6/3
f 6/7/4 5/8/4 9/9/4
f 11/10/5 5/11/5 10/12/5
f 13/13/6 14/14/6 16/15/6
f 18/16/5 13/17/5 12/18/5
f 18/19/7 4/20/7 3/21/7
f 20/22/6 19/23/6 18/24/6
f 21/25/5 25/26/5 24/27/5
f 26/28/4 24/29/4 23/30/4
f 26/31/7 25/32/7 29/33/7
f 28/34/5 27/35/5 26/36/5
f 32/37/4 31/38/4 35/39/4
f 39/40/8 42/41/8 19/42/8
f 43/43/1 32/44/1 38/45/1
f 43/46/7 37/47/7 45/48/7
f 44/49/4 39/50/4 43/51/4
f 7/52/1 6/53/1 41/54/1
f 47/55/6 41/56/6 46/57/6
f 47/58/7 6/59/7 9/60/7
f 15/61/1 42/62/1 47/63/1
f 8/64/5 37/65/5 36/66/5
f 8/67/6 7/68/6 45/69/6
f 29/70/1 33/71/1 30/72/1
f 25/73/6 48/74/6 29/75/6
f 2/76/9 25/77/10 21/78/10
f 2/79/4 21/80/4 3/81/4
f 2/1/1 3/82/1 4/2/1
f 6/4/2 7/83/2 8/5/3
f 11/10/5 9/84/5 5/11/5
f 4/85/6 12/86/6 1/87/6
f 12/86/6 13/13/6 17/88/6
f 1/87/6 12/86/6 17/88/6
f 14/14/6 15/89/6 16/15/6
f 15/89/6 11/90/6 10/91/6
f 10/91/6 16/15/6 15/89/6
f 16/15/6 17/88/6 13/13/6
f 18/16/5 19/92/5 13/17/5
f 21/93/7 20/94/7 18/19/7
f 18/19/7 12/95/7 4/20/7
f 3/21/7 21/93/7 18/19/7
f 20/22/6 22/96/6 19/23/6
f 25/26/5 23/97/5 24/27/5
f 24/27/5 22/98/5 21/25/5
f 22/98/5 20/99/5 21/25/5
f 26/28/4 27/100/4 24/29/4
f 30/101/7 28/102/7 26/31/7
f 26/31/7 23/103/7 25/32/7
f 29/33/7 30/101/7 26/31/7
f 28/34/5 31/104/5 27/35/5
f 31/38/4 28/105/4 34/106/4
f 28/105/4 30/107/4 33/108/4
f 33/108/4 34/106/4 28/105/4
f 37/109/4 38/110/4 36/111/4
f 38/110/4 32/37/4 35/39/4
f 36/111/4 38/110/4 35/39/4
f 31/38/4 34/106/4 35/39/4
f 19/42/8 22/112/8 24/113/8
f 27/114/8 31/115/8 32/116/8
f 19/42/8 24/113/8 27/114/8
f 14/117/8 13/118/8 19/42/8
f 40/119/8 41/120/8 42/41/8
f 42/41/8 14/117/8 19/42/8
f 19/42/8 27/114/8 39/40/8
f 27/114/8 32/116/8 39/40/8
f 39/40/8 40/119/8 42/41/8
f 43/43/1 39/121/1 32/44/1
f 7/122/7 44/123/7 43/46/7
f 43/46/7 38/124/7 37/47/7
f 45/48/7 7/122/7 43/46/7
f 44/49/4 40/125/4 39/50/4
f 6/53/1 46/126/1 41/54/1
f 41/54/1 40/127/1 7/52/1
f 40/127/1 44/128/1 7/52/1
f 47/55/6 42/129/6 41/56/6
f 11/130/7 15/131/7 47/58/7
f 47/58/7 46/132/7 6/59/7
f 9/60/7 11/130/7 47/58/7
f 15/61/1 14/133/1 42/62/1
f 8/64/5 45/134/5 37/65/5
f 29/70/1 48/135/1 33/71/1
f 2/76/9 48/136/9 25/77/10
usemtl Asphalt.197
f 8/137/3 33/138/7 48/139/9
f 35/39/4 33/108/4 36/111/4
f 17/88/6 10/91/6 1/87/6
f 10/140/7 5/141/3 1/142/7
f 5/141/3 8/137/3 2/143/9
f 1/142/7 5/141/3 2/143/9
f 8/137/3 36/144/7 33/138/7
f 48/139/9 2/143/9 8/137/3
f 35/39/4 34/106/4 33/108/4
f 17/88/6 16/15/6 10/91/6
