# Blender v2.79 (sub 7) OBJ File: ''
# www.blender.org
mtllib roadTile_209.mtl
o Mesh1_Group1_Model.147
v 0.000000 1.730000 -2.250000
v 0.000000 1.100000 -2.250000
v 0.000000 1.100000 0.000000
v 0.000000 1.730000 0.000000
v 0.000000 1.730000 -0.375000
v 0.000000 1.700000 -0.375000
v 0.000000 1.400000 -0.375000
v 0.000000 1.400000 -1.875000
v 0.000000 1.700000 -1.875000
v 0.000000 1.730000 -1.875000
v 2.370000 0.000000 -2.250000
v 2.370000 1.100000 -2.250000
v 3.000000 1.730000 -2.250000
v 3.000000 0.000000 -2.250000
v 2.370000 0.000000 0.000000
v 2.370000 1.100000 0.000000
v 3.000000 0.000000 0.000000
v 3.000000 1.730000 0.000000
v 3.000000 1.730000 -1.875000
v 3.000000 1.700000 -1.875000
v 3.000000 1.400000 -1.875000
v 3.000000 1.400000 -0.375000
v 3.000000 1.700000 -0.375000
v 3.000000 1.730000 -0.375000
vt -2.250000 1.100000
vt 0.000000 1.100000
vt -0.375000 1.400000
vt -2.370000 1.100000
vt -0.000000 1.730000
vt -3.000000 1.730000
vt -2.250000 0.000000
vt -0.000000 1.100000
vt -2.250000 1.100000
vt -2.370000 0.000000
vt -3.000000 2.250000
vt -3.000000 0.000000
vt 2.370000 1.100000
vt 3.000000 0.000000
vt 3.000000 1.730000
vt -2.370000 2.250000
vt 0.000000 0.000000
vt -0.000000 2.250000
vt 0.375000 1.400000
vt 0.000000 0.000000
vt 2.250000 0.000000
vt 3.000000 2.250000
vt 0.000000 1.875000
vt 3.000000 1.875000
vt 3.000000 1.700000
vt 0.000000 1.730000
vt 0.000000 1.700000
vt -0.000000 1.700000
vt -3.000000 1.730000
vt -3.000000 1.700000
vt 0.000000 0.000000
vt 3.000000 0.375000
vt 0.000000 0.375000
vt -1.875000 1.730000
vt -2.250000 1.730000
vt -1.875000 1.700000
vt -1.875000 1.400000
vt 0.000000 1.730000
vt -0.375000 1.730000
vt -0.375000 1.700000
vt -3.000000 0.000000
vt -2.370000 0.000000
vt -0.000000 1.100000
vt -0.000000 0.000000
vt -2.370000 2.250000
vt 2.370000 -0.000000
vt -2.370000 0.000000
vt 0.375000 1.730000
vt 0.000000 1.730000
vt 0.375000 1.700000
vt 2.250000 1.730000
vt 1.875000 1.400000
vt 1.875000 1.730000
vt 1.875000 1.700000
vt 0.000000 2.250000
vt 3.000000 1.730000
vt -0.000000 1.730000
vt 3.000000 0.000000
vt 0.000000 1.875000
vt 3.000000 0.375000
vt 3.000000 1.875000
vt 0.000000 0.375000
vn -1.0000 0.0000 0.0000
vn 0.0000 0.0000 -1.0000
vn 0.0000 -1.0000 -0.0000
vn 0.0000 -0.0000 1.0000
vn 1.0000 -0.0000 0.0000
vn 0.0000 1.0000 0.0000
usemtl Stone.123
s 1
f 2/1/1 3/2/1 7/3/1
f 12/4/2 1/5/2 13/6/2
f 11/7/1 16/8/1 12/9/1
f 15/10/3 14/11/3 17/12/3
f 16/13/4 17/14/4 18/15/4
f 12/16/3 3/17/3 2/18/3
f 22/19/5 17/20/5 14/21/5
f 13/22/6 10/23/6 19/24/6
f 20/25/4 10/26/4 9/27/4
f 6/28/2 24/29/2 23/30/2
f 4/31/6 24/32/6 5/33/6
f 10/34/1 1/35/1 9/36/1
f 1/35/1 2/1/1 8/37/1
f 9/36/1 1/35/1 8/37/1
f 3/2/1 4/38/1 7/3/1
f 4/38/1 5/39/1 6/40/1
f 6/40/1 7/3/1 4/38/1
f 7/3/1 8/37/1 2/1/1
f 14/41/2 11/42/2 12/4/2
f 12/4/2 2/43/2 1/5/2
f 13/6/2 14/41/2 12/4/2
f 11/7/1 15/44/1 16/8/1
f 15/10/3 11/45/3 14/11/3
f 18/15/4 4/38/4 16/13/4
f 4/38/4 3/2/4 16/13/4
f 16/13/4 15/46/4 17/14/4
f 12/16/3 16/47/3 3/17/3
f 24/48/5 18/49/5 23/50/5
f 18/49/5 17/20/5 22/19/5
f 23/50/5 18/49/5 22/19/5
f 14/21/5 13/51/5 21/52/5
f 13/51/5 19/53/5 20/54/5
f 20/54/5 21/52/5 13/51/5
f 21/52/5 22/19/5 14/21/5
f 13/22/6 1/55/6 10/23/6
f 20/25/4 19/56/4 10/26/4
f 6/28/2 5/57/2 24/29/2
f 4/31/6 18/58/6 24/32/6
usemtl Asphalt.096
f 9/59/6 23/60/6 20/61/6
f 8/37/1 6/40/1 9/36/1
f 22/19/5 20/54/5 23/50/5
f 9/59/6 6/62/6 23/60/6
f 8/37/1 7/3/1 6/40/1
f 22/19/5 21/52/5 20/54/5
