# Blender v2.79 (sub 7) OBJ File: ''
# www.blender.org
mtllib roadTile_127.mtl
o Mesh1_Group1_Model.068
v 1.097070 0.315000 -3.000000
v 1.097070 0.600000 -3.000000
v 2.839190 0.600000 -3.000000
v 2.839190 0.315000 -3.000000
v 0.877778 0.600000 -2.470570
v 0.848739 0.600000 -2.250000
v 0.000000 0.600000 -2.250000
v 0.000000 0.600000 -0.750000
v 0.848739 0.600000 -0.750000
v 0.877778 0.600000 -0.529429
v 1.097070 0.600000 0.000000
v 2.839190 0.600000 0.000000
v 2.551440 0.600000 -0.375000
v 2.326670 0.600000 -0.917657
v 2.250000 0.600000 -1.500000
v 2.326670 0.600000 -2.082340
v 2.551440 0.600000 -2.625000
v 0.000000 0.275000 -2.250000
v 0.000000 0.275000 -0.750000
v 2.839190 0.315000 0.000000
v 1.097070 0.315000 0.000000
v 3.000000 0.000000 -3.000000
v 0.747630 0.000000 -3.000000
v 0.747630 0.630000 -3.000000
v 1.097070 0.630000 -3.000000
v 2.839190 0.630000 -3.000000
v 3.000000 0.630000 -3.000000
v 3.000000 0.000000 0.000000
v 0.747630 0.000000 0.000000
v 0.592300 0.000000 -0.375000
v 0.000000 0.000000 -0.375000
v 0.000000 0.000000 -2.625000
v 0.592300 0.000000 -2.625000
v 3.000000 0.000000 -2.598840
v 2.876200 0.000000 -2.437500
v 2.688890 0.000000 -1.985290
v 2.625000 0.000000 -1.500000
v 2.688890 0.000000 -1.014710
v 2.876200 0.000000 -0.562500
v 3.000000 0.000000 -0.401164
v 0.747630 0.630000 0.000000
v 3.000000 0.630000 0.000000
v 2.839190 0.630000 0.000000
v 1.097070 0.630000 0.000000
v 0.592300 0.630000 -0.375000
v 0.877778 0.630000 -0.529429
v 0.848739 0.630000 -0.750000
v 0.000000 0.630000 -0.750000
v 0.000000 0.630000 -0.375000
v 0.848739 0.630000 -2.250000
v 0.877778 0.630000 -2.470570
v 0.000000 0.630000 -2.250000
v 0.592300 0.630000 -2.625000
v 0.000000 0.630000 -2.625000
v 2.551440 0.630000 -0.375000
v 3.000000 0.630000 -0.401164
v 2.876200 0.630000 -0.562500
v 2.688890 0.630000 -1.014710
v 2.625000 0.630000 -1.500000
v 2.688890 0.630000 -1.985290
v 2.876200 0.630000 -2.437500
v 3.000000 0.630000 -2.598840
v 2.551440 0.630000 -2.625000
v 2.326670 0.630000 -2.082340
v 2.250000 0.630000 -1.500000
v 2.326670 0.630000 -0.917657
vt -1.097070 0.600000
vt -2.839190 0.315000
vt -1.097070 0.315000
vt 2.326670 2.082340
vt 0.848739 2.250000
vt 2.250000 1.500000
vt -0.750000 0.275000
vt -2.250000 0.600000
vt -2.250000 0.275000
vt 2.839190 0.600000
vt 1.097070 0.315000
vt 2.839190 0.315000
vt -2.839190 0.600000
vt 1.097070 3.000000
vt 0.877778 2.470570
vt 0.000000 2.250000
vt 0.000000 0.750000
vt 0.848739 0.750000
vt 0.877778 0.529429
vt 2.326670 0.917657
vt 1.097070 0.000000
vt 2.839190 3.000000
vt 2.551440 2.625000
vt 2.839190 0.000000
vt 2.551440 0.375000
vt -0.750000 0.600000
vt 1.097070 0.600000
vt -3.000000 0.000000
vt -0.592300 2.625000
vt -2.688890 1.985290
vt -2.625000 1.500000
vt 0.747630 0.000000
vt 3.000000 0.000000
vt -0.119791 0.630000
vt 0.286106 0.000000
vt 0.286106 0.630000
vt 0.747630 0.000000
vt 1.097070 0.000000
vt 0.877778 0.529429
vt 0.632801 0.600000
vt 0.410326 0.630000
vt 0.410326 0.600000
vt 2.341530 0.600000
vt 2.564010 0.630000
vt 2.341530 0.630000
vt 0.848739 0.600000
vt 0.000000 0.630000
vt 0.000000 0.600000
vt 0.848739 2.250000
vt 0.877778 2.470570
vt 0.592300 2.625000
vt -2.651850 0.630000
vt -3.057740 0.000000
vt -2.651850 0.000000
vt -0.000000 0.000000
vt -0.592300 0.630000
vt -0.592300 0.000000
vt -2.625000 0.000000
vt 0.592300 0.000000
vt -0.000000 0.630000
vt -0.000000 0.000000
vt -0.848739 0.630000
vt -0.000000 0.600000
vt -0.000000 0.630000
vt 2.618420 0.630000
vt 3.191470 0.600000
vt 3.191470 0.630000
vt -0.419832 0.630000
vt 0.153217 0.600000
vt 0.153217 0.630000
vt 1.255710 0.630000
vt 1.728390 0.600000
vt 1.728390 0.630000
vt 2.326670 0.917657
vt 2.688890 1.014710
vt 2.625000 1.500000
vt -0.000000 0.630000
vt 0.401164 0.000000
vt 0.401164 0.630000
vt -1.508020 0.630000
vt -1.304660 0.000000
vt -1.304660 0.630000
vt -0.580993 0.630000
vt -0.091519 0.000000
vt -0.091519 0.630000
vt 0.655063 0.630000
vt 1.144540 0.000000
vt 1.144540 0.630000
vt 1.829800 0.630000
vt 2.319270 0.000000
vt 2.319270 0.630000
vt 2.863160 0.630000
vt 3.352630 0.000000
vt 3.352630 0.630000
vt 3.684720 0.630000
vt 3.888080 0.000000
vt 3.888080 0.630000
vt 3.000000 0.000000
vt 2.598840 0.630000
vt 2.598840 0.000000
vt -4.108450 0.630000
vt -3.635770 0.600000
vt -3.635770 0.630000
vt -3.401580 0.630000
vt -2.814210 0.600000
vt -2.814210 0.630000
vt -2.368220 0.630000
vt -1.780850 0.600000
vt -1.780850 0.630000
vt -1.193480 0.630000
vt -0.606115 0.600000
vt -0.606115 0.630000
vt 0.042572 0.630000
vt 0.629940 0.600000
vt 0.629940 0.630000
vt -0.747630 0.000000
vt -0.747630 0.630000
vt -1.097070 0.630000
vt -2.839190 0.630000
vt -3.000000 0.630000
vt -3.000000 0.401164
vt -3.000000 0.000000
vt -2.876200 0.562500
vt -0.747630 0.000000
vt -0.592300 0.375000
vt 0.000000 0.375000
vt -0.000000 2.625000
vt -2.688890 1.014710
vt -0.747630 3.000000
vt -3.000000 3.000000
vt -2.876200 2.437500
vt -3.000000 2.598840
vt 1.097070 0.630000
vt 0.747630 0.630000
vt 3.000000 0.630000
vt 2.839190 0.630000
vt -0.119791 0.000000
vt 0.848739 0.750000
vt 0.592300 0.375000
vt 0.000000 0.750000
vt 0.000000 0.375000
vt 0.632801 0.630000
vt 2.564010 0.600000
vt 0.848739 0.630000
vt 1.097070 3.000000
vt 0.747630 3.000000
vt 0.000000 2.625000
vt 0.000000 2.250000
vt -3.057740 0.630000
vt -0.000000 0.630000
vt -0.750000 0.630000
vt -0.375000 0.630000
vt -2.625000 0.630000
vt -2.250000 0.630000
vt -0.375000 0.000000
vt 0.592300 0.630000
vt -0.848739 0.600000
vt 2.618420 0.600000
vt -0.419832 0.600000
vt 1.255710 0.600000
vt 2.839190 0.000000
vt 3.000000 -0.000000
vt 3.000000 0.401164
vt 2.551440 0.375000
vt 2.876200 0.562500
vt 2.326670 2.082340
vt 2.250000 1.500000
vt 2.688890 1.985290
vt 2.839190 3.000000
vt 2.551440 2.625000
vt 3.000000 2.598840
vt 3.000000 3.000000
vt 2.876200 2.437500
vt -0.000000 0.000000
vt -1.508020 0.000000
vt -0.580993 0.000000
vt 0.655063 0.000000
vt 1.829800 0.000000
vt 2.863160 0.000000
vt 3.684720 0.000000
vt 3.000000 0.630000
vt -4.108450 0.600000
vt -3.401580 0.600000
vt -2.368220 0.600000
vt -1.193480 0.600000
vt 0.042572 0.600000
vn 0.0000 0.0000 -1.0000
vn -0.0000 1.0000 0.0000
vn -1.0000 0.0000 0.0000
vn 0.0000 -0.0000 1.0000
vn 0.0000 -1.0000 -0.0000
vn -0.9239 0.0000 0.3827
vn 0.9914 0.0000 -0.1305
vn 0.9659 0.0000 -0.2588
vn 0.9914 0.0000 0.1305
vn 0.9659 0.0000 0.2588
vn -0.9239 0.0000 -0.3827
vn 0.9239 0.0000 0.3827
vn 0.9239 0.0000 -0.3827
vn -0.8660 -0.0000 0.5000
vn -0.7934 -0.0000 0.6088
vn 1.0000 0.0000 0.0000
vn 0.7933 0.0000 -0.6088
vn 0.8660 0.0000 -0.5000
vn 0.8660 0.0000 0.5000
vn 0.7934 0.0000 0.6088
vn -0.7934 0.0000 -0.6088
vn -0.8660 0.0000 -0.5000
vn -0.9659 0.0000 -0.2588
vn -0.9659 0.0000 0.2588
usemtl Asphalt.042
s 1
f 2/1/1 4/2/1 1/3/1
f 16/4/2 6/5/2 15/6/2
f 19/7/3 7/8/3 18/9/3
f 12/10/4 21/11/4 20/12/4
f 2/1/1 3/13/1 4/2/1
f 2/14/2 5/15/2 16/4/2
f 5/15/2 6/5/2 16/4/2
f 6/5/2 7/16/2 8/17/2
f 9/18/2 10/19/2 14/20/2
f 10/19/2 11/21/2 14/20/2
f 6/5/2 8/17/2 9/18/2
f 3/22/2 2/14/2 17/23/2
f 17/23/2 2/14/2 16/4/2
f 6/5/2 9/18/2 15/6/2
f 15/6/2 9/18/2 14/20/2
f 11/21/2 12/24/2 13/25/2
f 11/21/2 13/25/2 14/20/2
f 19/7/3 8/26/3 7/8/3
f 12/10/4 11/27/4 21/11/4
usemtl Stone.053
f 1/3/1 4/2/1 22/28/1
f 33/29/5 36/30/5 37/31/5
f 21/11/4 29/32/4 28/33/4
f 45/34/6 29/35/6 41/36/6
f 41/37/2 44/38/2 46/39/2
f 9/40/7 46/41/8 10/42/8
f 6/43/9 51/44/10 50/45/9
f 6/46/4 52/47/4 7/48/4
f 50/49/2 51/50/2 53/51/2
f 53/52/11 23/53/11 33/54/11
f 32/55/1 53/56/1 33/57/1
f 19/7/3 18/9/3 32/58/3
f 30/59/4 49/60/4 31/61/4
f 47/62/1 8/63/1 48/64/1
f 51/65/10 2/66/12 25/67/12
f 44/68/13 10/69/8 46/70/8
f 55/71/14 12/72/15 43/73/15
f 66/74/2 58/75/2 59/76/2
f 42/77/16 40/78/16 56/79/16
f 56/80/17 39/81/18 57/82/18
f 57/83/18 38/84/8 58/85/8
f 58/86/8 37/87/16 59/88/16
f 59/89/16 36/90/10 60/91/10
f 60/92/10 35/93/19 61/94/19
f 61/95/19 34/96/20 62/97/20
f 22/98/16 62/99/16 34/100/16
f 26/101/21 17/102/22 63/103/22
f 63/104/22 16/105/23 64/106/23
f 64/107/23 15/108/3 65/109/3
f 65/110/3 14/111/24 66/112/24
f 66/113/24 13/114/14 55/115/14
f 23/116/1 24/117/1 1/3/1
f 24/117/1 25/118/1 2/1/1
f 24/117/1 2/1/1 1/3/1
f 26/119/1 27/120/1 3/13/1
f 27/120/1 22/28/1 4/2/1
f 3/13/1 27/120/1 4/2/1
f 23/116/1 1/3/1 22/28/1
f 40/121/5 28/122/5 39/123/5
f 28/122/5 29/124/5 39/123/5
f 30/125/5 31/126/5 32/127/5
f 29/124/5 30/125/5 38/128/5
f 39/123/5 29/124/5 38/128/5
f 30/125/5 32/127/5 33/29/5
f 33/29/5 23/129/5 36/30/5
f 23/129/5 22/130/5 35/131/5
f 22/130/5 34/132/5 35/131/5
f 35/131/5 36/30/5 23/129/5
f 30/125/5 33/29/5 37/31/5
f 37/31/5 38/128/5 30/125/5
f 44/133/4 41/134/4 11/27/4
f 41/134/4 29/32/4 21/11/4
f 11/27/4 41/134/4 21/11/4
f 28/33/4 42/135/4 20/12/4
f 42/135/4 43/136/4 12/10/4
f 12/10/4 20/12/4 42/135/4
f 20/12/4 21/11/4 28/33/4
f 45/34/6 30/137/6 29/35/6
f 46/39/2 47/138/2 45/139/2
f 47/138/2 48/140/2 45/139/2
f 48/140/2 49/141/2 45/139/2
f 45/139/2 41/37/2 46/39/2
f 9/40/7 47/142/7 46/41/8
f 6/43/9 5/143/10 51/44/10
f 6/46/4 50/144/4 52/47/4
f 25/145/2 24/146/2 51/50/2
f 24/146/2 53/51/2 51/50/2
f 53/51/2 54/147/2 52/148/2
f 52/148/2 50/49/2 53/51/2
f 53/52/11 24/149/11 23/53/11
f 32/55/1 54/150/1 53/56/1
f 48/151/3 8/26/3 49/152/3
f 8/26/3 19/7/3 49/152/3
f 18/9/3 7/8/3 54/153/3
f 7/8/3 52/154/3 54/153/3
f 31/155/3 49/152/3 19/7/3
f 18/9/3 54/153/3 32/58/3
f 31/155/3 19/7/3 32/58/3
f 30/59/4 45/156/4 49/60/4
f 47/62/1 9/157/1 8/63/1
f 51/65/10 5/158/10 2/66/12
f 44/68/13 11/159/13 10/69/8
f 55/71/14 13/160/14 12/72/15
f 43/161/2 42/162/2 56/163/2
f 43/161/2 56/163/2 55/164/2
f 56/163/2 57/165/2 55/164/2
f 66/74/2 55/164/2 57/165/2
f 64/166/2 65/167/2 59/76/2
f 65/167/2 66/74/2 59/76/2
f 64/166/2 59/76/2 60/168/2
f 26/169/2 63/170/2 62/171/2
f 63/170/2 64/166/2 60/168/2
f 62/171/2 27/172/2 26/169/2
f 61/173/2 62/171/2 63/170/2
f 63/170/2 60/168/2 61/173/2
f 66/74/2 57/165/2 58/75/2
f 42/77/16 28/174/16 40/78/16
f 56/80/17 40/175/17 39/81/18
f 57/83/18 39/176/18 38/84/8
f 58/86/8 38/177/8 37/87/16
f 59/89/16 37/178/16 36/90/10
f 60/92/10 36/179/10 35/93/19
f 61/95/19 35/180/19 34/96/20
f 22/98/16 27/181/16 62/99/16
f 26/101/21 3/182/21 17/102/22
f 63/104/22 17/183/22 16/105/23
f 64/107/23 16/184/23 15/108/3
f 65/110/3 15/185/3 14/111/24
f 66/113/24 14/186/24 13/114/14
