# Blender v2.79 (sub 7) OBJ File: ''
# www.blender.org
mtllib roadTile_069.mtl
o Mesh1_Group1_Model.043
v 0.000000 0.630000 0.000000
v 0.000000 0.000000 0.000000
v 3.000000 0.000000 0.000000
v 3.000000 0.630000 0.000000
v 0.000000 0.000000 -3.000000
v 0.000000 0.630000 -1.703930
v 0.000000 0.600000 -1.703930
v 0.000000 0.300000 -1.703930
v 0.000000 0.300000 -3.000000
v 3.000000 0.000000 -3.000000
v 3.000000 0.630000 -3.000000
v 1.296070 0.300000 -3.000000
v 1.296070 0.600000 -3.000000
v 1.296070 0.630000 -3.000000
v 1.165110 0.630000 -2.804000
v 0.712311 0.630000 -2.287690
v 0.195998 0.630000 -1.834890
v 1.165110 0.600000 -2.804000
v 0.195998 0.600000 -1.834890
v 0.712311 0.600000 -2.287690
v 0.000000 0.600000 -3.000000
vt 0.000000 0.000000
vt 3.000000 0.630000
vt 0.000000 0.630000
vt -1.703930 0.600000
vt -1.703930 0.300000
vt -3.000000 3.000000
vt -3.000000 0.000000
vt -0.000000 0.000000
vt -0.000000 0.300000
vt -1.296070 0.300000
vt 3.000000 0.000000
vt 0.000000 0.630000
vt 0.000000 0.000000
vt 0.712311 2.287690
vt 0.195998 1.834890
vt 3.000000 0.000000
vt -2.978740 0.600000
vt -3.214460 0.630000
vt -3.214460 0.600000
vt -0.946655 0.600000
vt -1.182380 0.630000
vt -1.182380 0.600000
vt -1.357190 0.600000
vt -2.043920 0.630000
vt -2.043920 0.600000
vt -2.189630 0.600000
vt -2.876370 0.630000
vt -2.876370 0.600000
vt 3.000000 0.000000
vt -3.000000 0.300000
vt -3.000000 -0.000000
vt -1.703930 0.630000
vt -0.000000 3.000000
vt -1.296070 0.630000
vt -3.000000 0.630000
vt -1.296070 0.600000
vt -3.000000 0.000000
vt 3.000000 0.630000
vt 3.000000 3.000000
vt 1.165110 2.804000
vt 1.296070 3.000000
vt -0.000000 1.703930
vt 0.000000 0.000000
vt -2.978740 0.630000
vt -0.946655 0.630000
vt -1.357190 0.630000
vt -2.189630 0.630000
vt 0.712311 2.287690
vt 1.165110 2.804000
vt 0.000000 3.000000
vt -3.000000 0.600000
vt -0.000000 0.600000
vt 1.296070 3.000000
vt 0.000000 1.703930
vt 0.195998 1.834890
vn 0.0000 -0.0000 1.0000
vn -1.0000 0.0000 0.0000
vn 0.0000 -1.0000 -0.0000
vn 0.0000 0.0000 -1.0000
vn 1.0000 0.0000 0.0000
vn -0.0000 1.0000 0.0000
vn -0.7934 0.0000 -0.6088
vn -0.8315 0.0000 -0.5556
vn -0.5556 0.0000 -0.8315
vn -0.6088 0.0000 -0.7934
vn -0.7071 0.0000 -0.7071
usemtl Stone.035
s 1
f 2/1/1 4/2/1 1/3/1
f 7/4/2 8/5/2 1/3/2
f 2/1/3 10/6/3 3/7/3
f 5/8/4 9/9/4 12/10/4
f 10/11/5 4/12/5 3/13/5
f 16/14/6 17/15/6 4/16/6
f 18/17/7 14/18/8 13/19/8
f 7/20/9 17/21/10 19/22/10
f 19/23/10 16/24/11 20/25/11
f 20/26/11 15/27/7 18/28/7
f 2/1/1 3/29/1 4/2/1
f 9/30/2 5/31/2 8/5/2
f 5/31/2 2/1/2 8/5/2
f 2/1/2 1/3/2 8/5/2
f 1/3/2 6/32/2 7/4/2
f 2/1/3 5/33/3 10/6/3
f 14/34/4 11/35/4 13/36/4
f 11/35/4 10/37/4 12/10/4
f 13/36/4 11/35/4 12/10/4
f 10/37/4 5/8/4 12/10/4
f 10/11/5 11/38/5 4/12/5
f 4/16/6 11/39/6 15/40/6
f 11/39/6 14/41/6 15/40/6
f 6/42/6 1/43/6 17/15/6
f 1/43/6 4/16/6 17/15/6
f 4/16/6 15/40/6 16/14/6
f 18/17/7 15/44/7 14/18/8
f 7/20/9 6/45/9 17/21/10
f 19/23/10 17/46/10 16/24/11
f 20/26/11 16/47/11 15/27/7
usemtl Asphalt.025
f 20/48/6 18/49/6 21/50/6
f 9/30/2 7/4/2 21/51/2
f 12/10/4 21/52/4 13/36/4
f 13/53/6 21/50/6 18/49/6
f 21/50/6 7/54/6 19/55/6
f 20/48/6 21/50/6 19/55/6
f 9/30/2 8/5/2 7/4/2
f 12/10/4 9/9/4 21/52/4
