# Blender v2.79 (sub 7) OBJ File: ''
# www.blender.org
mtllib roadTile_097.mtl
o Mesh1_Group1_Model.208
v 0.000000 0.630000 -3.000000
v 0.000000 0.630000 -0.461802
v 0.215767 0.630000 -0.215767
v 0.461802 0.630000 0.000000
v 3.000000 0.630000 0.000000
v 3.000000 0.630000 -3.000000
v 0.000000 0.000000 -3.000000
v 0.000000 0.000000 0.000000
v 0.000000 0.630000 0.000000
v 0.000000 0.630000 -0.178038
v 0.000000 0.570000 -0.178038
v 0.000000 0.570000 -0.461802
v 3.000000 0.000000 0.000000
v 3.000000 0.000000 -3.000000
v 0.461802 0.570000 0.000000
v 0.178038 0.570000 0.000000
v 0.178038 0.630000 0.000000
v 0.083185 0.630000 -0.083184
v 0.215767 0.570000 -0.215767
v 0.083185 0.570000 -0.083184
vt 0.461802 -0.000000
vt 3.000000 0.000000
vt 3.000000 3.000000
vt 0.000000 0.000000
vt -0.178038 0.570000
vt -0.461802 0.570000
vt -3.000000 3.000000
vt -3.000000 0.000000
vt 0.461802 0.570000
vt 0.178038 0.570000
vt 3.000000 0.000000
vt 0.000000 0.630000
vt -0.000000 0.000000
vt -3.000000 0.000000
vt -0.000000 0.630000
vt -3.000000 0.630000
vt -0.000000 -0.000000
vt 0.083185 0.083185
vt -0.000000 0.178038
vt -0.000000 3.000000
vt 0.000000 0.461802
vt 0.215767 0.215767
vt -3.000000 0.630000
vt -3.000000 0.000000
vt 0.000000 0.630000
vt -0.178038 0.630000
vt -0.461802 0.630000
vt 0.000000 3.000000
vt 3.000000 -0.000000
vt 3.000000 0.630000
vt 0.461802 0.630000
vt 0.178038 0.630000
vt 3.000000 0.630000
vt -0.000000 0.000000
vt 0.178038 -0.000000
vt 0.019957 0.630000
vt 0.347201 0.570000
vt 0.347201 0.630000
vt -0.347201 0.630000
vt -0.019957 0.570000
vt -0.019957 0.630000
vt 0.178038 0.000000
vt 0.461802 0.000000
vt 0.215767 0.215767
vt 0.007694 0.630000
vt 0.133856 0.570000
vt 0.133856 0.630000
vt -0.133856 0.630000
vt -0.007694 0.570000
vt -0.007694 0.630000
vt 0.019957 0.570000
vt -0.347201 0.570000
vt 0.000000 0.461802
vt 0.000000 0.178038
vt 0.083185 0.083185
vt 0.007694 0.570000
vt -0.133856 0.570000
vn -0.0000 1.0000 0.0000
vn -1.0000 0.0000 0.0000
vn 0.0000 -1.0000 -0.0000
vn -0.0000 -0.0000 1.0000
vn 1.0000 0.0000 0.0000
vn 0.0000 0.0000 -1.0000
vn -0.7071 -0.0000 0.7071
vn -0.6593 -0.0000 0.7518
vn -0.7518 0.0000 0.6593
vn 0.7071 0.0000 -0.7071
vn 0.7518 0.0000 -0.6593
vn 0.6593 0.0000 -0.7518
usemtl Stone.181
s 1
f 4/1/1 5/2/1 6/3/1
f 8/4/2 11/5/2 12/6/2
f 8/4/3 14/7/3 13/8/3
f 15/9/4 16/10/4 8/4/4
f 14/11/5 5/12/5 13/13/5
f 14/14/6 1/15/6 6/16/6
f 9/17/1 18/18/1 10/19/1
f 6/3/1 1/20/1 2/21/1
f 2/21/1 3/22/1 6/3/1
f 3/22/1 4/1/1 6/3/1
f 1/23/2 7/24/2 12/6/2
f 7/24/2 8/4/2 12/6/2
f 8/4/2 9/25/2 11/5/2
f 9/25/2 10/26/2 11/5/2
f 12/6/2 2/27/2 1/23/2
f 8/4/3 7/28/3 14/7/3
f 8/4/4 13/29/4 15/9/4
f 13/29/4 5/30/4 15/9/4
f 5/30/4 4/31/4 15/9/4
f 16/10/4 17/32/4 9/25/4
f 16/10/4 9/25/4 8/4/4
f 14/11/5 6/33/5 5/12/5
f 14/14/6 7/34/6 1/15/6
f 9/17/1 17/35/1 18/18/1
usemtl Grey_Asphalt.011
f 3/36/7 15/37/8 4/38/8
f 2/39/9 19/40/7 3/41/7
f 16/42/1 15/43/1 19/44/1
f 18/45/10 11/46/11 10/47/11
f 17/48/12 20/49/10 18/50/10
f 3/36/7 19/51/7 15/37/8
f 2/39/9 12/52/9 19/40/7
f 19/44/1 12/53/1 11/54/1
f 11/54/1 20/55/1 19/44/1
f 20/55/1 16/42/1 19/44/1
f 18/45/10 20/56/10 11/46/11
f 17/48/12 16/57/12 20/49/10
