# Blender v2.79 (sub 7) OBJ File: ''
# www.blender.org
mtllib roadTile_164.mtl
o Mesh1_Group1_Model.196
v -1.500000 1.700000 -0.750000
v 1.500000 1.700000 0.750000
v 1.500000 1.700000 -0.750000
v -1.500000 1.400000 -0.750000
v -1.500000 1.700000 0.750000
v 1.500000 1.400000 0.750000
v -1.500000 1.400000 0.750000
v 1.500000 1.400000 -0.750000
v -1.500000 1.730000 -0.750000
v 1.500000 0.000000 -1.125000
v -1.500000 1.730000 1.125000
v 1.500000 1.650000 1.125000
v 1.500000 1.730000 1.125000
v 1.500000 1.730000 0.750000
v -1.500000 1.730000 0.750000
v -1.500000 1.100000 -1.125000
v 1.500000 1.730000 -1.125000
v -1.500000 1.650000 -1.125000
v -1.500000 1.730000 -1.125000
v 1.500000 1.730000 -0.750000
v 1.500000 0.000000 1.125000
v 1.500000 1.650000 -1.125000
v -1.500000 1.650000 1.125000
v -1.500000 1.100000 1.125000
v -1.500000 1.100000 1.500000
v -1.500000 1.650000 1.500000
v 1.500000 1.650000 1.500000
v 1.500000 0.000000 1.500000
v -1.500000 1.650000 -1.500000
v -1.500000 1.100000 -1.500000
v 1.500000 1.650000 -1.500000
v 1.500000 0.000000 -1.500000
vt 0.000000 2.250000
vt 3.000000 0.750000
vt 3.000000 2.250000
vt -2.250000 1.400000
vt -0.750000 1.700000
vt -2.250000 1.700000
vt 0.750000 1.400000
vt 2.250000 1.700000
vt 0.750000 1.700000
vt 0.000000 0.750000
vt -0.750000 1.400000
vt 2.250000 1.400000
vt 3.000000 1.700000
vt 0.000000 1.730000
vt 0.000000 1.700000
vt 2.625000 0.000000
vt 0.000000 1.730000
vt 3.000000 1.650000
vt 3.000000 1.730000
vt 0.000000 0.375000
vt 3.000000 0.750000
vt 0.000000 0.750000
vt -2.625000 1.100000
vt -3.000000 1.730000
vt -0.000000 1.650000
vt -0.000000 1.730000
vt 3.000000 2.625000
vt 0.000000 2.250000
vt 3.000000 2.250000
vt -0.000000 1.700000
vt -3.000000 1.730000
vt -3.000000 1.700000
vt 3.000000 1.730000
vt 0.750000 1.730000
vt 0.375000 1.730000
vt 0.375000 1.650000
vt 0.375000 0.000000
vt 2.625000 1.650000
vt 2.625000 1.730000
vt 2.250000 1.730000
vt 0.000000 1.650000
vt 3.000000 0.375000
vt -0.375000 1.100000
vt -0.375000 1.650000
vt -0.375000 1.730000
vt -0.750000 1.730000
vt -2.625000 1.730000
vt -2.625000 1.650000
vt -2.250000 1.730000
vt -3.000000 1.650000
vt 0.000000 2.625000
vt -0.000000 1.730000
vt -2.625000 -2.816630
vt -0.375000 -2.816630
vt -2.625000 0.378680
vt 0.000000 1.100000
vt 0.000000 1.650000
vt 3.000000 0.375000
vt 0.000000 0.000000
vt 3.000000 0.000000
vt 0.000000 1.650000
vt 0.000000 -0.000000
vt 3.000000 1.650000
vt -3.000000 1.650000
vt -3.000000 1.100000
vt 0.000000 2.625000
vt 3.000000 3.000000
vt 0.000000 3.000000
vt 3.000000 -0.000000
vt 3.000000 1.650000
vt -0.000000 1.100000
vt -3.000000 1.650000
vt -3.000000 -0.000000
vt -0.000000 -2.816630
vt -0.000000 0.378680
vt -0.375000 0.378680
vt -3.000000 0.378680
vt -3.000000 -2.816630
vt 0.000000 0.375000
vt 3.000000 -0.000000
vt 3.000000 2.625000
vt -0.000000 1.650000
vn 0.0000 1.0000 0.0000
vn -1.0000 0.0000 0.0000
vn 1.0000 0.0000 0.0000
vn 0.0000 0.0000 1.0000
vn 0.0000 0.0000 -1.0000
vn -0.3443 -0.9389 -0.0000
usemtl Asphalt.140
s 1
f 1/1/1 2/2/1 3/3/1
f 4/4/2 5/5/2 1/6/2
f 6/7/3 3/8/3 2/9/3
f 1/1/1 5/10/1 2/2/1
f 4/4/2 7/11/2 5/5/2
f 6/7/3 8/12/3 3/8/3
usemtl Stone.169
f 3/13/4 9/14/4 1/15/4
f 10/16/3 8/12/3 6/7/3
f 11/17/4 12/18/4 13/19/4
f 11/20/1 14/21/1 15/22/1
f 7/11/2 4/4/2 16/23/2
f 17/24/5 18/25/5 19/26/5
f 17/27/1 9/28/1 20/29/1
f 5/30/5 14/31/5 2/32/5
f 3/13/4 20/33/4 9/14/4
f 14/34/3 13/35/3 2/9/3
f 13/35/3 12/36/3 2/9/3
f 12/36/3 21/37/3 6/7/3
f 21/37/3 10/16/3 6/7/3
f 22/38/3 17/39/3 3/8/3
f 17/39/3 20/40/3 3/8/3
f 6/7/3 2/9/3 12/36/3
f 10/16/3 22/38/3 8/12/3
f 3/8/3 8/12/3 22/38/3
f 11/17/4 23/41/4 12/18/4
f 11/20/1 13/42/1 14/21/1
f 24/43/2 23/44/2 7/11/2
f 23/44/2 11/45/2 5/5/2
f 7/11/2 23/44/2 5/5/2
f 11/45/2 15/46/2 5/5/2
f 19/47/2 18/48/2 1/6/2
f 18/48/2 16/23/2 4/4/2
f 1/6/2 9/49/2 19/47/2
f 4/4/2 1/6/2 18/48/2
f 24/43/2 7/11/2 16/23/2
f 17/24/5 22/50/5 18/25/5
f 17/27/1 19/51/1 9/28/1
f 5/30/5 15/52/5 14/31/5
usemtl Grass.085
f 10/53/6 21/54/6 16/55/6
f 23/44/2 25/56/2 26/57/2
f 12/58/1 26/59/1 27/60/1
f 21/37/3 27/61/3 28/62/3
f 25/56/4 27/63/4 26/57/4
f 16/23/2 29/64/2 30/65/2
f 18/66/1 31/67/1 29/68/1
f 22/38/3 32/69/3 31/70/3
f 30/71/5 31/72/5 32/73/5
f 28/74/6 25/75/6 24/76/6
f 16/55/6 30/77/6 32/78/6
f 28/74/6 24/76/6 21/54/6
f 24/76/6 16/55/6 21/54/6
f 32/78/6 10/53/6 16/55/6
f 23/44/2 24/43/2 25/56/2
f 12/58/1 23/79/1 26/59/1
f 21/37/3 12/36/3 27/61/3
f 25/56/4 28/80/4 27/63/4
f 16/23/2 18/48/2 29/64/2
f 18/66/1 22/81/1 31/67/1
f 22/38/3 10/16/3 32/69/3
f 30/71/5 29/82/5 31/72/5
