# Blender v2.79 (sub 7) OBJ File: ''
# www.blender.org
mtllib roadTile_245.mtl
o Mesh1_Group1_Model.037
v 0.000000 1.730000 0.000000
v 0.000000 1.730000 -0.750000
v 0.000000 1.400000 -0.750000
v 0.000000 1.400000 -2.250000
v 0.000000 1.730000 -2.250000
v 0.000000 1.730000 -3.000000
v 0.000000 0.000000 -3.000000
v 0.000000 0.000000 0.000000
v 3.000000 1.730000 0.000000
v 3.000000 1.730000 -0.750000
v 3.000000 0.000000 0.000000
v 3.000000 0.000000 -3.000000
v 3.000000 1.730000 -3.000000
v 3.000000 1.730000 -2.250000
v 3.000000 0.600000 -2.250000
v 3.000000 0.300000 -2.250000
v 3.000000 0.300000 -0.750000
v 3.000000 0.600000 -0.750000
vt 0.000000 0.000000
vt -0.750000 1.400000
vt -2.250000 1.400000
vt 0.000000 0.000000
vt 3.000000 0.750000
vt 0.000000 0.750000
vt 3.000000 -0.000000
vt 0.000000 1.730000
vt -0.000000 3.000000
vt -3.000000 0.000000
vt -0.000000 0.000000
vt -3.000000 1.730000
vt -3.000000 0.000000
vt 3.000000 3.000000
vt 0.000000 2.250000
vt 3.000000 2.250000
vt 0.000000 0.000000
vt 3.000000 0.000000
vt 2.250000 0.300000
vt 3.000000 1.730000
vt 0.000000 1.730000
vt 3.000000 0.600000
vt -3.000000 1.730000
vt -3.000000 0.600000
vt -0.000000 1.730000
vt -0.750000 1.730000
vt -3.000000 1.730000
vt -3.000000 0.000000
vt -2.250000 1.730000
vt 3.000000 0.000000
vt 3.000000 1.730000
vt -3.000000 3.000000
vt -0.000000 1.730000
vt 0.000000 3.000000
vt 0.750000 1.730000
vt 0.000000 1.730000
vt 0.750000 0.600000
vt 3.000000 1.730000
vt 2.250000 0.600000
vt 2.250000 1.730000
vt 0.750000 0.300000
vt 0.750000 -2.595950
vt 2.250000 0.609809
vt 0.750000 0.609809
vt 2.250000 -2.595950
vn -1.0000 0.0000 0.0000
vn 0.0000 1.0000 0.0000
vn 0.0000 -0.0000 1.0000
vn 0.0000 -1.0000 -0.0000
vn 0.0000 0.0000 -1.0000
vn 1.0000 0.0000 0.0000
vn 0.3525 0.9358 0.0000
usemtl Stone.030
s 1
f 8/1/1 3/2/1 4/3/1
f 1/4/2 10/5/2 2/6/2
f 11/7/3 1/8/3 8/1/3
f 7/9/4 11/10/4 8/1/4
f 7/11/5 13/12/5 12/13/5
f 13/14/2 5/15/2 14/16/2
f 11/17/6 12/18/6 16/19/6
f 14/20/3 5/21/3 15/22/3
f 10/23/5 18/24/5 2/25/5
f 8/1/1 1/8/1 3/2/1
f 1/8/1 2/26/1 3/2/1
f 6/27/1 7/28/1 4/3/1
f 7/28/1 8/1/1 4/3/1
f 4/3/1 5/29/1 6/27/1
f 1/4/2 9/30/2 10/5/2
f 11/7/3 9/31/3 1/8/3
f 7/9/4 12/32/4 11/10/4
f 7/11/5 6/33/5 13/12/5
f 13/14/2 6/34/2 5/15/2
f 10/35/6 9/36/6 18/37/6
f 9/36/6 11/17/6 18/37/6
f 12/18/6 13/38/6 15/39/6
f 13/38/6 14/40/6 15/39/6
f 15/39/6 16/19/6 12/18/6
f 17/41/6 18/37/6 11/17/6
f 16/19/6 17/41/6 11/17/6
usemtl Asphalt.022
f 18/42/7 5/43/7 2/44/7
f 17/41/6 15/39/6 18/37/6
f 5/29/1 3/2/1 2/26/1
f 18/42/7 15/45/7 5/43/7
f 17/41/6 16/19/6 15/39/6
f 5/29/1 4/3/1 3/2/1
