# Blender v2.79 (sub 7) OBJ File: ''
# www.blender.org
mtllib roadTile_093.mtl
o Mesh1_Group1_Model.093
v -0.375000 0.630000 -1.500000
v -0.358960 0.570000 -1.255260
v -0.358960 0.630000 -1.255260
v 1.500000 0.630000 0.562500
v -1.500000 0.570000 0.562500
v -1.500000 0.630000 0.562500
v -0.232270 0.630000 -0.782470
v -0.123800 0.570000 -0.562500
v -0.123800 0.630000 -0.562500
v -0.311110 0.630000 -1.014710
v -0.232270 0.570000 -0.782470
v -0.311110 0.570000 -1.014710
v -0.375000 0.570000 -1.500000
v 1.500000 0.570000 0.562500
v 0.607480 0.630000 -0.815140
v 0.525720 0.630000 -0.937500
v 1.500000 0.000000 -1.500000
v 0.375000 0.570000 -1.500000
v 0.562500 0.570000 -1.500000
v 1.500000 0.570000 -0.375000
v 1.500000 0.570000 0.375000
v -1.500000 0.000000 1.500000
v 1.500000 0.000000 1.500000
v 1.500000 0.630000 1.500000
v -1.500000 0.630000 1.500000
v -1.500000 0.570000 0.375000
v -1.500000 0.570000 -0.375000
v 1.014710 0.630000 0.311110
v 1.255260 0.630000 0.358960
v 1.500000 0.630000 -0.375000
v 1.257360 0.630000 -0.594440
v 1.377630 0.630000 -0.570520
v 1.500000 0.630000 -1.500000
v -1.500000 0.630000 -0.562500
v -0.492220 0.630000 -0.966190
v -0.544855 0.630000 -1.230790
v -1.500000 0.630000 0.375000
v 0.244430 0.630000 0.136290
v 0.041590 0.630000 -0.041590
v 0.384620 0.630000 -1.353160
v 0.375000 0.630000 -1.500000
v 0.413330 0.630000 -1.208830
v 0.882460 0.630000 -0.562500
v 0.815140 0.630000 -0.607480
v 0.704500 0.630000 -0.704500
v 0.460640 0.630000 -1.069480
v 0.562500 0.630000 -1.500000
v -1.500000 0.000000 -1.500000
v -1.500000 0.630000 -1.500000
v -0.562500 0.570000 -1.500000
v -0.562500 0.630000 -1.500000
v 1.500000 0.570000 -0.562500
v 1.500000 0.630000 -0.562500
v 1.500000 0.630000 0.375000
v -1.500000 0.570000 -0.562500
v -1.500000 0.630000 -0.375000
v 0.001490 0.630000 -0.375000
v 0.012460 0.630000 -0.358570
v 0.174170 0.630000 -0.174170
v 0.358570 0.630000 -0.012460
v 0.562500 0.630000 0.123800
v 0.782470 0.630000 0.232270
v 0.570520 0.630000 -1.377630
v 0.594440 0.630000 -1.257360
v 0.633860 0.630000 -1.141230
v 0.688100 0.630000 -1.031250
v 0.756230 0.630000 -0.929290
v 0.837090 0.630000 -0.837090
v 0.929290 0.630000 -0.756230
v 1.031250 0.630000 -0.688100
v 1.141230 0.630000 -0.633860
v -0.332410 0.630000 -0.562500
v -0.405500 0.630000 -0.710720
v -0.223540 0.630000 -0.375000
v 0.648860 0.630000 0.375000
v 0.468750 0.630000 0.286180
v -0.136290 0.630000 -0.244430
v 0.882460 0.570000 -0.562500
v 0.001490 0.570000 -0.375000
v 0.012460 0.570000 -0.358570
v 0.174170 0.570000 -0.174170
v 0.358570 0.570000 -0.012460
v 0.562500 0.570000 0.123800
v 0.782470 0.570000 0.232270
v 1.014710 0.570000 0.311110
v 1.255260 0.570000 0.358960
v 0.570520 0.570000 -1.377630
v 0.594440 0.570000 -1.257360
v 0.633860 0.570000 -1.141230
v 0.688100 0.570000 -1.031250
v 0.756230 0.570000 -0.929290
v 0.837090 0.570000 -0.837090
v 0.929290 0.570000 -0.756230
v 1.031250 0.570000 -0.688100
v 1.141230 0.570000 -0.633860
v 1.257360 0.570000 -0.594440
v 1.377630 0.570000 -0.570520
v 0.384620 0.570000 -1.353160
v 0.413330 0.570000 -1.208830
v 0.460640 0.570000 -1.069480
v 0.525720 0.570000 -0.937500
v 0.607480 0.570000 -0.815140
v 0.704500 0.570000 -0.704500
v 0.815140 0.570000 -0.607480
v -0.332410 0.570000 -0.562500
v -0.405500 0.570000 -0.710720
v -0.492220 0.570000 -0.966190
v -0.544855 0.570000 -1.230790
v 0.648860 0.570000 0.375000
v 0.468750 0.570000 0.286180
v 0.244430 0.570000 0.136290
v 0.041590 0.570000 -0.041590
v -0.136290 0.570000 -0.244430
v -0.223540 0.570000 -0.375000
vt -2.920000 0.630000
vt -2.674740 0.570000
vt -2.674740 0.630000
vt -3.000000 0.630000
vt -0.000000 0.570000
vt -0.000000 0.630000
vt -1.486380 0.630000
vt -1.241120 0.570000
vt -1.241120 0.630000
vt -1.999100 0.630000
vt -1.753840 0.570000
vt -1.753840 0.630000
vt -2.479720 0.630000
vt -2.234450 0.570000
vt -2.234450 0.630000
vt -2.920000 0.570000
vt -3.000000 0.570000
vt -1.486380 0.570000
vt -1.999100 0.570000
vt -2.479720 0.570000
vt 1.376200 2.062500
vt 2.107480 2.315140
vt 2.025720 2.437500
vt -3.000000 0.000000
vt -1.875000 0.570000
vt -2.062500 0.570000
vt 3.000000 0.000000
vt 1.875000 0.570000
vt 1.125000 0.570000
vt -0.000000 -0.000000
vt -3.000000 3.000000
vt -3.000000 -0.000000
vt 3.000000 0.630000
vt 0.000000 0.630000
vt -1.125000 0.570000
vt -1.875000 0.570000
vt 3.000000 0.937500
vt 0.000000 0.000000
vt 3.000000 0.000000
vt 2.514710 1.188890
vt 2.755260 1.141040
vt 3.000000 1.875000
vt 2.757360 2.094440
vt 2.877630 2.070520
vt 3.000000 3.000000
vt -0.000000 2.062500
vt 1.007780 2.466190
vt 0.955145 2.730790
vt 0.000000 1.125000
vt 1.744430 1.363710
vt 1.541590 1.541590
vt 1.884620 2.853160
vt 1.875000 3.000000
vt 1.125000 3.000000
vt 1.141040 2.755260
vt 1.188890 2.514710
vt 1.913330 2.708830
vt 1.267730 2.282470
vt 2.382460 2.062500
vt 2.315140 2.107480
vt 2.204500 2.204500
vt 1.960640 2.569480
vt -2.062500 0.630000
vt -3.000000 0.630000
vt -0.000000 0.000000
vt -1.125000 0.570000
vt -0.000000 0.630000
vt -0.937500 0.570000
vt -0.937500 0.630000
vt -1.125000 0.630000
vt -1.875000 0.630000
vt -0.000000 0.630000
vt -0.000000 0.000000
vt 0.937500 0.570000
vt 3.000000 0.630000
vt 2.062500 0.570000
vt 2.062500 0.630000
vt 0.937500 0.630000
vt 1.875000 0.630000
vt 1.125000 0.630000
vt -0.000000 3.000000
vt 3.000000 0.000000
vt -3.000000 0.630000
vt -3.000000 0.000000
vt -2.062500 0.570000
vt -0.937500 0.570000
vt -0.937500 0.630000
vt -2.062500 0.630000
vt -1.125000 0.630000
vt -1.875000 0.630000
vt 0.000000 0.937500
vt 3.000000 1.125000
vt 1.501490 1.875000
vt 1.512460 1.858570
vt 1.674170 1.674170
vt 1.858570 1.512460
vt 2.062500 1.376200
vt 2.282470 1.267730
vt 3.000000 2.062500
vt 2.062500 3.000000
vt 2.070520 2.877630
vt 2.094440 2.757360
vt 2.133860 2.641230
vt 2.188100 2.531250
vt 2.256230 2.429290
vt 2.337090 2.337090
vt 2.429290 2.256230
vt 2.531250 2.188100
vt 2.641230 2.133860
vt 0.000000 3.000000
vt 1.167590 2.062500
vt 1.094500 2.210720
vt 0.937500 3.000000
vt 0.000000 1.875000
vt 1.276460 1.875000
vt 2.148860 1.125000
vt 1.968750 1.213820
vt 1.363710 1.744430
vt 2.382460 2.062500
vt 1.376200 2.062500
vt 1.501490 1.875000
vt -3.000000 0.630000
vt -1.501490 0.570000
vt -1.501490 0.630000
vt -0.724825 0.630000
vt -0.705067 0.570000
vt -0.705067 0.630000
vt -0.400113 0.630000
vt -0.154851 0.570000
vt -0.154851 0.630000
vt 0.154851 0.630000
vt 0.400113 0.570000
vt 0.400113 0.630000
vt 0.705067 0.630000
vt 0.950329 0.570000
vt 0.950329 0.630000
vt 1.241120 0.630000
vt 1.486380 0.570000
vt 1.486380 0.630000
vt 1.753840 0.630000
vt 1.999100 0.570000
vt 1.999100 0.630000
vt 2.234450 0.630000
vt 2.479720 0.570000
vt 2.479720 0.630000
vt 2.674740 0.630000
vt 2.920000 0.570000
vt 2.920000 0.630000
vt 2.736050 0.630000
vt 2.858680 0.570000
vt 2.858680 0.630000
vt -2.858680 0.630000
vt -2.736050 0.570000
vt -2.736050 0.630000
vt -2.418400 0.630000
vt -2.295770 0.570000
vt -2.295770 0.630000
vt -1.937790 0.630000
vt -1.815160 0.570000
vt -1.815160 0.630000
vt -1.425070 0.630000
vt -1.302440 0.570000
vt -1.302440 0.630000
vt -0.889014 0.630000
vt -0.766383 0.570000
vt -0.766383 0.630000
vt -0.338797 0.630000
vt -0.216167 0.570000
vt -0.216167 0.630000
vt 0.216167 0.630000
vt 0.338797 0.570000
vt 0.338797 0.630000
vt 0.766383 0.630000
vt 0.889014 0.570000
vt 0.889014 0.630000
vt 1.302440 0.630000
vt 1.425070 0.570000
vt 1.425070 0.630000
vt 1.815160 0.630000
vt 1.937790 0.570000
vt 1.937790 0.630000
vt 2.295770 0.630000
vt 2.418400 0.570000
vt 2.418400 0.630000
vt 2.723790 0.630000
vt 2.870950 0.570000
vt 2.870950 0.630000
vt 2.283510 0.630000
vt 2.430660 0.570000
vt 2.430660 0.630000
vt 1.802890 0.630000
vt 1.950050 0.570000
vt 1.950050 0.630000
vt 1.290170 0.630000
vt 1.437330 0.570000
vt 1.437330 0.630000
vt 0.754120 0.630000
vt 0.901277 0.570000
vt 0.901277 0.630000
vt 0.203903 0.630000
vt 0.351060 0.570000
vt 0.351060 0.630000
vt -0.351060 0.630000
vt -0.203903 0.570000
vt -0.203903 0.630000
vt -0.835077 0.630000
vt -0.754120 0.570000
vt -0.754120 0.630000
vt 1.376200 0.630000
vt 2.382460 0.570000
vt 2.382460 0.630000
vt 2.662470 0.630000
vt 2.932260 0.570000
vt 2.932260 0.630000
vt -0.000000 0.630000
vt 1.167590 0.570000
vt 1.167590 0.630000
vt 1.333390 0.630000
vt 1.498650 0.570000
vt 1.498650 0.630000
vt 1.741580 0.630000
vt 2.011370 0.570000
vt 2.011370 0.630000
vt 2.222190 0.630000
vt 2.491980 0.570000
vt 2.491980 0.630000
vt -1.276460 0.630000
vt -0.000000 0.570000
vt -0.000000 0.630000
vt 0.000000 0.630000
vt 2.148860 0.570000
vt 2.148860 0.630000
vt -1.429680 0.630000
vt -1.228860 0.570000
vt -1.228860 0.630000
vt -0.962592 0.630000
vt -0.692804 0.570000
vt -0.692804 0.630000
vt -0.412376 0.630000
vt -0.142588 0.570000
vt -0.142588 0.630000
vt 0.142588 0.630000
vt 0.412376 0.570000
vt 0.412376 0.630000
vt 0.692804 0.630000
vt 0.849840 0.570000
vt 0.849840 0.630000
vt 3.000000 1.875000
vt 3.000000 2.062500
vt 2.877630 2.070520
vt 2.757360 2.094440
vt 3.000000 0.937500
vt 3.000000 1.125000
vt 2.755260 1.141040
vt 0.000000 1.125000
vt 0.000000 0.937500
vt 2.148860 1.125000
vt 1.744430 1.363710
vt 1.968750 1.213820
vt 2.062500 1.376200
vt 2.514710 1.188890
vt 2.282470 1.267730
vt 1.363710 1.744430
vt 1.541590 1.541590
vt 1.674170 1.674170
vt 0.000000 2.062500
vt 0.000000 1.875000
vt 1.167590 2.062500
vt 1.276460 1.875000
vt 1.512460 1.858570
vt 1.858570 1.512460
vt 1.094500 2.210720
vt 1.267730 2.282470
vt 0.955145 2.730790
vt 1.007780 2.466190
vt 1.141040 2.755260
vt 1.188890 2.514710
vt 1.125000 3.000000
vt 0.937500 3.000000
vt 2.070520 2.877630
vt 2.062500 3.000000
vt 1.875000 3.000000
vt 1.884620 2.853160
vt 1.913330 2.708830
vt 2.094440 2.757360
vt 1.960640 2.569480
vt 2.133860 2.641230
vt 2.025720 2.437500
vt 2.107480 2.315140
vt 2.188100 2.531250
vt 2.204500 2.204500
vt 2.337090 2.337090
vt 2.256230 2.429290
vt 2.315140 2.107480
vt 2.429290 2.256230
vt 2.531250 2.188100
vt 2.641230 2.133860
vt -3.000000 0.570000
vt -0.724825 0.570000
vt -0.400113 0.570000
vt 0.154851 0.570000
vt 0.705067 0.570000
vt 1.241120 0.570000
vt 1.753840 0.570000
vt 2.234450 0.570000
vt 2.674740 0.570000
vt 2.736050 0.570000
vt -2.858680 0.570000
vt -2.418400 0.570000
vt -1.937790 0.570000
vt -1.425070 0.570000
vt -0.889014 0.570000
vt -0.338797 0.570000
vt 0.216167 0.570000
vt 0.766383 0.570000
vt 1.302440 0.570000
vt 1.815160 0.570000
vt 2.295770 0.570000
vt 2.723790 0.570000
vt 2.283510 0.570000
vt 1.802890 0.570000
vt 1.290170 0.570000
vt 0.754120 0.570000
vt 0.203903 0.570000
vt -0.351060 0.570000
vt -0.835077 0.570000
vt 1.376200 0.570000
vt 2.662470 0.570000
vt -0.000000 0.570000
vt 1.333390 0.570000
vt 1.741580 0.570000
vt 2.222190 0.570000
vt -1.276460 0.570000
vt 0.000000 0.570000
vt -1.429680 0.570000
vt -0.962592 0.570000
vt -0.412376 0.570000
vt 0.142588 0.570000
vt 0.692804 0.570000
vn -0.9979 0.0000 0.0654
vn -0.9914 0.0000 0.1305
vn 0.0000 0.0000 -1.0000
vn -0.9239 0.0000 0.3827
vn -0.8969 0.0000 0.4423
vn -0.9659 0.0000 0.2588
vn 0.0000 1.0000 -0.0000
vn 1.0000 0.0000 0.0000
vn 0.0000 -1.0000 -0.0000
vn 0.0000 0.0000 1.0000
vn -1.0000 0.0000 0.0000
vn -0.8317 0.0000 0.5553
vn -0.7935 0.0000 0.6086
vn -0.7071 0.0000 0.7071
vn -0.6088 0.0000 0.7934
vn -0.5000 0.0000 0.8660
vn -0.3827 0.0000 0.9239
vn -0.2588 0.0000 0.9659
vn -0.1305 0.0000 0.9914
vn -0.0654 0.0000 0.9979
vn -0.8660 0.0000 0.5000
vn -0.7933 0.0000 0.6088
vn -0.6088 0.0000 0.7933
vn 0.9914 0.0000 -0.1305
vn 0.9979 0.0000 -0.0654
vn 0.9659 0.0000 -0.2588
vn 0.9239 0.0000 -0.3827
vn 0.8660 0.0000 -0.5000
vn 0.7934 0.0000 -0.6087
vn 0.7071 0.0000 -0.7071
vn 0.6087 0.0000 -0.7934
vn 0.5556 0.0000 -0.8315
vn 0.8969 0.0000 -0.4423
vn 0.4423 0.0000 -0.8969
vn 0.5000 0.0000 -0.8660
vn 0.6088 0.0000 -0.7934
vn 0.7933 0.0000 -0.6088
vn 0.8315 0.0000 -0.5556
usemtl Light_Asphalt
s 1
f 1/1/1 2/2/2 3/3/2
f 4/4/3 5/5/3 6/6/3
f 7/7/4 8/8/5 9/9/5
f 10/10/6 11/11/4 7/12/4
f 3/13/2 12/14/6 10/15/6
f 1/1/1 13/16/1 2/2/2
f 4/4/3 14/17/3 5/5/3
f 7/7/4 11/18/4 8/8/5
f 10/10/6 12/19/6 11/11/4
f 3/13/2 2/20/2 12/14/6
usemtl Stone.074
f 9/21/7 15/22/7 16/23/7
f 17/24/3 18/25/3 19/26/3
f 17/27/8 20/28/8 21/29/8
f 22/30/9 17/31/9 23/32/9
f 22/30/10 24/33/10 25/34/10
f 22/30/11 26/35/11 27/36/11
f 4/37/7 25/38/7 24/39/7
f 28/40/7 29/41/7 30/42/7
f 31/43/7 32/44/7 33/45/7
f 34/46/7 35/47/7 36/48/7
f 37/49/7 38/50/7 39/51/7
f 40/52/7 41/53/7 1/54/7
f 1/54/7 3/55/7 40/52/7
f 3/55/7 10/56/7 42/57/7
f 10/56/7 7/58/7 42/57/7
f 7/58/7 9/21/7 16/23/7
f 9/21/7 43/59/7 44/60/7
f 9/21/7 44/60/7 45/61/7
f 3/55/7 42/57/7 40/52/7
f 7/58/7 16/23/7 46/62/7
f 15/22/7 9/21/7 45/61/7
f 46/62/7 42/57/7 7/58/7
f 47/63/3 33/64/3 19/26/3
f 33/64/3 17/24/3 19/26/3
f 17/24/3 48/65/3 13/66/3
f 48/65/3 49/67/3 50/68/3
f 49/67/3 51/69/3 50/68/3
f 13/66/3 1/70/3 41/71/3
f 48/65/3 50/68/3 13/66/3
f 13/66/3 41/71/3 18/25/3
f 17/24/3 13/66/3 18/25/3
f 24/72/8 23/73/8 14/74/8
f 23/73/8 17/27/8 21/29/8
f 14/74/8 23/73/8 21/29/8
f 17/27/8 33/75/8 52/76/8
f 33/75/8 53/77/8 52/76/8
f 14/74/8 4/78/8 24/72/8
f 30/79/8 54/80/8 21/29/8
f 20/28/8 30/79/8 21/29/8
f 17/27/8 52/76/8 20/28/8
f 22/30/9 48/81/9 17/31/9
f 22/30/10 23/82/10 24/33/10
f 49/83/11 48/84/11 55/85/11
f 48/84/11 22/30/11 27/36/11
f 55/85/11 48/84/11 27/36/11
f 22/30/11 25/34/11 5/86/11
f 25/34/11 6/87/11 5/86/11
f 55/85/11 34/88/11 49/83/11
f 37/89/11 56/90/11 27/36/11
f 26/35/11 37/89/11 27/36/11
f 22/30/11 5/86/11 26/35/11
f 4/37/7 6/91/7 25/38/7
f 54/92/7 30/42/7 29/41/7
f 30/42/7 57/93/7 58/94/7
f 59/95/7 30/42/7 58/94/7
f 59/95/7 60/96/7 30/42/7
f 60/96/7 61/97/7 30/42/7
f 61/97/7 62/98/7 30/42/7
f 62/98/7 28/40/7 30/42/7
f 53/99/7 33/45/7 32/44/7
f 33/45/7 47/100/7 63/101/7
f 64/102/7 33/45/7 63/101/7
f 64/102/7 65/103/7 33/45/7
f 65/103/7 66/104/7 33/45/7
f 66/104/7 67/105/7 33/45/7
f 67/105/7 68/106/7 33/45/7
f 68/106/7 69/107/7 33/45/7
f 69/107/7 70/108/7 33/45/7
f 70/108/7 71/109/7 33/45/7
f 71/109/7 31/43/7 33/45/7
f 49/110/7 34/46/7 36/48/7
f 34/46/7 72/111/7 73/112/7
f 34/46/7 73/112/7 35/47/7
f 36/48/7 51/113/7 49/110/7
f 56/114/7 37/49/7 74/115/7
f 37/49/7 75/116/7 76/117/7
f 37/49/7 76/117/7 38/50/7
f 77/118/7 74/115/7 37/49/7
f 39/51/7 77/118/7 37/49/7
usemtl Grey_Asphalt.005
f 78/119/7 8/120/7 79/121/7
f 30/122/3 79/123/3 57/124/3
f 57/125/12 80/126/13 58/127/13
f 58/128/13 81/129/14 59/130/14
f 59/131/14 82/132/15 60/133/15
f 60/134/15 83/135/16 61/136/16
f 61/137/16 84/138/17 62/139/17
f 62/140/17 85/141/18 28/142/18
f 28/143/18 86/144/19 29/145/19
f 29/146/19 21/147/20 54/148/20
f 32/149/19 52/150/20 53/151/20
f 47/152/1 87/153/2 63/154/2
f 63/155/2 88/156/6 64/157/6
f 64/158/6 89/159/4 65/160/4
f 65/161/4 90/162/21 66/163/21
f 66/164/21 91/165/22 67/166/22
f 67/167/22 92/168/14 68/169/14
f 68/170/14 93/171/23 69/172/23
f 69/173/23 94/174/16 70/175/16
f 70/176/16 95/177/17 71/178/17
f 71/179/17 96/180/18 31/181/18
f 31/182/18 97/183/19 32/184/19
f 40/185/24 18/186/25 41/187/25
f 42/188/26 98/189/24 40/190/24
f 46/191/27 99/192/26 42/193/26
f 16/194/28 100/195/27 46/196/27
f 15/197/29 101/198/28 16/199/28
f 45/200/30 102/201/29 15/202/29
f 44/203/31 103/204/30 45/205/30
f 43/206/32 104/207/31 44/208/31
f 9/209/10 78/210/10 43/211/10
f 36/212/24 50/213/25 51/214/25
f 34/215/10 105/216/10 72/217/10
f 72/218/33 106/219/27 73/220/27
f 73/221/27 107/222/26 35/223/26
f 35/224/26 108/225/24 36/226/24
f 74/227/3 27/228/3 56/229/3
f 37/230/10 109/231/10 75/232/10
f 75/233/34 110/234/35 76/235/35
f 76/236/35 111/237/36 38/238/36
f 38/239/36 112/240/30 39/241/30
f 39/242/30 113/243/37 77/244/37
f 77/245/37 114/246/38 74/247/38
f 79/121/7 20/248/7 78/119/7
f 20/248/7 52/249/7 97/250/7
f 20/248/7 97/250/7 96/251/7
f 20/248/7 96/251/7 78/119/7
f 14/252/7 21/253/7 86/254/7
f 26/255/7 5/256/7 109/257/7
f 5/256/7 14/252/7 109/257/7
f 111/258/7 110/259/7 83/260/7
f 110/259/7 109/257/7 83/260/7
f 14/252/7 86/254/7 85/261/7
f 14/252/7 85/261/7 109/257/7
f 85/261/7 84/262/7 109/257/7
f 113/263/7 112/264/7 81/265/7
f 112/264/7 111/258/7 81/265/7
f 55/266/7 27/267/7 105/268/7
f 27/267/7 114/269/7 105/268/7
f 114/269/7 113/263/7 79/121/7
f 109/257/7 84/262/7 83/260/7
f 113/263/7 81/265/7 80/270/7
f 111/258/7 83/260/7 82/271/7
f 111/258/7 82/271/7 81/265/7
f 106/272/7 105/268/7 11/273/7
f 105/268/7 114/269/7 8/120/7
f 11/273/7 105/268/7 8/120/7
f 108/274/7 107/275/7 2/276/7
f 107/275/7 106/272/7 12/277/7
f 13/278/7 50/279/7 108/274/7
f 2/276/7 13/278/7 108/274/7
f 107/275/7 12/277/7 2/276/7
f 12/277/7 106/272/7 11/273/7
f 113/263/7 80/270/7 79/121/7
f 87/280/7 19/281/7 18/282/7
f 18/282/7 98/283/7 87/280/7
f 98/283/7 99/284/7 88/285/7
f 99/284/7 100/286/7 89/287/7
f 100/286/7 101/288/7 89/287/7
f 101/288/7 102/289/7 90/290/7
f 102/289/7 103/291/7 92/292/7
f 90/290/7 102/289/7 91/293/7
f 103/291/7 104/294/7 92/292/7
f 104/294/7 78/119/7 93/295/7
f 92/292/7 104/294/7 93/295/7
f 98/283/7 88/285/7 87/280/7
f 89/287/7 88/285/7 99/284/7
f 91/293/7 102/289/7 92/292/7
f 89/287/7 101/288/7 90/290/7
f 94/296/7 93/295/7 78/119/7
f 95/297/7 94/296/7 78/119/7
f 114/269/7 79/121/7 8/120/7
f 96/251/7 95/297/7 78/119/7
f 30/122/3 20/298/3 79/123/3
f 57/125/12 79/299/12 80/126/13
f 58/128/13 80/300/13 81/129/14
f 59/131/14 81/301/14 82/132/15
f 60/134/15 82/302/15 83/135/16
f 61/137/16 83/303/16 84/138/17
f 62/140/17 84/304/17 85/141/18
f 28/143/18 85/305/18 86/144/19
f 29/146/19 86/306/19 21/147/20
f 32/149/19 97/307/19 52/150/20
f 47/152/1 19/308/1 87/153/2
f 63/155/2 87/309/2 88/156/6
f 64/158/6 88/310/6 89/159/4
f 65/161/4 89/311/4 90/162/21
f 66/164/21 90/312/21 91/165/22
f 67/167/22 91/313/22 92/168/14
f 68/170/14 92/314/14 93/171/23
f 69/173/23 93/315/23 94/174/16
f 70/176/16 94/316/16 95/177/17
f 71/179/17 95/317/17 96/180/18
f 31/182/18 96/318/18 97/183/19
f 40/185/24 98/319/24 18/186/25
f 42/188/26 99/320/26 98/189/24
f 46/191/27 100/321/27 99/192/26
f 16/194/28 101/322/28 100/195/27
f 15/197/29 102/323/29 101/198/28
f 45/200/30 103/324/30 102/201/29
f 44/203/31 104/325/31 103/204/30
f 43/206/32 78/326/32 104/207/31
f 9/209/10 8/327/10 78/210/10
f 36/212/24 108/328/24 50/213/25
f 34/215/10 55/329/10 105/216/10
f 72/218/33 105/330/33 106/219/27
f 73/221/27 106/331/27 107/222/26
f 35/224/26 107/332/26 108/225/24
f 74/227/3 114/333/3 27/228/3
f 37/230/10 26/334/10 109/231/10
f 75/233/34 109/335/34 110/234/35
f 76/236/35 110/336/35 111/237/36
f 38/239/36 111/337/36 112/240/30
f 39/242/30 112/338/30 113/243/37
f 77/245/37 113/339/37 114/246/38
