# Blender v2.79 (sub 7) OBJ File: ''
# www.blender.org
mtllib roadTile_247.mtl
o Mesh1_Group1_Model.086
v 0.000000 0.470000 0.000000
v 1.718180 0.470000 0.000000
v 3.000000 0.000000 0.000000
v 3.000000 1.100000 0.000000
v 0.000000 1.100000 0.000000
v 0.000000 0.470000 -3.000000
v 1.718180 0.470000 -3.000000
v 0.000000 1.100000 -3.000000
v 0.000000 1.100000 -0.750000
v 0.000000 1.070000 -0.750000
v 0.000000 0.770000 -0.750000
v 0.000000 0.770000 -2.250000
v 0.000000 1.070000 -2.250000
v 0.000000 1.100000 -2.250000
v 3.000000 1.100000 -3.000000
v 3.000000 0.000000 -3.000000
v 3.000000 1.100000 -2.250000
v 3.000000 1.070000 -2.250000
v 3.000000 0.770000 -2.250000
v 3.000000 0.770000 -0.750000
v 3.000000 1.070000 -0.750000
v 3.000000 1.100000 -0.750000
vt 1.718180 0.470000
vt 3.000000 1.100000
vt 0.000000 1.100000
vt -0.000000 3.000000
vt -1.718180 0.000000
vt -0.000000 0.000000
vt -3.000000 0.470000
vt 0.000000 0.470000
vt -0.750000 0.770000
vt -1.718180 0.470000
vt -0.000000 0.470000
vt -0.000000 1.100000
vt 0.000000 0.000000
vt 3.000000 0.000000
vt 0.750000 0.770000
vt -0.000000 -1.451360
vt -3.000000 -2.816630
vt -0.000000 -2.816630
vt 3.000000 3.000000
vt 0.000000 2.250000
vt 3.000000 2.250000
vt 3.000000 1.070000
vt 0.000000 1.100000
vt 0.000000 1.070000
vt -0.000000 1.070000
vt -3.000000 1.100000
vt -3.000000 1.070000
vt 0.000000 0.000000
vt 3.000000 0.750000
vt 0.000000 0.750000
vt 3.000000 -0.000000
vt -1.718180 3.000000
vt -2.250000 1.100000
vt -3.000000 1.100000
vt -2.250000 1.070000
vt -2.250000 0.770000
vt -0.750000 1.100000
vt -0.750000 1.070000
vt -3.000000 1.100000
vt -3.000000 0.000000
vt 3.000000 1.100000
vt 2.250000 0.770000
vt 2.250000 1.100000
vt 2.250000 1.070000
vt 0.750000 1.100000
vt 0.000000 1.100000
vt 0.750000 1.070000
vt -3.000000 -1.451360
vt 0.000000 3.000000
vt 3.000000 1.100000
vt -0.000000 1.100000
vt 3.000000 0.000000
vt 0.000000 2.250000
vt 3.000000 0.750000
vt 3.000000 2.250000
vt 0.000000 0.750000
vn -0.0000 -0.0000 1.0000
vn 0.0000 -1.0000 -0.0000
vn -1.0000 0.0000 0.0000
vn -0.0000 0.0000 -1.0000
vn 1.0000 0.0000 0.0000
vn -0.3443 -0.9389 -0.0000
vn 0.0000 1.0000 0.0000
usemtl Stone.067
s 1
f 2/1/1 4/2/1 5/3/1
f 6/4/2 2/5/2 1/6/2
f 6/7/3 1/8/3 11/9/3
f 7/10/4 6/11/4 8/12/4
f 3/13/5 16/14/5 20/15/5
f 2/16/6 16/17/6 3/18/6
f 15/19/7 14/20/7 17/21/7
f 18/22/1 14/23/1 13/24/1
f 10/25/4 22/26/4 21/27/4
f 5/28/7 22/29/7 9/30/7
f 5/3/1 1/8/1 2/1/1
f 2/1/1 3/31/1 4/2/1
f 6/4/2 7/32/2 2/5/2
f 14/33/3 8/34/3 13/35/3
f 8/34/3 6/7/3 12/36/3
f 13/35/3 8/34/3 12/36/3
f 1/8/3 5/3/3 11/9/3
f 5/3/3 9/37/3 10/38/3
f 10/38/3 11/9/3 5/3/3
f 11/9/3 12/36/3 6/7/3
f 8/12/4 15/39/4 7/10/4
f 15/39/4 16/40/4 7/10/4
f 16/14/5 15/41/5 19/42/5
f 15/41/5 17/43/5 18/44/5
f 18/44/5 19/42/5 15/41/5
f 22/45/5 4/46/5 21/47/5
f 4/46/5 3/13/5 20/15/5
f 21/47/5 4/46/5 20/15/5
f 16/14/5 19/42/5 20/15/5
f 2/16/6 7/48/6 16/17/6
f 15/19/7 8/49/7 14/20/7
f 18/22/1 17/50/1 14/23/1
f 10/25/4 9/51/4 22/26/4
f 5/28/7 4/52/7 22/29/7
usemtl Asphalt.053
f 13/53/7 21/54/7 18/55/7
f 12/36/3 10/38/3 13/35/3
f 20/15/5 18/44/5 21/47/5
f 13/53/7 10/56/7 21/54/7
f 12/36/3 11/9/3 10/38/3
f 20/15/5 19/42/5 18/44/5
