# Blender v2.79 (sub 7) OBJ File: ''
# www.blender.org
mtllib roadTile_241.mtl
o Mesh1_Group1_Model.156
v 1.500000 0.000000 1.500000
v -1.500000 1.260000 1.500000
v -1.500000 0.000000 1.500000
v -1.500000 0.000000 -1.500000
v -1.500000 0.300000 0.750000
v 1.500000 1.260000 -1.500000
v 1.500000 0.000000 -1.500000
v -1.500000 1.260000 -0.750000
v 1.500000 1.260000 -0.750000
v 1.500000 0.300000 -0.750000
v 1.500000 0.600000 -0.750000
v -1.500000 0.600000 -0.750000
v -1.500000 0.600000 0.750000
v 1.500000 1.260000 0.750000
v 1.500000 0.600000 0.750000
v -1.500000 1.260000 0.750000
v 1.500000 1.260000 1.500000
v -1.500000 1.260000 -1.500000
v -1.500000 0.300000 -0.750000
v 1.500000 0.300000 0.750000
vt 3.000000 -0.000000
vt 0.000000 1.260000
vt 0.000000 0.000000
vt -0.000000 3.000000
vt -3.000000 0.000000
vt -3.000000 0.000000
vt -0.750000 0.300000
vt -0.000000 0.000000
vt -3.000000 1.260000
vt -3.000000 0.000000
vt 3.000000 3.000000
vt 0.000000 2.250000
vt 3.000000 2.250000
vt 0.000000 0.000000
vt 3.000000 0.000000
vt 2.250000 0.300000
vt 3.000000 0.600000
vt 0.000000 1.260000
vt 0.000000 0.600000
vt -0.000000 0.600000
vt -3.000000 1.260000
vt -3.000000 0.600000
vt 0.000000 0.000000
vt 3.000000 0.750000
vt 0.000000 0.750000
vt 3.000000 1.260000
vt -3.000000 3.000000
vt -2.250000 1.260000
vt -3.000000 1.260000
vt -2.250000 0.600000
vt -0.750000 0.600000
vt -0.750000 1.260000
vt -2.250000 0.300000
vt -0.000000 1.260000
vt 0.000000 3.000000
vt 0.750000 1.260000
vt 0.000000 1.260000
vt 0.750000 0.600000
vt 3.000000 1.260000
vt 2.250000 0.600000
vt 2.250000 1.260000
vt 0.750000 0.300000
vt 3.000000 1.260000
vt -0.000000 1.260000
vt 3.000000 0.000000
vt 0.000000 2.250000
vt 3.000000 0.750000
vt 3.000000 2.250000
vt 0.000000 0.750000
vn 0.0000 0.0000 1.0000
vn 0.0000 -1.0000 -0.0000
vn -1.0000 0.0000 0.0000
vn 0.0000 0.0000 -1.0000
vn 0.0000 1.0000 0.0000
vn 1.0000 0.0000 0.0000
usemtl Stone.132
s 1
f 1/1/1 2/2/1 3/3/1
f 4/4/2 1/5/2 3/3/2
f 4/6/3 3/3/3 5/7/3
f 4/8/4 6/9/4 7/10/4
f 6/11/5 8/12/5 9/13/5
f 1/14/6 7/15/6 10/16/6
f 11/17/1 8/18/1 12/19/1
f 13/20/4 14/21/4 15/22/4
f 2/23/5 14/24/5 16/25/5
f 1/1/1 17/26/1 2/2/1
f 4/4/2 7/27/2 1/5/2
f 8/28/3 18/29/3 12/30/3
f 18/29/3 4/6/3 12/30/3
f 3/3/3 2/2/3 13/31/3
f 2/2/3 16/32/3 13/31/3
f 13/31/3 5/7/3 3/3/3
f 19/33/3 12/30/3 4/6/3
f 5/7/3 19/33/3 4/6/3
f 4/8/4 18/34/4 6/9/4
f 6/11/5 18/35/5 8/12/5
f 14/36/6 17/37/6 15/38/6
f 17/37/6 1/14/6 15/38/6
f 7/15/6 6/39/6 11/40/6
f 6/39/6 9/41/6 11/40/6
f 11/40/6 10/16/6 7/15/6
f 20/42/6 15/38/6 1/14/6
f 10/16/6 20/42/6 1/14/6
f 11/17/1 9/43/1 8/18/1
f 13/20/4 16/44/4 14/21/4
f 2/23/5 17/45/5 14/24/5
usemtl Asphalt.104
f 12/46/5 15/47/5 11/48/5
f 19/33/3 13/31/3 12/30/3
f 20/42/6 11/40/6 15/38/6
f 12/46/5 13/49/5 15/47/5
f 19/33/3 5/7/3 13/31/3
f 20/42/6 10/16/6 11/40/6
