# Blender v2.79 (sub 7) OBJ File: ''
# www.blender.org
mtllib roadTile_010.mtl
o Mesh1_Group1_Model.095
v -1.500000 0.000000 1.500000
v 1.500000 0.550000 1.500000
v -1.500000 1.650000 1.500000
v 1.397780 0.000000 0.723543
v 1.474330 0.000000 1.108421
v -1.500000 0.550000 -1.500000
v -1.500000 0.000000 -1.500000
v -1.108421 0.550000 -1.474330
v -1.108421 0.000000 -1.474330
v -0.723543 0.550000 -1.397780
v -0.351950 0.550000 -1.271640
v 0.000000 0.550000 -1.098080
v 0.326280 0.550000 -0.880060
v 0.621320 0.550000 -0.621320
v 0.880060 0.550000 -0.326280
v 1.098080 0.550000 0.000000
v 1.271640 0.550000 0.351950
v 1.397780 0.550000 0.723543
v 1.474330 0.550000 1.108421
v 1.500000 0.000000 1.500000
v 1.271640 0.000000 0.351950
v 1.098080 0.000000 0.000000
v 0.880060 0.000000 -0.326280
v 0.621320 0.000000 -0.621320
v 0.326280 0.000000 -0.880060
v 0.000000 0.000000 -1.098080
v -0.351950 0.000000 -1.271640
v -0.723543 0.000000 -1.397780
vt 0.000000 -0.000000
vt 3.000000 0.550000
vt 0.000000 1.650000
vt -2.897780 0.776457
vt -2.974330 0.391579
vt -3.000000 0.550000
vt 0.196209 0.000000
vt -0.196209 0.550000
vt -0.196209 0.000000
vt -0.000000 0.569094
vt -0.196209 -2.620190
vt 0.196209 -2.620190
vt -0.196209 -2.620190
vt 0.196209 -2.620190
vt -0.196209 -2.620190
vt 0.196209 -2.620190
vt -0.196209 -2.620190
vt 0.196209 -2.620190
vt -0.196209 -2.620190
vt 0.196209 -2.620190
vt -0.196209 -2.620190
vt 0.196209 -2.620190
vt -0.196209 -2.620190
vt 0.196209 -2.620190
vt -0.196209 -2.620190
vt 0.196209 -2.620190
vt -0.196209 -2.620190
vt 0.196209 -2.620190
vt -0.196209 -2.620190
vt 0.196209 -2.620190
vt -0.196209 -2.620190
vt 0.196209 -2.620190
vt -0.196209 -2.620190
vt 0.196209 -2.620190
vt 0.196209 0.000000
vt -0.196209 0.550000
vt -0.196209 0.000000
vt 0.196209 0.000000
vt -0.196209 0.550000
vt -0.196209 0.000000
vt 0.196209 0.000000
vt -0.196209 0.550000
vt -0.196209 0.000000
vt 0.196209 0.000000
vt -0.196209 0.550000
vt -0.196209 0.000000
vt 0.196209 0.000000
vt -0.196209 0.550000
vt -0.196209 0.000000
vt 0.196209 0.000000
vt -0.196209 0.550000
vt -0.196209 0.000000
vt 0.196209 0.000000
vt -0.196209 0.550000
vt -0.196209 0.000000
vt 0.196209 0.000000
vt -0.196209 0.550000
vt -0.196209 0.000000
vt 0.196209 0.000000
vt -0.196209 0.550000
vt -0.196209 0.000000
vt 0.196209 0.000000
vt -0.196209 0.550000
vt -0.196209 0.000000
vt 0.196209 0.000000
vt -0.196209 0.550000
vt -0.196209 0.000000
vt 3.000000 -0.000000
vt -3.000000 0.000000
vt 0.000000 3.000000
vt -0.391579 2.974330
vt -0.776457 2.897780
vt -1.148050 2.771640
vt -1.500000 2.598080
vt -1.826280 2.380060
vt -2.121320 2.121320
vt -2.380060 1.826280
vt -2.598080 1.500000
vt -2.771640 1.148050
vt -3.000000 0.000000
vt 0.196209 0.550000
vt 0.196209 0.550000
vt 0.196209 0.550000
vt 0.196209 0.550000
vt 0.196209 0.550000
vt 0.196209 0.550000
vt 0.196209 0.550000
vt 0.196209 0.550000
vt 0.196209 0.550000
vt 0.196209 0.550000
vt 0.196209 0.550000
vt 0.196209 0.550000
vn 0.0000 -0.0000 1.0000
vn -0.0000 -1.0000 -0.0000
vn -1.0000 0.0000 0.0000
vn 0.0654 0.0000 -0.9979
vn 0.1305 0.0000 -0.9914
vn 0.2222 0.9493 -0.2222
vn 0.0449 0.9389 -0.3413
vn 0.0226 0.9386 -0.3442
vn 0.0891 0.9389 -0.3325
vn 0.1317 0.9389 -0.3180
vn 0.1721 0.9389 -0.2981
vn 0.2096 0.9389 -0.2731
vn 0.2434 0.9389 -0.2434
vn 0.2731 0.9389 -0.2096
vn 0.2981 0.9389 -0.1721
vn 0.3180 0.9389 -0.1317
vn 0.3325 0.9389 -0.0891
vn 0.3413 0.9389 -0.0449
vn 0.3442 0.9386 -0.0226
vn 0.9914 -0.0000 -0.1305
vn 0.9979 0.0000 -0.0654
vn 0.9659 -0.0000 -0.2588
vn 0.9239 0.0000 -0.3827
vn 0.8660 0.0000 -0.5000
vn 0.7934 0.0000 -0.6088
vn 0.7071 0.0000 -0.7071
vn 0.6088 0.0000 -0.7934
vn 0.5000 0.0000 -0.8660
vn 0.3827 0.0000 -0.9239
vn 0.2588 0.0000 -0.9659
usemtl Stone.076
s 1
f 1/1/1 2/2/1 3/3/1
f 4/4/2 5/5/2 1/1/2
f 6/6/3 1/1/3 3/3/3
f 7/7/4 8/8/5 9/9/5
f 3/10/6 8/11/7 6/12/8
f 3/10/6 10/13/9 8/14/7
f 3/10/6 11/15/10 10/16/9
f 3/10/6 12/17/11 11/18/10
f 3/10/6 13/19/12 12/20/11
f 3/10/6 14/21/13 13/22/12
f 3/10/6 15/23/14 14/24/13
f 3/10/6 16/25/15 15/26/14
f 3/10/6 17/27/16 16/28/15
f 3/10/6 18/29/17 17/30/16
f 3/10/6 19/31/18 18/32/17
f 3/10/6 2/33/19 19/34/18
f 5/35/20 2/36/21 20/37/21
f 4/38/22 19/39/20 5/40/20
f 21/41/23 18/42/22 4/43/22
f 22/44/24 17/45/23 21/46/23
f 23/47/25 16/48/24 22/49/24
f 24/50/26 15/51/25 23/52/25
f 25/53/27 14/54/26 24/55/26
f 26/56/28 13/57/27 25/58/27
f 27/59/29 12/60/28 26/61/28
f 28/62/30 11/63/29 27/64/29
f 9/65/5 10/66/30 28/67/30
f 1/1/1 20/68/1 2/2/1
f 20/69/2 1/1/2 5/5/2
f 1/1/2 7/70/2 9/71/2
f 28/72/2 1/1/2 9/71/2
f 28/72/2 27/73/2 1/1/2
f 27/73/2 26/74/2 1/1/2
f 26/74/2 25/75/2 1/1/2
f 25/75/2 24/76/2 1/1/2
f 24/76/2 23/77/2 1/1/2
f 23/77/2 22/78/2 1/1/2
f 22/78/2 21/79/2 1/1/2
f 21/79/2 4/4/2 1/1/2
f 6/6/3 7/80/3 1/1/3
f 7/7/4 6/81/4 8/8/5
f 5/35/20 19/82/20 2/36/21
f 4/38/22 18/83/22 19/39/20
f 21/41/23 17/84/23 18/42/22
f 22/44/24 16/85/24 17/45/23
f 23/47/25 15/86/25 16/48/24
f 24/50/26 14/87/26 15/51/25
f 25/53/27 13/88/27 14/54/26
f 26/56/28 12/89/28 13/57/27
f 27/59/29 11/90/29 12/60/28
f 28/62/30 10/91/30 11/63/29
f 9/65/5 8/92/5 10/66/30
