# Blender v2.79 (sub 7) OBJ File: ''
# www.blender.org
mtllib roadTile_196.mtl
o Mesh1_Group1_Model.218
v 3.000000 0.455000 -2.250000
v 0.000000 0.455000 -2.250000
v 0.000000 0.455000 -0.750000
v 3.000000 0.455000 -0.750000
v 3.000000 0.000000 -0.750000
v 3.000000 0.000000 -2.250000
v 0.000000 0.000000 -2.250000
v 0.000000 0.000000 -0.750000
v 3.000000 0.550000 -2.250000
v 0.000000 1.650000 -2.250000
v 3.000000 0.000000 -3.000000
v 3.000000 0.550000 -3.000000
v 0.000000 0.000000 -3.000000
v 3.000000 0.000000 0.000000
v 0.000000 0.000000 0.000000
v 0.000000 1.650000 -3.000000
v 0.000000 1.650000 -0.750000
v 0.000000 1.650000 0.000000
v 3.000000 0.550000 -0.750000
v 3.000000 0.550000 0.000000
vt 0.000000 2.250000
vt 3.000000 0.750000
vt 3.000000 2.250000
vt 2.250000 -0.000000
vt 0.750000 0.455000
vt 0.750000 -0.000000
vt -0.750000 0.000000
vt -2.250000 0.455000
vt -2.250000 0.000000
vt 0.000000 0.750000
vt 2.250000 0.455000
vt -0.750000 0.455000
vt 0.000000 0.455000
vt 3.000000 0.550000
vt 0.000000 1.650000
vt 3.000000 -0.000000
vt 3.000000 0.550000
vt -3.000000 0.750000
vt -0.000000 0.000000
vt -0.000000 0.750000
vt -2.250000 1.650000
vt -3.000000 1.650000
vt 0.000000 1.650000
vt -0.000000 0.455000
vt -3.000000 0.550000
vt -3.000000 0.455000
vt 0.750000 -2.627290
vt -0.000000 0.568020
vt -0.000000 -2.627290
vt 0.750000 0.550000
vt -0.000000 0.550000
vt 3.000000 0.550000
vt 2.250000 0.568020
vt 3.000000 -2.627290
vt 3.000000 0.568020
vt -0.000000 -0.000000
vt -3.000000 0.550000
vt -3.000000 -0.000000
vt 3.000000 0.455000
vt 2.250000 0.550000
vt -0.000000 2.250000
vt 0.000000 3.000000
vt -3.000000 2.250000
vt -3.000000 3.000000
vt -3.000000 0.000000
vt -3.000000 0.000000
vt -0.750000 1.650000
vt -0.000000 1.650000
vt 0.750000 0.568020
vt -0.000000 -0.000000
vt 3.000000 -0.000000
vt 2.250000 -2.627290
vt -0.000000 1.650000
vn 0.0000 1.0000 0.0000
vn 1.0000 0.0000 0.0000
vn -1.0000 0.0000 0.0000
vn 0.0000 0.0000 1.0000
vn 0.0000 -1.0000 -0.0000
vn 0.0000 0.0000 -1.0000
vn 0.3443 0.9389 0.0000
usemtl Water.034
s 1
f 2/1/1 4/2/1 1/3/1
f 6/4/2 4/5/2 5/6/2
f 8/7/3 2/8/3 7/9/3
f 2/1/1 3/10/1 4/2/1
f 6/4/2 1/11/2 4/5/2
f 8/7/3 3/12/3 2/8/3
usemtl Grass.092
f 2/13/4 9/14/4 10/15/4
f 1/11/2 11/16/2 12/17/2
f 5/18/5 15/19/5 8/20/5
f 2/8/3 10/21/3 16/22/3
f 3/12/3 15/19/3 18/23/3
f 3/24/6 19/25/6 4/26/6
f 19/27/7 18/28/7 20/29/7
f 4/5/2 19/30/2 20/31/2
f 15/19/4 20/32/4 18/23/4
f 10/33/7 12/34/7 16/35/7
f 13/36/6 12/37/6 11/38/6
f 2/13/4 1/39/4 9/14/4
f 12/17/2 9/40/2 1/11/2
f 1/11/2 6/4/2 11/16/2
f 8/20/5 7/41/5 5/18/5
f 7/41/5 13/42/5 6/43/5
f 5/18/5 7/41/5 6/43/5
f 13/42/5 11/44/5 6/43/5
f 5/18/5 14/45/5 15/19/5
f 16/22/3 13/46/3 2/8/3
f 13/46/3 7/9/3 2/8/3
f 18/23/3 17/47/3 3/12/3
f 3/12/3 8/7/3 15/19/3
f 3/24/6 17/48/6 19/25/6
f 19/27/7 17/49/7 18/28/7
f 20/31/2 14/50/2 4/5/2
f 14/50/2 5/6/2 4/5/2
f 15/19/4 14/51/4 20/32/4
f 10/33/7 9/52/7 12/34/7
f 13/36/6 16/53/6 12/37/6
