# Blender v2.79 (sub 7) OBJ File: ''
# www.blender.org
mtllib roadTile_246.mtl
o Mesh1_Group1_Model.168
v -0.908508 0.883120 -0.750000
v 1.500000 0.000000 -1.500000
v -0.908508 0.883120 0.750000
v -1.500000 0.000000 -0.750000
v -0.908508 0.000000 -0.750000
v -1.500000 1.400000 0.750000
v -1.500000 1.400000 -0.750000
v -1.500000 1.100000 -0.750000
v -1.500000 0.000000 0.750000
v -0.908508 0.000000 1.500000
v -1.500000 0.000000 1.500000
v -1.500000 1.100000 0.750000
v -0.908508 0.000000 0.750000
v -0.908508 0.883120 1.500000
v -1.500000 1.730000 1.500000
v 1.500000 0.630000 1.500000
v 1.500000 0.300000 0.750000
v 1.500000 0.000000 1.500000
v -1.500000 1.700000 -0.750000
v 1.500000 0.630000 -0.750000
v -1.500000 1.730000 -0.750000
v -1.500000 1.700000 0.750000
v 1.500000 0.630000 0.750000
v 1.500000 0.600000 0.750000
v -1.500000 1.730000 0.750000
v 1.500000 0.630000 -1.500000
v -0.908508 0.883120 -1.500000
v -1.500000 0.000000 -1.500000
v -1.500000 1.730000 -1.500000
v -0.908508 0.000000 -1.500000
v 1.500000 0.600000 -0.750000
v 1.500000 0.300000 -0.750000
vt -2.250000 -0.251320
vt -3.000000 -2.816630
vt -0.750000 -0.251320
vt 0.591492 0.883120
vt 0.000000 0.000000
vt 0.591492 0.000000
vt -0.750000 1.400000
vt -2.250000 1.400000
vt -2.250000 1.100000
vt -0.000000 0.750000
vt -0.591492 0.000000
vt -0.000000 -0.000000
vt -0.591492 0.883120
vt -0.000000 0.000000
vt -0.000000 1.100000
vt 0.750000 0.000000
vt 0.000000 0.883120
vt 0.000000 0.000000
vt 0.000000 1.730000
vt 0.591492 0.883120
vt 3.000000 0.630000
vt 0.750000 0.300000
vt 0.000000 0.000000
vt 3.000000 0.000000
vt 0.000000 1.700000
vt 3.000000 0.630000
vt 0.000000 1.730000
vt -0.000000 1.700000
vt -3.000000 0.630000
vt -3.000000 0.600000
vt -0.000000 0.595561
vt 0.750000 -2.599750
vt 0.750000 0.595561
vt 3.000000 -2.599750
vt 2.250000 0.595561
vt 2.250000 -2.599750
vt -0.591492 0.883120
vt -0.000000 0.000000
vt -0.000000 1.730000
vt 2.250000 0.883120
vt 3.000000 0.000000
vt 3.000000 0.883120
vt -0.591492 2.250000
vt -0.000000 3.000000
vt -0.591492 3.000000
vt -0.750000 0.378680
vt -2.250000 0.378680
vt -3.000000 -0.251320
vt -0.000000 -2.816630
vt -0.000000 -0.251320
vt 0.000000 1.100000
vt -0.750000 1.100000
vt -0.750000 0.000000
vt -0.750000 1.730000
vt -0.750000 1.700000
vt -3.000000 0.000000
vt -2.250000 0.000000
vt -2.250000 1.730000
vt -3.000000 1.730000
vt -2.250000 1.700000
vt -0.591492 0.750000
vt -0.591492 0.000000
vt 0.750000 0.883120
vt 0.591492 -0.000000
vt 3.000000 0.000000
vt 3.000000 0.630000
vt 2.250000 0.630000
vt 2.250000 0.600000
vt 2.250000 0.300000
vt 0.750000 0.630000
vt 0.000000 0.630000
vt 0.750000 0.600000
vt 3.000000 0.600000
vt -0.000000 1.730000
vt -0.000000 -2.599750
vt 3.000000 0.595561
vt -3.000000 0.630000
vt -3.000000 0.000000
vt -0.591492 0.000000
vt 2.250000 0.000000
vt -0.000000 2.250000
vt 2.250000 0.585233
vt 0.750000 -2.610080
vt 2.250000 -2.610080
vt 0.750000 0.585233
vn -0.3443 -0.9389 -0.0000
vn -0.0000 0.0000 1.0000
vn -1.0000 0.0000 0.0000
vn 0.0000 -1.0000 -0.0000
vn -0.0000 0.0000 -1.0000
vn 1.0000 0.0000 0.0000
vn 0.3443 0.9389 0.0000
usemtl Stone.143
s 1
f 1/1/1 2/2/1 3/3/1
f 1/4/2 4/5/2 5/6/2
f 6/7/3 7/8/3 8/9/3
f 9/10/4 10/11/4 11/12/4
f 3/13/5 9/14/5 12/15/5
f 13/16/6 14/17/6 10/18/6
f 15/19/2 14/20/2 16/21/2
f 17/22/6 18/23/6 2/24/6
f 19/25/2 20/26/2 21/27/2
f 22/28/5 23/29/5 24/30/5
f 15/31/7 23/32/7 25/33/7
f 26/34/7 21/35/7 20/36/7
f 27/37/5 28/38/5 29/39/5
f 1/40/6 30/41/6 27/42/6
f 5/43/4 28/44/4 30/45/4
f 12/46/1 8/47/1 1/1/1
f 1/1/1 27/48/1 2/2/1
f 2/2/1 18/49/1 3/3/1
f 18/49/1 14/50/1 3/3/1
f 3/3/1 12/46/1 1/1/1
f 1/4/2 8/51/2 4/5/2
f 12/52/3 9/53/3 11/12/3
f 11/12/3 15/19/3 12/52/3
f 15/19/3 25/54/3 22/55/3
f 22/55/3 6/7/3 15/19/3
f 15/19/3 6/7/3 12/52/3
f 28/56/3 4/57/3 8/9/3
f 21/58/3 29/59/3 19/60/3
f 29/59/3 28/56/3 8/9/3
f 19/60/3 29/59/3 7/8/3
f 7/8/3 29/59/3 8/9/3
f 8/9/3 12/52/3 6/7/3
f 9/10/4 13/61/4 10/11/4
f 3/13/5 13/62/5 9/14/5
f 13/16/6 3/63/6 14/17/6
f 15/19/2 11/12/2 14/20/2
f 11/12/2 10/64/2 14/20/2
f 14/20/2 18/65/2 16/21/2
f 26/66/6 20/67/6 31/68/6
f 26/66/6 31/68/6 32/69/6
f 23/70/6 16/71/6 24/72/6
f 16/71/6 18/23/6 17/22/6
f 24/72/6 16/71/6 17/22/6
f 2/24/6 26/66/6 32/69/6
f 2/24/6 32/69/6 17/22/6
f 19/25/2 31/73/2 20/26/2
f 22/28/5 25/74/5 23/29/5
f 15/31/7 16/75/7 23/32/7
f 26/34/7 29/76/7 21/35/7
f 26/77/5 2/78/5 27/37/5
f 27/37/5 30/79/5 28/38/5
f 29/39/5 26/77/5 27/37/5
f 1/40/6 5/80/6 30/41/6
f 5/43/4 4/81/4 28/44/4
usemtl Asphalt.115
f 19/82/7 24/83/7 31/84/7
f 19/60/3 6/7/3 22/55/3
f 24/72/6 32/69/6 31/68/6
f 19/82/7 22/85/7 24/83/7
f 19/60/3 7/8/3 6/7/3
f 24/72/6 17/22/6 32/69/6
