# Blender v2.79 (sub 7) OBJ File: ''
# www.blender.org
mtllib roadTile_097.mtl
o Mesh1_Group1_Model.208
v -1.038198 0.630000 1.500000
v 1.500000 0.630000 1.500000
v 1.500000 0.630000 -1.500000
v -1.500000 0.000000 1.500000
v -1.500000 0.570000 1.321962
v -1.500000 0.570000 1.038198
v 1.500000 0.000000 -1.500000
v 1.500000 0.000000 1.500000
v -1.038198 0.570000 1.500000
v -1.321962 0.570000 1.500000
v -1.500000 0.630000 -1.500000
v -1.500000 0.630000 1.500000
v -1.416815 0.630000 1.416816
v -1.500000 0.630000 1.321962
v -1.500000 0.630000 1.038198
v -1.284233 0.630000 1.284233
v -1.500000 0.000000 -1.500000
v -1.321962 0.630000 1.500000
v -1.284233 0.570000 1.284233
v -1.416815 0.570000 1.416816
vt 0.461802 -0.000000
vt 3.000000 0.000000
vt 3.000000 3.000000
vt 0.000000 0.000000
vt -0.178038 0.570000
vt -0.461802 0.570000
vt -3.000000 3.000000
vt -3.000000 0.000000
vt 0.461802 0.570000
vt 0.178038 0.570000
vt 3.000000 0.000000
vt 0.000000 0.630000
vt -0.000000 0.000000
vt -3.000000 0.000000
vt -0.000000 0.630000
vt -3.000000 0.630000
vt -0.000000 -0.000000
vt 0.083185 0.083185
vt -0.000000 0.178038
vt -0.000000 3.000000
vt 0.000000 0.461802
vt 0.215767 0.215767
vt -3.000000 0.630000
vt -3.000000 0.000000
vt 0.000000 0.630000
vt -0.178038 0.630000
vt -0.461802 0.630000
vt 0.000000 3.000000
vt 3.000000 -0.000000
vt 3.000000 0.630000
vt 0.461802 0.630000
vt 0.178038 0.630000
vt 3.000000 0.630000
vt -0.000000 0.000000
vt 0.178038 -0.000000
vt 0.019957 0.630000
vt 0.347201 0.570000
vt 0.347201 0.630000
vt -0.347201 0.630000
vt -0.019957 0.570000
vt -0.019957 0.630000
vt 0.178038 0.000000
vt 0.461802 0.000000
vt 0.215767 0.215767
vt 0.007694 0.630000
vt 0.133856 0.570000
vt 0.133856 0.630000
vt -0.133856 0.630000
vt -0.007694 0.570000
vt -0.007694 0.630000
vt 0.019957 0.570000
vt -0.347201 0.570000
vt 0.000000 0.461802
vt 0.000000 0.178038
vt 0.083185 0.083185
vt 0.007694 0.570000
vt -0.133856 0.570000
vn -0.0000 1.0000 0.0000
vn -1.0000 0.0000 0.0000
vn 0.0000 -1.0000 -0.0000
vn 0.0000 0.0000 1.0000
vn 1.0000 0.0000 0.0000
vn 0.0000 0.0000 -1.0000
vn -0.7071 0.0000 0.7071
vn -0.6593 0.0000 0.7518
vn -0.7518 0.0000 0.6593
vn 0.7071 0.0000 -0.7071
vn 0.7518 0.0000 -0.6593
vn 0.6593 0.0000 -0.7518
usemtl Stone.181
s 1
f 1/1/1 2/2/1 3/3/1
f 4/4/2 5/5/2 6/6/2
f 4/4/3 7/7/3 8/8/3
f 9/9/4 10/10/4 4/4/4
f 7/11/5 2/12/5 8/13/5
f 7/14/6 11/15/6 3/16/6
f 12/17/1 13/18/1 14/19/1
f 3/3/1 11/20/1 15/21/1
f 15/21/1 16/22/1 3/3/1
f 16/22/1 1/1/1 3/3/1
f 11/23/2 17/24/2 6/6/2
f 17/24/2 4/4/2 6/6/2
f 4/4/2 12/25/2 5/5/2
f 12/25/2 14/26/2 5/5/2
f 6/6/2 15/27/2 11/23/2
f 4/4/3 17/28/3 7/7/3
f 4/4/4 8/29/4 9/9/4
f 8/29/4 2/30/4 9/9/4
f 2/30/4 1/31/4 9/9/4
f 10/10/4 18/32/4 12/25/4
f 10/10/4 12/25/4 4/4/4
f 7/11/5 3/33/5 2/12/5
f 7/14/6 17/34/6 11/15/6
f 12/17/1 18/35/1 13/18/1
usemtl Grey_Asphalt.011
f 16/36/7 9/37/8 1/38/8
f 15/39/9 19/40/7 16/41/7
f 10/42/1 9/43/1 19/44/1
f 13/45/10 5/46/11 14/47/11
f 18/48/12 20/49/10 13/50/10
f 16/36/7 19/51/7 9/37/8
f 15/39/9 6/52/9 19/40/7
f 19/44/1 6/53/1 5/54/1
f 5/54/1 20/55/1 19/44/1
f 20/55/1 10/42/1 19/44/1
f 13/45/10 20/56/10 5/46/11
f 18/48/12 10/57/12 20/49/10
