# Blender v2.79 (sub 7) OBJ File: ''
# www.blender.org
mtllib roadTile_027.mtl
o Mesh1_Group1_Model.109
v -0.750000 0.300000 1.500000
v 1.500000 0.600000 1.500000
v -0.750000 0.600000 1.500000
v 1.500000 0.300000 1.500000
v 1.500000 0.600000 -1.500000
v 1.500000 0.300000 -1.500000
v -0.750000 0.600000 -1.500000
v -0.750000 0.300000 -1.500000
v -1.125000 0.550000 1.500000
v -1.125000 0.000000 1.500000
v -1.125000 0.630000 -1.500000
v -1.125000 0.630000 1.500000
v -0.750000 0.630000 1.500000
v -0.750000 0.630000 -1.500000
v 1.500000 0.000000 1.500000
v 1.500000 0.000000 -1.500000
v -1.125000 0.550000 -1.500000
v -1.125000 0.000000 -1.500000
v -1.500000 0.000000 -1.500000
v -1.500000 0.550000 1.500000
v -1.500000 0.000000 1.500000
v -1.500000 0.550000 -1.500000
vt 0.750000 0.300000
vt 3.000000 0.600000
vt 0.750000 0.600000
vt 0.000000 0.300000
vt 3.000000 0.600000
vt 0.000000 0.600000
vt -3.000000 0.300000
vt -0.750000 0.600000
vt -3.000000 0.600000
vt 3.000000 3.000000
vt 0.750000 0.000000
vt 3.000000 0.000000
vt 3.000000 0.300000
vt 3.000000 0.300000
vt -0.750000 0.300000
vt 0.750000 3.000000
vt 0.375000 0.550000
vt 0.375000 0.000000
vt -3.000000 0.630000
vt -0.000000 0.550000
vt -0.000000 0.630000
vt 0.375000 3.000000
vt 0.750000 0.000000
vt 0.750000 3.000000
vt -0.375000 0.630000
vt -0.750000 0.630000
vt 0.000000 0.000000
vt 3.000000 0.000000
vt 0.000000 0.630000
vt 3.000000 0.600000
vt 3.000000 0.630000
vt 0.750000 0.630000
vt 0.375000 0.630000
vt 3.000000 0.000000
vt -3.000000 0.550000
vt 0.375000 0.000000
vt -3.000000 0.000000
vt -0.375000 0.000000
vt -0.375000 0.550000
vt 0.000000 0.600000
vt -0.375000 0.000000
vt -0.000000 3.000000
vt -0.375000 3.000000
vt 0.000000 0.550000
vt -0.000000 0.000000
vt 0.375000 0.000000
vt 0.000000 3.000000
vt 0.000000 0.000000
vt 0.000000 0.000000
vt 0.000000 0.550000
vt -3.000000 0.550000
vt -3.000000 0.000000
vt -3.000000 3.000000
vt -3.000000 0.000000
vt 0.375000 3.000000
vn 0.0000 0.0000 1.0000
vn 1.0000 0.0000 0.0000
vn 0.0000 0.0000 -1.0000
vn 0.0000 1.0000 0.0000
vn -1.0000 0.0000 0.0000
vn 0.0000 -1.0000 -0.0000
usemtl Asphalt.070
s 1
f 1/1/1 2/2/1 3/3/1
f 4/4/2 5/5/2 2/6/2
f 6/7/3 7/8/3 5/9/3
f 5/10/4 3/11/4 2/12/4
f 1/1/1 4/13/1 2/2/1
f 4/4/2 6/14/2 5/5/2
f 6/7/3 8/15/3 7/8/3
f 5/10/4 7/16/4 3/11/4
usemtl Stone.088
f 1/1/1 9/17/1 10/18/1
f 11/19/5 9/20/5 12/21/5
f 11/22/4 13/23/4 14/24/4
f 11/25/3 14/26/3 7/8/3
f 6/14/2 15/27/2 16/28/2
f 13/29/2 7/30/2 14/31/2
f 13/32/1 12/33/1 3/3/1
f 12/33/1 9/17/1 3/3/1
f 10/18/1 15/34/1 1/1/1
f 15/34/1 4/13/1 1/1/1
f 1/1/1 3/3/1 9/17/1
f 11/19/5 17/35/5 9/20/5
f 11/22/4 12/36/4 13/23/4
f 6/7/3 16/37/3 8/15/3
f 16/37/3 18/38/3 8/15/3
f 18/38/3 17/39/3 8/15/3
f 17/39/3 11/25/3 7/8/3
f 8/15/3 17/39/3 7/8/3
f 6/14/2 4/4/2 15/27/2
f 13/29/2 3/40/2 7/30/2
usemtl Grass.052
f 10/41/6 19/42/6 18/43/6
f 10/18/1 20/44/1 21/45/1
f 9/46/4 22/47/4 20/48/4
f 17/39/3 19/49/3 22/50/3
f 21/45/5 22/51/5 19/52/5
f 18/43/6 16/53/6 15/54/6
f 10/41/6 21/45/6 19/42/6
f 18/43/6 15/54/6 10/41/6
f 10/18/1 9/17/1 20/44/1
f 9/46/4 17/55/4 22/47/4
f 17/39/3 18/38/3 19/49/3
f 21/45/5 20/44/5 22/51/5
