# Blender v2.79 (sub 7) OBJ File: ''
# www.blender.org
mtllib roadTile_292.mtl
o Mesh1_Group1_Model.164
v -1.500000 0.000000 1.500000
v 1.500000 0.630000 1.500000
v -1.500000 0.630000 1.500000
v -1.500000 0.000000 -1.500000
v -1.500000 0.300000 -0.750000
v 1.500000 0.000000 -1.500000
v 1.500000 0.000000 1.500000
v -0.750000 0.630000 -1.500000
v 0.750000 0.630000 -1.500000
v 1.500000 0.300000 0.750000
v -1.500000 0.600000 0.750000
v 1.500000 0.630000 0.750000
v 1.500000 0.600000 0.750000
v -1.500000 0.630000 0.750000
v 1.500000 0.630000 -0.750000
v 0.750000 0.600000 -0.750000
v 1.500000 0.600000 -0.750000
v 1.500000 0.630000 -1.500000
v 0.750000 0.630000 -0.750000
v -0.750000 0.600000 -0.750000
v -0.750000 0.630000 -0.750000
v -1.500000 0.630000 -1.500000
v -1.500000 0.630000 -0.750000
v -1.500000 0.600000 -0.750000
v -1.500000 0.300000 0.750000
v 1.500000 0.300000 -0.750000
vt 0.000000 0.000000
vt 3.000000 0.630000
vt 0.000000 0.630000
vt -3.000000 -0.000000
vt -2.250000 0.300000
vt -3.000000 3.000000
vt -3.000000 0.000000
vt -0.750000 0.630000
vt -2.250000 0.630000
vt -3.000000 0.000000
vt 0.750000 0.300000
vt 0.000000 -0.000000
vt 3.000000 -0.000000
vt -0.000000 0.600000
vt -3.000000 0.630000
vt -3.000000 0.600000
vt 0.000000 0.750000
vt 3.000000 0.000000
vt 3.000000 0.750000
vt 3.000000 0.630000
vt 2.250000 0.600000
vt 3.000000 0.600000
vt 2.250000 3.000000
vt 3.000000 2.250000
vt 3.000000 3.000000
vt -3.000000 0.630000
vt -2.250000 0.600000
vt -2.250000 0.630000
vt 2.250000 3.022780
vt 0.750000 2.272180
vt 2.250000 2.272180
vt 2.250000 0.600000
vt 3.000000 0.630000
vt 2.250000 0.630000
vt 0.750000 2.250000
vt -0.000000 3.000000
vt 0.000000 2.250000
vt 0.750000 0.600000
vt 0.000000 0.630000
vt 0.000000 0.600000
vt 3.000000 0.000000
vt -0.750000 0.300000
vt -0.750000 0.630000
vt -0.750000 0.600000
vt -2.250000 0.630000
vt -3.000000 0.630000
vt -2.250000 0.600000
vt 0.000000 3.000000
vt -3.000000 0.630000
vt -0.000000 0.000000
vt -0.000000 0.630000
vt 2.250000 0.630000
vt 2.250000 0.600000
vt 3.000000 0.630000
vt 2.250000 0.300000
vt 0.750000 0.600000
vt 0.000000 0.630000
vt 0.750000 0.630000
vt -0.000000 0.630000
vt 0.000000 0.000000
vt 2.250000 0.630000
vt 2.250000 2.250000
vt 0.750000 3.022780
vt 0.750000 3.000000
vt 0.750000 0.630000
vt 3.000000 0.750000
vt 2.250000 2.250000
vt 0.750000 2.250000
vt 0.000000 2.250000
vt 0.000000 0.750000
vt 3.000000 2.250000
vn 0.0000 0.0000 1.0000
vn -1.0000 0.0000 0.0000
vn 0.0000 -1.0000 -0.0000
vn 0.0000 0.0000 -1.0000
vn 1.0000 0.0000 0.0000
vn 0.0000 1.0000 0.0000
vn 0.0000 0.9992 0.0400
vn -0.0000 0.9998 0.0200
usemtl Stone.139
s 1
f 1/1/1 2/2/1 3/3/1
f 4/4/2 1/1/2 5/5/2
f 1/1/3 6/6/3 7/7/3
f 8/8/4 9/9/4 6/10/4
f 10/11/5 7/12/5 6/13/5
f 11/14/4 12/15/4 13/16/4
f 14/17/6 2/18/6 12/19/6
f 15/20/1 16/21/1 17/22/1
f 9/23/6 15/24/6 18/25/6
f 9/26/2 16/27/2 19/28/2
f 9/29/7 20/30/8 16/31/8
f 20/32/5 8/33/5 21/34/5
f 21/35/6 22/36/6 23/37/6
f 20/38/1 23/39/1 24/40/1
f 1/1/1 7/41/1 2/2/1
f 1/1/2 3/3/2 25/42/2
f 3/3/2 14/43/2 11/44/2
f 11/44/2 25/42/2 3/3/2
f 23/45/2 22/46/2 24/47/2
f 22/46/2 4/4/2 5/5/2
f 24/47/2 22/46/2 5/5/2
f 1/1/2 25/42/2 5/5/2
f 1/1/3 4/48/3 6/6/3
f 9/9/4 18/49/4 6/10/4
f 6/10/4 4/50/4 8/8/4
f 4/50/4 22/51/4 8/8/4
f 15/52/5 17/53/5 18/54/5
f 17/53/5 26/55/5 18/54/5
f 10/11/5 13/56/5 2/57/5
f 13/56/5 12/58/5 2/57/5
f 6/13/5 18/54/5 26/55/5
f 10/11/5 2/57/5 7/12/5
f 6/13/5 26/55/5 10/11/5
f 11/14/4 14/59/4 12/15/4
f 14/17/6 3/60/6 2/18/6
f 15/20/1 19/61/1 16/21/1
f 9/23/6 19/62/6 15/24/6
f 9/29/7 8/63/7 20/30/8
f 21/35/6 8/64/6 22/36/6
f 20/38/1 21/65/1 23/39/1
usemtl Asphalt.111
f 10/11/5 17/53/5 13/56/5
f 13/66/6 16/67/8 20/68/8
f 5/5/2 11/44/2 24/47/2
f 10/11/5 26/55/5 17/53/5
f 24/69/6 11/70/6 20/68/8
f 11/70/6 13/66/6 20/68/8
f 13/66/6 17/71/6 16/67/8
f 5/5/2 25/42/2 11/44/2
