# Blender v2.79 (sub 7) OBJ File: ''
# www.blender.org
mtllib roadTile_190.mtl
o Mesh1_Group1_Model.297
v 1.500000 0.000000 -1.500000
v -1.500000 0.550000 -1.500000
v 1.500000 0.550000 -1.500000
v 1.500000 0.455000 -0.750000
v -1.500000 0.550000 -0.750000
v 1.500000 0.550000 -0.750000
v -1.500000 0.455000 -0.750000
v 1.500000 0.000000 -0.750000
v 1.500000 0.000000 0.750000
v -1.500000 0.000000 0.750000
v -1.500000 0.000000 1.500000
v 1.500000 0.550000 1.500000
v -1.500000 0.550000 1.500000
v -1.500000 0.455000 0.750000
v 1.500000 0.550000 0.750000
v -1.500000 0.550000 0.750000
v 1.500000 0.455000 0.750000
v -1.500000 0.000000 -1.500000
v -1.500000 0.000000 -0.750000
v 1.500000 0.000000 1.500000
vt -3.000000 0.000000
vt -0.000000 0.550000
vt -3.000000 0.550000
vt 2.250000 0.455000
vt 3.000000 0.000000
vt 3.000000 0.550000
vt 0.000000 0.550000
vt 3.000000 0.455000
vt 3.000000 0.550000
vt 0.000000 2.250000
vt 3.000000 3.000000
vt -0.000000 3.000000
vt -2.250000 0.455000
vt -2.250000 0.550000
vt -3.000000 0.550000
vt -3.000000 2.250000
vt -3.000000 0.750000
vt -0.000000 0.750000
vt -0.000000 0.000000
vt 3.000000 0.550000
vt 0.000000 0.550000
vt -0.750000 0.455000
vt -3.000000 0.550000
vt -0.000000 0.455000
vt -0.000000 0.550000
vt 3.000000 0.750000
vt 0.000000 -0.000000
vt 3.000000 0.000000
vt 0.750000 0.455000
vt 0.750000 0.550000
vt 0.000000 0.550000
vt -0.000000 0.000000
vt 2.250000 0.550000
vt 2.250000 0.000000
vt 0.000000 0.455000
vt 3.000000 2.250000
vt -3.000000 0.000000
vt -2.250000 0.000000
vt -3.000000 0.000000
vt -0.000000 2.250000
vt -0.000000 3.000000
vt -3.000000 3.000000
vt 3.000000 0.000000
vt -0.750000 0.550000
vt -0.750000 -0.000000
vt -3.000000 0.455000
vt 0.000000 0.750000
vt 0.000000 0.000000
vt 0.750000 0.000000
vt 0.000000 0.750000
vt 3.000000 2.250000
vt 0.000000 2.250000
vt 3.000000 0.750000
vn 0.0000 0.0000 -1.0000
vn 1.0000 0.0000 0.0000
vn 0.0000 0.0000 1.0000
vn 0.0000 1.0000 0.0000
vn -1.0000 0.0000 0.0000
vn 0.0000 -1.0000 -0.0000
usemtl Grass.125
s 1
f 1/1/1 2/2/1 3/3/1
f 4/4/2 1/5/2 3/6/2
f 5/7/3 4/8/3 6/9/3
f 5/10/4 3/11/4 2/12/4
f 7/13/5 5/14/5 2/15/5
f 8/16/6 9/17/6 10/18/6
f 11/19/3 12/20/3 13/21/3
f 14/22/5 11/19/5 13/21/5
f 15/23/1 14/24/1 16/25/1
f 15/26/4 13/27/4 12/28/4
f 17/29/2 15/30/2 12/31/2
f 1/1/1 18/32/1 2/2/1
f 3/6/2 6/33/2 4/4/2
f 4/4/2 8/34/2 1/5/2
f 5/7/3 7/35/3 4/8/3
f 5/10/4 6/36/4 3/11/4
f 2/15/5 18/37/5 7/13/5
f 18/37/5 19/38/5 7/13/5
f 9/17/6 20/39/6 11/19/6
f 10/18/6 19/40/6 8/16/6
f 19/40/6 18/41/6 8/16/6
f 9/17/6 11/19/6 10/18/6
f 18/41/6 1/42/6 8/16/6
f 11/19/3 20/43/3 12/20/3
f 13/21/5 16/44/5 14/22/5
f 14/22/5 10/45/5 11/19/5
f 15/23/1 17/46/1 14/24/1
f 15/26/4 16/47/4 13/27/4
f 12/31/2 20/48/2 17/29/2
f 20/48/2 9/49/2 17/29/2
usemtl Water.048
f 8/34/2 17/29/2 9/49/2
f 14/50/4 4/51/4 7/52/4
f 10/45/5 7/13/5 19/38/5
f 8/34/2 4/4/2 17/29/2
f 14/50/4 17/53/4 4/51/4
f 10/45/5 14/22/5 7/13/5
