# Blender v2.79 (sub 7) OBJ File: ''
# www.blender.org
mtllib roadTile_039.mtl
o Mesh1_Group1_Model.144
v 0.000000 0.000000 -3.000000
v 0.000000 0.000000 -2.598840
v 0.000000 0.550000 -2.598840
v 0.000000 0.630000 -2.598840
v 0.000000 0.630000 -3.000000
v 0.000000 0.000000 0.000000
v 0.401164 0.000000 0.000000
v 0.401164 0.550000 0.000000
v 0.401164 0.630000 0.000000
v 0.000000 0.630000 0.000000
v 2.598840 0.630000 0.000000
v 2.598840 0.550000 0.000000
v 2.598840 0.000000 0.000000
v 3.000000 0.000000 0.000000
v 3.000000 0.630000 0.000000
v 2.825830 0.630000 -0.174175
v 2.825830 0.550000 -0.174175
v 3.000000 0.630000 -0.401164
v 3.000000 0.000000 -0.401164
v 3.000000 0.550000 -0.401164
v 3.000000 0.630000 -2.598840
v 3.000000 0.550000 -2.598840
v 3.000000 0.000000 -2.598840
v 3.000000 0.000000 -3.000000
v 3.000000 0.630000 -3.000000
v 2.825830 0.630000 -2.825830
v 2.825830 0.550000 -2.825830
v 2.598840 0.630000 -3.000000
v 2.598840 0.000000 -3.000000
v 2.598840 0.550000 -3.000000
v 0.174175 0.630000 -2.825830
v 0.174175 0.550000 -2.825830
v 0.401164 0.630000 -3.000000
v 0.401164 0.550000 -3.000000
v 0.401164 0.000000 -3.000000
v 0.000000 0.630000 -0.401164
v 0.000000 0.550000 -0.401164
v 0.000000 0.000000 -0.401164
v 0.174175 0.630000 -0.174175
v 0.174175 0.550000 -0.174175
vt -2.598840 0.550000
vt -2.598840 0.630000
vt -3.000000 0.630000
vt 0.401164 0.550000
vt 0.401164 0.630000
vt -0.000000 0.630000
vt 2.598840 0.550000
vt 3.000000 0.000000
vt 3.000000 0.630000
vt -2.347910 0.630000
vt -2.061800 0.550000
vt -2.061800 0.630000
vt 3.000000 0.000000
vt 2.825830 0.174175
vt 2.598840 0.000000
vt 0.401164 0.550000
vt 0.401164 0.630000
vt 0.000000 0.630000
vt 2.598840 0.550000
vt 3.000000 0.000000
vt 3.000000 0.630000
vt -0.521624 0.630000
vt -0.235511 0.550000
vt -0.235511 0.630000
vt 3.000000 3.000000
vt 2.825830 2.825830
vt 3.000000 2.598840
vt -3.000000 0.000000
vt -2.598840 0.000000
vt -2.598840 0.550000
vt 2.061800 0.630000
vt 2.347910 0.550000
vt 2.347910 0.630000
vt 0.000000 3.000000
vt 0.174175 2.825830
vt 0.401164 3.000000
vt -0.401164 0.550000
vt -0.401164 0.000000
vt -0.000000 0.000000
vt 1.858440 0.630000
vt 2.144550 0.550000
vt 2.144550 0.630000
vt -0.401164 0.550000
vt -0.000000 -0.000000
vt 0.032151 0.630000
vt 0.318265 0.550000
vt 0.318265 0.630000
vt 0.000000 0.000000
vt 0.174175 0.174175
vt 0.000000 0.401164
vt -0.318265 0.630000
vt -0.032151 0.550000
vt -0.032151 0.630000
vt -2.144550 0.630000
vt -1.858440 0.550000
vt -1.858440 0.630000
vt 0.235511 0.630000
vt 0.521624 0.550000
vt 0.521624 0.630000
vt -3.000000 0.000000
vt -2.598840 0.000000
vt 0.401164 0.000000
vt 2.598840 0.630000
vt 2.598840 0.000000
vt -2.347910 0.550000
vt 3.000000 0.401164
vt 0.000000 0.000000
vt 0.401164 0.000000
vt 2.598840 0.630000
vt 2.598840 0.000000
vt -0.521624 0.550000
vt 2.598840 3.000000
vt -2.598840 0.630000
vt -3.000000 0.630000
vt 2.061800 0.550000
vt 0.000000 2.598840
vt -0.000000 0.630000
vt -0.401164 0.630000
vt 1.858440 0.550000
vt -0.401164 0.630000
vt -0.401164 0.000000
vt 0.032151 0.550000
vt 0.401164 0.000000
vt -0.318265 0.550000
vt -2.144550 0.550000
vt 0.235511 0.550000
vt -0.401164 3.000000
vt -2.598840 3.000000
vt -3.000000 2.598840
vt 3.000000 0.401164
vt 0.000000 0.401164
vt 2.598840 0.000000
vt -2.598840 0.000000
vt -0.401164 0.000000
vt -0.000000 0.401164
vt -0.000000 2.598840
vt -0.000000 3.000000
vt -3.000000 0.401164
vt -3.000000 0.000000
vt -3.000000 3.000000
vt 0.401164 3.000000
vt 0.174175 2.825830
vt 0.000000 2.598840
vt 0.174175 0.174175
vt 0.401164 0.000000
vt 2.825830 0.174175
vt 3.000000 2.598840
vt 2.825830 2.825830
vt 2.598840 3.000000
vn -1.0000 0.0000 0.0000
vn 0.0000 -0.0000 1.0000
vn -0.7071 -0.0000 -0.7071
vn -0.6088 -0.0000 -0.7934
vn 0.0000 1.0000 0.0000
vn 1.0000 0.0000 0.0000
vn -0.7071 0.0000 0.7071
vn -0.7934 0.0000 0.6087
vn 0.0000 0.0000 -1.0000
vn 0.7934 0.0000 0.6088
vn 0.7071 0.0000 0.7071
vn 0.6088 0.0000 0.7934
vn 0.7071 0.0000 -0.7071
vn 0.7934 0.0000 -0.6088
vn 0.6088 0.0000 -0.7934
vn -0.7934 0.0000 -0.6088
vn -0.6087 0.0000 0.7934
vn -0.0000 -1.0000 -0.0000
usemtl Stone.121
s 1
f 3/1/1 4/2/1 5/3/1
f 8/4/2 9/5/2 10/6/2
f 12/7/2 14/8/2 15/9/2
f 16/10/3 12/11/4 11/12/4
f 15/13/5 16/14/5 11/15/5
f 20/16/6 18/17/6 15/18/6
f 22/19/6 24/20/6 25/21/6
f 26/22/7 22/23/8 21/24/8
f 25/25/5 26/26/5 21/27/5
f 24/28/9 29/29/9 30/30/9
f 4/31/10 32/32/11 31/33/11
f 5/34/5 31/35/5 33/36/5
f 34/37/9 35/38/9 1/39/9
f 31/40/11 34/41/12 33/42/12
f 37/43/1 6/44/1 10/6/1
f 39/45/13 37/46/14 36/47/14
f 10/48/5 39/49/5 36/50/5
f 9/51/15 40/52/13 39/53/13
f 18/54/16 17/55/3 16/56/3
f 28/57/17 27/58/7 26/59/7
f 5/3/1 1/60/1 3/1/1
f 1/60/1 2/61/1 3/1/1
f 10/6/2 6/44/2 8/4/2
f 6/44/2 7/62/2 8/4/2
f 15/9/2 11/63/2 12/7/2
f 12/7/2 13/64/2 14/8/2
f 16/10/3 17/65/3 12/11/4
f 15/13/5 18/66/5 16/14/5
f 15/18/6 14/67/6 20/16/6
f 14/67/6 19/68/6 20/16/6
f 25/21/6 21/69/6 22/19/6
f 22/19/6 23/70/6 24/20/6
f 26/22/7 27/71/7 22/23/8
f 25/25/5 28/72/5 26/26/5
f 30/30/9 28/73/9 25/74/9
f 25/74/9 24/28/9 30/30/9
f 4/31/10 3/75/10 32/32/11
f 5/34/5 4/76/5 31/35/5
f 1/39/9 5/77/9 34/37/9
f 5/77/9 33/78/9 34/37/9
f 31/40/11 32/79/11 34/41/12
f 10/6/1 36/80/1 37/43/1
f 37/43/1 38/81/1 6/44/1
f 39/45/13 40/82/13 37/46/14
f 10/48/5 9/83/5 39/49/5
f 9/51/15 8/84/15 40/52/13
f 18/54/16 20/85/16 17/55/3
f 28/57/17 30/86/17 27/58/7
usemtl Grass.067
f 35/87/18 29/88/18 23/89/18
f 13/64/2 8/4/2 7/62/2
f 23/70/6 20/16/6 19/68/6
f 30/30/9 35/38/9 34/37/9
f 20/90/5 37/91/5 12/92/5
f 38/81/1 3/1/1 2/61/1
f 13/93/18 7/94/18 38/95/18
f 7/94/18 6/44/18 38/95/18
f 38/95/18 2/96/18 13/93/18
f 2/96/18 1/97/18 35/87/18
f 13/93/18 2/96/18 35/87/18
f 19/98/18 14/99/18 13/93/18
f 29/88/18 24/100/18 23/89/18
f 23/89/18 19/98/18 35/87/18
f 19/98/18 13/93/18 35/87/18
f 13/64/2 12/7/2 8/4/2
f 23/70/6 22/19/6 20/16/6
f 30/30/9 29/29/9 35/38/9
f 34/101/5 32/102/5 3/103/5
f 3/103/5 37/91/5 34/101/5
f 37/91/5 40/104/5 8/105/5
f 34/101/5 37/91/5 20/90/5
f 8/105/5 12/92/5 37/91/5
f 12/92/5 17/106/5 20/90/5
f 20/90/5 22/107/5 34/101/5
f 22/107/5 27/108/5 30/109/5
f 34/101/5 22/107/5 30/109/5
f 38/81/1 37/43/1 3/1/1
