# Blender v2.79 (sub 7) OBJ File: ''
# www.blender.org
mtllib roadTile_232.mtl
o Mesh1_Group1_Model.219
v -1.500000 1.150000 -0.375000
v 1.500000 0.630000 -0.375000
v -1.500000 1.180000 -0.375000
v -1.500000 0.000000 -0.750000
v -1.500000 0.000000 1.500000
v -1.500000 0.850000 -0.375000
v 1.500000 0.000000 -0.750000
v 1.500000 0.000000 1.500000
v 1.500000 0.630000 1.500000
v -1.500000 1.180000 1.500000
v 1.500000 0.300000 -0.375000
v 1.500000 0.630000 1.125000
v -1.500000 1.180000 1.125000
v -1.500000 1.150000 1.125000
v 1.500000 0.600000 1.125000
v 1.500000 0.630000 -0.750000
v -1.500000 1.180000 -0.750000
v 1.500000 0.600000 -0.375000
v -1.500000 0.850000 1.125000
v 1.500000 0.300000 1.125000
vt 0.000000 1.150000
vt 3.000000 0.630000
vt 0.000000 1.180000
vt -2.250000 0.000000
vt 0.000000 0.000000
vt -1.875000 0.850000
vt -3.000000 2.250000
vt -3.000000 0.000000
vt 3.000000 0.630000
vt -0.000000 1.180000
vt 0.000000 0.000000
vt 2.250000 0.000000
vt 1.875000 0.300000
vt 0.000000 0.212787
vt 0.375000 -2.837210
vt 0.375000 0.212787
vt -0.000000 1.150000
vt -3.000000 0.630000
vt -3.000000 0.600000
vt -3.000000 0.630000
vt -0.000000 0.000000
vt -0.000000 1.180000
vt 2.250000 -2.837210
vt 1.875000 0.212787
vt 1.875000 -2.837210
vt 3.000000 0.600000
vt -0.375000 0.850000
vt -0.375000 1.180000
vt -0.375000 1.150000
vt -1.875000 1.180000
vt -2.250000 1.180000
vt -1.875000 1.150000
vt -0.000000 2.250000
vt 3.000000 0.000000
vt 0.375000 0.600000
vt 0.375000 0.630000
vt 0.000000 0.630000
vt 2.250000 0.630000
vt 1.875000 0.630000
vt 1.875000 0.600000
vt 0.375000 0.300000
vt 0.000000 -2.837210
vt -0.000000 1.180000
vt -3.000000 0.000000
vt 2.250000 0.212787
vt 1.875000 0.207377
vt 0.375000 -2.842620
vt 1.875000 -2.842620
vt 0.375000 0.207377
vn 0.0000 0.0000 1.0000
vn -1.0000 0.0000 0.0000
vn 0.0000 -1.0000 -0.0000
vn 1.0000 0.0000 0.0000
vn 0.1803 0.9836 0.0000
vn -0.0000 0.0000 -1.0000
usemtl Stone.191
s 1
f 1/1/1 2/2/1 3/3/1
f 4/4/2 5/5/2 6/6/2
f 5/5/3 7/7/3 8/8/3
f 5/5/1 9/9/1 10/10/1
f 8/11/4 7/12/4 11/13/4
f 10/14/5 12/15/5 13/16/5
f 14/17/6 12/18/6 15/19/6
f 16/20/6 4/21/6 17/22/6
f 16/23/5 3/24/5 2/25/5
f 1/1/1 18/26/1 2/2/1
f 5/5/2 10/10/2 19/27/2
f 10/10/2 13/28/2 14/29/2
f 14/29/2 19/27/2 10/10/2
f 3/30/2 17/31/2 1/32/2
f 17/31/2 4/4/2 6/6/2
f 1/32/2 17/31/2 6/6/2
f 5/5/2 19/27/2 6/6/2
f 5/5/3 4/33/3 7/7/3
f 5/5/1 8/34/1 9/9/1
f 15/35/4 12/36/4 9/37/4
f 7/12/4 16/38/4 11/13/4
f 16/38/4 2/39/4 18/40/4
f 18/40/4 11/13/4 16/38/4
f 15/35/4 9/37/4 20/41/4
f 9/37/4 8/11/4 20/41/4
f 11/13/4 20/41/4 8/11/4
f 10/14/5 9/42/5 12/15/5
f 14/17/6 13/43/6 12/18/6
f 16/20/6 7/44/6 4/21/6
f 16/23/5 17/45/5 3/24/5
usemtl Asphalt.157
f 1/46/5 15/47/5 18/48/5
f 6/6/2 14/29/2 1/32/2
f 15/35/4 11/13/4 18/40/4
f 1/46/5 14/49/5 15/47/5
f 6/6/2 19/27/2 14/29/2
f 15/35/4 20/41/4 11/13/4
