# Blender v2.79 (sub 7) OBJ File: ''
# www.blender.org
mtllib roadTile_249.mtl
o Mesh1_Group1_Model.099
v 3.000000 0.600000 -2.250000
v 0.000000 1.700000 -2.250000
v 0.000000 1.700000 -0.750000
v 3.000000 0.600000 -0.750000
v 3.000000 0.300000 -0.750000
v 3.000000 0.300000 -2.250000
v 0.000000 1.400000 -2.250000
v 0.000000 1.400000 -0.750000
v 3.000000 0.630000 -2.250000
v 0.000000 1.730000 -2.250000
v 3.000000 0.630000 -0.750000
v 3.000000 0.630000 0.000000
v 3.000000 0.000000 0.000000
v 3.000000 0.000000 -3.000000
v 3.000000 0.630000 -3.000000
v 0.000000 1.730000 -0.750000
v 0.000000 1.730000 -3.000000
v 0.000000 1.100000 -3.000000
v 0.000000 1.100000 0.000000
v 0.000000 1.730000 0.000000
v 1.500000 0.000000 -3.000000
v 1.500000 0.000000 0.000000
vt 2.250000 0.585233
vt 0.750000 -2.610080
vt 2.250000 -2.610080
vt 0.750000 0.600000
vt 2.250000 0.300000
vt 2.250000 0.600000
vt -2.250000 1.700000
vt -0.750000 1.400000
vt -0.750000 1.700000
vt 0.750000 0.585233
vt 0.750000 0.300000
vt -2.250000 1.400000
vt 0.000000 1.700000
vt 3.000000 0.630000
vt 0.000000 1.730000
vt 0.000000 -0.000000
vt 3.000000 -0.000000
vt -0.000000 1.700000
vt -3.000000 0.630000
vt -3.000000 0.600000
vt -3.000000 1.100000
vt 0.000000 1.100000
vt 3.000000 -2.599750
vt 2.250000 0.595561
vt 2.250000 -2.599750
vt -3.000000 0.630000
vt -1.500000 0.000000
vt -0.000000 1.730000
vt 0.000000 0.650500
vt -3.000000 -1.209610
vt -0.000000 -1.209610
vt 1.500000 -0.000000
vt 3.000000 0.000000
vt 3.000000 0.630000
vt -1.500000 0.000000
vt -3.000000 3.000000
vt -3.000000 0.000000
vt -0.000000 0.595561
vt 0.750000 -2.599750
vt 0.750000 0.595561
vt 3.000000 0.600000
vt 3.000000 0.630000
vt 2.250000 0.630000
vt 0.750000 0.630000
vt 0.000000 0.630000
vt -0.000000 1.730000
vt 0.000000 1.730000
vt -0.750000 1.730000
vt -2.250000 1.730000
vt -3.000000 1.730000
vt 3.000000 0.595561
vt -3.000000 0.000000
vt -0.000000 1.100000
vt -3.000000 0.650500
vt -1.500000 3.000000
vt -0.000000 -2.599750
vn 0.3443 0.9389 0.0000
vn 1.0000 0.0000 0.0000
vn -1.0000 0.0000 0.0000
vn 0.0000 0.0000 1.0000
vn 0.0000 0.0000 -1.0000
vn -0.5914 -0.8064 -0.0000
vn 0.0000 -1.0000 -0.0000
usemtl Asphalt.063
s 1
f 2/1/1 4/2/1 1/3/1
f 4/4/2 6/5/2 1/6/2
f 2/7/3 8/8/3 3/9/3
f 2/1/1 3/10/1 4/2/1
f 4/4/2 5/11/2 6/5/2
f 2/7/3 7/12/3 8/8/3
usemtl Stone.080
f 2/13/4 9/14/4 10/15/4
f 5/11/2 13/16/2 14/17/2
f 3/18/5 11/19/5 4/20/5
f 7/12/3 18/21/3 19/22/3
f 15/23/1 10/24/1 9/25/1
f 15/26/5 21/27/5 17/28/5
f 19/29/6 21/30/6 22/31/6
f 22/32/4 13/33/4 12/34/4
f 22/35/7 14/36/7 13/37/7
f 20/38/1 11/39/1 16/40/1
f 2/13/4 1/41/4 9/14/4
f 15/42/2 9/43/2 1/6/2
f 15/42/2 1/6/2 6/5/2
f 11/44/2 12/45/2 4/4/2
f 12/45/2 13/16/2 5/11/2
f 4/4/2 12/45/2 5/11/2
f 14/17/2 15/42/2 6/5/2
f 14/17/2 6/5/2 5/11/2
f 3/18/5 16/46/5 11/19/5
f 20/47/3 16/48/3 3/9/3
f 20/47/3 3/9/3 8/8/3
f 10/49/3 17/50/3 2/7/3
f 17/50/3 18/21/3 7/12/3
f 2/7/3 17/50/3 7/12/3
f 19/22/3 20/47/3 8/8/3
f 19/22/3 8/8/3 7/12/3
f 15/23/1 17/51/1 10/24/1
f 14/52/5 21/27/5 15/26/5
f 21/27/5 18/53/5 17/28/5
f 19/29/6 18/54/6 21/30/6
f 12/34/4 20/47/4 22/32/4
f 20/47/4 19/22/4 22/32/4
f 22/35/7 21/55/7 14/36/7
f 20/38/1 12/56/1 11/39/1
