# Blender v2.79 (sub 7) OBJ File: ''
# www.blender.org
mtllib roadTile_130.mtl
o Mesh1_Group1_Model.052
v 2.625000 0.600000 -0.375000
v 0.375000 0.600000 -0.375000
v 0.375000 0.630000 -0.375000
v 2.625000 0.630000 -0.375000
v 2.625000 0.630000 0.000000
v 2.625000 0.000000 0.000000
v 2.625000 0.000000 -2.625000
v 2.625000 0.300000 -2.625000
v 2.625000 0.300000 -0.375000
v 0.000000 0.630000 0.000000
v 0.000000 0.000000 0.000000
v 0.375000 0.630000 -2.625000
v 0.000000 0.630000 -2.625000
v 0.000000 0.000000 -2.625000
v 0.375000 0.600000 -2.625000
v 0.375000 0.300000 -2.625000
v 2.625000 0.600000 -2.625000
vt -0.375000 0.600000
vt -2.625000 0.630000
vt -2.625000 0.600000
vt 2.625000 0.000000
vt 2.625000 0.300000
vt 0.375000 0.300000
vt -0.000000 0.630000
vt 2.625000 0.000000
vt 2.625000 0.630000
vt 0.375000 0.375000
vt 0.000000 2.625000
vt 0.000000 0.000000
vt -0.375000 0.600000
vt -0.375000 0.300000
vt 0.000000 0.630000
vt -2.625000 -0.000000
vt -0.000000 2.625000
vt -2.625000 2.625000
vt -2.625000 0.630000
vt -0.000000 0.000000
vt 0.375000 0.600000
vt 2.625000 0.630000
vt 0.375000 0.630000
vt -0.375000 0.630000
vt 0.375000 0.630000
vt 0.000000 0.630000
vt 0.375000 0.600000
vt 0.000000 0.000000
vt 0.375000 2.625000
vt 2.625000 0.000000
vt 2.625000 0.375000
vt -2.625000 0.300000
vt -2.625000 0.000000
vt 0.000000 0.000000
vt -0.375000 0.630000
vt -2.625000 0.000000
vt 2.625000 0.600000
vt 0.375000 2.625000
vt 2.625000 0.375000
vt 2.625000 2.625000
vt -2.625000 0.600000
vt 2.625000 0.600000
vt 0.375000 0.375000
vn 0.0000 0.0000 -1.0000
vn 1.0000 0.0000 0.0000
vn 0.0000 -0.0000 1.0000
vn 0.0000 1.0000 0.0000
vn 0.0000 -1.0000 -0.0000
vn -1.0000 0.0000 0.0000
usemtl Stone.043
s 1
f 2/1/1 4/2/1 1/3/1
f 7/4/2 8/5/2 9/6/2
f 10/7/3 6/8/3 5/9/3
f 3/10/4 13/11/4 10/12/4
f 15/13/1 16/14/1 13/15/1
f 6/16/5 14/17/5 7/18/5
f 13/19/6 11/20/6 10/7/6
f 2/21/2 12/22/2 3/23/2
f 2/1/1 3/24/1 4/2/1
f 4/25/2 5/26/2 1/27/2
f 5/26/2 6/28/2 9/6/2
f 1/27/2 5/26/2 9/6/2
f 6/28/2 7/4/2 9/6/2
f 10/7/3 11/20/3 6/8/3
f 3/10/4 12/29/4 13/11/4
f 10/12/4 5/30/4 3/10/4
f 5/30/4 4/31/4 3/10/4
f 8/32/1 7/33/1 16/14/1
f 7/33/1 14/34/1 16/14/1
f 14/34/1 13/15/1 16/14/1
f 13/15/1 12/35/1 15/13/1
f 6/16/5 11/20/5 14/17/5
f 13/19/6 14/36/6 11/20/6
f 2/21/2 15/37/2 12/22/2
usemtl Asphalt.032
f 15/38/4 1/39/4 17/40/4
f 8/32/1 15/13/1 17/41/1
f 9/6/2 17/42/2 1/27/2
f 15/38/4 2/43/4 1/39/4
f 8/32/1 16/14/1 15/13/1
f 9/6/2 8/5/2 17/42/2
