# Blender v2.79 (sub 7) OBJ File: ''
# www.blender.org
mtllib roadTile_051.mtl
o Mesh1_Group1_Model.300
v 3.000000 0.600000 0.000000
v 3.000000 0.300000 0.000000
v 3.000000 0.300000 -3.000000
v 3.000000 0.600000 -3.000000
v 0.750000 0.600000 0.000000
v 0.750000 0.300000 0.000000
v 0.750000 0.300000 -3.000000
v 0.750000 0.600000 -3.000000
v 0.375000 1.730000 0.000000
v 0.375000 1.650000 0.000000
v 0.375000 0.000000 0.000000
v 3.000000 0.000000 0.000000
v 0.750000 1.730000 0.000000
v 0.375000 0.630000 -3.000000
v 0.375000 0.550000 -3.000000
v 0.750000 0.630000 -3.000000
v 3.000000 0.000000 -3.000000
v 0.375000 0.000000 -3.000000
v 0.000000 0.000000 0.000000
v 0.000000 0.000000 -3.000000
v 0.000000 1.650000 0.000000
v 0.000000 0.550000 -3.000000
vt 0.000000 0.300000
vt 3.000000 0.600000
vt 0.000000 0.600000
vt 0.750000 0.300000
vt 3.000000 0.600000
vt 0.750000 0.600000
vt -3.000000 0.300000
vt -0.750000 0.600000
vt -3.000000 0.600000
vt 3.000000 3.000000
vt 0.750000 0.000000
vt 3.000000 0.000000
vt 3.000000 0.300000
vt 3.000000 0.300000
vt -0.750000 0.300000
vt 0.750000 3.000000
vt 0.375000 0.000000
vt 0.375000 1.650000
vt -0.000000 1.650000
vt -3.000000 0.630000
vt -3.000000 0.550000
vt -0.375000 0.595561
vt -0.750000 -2.599750
vt -0.375000 -2.599750
vt 3.000000 0.630000
vt 0.000000 0.600000
vt 3.000000 0.600000
vt -3.000000 0.000000
vt -0.375000 0.000000
vt 0.000000 0.000000
vt 3.000000 0.000000
vt 0.750000 1.730000
vt 0.375000 1.730000
vt 3.000000 0.000000
vt -0.000000 1.730000
vt -0.750000 0.595561
vt 0.000000 1.730000
vt -0.375000 0.550000
vt -0.375000 0.630000
vt -0.750000 0.630000
vt -0.375000 0.000000
vt -0.000000 3.000000
vt -0.375000 3.000000
vt 0.000000 1.650000
vt -0.000000 0.000000
vt -0.000000 0.568020
vt -0.375000 -2.627290
vt 0.000000 -2.627290
vt -3.000000 0.550000
vt -3.000000 0.000000
vt 0.000000 -0.000000
vt 0.000000 0.550000
vt -3.000000 3.000000
vt -3.000000 0.000000
vt -0.375000 0.568020
vn 1.0000 0.0000 0.0000
vn 0.0000 -0.0000 1.0000
vn 0.0000 0.0000 -1.0000
vn 0.0000 1.0000 0.0000
vn -1.0000 0.0000 0.0000
vn 0.0000 0.9389 -0.3443
vn 0.0000 -1.0000 -0.0000
usemtl Asphalt.209
s 1
f 2/1/1 4/2/1 1/3/1
f 6/4/2 1/5/2 5/6/2
f 3/7/3 8/8/3 4/9/3
f 4/10/4 5/11/4 1/12/4
f 2/1/1 3/13/1 4/2/1
f 6/4/2 2/14/2 1/5/2
f 3/7/3 7/15/3 8/8/3
f 4/10/4 8/16/4 5/11/4
usemtl Stone.256
f 11/17/2 5/6/2 10/18/2
f 10/19/5 14/20/5 15/21/5
f 9/22/6 16/23/6 14/24/6
f 16/25/1 5/26/1 8/27/1
f 17/28/3 18/29/3 7/15/3
f 3/13/1 12/30/1 17/31/1
f 13/32/2 9/33/2 10/18/2
f 11/17/2 12/34/2 6/4/2
f 12/34/2 2/14/2 6/4/2
f 6/4/2 5/6/2 11/17/2
f 5/6/2 13/32/2 10/18/2
f 10/19/5 9/35/5 14/20/5
f 9/22/6 13/36/6 16/23/6
f 16/25/1 13/37/1 5/26/1
f 15/38/3 14/39/3 8/8/3
f 14/39/3 16/40/3 8/8/3
f 8/8/3 7/15/3 15/38/3
f 15/38/3 7/15/3 18/29/3
f 3/7/3 17/28/3 7/15/3
f 3/13/1 2/1/1 12/30/1
usemtl Grass.127
f 11/41/7 20/42/7 18/43/7
f 11/17/2 21/44/2 19/45/2
f 21/46/6 15/47/6 22/48/6
f 19/45/5 22/49/5 20/50/5
f 15/38/3 20/51/3 22/52/3
f 18/43/7 17/53/7 12/54/7
f 11/41/7 19/45/7 20/42/7
f 18/43/7 12/54/7 11/41/7
f 11/17/2 10/18/2 21/44/2
f 21/46/6 10/55/6 15/47/6
f 19/45/5 21/44/5 22/49/5
f 15/38/3 18/29/3 20/51/3
