# Blender v2.79 (sub 7) OBJ File: ''
# www.blender.org
mtllib roadTile_266.mtl
o Mesh1_Group1_Model.173
v 1.500000 0.000000 1.500000
v 1.500000 0.000000 -1.500000
v 1.500000 0.300000 0.375000
v -1.500000 0.000000 1.500000
v -1.500000 0.000000 -1.500000
v 0.375000 0.315000 -1.500000
v -0.375000 0.630000 -0.375000
v -0.375000 0.600000 -1.500000
v -0.375000 0.630000 -1.500000
v -1.500000 0.630000 -1.500000
v -1.500000 0.630000 -0.375000
v -0.375000 0.600000 -0.375000
v -1.500000 0.300000 0.375000
v -1.500000 0.300000 -0.375000
v -0.375000 0.315000 1.500000
v 0.375000 0.630000 0.375000
v 0.375000 0.600000 1.500000
v 0.375000 0.630000 1.500000
v 1.500000 0.630000 1.500000
v 1.500000 0.630000 0.375000
v 0.375000 0.600000 0.375000
v 0.375000 0.630000 -0.375000
v 1.500000 0.600000 -0.375000
v 1.500000 0.630000 -0.375000
v 0.375000 0.630000 -1.500000
v 1.500000 0.630000 -1.500000
v 0.375000 0.600000 -0.375000
v -0.375000 0.630000 0.375000
v -1.500000 0.600000 0.375000
v -1.500000 0.630000 0.375000
v -0.375000 0.630000 1.500000
v -1.500000 0.630000 1.500000
v -0.375000 0.600000 0.375000
v 1.500000 0.300000 -0.375000
v 1.500000 0.600000 0.375000
v -0.375000 0.315000 -1.500000
v 0.375000 0.600000 -1.500000
v -1.500000 0.600000 -0.375000
v 0.375000 0.315000 1.500000
v -0.375000 0.600000 1.500000
vt 0.000000 0.000000
vt 3.000000 0.000000
vt 1.125000 0.300000
vt -3.000000 3.000000
vt 0.000000 0.000000
vt 0.000000 3.000000
vt -1.875000 0.315000
vt -3.000000 -0.000000
vt -0.000000 -0.000000
vt 1.875000 0.630000
vt 3.000000 0.600000
vt 3.000000 0.630000
vt 1.125000 1.875000
vt 0.000000 3.000000
vt 0.000000 1.875000
vt 0.000000 0.630000
vt 1.125000 0.600000
vt 1.125000 0.630000
vt -1.125000 0.300000
vt -1.875000 0.300000
vt -3.000000 0.000000
vt 1.125000 0.315000
vt 3.000000 0.000000
vt -1.125000 0.630000
vt 0.000000 0.600000
vt 0.000000 0.630000
vt 1.875000 1.125000
vt 3.000000 0.000000
vt 3.000000 1.125000
vt -3.000000 0.630000
vt -1.875000 0.600000
vt -1.875000 0.630000
vt 1.875000 0.630000
vt 3.000000 0.600000
vt 3.000000 0.630000
vt 1.875000 3.000000
vt 3.000000 1.875000
vt 3.000000 3.000000
vt -3.000000 0.630000
vt -1.875000 0.600000
vt -1.875000 0.630000
vt -1.125000 0.630000
vt 0.000000 0.600000
vt 0.000000 0.630000
vt 1.125000 0.000000
vt 0.000000 1.125000
vt 0.000000 0.000000
vt -0.000000 0.630000
vt 1.125000 0.600000
vt 1.125000 0.630000
vt 3.000000 0.630000
vt 1.875000 0.300000
vt 1.875000 0.630000
vt 1.875000 0.600000
vt 1.125000 0.630000
vt 0.000000 0.630000
vt 1.125000 0.600000
vt -3.000000 0.000000
vt -0.000000 0.630000
vt -1.125000 0.630000
vt -1.125000 0.600000
vt -1.125000 0.315000
vt -1.875000 0.630000
vt -3.000000 0.630000
vt -1.875000 0.600000
vt 1.875000 0.600000
vt 1.125000 3.000000
vt 0.000000 0.600000
vt -0.000000 0.630000
vt -1.125000 0.630000
vt -1.125000 0.600000
vt -1.875000 0.630000
vt -3.000000 0.630000
vt -1.875000 0.600000
vt 3.000000 0.630000
vt 1.875000 0.630000
vt 1.875000 0.600000
vt 1.875000 0.315000
vt 1.125000 0.630000
vt 1.125000 0.600000
vt -1.125000 0.600000
vt 1.875000 0.000000
vt -3.000000 0.600000
vt 1.875000 0.600000
vt 1.875000 1.875000
vt -3.000000 0.600000
vt -1.125000 0.600000
vt 1.125000 1.125000
vt -0.000000 0.600000
vt 1.125000 1.875000
vt 1.125000 1.125000
vt 1.875000 1.125000
vt 3.000000 1.125000
vt 3.000000 1.875000
vt 1.875000 1.875000
vt 1.875000 3.000000
vt 1.125000 3.000000
vt -0.000000 1.875000
vt -0.000000 1.125000
vt 1.125000 0.000000
vt 1.875000 0.000000
vn 1.0000 0.0000 0.0000
vn 0.0000 -1.0000 -0.0000
vn 0.0000 0.0000 -1.0000
vn 0.0000 1.0000 0.0000
vn 0.0000 0.0000 1.0000
vn -1.0000 0.0000 0.0000
usemtl Stone.148
s 1
f 1/1/1 2/2/1 3/3/1
f 2/4/2 4/5/2 5/6/2
f 6/7/3 2/8/3 5/9/3
f 7/10/1 8/11/1 9/12/1
f 7/13/4 10/14/4 11/15/4
f 11/16/5 12/17/5 7/18/5
f 13/19/6 14/20/6 5/21/6
f 15/22/5 4/5/5 1/23/5
f 16/24/6 17/25/6 18/26/6
f 16/27/4 19/28/4 20/29/4
f 20/30/3 21/31/3 16/32/3
f 22/33/5 23/34/5 24/35/5
f 25/36/4 24/37/4 26/38/4
f 25/39/6 27/40/6 22/41/6
f 28/42/3 29/43/3 30/44/3
f 31/45/4 30/46/4 32/47/4
f 31/48/1 33/49/1 28/50/1
f 2/2/1 26/51/1 34/52/1
f 26/51/1 24/53/1 23/54/1
f 23/54/1 34/52/1 26/51/1
f 20/55/1 19/56/1 35/57/1
f 19/56/1 1/1/1 3/3/1
f 35/57/1 19/56/1 3/3/1
f 2/2/1 34/52/1 3/3/1
f 2/4/2 1/58/2 4/5/2
f 10/59/3 9/60/3 8/61/3
f 10/59/3 8/61/3 36/62/3
f 25/63/3 26/64/3 37/65/3
f 26/64/3 2/8/3 6/7/3
f 37/65/3 26/64/3 6/7/3
f 5/9/3 10/59/3 36/62/3
f 5/9/3 36/62/3 6/7/3
f 7/10/1 12/66/1 8/11/1
f 7/13/4 9/67/4 10/14/4
f 11/16/5 38/68/5 12/17/5
f 4/5/6 32/69/6 13/19/6
f 32/69/6 30/70/6 29/71/6
f 29/71/6 13/19/6 32/69/6
f 11/72/6 10/73/6 38/74/6
f 10/73/6 5/21/6 14/20/6
f 38/74/6 10/73/6 14/20/6
f 4/5/6 13/19/6 5/21/6
f 19/75/5 18/76/5 17/77/5
f 19/75/5 17/77/5 39/78/5
f 31/79/5 32/69/5 40/80/5
f 32/69/5 4/5/5 15/22/5
f 40/80/5 32/69/5 15/22/5
f 1/23/5 19/75/5 39/78/5
f 1/23/5 39/78/5 15/22/5
f 16/24/6 21/81/6 17/25/6
f 16/27/4 18/82/4 19/28/4
f 20/30/3 35/83/3 21/31/3
f 22/33/5 27/84/5 23/34/5
f 25/36/4 22/85/4 24/37/4
f 25/39/6 37/86/6 27/40/6
f 28/42/3 33/87/3 29/43/3
f 31/45/4 28/88/4 30/46/4
f 31/48/1 40/89/1 33/49/1
usemtl Asphalt.120
f 12/90/4 33/91/4 21/92/4
f 37/65/3 36/62/3 8/61/3
f 38/74/6 13/19/6 29/71/6
f 40/80/5 39/78/5 17/77/5
f 35/57/1 34/52/1 23/54/1
f 35/93/4 23/94/4 27/95/4
f 27/95/4 37/96/4 8/97/4
f 12/90/4 38/98/4 29/99/4
f 27/95/4 8/97/4 12/90/4
f 21/92/4 35/93/4 27/95/4
f 40/100/4 17/101/4 21/92/4
f 12/90/4 29/99/4 33/91/4
f 33/91/4 40/100/4 21/92/4
f 21/92/4 27/95/4 12/90/4
f 37/65/3 6/7/3 36/62/3
f 38/74/6 14/20/6 13/19/6
f 40/80/5 15/22/5 39/78/5
f 35/57/1 3/3/1 34/52/1
