# Blender v2.79 (sub 7) OBJ File: ''
# www.blender.org
mtllib roadTile_060.mtl
o Mesh1_Group1_Model.293
v -1.500000 0.300000 1.500000
v 0.750000 0.600000 1.500000
v -1.500000 0.600000 1.500000
v -1.500000 0.300000 -1.500000
v -1.500000 0.600000 -1.500000
v 0.750000 0.300000 -1.500000
v 0.750000 0.600000 -1.500000
v 0.750000 0.600000 -0.750000
v 0.750000 0.600000 0.750000
v 1.500000 0.300000 0.750000
v 1.500000 0.600000 -0.750000
v 1.500000 0.600000 0.750000
v 0.750000 0.300000 1.500000
v 1.500000 0.300000 -0.750000
v 1.500000 0.630000 -1.500000
v 1.500000 0.000000 -1.500000
v 0.750000 0.630000 -1.500000
v 0.750000 0.630000 0.750000
v -1.500000 0.000000 1.500000
v 1.500000 0.000000 1.500000
v -1.500000 0.000000 -1.500000
v 0.750000 0.630000 -0.750000
v 1.500000 0.630000 -0.750000
v 1.500000 0.630000 0.750000
v 1.500000 0.630000 1.500000
v 0.750000 0.630000 1.500000
vt 0.000000 0.300000
vt 2.250000 0.600000
vt 0.000000 0.600000
vt -3.000000 0.300000
vt -3.000000 0.600000
vt -2.250000 0.300000
vt -0.000000 0.600000
vt -2.250000 0.600000
vt 2.250000 2.250000
vt 0.000000 3.000000
vt 2.250000 0.750000
vt 0.750000 0.300000
vt 2.250000 0.600000
vt 0.750000 0.600000
vt 2.250000 0.300000
vt -0.000000 0.300000
vt 2.250000 3.000000
vt 0.000000 0.000000
vt 2.250000 0.000000
vt 3.000000 0.750000
vt 3.000000 2.250000
vt 2.250000 0.300000
vt -3.000000 0.630000
vt -3.000000 0.000000
vt -2.250000 0.600000
vt -3.000000 0.630000
vt -3.000000 0.600000
vt 0.000000 0.600000
vt -0.750000 0.630000
vt -0.750000 0.600000
vt 0.000000 0.000000
vt 3.000000 0.000000
vt -3.000000 0.000000
vt -3.000000 3.000000
vt -0.000000 3.000000
vt 3.000000 -0.000000
vt 0.000000 -0.000000
vt 3.000000 3.000000
vt 2.250000 2.250000
vt 3.000000 2.250000
vt 3.000000 0.600000
vt 2.250000 0.630000
vt 2.250000 0.600000
vt -2.250000 0.600000
vt -3.000000 0.630000
vt -3.000000 0.600000
vt 3.000000 0.000000
vt 2.250000 0.750000
vt 2.250000 0.000000
vt -0.000000 0.000000
vt -2.250000 0.630000
vt -2.250000 0.630000
vt 0.000000 0.630000
vt 2.250000 0.630000
vt 3.000000 0.630000
vt -3.000000 0.000000
vt 3.000000 0.630000
vt 2.250000 0.630000
vt 0.750000 0.630000
vt 0.000000 0.630000
vt 2.250000 3.000000
vt 3.000000 0.630000
vt -2.250000 0.630000
vt 3.000000 0.750000
vn 0.0000 0.0000 1.0000
vn -1.0000 0.0000 0.0000
vn 0.0000 0.0000 -1.0000
vn -0.0000 1.0000 0.0000
vn 1.0000 0.0000 0.0000
vn 0.0000 -1.0000 -0.0000
usemtl Asphalt.203
s 1
f 1/1/1 2/2/1 3/3/1
f 4/4/2 3/3/2 5/5/2
f 6/6/3 5/7/3 7/8/3
f 8/9/4 5/10/4 9/11/4
f 10/12/5 11/13/5 12/14/5
f 1/1/1 13/15/1 2/2/1
f 4/4/2 1/1/2 3/3/2
f 6/6/3 4/16/3 5/7/3
f 8/9/4 7/17/4 5/10/4
f 5/10/4 3/18/4 9/11/4
f 3/18/4 2/19/4 9/11/4
f 9/11/4 12/20/4 11/21/4
f 9/11/4 11/21/4 8/9/4
f 10/12/5 14/22/5 11/13/5
usemtl Stone.250
f 6/6/3 15/23/3 16/24/3
f 8/25/2 17/26/2 7/27/2
f 2/28/2 18/29/2 9/30/2
f 13/15/1 19/31/1 20/32/1
f 1/1/2 21/33/2 19/31/2
f 16/34/6 19/31/6 21/35/6
f 16/36/5 10/12/5 20/37/5
f 15/38/4 22/39/4 23/40/4
f 11/41/1 22/42/1 8/43/1
f 9/44/3 24/45/3 12/46/3
f 25/47/4 18/48/4 26/49/4
f 21/50/3 4/16/3 6/6/3
f 7/8/3 17/51/3 15/23/3
f 16/24/3 21/50/3 6/6/3
f 6/6/3 7/8/3 15/23/3
f 8/25/2 22/52/2 17/26/2
f 2/28/2 26/53/2 18/29/2
f 26/54/1 2/2/1 25/55/1
f 2/2/1 13/15/1 25/55/1
f 25/55/1 13/15/1 20/32/1
f 13/15/1 1/1/1 19/31/1
f 1/1/2 4/4/2 21/33/2
f 16/34/6 20/56/6 19/31/6
f 16/36/5 15/57/5 14/22/5
f 15/57/5 23/58/5 11/13/5
f 11/13/5 14/22/5 15/57/5
f 24/59/5 25/60/5 12/14/5
f 25/60/5 20/37/5 10/12/5
f 12/14/5 25/60/5 10/12/5
f 16/36/5 14/22/5 10/12/5
f 15/38/4 17/61/4 22/39/4
f 11/41/1 23/62/1 22/42/1
f 9/44/3 18/63/3 24/45/3
f 25/47/4 24/64/4 18/48/4
