# Blender v2.79 (sub 7) OBJ File: ''
# www.blender.org
mtllib roadTile_254.mtl
o Mesh1_Group1_Model.267
v -1.500000 1.400000 -0.375000
v -1.500000 1.700000 1.125000
v -1.500000 1.700000 -0.375000
v 1.500000 1.700000 1.125000
v 1.500000 1.700000 -0.375000
v 1.500000 1.400000 1.125000
v -1.500000 1.400000 1.125000
v 1.500000 1.400000 -0.375000
v -1.500000 1.100000 -0.375000
v 1.500000 1.730000 -0.750000
v -1.500000 1.100000 -0.750000
v -1.500000 1.730000 -0.750000
v -1.500000 1.730000 -0.375000
v 1.500000 1.730000 -0.375000
v 1.500000 1.100000 1.125000
v 1.500000 0.000000 -0.375000
v 1.500000 1.100000 -0.375000
v -1.500000 1.100000 1.125000
v 1.500000 0.000000 1.125000
v 1.500000 0.000000 1.500000
v -1.500000 1.730000 1.500000
v 1.500000 1.730000 1.125000
v -1.500000 1.730000 1.125000
v -1.500000 1.100000 1.500000
v 1.500000 0.000000 -0.750000
v 1.500000 1.730000 1.500000
vt -1.875000 1.400000
vt -0.375000 1.700000
vt -1.875000 1.700000
vt 0.000000 1.875000
vt 3.000000 0.375000
vt 3.000000 1.875000
vt 0.375000 1.400000
vt 1.875000 1.700000
vt 0.375000 1.700000
vt -0.375000 1.400000
vt 0.000000 0.375000
vt 1.875000 1.400000
vt -1.875000 1.100000
vt -3.000000 1.730000
vt -0.000000 1.100000
vt -0.000000 1.730000
vt 3.000000 2.250000
vt 0.000000 1.875000
vt 3.000000 1.875000
vt 0.375000 1.100000
vt -2.250000 0.378680
vt -1.875000 -2.816630
vt -1.875000 0.378680
vt 0.000000 1.100000
vt 3.000000 0.000000
vt 3.000000 1.100000
vt -0.000000 0.375000
vt -3.000000 1.875000
vt -3.000000 0.375000
vt -3.000000 0.000000
vt -0.000000 1.100000
vt -3.000000 1.100000
vt -0.000000 -2.816630
vt -0.375000 0.378680
vt -0.375000 -2.816630
vt 0.000000 0.000000
vt 3.000000 0.375000
vt 0.000000 0.375000
vt -0.000000 1.700000
vt -3.000000 1.730000
vt -3.000000 1.700000
vt 3.000000 1.700000
vt 0.000000 1.730000
vt 0.000000 1.700000
vt -1.875000 1.730000
vt -2.250000 1.730000
vt -2.250000 1.100000
vt -0.375000 1.100000
vt 0.000000 1.100000
vt -0.000000 1.730000
vt -0.375000 1.730000
vt -3.000000 0.000000
vt 0.000000 2.250000
vt 1.875000 1.100000
vt 1.875000 -0.000000
vt 2.250000 -0.000000
vt 2.250000 1.730000
vt 1.875000 1.730000
vt 0.000000 -0.000000
vt 0.375000 -0.000000
vt 0.375000 1.730000
vt 0.000000 1.730000
vt -2.250000 -2.816630
vt -0.000000 1.875000
vt -0.000000 0.378680
vt 3.000000 0.000000
vt -0.000000 1.730000
vt 3.000000 1.730000
vt 118.110001 68.110199
vt 0.000000 43.307098
vt 118.110001 0.000000
vt 0.000000 68.110199
vn -1.0000 0.0000 0.0000
vn 0.0000 1.0000 0.0000
vn 1.0000 0.0000 0.0000
vn 0.0000 0.0000 -1.0000
vn -0.3443 -0.9389 0.0000
vn 0.0000 0.0000 1.0000
vn 0.0000 -1.0000 -0.0000
usemtl Asphalt.184
s 1
f 1/1/1 2/2/1 3/3/1
f 3/4/2 4/5/2 5/6/2
f 6/7/3 5/8/3 4/9/3
f 1/1/1 7/10/1 2/2/1
f 3/4/2 2/11/2 4/5/2
f 6/7/3 8/12/3 5/8/3
usemtl Stone.227
f 7/10/1 1/1/1 9/13/1
f 10/14/4 11/15/4 12/16/4
f 10/17/2 13/18/2 14/19/2
f 8/12/3 6/7/3 15/20/3
f 11/21/5 16/22/5 9/23/5
f 9/24/6 16/25/6 17/26/6
f 18/27/7 17/28/7 15/29/7
f 19/30/4 18/31/4 15/32/4
f 20/33/5 18/34/5 19/35/5
f 21/36/2 22/37/2 23/38/2
f 2/39/4 22/40/4 4/41/4
f 5/42/6 13/43/6 3/44/6
f 13/45/1 12/46/1 3/3/1
f 12/46/1 11/47/1 1/1/1
f 3/3/1 12/46/1 1/1/1
f 11/47/1 9/13/1 1/1/1
f 9/13/1 18/48/1 7/10/1
f 18/48/1 24/49/1 7/10/1
f 24/49/1 21/50/1 7/10/1
f 21/50/1 23/51/1 2/2/1
f 21/50/1 2/2/1 7/10/1
f 10/14/4 25/52/4 11/15/4
f 10/17/2 12/53/2 13/18/2
f 17/54/3 16/55/3 25/56/3
f 25/56/3 10/57/3 17/54/3
f 10/57/3 14/58/3 5/8/3
f 5/8/3 8/12/3 10/57/3
f 10/57/3 8/12/3 17/54/3
f 20/59/3 19/60/3 15/20/3
f 22/61/3 26/62/3 4/9/3
f 26/62/3 20/59/3 15/20/3
f 4/9/3 26/62/3 6/7/3
f 6/7/3 26/62/3 15/20/3
f 15/20/3 17/54/3 8/12/3
f 11/21/5 25/63/5 16/22/5
f 18/27/7 9/64/7 17/28/7
f 20/33/5 24/65/5 18/34/5
f 21/36/2 26/66/2 22/37/2
f 2/39/4 23/67/4 22/40/4
f 5/42/6 14/68/6 13/43/6
usemtl FrontColor.010
f 26/69/6 24/70/6 20/71/6
f 26/69/6 21/72/6 24/70/6
