# Blender v2.79 (sub 7) OBJ File: ''
# www.blender.org
mtllib roadTile_117.mtl
o Mesh1_Group1_Model.085
v 1.125000 0.600000 -1.500000
v -1.125000 0.600000 1.500000
v 1.125000 0.600000 1.500000
v 1.125000 0.300000 1.500000
v -1.125000 0.300000 1.500000
v 1.125000 0.300000 -1.500000
v -1.125000 0.600000 -1.500000
v -1.125000 0.300000 -1.500000
v -1.500000 0.000000 1.500000
v -1.500000 1.730000 -1.500000
v -1.500000 1.730000 1.500000
v -1.125000 1.730000 1.500000
v -1.125000 1.730000 -1.500000
v -1.500000 0.000000 -1.500000
v 1.125000 0.000000 1.500000
v 1.125000 0.000000 -1.500000
vt 2.625000 3.000000
vt 0.375000 0.000000
vt 2.625000 0.000000
vt 0.000000 0.300000
vt 3.000000 0.600000
vt 0.000000 0.600000
vt 0.375000 0.300000
vt 2.625000 0.600000
vt 0.375000 0.600000
vt -2.625000 0.300000
vt -0.375000 0.600000
vt -2.625000 0.600000
vt 0.375000 3.000000
vt 3.000000 0.300000
vt 2.625000 0.300000
vt -0.375000 0.300000
vt -0.000000 0.000000
vt -3.000000 1.730000
vt 0.000000 1.730000
vt 0.000000 3.000000
vt 0.375000 0.000000
vt 0.375000 3.000000
vt 0.000000 0.000000
vt -2.625000 -0.000000
vt -0.000000 3.000000
vt -2.625000 3.000000
vt 0.000000 0.000000
vt 3.000000 0.000000
vt 0.000000 1.730000
vt 3.000000 0.600000
vt 3.000000 1.730000
vt 0.375000 1.730000
vt 2.625000 0.000000
vt -3.000000 0.000000
vt -0.000000 0.000000
vt -2.625000 0.000000
vt 0.000000 1.730000
vt -0.375000 1.730000
vt 0.000000 0.600000
vn 0.0000 1.0000 0.0000
vn 1.0000 0.0000 0.0000
vn 0.0000 0.0000 1.0000
vn 0.0000 0.0000 -1.0000
vn -1.0000 0.0000 0.0000
vn 0.0000 -1.0000 -0.0000
usemtl Asphalt.052
s 1
f 1/1/1 2/2/1 3/3/1
f 4/4/2 1/5/2 3/6/2
f 5/7/3 3/8/3 2/9/3
f 6/10/4 7/11/4 1/12/4
f 1/1/1 7/13/1 2/2/1
f 4/4/2 6/14/2 1/5/2
f 5/7/3 4/15/3 3/8/3
f 6/10/4 8/16/4 7/11/4
usemtl Stone.066
f 5/7/3 2/9/3 9/17/3
f 10/18/5 9/17/5 11/19/5
f 10/20/1 12/21/1 13/22/1
f 7/11/4 8/16/4 14/23/4
f 15/24/6 14/25/6 16/26/6
f 6/14/2 15/27/2 16/28/2
f 12/29/2 7/30/2 13/31/2
f 12/32/3 11/19/3 2/9/3
f 11/19/3 9/17/3 2/9/3
f 9/17/3 15/33/3 5/7/3
f 15/33/3 4/15/3 5/7/3
f 10/18/5 14/34/5 9/17/5
f 10/20/1 11/35/1 12/21/1
f 6/10/4 16/36/4 8/16/4
f 16/36/4 14/23/4 8/16/4
f 14/23/4 10/37/4 7/11/4
f 10/37/4 13/38/4 7/11/4
f 15/24/6 9/17/6 14/25/6
f 6/14/2 4/4/2 15/27/2
f 12/29/2 2/39/2 7/30/2
