# Blender v2.79 (sub 7) OBJ File: ''
# www.blender.org
mtllib roadTile_170.mtl
o Mesh1_Group1_Model.130
v 3.000000 1.650000 -3.000000
v 3.000000 1.650000 -2.625000
v 3.000000 0.000000 -2.625000
v 3.000000 0.000000 -3.000000
v 0.000000 1.650000 -3.000000
v 0.000000 1.650000 -2.625000
v 0.000000 1.100000 -3.000000
v 0.000000 1.100000 -2.625000
v 3.000000 1.650000 0.000000
v 3.000000 1.650000 -0.375000
v 0.000000 1.650000 -0.375000
v 0.000000 1.650000 0.000000
v 3.000000 0.000000 0.000000
v 3.000000 0.000000 -0.375000
v 0.000000 1.100000 0.000000
v 0.000000 1.100000 -0.375000
v 0.000000 1.100000 -2.250000
v 3.000000 0.000000 -2.250000
v 0.000000 1.730000 -2.625000
v 0.000000 1.100000 -0.750000
v 0.000000 1.730000 -0.375000
v 0.000000 1.730000 -0.750000
v 0.000000 1.700000 -0.750000
v 0.000000 1.400000 -0.750000
v 0.000000 1.400000 -2.250000
v 0.000000 1.700000 -2.250000
v 0.000000 1.730000 -2.250000
v 3.000000 1.730000 -2.625000
v 3.000000 1.730000 -2.250000
v 3.000000 1.700000 -2.250000
v 3.000000 1.400000 -2.250000
v 3.000000 1.400000 -0.750000
v 3.000000 1.700000 -0.750000
v 3.000000 1.730000 -0.750000
v 3.000000 1.730000 -0.375000
v 3.000000 0.000000 -0.750000
v 3.000000 1.100000 -0.750000
v 3.000000 1.100000 -2.250000
vt 2.625000 1.650000
vt 3.000000 -0.000000
vt 3.000000 1.650000
vt 0.000000 2.625000
vt 3.000000 3.000000
vt 0.000000 3.000000
vt -2.625000 1.100000
vt -3.000000 1.650000
vt -3.000000 1.100000
vt -2.625000 -2.816630
vt -3.000000 0.378680
vt -3.000000 -2.816630
vt 3.000000 0.375000
vt 0.000000 0.000000
vt 3.000000 0.000000
vt 0.375000 -0.000000
vt 0.000000 1.650000
vt 0.000000 -0.000000
vt -0.375000 0.378680
vt -0.000000 -2.816630
vt 0.000000 0.378680
vt -0.375000 1.650000
vt 0.000000 1.100000
vt 0.000000 1.650000
vt 3.000000 1.650000
vt -0.000000 1.100000
vt -3.000000 1.650000
vt -3.000000 -0.000000
vt 2.625000 -0.000000
vt 3.000000 2.625000
vt -2.625000 1.650000
vt -2.625000 0.378680
vt 0.000000 0.375000
vt 0.375000 1.650000
vt -0.375000 -2.816630
vt -0.375000 1.100000
vt 3.000000 -0.000000
vt -0.000000 1.650000
vt -2.250000 -2.816630
vt -2.250000 0.378680
vt -2.250000 1.100000
vt -0.750000 1.100000
vt -0.750000 1.400000
vt -3.000000 1.730000
vt -0.000000 1.650000
vt -0.000000 1.730000
vt 3.000000 2.625000
vt 0.000000 2.250000
vt 3.000000 2.250000
vt 0.750000 1.400000
vt 0.750000 1.100000
vt 2.250000 1.100000
vt 3.000000 1.700000
vt 0.000000 1.730000
vt 0.000000 1.700000
vt -0.000000 1.700000
vt -3.000000 1.730000
vt -3.000000 1.700000
vt 0.000000 0.375000
vt 3.000000 0.750000
vt 0.000000 0.750000
vt 0.000000 1.730000
vt 3.000000 1.650000
vt 3.000000 1.730000
vt -0.750000 0.378680
vt -0.750000 -2.816630
vt -3.000000 0.000000
vt -0.000000 1.100000
vt -3.000000 1.100000
vt -0.000000 0.750000
vt -3.000000 2.250000
vt -3.000000 0.750000
vt 0.000000 1.100000
vt 3.000000 0.000000
vt 3.000000 1.100000
vt -2.250000 1.730000
vt -2.625000 1.730000
vt -2.250000 1.700000
vt -2.250000 1.400000
vt -0.375000 1.730000
vt -0.750000 1.700000
vt -0.750000 1.730000
vt -3.000000 1.650000
vt 0.000000 2.625000
vt 2.250000 0.000000
vt 2.625000 1.730000
vt 2.250000 1.700000
vt 2.250000 1.730000
vt 0.750000 0.000000
vt 2.250000 1.400000
vt 0.750000 1.730000
vt 0.375000 1.730000
vt 0.750000 1.700000
vt 3.000000 1.730000
vt -0.000000 1.730000
vt 3.000000 0.375000
vt 0.000000 1.650000
vt -0.000000 2.250000
vt -0.000000 43.307098
vt -118.110001 64.960602
vt -118.110001 -0.000000
vt 0.000000 43.307098
vt 118.110001 64.960602
vt 0.000000 64.960602
vt -0.000000 64.960602
vt 118.110001 0.000000
vt 0.000000 2.250000
vt 3.000000 0.750000
vt 3.000000 2.250000
vt 0.000000 0.750000
vn 1.0000 0.0000 0.0000
vn 0.0000 1.0000 0.0000
vn -1.0000 0.0000 0.0000
vn -0.3443 -0.9389 0.0000
vn 0.0000 -0.0000 1.0000
vn 0.0000 0.0000 -1.0000
vn 0.0000 -1.0000 -0.0000
usemtl Grass.056
s 1
f 2/1/1 4/2/1 1/3/1
f 6/4/2 1/5/2 5/6/2
f 8/7/3 5/8/3 7/9/3
f 3/10/4 7/11/4 4/12/4
f 10/13/2 12/14/2 9/15/2
f 14/16/1 9/17/1 13/18/1
f 16/19/4 13/20/4 15/21/4
f 11/22/3 15/23/3 12/24/3
f 15/23/5 9/25/5 12/24/5
f 7/26/6 1/27/6 4/28/6
f 2/1/1 3/29/1 4/2/1
f 6/4/2 2/30/2 1/5/2
f 8/7/3 6/31/3 5/8/3
f 3/10/4 8/32/4 7/11/4
f 10/13/2 11/33/2 12/14/2
f 14/16/1 10/34/1 9/17/1
f 16/19/4 14/35/4 13/20/4
f 11/22/3 16/36/3 15/23/3
f 15/23/5 13/37/5 9/25/5
f 7/26/6 5/38/6 1/27/6
usemtl Stone.109
f 8/32/4 18/39/4 17/40/4
f 17/41/3 20/42/3 24/43/3
f 28/44/6 6/45/6 19/46/6
f 28/47/2 27/48/2 29/49/2
f 32/50/1 37/51/1 38/52/1
f 30/53/5 27/54/5 26/55/5
f 23/56/6 34/57/6 33/58/6
f 21/59/2 34/60/2 22/61/2
f 21/62/5 10/63/5 35/64/5
f 14/35/4 20/65/4 36/66/4
f 36/67/6 20/68/6 37/69/6
f 20/70/7 38/71/7 37/72/7
f 17/73/5 18/74/5 38/75/5
f 8/32/4 3/10/4 18/39/4
f 27/76/3 19/77/3 26/78/3
f 19/77/3 6/31/3 26/78/3
f 6/31/3 8/7/3 25/79/3
f 8/7/3 17/41/3 25/79/3
f 20/42/3 16/36/3 24/43/3
f 16/36/3 11/22/3 24/43/3
f 25/79/3 26/78/3 6/31/3
f 11/22/3 21/80/3 23/81/3
f 24/43/3 11/22/3 23/81/3
f 21/80/3 22/82/3 23/81/3
f 24/43/3 25/79/3 17/41/3
f 28/44/6 2/83/6 6/45/6
f 28/47/2 19/84/2 27/48/2
f 38/52/1 18/85/1 3/29/1
f 2/1/1 28/86/1 30/87/1
f 28/86/1 29/88/1 30/87/1
f 38/52/1 3/29/1 2/1/1
f 14/16/1 36/89/1 37/51/1
f 2/1/1 30/87/1 31/90/1
f 10/34/1 14/16/1 37/51/1
f 34/91/1 35/92/1 33/93/1
f 35/92/1 10/34/1 33/93/1
f 32/50/1 33/93/1 10/34/1
f 38/52/1 2/1/1 31/90/1
f 38/52/1 31/90/1 32/50/1
f 32/50/1 10/34/1 37/51/1
f 30/53/5 29/94/5 27/54/5
f 23/56/6 22/95/6 34/57/6
f 21/59/2 35/96/2 34/60/2
f 21/62/5 11/97/5 10/63/5
f 14/35/4 16/19/4 20/65/4
f 20/70/7 17/98/7 38/71/7
usemtl FrontColor.005
f 8/99/6 2/100/6 3/101/6
f 16/102/5 10/103/5 11/104/5
f 8/99/6 6/105/6 2/100/6
f 16/102/5 14/106/5 10/103/5
usemtl Asphalt.086
f 26/107/2 33/108/2 30/109/2
f 25/79/3 23/81/3 26/78/3
f 32/50/1 30/87/1 33/93/1
f 26/107/2 23/110/2 33/108/2
f 25/79/3 24/43/3 23/81/3
f 32/50/1 31/90/1 30/87/1
