# Blender v2.79 (sub 7) OBJ File: ''
# www.blender.org
mtllib roadTile_015.mtl
o Mesh1_Group1_Model.070
v -1.500000 0.000000 -1.500000
v -1.500000 0.000000 1.500000
v -1.500000 0.300000 0.750000
v 1.500000 0.550000 -1.500000
v 1.500000 0.000000 -1.500000
v 1.500000 0.000000 1.500000
v 1.500000 0.300000 -0.750000
v -1.500000 0.550000 1.500000
v 1.500000 0.550000 0.750000
v 1.500000 0.550000 1.500000
v -1.500000 0.550000 -0.750000
v 1.500000 0.550000 -0.750000
v -1.500000 0.550000 -1.500000
v -1.500000 0.455000 -0.750000
v -1.500000 0.300000 -0.750000
v -1.500000 0.550000 0.750000
v -1.500000 0.455000 0.750000
v 1.500000 0.455000 0.750000
v 1.500000 0.300000 0.750000
v 1.500000 0.455000 -0.750000
v -0.750000 0.205000 0.750000
v 0.750000 0.205000 0.750000
v -0.750000 0.205000 -0.750000
v 0.750000 0.205000 -0.750000
vt -3.000000 0.000000
vt 0.000000 0.000000
vt -0.750000 0.300000
vt -0.000000 0.000000
vt -3.000000 0.550000
vt -3.000000 0.000000
vt -0.000000 3.000000
vt -3.000000 0.000000
vt 0.000000 0.000000
vt 3.000000 0.000000
vt 2.250000 0.300000
vt 3.000000 -0.000000
vt 0.000000 0.550000
vt 3.000000 0.750000
vt 0.000000 -0.000000
vt 3.000000 0.000000
vt 3.000000 3.000000
vt 0.000000 2.250000
vt 3.000000 2.250000
vt -2.250000 0.550000
vt -3.000000 0.550000
vt -2.250000 0.455000
vt -2.250000 0.300000
vt -0.750000 0.550000
vt -0.750000 0.455000
vt -0.000000 0.550000
vt -3.000000 3.000000
vt 0.750000 0.550000
vt 0.000000 0.550000
vt 0.750000 0.455000
vt 0.750000 0.300000
vt 3.000000 0.550000
vt 2.250000 0.550000
vt 2.250000 0.455000
vt 3.000000 0.550000
vt 0.000000 0.750000
vt 0.000000 3.000000
vt -0.000000 0.550000
vt -3.000000 0.550000
vt -0.750000 0.205000
vt 2.250000 0.750000
vt 0.750000 2.250000
vt 0.750000 0.750000
vt -0.750000 2.989930
vt -2.250000 2.199360
vt -0.750000 2.199360
vt 3.000000 0.550000
vt 0.000000 0.550000
vt 2.250000 0.205000
vt 0.750000 -0.646686
vt 2.250000 0.143884
vt 0.750000 0.143884
vt -3.000000 0.455000
vt -2.250000 0.205000
vt -0.000000 0.455000
vt 2.250000 2.250000
vt -2.250000 2.989930
vt 0.000000 0.455000
vt 0.750000 0.205000
vt 3.000000 0.455000
vt 2.250000 -0.646686
vn -1.0000 0.0000 0.0000
vn 0.0000 0.0000 -1.0000
vn 0.0000 -1.0000 -0.0000
vn 1.0000 0.0000 0.0000
vn 0.0000 0.0000 1.0000
vn 0.0000 1.0000 0.0000
vn -0.1602 0.9871 0.0000
vn 0.1602 0.9871 0.0000
vn -0.3162 0.9487 0.0000
vn 0.3162 0.9487 0.0000
usemtl Grass.037
s 1
f 1/1/1 2/2/1 3/3/1
f 1/4/2 4/5/2 5/6/2
f 1/7/3 6/8/3 2/2/3
f 6/9/4 5/10/4 7/11/4
f 6/12/5 8/13/5 2/2/5
f 9/14/6 8/15/6 10/16/6
f 4/17/6 11/18/6 12/19/6
f 11/20/1 13/21/1 14/22/1
f 13/21/1 1/1/1 15/23/1
f 14/22/1 13/21/1 15/23/1
f 2/2/1 8/13/1 3/3/1
f 8/13/1 16/24/1 17/25/1
f 17/25/1 3/3/1 8/13/1
f 3/3/1 15/23/1 1/1/1
f 1/4/2 13/26/2 4/5/2
f 1/7/3 5/27/3 6/8/3
f 9/28/4 10/29/4 18/30/4
f 10/29/4 6/9/4 19/31/4
f 18/30/4 10/29/4 19/31/4
f 5/10/4 4/32/4 7/11/4
f 4/32/4 12/33/4 20/34/4
f 20/34/4 7/11/4 4/32/4
f 7/11/4 19/31/4 6/9/4
f 6/12/5 10/35/5 8/13/5
f 9/14/6 16/36/6 8/15/6
f 4/17/6 13/37/6 11/18/6
usemtl Alternate_Dirt.002
f 16/38/2 9/39/2 21/40/2
f 22/41/7 23/42/8 21/43/8
f 18/44/9 24/45/7 22/46/7
f 19/31/4 20/34/4 18/30/4
f 12/47/5 11/48/5 24/49/5
f 21/50/8 14/51/10 17/52/10
f 15/23/1 17/25/1 14/22/1
f 18/53/2 22/54/2 9/39/2
f 22/54/2 21/40/2 9/39/2
f 21/40/2 17/55/2 16/38/2
f 22/41/7 24/56/7 23/42/8
f 18/44/9 20/57/9 24/45/7
f 19/31/4 7/11/4 20/34/4
f 14/58/5 23/59/5 11/48/5
f 23/59/5 24/49/5 11/48/5
f 24/49/5 20/60/5 12/47/5
f 21/50/8 23/61/8 14/51/10
f 15/23/1 3/3/1 17/25/1
