# Blender v2.79 (sub 7) OBJ File: ''
# www.blender.org
mtllib roadTile_145.mtl
o Mesh1_Group1_Model.270
v 0.375000 0.455000 1.500000
v 1.500000 0.000000 1.500000
v 1.500000 0.455000 1.500000
v 1.500000 0.455000 -1.500000
v -0.750000 0.455000 -1.500000
v 1.500000 0.000000 -1.500000
v -0.750000 0.000000 -1.500000
v 0.375000 0.000000 1.500000
v -0.750000 0.455000 1.500000
v -0.750000 0.000000 1.500000
v -1.500000 0.000000 1.500000
v -1.500000 0.000000 -1.500000
v -1.500000 0.550000 -1.500000
v -0.750000 0.550000 1.500000
v -1.500000 0.550000 1.500000
v -0.750000 0.550000 -1.500000
vt 1.875000 0.455000
vt 3.000000 0.000000
vt 3.000000 0.455000
vt 1.875000 0.000000
vt 3.000000 3.000000
vt 0.750000 3.000000
vt 0.000000 0.455000
vt 3.000000 0.000000
vt 3.000000 0.455000
vt -0.750000 0.455000
vt -3.000000 0.000000
vt -0.750000 0.000000
vt 1.875000 0.000000
vt 3.000000 -0.000000
vt 0.000000 0.000000
vt -3.000000 0.455000
vt 0.750000 0.000000
vt 0.750000 0.455000
vt 0.750000 0.000000
vt -0.000000 0.000000
vt -0.000000 3.000000
vt -0.750000 3.000000
vt 0.000000 0.550000
vt 0.000000 0.000000
vt -3.000000 0.550000
vt -3.000000 0.000000
vt 0.750000 0.550000
vt -0.000000 0.550000
vt 0.000000 0.550000
vt 3.000000 0.455000
vt 3.000000 0.550000
vt 0.750000 0.000000
vt 0.000000 3.000000
vt 0.000000 0.000000
vt -3.000000 3.000000
vt -1.875000 0.000000
vt -3.000000 0.000000
vt -0.750000 0.000000
vt -0.750000 0.550000
vt 0.000000 0.455000
vt 0.750000 3.000000
vn 0.0000 0.0000 1.0000
vn 0.0000 1.0000 0.0000
vn 1.0000 0.0000 0.0000
vn 0.0000 0.0000 -1.0000
vn 0.0000 -1.0000 -0.0000
vn -1.0000 0.0000 0.0000
usemtl Water.044
s 1
f 1/1/1 2/2/1 3/3/1
f 1/4/2 4/5/2 5/6/2
f 3/7/3 6/8/3 4/9/3
f 5/10/4 6/11/4 7/12/4
f 1/1/1 8/13/1 2/2/1
f 1/4/2 3/14/2 4/5/2
f 3/7/3 2/15/3 6/8/3
f 5/10/4 4/16/4 6/11/4
usemtl Sand.007
f 9/17/2 1/4/2 5/6/2
f 8/13/1 9/18/1 10/19/1
f 8/13/1 1/1/1 9/18/1
usemtl Grass.113
f 11/20/5 12/21/5 7/22/5
f 13/23/4 5/10/4 12/24/4
f 11/20/6 13/25/6 12/26/6
f 9/18/1 14/27/1 15/28/1
f 14/29/3 5/30/3 16/31/3
f 14/32/2 13/33/2 15/34/2
f 7/22/5 6/35/5 8/36/5
f 6/35/5 2/37/5 8/36/5
f 8/36/5 10/38/5 7/22/5
f 10/38/5 11/20/5 7/22/5
f 16/39/4 5/10/4 13/23/4
f 5/10/4 7/12/4 12/24/4
f 11/20/6 15/28/6 13/25/6
f 15/28/1 11/20/1 9/18/1
f 11/20/1 10/19/1 9/18/1
f 14/29/3 9/40/3 5/30/3
f 14/32/2 16/41/2 13/33/2
