# Blender v2.79 (sub 7) OBJ File: ''
# www.blender.org
mtllib roadTile_158.mtl
o Mesh1_Group1_Model.143
v 0.850481 0.455000 -1.125000
v 0.775556 0.455000 -1.305890
v 0.775556 0.550000 -1.305890
v 0.850481 0.550000 -1.125000
v 1.500000 0.455000 -0.750001
v 1.305890 0.455000 -0.775556
v 1.305890 0.550000 -0.775556
v 1.500000 0.550000 -0.750001
v 1.125000 0.455000 -0.850481
v 1.125000 0.550000 -0.850481
v 0.969670 0.455000 -0.969670
v 0.969670 0.550000 -0.969670
v 1.305890 0.550000 -2.224440
v 1.500000 0.550000 -2.250000
v 3.000000 0.550000 -2.250000
v 3.000000 0.550000 -3.000000
v 0.000000 0.550000 -3.000000
v 0.000000 0.550000 0.000000
v 3.000000 0.550000 0.000000
v 3.000000 0.550000 -0.750001
v 0.750000 0.550000 -1.500000
v 0.775556 0.550000 -1.694110
v 0.850481 0.550000 -1.875000
v 0.969670 0.550000 -2.030330
v 1.125000 0.550000 -2.149520
v 1.305890 0.455000 -2.224440
v 1.500000 0.455000 -2.250000
v 3.000000 0.455000 -2.250000
v 3.000000 0.000000 -2.250000
v 3.000000 0.000000 -3.000000
v 3.000000 0.000000 -0.750001
v 3.000000 0.000000 0.000000
v 0.000000 0.000000 0.000000
v 0.000000 0.000000 -3.000000
v 3.000000 0.455000 -0.750001
v 1.125000 0.455000 -2.149520
v 0.969670 0.455000 -2.030330
v 0.850481 0.455000 -1.875000
v 0.775556 0.455000 -1.694110
v 0.750000 0.455000 -1.500000
vt 0.909689 0.455000
vt 0.713900 0.550000
vt 0.713900 0.455000
vt -1.193480 0.455000
vt -1.389270 0.550000
vt -1.389270 0.455000
vt -0.713899 0.455000
vt -0.909689 0.550000
vt -0.909689 0.455000
vt -0.178993 0.455000
vt -0.374782 0.550000
vt -0.374782 0.455000
vt 0.374783 0.455000
vt 0.178994 0.550000
vt 0.178994 0.455000
vt 0.750000 1.500000
vt 0.775556 1.694110
vt 0.000000 3.000000
vt 1.780850 0.455000
vt 1.585060 0.550000
vt 1.585060 0.455000
vt 3.000000 0.455000
vt 1.500000 0.550000
vt 1.500000 0.455000
vt 3.000000 0.550000
vt 2.250000 0.455000
vt 3.000000 0.000000
vt -3.000000 2.250000
vt -3.000000 0.750001
vt -0.000000 0.000000
vt 0.750001 0.455000
vt 0.750001 0.550000
vt 0.000000 0.550000
vt -1.500000 0.455000
vt -3.000000 0.550000
vt -3.000000 0.455000
vt 3.000000 -0.000000
vt -0.000000 0.550000
vt -3.000000 0.550000
vt -3.000000 0.000000
vt 0.000000 0.000000
vt -3.000000 0.550000
vt -3.000000 0.000000
vt 2.057740 0.455000
vt 1.861950 0.550000
vt 1.861950 0.455000
vt 2.201070 0.455000
vt 2.005280 0.550000
vt 2.005280 0.455000
vt 2.201070 0.455000
vt 2.005280 0.550000
vt 2.005280 0.455000
vt 2.057740 0.455000
vt 1.861950 0.550000
vt 1.861950 0.455000
vt 1.780850 0.455000
vt 1.585060 0.550000
vt 1.585060 0.455000
vt 1.389270 0.455000
vt 1.193480 0.550000
vt 1.193480 0.455000
vt 0.909689 0.550000
vt -1.193480 0.550000
vt -0.713899 0.550000
vt -0.178993 0.550000
vt 0.374783 0.550000
vt 1.500000 2.250000
vt 3.000000 2.250000
vt 3.000000 3.000000
vt 0.000000 0.000000
vt 3.000000 -0.000000
vt 1.500000 0.750001
vt 3.000000 0.750001
vt 1.305890 2.224440
vt 1.305890 0.775556
vt 1.125000 0.850481
vt 1.125000 2.149520
vt 0.969670 2.030330
vt 0.969670 0.969670
vt 0.850481 1.125000
vt 0.850481 1.875000
vt 0.775556 1.305890
vt 1.780850 0.550000
vt 3.000000 0.550000
vt 2.250000 0.550000
vt 2.250000 0.000000
vt -3.000000 0.000000
vt -0.000000 3.000000
vt -3.000000 3.000000
vt 0.000000 -0.000000
vt 0.750001 -0.000000
vt -1.500000 0.550000
vt 3.000000 0.550000
vt 0.000000 0.550000
vt 2.057740 0.550000
vt 2.201070 0.550000
vt 2.201070 0.550000
vt 2.057740 0.550000
vt 1.780850 0.550000
vt 1.389270 0.550000
vt 0.969670 0.969670
vt 1.500000 0.750001
vt 1.305890 2.224440
vt 1.125000 0.850481
vt 1.305890 0.775556
vt 3.000000 0.750001
vt 3.000000 2.250000
vt 1.500000 2.250000
vt 1.125000 2.149520
vt 0.969670 2.030330
vt 0.850481 1.875000
vt 0.775556 1.694110
vt 0.750000 1.500000
vt 0.775556 1.305890
vt 0.850481 1.125000
vn 0.9659 0.0000 -0.2588
vn 0.8660 0.0000 -0.5000
vn 0.2588 0.0000 -0.9659
vn 0.0654 0.0000 -0.9979
vn 0.5000 0.0000 -0.8660
vn 0.7071 0.0000 -0.7071
vn -0.0000 1.0000 -0.0000
vn 0.0654 0.0000 0.9979
vn 0.2588 0.0000 0.9659
vn 0.0000 0.0000 1.0000
vn 1.0000 0.0000 0.0000
vn 0.0000 -1.0000 -0.0000
vn 0.0000 0.0000 -1.0000
vn -1.0000 0.0000 0.0000
vn 0.5000 0.0000 0.8660
vn 0.7071 0.0000 0.7071
vn 0.8660 0.0000 0.5000
vn 0.9659 0.0000 0.2588
usemtl Grass.066
s 1
f 2/1/1 4/2/2 1/3/2
f 6/4/3 8/5/4 5/6/4
f 9/7/5 7/8/3 6/9/3
f 11/10/6 10/11/5 9/12/5
f 1/13/2 12/14/6 11/15/6
f 21/16/7 22/17/7 17/18/7
f 27/19/8 13/20/9 26/21/9
f 28/22/10 14/23/8 27/24/8
f 16/25/11 28/26/11 30/27/11
f 29/28/12 31/29/12 33/30/12
f 35/31/11 20/32/11 19/33/11
f 5/34/4 20/35/13 35/36/13
f 32/37/10 18/38/10 33/30/10
f 33/30/14 17/39/14 34/40/14
f 34/41/13 16/42/13 30/43/13
f 26/44/9 25/45/15 36/46/15
f 36/47/15 24/48/16 37/49/16
f 37/50/16 23/51/17 38/52/17
f 38/53/17 22/54/18 39/55/18
f 39/56/18 21/57/11 40/58/11
f 40/59/11 3/60/1 2/61/1
f 2/1/1 3/62/1 4/2/2
f 6/4/3 7/63/3 8/5/4
f 9/7/5 10/64/5 7/8/3
f 11/10/6 12/65/6 10/11/5
f 1/13/2 4/66/2 12/14/6
f 14/67/7 15/68/7 16/69/7
f 18/70/7 19/71/7 8/72/7
f 19/71/7 20/73/7 8/72/7
f 14/67/7 16/69/7 17/18/7
f 13/74/7 14/67/7 17/18/7
f 18/70/7 8/72/7 7/75/7
f 18/70/7 7/75/7 10/76/7
f 25/77/7 13/74/7 17/18/7
f 24/78/7 25/77/7 17/18/7
f 18/70/7 10/76/7 12/79/7
f 18/70/7 12/79/7 4/80/7
f 23/81/7 24/78/7 17/18/7
f 22/17/7 23/81/7 17/18/7
f 17/18/7 18/70/7 21/16/7
f 18/70/7 4/80/7 3/82/7
f 18/70/7 3/82/7 21/16/7
f 27/19/8 14/83/8 13/20/9
f 28/22/10 15/84/10 14/23/8
f 15/85/11 28/26/11 16/25/11
f 28/26/11 29/86/11 30/27/11
f 31/29/12 32/87/12 33/30/12
f 33/30/12 34/88/12 29/28/12
f 34/88/12 30/89/12 29/28/12
f 19/33/11 32/90/11 35/31/11
f 32/90/11 31/91/11 35/31/11
f 5/34/4 8/92/4 20/35/13
f 32/37/10 19/93/10 18/38/10
f 33/30/14 18/38/14 17/39/14
f 34/41/13 17/94/13 16/42/13
f 26/44/9 13/95/9 25/45/15
f 36/47/15 25/96/15 24/48/16
f 37/50/16 24/97/16 23/51/17
f 38/53/17 23/98/17 22/54/18
f 39/56/18 22/99/18 21/57/11
f 40/59/11 21/100/11 3/60/1
usemtl Water.028
f 11/101/7 5/102/7 26/103/7
f 29/86/11 35/31/11 31/91/11
f 9/104/7 6/105/7 11/101/7
f 6/105/7 5/102/7 11/101/7
f 5/102/7 35/106/7 28/107/7
f 28/107/7 27/108/7 5/102/7
f 27/108/7 26/103/7 5/102/7
f 26/103/7 36/109/7 37/110/7
f 37/110/7 38/111/7 26/103/7
f 38/111/7 39/112/7 26/103/7
f 39/112/7 40/113/7 2/114/7
f 2/114/7 1/115/7 11/101/7
f 39/112/7 2/114/7 26/103/7
f 2/114/7 11/101/7 26/103/7
f 29/86/11 28/26/11 35/31/11
