# Blender v2.79 (sub 7) OBJ File: ''
# www.blender.org
mtllib roadTile_086.mtl
o Mesh1_Group1_Model.089
v 3.000000 0.630000 -2.062500
v 2.877630 0.630000 -2.070520
v 2.877630 0.570000 -2.070520
v 3.000000 0.570000 -2.062500
v 2.730790 0.630000 -0.955145
v 3.000000 0.630000 -0.937500
v 3.000000 0.570000 -0.937500
v 2.730790 0.570000 -0.955145
v 1.125000 0.570000 -3.000000
v 0.937500 0.570000 -3.000000
v 0.955145 0.570000 -2.730790
v 1.007780 0.570000 -2.466190
v 1.094500 0.570000 -2.210720
v 1.213820 0.570000 -1.968750
v 1.363710 0.570000 -1.744430
v 1.541590 0.570000 -1.541590
v 1.744430 0.570000 -1.363710
v 1.968750 0.570000 -1.213820
v 2.210720 0.570000 -1.094500
v 2.466190 0.570000 -1.007780
v 3.000000 0.570000 -1.125000
v 2.755260 0.570000 -1.141040
v 2.514710 0.570000 -1.188890
v 2.282470 0.570000 -1.267730
v 2.062500 0.570000 -1.376200
v 1.858570 0.570000 -1.512460
v 1.674170 0.570000 -1.674170
v 1.512460 0.570000 -1.858570
v 1.376200 0.570000 -2.062500
v 1.267730 0.570000 -2.282470
v 1.188890 0.570000 -2.514710
v 1.141040 0.570000 -2.755260
v 0.937500 0.630000 -3.000000
v 0.955145 0.630000 -2.730790
v 1.007780 0.630000 -2.466190
v 1.094500 0.630000 -2.210720
v 1.213820 0.630000 -1.968750
v 1.363710 0.630000 -1.744430
v 1.541590 0.630000 -1.541590
v 1.744430 0.630000 -1.363710
v 1.968750 0.630000 -1.213820
v 2.210720 0.630000 -1.094500
v 2.466190 0.630000 -1.007780
v 3.000000 0.630000 -1.125000
v 2.755260 0.630000 -1.141040
v 1.141040 0.630000 -2.755260
v 1.125000 0.630000 -3.000000
v 1.188890 0.630000 -2.514710
v 1.267730 0.630000 -2.282470
v 1.376200 0.630000 -2.062500
v 1.512460 0.630000 -1.858570
v 1.674170 0.630000 -1.674170
v 1.858570 0.630000 -1.512460
v 2.062500 0.630000 -1.376200
v 2.282470 0.630000 -1.267730
v 2.514710 0.630000 -1.188890
v 2.853160 0.630000 -1.884620
v 3.000000 0.630000 -1.875000
v 3.000000 0.570000 -1.875000
v 2.853160 0.570000 -1.884620
v 2.062500 0.570000 -3.000000
v 1.875000 0.570000 -3.000000
v 1.884620 0.570000 -2.853160
v 1.913330 0.570000 -2.708830
v 1.960640 0.570000 -2.569480
v 2.025720 0.570000 -2.437500
v 2.107480 0.570000 -2.315140
v 2.204500 0.570000 -2.204500
v 2.315140 0.570000 -2.107480
v 2.437500 0.570000 -2.025720
v 2.569480 0.570000 -1.960640
v 2.708830 0.570000 -1.913330
v 2.757360 0.570000 -2.094440
v 2.641230 0.570000 -2.133860
v 2.531250 0.570000 -2.188100
v 2.429290 0.570000 -2.256230
v 2.337090 0.570000 -2.337090
v 2.256230 0.570000 -2.429290
v 2.188100 0.570000 -2.531250
v 2.133860 0.570000 -2.641230
v 2.094440 0.570000 -2.757360
v 2.070520 0.570000 -2.877630
v 1.875000 0.630000 -3.000000
v 1.884620 0.630000 -2.853160
v 1.913330 0.630000 -2.708830
v 1.960640 0.630000 -2.569480
v 2.025720 0.630000 -2.437500
v 2.107480 0.630000 -2.315140
v 2.204500 0.630000 -2.204500
v 2.315140 0.630000 -2.107480
v 2.437500 0.630000 -2.025720
v 2.569480 0.630000 -1.960640
v 2.708830 0.630000 -1.913330
v 2.757360 0.630000 -2.094440
v 2.641230 0.630000 -2.133860
v 2.531250 0.630000 -2.188100
v 2.429290 0.630000 -2.256230
v 2.337090 0.630000 -2.337090
v 2.256230 0.630000 -2.429290
v 2.188100 0.630000 -2.531250
v 2.133860 0.630000 -2.641230
v 2.094440 0.630000 -2.757360
v 2.070520 0.630000 -2.877630
v 2.062500 0.630000 -3.000000
v 3.000000 0.630000 -3.000000
v 3.000000 0.000000 -3.000000
v 0.000000 0.000000 -3.000000
v 0.000000 0.630000 -3.000000
v 3.000000 0.000000 0.000000
v 3.000000 0.630000 0.000000
v 0.000000 0.000000 0.000000
v 0.000000 0.630000 0.000000
vt 2.736050 0.630000
vt 2.858680 0.570000
vt 2.858680 0.630000
vt -2.932260 0.630000
vt -2.662470 0.570000
vt -2.662470 0.630000
vt 1.512460 1.858570
vt 1.376200 2.062500
vt 1.213820 1.968750
vt 2.662470 0.630000
vt 2.932260 0.570000
vt 2.932260 0.630000
vt 2.222190 0.630000
vt 2.491980 0.570000
vt 2.491980 0.630000
vt 1.741580 0.630000
vt 2.011370 0.570000
vt 2.011370 0.630000
vt 1.228860 0.630000
vt 1.498650 0.570000
vt 1.498650 0.630000
vt 0.692804 0.630000
vt 0.962592 0.570000
vt 0.962592 0.630000
vt 0.142588 0.630000
vt 0.412376 0.570000
vt 0.412376 0.630000
vt -0.412376 0.630000
vt -0.142588 0.570000
vt -0.142588 0.630000
vt -0.962592 0.630000
vt -0.692804 0.570000
vt -0.692804 0.630000
vt -1.498650 0.630000
vt -1.228860 0.570000
vt -1.228860 0.630000
vt -2.011370 0.630000
vt -1.741580 0.570000
vt -1.741580 0.630000
vt -2.491980 0.630000
vt -2.222190 0.570000
vt -2.222190 0.630000
vt 2.674740 0.630000
vt 2.920000 0.570000
vt 2.920000 0.630000
vt -2.920000 0.630000
vt -2.674740 0.570000
vt -2.674740 0.630000
vt -2.479720 0.630000
vt -2.234450 0.570000
vt -2.234450 0.630000
vt -1.999100 0.630000
vt -1.753840 0.570000
vt -1.753840 0.630000
vt -1.486380 0.630000
vt -1.241120 0.570000
vt -1.241120 0.630000
vt -0.950329 0.630000
vt -0.705067 0.570000
vt -0.705067 0.630000
vt -0.400113 0.630000
vt -0.154851 0.570000
vt -0.154851 0.630000
vt 0.154851 0.630000
vt 0.400113 0.570000
vt 0.400113 0.630000
vt 0.705067 0.630000
vt 0.950329 0.570000
vt 0.950329 0.630000
vt 1.241120 0.630000
vt 1.486380 0.570000
vt 1.486380 0.630000
vt 1.753840 0.630000
vt 1.999100 0.570000
vt 1.999100 0.630000
vt 2.234450 0.630000
vt 2.479720 0.570000
vt 2.479720 0.630000
vt -2.870950 0.630000
vt -2.723790 0.570000
vt -2.723790 0.630000
vt 2.437500 2.025720
vt 2.531250 2.188100
vt 2.429290 2.256230
vt 2.723790 0.630000
vt 2.870950 0.570000
vt 2.870950 0.630000
vt 2.283510 0.630000
vt 2.430660 0.570000
vt 2.430660 0.630000
vt 1.802890 0.630000
vt 1.950050 0.570000
vt 1.950050 0.630000
vt 1.290170 0.630000
vt 1.437330 0.570000
vt 1.437330 0.630000
vt 0.754120 0.630000
vt 0.901277 0.570000
vt 0.901277 0.630000
vt 0.203903 0.630000
vt 0.351061 0.570000
vt 0.351061 0.630000
vt -0.351061 0.630000
vt -0.203903 0.570000
vt -0.203903 0.630000
vt -0.901277 0.630000
vt -0.754120 0.570000
vt -0.754120 0.630000
vt -1.437330 0.630000
vt -1.290170 0.570000
vt -1.290170 0.630000
vt -1.950050 0.630000
vt -1.802890 0.570000
vt -1.802890 0.630000
vt -2.430660 0.630000
vt -2.283510 0.570000
vt -2.283510 0.630000
vt 2.295770 0.630000
vt 2.418400 0.570000
vt 2.418400 0.630000
vt 1.815160 0.630000
vt 1.937790 0.570000
vt 1.937790 0.630000
vt 1.302440 0.630000
vt 1.425070 0.570000
vt 1.425070 0.630000
vt 0.766383 0.630000
vt 0.889014 0.570000
vt 0.889014 0.630000
vt 0.216167 0.630000
vt 0.338797 0.570000
vt 0.338797 0.630000
vt -0.338797 0.630000
vt -0.216167 0.570000
vt -0.216167 0.630000
vt -0.889014 0.630000
vt -0.766383 0.570000
vt -0.766383 0.630000
vt -1.425070 0.630000
vt -1.302440 0.570000
vt -1.302440 0.630000
vt -1.937790 0.630000
vt -1.815160 0.570000
vt -1.815160 0.630000
vt -2.418400 0.630000
vt -2.295770 0.570000
vt -2.295770 0.630000
vt -2.858680 0.630000
vt -2.736050 0.570000
vt -2.736050 0.630000
vt 2.736050 0.570000
vt -2.932260 0.570000
vt 1.141040 2.755260
vt 1.125000 3.000000
vt 0.937500 3.000000
vt 0.955145 2.730790
vt 1.007780 2.466190
vt 1.188890 2.514710
vt 1.094500 2.210720
vt 1.267730 2.282470
vt 1.363710 1.744430
vt 1.541590 1.541590
vt 1.674170 1.674170
vt 1.744430 1.363710
vt 1.968750 1.213820
vt 1.858570 1.512460
vt 2.210720 1.094500
vt 2.282470 1.267730
vt 2.466190 1.007780
vt 2.514710 1.188890
vt 2.730790 0.955145
vt 2.755260 1.141040
vt 3.000000 0.937500
vt 3.000000 1.125000
vt 2.062500 1.376200
vt 2.662470 0.570000
vt 2.222190 0.570000
vt 1.741580 0.570000
vt 1.228860 0.570000
vt 0.692804 0.570000
vt 0.142588 0.570000
vt -0.412376 0.570000
vt -0.962592 0.570000
vt -1.498650 0.570000
vt -2.011370 0.570000
vt -2.491980 0.570000
vt 2.674740 0.570000
vt -2.920000 0.570000
vt -2.479720 0.570000
vt -1.999100 0.570000
vt -1.486380 0.570000
vt -0.950329 0.570000
vt -0.400113 0.570000
vt 0.154851 0.570000
vt 0.705067 0.570000
vt 1.241120 0.570000
vt 1.753840 0.570000
vt 2.234450 0.570000
vt -2.870950 0.570000
vt 2.070520 2.877630
vt 2.062500 3.000000
vt 1.875000 3.000000
vt 1.884620 2.853160
vt 1.913330 2.708830
vt 2.094440 2.757360
vt 1.960640 2.569480
vt 2.133860 2.641230
vt 2.025720 2.437500
vt 2.188100 2.531250
vt 2.107480 2.315140
vt 2.204500 2.204500
vt 2.337090 2.337090
vt 2.256230 2.429290
vt 2.315140 2.107480
vt 2.569480 1.960640
vt 2.641230 2.133860
vt 2.708830 1.913330
vt 2.757360 2.094440
vt 2.853160 1.884620
vt 3.000000 1.875000
vt 2.877630 2.070520
vt 3.000000 2.062500
vt 2.723790 0.570000
vt 2.283510 0.570000
vt 1.802890 0.570000
vt 1.290170 0.570000
vt 0.754120 0.570000
vt 0.203903 0.570000
vt -0.351061 0.570000
vt -0.901277 0.570000
vt -1.437330 0.570000
vt -1.950050 0.570000
vt -2.430660 0.570000
vt 2.295770 0.570000
vt 1.815160 0.570000
vt 1.302440 0.570000
vt 0.766383 0.570000
vt 0.216167 0.570000
vt -0.338797 0.570000
vt -0.889014 0.570000
vt -1.425070 0.570000
vt -1.937790 0.570000
vt -2.418400 0.570000
vt -2.858680 0.570000
vt 2.757360 2.094440
vt 2.877630 2.070520
vt 3.000000 3.000000
vt -3.000000 0.000000
vt -1.875000 0.570000
vt -2.062500 0.570000
vt 3.000000 -0.000000
vt 1.875000 0.570000
vt 1.125000 0.570000
vt -0.000000 -0.000000
vt -3.000000 3.000000
vt -3.000000 0.000000
vt 3.000000 0.630000
vt 0.000000 0.630000
vt -3.000000 0.630000
vt -3.000000 0.000000
vt 1.541590 1.541590
vt 1.363710 1.744430
vt 0.000000 -0.000000
vt 2.062500 1.376200
vt 2.437500 2.025720
vt 2.315140 2.107480
vt 3.000000 2.062500
vt 2.062500 3.000000
vt 2.070520 2.877630
vt 2.094440 2.757360
vt 2.133860 2.641230
vt 2.188100 2.531250
vt 2.256230 2.429290
vt 2.337090 2.337090
vt 2.429290 2.256230
vt 2.531250 2.188100
vt 2.641230 2.133860
vt -2.062500 0.630000
vt -3.000000 0.630000
vt -0.000000 0.000000
vt -1.125000 0.570000
vt -0.000000 0.630000
vt -0.937500 0.570000
vt -0.937500 0.630000
vt -1.125000 0.630000
vt -1.875000 0.630000
vt 0.000000 0.630000
vt -0.000000 -0.000000
vt 0.937500 0.570000
vt 3.000000 0.630000
vt 2.062500 0.570000
vt 2.062500 0.630000
vt 0.937500 0.630000
vt 1.875000 0.630000
vt 1.125000 0.630000
vt 0.000000 3.000000
vt 3.000000 0.000000
vt 3.000000 0.000000
vt 2.210720 1.094500
vt 3.000000 0.937500
vt 2.730790 0.955145
vt 2.466190 1.007780
vt 0.937500 3.000000
vt -0.000000 3.000000
vt 0.955145 2.730790
vt 1.094500 2.210720
vt 1.007780 2.466190
vt 1.968750 1.213820
vt 1.744430 1.363710
vt 1.213820 1.968750
vt 1.884620 2.853160
vt 1.875000 3.000000
vt 1.125000 3.000000
vt 1.141040 2.755260
vt 1.188890 2.514710
vt 1.913330 2.708830
vt 1.267730 2.282470
vt 1.376200 2.062500
vt 1.960640 2.569480
vt 1.512460 1.858570
vt 2.025720 2.437500
vt 1.674170 1.674170
vt 2.107480 2.315140
vt 1.858570 1.512460
vt 2.204500 2.204500
vt 2.282470 1.267730
vt 2.569480 1.960640
vt 2.514710 1.188890
vt 2.708830 1.913330
vt 2.755260 1.141040
vt 3.000000 1.125000
vt 2.853160 1.884620
vt 3.000000 1.875000
vn -0.1305 0.0000 0.9914
vn -0.0654 0.0000 0.9979
vn 0.0654 0.0000 -0.9979
vn 0.1305 0.0000 -0.9914
vn -0.0000 1.0000 0.0000
vn 0.9914 0.0000 -0.1305
vn 0.9979 0.0000 -0.0654
vn 0.9659 0.0000 -0.2588
vn 0.9239 0.0000 -0.3827
vn 0.8660 0.0000 -0.5000
vn 0.7934 0.0000 -0.6088
vn 0.7071 0.0000 -0.7071
vn 0.6088 0.0000 -0.7934
vn 0.5000 0.0000 -0.8660
vn 0.3827 0.0000 -0.9239
vn 0.2588 0.0000 -0.9659
vn -0.9979 0.0000 0.0654
vn -0.9914 0.0000 0.1305
vn -0.9659 0.0000 0.2588
vn -0.9239 0.0000 0.3827
vn -0.8660 0.0000 0.5000
vn -0.7934 0.0000 0.6088
vn -0.7071 0.0000 0.7071
vn -0.6088 0.0000 0.7934
vn -0.5000 0.0000 0.8660
vn -0.3827 0.0000 0.9239
vn -0.2588 0.0000 0.9659
vn 0.7934 0.0000 -0.6087
vn 0.6087 0.0000 -0.7934
vn -0.6088 0.0000 0.7933
vn -0.7933 0.0000 0.6088
vn 0.0000 0.0000 -1.0000
vn 1.0000 0.0000 0.0000
vn 0.0000 -1.0000 -0.0000
vn 0.0000 -0.0000 1.0000
vn -1.0000 0.0000 0.0000
usemtl Grey_Asphalt.004
s 1
f 2/1/1 4/2/2 1/3/2
f 6/4/3 8/5/4 5/6/4
f 28/7/5 29/8/5 14/9/5
f 34/10/6 10/11/7 33/12/7
f 35/13/8 11/14/6 34/15/6
f 36/16/9 12/17/8 35/18/8
f 37/19/10 13/20/9 36/21/9
f 38/22/11 14/23/10 37/24/10
f 39/25/12 15/26/11 38/27/11
f 40/28/13 16/29/12 39/30/12
f 41/31/14 17/32/13 40/33/13
f 42/34/15 18/35/14 41/36/14
f 43/37/16 19/38/15 42/39/15
f 5/40/4 20/41/16 43/42/16
f 45/43/1 21/44/2 44/45/2
f 47/46/17 32/47/18 46/48/18
f 46/49/18 31/50/19 48/51/19
f 48/52/19 30/53/20 49/54/20
f 49/55/20 29/56/21 50/57/21
f 50/58/21 28/59/22 51/60/22
f 51/61/22 27/62/23 52/63/23
f 52/64/23 26/65/24 53/66/24
f 53/67/24 25/68/25 54/69/25
f 54/70/25 24/71/26 55/72/26
f 55/73/26 23/74/27 56/75/27
f 56/76/27 22/77/1 45/78/1
f 58/79/3 60/80/4 57/81/4
f 70/82/5 75/83/5 76/84/5
f 84/85/6 62/86/7 83/87/7
f 85/88/8 63/89/6 84/90/6
f 86/91/9 64/92/8 85/93/8
f 87/94/10 65/95/9 86/96/9
f 88/97/28 66/98/10 87/99/10
f 89/100/12 67/101/28 88/102/28
f 90/103/29 68/104/12 89/105/12
f 91/106/14 69/107/29 90/108/29
f 92/109/15 70/110/14 91/111/14
f 93/112/16 71/113/15 92/114/15
f 57/115/4 72/116/16 93/117/16
f 94/118/27 3/119/1 2/120/1
f 95/121/26 73/122/27 94/123/27
f 96/124/25 74/125/26 95/126/26
f 97/127/30 75/128/25 96/129/25
f 98/130/23 76/131/30 97/132/30
f 99/133/31 77/134/23 98/135/23
f 100/136/21 78/137/31 99/138/31
f 101/139/20 79/140/21 100/141/21
f 102/142/19 80/143/20 101/144/20
f 103/145/18 81/146/19 102/147/19
f 104/148/17 82/149/18 103/150/18
f 2/1/1 3/151/1 4/2/2
f 6/4/3 7/152/3 8/5/4
f 32/153/5 9/154/5 10/155/5
f 10/155/5 11/156/5 32/153/5
f 11/156/5 12/157/5 32/153/5
f 32/153/5 12/157/5 31/158/5
f 12/157/5 13/159/5 31/158/5
f 13/159/5 14/9/5 30/160/5
f 14/9/5 15/161/5 28/7/5
f 15/161/5 16/162/5 27/163/5
f 16/162/5 17/164/5 27/163/5
f 17/164/5 18/165/5 26/166/5
f 27/163/5 17/164/5 26/166/5
f 18/165/5 19/167/5 24/168/5
f 19/167/5 20/169/5 23/170/5
f 20/169/5 8/171/5 22/172/5
f 8/171/5 7/173/5 22/172/5
f 20/169/5 22/172/5 23/170/5
f 7/173/5 21/174/5 22/172/5
f 19/167/5 23/170/5 24/168/5
f 15/161/5 27/163/5 28/7/5
f 13/159/5 30/160/5 31/158/5
f 29/8/5 30/160/5 14/9/5
f 18/165/5 24/168/5 25/175/5
f 18/165/5 25/175/5 26/166/5
f 34/10/6 11/176/6 10/11/7
f 35/13/8 12/177/8 11/14/6
f 36/16/9 13/178/9 12/17/8
f 37/19/10 14/179/10 13/20/9
f 38/22/11 15/180/11 14/23/10
f 39/25/12 16/181/12 15/26/11
f 40/28/13 17/182/13 16/29/12
f 41/31/14 18/183/14 17/32/13
f 42/34/15 19/184/15 18/35/14
f 43/37/16 20/185/16 19/38/15
f 5/40/4 8/186/4 20/41/16
f 45/43/1 22/187/1 21/44/2
f 47/46/17 9/188/17 32/47/18
f 46/49/18 32/189/18 31/50/19
f 48/52/19 31/190/19 30/53/20
f 49/55/20 30/191/20 29/56/21
f 50/58/21 29/192/21 28/59/22
f 51/61/22 28/193/22 27/62/23
f 52/64/23 27/194/23 26/65/24
f 53/67/24 26/195/24 25/68/25
f 54/70/25 25/196/25 24/71/26
f 55/73/26 24/197/26 23/74/27
f 56/76/27 23/198/27 22/77/1
f 58/79/3 59/199/3 60/80/4
f 82/200/5 61/201/5 62/202/5
f 62/202/5 63/203/5 82/200/5
f 63/203/5 64/204/5 81/205/5
f 64/204/5 65/206/5 80/207/5
f 65/206/5 66/208/5 79/209/5
f 66/208/5 67/210/5 79/209/5
f 67/210/5 68/211/5 77/212/5
f 79/209/5 67/210/5 78/213/5
f 68/211/5 69/214/5 77/212/5
f 69/214/5 70/82/5 76/84/5
f 77/212/5 69/214/5 76/84/5
f 70/82/5 71/215/5 74/216/5
f 71/215/5 72/217/5 73/218/5
f 72/217/5 60/219/5 73/218/5
f 60/219/5 59/220/5 3/221/5
f 73/218/5 60/219/5 3/221/5
f 59/220/5 4/222/5 3/221/5
f 71/215/5 73/218/5 74/216/5
f 63/203/5 81/205/5 82/200/5
f 65/206/5 79/209/5 80/207/5
f 80/207/5 81/205/5 64/204/5
f 78/213/5 67/210/5 77/212/5
f 70/82/5 74/216/5 75/83/5
f 84/85/6 63/223/6 62/86/7
f 85/88/8 64/224/8 63/89/6
f 86/91/9 65/225/9 64/92/8
f 87/94/10 66/226/10 65/95/9
f 88/97/28 67/227/28 66/98/10
f 89/100/12 68/228/12 67/101/28
f 90/103/29 69/229/29 68/104/12
f 91/106/14 70/230/14 69/107/29
f 92/109/15 71/231/15 70/110/14
f 93/112/16 72/232/16 71/113/15
f 57/115/4 60/233/4 72/116/16
f 94/118/27 73/234/27 3/119/1
f 95/121/26 74/235/26 73/122/27
f 96/124/25 75/236/25 74/125/26
f 97/127/30 76/237/30 75/128/25
f 98/130/23 77/238/23 76/131/30
f 99/133/31 78/239/31 77/134/23
f 100/136/21 79/240/21 78/137/31
f 101/139/20 80/241/20 79/140/21
f 102/142/19 81/242/19 80/143/20
f 103/145/18 82/243/18 81/146/19
f 104/148/17 61/244/17 82/149/18
usemtl Stone.070
f 94/245/5 2/246/5 105/247/5
f 106/248/32 62/249/32 61/250/32
f 106/251/33 59/252/33 21/253/33
f 111/254/34 106/255/34 109/256/34
f 111/254/35 110/257/35 112/258/35
f 111/254/36 108/259/36 107/260/36
f 39/261/5 38/262/5 112/263/5
f 54/264/5 91/265/5 90/266/5
f 1/267/5 105/247/5 2/246/5
f 105/247/5 104/268/5 103/269/5
f 102/270/5 105/247/5 103/269/5
f 102/270/5 101/271/5 105/247/5
f 101/271/5 100/272/5 105/247/5
f 100/272/5 99/273/5 105/247/5
f 99/273/5 98/274/5 105/247/5
f 98/274/5 97/275/5 105/247/5
f 97/275/5 96/276/5 105/247/5
f 96/276/5 95/277/5 105/247/5
f 95/277/5 94/245/5 105/247/5
f 104/278/32 105/279/32 61/250/32
f 105/279/32 106/248/32 61/250/32
f 106/248/32 107/280/32 9/281/32
f 107/280/32 108/282/32 10/283/32
f 108/282/32 33/284/32 10/283/32
f 9/281/32 47/285/32 83/286/32
f 107/280/32 10/283/32 9/281/32
f 9/281/32 83/286/32 62/249/32
f 106/248/32 9/281/32 62/249/32
f 110/287/33 109/288/33 7/289/33
f 109/288/33 106/251/33 21/253/33
f 7/289/33 109/288/33 21/253/33
f 106/251/33 105/290/33 4/291/33
f 105/290/33 1/292/33 4/291/33
f 7/289/33 6/293/33 110/287/33
f 58/294/33 44/295/33 21/253/33
f 59/252/33 58/294/33 21/253/33
f 106/251/33 4/291/33 59/252/33
f 111/254/34 107/296/34 106/255/34
f 111/254/35 109/297/35 110/257/35
f 111/254/36 112/258/36 108/259/36
f 112/263/5 110/298/5 42/299/5
f 110/298/5 6/300/5 5/301/5
f 110/298/5 5/301/5 43/302/5
f 33/303/5 108/304/5 34/305/5
f 108/304/5 112/263/5 36/306/5
f 34/305/5 108/304/5 35/307/5
f 35/307/5 108/304/5 36/306/5
f 110/298/5 43/302/5 42/299/5
f 112/263/5 42/299/5 41/308/5
f 112/263/5 41/308/5 40/309/5
f 37/310/5 36/306/5 112/263/5
f 38/262/5 37/310/5 112/263/5
f 112/263/5 40/309/5 39/261/5
f 84/311/5 83/312/5 47/313/5
f 47/313/5 46/314/5 84/311/5
f 46/314/5 48/315/5 85/316/5
f 48/315/5 49/317/5 85/316/5
f 49/317/5 50/318/5 86/319/5
f 50/318/5 51/320/5 87/321/5
f 51/320/5 52/322/5 88/323/5
f 87/321/5 51/320/5 88/323/5
f 52/322/5 53/324/5 89/325/5
f 53/324/5 54/264/5 90/266/5
f 89/325/5 53/324/5 90/266/5
f 54/264/5 55/326/5 92/327/5
f 55/326/5 56/328/5 93/329/5
f 56/328/5 45/330/5 93/329/5
f 45/330/5 44/331/5 57/332/5
f 93/329/5 45/330/5 57/332/5
f 44/331/5 58/333/5 57/332/5
f 55/326/5 93/329/5 92/327/5
f 50/318/5 87/321/5 86/319/5
f 46/314/5 85/316/5 84/311/5
f 49/317/5 86/319/5 85/316/5
f 88/323/5 52/322/5 89/325/5
f 54/264/5 92/327/5 91/265/5
