# Blender v2.79 (sub 7) OBJ File: ''
# www.blender.org
mtllib roadTile_074.mtl
o Mesh1_Group1_Model.160
v -0.141200 0.600000 0.571111
v 0.509090 0.630000 0.350370
v 0.509090 0.600000 0.350370
v 1.500000 0.300000 -0.203930
v 1.500000 0.630000 1.500000
v 1.500000 0.000000 1.500000
v 1.125000 0.600000 0.046630
v 1.500000 0.630000 -0.203930
v 1.500000 0.600000 -0.203930
v 1.125000 0.630000 0.046630
v -0.141200 0.630000 0.571111
v -0.814737 0.600000 0.705086
v -1.500000 0.600000 0.750000
v -0.814737 0.630000 0.705086
v -1.500000 0.300000 0.750000
v -1.500000 0.000000 -1.500000
v -1.500000 0.000000 1.500000
v -1.500000 0.300000 -1.500000
v 1.500000 0.000000 -1.500000
v -1.500000 0.630000 1.500000
v 1.500000 0.300000 -1.500000
v -1.500000 0.630000 0.750000
v 1.500000 0.600000 -1.500000
v -1.500000 0.600000 -1.500000
vt -1.585270 0.600000
vt -2.272000 0.630000
vt -2.272000 0.600000
vt 1.703930 0.300000
vt 0.000000 0.630000
vt 0.000000 -0.000000
vt -2.990050 0.600000
vt -3.441060 0.630000
vt -3.441060 0.600000
vt -2.310370 0.600000
vt -2.997100 0.630000
vt -2.997100 0.600000
vt 3.000000 0.000000
vt 2.009090 1.149630
vt 1.358800 0.928889
vt -0.827176 0.600000
vt -1.513910 0.630000
vt -1.513910 0.600000
vt -0.049052 0.600000
vt -0.735785 0.630000
vt -0.735785 0.600000
vt -0.750000 0.300000
vt -3.000000 0.000000
vt -0.000000 0.000000
vt -0.000000 0.300000
vt -3.000000 0.000000
vt -0.000000 0.000000
vt -3.000000 3.000000
vt -3.000000 0.000000
vt 3.000000 0.630000
vt -0.000000 0.630000
vt -1.585270 0.630000
vt 3.000000 -0.000000
vt 3.000000 0.300000
vt 1.703930 0.600000
vt 1.703930 0.630000
vt -2.990050 0.630000
vt -2.310370 0.630000
vt 3.000000 1.703930
vt 2.625000 1.453370
vt -0.000000 0.750000
vt 0.000000 0.000000
vt 0.685263 0.794914
vt -0.827176 0.630000
vt -0.049052 0.630000
vt -0.750000 0.630000
vt -0.750000 0.600000
vt -3.000000 0.300000
vt -3.000000 0.300000
vt -0.000000 3.000000
vt 3.000000 0.000000
vt 2.625000 1.453370
vt 3.000000 1.703930
vt 3.000000 3.000000
vt -3.000000 0.600000
vt -0.000000 0.600000
vt -3.000000 0.600000
vt 3.000000 0.600000
vt 0.000000 3.000000
vt 2.009090 1.149630
vt -0.000000 0.750000
vt 0.685263 0.794914
vt 1.358800 0.928889
vn -0.2588 0.0000 -0.9659
vn -0.3827 0.0000 -0.9239
vn 1.0000 0.0000 0.0000
vn -0.5000 0.0000 -0.8660
vn -0.5556 0.0000 -0.8315
vn 0.0000 1.0000 0.0000
vn -0.1305 0.0000 -0.9914
vn -0.0654 0.0000 -0.9979
vn -1.0000 0.0000 0.0000
vn 0.0000 0.0000 -1.0000
vn 0.0000 -1.0000 -0.0000
vn 0.0000 0.0000 1.0000
usemtl Stone.136
s 1
f 1/1/1 2/2/2 3/3/2
f 4/4/3 5/5/3 6/6/3
f 7/7/4 8/8/5 9/9/5
f 3/10/2 10/11/4 7/12/4
f 5/13/6 2/14/6 11/15/6
f 12/16/7 11/17/1 1/18/1
f 13/19/8 14/20/7 12/21/7
f 15/22/9 16/23/9 17/24/9
f 18/25/10 19/26/10 16/27/10
f 17/24/11 19/28/11 6/29/11
f 17/24/12 5/30/12 20/31/12
f 1/1/1 11/32/1 2/2/2
f 19/33/3 21/34/3 4/4/3
f 9/35/3 8/36/3 5/5/3
f 6/6/3 19/33/3 4/4/3
f 4/4/3 9/35/3 5/5/3
f 7/7/4 10/37/4 8/8/5
f 3/10/2 2/38/2 10/11/4
f 5/13/6 8/39/6 10/40/6
f 5/13/6 10/40/6 2/14/6
f 22/41/6 20/42/6 14/43/6
f 20/42/6 5/13/6 11/15/6
f 14/43/6 20/42/6 11/15/6
f 12/16/7 14/44/7 11/17/1
f 13/19/8 22/45/8 14/20/7
f 22/46/9 13/47/9 20/31/9
f 13/47/9 15/22/9 20/31/9
f 20/31/9 15/22/9 17/24/9
f 15/22/9 18/48/9 16/23/9
f 18/25/10 21/49/10 19/26/10
f 17/24/11 16/50/11 19/28/11
f 17/24/12 6/51/12 5/30/12
usemtl Asphalt.108
f 7/52/6 9/53/6 23/54/6
f 18/48/9 13/47/9 24/55/9
f 21/49/10 24/56/10 23/57/10
f 4/4/3 23/58/3 9/35/3
f 23/54/6 24/59/6 3/60/6
f 24/59/6 13/61/6 12/62/6
f 1/63/6 24/59/6 12/62/6
f 1/63/6 3/60/6 24/59/6
f 3/60/6 7/52/6 23/54/6
f 18/48/9 15/22/9 13/47/9
f 21/49/10 18/25/10 24/56/10
f 4/4/3 21/34/3 23/58/3
