# Blender v2.79 (sub 7) OBJ File: ''
# www.blender.org
mtllib roadTile_140.mtl
o Mesh1_Group1_Model.060
v -1.500000 0.000000 1.500000
v 1.500000 0.550000 1.500000
v -1.500000 1.650000 1.500000
v 1.500000 0.000000 1.500000
v -1.500000 0.000000 -1.500000
v 1.500000 0.000000 -1.500000
v 1.500000 0.550000 -1.500000
v -1.500000 0.550000 -1.500000
vt -0.000000 0.000000
vt 3.000000 0.550000
vt 0.000000 1.650000
vt -3.000000 0.000000
vt -0.000000 3.000000
vt -3.000000 3.000000
vt 0.000000 0.000000
vt 3.000000 0.550000
vt 0.000000 0.550000
vt 0.000000 -0.000000
vt -3.000000 0.550000
vt -3.000000 -0.000000
vt -3.000000 0.550000
vt -0.000000 0.759554
vt -2.121320 -1.630010
vt 2.121320 -1.630010
vt 3.000000 3.000000
vt 0.000000 3.000000
vt 3.000000 0.000000
vt 3.000000 0.000000
vt 3.000000 0.000000
vt 0.000000 0.550000
vt -3.000000 0.000000
vn 0.0000 -0.0000 1.0000
vn 0.0000 -1.0000 -0.0000
vn 1.0000 0.0000 0.0000
vn 0.0000 0.0000 -1.0000
vn -1.0000 0.0000 0.0000
vn 0.3255 0.8877 -0.3255
vn 0.0000 1.0000 0.0000
usemtl Grass.029
s 1
f 1/1/1 2/2/1 3/3/1
f 4/4/2 5/5/2 6/6/2
f 4/7/3 7/8/3 2/9/3
f 5/10/4 7/11/4 6/12/4
f 8/13/5 1/1/5 3/3/5
f 3/14/6 2/15/6 8/16/6
f 7/17/7 8/18/7 2/19/7
f 1/1/1 4/20/1 2/2/1
f 4/4/2 1/1/2 5/5/2
f 4/7/3 6/21/3 7/8/3
f 5/10/4 8/22/4 7/11/4
f 8/13/5 5/23/5 1/1/5
