# Blender v2.79 (sub 7) OBJ File: ''
# www.blender.org
mtllib roadTile_061.mtl
o Mesh1_Group1_Model.008
v -3.000000 0.630000 0.000000
v -2.250000 0.300000 0.000000
v -3.000000 0.000000 0.000000
v -2.250000 0.630000 2.250000
v -3.000000 0.630000 3.000000
v -2.250000 0.600000 0.000000
v -2.250000 0.600000 2.250000
v 0.000000 0.600000 2.250000
v 0.000000 0.000000 0.000000
v 0.000000 0.300000 0.000000
v 0.000000 0.300000 2.250000
v 0.000000 0.630000 2.250000
v 0.000000 0.630000 3.000000
v 0.000000 -0.000000 3.000000
v -2.250000 0.630000 0.000000
v -3.000000 -0.000000 3.000000
v 0.000000 0.600000 0.000000
vt 0.000000 0.630000
vt -0.750000 0.300000
vt 0.000000 -0.000000
vt 0.750000 0.750000
vt 0.000000 3.000000
vt -0.000000 0.000000
vt 3.000000 0.600000
vt 0.750000 0.630000
vt 0.750000 0.600000
vt -3.000000 0.000000
vt -0.000000 0.630000
vt -3.000000 0.630000
vt -0.750000 0.630000
vt -3.000000 0.600000
vt -0.750000 0.600000
vt 3.000000 0.000000
vt 3.000000 0.300000
vt 0.750000 0.300000
vt 0.750000 0.600000
vt 0.750000 0.630000
vt 0.000000 0.630000
vt 0.000000 0.000000
vt 0.750000 3.000000
vt 3.000000 -0.000000
vt 3.000000 0.750000
vt -3.000000 0.300000
vt -3.000000 0.000000
vt -0.750000 0.630000
vt -0.750000 0.600000
vt -0.000000 0.000000
vt -3.000000 3.000000
vt -3.000000 -0.000000
vt 3.000000 0.000000
vt 3.000000 0.630000
vt -3.000000 0.630000
vt -0.000000 3.000000
vt 3.000000 0.630000
vt -3.000000 0.600000
vt 0.750000 0.750000
vt 3.000000 3.000000
vt 0.750000 3.000000
vt 3.000000 0.600000
vt 3.000000 0.750000
vn 0.0000 0.0000 -1.0000
vn 0.0000 1.0000 0.0000
vn 1.0000 0.0000 0.0000
vn -1.0000 0.0000 0.0000
vn 0.0000 -1.0000 -0.0000
vn 0.0000 0.0000 1.0000
usemtl Stone.005
s 1
f 1/1/1 2/2/1 3/3/1
f 4/4/2 1/5/2 5/6/2
f 6/7/3 4/8/3 7/9/3
f 3/10/4 5/11/4 1/12/4
f 4/13/1 8/14/1 7/15/1
f 9/16/3 10/17/3 11/18/3
f 8/19/3 12/20/3 13/21/3
f 14/22/3 9/16/3 11/18/3
f 4/4/2 15/23/2 1/5/2
f 5/6/2 13/24/2 4/4/2
f 13/24/2 12/25/2 4/4/2
f 10/26/1 9/27/1 2/2/1
f 9/27/1 3/3/1 2/2/1
f 1/1/1 15/28/1 6/29/1
f 11/18/3 13/21/3 14/22/3
f 16/30/5 9/31/5 14/32/5
f 14/33/6 5/11/6 16/30/6
f 1/1/1 6/29/1 2/2/1
f 6/7/3 15/34/3 4/8/3
f 3/10/4 16/30/4 5/11/4
f 4/13/1 12/35/1 8/14/1
f 11/18/3 8/19/3 13/21/3
f 16/30/5 3/36/5 9/31/5
f 14/33/6 13/37/6 5/11/6
usemtl Asphalt.005
f 2/2/1 17/38/1 10/26/1
f 10/17/3 8/19/3 11/18/3
f 7/39/2 17/40/2 6/41/2
f 2/2/1 6/29/1 17/38/1
f 10/17/3 17/42/3 8/19/3
f 7/39/2 8/43/2 17/40/2
