# Blender v2.79 (sub 7) OBJ File: ''
# www.blender.org
mtllib roadTile_189.mtl
o Mesh1_Group1_Model.235
v 1.500000 0.550000 0.750000
v -1.500000 1.650000 1.500000
v 1.500000 0.550000 1.500000
v 1.500000 0.455000 0.750000
v 1.500000 0.000000 0.750000
v -1.500000 0.000000 1.500000
v -1.500000 0.000000 0.750000
v -1.500000 1.555000 -0.750000
v -1.500000 1.650000 -0.750000
v -1.500000 1.650000 -1.500000
v -1.500000 1.555000 0.750000
v 1.500000 0.455000 -0.750000
v 1.500000 0.000000 -1.500000
v 1.500000 0.550000 -1.500000
v 1.500000 0.550000 -0.750000
v -1.500000 0.000000 -1.500000
v -1.500000 1.650000 0.750000
v 1.500000 0.000000 1.500000
v -1.500000 0.000000 -0.750000
v 1.500000 0.000000 -0.750000
vt 0.750000 -2.627290
vt 0.000000 0.568020
vt 0.000000 -2.627290
vt 0.750000 0.455000
vt 0.750000 0.550000
vt 0.000000 0.550000
vt -3.000000 0.750000
vt -0.000000 0.000000
vt -0.000000 0.750000
vt -2.250000 1.555000
vt -2.250000 1.650000
vt -3.000000 1.650000
vt -0.750000 1.555000
vt 0.000000 1.650000
vt -0.000000 1.555000
vt -3.000000 0.550000
vt -3.000000 0.455000
vt 2.250000 0.455000
vt 3.000000 0.000000
vt 3.000000 0.550000
vt 3.000000 0.550000
vt 0.000000 1.555000
vt 3.000000 0.455000
vt 2.250000 0.568020
vt 3.000000 -2.627290
vt 3.000000 0.568020
vt -0.000000 -0.000000
vt -3.000000 0.550000
vt -3.000000 -0.000000
vt 3.000000 0.550000
vt 0.750000 0.568020
vt 0.000000 0.000000
vt 0.750000 0.000000
vt -0.000000 2.250000
vt 0.000000 3.000000
vt -3.000000 2.250000
vt -3.000000 3.000000
vt -3.000000 0.000000
vt -3.000000 0.000000
vt -2.250000 0.000000
vt -0.750000 1.650000
vt -0.750000 0.000000
vt -0.000000 1.650000
vt 2.250000 0.550000
vt 2.250000 0.000000
vt 0.000000 1.650000
vt 2.250000 -2.627290
vt -0.000000 1.650000
vt 3.000000 -0.000000
vt 0.750000 0.535316
vt 2.250000 -2.659990
vt 2.250000 0.535316
vt 0.750000 -2.659990
vn 0.3443 0.9389 0.0000
vn 1.0000 0.0000 0.0000
vn 0.0000 -1.0000 -0.0000
vn -1.0000 0.0000 0.0000
vn 0.0000 0.0000 -1.0000
vn 0.0000 0.0000 1.0000
usemtl Grass.100
s 1
f 1/1/1 2/2/1 3/3/1
f 4/4/2 1/5/2 3/6/2
f 5/7/3 6/8/3 7/9/3
f 8/10/4 9/11/4 10/12/4
f 11/13/4 6/8/4 2/14/4
f 11/15/5 1/16/5 4/17/5
f 12/18/2 13/19/2 14/20/2
f 15/21/6 8/22/6 12/23/6
f 9/24/1 14/25/1 10/26/1
f 16/27/5 14/28/5 13/29/5
f 6/8/6 3/30/6 2/14/6
f 1/1/1 17/31/1 2/2/1
f 3/6/2 18/32/2 4/4/2
f 18/32/2 5/33/2 4/4/2
f 7/9/3 19/34/3 5/7/3
f 19/34/3 16/35/3 20/36/3
f 5/7/3 19/34/3 20/36/3
f 16/35/3 13/37/3 20/36/3
f 5/7/3 18/38/3 6/8/3
f 10/12/4 16/39/4 8/10/4
f 16/39/4 19/40/4 8/10/4
f 2/14/4 17/41/4 11/13/4
f 11/13/4 7/42/4 6/8/4
f 11/15/5 17/43/5 1/16/5
f 14/20/2 15/44/2 12/18/2
f 12/18/2 20/45/2 13/19/2
f 15/21/6 9/46/6 8/22/6
f 9/24/1 15/47/1 14/25/1
f 16/27/5 10/48/5 14/28/5
f 6/8/6 18/49/6 3/30/6
usemtl Water.039
f 7/42/4 8/10/4 19/40/4
f 11/50/1 12/51/1 8/52/1
f 20/45/2 4/4/2 5/33/2
f 7/42/4 11/13/4 8/10/4
f 11/50/1 4/53/1 12/51/1
f 20/45/2 12/18/2 4/4/2
