# Blender v2.79 (sub 7) OBJ File: ''
# www.blender.org
mtllib roadTile_295.mtl
o Mesh1_Group1_Model.005
v -0.375000 0.630000 0.750000
v -0.750000 0.630000 0.375000
v -0.750000 0.630000 1.125000
v -0.375000 0.000000 0.750000
v -0.375000 0.630000 0.375000
v 0.000000 -0.000000 3.000000
v 0.000000 0.000000 0.750000
v 0.000000 0.300000 2.625000
v -3.000000 0.300000 2.625000
v -3.000000 0.630000 3.000000
v -3.000000 0.600000 2.625000
v 0.000000 0.600000 1.125000
v 0.000000 0.630000 1.125000
v -3.000000 -0.000000 3.000000
v -3.000000 0.000000 0.750000
v -3.000000 0.300000 1.125000
v -2.625000 0.000000 0.375000
v -0.375000 0.000000 0.375000
v -2.625000 0.630000 0.750000
v -2.625000 0.630000 0.375000
v -0.750000 0.600000 1.125000
v 0.000000 0.630000 0.750000
v -3.000000 0.630000 2.625000
v 0.000000 0.600000 2.625000
v -2.250000 0.630000 0.375000
v -2.250000 0.600000 1.125000
v -2.250000 0.630000 1.125000
v 0.000000 0.630000 3.000000
v -3.000000 0.630000 0.750000
v -3.000000 0.600000 1.125000
v 0.000000 0.630000 2.625000
v 0.000000 0.300000 1.125000
v -2.625000 0.000000 0.750000
v -3.000000 0.630000 1.125000
vt 2.625000 2.250000
vt 2.250000 2.625000
vt 2.250000 1.875000
vt 2.250000 0.000000
vt 2.625000 0.630000
vt 2.250000 0.630000
vt 0.000000 -0.000000
vt 2.250000 -0.000000
vt 0.375000 0.300000
vt -0.375000 0.300000
vt 0.000000 0.630000
vt -0.375000 0.600000
vt 2.250000 0.630000
vt 3.000000 0.600000
vt 3.000000 0.630000
vt -0.000000 -0.000000
vt -2.625000 2.250000
vt -3.000000 0.000000
vt -2.250000 -0.000000
vt -1.875000 0.300000
vt -0.375000 2.625000
vt -2.625000 2.625000
vt -2.625000 0.000000
vt -2.250000 0.630000
vt -2.625000 0.630000
vt -2.625000 0.630000
vt -1.875000 0.600000
vt -1.875000 0.630000
vt -3.000000 0.000000
vt -2.625000 0.630000
vt -3.000000 0.630000
vt -0.000000 0.630000
vt -3.000000 0.600000
vt -0.000000 0.600000
vt 0.750000 2.625000
vt 0.375000 2.625000
vt 0.375000 2.250000
vt 0.750000 2.648080
vt 2.250000 1.897480
vt 2.250000 2.648080
vt 1.875000 0.600000
vt 2.625000 0.630000
vt 1.875000 0.630000
vt 3.000000 0.630000
vt 3.000000 0.000000
vt 0.000000 0.375000
vt 0.000000 0.000000
vt 3.000000 1.875000
vt 3.000000 2.250000
vt 2.625000 2.625000
vt -2.250000 0.630000
vt -1.875000 0.600000
vt 2.250000 0.630000
vt 1.875000 0.630000
vt 1.875000 0.600000
vt 0.375000 0.630000
vt 0.000000 0.630000
vt 0.375000 0.600000
vt 1.875000 0.300000
vt -3.000000 2.250000
vt 0.000000 2.250000
vt -0.375000 2.250000
vt -0.375000 0.630000
vt -1.875000 0.630000
vt -2.625000 0.630000
vt -2.625000 -0.000000
vt -2.250000 0.630000
vt -0.375000 -0.000000
vt -0.375000 0.630000
vt -0.750000 0.630000
vt 0.000000 2.250000
vt 0.000000 1.875000
vt 0.750000 1.875000
vt -0.375000 0.000000
vt -0.000000 0.630000
vt -0.375000 0.630000
vt 0.750000 0.630000
vt 0.000000 0.600000
vt 0.750000 0.600000
vt 2.625000 -0.000000
vt 2.250000 0.600000
vt -2.250000 0.000000
vt -2.625000 0.000000
vt -3.000000 0.630000
vt 0.750000 1.897480
vt 3.000000 -0.000000
vt 3.000000 0.375000
vt -0.000000 0.000000
vt 0.000000 0.630000
vt 3.000000 0.375000
vt 0.750000 1.875000
vt 0.000000 0.375000
vt 0.000000 1.875000
vt 3.000000 1.875000
vt 2.250000 1.875000
vn -0.0000 1.0000 0.0000
vn 1.0000 0.0000 0.0000
vn -1.0000 0.0000 0.0000
vn 0.0000 0.0000 1.0000
vn 0.0000 -1.0000 -0.0000
vn 0.0000 0.0000 -1.0000
vn 0.0000 0.9992 0.0400
vn -0.0000 0.9998 0.0200
usemtl Stone.003
s 1
f 1/1/1 2/2/1 3/3/1
f 4/4/2 5/5/2 1/6/2
f 6/7/2 7/8/2 8/9/2
f 9/10/3 10/11/3 11/12/3
f 3/13/4 12/14/4 13/15/4
f 14/16/5 4/17/5 6/18/5
f 15/19/3 14/16/3 16/20/3
f 4/17/5 17/21/5 18/22/5
f 17/23/3 19/24/3 20/25/3
f 2/26/3 21/27/3 3/28/3
f 7/29/6 1/30/6 22/31/6
f 23/32/6 24/33/6 11/34/6
f 25/35/1 20/36/1 19/37/1
f 25/38/7 21/39/8 2/40/7
f 26/41/2 25/42/2 27/43/2
f 14/16/4 28/44/4 10/11/4
f 28/45/1 23/46/1 10/47/1
f 13/48/1 22/49/1 1/1/1
f 1/1/1 5/50/1 2/2/1
f 3/3/1 13/48/1 1/1/1
f 29/51/3 16/20/3 30/52/3
f 22/53/2 13/54/2 12/55/2
f 31/56/2 28/57/2 24/58/2
f 7/8/2 32/59/2 8/9/2
f 4/17/5 7/60/5 6/18/5
f 14/16/5 15/61/5 33/62/5
f 32/59/2 22/53/2 12/55/2
f 10/11/3 23/63/3 11/12/3
f 34/64/3 29/51/3 30/52/3
f 28/57/2 8/9/2 24/58/2
f 14/16/3 9/10/3 16/20/3
f 5/65/6 18/66/6 2/67/6
f 17/68/6 20/69/6 25/70/6
f 29/71/1 34/72/1 19/37/1
f 34/72/1 27/73/1 19/37/1
f 27/73/1 25/35/1 19/37/1
f 17/68/6 2/67/6 18/66/6
f 33/74/6 29/75/6 19/76/6
f 27/77/4 30/78/4 26/79/4
f 4/4/2 18/80/2 5/5/2
f 9/10/3 14/16/3 10/11/3
f 3/13/4 21/81/4 12/14/4
f 14/16/5 33/62/5 4/17/5
f 4/17/5 33/62/5 17/21/5
f 17/23/3 33/82/3 19/24/3
f 7/29/6 4/83/6 1/30/6
f 23/32/6 31/84/6 24/33/6
f 25/38/7 26/85/8 21/39/8
f 14/16/4 6/86/4 28/44/4
f 28/45/1 31/87/1 23/46/1
f 29/51/3 15/19/3 16/20/3
f 32/59/2 7/8/2 22/53/2
f 28/57/2 6/7/2 8/9/2
f 17/68/6 25/70/6 2/67/6
f 33/74/6 15/88/6 29/75/6
f 27/77/4 34/89/4 30/78/4
usemtl Asphalt.003
f 24/90/1 26/91/8 11/92/1
f 9/10/3 30/52/3 16/20/3
f 30/93/1 11/92/1 26/91/8
f 24/90/1 12/94/1 21/95/8
f 32/59/2 24/58/2 8/9/2
f 24/90/1 21/95/8 26/91/8
f 9/10/3 11/12/3 30/52/3
f 32/59/2 12/55/2 24/58/2
