# Blender v2.79 (sub 7) OBJ File: ''
# www.blender.org
mtllib roadTile_283.mtl
o Mesh1_Group1_Model.249
v 3.000000 0.455000 0.000000
v 1.875000 0.455000 0.000000
v 1.875000 0.000000 0.000000
v 3.000000 0.000000 0.000000
v 3.000000 0.455000 -3.000000
v 1.875000 0.455000 -3.000000
v 3.000000 0.000000 -3.000000
v 1.875000 0.000000 -3.000000
v 0.750000 0.000000 0.000000
v 0.375000 0.000000 0.000000
v 0.000000 0.000000 0.000000
v 0.000000 0.000000 -3.000000
v 0.375000 0.000000 -3.000000
v 0.750000 0.000000 -3.000000
v 0.000000 0.550000 -3.000000
v 0.375000 0.550000 -3.000000
v 0.000000 0.550000 0.000000
v 0.375000 0.550000 0.000000
v 0.750000 0.455000 0.000000
v 0.750000 0.455000 -3.000000
v 0.375000 0.630000 -3.000000
v 0.750000 0.630000 -3.000000
v 0.375000 0.630000 0.000000
v 0.750000 0.630000 0.000000
vt 1.875000 0.455000
vt 3.000000 0.000000
vt 3.000000 0.455000
vt 1.875000 3.000000
vt 3.000000 0.000000
vt 3.000000 3.000000
vt -1.875000 0.000000
vt -3.000000 0.455000
vt -3.000000 0.000000
vt 0.000000 0.455000
vt 3.000000 0.000000
vt 3.000000 0.455000
vt 1.875000 0.000000
vt 1.875000 0.000000
vt -1.875000 0.455000
vt 0.000000 0.000000
vt -0.375000 0.000000
vt -0.000000 0.000000
vt -0.000000 3.000000
vt -0.375000 0.550000
vt -0.000000 0.000000
vt -0.000000 0.550000
vt 0.375000 0.000000
vt 0.000000 3.000000
vt 0.000000 0.000000
vt 0.375000 0.000000
vt 0.000000 0.550000
vt -3.000000 0.550000
vt -3.000000 0.000000
vt -1.875000 3.000000
vt -3.000000 3.000000
vt -3.000000 0.000000
vt -1.875000 0.000000
vt -0.750000 0.000000
vt -0.750000 3.000000
vt -0.375000 3.000000
vt -0.375000 0.000000
vt 0.375000 3.000000
vt 0.375000 0.550000
vt 0.750000 0.455000
vt 0.750000 0.000000
vt 0.750000 3.000000
vt 0.750000 0.000000
vt -0.750000 0.000000
vt -0.750000 0.455000
vt -0.750000 0.630000
vt 0.750000 0.630000
vt -0.000000 0.550000
vt -3.000000 0.630000
vt -3.000000 0.550000
vt 0.375000 3.000000
vt 0.750000 0.000000
vt 0.750000 3.000000
vt 3.000000 0.630000
vt 0.000000 0.455000
vt 3.000000 0.455000
vt -0.375000 0.630000
vt 0.375000 0.630000
vt -0.000000 0.630000
vt 0.375000 0.000000
vt 0.000000 0.630000
vn 0.0000 -0.0000 1.0000
vn 0.0000 1.0000 0.0000
vn 0.0000 0.0000 -1.0000
vn 1.0000 0.0000 0.0000
vn 0.0000 -1.0000 -0.0000
vn -1.0000 0.0000 0.0000
usemtl Water.042
s 1
f 2/1/1 4/2/1 1/3/1
f 6/4/2 1/5/2 5/6/2
f 8/7/3 5/8/3 7/9/3
f 1/10/4 7/11/4 5/12/4
f 2/1/1 3/13/1 4/2/1
f 6/4/2 2/14/2 1/5/2
f 8/7/3 6/15/3 5/8/3
f 1/10/4 4/16/4 7/11/4
usemtl Grass.106
f 10/17/5 11/18/5 12/19/5
f 16/20/3 12/21/3 15/22/3
f 18/23/2 15/24/2 17/25/2
f 10/26/1 17/27/1 11/18/1
f 11/18/6 15/28/6 12/29/6
f 8/30/5 7/31/5 4/32/5
f 3/33/5 9/34/5 14/35/5
f 9/34/5 10/17/5 14/35/5
f 8/30/5 4/32/5 3/33/5
f 12/19/5 13/36/5 10/17/5
f 13/36/5 14/35/5 10/17/5
f 14/35/5 8/30/5 3/33/5
f 16/20/3 13/37/3 12/21/3
f 18/23/2 16/38/2 15/24/2
f 10/26/1 18/39/1 17/27/1
f 11/18/6 17/27/6 15/28/6
usemtl Sand.006
f 3/13/1 19/40/1 9/41/1
f 2/14/2 20/42/2 19/43/2
f 6/15/3 14/44/3 20/45/3
f 3/13/1 2/1/1 19/40/1
f 2/14/2 6/4/2 20/42/2
f 6/15/3 8/7/3 14/44/3
usemtl Stone.212
f 20/45/3 16/20/3 22/46/3
f 19/40/1 24/47/1 18/39/1
f 18/48/6 21/49/6 16/50/6
f 21/51/2 24/52/2 22/53/2
f 22/54/4 19/55/4 20/56/4
f 20/45/3 14/44/3 13/37/3
f 13/37/3 16/20/3 20/45/3
f 16/20/3 21/57/3 22/46/3
f 24/47/1 23/58/1 18/39/1
f 18/39/1 10/26/1 19/40/1
f 10/26/1 9/41/1 19/40/1
f 18/48/6 23/59/6 21/49/6
f 21/51/2 23/60/2 24/52/2
f 22/54/4 24/61/4 19/55/4
