# Blender v2.79 (sub 7) OBJ File: ''
# www.blender.org
mtllib roadTile_224.mtl
o Mesh1_Group1_Model.241
v 0.000000 0.000000 0.000000
v 0.000000 0.000000 -3.000000
v 3.000000 0.000000 -3.000000
v 3.000000 0.000000 0.000000
v 0.000000 0.300000 -0.750000
v 0.000000 1.736470 -0.750000
v 0.000000 2.200000 0.000000
v 0.000000 2.200000 -3.000000
v 3.000000 1.650000 0.000000
v 3.000000 1.650000 -3.000000
v 3.000000 1.275000 -0.750000
v 3.000000 0.600000 -0.750000
v 3.000000 0.300000 -0.750000
v 3.000000 0.300000 -2.250000
v 3.000000 0.600000 -2.250000
v 3.000000 1.275000 -2.250000
v 0.000000 1.736470 -2.250000
v 0.000000 0.600000 -0.750000
v 0.000000 0.600000 -2.250000
v 0.000000 0.300000 -2.250000
vt -0.000000 3.000000
vt -3.000000 0.000000
vt -0.000000 0.000000
vt -0.750000 0.300000
vt -3.000000 -0.000000
vt -0.750000 1.736470
vt 0.000000 2.200000
vt -3.000000 2.200000
vt 3.000000 -2.653280
vt -0.000000 0.396721
vt 0.000000 -2.653280
vt 0.000000 1.650000
vt 0.750000 1.275000
vt 3.000000 1.650000
vt 0.000000 -0.000000
vt 3.000000 1.650000
vt 0.750000 0.600000
vt 0.750000 0.300000
vt 3.000000 -0.000000
vt 2.250000 0.300000
vt 2.250000 0.600000
vt 2.250000 1.275000
vt -0.750000 -2.771280
vt -2.250000 0.264008
vt -2.250000 -2.771280
vt -3.000000 1.275000
vt -0.000000 0.600000
vt -0.000000 1.736470
vt 3.000000 1.275000
vt 0.000000 0.600000
vt 3.000000 0.600000
vt -2.250000 1.736470
vt -2.250000 0.600000
vt -2.250000 0.300000
vt -0.750000 0.600000
vt -0.000000 -0.000000
vt -3.000000 1.650000
vt -3.000000 -0.000000
vt -3.000000 3.000000
vt 3.000000 0.396721
vt 3.000000 -0.000000
vt -0.750000 0.264008
vt -3.000000 0.600000
vt 0.000000 1.736470
vt -0.000000 2.200000
vt 3.000000 2.250000
vt 0.000000 0.750000
vt 3.000000 0.750000
vt 0.000000 2.250000
vn 0.0000 -1.0000 -0.0000
vn -1.0000 0.0000 0.0000
vn 0.1803 0.9836 0.0000
vn 1.0000 -0.0000 0.0000
vn 0.0000 -0.0000 1.0000
vn -0.1520 -0.9884 -0.0000
vn 0.0000 0.0000 -1.0000
vn 0.0000 1.0000 0.0000
usemtl Stone.205
s 1
f 2/1/1 4/2/1 1/3/1
f 1/3/2 5/4/2 2/5/2
f 5/4/2 1/3/2 6/6/2
f 7/7/2 6/6/2 1/3/2
f 6/6/2 7/7/2 8/8/2
f 10/9/3 7/10/3 9/11/3
f 9/12/4 11/13/4 10/14/4
f 11/13/4 9/12/4 4/15/4
f 1/3/5 9/16/5 7/7/5
f 11/13/4 4/15/4 12/17/4
f 12/17/4 4/15/4 13/18/4
f 3/19/4 13/18/4 4/15/4
f 13/18/4 3/19/4 14/20/4
f 14/20/4 3/19/4 15/21/4
f 15/21/4 3/19/4 16/22/4
f 10/14/4 16/22/4 3/19/4
f 10/14/4 11/13/4 16/22/4
f 11/23/6 17/24/6 16/25/6
f 11/26/7 18/27/7 6/28/7
f 16/29/5 19/30/5 15/31/5
f 17/32/2 8/8/2 19/33/2
f 6/6/2 8/8/2 17/32/2
f 19/33/2 8/8/2 20/34/2
f 2/5/2 20/34/2 8/8/2
f 2/5/2 5/4/2 20/34/2
f 5/4/2 6/6/2 18/35/2
f 2/36/7 10/37/7 3/38/7
f 2/1/1 3/39/1 4/2/1
f 10/9/3 8/40/3 7/10/3
f 1/3/5 4/41/5 9/16/5
f 11/23/6 6/42/6 17/24/6
f 11/26/7 12/43/7 18/27/7
f 16/29/5 17/44/5 19/30/5
f 2/36/7 8/45/7 10/37/7
usemtl Asphalt.168
f 15/46/8 18/47/8 12/48/8
f 12/17/4 14/20/4 15/21/4
f 19/33/2 5/4/2 18/35/2
f 15/46/8 19/49/8 18/47/8
f 12/17/4 13/18/4 14/20/4
f 19/33/2 20/34/2 5/4/2
