# Blender v2.79 (sub 7) OBJ File: ''
# www.blender.org
mtllib roadTile_165.mtl
o Mesh1_Group1_Model.299
v -1.500000 1.700000 -0.750000
v -1.500000 1.400000 0.750000
v -1.500000 1.700000 0.750000
v 1.500000 0.600000 0.750000
v 1.500000 0.600000 -0.750000
v 1.500000 0.300000 -0.750000
v -1.500000 1.400000 -0.750000
v 1.500000 0.300000 0.750000
v 1.500000 0.630000 -0.750000
v -1.500000 1.730000 -0.750000
v 1.500000 0.000000 1.125000
v 1.500000 0.000000 -1.125000
v -1.500000 1.100000 -1.125000
v -1.500000 1.100000 1.125000
v -1.500000 1.650000 -1.125000
v 1.500000 0.630000 -1.125000
v 1.500000 0.550000 -1.125000
v -1.500000 1.650000 1.125000
v 1.500000 0.630000 1.125000
v -1.500000 1.730000 1.125000
v 1.500000 0.630000 0.750000
v -1.500000 1.730000 0.750000
v 1.500000 0.550000 1.125000
v -1.500000 1.730000 -1.125000
v 0.000000 0.000000 -1.500000
v 0.000000 0.550000 1.500000
v 0.000000 0.000000 1.500000
v 1.500000 0.000000 1.500000
v 1.500000 0.550000 1.500000
v -1.500000 1.650000 1.500000
v -1.500000 1.100000 -1.500000
v -1.500000 1.650000 -1.500000
v 0.000000 0.550000 -1.500000
v 1.500000 0.550000 -1.500000
v 1.500000 0.000000 -1.500000
v -1.500000 1.100000 1.500000
vt -2.250000 1.700000
vt -0.750000 1.400000
vt -0.750000 1.700000
vt 2.250000 0.585233
vt 0.750000 -2.610080
vt 2.250000 -2.610080
vt 0.750000 0.600000
vt 2.250000 0.300000
vt 2.250000 0.600000
vt -2.250000 1.400000
vt 0.750000 0.585233
vt 0.750000 0.300000
vt 0.000000 1.700000
vt 3.000000 0.630000
vt 0.000000 1.730000
vt 0.375000 -0.000000
vt 2.625000 -0.000000
vt -2.625000 1.100000
vt -0.375000 1.100000
vt -0.000000 1.650000
vt -3.000000 0.630000
vt -3.000000 0.550000
vt 2.625000 -2.599750
vt 2.250000 0.595561
vt 2.250000 -2.599750
vt 0.000000 1.650000
vt 3.000000 0.630000
vt 0.000000 1.730000
vt 0.375000 0.595561
vt 0.750000 -2.599750
vt 0.750000 0.595561
vt -0.000000 1.700000
vt -3.000000 0.630000
vt -3.000000 0.600000
vt 3.000000 0.600000
vt 2.625000 0.550000
vt 2.625000 0.630000
vt 2.250000 0.630000
vt 0.375000 0.630000
vt 0.375000 0.550000
vt 0.750000 0.630000
vt -2.625000 1.730000
vt -2.625000 1.650000
vt -2.250000 1.730000
vt -0.375000 1.650000
vt -0.375000 1.730000
vt -0.750000 1.730000
vt -0.000000 1.730000
vt 2.625000 0.595561
vt 3.000000 0.550000
vt 0.375000 -2.599750
vt -0.000000 1.730000
vt -1.500000 3.000000
vt -3.000000 2.625000
vt -3.000000 0.375000
vt -0.000000 0.550000
vt -3.000000 0.000000
vt -0.000000 0.000000
vt 1.500000 0.550000
vt 3.000000 -0.000000
vt 3.000000 0.550000
vt 0.000000 1.650000
vt -3.000000 1.100000
vt -3.000000 1.650000
vt -1.500000 0.550000
vt -0.000000 1.650000
vt -3.000000 0.550000
vt -0.375000 0.378680
vt -2.625000 0.378680
vt -3.000000 -1.218970
vt 2.625000 -2.627290
vt 3.000000 0.568020
vt 2.625000 0.568020
vt 3.000000 0.000000
vt 3.000000 0.550000
vt 0.375000 0.568020
vt 0.000000 -2.627290
vt 0.375000 -2.627290
vt 0.000000 0.550000
vt 0.000000 0.000000
vt -3.000000 0.000000
vt -1.500000 0.000000
vt -3.000000 3.000000
vt -3.000000 0.550000
vt 0.000000 1.100000
vt 1.500000 -0.000000
vt -3.000000 0.000000
vt -1.500000 0.000000
vt -0.000000 1.100000
vt -0.000000 -1.218970
vt -0.000000 0.378680
vt -3.000000 0.378680
vt 3.000000 -2.627290
vt 0.000000 0.568020
vn -1.0000 0.0000 0.0000
vn 0.3443 0.9389 0.0000
vn 1.0000 0.0000 0.0000
vn 0.0000 0.0000 1.0000
vn -0.0000 0.0000 -1.0000
vn 0.0000 -1.0000 -0.0000
vn -0.3443 -0.9389 -0.0000
usemtl Asphalt.208
s 1
f 1/1/1 2/2/1 3/3/1
f 1/4/2 4/5/2 5/6/2
f 4/7/3 6/8/3 5/9/3
f 1/1/1 7/10/1 2/2/1
f 1/4/2 3/11/2 4/5/2
f 4/7/3 8/12/3 6/8/3
usemtl Stone.255
f 1/13/4 9/14/4 10/15/4
f 11/16/3 12/17/3 8/12/3
f 13/18/1 14/19/1 7/10/1
f 15/20/5 16/21/5 17/22/5
f 16/23/2 10/24/2 9/25/2
f 18/26/4 19/27/4 20/28/4
f 20/29/2 21/30/2 22/31/2
f 3/32/5 21/33/5 4/34/5
f 1/13/4 5/35/4 9/14/4
f 12/17/3 17/36/3 6/8/3
f 17/36/3 16/37/3 5/9/3
f 6/8/3 17/36/3 5/9/3
f 16/37/3 9/38/3 5/9/3
f 19/39/3 23/40/3 4/7/3
f 23/40/3 11/16/3 8/12/3
f 4/7/3 21/41/3 19/39/3
f 8/12/3 4/7/3 23/40/3
f 12/17/3 6/8/3 8/12/3
f 24/42/1 15/43/1 1/1/1
f 15/43/1 13/18/1 7/10/1
f 24/42/1 1/1/1 10/44/1
f 14/19/1 18/45/1 2/2/1
f 18/45/1 20/46/1 3/3/1
f 2/2/1 18/45/1 3/3/1
f 20/46/1 22/47/1 3/3/1
f 1/1/1 15/43/1 7/10/1
f 14/19/1 2/2/1 7/10/1
f 15/20/5 24/48/5 16/21/5
f 16/23/2 24/49/2 10/24/2
f 18/26/4 23/50/4 19/27/4
f 20/29/2 19/51/2 21/30/2
f 3/32/5 22/52/5 21/33/5
usemtl Grass.126
f 25/53/6 12/54/6 11/55/6
f 26/56/1 25/57/1 27/58/1
f 26/59/4 28/60/4 29/61/4
f 14/19/1 30/62/1 18/45/1
f 31/63/1 15/43/1 32/64/1
f 33/65/5 32/66/5 34/67/5
f 14/68/7 13/69/7 33/70/7
f 17/71/2 32/72/2 15/73/2
f 17/36/3 35/74/3 34/75/3
f 18/76/2 29/77/2 23/78/2
f 11/16/3 29/79/3 28/80/3
f 28/81/6 27/82/6 11/55/6
f 27/82/6 25/53/6 11/55/6
f 25/53/6 35/83/6 12/54/6
f 26/56/1 33/84/1 25/57/1
f 29/61/4 30/62/4 26/59/4
f 30/62/4 36/85/4 26/59/4
f 26/59/4 27/86/4 28/60/4
f 14/19/1 36/85/1 30/62/1
f 31/63/1 13/18/1 15/43/1
f 34/67/5 35/87/5 25/88/5
f 33/65/5 31/89/5 32/66/5
f 34/67/5 25/88/5 33/65/5
f 33/70/7 26/90/7 14/68/7
f 26/90/7 36/91/7 14/68/7
f 13/69/7 31/92/7 33/70/7
f 17/71/2 34/93/2 32/72/2
f 17/36/3 12/17/3 35/74/3
f 18/76/2 30/94/2 29/77/2
f 11/16/3 23/40/3 29/79/3
