# Blender v2.79 (sub 7) OBJ File: ''
# www.blender.org
mtllib roadTile_067.mtl
o Mesh1_Group1_Model.192
v -1.500000 0.630000 -1.500000
v -1.500000 0.630000 1.500000
v -0.750000 0.630000 0.000000
v -0.622222 0.630000 -0.970570
v -0.402930 0.600000 -1.500000
v -0.402930 0.630000 -1.500000
v -0.622222 0.600000 -0.970570
v -0.622222 0.630000 0.970571
v -0.750000 0.600000 0.000000
v -0.402930 0.630000 1.500000
v -0.622222 0.600000 0.970571
v -0.402930 0.315000 1.500000
v -1.500000 0.000000 1.500000
v 1.500000 0.000000 1.500000
v 0.750000 0.630000 0.000000
v 0.826670 0.630000 0.582343
v 1.500000 0.630000 1.500000
v 1.500000 0.000000 -1.500000
v 1.500000 0.630000 -1.500000
v -1.500000 0.000000 -1.500000
v -0.402930 0.315000 -1.500000
v 1.339190 0.315000 -1.500000
v 1.339190 0.630000 -1.500000
v 1.051440 0.600000 -1.125000
v 1.051440 0.630000 -1.125000
v 0.826670 0.600000 -0.582340
v 0.826670 0.630000 -0.582340
v 0.750000 0.600000 0.000000
v 0.826670 0.600000 0.582343
v 1.051440 0.600000 1.125000
v 1.051440 0.630000 1.125000
v 1.339190 0.600000 1.500000
v 1.339190 0.630000 1.500000
v -0.402930 0.600000 1.500000
v 1.339190 0.315000 1.500000
v 1.339190 0.600000 -1.500000
vt 0.000000 3.000000
vt 0.000000 0.000000
vt 0.750000 1.500000
vt 2.618420 0.630000
vt 3.191470 0.600000
vt 3.191470 0.630000
vt 1.585060 0.630000
vt 2.564010 0.600000
vt 2.564010 0.630000
vt 0.410326 0.630000
vt 1.389270 0.600000
vt 1.389270 0.630000
vt -0.419832 0.630000
vt 0.153217 0.600000
vt 0.153217 0.630000
vt 1.097070 0.315000
vt 0.000000 0.000000
vt 3.000000 0.000000
vt 2.250000 1.500000
vt 2.326670 0.917657
vt 3.000000 0.000000
vt -0.000000 0.630000
vt 3.000000 -0.000000
vt 3.000000 0.630000
vt 0.000000 3.000000
vt -3.000000 0.000000
vt -3.000000 0.000000
vt 0.000000 0.630000
vt -3.000000 0.630000
vt -1.097070 0.315000
vt -2.839190 0.315000
vt -3.000000 0.000000
vt -4.108450 0.630000
vt -3.635770 0.600000
vt -3.635770 0.630000
vt -3.401580 0.630000
vt -2.814210 0.600000
vt -2.814210 0.630000
vt -2.368220 0.630000
vt -1.780850 0.600000
vt -1.780850 0.630000
vt -1.193480 0.630000
vt -0.606115 0.600000
vt -0.606115 0.630000
vt 0.042572 0.630000
vt 0.629940 0.600000
vt 0.629940 0.630000
vt 1.255710 0.630000
vt 1.728390 0.600000
vt 1.728390 0.630000
vt 0.877778 2.470570
vt 1.097070 3.000000
vt 1.097070 0.000000
vt 0.877778 0.529429
vt 2.618420 0.600000
vt 1.585060 0.600000
vt 0.410326 0.600000
vt -0.419832 0.600000
vt 3.000000 0.630000
vt 2.839190 0.315000
vt 2.839190 0.630000
vt 2.839190 0.600000
vt 1.097070 0.630000
vt 1.097070 0.600000
vt 2.839190 0.000000
vt 2.551440 0.375000
vt 3.000000 3.000000
vt 2.839190 3.000000
vt 2.551440 2.625000
vt 2.326670 2.082340
vt -0.000000 0.000000
vt -3.000000 3.000000
vt 0.000000 0.000000
vt 0.000000 0.630000
vt -1.097070 0.630000
vt -1.097070 0.600000
vt -2.839190 0.630000
vt -3.000000 0.630000
vt -2.839190 0.600000
vt -4.108450 0.600000
vt -3.401580 0.600000
vt -2.368220 0.600000
vt -1.193480 0.600000
vt 0.042572 0.600000
vt 1.255710 0.600000
vt 2.326670 2.082340
vt 2.551440 2.625000
vt 1.097070 3.000000
vt 2.839190 3.000000
vt 0.877778 2.470570
vt 0.750000 1.500000
vt 2.250000 1.500000
vt 0.877778 0.529429
vt 1.097070 0.000000
vt 2.326670 0.917657
vt 2.839190 0.000000
vt 2.551440 0.375000
vn -0.0000 1.0000 0.0000
vn 0.9659 0.0000 0.2588
vn 0.9239 0.0000 0.3827
vn 1.0000 0.0000 -0.0000
vn 0.9659 0.0000 -0.2588
vn 0.9239 0.0000 -0.3827
vn 0.0000 0.0000 1.0000
vn 0.0000 -1.0000 -0.0000
vn -1.0000 0.0000 0.0000
vn 0.0000 0.0000 -1.0000
vn -0.7934 0.0000 -0.6088
vn -0.8660 0.0000 -0.5000
vn -0.9659 0.0000 -0.2588
vn -0.9659 0.0000 0.2588
vn -0.8660 0.0000 0.5000
vn -0.7934 0.0000 0.6088
usemtl Stone.166
s 1
f 1/1/1 2/2/1 3/3/1
f 4/4/2 5/5/3 6/6/3
f 3/7/4 7/8/2 4/9/2
f 8/10/5 9/11/4 3/12/4
f 10/13/6 11/14/5 8/15/5
f 12/16/7 13/17/7 14/18/7
f 15/19/1 16/20/1 17/21/1
f 17/22/4 18/23/4 19/24/4
f 20/25/8 14/26/8 13/17/8
f 20/27/9 2/28/9 1/29/9
f 21/30/10 22/31/10 18/32/10
f 23/33/11 24/34/12 25/35/12
f 25/36/12 26/37/13 27/38/13
f 27/39/13 28/40/9 15/41/9
f 15/42/9 29/43/14 16/44/14
f 16/45/14 30/46/15 31/47/15
f 31/48/15 32/49/16 33/50/16
f 4/51/1 6/52/1 1/1/1
f 2/2/1 10/53/1 8/54/1
f 3/3/1 4/51/1 1/1/1
f 2/2/1 8/54/1 3/3/1
f 4/4/2 7/55/2 5/5/3
f 3/7/4 9/56/4 7/8/2
f 8/10/5 11/57/5 9/11/4
f 10/13/6 34/58/6 11/14/5
f 14/18/7 17/59/7 35/60/7
f 17/59/7 33/61/7 32/62/7
f 32/62/7 35/60/7 17/59/7
f 10/63/7 2/28/7 34/64/7
f 2/28/7 13/17/7 12/16/7
f 34/64/7 2/28/7 12/16/7
f 14/18/7 35/60/7 12/16/7
f 33/65/1 17/21/1 31/66/1
f 17/21/1 19/67/1 15/19/1
f 31/66/1 17/21/1 16/20/1
f 19/67/1 23/68/1 25/69/1
f 25/69/1 27/70/1 19/67/1
f 27/70/1 15/19/1 19/67/1
f 17/22/4 14/71/4 18/23/4
f 20/25/8 18/72/8 14/26/8
f 20/27/9 13/17/9 2/28/9
f 20/73/10 1/74/10 21/30/10
f 1/74/10 6/75/10 5/76/10
f 1/74/10 5/76/10 21/30/10
f 23/77/10 19/78/10 36/79/10
f 19/78/10 18/32/10 22/31/10
f 36/79/10 19/78/10 22/31/10
f 20/73/10 21/30/10 18/32/10
f 23/33/11 36/80/11 24/34/12
f 25/36/12 24/81/12 26/37/13
f 27/39/13 26/82/13 28/40/9
f 15/42/9 28/83/9 29/43/14
f 16/45/14 29/84/14 30/46/15
f 31/48/15 30/85/15 32/49/16
usemtl Asphalt.137
f 5/76/10 22/31/10 21/30/10
f 26/86/1 24/87/1 5/88/1
f 32/62/7 12/16/7 35/60/7
f 5/76/10 36/79/10 22/31/10
f 24/87/1 36/89/1 5/88/1
f 5/88/1 7/90/1 26/86/1
f 7/90/1 9/91/1 28/92/1
f 9/91/1 11/93/1 28/92/1
f 11/93/1 34/94/1 29/95/1
f 28/92/1 11/93/1 29/95/1
f 34/94/1 32/96/1 30/97/1
f 34/94/1 30/97/1 29/95/1
f 7/90/1 28/92/1 26/86/1
f 32/62/7 34/64/7 12/16/7
