# Blender v2.79 (sub 7) OBJ File: ''
# www.blender.org
mtllib roadTile_284.mtl
o Mesh1_Group1_Model.179
v -0.098000 0.550000 0.582552
v -0.356160 0.630000 0.356160
v -0.356160 0.550000 0.356160
v -0.750000 0.455000 -1.500000
v -1.125000 0.550000 -1.500000
v -0.750000 0.630000 -1.500000
v -1.102543 0.550000 -1.157370
v -1.125000 0.630000 -1.500000
v -1.035555 0.550000 -0.820600
v -1.102543 0.630000 -1.157370
v -0.925184 0.550000 -0.495460
v -1.035555 0.630000 -0.820600
v -0.773317 0.550000 -0.187500
v -0.925184 0.630000 -0.495460
v -0.582553 0.550000 0.098000
v -0.773317 0.630000 -0.187500
v -0.582553 0.630000 0.098000
v 0.187500 0.630000 0.773317
v 0.375000 0.630000 0.448560
v 0.130290 0.630000 0.285050
v 0.187500 0.550000 0.773317
v -0.098000 0.630000 0.582552
v 0.495460 0.550000 0.925184
v 0.820600 0.550000 1.035555
v 0.495460 0.630000 0.925184
v 1.157370 0.550000 1.102543
v 0.820600 0.630000 1.035555
v 1.500000 0.550000 1.125000
v 1.157370 0.630000 1.102543
v 1.500000 0.455000 0.750000
v 1.500000 0.630000 0.750000
v -0.730751 0.455000 -1.206320
v -0.730751 0.630000 -1.206320
v -0.673333 0.455000 -0.917660
v -0.673333 0.630000 -0.917660
v -0.578729 0.455000 -0.638960
v -0.578729 0.630000 -0.638960
v -0.448560 0.455000 -0.375000
v -0.448560 0.630000 -0.375000
v -0.285050 0.455000 -0.130290
v -0.285050 0.630000 -0.130290
v -0.090990 0.455000 0.090990
v -0.090990 0.630000 0.090990
v 0.130290 0.455000 0.285050
v 0.375000 0.455000 0.448560
v 0.638960 0.455000 0.578729
v 0.638960 0.630000 0.578729
v 0.917660 0.455000 0.673333
v 0.917660 0.630000 0.673333
v 1.206320 0.455000 0.730751
v 1.206320 0.630000 0.730751
v -0.750000 0.000000 -1.500000
v -1.125000 0.000000 -1.500000
v 1.500000 0.630000 1.125000
v 1.500000 0.000000 1.125000
v 1.500000 0.000000 0.750000
v -1.500000 0.550000 1.500000
v 1.500000 0.550000 1.500000
v 1.500000 0.000000 1.500000
v 1.500000 0.000000 -0.375000
v 0.375000 0.000000 -1.500000
v -1.500000 0.000000 1.500000
v -1.500000 0.550000 -1.500000
v -1.500000 0.000000 -1.500000
v 1.500000 0.000000 -1.500000
v 0.937500 0.455000 -0.525720
v 0.815140 0.455000 -0.607480
v 1.500000 0.455000 -0.375000
v 0.375000 0.455000 -1.500000
v 1.353160 0.455000 -0.384620
v 1.208830 0.455000 -0.413330
v 0.704500 0.455000 -0.704500
v 0.607480 0.455000 -0.815140
v 0.525720 0.455000 -0.937500
v 0.460640 0.455000 -1.069480
v 0.413330 0.455000 -1.208830
v 0.384620 0.455000 -1.353160
v 1.069480 0.455000 -0.460640
v 1.500000 0.455000 -1.500000
vt 0.449165 0.550000
vt 0.105799 0.630000
vt 0.105799 0.550000
vt -0.750000 0.455000
vt -0.375000 0.550000
vt -0.750000 0.630000
vt -2.625680 0.550000
vt -2.969050 0.630000
vt -2.969050 0.550000
vt -2.185400 0.550000
vt -2.528770 0.630000
vt -2.528770 0.550000
vt -1.704790 0.550000
vt -2.048160 0.630000
vt -2.048160 0.550000
vt -1.192070 0.550000
vt -1.535440 0.630000
vt -1.535440 0.550000
vt -0.656015 0.550000
vt -0.999381 0.630000
vt -0.999381 0.550000
vt -0.105799 0.550000
vt -0.449165 0.630000
vt -0.449165 0.550000
vt 1.687500 0.726683
vt 1.875000 1.051440
vt 1.630290 1.214950
vt 0.999381 0.550000
vt 0.656015 0.630000
vt 0.656015 0.550000
vt 1.535440 0.550000
vt 1.192070 0.630000
vt 1.192070 0.550000
vt 2.048160 0.550000
vt 1.704790 0.630000
vt 1.704790 0.550000
vt 2.528770 0.550000
vt 2.185400 0.630000
vt 2.185400 0.550000
vt 2.969050 0.550000
vt 2.625680 0.630000
vt 2.625680 0.550000
vt 0.750000 0.455000
vt 0.750000 0.630000
vt 0.375000 0.550000
vt 2.944520 0.630000
vt 2.650210 0.455000
vt 2.944520 0.455000
vt 2.504240 0.630000
vt 2.209930 0.455000
vt 2.504240 0.455000
vt 2.023630 0.630000
vt 1.729310 0.455000
vt 2.023630 0.455000
vt 1.510910 0.630000
vt 1.216600 0.455000
vt 1.510910 0.455000
vt 0.974855 0.630000
vt 0.680541 0.455000
vt 0.974855 0.455000
vt 0.424639 0.630000
vt 0.130325 0.455000
vt 0.424639 0.455000
vt -0.130325 0.630000
vt -0.424639 0.455000
vt -0.130325 0.455000
vt -0.680541 0.630000
vt -0.974855 0.455000
vt -0.680541 0.455000
vt -1.216600 0.630000
vt -1.510910 0.455000
vt -1.216600 0.455000
vt -1.729310 0.630000
vt -2.023630 0.455000
vt -1.729310 0.455000
vt -2.209930 0.630000
vt -2.504240 0.455000
vt -2.209930 0.455000
vt -2.650210 0.630000
vt -2.944520 0.455000
vt -2.650210 0.455000
vt 0.449165 0.630000
vt -0.750000 0.000000
vt -0.375000 0.000000
vt -0.375000 0.630000
vt -2.625680 0.630000
vt -2.185400 0.630000
vt -1.704790 0.630000
vt -1.192070 0.630000
vt -0.656015 0.630000
vt -0.105799 0.630000
vt 0.769249 2.706320
vt 0.750000 3.000000
vt 0.375000 3.000000
vt 0.397457 2.657370
vt 0.464445 2.320600
vt 0.826667 2.417660
vt 0.574816 1.995460
vt 0.921271 2.138960
vt 0.726683 1.687500
vt 1.051440 1.875000
vt 0.917447 1.402000
vt 1.143840 1.143840
vt 1.409010 1.409010
vt 1.214950 1.630290
vt 1.402000 0.917448
vt 1.995460 0.574816
vt 2.138960 0.921271
vt 2.320600 0.464445
vt 2.417660 0.826667
vt 2.657370 0.397457
vt 3.000000 0.375000
vt 2.706320 0.769249
vt 3.000000 0.750000
vt 0.999381 0.630000
vt 1.535440 0.630000
vt 2.048160 0.630000
vt 2.528770 0.630000
vt 2.969050 0.630000
vt 0.375000 0.630000
vt 0.375000 0.000000
vt 0.750000 0.000000
vt 2.650210 0.630000
vt 2.209930 0.630000
vt 1.729310 0.630000
vt 1.216600 0.630000
vt 0.680541 0.630000
vt 0.130325 0.630000
vt -0.424639 0.630000
vt -0.974855 0.630000
vt -1.510910 0.630000
vt -2.023630 0.630000
vt -2.504240 0.630000
vt -2.944520 0.630000
vt 1.143840 1.143840
vt 0.917447 1.402000
vt 0.000000 0.000000
vt 0.000000 0.550000
vt 0.000000 0.000000
vt -3.000000 1.875000
vt -3.000000 0.750000
vt -1.875000 3.000000
vt -0.000000 0.000000
vt 3.000000 0.550000
vt -0.000000 0.550000
vt -3.000000 0.550000
vt -0.000000 -0.000000
vt -0.000000 0.550000
vt 3.000000 -0.000000
vt 2.320600 0.464445
vt 3.000000 0.375000
vt 2.657370 0.397457
vt 0.375000 3.000000
vt 0.000000 3.000000
vt 0.397457 2.657370
vt 0.464445 2.320600
vt 1.995460 0.574816
vt 0.574816 1.995460
vt 1.687500 0.726683
vt 1.402000 0.917448
vt 0.726683 1.687500
vt -3.000000 0.375000
vt -3.000000 -0.000000
vt -0.750000 3.000000
vt -0.000000 3.000000
vt -0.375000 3.000000
vt -3.000000 3.000000
vt 3.000000 0.000000
vt -3.000000 0.000000
vt 1.875000 0.000000
vt -1.875000 -0.000000
vt 2.437500 2.025720
vt 2.315140 2.107480
vt 1.875000 1.051440
vt 1.875000 0.455000
vt -1.875000 0.455000
vt 2.706320 0.769249
vt 3.000000 0.750000
vt 2.853160 1.884620
vt 3.000000 1.875000
vt 2.138960 0.921271
vt 2.417660 0.826667
vt 2.708830 1.913330
vt 1.630290 1.214950
vt 2.204500 2.204500
vt 1.214950 1.630290
vt 1.409010 1.409010
vt 2.107480 2.315140
vt 2.025720 2.437500
vt 0.921271 2.138960
vt 1.051440 1.875000
vt 1.960640 2.569480
vt 0.769249 2.706320
vt 0.826667 2.417660
vt 1.913330 2.708830
vt 1.875000 3.000000
vt 0.750000 3.000000
vt 1.884620 2.853160
vt 2.569480 1.960640
vt 3.000000 0.000000
vt 3.000000 0.455000
vt 3.000000 3.000000
vt -3.000000 0.455000
vt -3.000000 -0.000000
vn -0.6088 0.0000 0.7934
vn -0.7071 0.0000 0.7071
vn -0.0000 0.0000 -1.0000
vn -0.9914 0.0000 0.1305
vn -0.9979 0.0000 0.0654
vn -0.9659 0.0000 0.2588
vn -0.9239 0.0000 0.3827
vn -0.8660 0.0000 0.5000
vn -0.7934 0.0000 0.6088
vn 0.0000 1.0000 0.0000
vn -0.5000 0.0000 0.8660
vn -0.3827 0.0000 0.9239
vn -0.2588 0.0000 0.9659
vn -0.1305 0.0000 0.9914
vn -0.0654 0.0000 0.9979
vn 1.0000 0.0000 0.0000
vn 0.9979 0.0000 -0.0654
vn 0.9914 0.0000 -0.1305
vn 0.9659 0.0000 -0.2588
vn 0.9239 0.0000 -0.3827
vn 0.8660 0.0000 -0.5000
vn 0.7934 0.0000 -0.6088
vn 0.7071 0.0000 -0.7071
vn 0.6088 0.0000 -0.7934
vn 0.5000 0.0000 -0.8660
vn 0.3827 0.0000 -0.9239
vn 0.2588 0.0000 -0.9659
vn 0.1305 0.0000 -0.9914
vn 0.0654 0.0000 -0.9979
vn 0.0000 -1.0000 -0.0000
vn 0.0000 0.0000 1.0000
vn -1.0000 0.0000 0.0000
usemtl Stone.153
s 1
f 1/1/1 2/2/2 3/3/2
f 4/4/3 5/5/3 6/6/3
f 7/7/4 8/8/5 5/9/5
f 9/10/6 10/11/4 7/12/4
f 11/13/7 12/14/6 9/15/6
f 13/16/8 14/17/7 11/18/7
f 15/19/9 16/20/8 13/21/8
f 3/22/2 17/23/9 15/24/9
f 18/25/10 19/26/10 20/27/10
f 21/28/11 22/29/1 1/30/1
f 23/31/12 18/32/11 21/33/11
f 24/34/13 25/35/12 23/36/12
f 26/37/14 27/38/13 24/39/13
f 28/40/15 29/41/14 26/42/14
f 30/43/16 31/44/16 28/45/16
f 6/46/17 32/47/18 4/48/17
f 33/49/18 34/50/19 32/51/18
f 35/52/19 36/53/20 34/54/19
f 37/55/20 38/56/21 36/57/20
f 39/58/21 40/59/22 38/60/21
f 41/61/22 42/62/23 40/63/22
f 43/64/23 44/65/24 42/66/23
f 20/67/24 45/68/25 44/69/24
f 19/70/25 46/71/26 45/72/25
f 47/73/26 48/74/27 46/75/26
f 49/76/27 50/77/28 48/78/27
f 51/79/28 30/80/29 50/81/28
f 1/1/1 22/82/1 2/2/2
f 4/4/3 52/83/3 53/84/3
f 53/84/3 5/5/3 4/4/3
f 5/5/3 8/85/3 6/6/3
f 7/7/4 10/86/4 8/8/5
f 9/10/6 12/87/6 10/11/4
f 11/13/7 14/88/7 12/14/6
f 13/16/8 16/89/8 14/17/7
f 15/19/9 17/90/9 16/20/8
f 3/22/2 2/91/2 17/23/9
f 33/92/10 6/93/10 8/94/10
f 8/94/10 10/95/10 33/92/10
f 10/95/10 12/96/10 35/97/10
f 12/96/10 14/98/10 37/99/10
f 14/98/10 16/100/10 39/101/10
f 16/100/10 17/102/10 39/101/10
f 17/102/10 2/103/10 43/104/10
f 39/101/10 17/102/10 41/105/10
f 2/103/10 22/106/10 43/104/10
f 22/106/10 18/25/10 20/27/10
f 43/104/10 22/106/10 20/27/10
f 18/25/10 25/107/10 47/108/10
f 25/107/10 27/109/10 49/110/10
f 27/109/10 29/111/10 49/110/10
f 29/111/10 54/112/10 51/113/10
f 49/110/10 29/111/10 51/113/10
f 54/112/10 31/114/10 51/113/10
f 25/107/10 49/110/10 47/108/10
f 10/95/10 35/97/10 33/92/10
f 14/98/10 39/101/10 37/99/10
f 37/99/10 35/97/10 12/96/10
f 41/105/10 17/102/10 43/104/10
f 18/25/10 47/108/10 19/26/10
f 21/28/11 18/115/11 22/29/1
f 23/31/12 25/116/12 18/32/11
f 24/34/13 27/117/13 25/35/12
f 26/37/14 29/118/14 27/38/13
f 28/40/15 54/119/15 29/41/14
f 31/44/16 54/120/16 28/45/16
f 28/45/16 55/121/16 30/43/16
f 55/121/16 56/122/16 30/43/16
f 6/46/17 33/123/18 32/47/18
f 33/49/18 35/124/19 34/50/19
f 35/52/19 37/125/20 36/53/20
f 37/55/20 39/126/21 38/56/21
f 39/58/21 41/127/22 40/59/22
f 41/61/22 43/128/23 42/62/23
f 43/64/23 20/129/24 44/65/24
f 20/67/24 19/130/25 45/68/25
f 19/70/25 47/131/26 46/71/26
f 47/73/26 49/132/27 48/74/27
f 49/76/27 51/133/28 50/77/28
f 51/79/28 31/134/29 30/80/29
usemtl Grass.077
f 3/135/10 15/136/10 57/137/10
f 55/121/16 58/138/16 59/139/16
f 60/140/30 56/141/30 61/142/30
f 62/143/31 58/144/31 57/145/31
f 63/146/32 62/143/32 57/145/32
f 5/5/3 64/147/3 63/148/3
f 57/137/10 58/149/10 24/150/10
f 58/149/10 28/151/10 26/152/10
f 58/149/10 26/152/10 24/150/10
f 5/153/10 63/154/10 7/155/10
f 63/154/10 57/137/10 9/156/10
f 7/155/10 63/154/10 9/156/10
f 57/137/10 24/150/10 23/157/10
f 11/158/10 9/156/10 57/137/10
f 57/137/10 23/157/10 21/159/10
f 57/137/10 21/159/10 1/160/10
f 13/161/10 11/158/10 57/137/10
f 15/136/10 13/161/10 57/137/10
f 57/137/10 1/160/10 3/135/10
f 55/121/16 28/45/16 58/138/16
f 56/141/30 55/162/30 62/143/30
f 55/162/30 59/163/30 62/143/30
f 56/141/30 62/143/30 52/164/30
f 62/143/30 64/165/30 53/166/30
f 53/166/30 52/164/30 62/143/30
f 52/164/30 61/142/30 56/141/30
f 65/167/30 60/140/30 61/142/30
f 62/143/31 59/168/31 58/144/31
f 63/146/32 64/169/32 62/143/32
f 5/5/3 53/84/3 64/147/3
usemtl Sand.004
f 60/170/16 30/43/16 56/122/16
f 4/4/3 61/171/3 52/83/3
f 66/172/10 67/173/10 45/174/10
f 60/170/16 68/175/16 30/43/16
f 4/4/3 69/176/3 61/171/3
f 50/177/10 30/178/10 70/179/10
f 30/178/10 68/180/10 70/179/10
f 46/181/10 48/182/10 71/183/10
f 48/182/10 50/177/10 70/179/10
f 44/184/10 45/174/10 67/173/10
f 45/174/10 46/181/10 66/172/10
f 44/184/10 67/173/10 72/185/10
f 40/186/10 42/187/10 73/188/10
f 42/187/10 44/184/10 72/185/10
f 40/186/10 73/188/10 74/189/10
f 36/190/10 38/191/10 75/192/10
f 38/191/10 40/186/10 74/189/10
f 75/192/10 38/191/10 74/189/10
f 32/193/10 34/194/10 76/195/10
f 34/194/10 36/190/10 75/192/10
f 69/196/10 4/197/10 77/198/10
f 4/197/10 32/193/10 77/198/10
f 34/194/10 75/192/10 76/195/10
f 48/182/10 70/179/10 71/183/10
f 76/195/10 77/198/10 32/193/10
f 46/181/10 71/183/10 78/199/10
f 46/181/10 78/199/10 66/172/10
f 73/188/10 42/187/10 72/185/10
usemtl Water.030
f 68/175/16 65/200/16 79/201/16
f 71/183/10 70/179/10 79/202/10
f 61/171/3 79/203/3 65/204/3
f 68/175/16 60/170/16 65/200/16
f 68/180/10 79/202/10 70/179/10
f 79/202/10 69/196/10 77/198/10
f 76/195/10 79/202/10 77/198/10
f 76/195/10 75/192/10 79/202/10
f 75/192/10 74/189/10 79/202/10
f 74/189/10 73/188/10 79/202/10
f 73/188/10 72/185/10 79/202/10
f 72/185/10 67/173/10 79/202/10
f 67/173/10 66/172/10 79/202/10
f 66/172/10 78/199/10 79/202/10
f 78/199/10 71/183/10 79/202/10
f 61/171/3 69/176/3 79/203/3
