# Blender v2.79 (sub 7) OBJ File: ''
# www.blender.org
mtllib roadTile_227.mtl
o Mesh1_Group1_Model.110
v -1.500000 1.100000 1.500000
v 1.500000 1.100000 1.125000
v -1.500000 1.100000 1.125000
v -1.500000 0.470000 -0.750000
v -1.500000 0.470000 1.500000
v -1.500000 0.770000 -0.375000
v 0.218180 0.470000 -0.750000
v 0.218180 0.470000 1.500000
v 1.500000 0.000000 1.500000
v 1.500000 1.100000 1.500000
v 1.500000 0.000000 -0.750000
v -1.500000 1.100000 -0.750000
v 1.500000 0.770000 1.125000
v 1.500000 1.100000 -0.750000
v -1.500000 1.100000 -0.375000
v 1.500000 1.100000 -0.375000
v 1.500000 1.070000 -0.375000
v -1.500000 1.070000 -0.375000
v -1.500000 1.070000 1.125000
v 1.500000 1.070000 1.125000
v -1.500000 0.770000 1.125000
v 1.500000 0.770000 -0.375000
vt 0.000000 0.000000
vt 3.000000 0.375000
vt 0.000000 0.375000
vt -2.250000 0.470000
vt 0.000000 0.470000
vt -1.875000 0.770000
vt -0.000000 0.000000
vt -1.718180 2.250000
vt -1.718180 0.000000
vt 1.718180 0.470000
vt 3.000000 -0.000000
vt 3.000000 1.100000
vt -0.000000 -1.451360
vt -2.250000 -2.816630
vt -0.000000 -2.816630
vt -1.718180 0.470000
vt -0.000000 0.470000
vt -0.000000 1.100000
vt 0.000000 0.000000
vt 2.250000 0.000000
vt 0.375000 0.770000
vt 3.000000 2.250000
vt 0.000000 1.875000
vt 3.000000 1.875000
vt 3.000000 1.070000
vt 0.000000 1.100000
vt 0.000000 1.070000
vt -0.000000 1.070000
vt -3.000000 1.100000
vt -3.000000 1.070000
vt 3.000000 0.000000
vt -0.000000 1.100000
vt -0.375000 0.770000
vt -0.375000 1.100000
vt -0.375000 1.070000
vt -1.875000 1.100000
vt -2.250000 1.100000
vt -1.875000 1.070000
vt -0.000000 2.250000
vt -2.250000 -1.451360
vt -3.000000 1.100000
vt -3.000000 0.000000
vt 2.250000 1.100000
vt 1.875000 0.770000
vt 1.875000 1.100000
vt 1.875000 1.070000
vt 0.375000 1.100000
vt 0.000000 1.100000
vt 0.375000 1.070000
vt 0.000000 2.250000
vt 3.000000 1.100000
vt -0.000000 1.100000
vt 0.000000 1.875000
vt 3.000000 0.375000
vt 3.000000 1.875000
vt 0.000000 0.375000
vn 0.0000 1.0000 0.0000
vn -1.0000 0.0000 0.0000
vn 0.0000 -1.0000 -0.0000
vn -0.0000 0.0000 1.0000
vn -0.3443 -0.9389 -0.0000
vn -0.0000 0.0000 -1.0000
vn 1.0000 0.0000 0.0000
usemtl Stone.089
s 1
f 1/1/1 2/2/1 3/3/1
f 4/4/2 5/5/2 6/6/2
f 5/7/3 7/8/3 8/9/3
f 8/10/4 9/11/4 10/12/4
f 8/13/5 11/14/5 9/15/5
f 7/16/6 4/17/6 12/18/6
f 9/19/7 11/20/7 13/21/7
f 14/22/1 15/23/1 16/24/1
f 17/25/4 15/26/4 18/27/4
f 19/28/6 2/29/6 20/30/6
f 1/1/1 10/31/1 2/2/1
f 5/5/2 1/32/2 21/33/2
f 1/32/2 3/34/2 19/35/2
f 19/35/2 21/33/2 1/32/2
f 15/36/2 12/37/2 18/38/2
f 12/37/2 4/4/2 6/6/2
f 18/38/2 12/37/2 6/6/2
f 5/5/2 21/33/2 6/6/2
f 5/7/3 4/39/3 7/8/3
f 10/12/4 1/32/4 8/10/4
f 1/32/4 5/5/4 8/10/4
f 8/13/5 7/40/5 11/14/5
f 12/18/6 14/41/6 7/16/6
f 14/41/6 11/42/6 7/16/6
f 11/20/7 14/43/7 22/44/7
f 14/43/7 16/45/7 17/46/7
f 17/46/7 22/44/7 14/43/7
f 2/47/7 10/48/7 20/49/7
f 10/48/7 9/19/7 13/21/7
f 20/49/7 10/48/7 13/21/7
f 11/20/7 22/44/7 13/21/7
f 14/22/1 12/50/1 15/23/1
f 17/25/4 16/51/4 15/26/4
f 19/28/6 3/52/6 2/29/6
usemtl Asphalt.071
f 18/53/1 20/54/1 17/55/1
f 6/6/2 19/35/2 18/38/2
f 13/21/7 17/46/7 20/49/7
f 18/53/1 19/56/1 20/54/1
f 6/6/2 21/33/2 19/35/2
f 13/21/7 22/44/7 17/46/7
