# Blender v2.79 (sub 7) OBJ File: ''
# www.blender.org
mtllib roadTile_031.mtl
o Mesh1_Group1_Model.151
v 0.000000 0.000000 -1.500000
v 1.500000 0.000000 -1.500000
v 0.000000 0.000000 1.500000
v 0.000000 0.550000 1.500000
v 1.500000 0.000000 1.500000
v 1.500000 0.630000 1.500000
v -1.500000 0.630000 1.125000
v 0.000000 0.630000 1.500000
v 1.500000 0.630000 0.750000
v -1.500000 0.000000 -1.125000
v -1.500000 0.000000 1.125000
v -1.500000 0.300000 -0.750000
v -1.500000 0.600000 0.750000
v 1.500000 0.600000 0.750000
v 1.500000 0.600000 -0.750000
v -1.500000 0.630000 -0.750000
v -1.500000 0.600000 -0.750000
v 1.500000 0.300000 -0.750000
v 0.000000 0.550000 -1.500000
v 0.000000 0.630000 -1.500000
v 1.500000 0.630000 -1.500000
v -1.500000 0.550000 -1.125000
v -1.500000 0.630000 -1.125000
v 1.500000 0.630000 -0.750000
v -1.500000 0.550000 1.125000
v -1.500000 0.630000 0.750000
v -1.500000 0.300000 0.750000
v 1.500000 0.300000 0.750000
v -1.500000 0.000000 1.500000
v -1.500000 0.550000 1.500000
v -1.500000 0.000000 -1.500000
v -1.500000 0.550000 -1.500000
vt -1.500000 3.000000
vt -3.000000 3.000000
vt -1.500000 0.000000
vt 1.500000 0.550000
vt 3.000000 0.000000
vt 3.000000 0.630000
vt -0.090951 0.630000
vt 1.455210 0.550000
vt 1.455210 0.630000
vt 1.500000 0.000000
vt 3.000000 0.000000
vt 3.000000 0.750000
vt -2.625000 0.000000
vt -0.375000 0.000000
vt -2.250000 0.300000
vt -0.000000 0.600000
vt -3.000000 0.630000
vt -3.000000 0.600000
vt 3.000000 0.600000
vt 0.000000 0.630000
vt 0.000000 0.600000
vt -0.000000 0.000000
vt 3.000000 0.000000
vt 2.250000 0.300000
vt -1.500000 0.550000
vt -1.500000 0.630000
vt -3.000000 0.630000
vt -2.182820 0.630000
vt -0.636656 0.550000
vt -0.636656 0.630000
vt 1.500000 3.000000
vt 0.000000 2.250000
vt 3.000000 2.250000
vt -3.000000 0.000000
vt -0.000000 0.375000
vt -0.000000 2.625000
vt 1.500000 0.630000
vt 1.500000 0.000000
vt -0.090951 0.550000
vt 0.000000 0.750000
vt 0.000000 0.375000
vt -0.375000 0.550000
vt -0.750000 0.300000
vt -0.375000 0.630000
vt -0.750000 0.600000
vt -0.750000 0.630000
vt -2.625000 0.630000
vt -2.625000 0.550000
vt -2.250000 0.600000
vt -2.250000 0.630000
vt -0.000000 0.630000
vt 3.000000 0.630000
vt 0.750000 0.630000
vt -0.000000 0.630000
vt 0.750000 0.600000
vt 0.750000 0.300000
vt 3.000000 0.630000
vt 2.250000 0.630000
vt 2.250000 0.600000
vt -3.000000 0.000000
vt -1.500000 0.000000
vt -2.182820 0.550000
vt 3.000000 3.000000
vt 0.000000 2.625000
vt -0.000000 0.000000
vt -0.000000 0.550000
vt 0.000000 0.375000
vt 0.000000 0.000000
vt 1.500000 0.000000
vt -0.000000 0.000000
vt -0.000000 3.000000
vt -3.000000 0.550000
vt -3.000000 0.000000
vt 0.000000 3.000000
vt 0.000000 2.625000
vt 1.500000 3.000000
vt -0.000000 0.550000
vt 57.291901 0.000000
vt -3.580740 21.653500
vt -3.580740 0.000000
vt -25.065201 0.000000
vt -85.937798 21.653500
vt -85.937798 0.000000
vt 57.291901 21.653500
vt -25.065201 21.653500
vt 0.000000 2.250000
vt 3.000000 0.750000
vt 3.000000 2.250000
vt 0.000000 0.750000
vn 0.0000 -1.0000 -0.0000
vn -0.1228 -0.0000 0.9924
vn 0.0000 0.0000 1.0000
vn -0.2425 0.0000 0.9701
vn -0.1222 0.0000 0.9925
vn -0.0000 1.0000 0.0000
vn -1.0000 0.0000 0.0000
vn 0.0000 0.0000 -1.0000
vn 1.0000 0.0000 0.0000
vn -0.1224 0.0000 -0.9925
vn -0.1222 0.0000 -0.9925
vn -0.2425 0.0000 -0.9701
usemtl Stone.127
s 1
f 1/1/1 2/2/1 3/3/1
f 4/4/2 5/5/3 6/6/3
f 7/7/4 4/8/2 8/9/5
f 8/10/6 6/11/6 9/12/6
f 10/13/7 11/14/7 12/15/7
f 13/16/8 9/17/8 14/18/8
f 15/19/3 16/20/3 17/21/3
f 5/22/9 2/23/9 18/24/9
f 19/25/10 20/26/11 21/27/8
f 20/28/11 22/29/12 23/30/12
f 20/31/6 16/32/6 24/33/6
f 2/2/1 5/34/1 3/3/1
f 3/3/1 11/35/1 10/36/1
f 10/36/1 1/1/1 3/3/1
f 6/6/3 8/37/5 4/4/2
f 4/4/2 3/38/3 5/5/3
f 7/7/4 25/39/4 4/8/2
f 9/12/6 26/40/6 8/10/6
f 26/40/6 7/41/6 8/10/6
f 11/14/7 25/42/7 27/43/7
f 25/42/7 7/44/7 13/45/7
f 27/43/7 25/42/7 13/45/7
f 7/44/7 26/46/7 13/45/7
f 23/47/7 22/48/7 17/49/7
f 22/48/7 10/13/7 12/15/7
f 17/49/7 16/50/7 23/47/7
f 12/15/7 17/49/7 22/48/7
f 11/14/7 27/43/7 12/15/7
f 13/16/8 26/51/8 9/17/8
f 15/19/3 24/52/3 16/20/3
f 9/53/9 6/54/9 14/55/9
f 6/54/9 5/22/9 28/56/9
f 14/55/9 6/54/9 28/56/9
f 2/23/9 21/57/9 18/24/9
f 21/57/9 24/58/9 15/59/9
f 15/59/9 18/24/9 21/57/9
f 18/24/9 28/56/9 5/22/9
f 21/27/8 2/60/8 19/25/10
f 2/60/8 1/61/8 19/25/10
f 20/28/11 19/62/10 22/29/12
f 24/33/6 21/63/6 20/31/6
f 20/31/6 23/64/6 16/32/6
usemtl Grass.069
f 29/65/7 25/42/7 11/14/7
f 29/65/1 11/35/1 3/3/1
f 3/38/3 30/66/3 29/65/3
f 25/67/6 30/68/6 4/69/6
f 31/70/8 19/25/8 1/61/8
f 10/36/1 31/71/1 1/1/1
f 10/13/7 32/72/7 31/73/7
f 32/74/6 22/75/6 19/76/6
f 29/65/7 30/66/7 25/42/7
f 3/38/3 4/4/3 30/66/3
f 31/70/8 32/77/8 19/25/8
f 10/13/7 22/48/7 32/72/7
usemtl FrontColor.007
f 3/78/4 25/79/4 11/80/4
f 10/81/12 19/82/12 1/83/12
f 3/78/4 4/84/4 25/79/4
f 10/81/12 22/85/12 19/82/12
usemtl Asphalt.100
f 17/86/6 14/87/6 15/88/6
f 28/56/9 15/59/9 14/55/9
f 12/15/7 13/45/7 17/49/7
f 17/86/6 13/89/6 14/87/6
f 28/56/9 18/24/9 15/59/9
f 12/15/7 27/43/7 13/45/7
