# Blender v2.79 (sub 7) OBJ File: ''
# www.blender.org
mtllib roadTile_094.mtl
o Mesh1_Group1_Model.115
v -1.500000 0.630000 -1.500000
v -1.500000 0.630000 1.500000
v 0.000000 0.630000 0.375000
v 1.500000 0.000000 -1.500000
v 1.500000 0.570000 -0.375000
v 1.500000 0.570000 0.375000
v -1.500000 0.000000 1.500000
v 1.500000 0.000000 1.500000
v 1.500000 0.630000 1.500000
v 1.500000 0.630000 -1.500000
v 1.500000 0.630000 0.562500
v 0.000000 0.630000 0.562500
v 1.500000 0.630000 0.375000
v 1.500000 0.630000 -0.375000
v 0.000000 0.630000 -0.375000
v 1.500000 0.630000 -0.562500
v 0.000000 0.630000 -0.562500
v 1.500000 0.570000 0.562500
v 1.500000 0.570000 -0.562500
v -1.500000 0.000000 -1.500000
v 0.000000 0.570000 0.562500
v 0.000000 0.570000 -0.562500
v 0.000000 0.570000 -0.375000
v 0.000000 0.570000 0.375000
vt 0.000000 3.000000
vt 0.000000 0.000000
vt 1.500000 1.125000
vt 3.000000 -0.000000
vt 1.875000 0.570000
vt 1.125000 0.570000
vt -0.000000 0.000000
vt -3.000000 3.000000
vt -3.000000 -0.000000
vt 3.000000 0.630000
vt 0.000000 0.630000
vt -3.000000 0.630000
vt -3.000000 0.000000
vt -0.000000 0.630000
vt -3.000000 0.630000
vt 3.000000 0.000000
vt 3.000000 0.937500
vt 1.500000 0.937500
vt 3.000000 1.125000
vt 3.000000 1.875000
vt 1.500000 1.875000
vt 3.000000 2.062500
vt 3.000000 3.000000
vt 1.500000 2.062500
vt 0.000000 0.630000
vt -0.000000 -0.000000
vt 0.937500 0.570000
vt 3.000000 0.630000
vt 2.062500 0.570000
vt 2.062500 0.630000
vt 0.937500 0.630000
vt 1.875000 0.630000
vt 1.125000 0.630000
vt 0.000000 3.000000
vt 3.000000 0.000000
vt -3.000000 -0.000000
vt -0.000000 0.000000
vt -3.000000 0.630000
vt -1.500000 0.570000
vt -1.500000 0.630000
vt 1.500000 0.630000
vt 3.000000 0.570000
vt 3.000000 0.630000
vt 1.875000 0.630000
vt 2.062500 0.570000
vt 2.062500 0.630000
vt -3.000000 0.630000
vt -1.500000 0.570000
vt -1.500000 0.630000
vt 3.000000 2.062500
vt 1.500000 1.875000
vt 3.000000 1.875000
vt 1.500000 0.630000
vt 3.000000 0.570000
vt 3.000000 0.630000
vt 0.937500 0.630000
vt 1.125000 0.570000
vt 1.125000 0.630000
vt 1.500000 1.125000
vt 3.000000 0.937500
vt 3.000000 1.125000
vt -3.000000 0.570000
vt 1.500000 0.570000
vt 1.875000 0.570000
vt -3.000000 0.570000
vt 1.500000 2.062500
vt 1.500000 0.570000
vt 0.937500 0.570000
vt 1.500000 0.937500
vn -0.0000 1.0000 0.0000
vn 1.0000 0.0000 0.0000
vn 0.0000 -1.0000 -0.0000
vn 0.0000 0.0000 1.0000
vn -1.0000 0.0000 0.0000
vn 0.0000 0.0000 -1.0000
usemtl Stone.094
s 1
f 1/1/1 2/2/1 3/3/1
f 4/4/2 5/5/2 6/6/2
f 7/7/3 4/8/3 8/9/3
f 7/7/4 9/10/4 2/11/4
f 1/12/5 7/7/5 2/11/5
f 4/13/6 1/14/6 10/15/6
f 9/16/1 11/17/1 12/18/1
f 3/3/1 13/19/1 14/20/1
f 2/2/1 9/16/1 12/18/1
f 3/3/1 14/20/1 15/21/1
f 2/2/1 12/18/1 3/3/1
f 16/22/1 10/23/1 17/24/1
f 10/23/1 1/1/1 17/24/1
f 3/3/1 15/21/1 1/1/1
f 15/21/1 17/24/1 1/1/1
f 9/25/2 8/26/2 18/27/2
f 8/26/2 4/4/2 6/6/2
f 18/27/2 8/26/2 6/6/2
f 4/4/2 10/28/2 19/29/2
f 10/28/2 16/30/2 19/29/2
f 18/27/2 11/31/2 9/25/2
f 14/32/2 13/33/2 6/6/2
f 5/5/2 14/32/2 6/6/2
f 4/4/2 19/29/2 5/5/2
f 7/7/3 20/34/3 4/8/3
f 7/7/4 8/35/4 9/10/4
f 1/12/5 20/36/5 7/7/5
f 4/13/6 20/37/6 1/14/6
usemtl Grey_Asphalt.007
f 11/38/6 21/39/6 12/40/6
f 17/41/4 19/42/4 16/43/4
f 15/44/2 22/45/2 17/46/2
f 14/47/6 23/48/6 15/49/6
f 19/50/1 23/51/1 5/52/1
f 3/53/4 6/54/4 13/55/4
f 12/56/2 24/57/2 3/58/2
f 24/59/1 18/60/1 6/61/1
f 11/38/6 18/62/6 21/39/6
f 17/41/4 22/63/4 19/42/4
f 15/44/2 23/64/2 22/45/2
f 14/47/6 5/65/6 23/48/6
f 19/50/1 22/66/1 23/51/1
f 3/53/4 24/67/4 6/54/4
f 12/56/2 21/68/2 24/57/2
f 24/59/1 21/69/1 18/60/1
