# Blender v2.79 (sub 7) OBJ File: ''
# www.blender.org
mtllib roadTile_274.mtl
o Mesh1_Group1_Model.285
v 1.125000 1.650000 -1.406250
v 1.125000 0.000000 -1.406250
v 1.125000 0.000000 -0.843750
v 1.125000 1.650000 -0.843750
v 1.875000 0.000000 -1.406250
v 1.875000 1.650000 -1.406250
v 1.875000 0.000000 -0.843750
v 1.875000 1.650000 -0.843750
v 3.000000 1.650000 -2.250000
v 0.000000 1.650000 -2.250000
v 0.000000 1.650000 0.000000
v 3.000000 1.650000 0.000000
v 3.000000 2.280000 -2.250000
v 3.000000 2.280000 -1.875000
v 3.000000 2.250000 -1.875000
v 3.000000 1.950000 -1.875000
v 3.000000 1.950000 -0.375000
v 3.000000 2.250000 -0.375000
v 3.000000 2.280000 -0.375000
v 3.000000 2.280000 0.000000
v 0.000000 2.280000 -2.250000
v 0.000000 2.280000 0.000000
v 0.000000 2.280000 -0.375000
v 0.000000 2.250000 -0.375000
v 0.000000 1.950000 -0.375000
v 0.000000 1.950000 -1.875000
v 0.000000 2.250000 -1.875000
v 0.000000 2.280000 -1.875000
vt -1.406250 0.000000
vt -0.843750 1.650000
vt -1.406250 1.650000
vt -1.125000 -0.000000
vt -1.875000 1.650000
vt -1.875000 -0.000000
vt -1.125000 1.406250
vt -1.875000 0.843750
vt -1.125000 0.843750
vt 0.843750 0.000000
vt 1.406250 1.650000
vt 0.843750 1.650000
vt 1.875000 0.000000
vt 1.125000 1.650000
vt 1.125000 0.000000
vt -1.875000 1.406250
vt -1.125000 0.843750
vt -1.125000 1.406250
vt -3.000000 2.250000
vt -0.000000 2.250000
vt -0.000000 -0.000000
vt -3.000000 0.000000
vt -1.875000 0.843750
vt 1.875000 1.950000
vt 0.375000 1.950000
vt 0.000000 1.650000
vt -3.000000 1.650000
vt -0.000000 2.280000
vt -3.000000 2.280000
vt -0.375000 1.950000
vt -1.875000 1.950000
vt -2.250000 1.650000
vt 0.000000 2.280000
vt 3.000000 1.650000
vt 3.000000 2.280000
vt 0.000000 0.000000
vt 3.000000 0.375000
vt 0.000000 0.375000
vt -0.000000 2.250000
vt -3.000000 2.280000
vt -3.000000 2.250000
vt 3.000000 2.250000
vt 0.000000 2.280000
vt 0.000000 2.250000
vt 3.000000 2.250000
vt 0.000000 1.875000
vt 3.000000 1.875000
vt -0.843750 0.000000
vt -1.125000 1.650000
vt -1.875000 1.406250
vt 1.406250 0.000000
vt 1.875000 1.650000
vt 2.250000 1.650000
vt 2.250000 2.280000
vt 1.875000 2.280000
vt 1.875000 2.250000
vt 0.375000 2.280000
vt 0.000000 2.280000
vt 0.375000 2.250000
vt -0.000000 1.650000
vt 0.000000 1.650000
vt -0.375000 2.280000
vt -0.375000 2.250000
vt -1.875000 2.280000
vt -2.250000 2.280000
vt -1.875000 2.250000
vt 3.000000 0.000000
vt -0.000000 2.280000
vt 3.000000 2.280000
vt 0.000000 2.250000
vt 3.000000 0.375000
vt 0.000000 1.875000
vt 0.000000 0.375000
vt 3.000000 1.875000
vn -1.0000 -0.0000 0.0000
vn 0.0000 0.0000 -1.0000
vn 0.0000 -1.0000 -0.0000
vn 1.0000 0.0000 0.0000
vn 0.0000 -0.0000 1.0000
vn 0.0000 1.0000 0.0000
usemtl Stone.243
s 1
f 2/1/1 4/2/1 1/3/1
f 2/4/2 6/5/2 5/6/2
f 2/7/3 7/8/3 3/9/3
f 7/10/4 6/11/4 8/12/4
f 7/13/5 4/14/5 3/15/5
f 6/16/3 4/17/3 1/18/3
f 1/18/3 9/19/3 6/16/3
f 1/18/3 10/20/3 9/19/3
f 10/20/3 1/18/3 11/21/3
f 11/21/3 1/18/3 4/17/3
f 4/17/3 12/22/3 11/21/3
f 12/22/3 4/17/3 8/23/3
f 12/22/3 8/23/3 6/16/3
f 12/22/3 6/16/3 9/19/3
f 16/24/4 17/25/4 12/26/4
f 9/27/2 21/28/2 13/29/2
f 25/30/1 26/31/1 10/32/1
f 22/33/5 12/34/5 20/35/5
f 22/36/6 19/37/6 23/38/6
f 24/39/2 19/40/2 18/41/2
f 15/42/5 28/43/5 27/44/5
f 13/45/6 28/46/6 14/47/6
f 2/1/1 3/48/1 4/2/1
f 2/4/2 1/49/2 6/5/2
f 2/7/3 5/50/3 7/8/3
f 7/10/4 5/51/4 6/11/4
f 7/13/5 8/52/5 4/14/5
f 6/16/3 8/23/3 4/17/3
f 9/53/4 13/54/4 16/24/4
f 13/54/4 14/55/4 15/56/4
f 15/56/4 16/24/4 13/54/4
f 19/57/4 20/58/4 18/59/4
f 20/58/4 12/26/4 17/25/4
f 18/59/4 20/58/4 17/25/4
f 9/53/4 16/24/4 12/26/4
f 9/27/2 10/60/2 21/28/2
f 11/61/1 22/33/1 25/30/1
f 22/33/1 23/62/1 24/63/1
f 24/63/1 25/30/1 22/33/1
f 28/64/1 21/65/1 27/66/1
f 21/65/1 10/32/1 26/31/1
f 27/66/1 21/65/1 26/31/1
f 11/61/1 25/30/1 10/32/1
f 22/33/5 11/61/5 12/34/5
f 22/36/6 20/67/6 19/37/6
f 24/39/2 23/68/2 19/40/2
f 15/42/5 14/69/5 28/43/5
f 13/45/6 21/70/6 28/46/6
usemtl Asphalt.198
f 18/71/6 27/72/6 24/73/6
f 17/25/4 15/56/4 18/59/4
f 25/30/1 27/66/1 26/31/1
f 18/71/6 15/74/6 27/72/6
f 17/25/4 16/24/4 15/56/4
f 25/30/1 24/63/1 27/66/1
