# Blender v2.79 (sub 7) OBJ File: ''
# www.blender.org
mtllib roadTile_232.mtl
o Mesh1_Group1_Model.219
v 0.000000 1.150000 -1.875000
v 3.000000 0.600000 -1.875000
v 3.000000 0.630000 -1.875000
v 0.000000 1.180000 -1.875000
v 0.000000 0.000000 -2.250000
v 0.000000 0.000000 0.000000
v 0.000000 1.180000 0.000000
v 0.000000 1.180000 -0.375000
v 0.000000 1.150000 -0.375000
v 0.000000 0.850000 -0.375000
v 0.000000 0.850000 -1.875000
v 0.000000 1.180000 -2.250000
v 3.000000 0.000000 0.000000
v 3.000000 0.000000 -2.250000
v 3.000000 0.630000 0.000000
v 3.000000 0.630000 -0.375000
v 3.000000 0.630000 -2.250000
v 3.000000 0.300000 -1.875000
v 3.000000 0.300000 -0.375000
v 3.000000 0.600000 -0.375000
vt 0.000000 1.150000
vt 3.000000 0.630000
vt 0.000000 1.180000
vt -2.250000 0.000000
vt 0.000000 0.000000
vt -1.875000 0.850000
vt -3.000000 2.250000
vt -3.000000 0.000000
vt 3.000000 0.630000
vt -0.000000 1.180000
vt 0.000000 0.000000
vt 2.250000 0.000000
vt 1.875000 0.300000
vt 0.000000 0.212787
vt 0.375000 -2.837210
vt 0.375000 0.212787
vt -0.000000 1.150000
vt -3.000000 0.630000
vt -3.000000 0.600000
vt -3.000000 0.630000
vt -0.000000 0.000000
vt -0.000000 1.180000
vt 2.250000 -2.837210
vt 1.875000 0.212787
vt 1.875000 -2.837210
vt 3.000000 0.600000
vt -0.375000 0.850000
vt -0.375000 1.180000
vt -0.375000 1.150000
vt -1.875000 1.180000
vt -2.250000 1.180000
vt -1.875000 1.150000
vt -0.000000 2.250000
vt 3.000000 0.000000
vt 0.375000 0.600000
vt 0.375000 0.630000
vt 0.000000 0.630000
vt 2.250000 0.630000
vt 1.875000 0.630000
vt 1.875000 0.600000
vt 0.375000 0.300000
vt 0.000000 -2.837210
vt -0.000000 1.180000
vt -3.000000 0.000000
vt 2.250000 0.212787
vt 1.875000 0.207377
vt 0.375000 -2.842620
vt 1.875000 -2.842620
vt 0.375000 0.207377
vn 0.0000 0.0000 1.0000
vn -1.0000 0.0000 0.0000
vn 0.0000 -1.0000 -0.0000
vn 1.0000 0.0000 0.0000
vn 0.1803 0.9836 0.0000
vn 0.0000 0.0000 -1.0000
usemtl Stone.191
s 1
f 1/1/1 3/2/1 4/3/1
f 5/4/2 6/5/2 11/6/2
f 6/5/3 14/7/3 13/8/3
f 6/5/1 15/9/1 7/10/1
f 13/11/4 14/12/4 18/13/4
f 7/14/5 16/15/5 8/16/5
f 9/17/6 16/18/6 20/19/6
f 17/20/6 5/21/6 12/22/6
f 17/23/5 4/24/5 3/25/5
f 1/1/1 2/26/1 3/2/1
f 6/5/2 7/10/2 10/27/2
f 7/10/2 8/28/2 9/29/2
f 9/29/2 10/27/2 7/10/2
f 4/30/2 12/31/2 1/32/2
f 12/31/2 5/4/2 11/6/2
f 1/32/2 12/31/2 11/6/2
f 6/5/2 10/27/2 11/6/2
f 6/5/3 5/33/3 14/7/3
f 6/5/1 13/34/1 15/9/1
f 20/35/4 16/36/4 15/37/4
f 14/12/4 17/38/4 18/13/4
f 17/38/4 3/39/4 2/40/4
f 2/40/4 18/13/4 17/38/4
f 20/35/4 15/37/4 19/41/4
f 15/37/4 13/11/4 19/41/4
f 18/13/4 19/41/4 13/11/4
f 7/14/5 15/42/5 16/15/5
f 9/17/6 8/43/6 16/18/6
f 17/20/6 14/44/6 5/21/6
f 17/23/5 12/45/5 4/24/5
usemtl Asphalt.157
f 1/46/5 20/47/5 2/48/5
f 11/6/2 9/29/2 1/32/2
f 20/35/4 18/13/4 2/40/4
f 1/46/5 9/49/5 20/47/5
f 11/6/2 10/27/2 9/29/2
f 20/35/4 19/41/4 18/13/4
