# Blender v2.79 (sub 7) OBJ File: ''
# www.blender.org
mtllib roadTile_045.mtl
o Mesh1_Group1_Model.209
v 0.750000 1.730000 -0.750000
v 0.750000 0.600000 -0.750000
v 0.750000 0.600000 -3.000000
v 0.750000 1.730000 -3.000000
v 3.000000 0.600000 -0.750000
v 3.000000 1.730000 -0.750000
v 3.000000 1.730000 -0.375000
v 3.000000 1.650000 -0.375000
v 3.000000 0.000000 -0.375000
v 3.000000 0.000000 -3.000000
v 3.000000 0.300000 -3.000000
v 3.000000 0.300000 -0.750000
v 0.375000 1.730000 -3.000000
v 0.375000 1.730000 -0.375000
v 0.375000 0.000000 -3.000000
v 0.375000 1.650000 -3.000000
v 0.750000 0.300000 -3.000000
v 0.375000 1.650000 -0.375000
v 3.000000 0.600000 -3.000000
v 3.000000 0.000000 0.000000
v 0.000000 0.000000 0.000000
v 0.000000 0.000000 -3.000000
v 3.000000 1.650000 0.000000
v 0.000000 1.650000 -3.000000
v 0.000000 1.650000 0.000000
vt 0.750000 0.600000
vt 3.000000 1.730000
vt 0.750000 1.730000
vt -0.750000 0.600000
vt -3.000000 1.730000
vt -3.000000 0.600000
vt 0.375000 0.000000
vt 3.000000 0.000000
vt 0.750000 0.300000
vt 0.750000 0.750000
vt 0.375000 3.000000
vt 0.375000 0.375000
vt -0.375000 0.000000
vt -0.375000 1.650000
vt -0.750000 0.600000
vt 0.375000 1.730000
vt 3.000000 1.650000
vt 3.000000 1.730000
vt -3.000000 1.730000
vt -0.375000 1.650000
vt -0.375000 1.730000
vt 3.000000 0.600000
vt -0.750000 1.730000
vt 0.750000 0.600000
vt 0.750000 1.730000
vt 0.375000 1.650000
vt 0.375000 1.730000
vt 3.000000 0.300000
vt 0.750000 3.000000
vt 3.000000 0.375000
vt 3.000000 0.750000
vt -3.000000 0.300000
vt -3.000000 0.000000
vt -0.750000 0.300000
vt -0.375000 1.730000
vt -0.750000 1.730000
vt 0.375000 1.650000
vt -3.000000 1.650000
vt 0.750000 3.000000
vt 3.000000 0.750000
vt 3.000000 3.000000
vt -3.000000 0.600000
vt 3.000000 0.600000
vt 0.750000 0.750000
vt -0.000000 0.000000
vt -0.000000 3.000000
vt -0.375000 3.000000
vt 0.000000 1.650000
vt 0.000000 0.000000
vt 0.375000 0.375000
vt 0.000000 3.000000
vt 0.000000 0.000000
vt -0.000000 0.000000
vt -0.000000 1.650000
vt -0.000000 1.650000
vt -3.000000 0.000000
vt 3.000000 1.650000
vt -3.000000 3.000000
vt -3.000000 0.375000
vt -3.000000 -0.000000
vt 3.000000 0.000000
vt 3.000000 0.375000
vt 0.375000 3.000000
vt -3.000000 1.650000
vt 3.000000 0.000000
vn 1.0000 0.0000 0.0000
vn 0.0000 0.0000 -1.0000
vn 0.0000 1.0000 -0.0000
vn 0.0000 -0.0000 1.0000
vn -1.0000 -0.0000 0.0000
vn -0.0000 -1.0000 -0.0000
usemtl Stone.182
s 1
f 2/1/1 4/2/1 1/3/1
f 2/4/2 6/5/2 5/6/2
f 9/7/1 10/8/1 12/9/1
f 1/10/3 13/11/3 14/12/3
f 15/13/2 16/14/2 3/15/2
f 14/16/4 8/17/4 7/18/4
f 13/19/5 18/20/5 14/21/5
f 2/1/1 3/22/1 4/2/1
f 2/4/2 1/23/2 6/5/2
f 5/24/1 6/25/1 8/26/1
f 6/25/1 7/27/1 8/26/1
f 8/26/1 9/7/1 5/24/1
f 5/24/1 9/7/1 12/9/1
f 10/8/1 11/28/1 12/9/1
f 1/10/3 4/29/3 13/11/3
f 14/12/3 7/30/3 1/10/3
f 7/30/3 6/31/3 1/10/3
f 11/32/2 10/33/2 17/34/2
f 10/33/2 15/13/2 17/34/2
f 16/14/2 13/35/2 4/36/2
f 4/36/2 3/15/2 16/14/2
f 3/15/2 17/34/2 15/13/2
f 14/16/4 18/37/4 8/17/4
f 13/19/5 16/38/5 18/20/5
usemtl Asphalt.151
f 3/39/3 5/40/3 19/41/3
f 11/32/2 3/15/2 19/42/2
f 12/9/1 19/43/1 5/24/1
f 3/39/3 2/44/3 5/40/3
f 11/32/2 17/34/2 3/15/2
f 12/9/1 11/28/1 19/43/1
usemtl Grass.088
f 21/45/6 22/46/6 15/47/6
f 9/7/1 23/48/1 20/49/1
f 18/50/3 24/51/3 25/52/3
f 16/14/2 22/53/2 24/54/2
f 25/55/5 22/56/5 21/45/5
f 21/45/4 23/57/4 25/55/4
f 10/58/6 9/59/6 15/47/6
f 9/59/6 20/60/6 21/45/6
f 15/47/6 9/59/6 21/45/6
f 9/7/1 8/26/1 23/48/1
f 23/61/3 8/62/3 18/50/3
f 18/50/3 16/63/3 24/51/3
f 25/52/3 23/61/3 18/50/3
f 16/14/2 15/13/2 22/53/2
f 25/55/5 24/64/5 22/56/5
f 21/45/4 20/65/4 23/57/4
