# Blender v2.79 (sub 7) OBJ File: ''
# www.blender.org
mtllib roadTile_225.mtl
o Mesh1_Group1_Model.258
v -1.500000 1.730000 -0.375000
v -1.500000 1.400000 1.125000
v -1.500000 1.730000 1.125000
v 1.500000 0.600000 1.125000
v 1.500000 0.300000 1.125000
v 1.500000 0.600000 -0.375000
v -1.500000 1.400000 -0.375000
v 1.500000 0.300000 -0.375000
v 1.500000 1.730000 1.125000
v 1.500000 0.000000 1.500000
v 1.500000 0.000000 -0.750000
v -1.500000 0.000000 -0.750000
v -1.500000 1.730000 1.500000
v 1.500000 1.730000 1.500000
v -1.500000 0.000000 1.500000
v 1.500000 1.730000 -0.750000
v 1.500000 1.730000 -0.375000
v -1.500000 1.730000 -0.750000
vt -1.875000 1.730000
vt -0.375000 1.400000
vt -0.375000 1.730000
vt 0.375000 -2.595950
vt 1.875000 0.609809
vt 0.375000 0.609809
vt 0.375000 0.300000
vt 1.875000 0.600000
vt 0.375000 0.600000
vt -1.875000 1.400000
vt 1.875000 -2.595950
vt 1.875000 0.300000
vt -3.000000 1.730000
vt -3.000000 0.600000
vt -0.000000 1.730000
vt 0.000000 0.000000
vt 2.250000 0.000000
vt -3.000000 0.000000
vt -0.000000 2.250000
vt -3.000000 2.250000
vt 0.000000 1.730000
vt 3.000000 0.000000
vt 3.000000 1.730000
vt 0.000000 0.000000
vt 3.000000 0.375000
vt 0.000000 0.375000
vt -2.250000 0.000000
vt 0.000000 -0.000000
vt 3.000000 2.250000
vt 0.000000 1.875000
vt 3.000000 1.875000
vt -3.000000 1.730000
vt -0.000000 0.000000
vt -0.000000 1.730000
vt 3.000000 1.730000
vt 0.000000 1.730000
vt 3.000000 0.600000
vt 2.250000 1.730000
vt 1.875000 1.730000
vt 0.375000 1.730000
vt 0.000000 1.730000
vt 3.000000 0.000000
vt -2.250000 1.730000
vt 0.000000 2.250000
vt -3.000000 0.000000
vn -1.0000 -0.0000 0.0000
vn 0.3525 0.9358 0.0000
vn 1.0000 0.0000 0.0000
vn 0.0000 0.0000 -1.0000
vn 0.0000 -1.0000 -0.0000
vn 0.0000 -0.0000 1.0000
vn 0.0000 1.0000 0.0000
usemtl Asphalt.176
s 1
f 1/1/1 2/2/1 3/3/1
f 4/4/2 1/5/2 3/6/2
f 5/7/3 6/8/3 4/9/3
f 1/1/1 7/10/1 2/2/1
f 4/4/2 6/11/2 1/5/2
f 5/7/3 8/12/3 6/8/3
usemtl Stone.219
f 9/13/4 4/14/4 3/15/4
f 10/16/3 11/17/3 5/7/3
f 10/18/5 12/19/5 11/20/5
f 13/21/6 10/22/6 14/23/6
f 13/24/7 9/25/7 3/26/7
f 12/27/1 15/28/1 7/10/1
f 16/29/7 1/30/7 17/31/7
f 16/32/4 12/33/4 18/34/4
f 17/35/6 1/36/6 6/37/6
f 11/17/3 16/38/3 6/8/3
f 16/38/3 17/39/3 6/8/3
f 6/8/3 8/12/3 11/17/3
f 9/40/3 14/41/3 4/9/3
f 14/41/3 10/16/3 4/9/3
f 5/7/3 4/9/3 10/16/3
f 11/17/3 8/12/3 5/7/3
f 10/18/5 15/28/5 12/19/5
f 13/21/6 15/28/6 10/22/6
f 13/24/7 14/42/7 9/25/7
f 15/28/1 13/21/1 2/2/1
f 13/21/1 3/3/1 2/2/1
f 1/1/1 18/43/1 7/10/1
f 18/43/1 12/27/1 7/10/1
f 15/28/1 2/2/1 7/10/1
f 16/29/7 18/44/7 1/30/7
f 16/32/4 11/45/4 12/33/4
