# Blender v2.79 (sub 7) OBJ File: ''
# www.blender.org
mtllib roadTile_228.mtl
o Mesh1_Group1_Model.263
v 3.000000 1.260000 0.000000
v 0.000000 1.260000 0.000000
v 0.000000 0.000000 0.000000
v 3.000000 0.000000 0.000000
v 0.000000 1.260000 -0.375000
v 3.000000 1.260000 -0.375000
v 0.000000 0.000000 -2.250000
v 0.000000 0.600000 -0.375000
v 0.000000 0.300000 -0.375000
v 0.000000 0.300000 -1.875000
v 0.000000 0.600000 -1.875000
v 0.000000 1.260000 -1.875000
v 0.000000 1.260000 -2.250000
v 3.000000 0.000000 -2.250000
v 3.000000 1.260000 -2.250000
v 3.000000 1.260000 -1.875000
v 3.000000 0.600000 -1.875000
v 3.000000 0.300000 -1.875000
v 3.000000 0.300000 -0.375000
v 3.000000 0.600000 -0.375000
vt 0.000000 1.260000
vt 3.000000 0.000000
vt 3.000000 1.260000
vt 0.000000 0.000000
vt 3.000000 0.375000
vt 0.000000 0.375000
vt -2.250000 0.000000
vt 0.000000 0.000000
vt -1.875000 0.300000
vt -3.000000 0.000000
vt -0.000000 2.250000
vt -3.000000 2.250000
vt 0.000000 0.000000
vt 2.250000 0.000000
vt 0.375000 0.300000
vt -3.000000 1.260000
vt -0.000000 -0.000000
vt -0.000000 1.260000
vt 3.000000 2.250000
vt 0.000000 1.875000
vt 3.000000 1.875000
vt 3.000000 0.600000
vt 0.000000 1.260000
vt 0.000000 0.600000
vt -0.000000 0.600000
vt -3.000000 1.260000
vt -3.000000 0.600000
vt 3.000000 0.000000
vt -0.375000 0.600000
vt -0.375000 1.260000
vt -0.375000 0.300000
vt -1.875000 1.260000
vt -2.250000 1.260000
vt -1.875000 0.600000
vt 2.250000 1.260000
vt 1.875000 0.600000
vt 1.875000 1.260000
vt 1.875000 0.300000
vt 0.375000 1.260000
vt 0.000000 1.260000
vt 0.375000 0.600000
vt -3.000000 -0.000000
vt 0.000000 2.250000
vt 3.000000 1.260000
vt -0.000000 1.260000
vt 0.000000 1.875000
vt 3.000000 0.375000
vt 3.000000 1.875000
vt 0.000000 0.375000
vn 0.0000 -0.0000 1.0000
vn 0.0000 1.0000 0.0000
vn -1.0000 0.0000 0.0000
vn 0.0000 -1.0000 -0.0000
vn 1.0000 -0.0000 0.0000
vn 0.0000 0.0000 -1.0000
usemtl Stone.223
s 1
f 2/1/1 4/2/1 1/3/1
f 2/4/2 6/5/2 5/6/2
f 7/7/3 3/8/3 10/9/3
f 4/10/4 7/11/4 14/12/4
f 4/13/5 14/14/5 19/15/5
f 15/16/6 7/17/6 13/18/6
f 15/19/2 12/20/2 16/21/2
f 17/22/1 12/23/1 11/24/1
f 8/25/6 6/26/6 20/27/6
f 2/1/1 3/8/1 4/2/1
f 2/4/2 1/28/2 6/5/2
f 3/8/3 2/1/3 8/29/3
f 2/1/3 5/30/3 8/29/3
f 8/29/3 9/31/3 3/8/3
f 12/32/3 13/33/3 11/34/3
f 13/33/3 7/7/3 11/34/3
f 10/9/3 11/34/3 7/7/3
f 3/8/3 9/31/3 10/9/3
f 4/10/4 3/8/4 7/11/4
f 14/14/5 15/35/5 17/36/5
f 15/35/5 16/37/5 17/36/5
f 17/36/5 18/38/5 14/14/5
f 6/39/5 1/40/5 20/41/5
f 1/40/5 4/13/5 20/41/5
f 19/15/5 20/41/5 4/13/5
f 14/14/5 18/38/5 19/15/5
f 15/16/6 14/42/6 7/17/6
f 15/19/2 13/43/2 12/20/2
f 17/22/1 16/44/1 12/23/1
f 8/25/6 5/45/6 6/26/6
usemtl Asphalt.180
f 11/46/2 20/47/2 17/48/2
f 10/9/3 8/29/3 11/34/3
f 19/15/5 17/36/5 20/41/5
f 11/46/2 8/49/2 20/47/2
f 10/9/3 9/31/3 8/29/3
f 19/15/5 18/38/5 17/36/5
