# Blender v2.79 (sub 7) OBJ File: ''
# www.blender.org
mtllib roadTile_266.mtl
o Mesh1_Group1_Model.173
v 3.000000 0.000000 0.000000
v 3.000000 0.000000 -3.000000
v 3.000000 0.630000 -3.000000
v 3.000000 0.630000 -1.875000
v 3.000000 0.600000 -1.875000
v 3.000000 0.300000 -1.875000
v 3.000000 0.300000 -1.125000
v 3.000000 0.600000 -1.125000
v 3.000000 0.630000 -1.125000
v 3.000000 0.630000 0.000000
v 0.000000 0.000000 -3.000000
v 0.000000 0.000000 0.000000
v 1.125000 0.630000 -3.000000
v 1.125000 0.600000 -3.000000
v 1.125000 0.315000 -3.000000
v 1.875000 0.315000 -3.000000
v 1.875000 0.600000 -3.000000
v 1.875000 0.630000 -3.000000
v 0.000000 0.630000 -3.000000
v 1.125000 0.630000 -1.875000
v 1.125000 0.600000 -1.875000
v 0.000000 0.630000 -1.875000
v 0.000000 0.600000 -1.875000
v 0.000000 0.630000 0.000000
v 0.000000 0.630000 -1.125000
v 0.000000 0.600000 -1.125000
v 0.000000 0.300000 -1.125000
v 0.000000 0.300000 -1.875000
v 1.875000 0.630000 0.000000
v 1.875000 0.600000 0.000000
v 1.875000 0.315000 0.000000
v 1.125000 0.315000 0.000000
v 1.125000 0.600000 0.000000
v 1.125000 0.630000 0.000000
v 1.875000 0.630000 -1.125000
v 1.875000 0.600000 -1.125000
v 1.875000 0.630000 -1.875000
v 1.875000 0.600000 -1.875000
v 1.125000 0.630000 -1.125000
v 1.125000 0.600000 -1.125000
vt 0.000000 0.000000
vt 3.000000 0.000000
vt 1.125000 0.300000
vt -3.000000 3.000000
vt 0.000000 0.000000
vt 0.000000 3.000000
vt -1.875000 0.315000
vt -3.000000 -0.000000
vt -0.000000 -0.000000
vt 1.875000 0.630000
vt 3.000000 0.600000
vt 3.000000 0.630000
vt 1.125000 1.875000
vt 0.000000 3.000000
vt 0.000000 1.875000
vt 0.000000 0.630000
vt 1.125000 0.600000
vt 1.125000 0.630000
vt -1.125000 0.300000
vt -1.875000 0.300000
vt -3.000000 0.000000
vt 1.125000 0.315000
vt 3.000000 0.000000
vt -1.125000 0.630000
vt 0.000000 0.600000
vt 0.000000 0.630000
vt 1.875000 1.125000
vt 3.000000 0.000000
vt 3.000000 1.125000
vt -3.000000 0.630000
vt -1.875000 0.600000
vt -1.875000 0.630000
vt 1.875000 0.630000
vt 3.000000 0.600000
vt 3.000000 0.630000
vt 1.875000 3.000000
vt 3.000000 1.875000
vt 3.000000 3.000000
vt -3.000000 0.630000
vt -1.875000 0.600000
vt -1.875000 0.630000
vt -1.125000 0.630000
vt 0.000000 0.600000
vt 0.000000 0.630000
vt 1.125000 0.000000
vt 0.000000 1.125000
vt 0.000000 0.000000
vt -0.000000 0.630000
vt 1.125000 0.600000
vt 1.125000 0.630000
vt 3.000000 0.630000
vt 1.875000 0.300000
vt 1.875000 0.630000
vt 1.875000 0.600000
vt 1.125000 0.630000
vt 0.000000 0.630000
vt 1.125000 0.600000
vt -3.000000 0.000000
vt -0.000000 0.630000
vt -1.125000 0.630000
vt -1.125000 0.600000
vt -1.125000 0.315000
vt -1.875000 0.630000
vt -3.000000 0.630000
vt -1.875000 0.600000
vt 1.875000 0.600000
vt 1.125000 3.000000
vt 0.000000 0.600000
vt -0.000000 0.630000
vt -1.125000 0.630000
vt -1.125000 0.600000
vt -1.875000 0.630000
vt -3.000000 0.630000
vt -1.875000 0.600000
vt 3.000000 0.630000
vt 1.875000 0.630000
vt 1.875000 0.600000
vt 1.875000 0.315000
vt 1.125000 0.630000
vt 1.125000 0.600000
vt -1.125000 0.600000
vt 1.875000 0.000000
vt -3.000000 0.600000
vt 1.875000 0.600000
vt 1.875000 1.875000
vt -3.000000 0.600000
vt -1.125000 0.600000
vt 1.125000 1.125000
vt -0.000000 0.600000
vt 1.125000 1.875000
vt 1.125000 1.125000
vt 1.875000 1.125000
vt 3.000000 1.125000
vt 3.000000 1.875000
vt 1.875000 1.875000
vt 1.875000 3.000000
vt 1.125000 3.000000
vt -0.000000 1.875000
vt -0.000000 1.125000
vt 1.125000 0.000000
vt 1.875000 0.000000
vn 1.0000 0.0000 0.0000
vn 0.0000 -1.0000 -0.0000
vn 0.0000 0.0000 -1.0000
vn 0.0000 1.0000 0.0000
vn 0.0000 0.0000 1.0000
vn -1.0000 0.0000 0.0000
usemtl Stone.148
s 1
f 1/1/1 2/2/1 7/3/1
f 2/4/2 12/5/2 11/6/2
f 16/7/3 2/8/3 11/9/3
f 20/10/1 14/11/1 13/12/1
f 20/13/4 19/14/4 22/15/4
f 22/16/5 21/17/5 20/18/5
f 27/19/6 28/20/6 11/21/6
f 32/22/5 12/5/5 1/23/5
f 35/24/6 30/25/6 29/26/6
f 35/27/4 10/28/4 9/29/4
f 9/30/3 36/31/3 35/32/3
f 37/33/5 5/34/5 4/35/5
f 18/36/4 4/37/4 3/38/4
f 18/39/6 38/40/6 37/41/6
f 39/42/3 26/43/3 25/44/3
f 34/45/4 25/46/4 24/47/4
f 34/48/1 40/49/1 39/50/1
f 2/2/1 3/51/1 6/52/1
f 3/51/1 4/53/1 5/54/1
f 5/54/1 6/52/1 3/51/1
f 9/55/1 10/56/1 8/57/1
f 10/56/1 1/1/1 7/3/1
f 8/57/1 10/56/1 7/3/1
f 2/2/1 6/52/1 7/3/1
f 2/4/2 1/58/2 12/5/2
f 19/59/3 13/60/3 14/61/3
f 19/59/3 14/61/3 15/62/3
f 18/63/3 3/64/3 17/65/3
f 3/64/3 2/8/3 16/7/3
f 17/65/3 3/64/3 16/7/3
f 11/9/3 19/59/3 15/62/3
f 11/9/3 15/62/3 16/7/3
f 20/10/1 21/66/1 14/11/1
f 20/13/4 13/67/4 19/14/4
f 22/16/5 23/68/5 21/17/5
f 12/5/6 24/69/6 27/19/6
f 24/69/6 25/70/6 26/71/6
f 26/71/6 27/19/6 24/69/6
f 22/72/6 19/73/6 23/74/6
f 19/73/6 11/21/6 28/20/6
f 23/74/6 19/73/6 28/20/6
f 12/5/6 27/19/6 11/21/6
f 10/75/5 29/76/5 30/77/5
f 10/75/5 30/77/5 31/78/5
f 34/79/5 24/69/5 33/80/5
f 24/69/5 12/5/5 32/22/5
f 33/80/5 24/69/5 32/22/5
f 1/23/5 10/75/5 31/78/5
f 1/23/5 31/78/5 32/22/5
f 35/24/6 36/81/6 30/25/6
f 35/27/4 29/82/4 10/28/4
f 9/30/3 8/83/3 36/31/3
f 37/33/5 38/84/5 5/34/5
f 18/36/4 37/85/4 4/37/4
f 18/39/6 17/86/6 38/40/6
f 39/42/3 40/87/3 26/43/3
f 34/45/4 39/88/4 25/46/4
f 34/48/1 33/89/1 40/49/1
usemtl Asphalt.120
f 21/90/4 40/91/4 36/92/4
f 17/65/3 15/62/3 14/61/3
f 23/74/6 27/19/6 26/71/6
f 33/80/5 31/78/5 30/77/5
f 8/57/1 6/52/1 5/54/1
f 8/93/4 5/94/4 38/95/4
f 38/95/4 17/96/4 14/97/4
f 21/90/4 23/98/4 26/99/4
f 38/95/4 14/97/4 21/90/4
f 36/92/4 8/93/4 38/95/4
f 33/100/4 30/101/4 36/92/4
f 21/90/4 26/99/4 40/91/4
f 40/91/4 33/100/4 36/92/4
f 36/92/4 38/95/4 21/90/4
f 17/65/3 16/7/3 15/62/3
f 23/74/6 28/20/6 27/19/6
f 33/80/5 32/22/5 31/78/5
f 8/57/1 7/3/1 6/52/1
