# Blender v2.79 (sub 7) OBJ File: ''
# www.blender.org
mtllib roadTile_157.mtl
o Mesh1_Group1_Model.001
v 0.000000 0.550000 0.000000
v 1.409010 0.550000 -1.409010
v 1.214950 0.550000 -1.630290
v 1.875000 0.000000 -3.000000
v 3.000000 0.000000 -3.000000
v 3.000000 0.000000 -1.875000
v 3.000000 0.455000 -0.750000
v 3.000000 0.550000 -0.750000
v 3.000000 0.550000 0.000000
v 0.000000 0.000000 0.000000
v 3.000000 0.000000 0.000000
v 1.409010 0.455000 -1.409010
v 1.630290 0.550000 -1.214950
v 1.630290 0.455000 -1.214950
v 0.769249 0.455000 -2.706320
v 0.769249 0.550000 -2.706320
v 0.826667 0.550000 -2.417660
v 0.826667 0.455000 -2.417660
v 0.750000 0.455000 -3.000000
v 0.750000 0.550000 -3.000000
v 2.138960 0.455000 -0.921271
v 2.138960 0.550000 -0.921271
v 2.417660 0.550000 -0.826667
v 2.417660 0.455000 -0.826667
v 0.000000 0.550000 -3.000000
v 0.000000 0.000000 -3.000000
v 2.706320 0.455000 -0.769249
v 2.706320 0.550000 -0.769249
v 3.000000 0.000000 -0.750000
v 1.214950 0.455000 -1.630290
v 0.921271 0.550000 -2.138960
v 1.051440 0.550000 -1.875000
v 1.875000 0.550000 -1.051440
v 0.750000 0.000000 -3.000000
v 0.921271 0.455000 -2.138960
v 1.051440 0.455000 -1.875000
v 1.875000 0.455000 -1.051440
v 3.000000 0.455000 -1.875000
v 1.875000 0.455000 -3.000000
v 2.437500 0.455000 -2.025720
v 2.315140 0.455000 -2.107480
v 2.107480 0.455000 -2.315140
v 2.025720 0.455000 -2.437500
v 1.884620 0.455000 -2.853160
v 2.569480 0.455000 -1.960640
v 1.913330 0.455000 -2.708830
v 2.853160 0.455000 -1.884620
v 2.708830 0.455000 -1.913330
v 2.204500 0.455000 -2.204500
v 1.960640 0.455000 -2.569480
v 3.000000 0.455000 -3.000000
vt 0.000000 0.000000
vt 1.409010 1.409010
vt 1.214950 1.630290
vt -1.875000 3.000000
vt -3.000000 3.000000
vt -3.000000 1.875000
vt 0.750000 0.455000
vt 0.750000 0.550000
vt 0.000000 0.550000
vt 3.000000 0.000000
vt -0.000000 0.550000
vt -0.000000 0.000000
vt -0.130325 0.550000
vt -0.424639 0.455000
vt -0.130325 0.455000
vt 2.504240 0.550000
vt 2.209930 0.455000
vt 2.504240 0.455000
vt 2.944520 0.550000
vt 2.650210 0.455000
vt 2.944520 0.455000
vt -1.729310 0.550000
vt -2.023630 0.455000
vt -1.729310 0.455000
vt -3.000000 0.000000
vt -3.000000 0.550000
vt -2.650210 0.550000
vt -2.944520 0.455000
vt -2.650210 0.455000
vt 0.000000 0.000000
vt 0.424639 0.550000
vt 0.130325 0.455000
vt 0.424639 0.455000
vt -2.209930 0.550000
vt -2.504240 0.455000
vt -2.209930 0.455000
vt 0.769249 2.706320
vt 0.750000 3.000000
vt 0.000000 3.000000
vt 3.000000 0.000000
vt 2.138960 0.921271
vt 3.000000 0.750000
vt 2.706320 0.769249
vt 2.417660 0.826667
vt 0.826667 2.417660
vt 0.921271 2.138960
vt 1.051440 1.875000
vt 1.875000 1.051440
vt 1.630290 1.214950
vt -3.000000 0.750000
vt -3.000000 -0.000000
vt -0.000000 3.000000
vt -0.750000 3.000000
vt -0.750000 0.455000
vt 0.000000 0.000000
vt 0.000000 0.550000
vt -0.750000 0.550000
vt 2.023630 0.550000
vt 1.729310 0.455000
vt 2.023630 0.455000
vt 0.974855 0.550000
vt 0.680541 0.455000
vt 0.974855 0.455000
vt -0.680541 0.550000
vt -0.974855 0.455000
vt -0.680541 0.455000
vt -1.216600 0.550000
vt -1.510910 0.455000
vt -1.216600 0.455000
vt 1.510910 0.550000
vt 1.216600 0.455000
vt 1.510910 0.455000
vt 3.000000 0.550000
vt -0.424639 0.550000
vt 2.209930 0.550000
vt 2.650210 0.550000
vt -2.023630 0.550000
vt -2.944520 0.550000
vt 0.750000 0.000000
vt 0.130325 0.550000
vt -2.504240 0.550000
vt -0.750000 0.000000
vt 1.729310 0.550000
vt 0.680541 0.550000
vt -0.974855 0.550000
vt -1.510910 0.550000
vt 1.216600 0.550000
vt 1.875000 0.455000
vt 1.875000 0.000000
vt -1.875000 -0.000000
vt -1.875000 0.455000
vt 1.630290 1.214950
vt 2.437500 2.025720
vt 2.315140 2.107480
vt 1.214950 1.630290
vt 2.025720 2.437500
vt 1.051440 1.875000
vt 0.750000 3.000000
vt 1.884620 2.853160
vt 1.875000 3.000000
vt 2.138960 0.921271
vt 1.875000 1.051440
vt 0.826667 2.417660
vt 1.913330 2.708830
vt 2.853160 1.884620
vt 2.417660 0.826667
vt 2.706320 0.769249
vt 2.204500 2.204500
vt 1.409010 1.409010
vt 3.000000 0.750000
vt 2.708830 1.913330
vt 0.921271 2.138960
vt 1.960640 2.569480
vt 2.107480 2.315140
vt 0.769249 2.706320
vt 2.569480 1.960640
vt 3.000000 1.875000
vt 3.000000 0.455000
vt -3.000000 -0.000000
vt 3.000000 3.000000
vt 3.000000 0.000000
vt -3.000000 0.455000
vn -0.0000 1.0000 0.0000
vn 0.0000 -1.0000 -0.0000
vn 1.0000 0.0000 0.0000
vn 0.0000 -0.0000 1.0000
vn 0.7071 0.0000 -0.7071
vn 0.6088 0.0000 -0.7934
vn 0.9914 0.0000 -0.1305
vn 0.9659 0.0000 -0.2588
vn 0.9979 0.0000 -0.0654
vn 0.3827 0.0000 -0.9239
vn 0.2588 0.0000 -0.9659
vn -1.0000 0.0000 0.0000
vn 0.1305 0.0000 -0.9914
vn 0.0654 0.0000 -0.9979
vn 0.7934 0.0000 -0.6088
vn 0.0000 0.0000 -1.0000
vn 0.9239 0.0000 -0.3827
vn 0.8660 0.0000 -0.5000
vn 0.5000 0.0000 -0.8660
usemtl Grass.001
s 1
f 1/1/1 2/2/1 3/3/1
f 4/4/2 5/5/2 6/6/2
f 7/7/3 8/8/3 9/9/3
f 11/10/4 1/11/4 10/12/4
f 2/13/5 14/14/6 12/15/5
f 16/16/7 18/17/8 15/18/7
f 20/19/9 15/20/7 19/21/9
f 22/22/10 24/23/11 21/24/10
f 26/25/12 1/11/12 25/26/12
f 28/27/13 7/28/14 27/29/13
f 11/30/3 7/7/3 9/9/3
f 3/31/15 12/32/5 30/33/15
f 23/34/11 27/35/13 24/36/11
f 16/37/1 20/38/1 25/39/1
f 1/1/1 9/40/1 22/41/1
f 9/40/1 8/42/1 28/43/1
f 9/40/1 28/43/1 23/44/1
f 16/37/1 25/39/1 17/45/1
f 25/39/1 1/1/1 31/46/1
f 17/45/1 25/39/1 31/46/1
f 9/40/1 23/44/1 22/41/1
f 32/47/1 31/46/1 1/1/1
f 1/1/1 22/41/1 33/48/1
f 1/1/1 33/48/1 13/49/1
f 3/3/1 32/47/1 1/1/1
f 1/1/1 13/49/1 2/2/1
f 29/50/2 11/51/2 10/12/2
f 10/12/2 26/52/2 34/53/2
f 34/53/2 4/4/2 6/6/2
f 19/54/16 26/55/16 25/56/16
f 20/57/16 19/54/16 25/56/16
f 17/58/8 35/59/17 18/60/8
f 32/61/18 30/62/15 36/63/18
f 29/50/2 34/53/2 6/6/2
f 13/64/6 37/65/19 14/66/6
f 33/67/19 21/68/10 37/69/19
f 31/70/17 36/71/18 35/72/17
f 11/10/4 9/73/4 1/11/4
f 2/13/5 13/74/6 14/14/6
f 16/16/7 17/75/8 18/17/8
f 20/19/9 16/76/7 15/20/7
f 22/22/10 23/77/11 24/23/11
f 26/25/12 10/12/12 1/11/12
f 28/27/13 8/78/14 7/28/14
f 11/30/3 29/79/3 7/7/3
f 3/31/15 2/80/5 12/32/5
f 23/34/11 28/81/13 27/35/13
f 19/54/16 34/82/16 26/55/16
f 17/58/8 31/83/17 35/59/17
f 32/61/18 3/84/15 30/62/15
f 29/50/2 10/12/2 34/53/2
f 13/64/6 33/85/19 37/65/19
f 33/67/19 22/86/10 21/68/10
f 31/70/17 32/87/18 36/71/18
usemtl Sand
f 38/88/3 29/79/3 6/89/3
f 4/90/16 19/54/16 39/91/16
f 14/92/1 40/93/1 41/94/1
f 30/95/1 43/96/1 36/97/1
f 19/98/1 44/99/1 39/100/1
f 21/101/1 40/93/1 37/102/1
f 44/99/1 18/103/1 46/104/1
f 47/105/1 24/106/1 27/107/1
f 14/92/1 49/108/1 12/109/1
f 7/110/1 47/105/1 27/107/1
f 48/111/1 21/101/1 24/106/1
f 49/108/1 30/95/1 12/109/1
f 43/96/1 35/112/1 36/97/1
f 46/104/1 35/112/1 50/113/1
f 38/88/3 7/7/3 29/79/3
f 4/90/16 34/82/16 19/54/16
f 14/92/1 37/102/1 40/93/1
f 30/95/1 42/114/1 43/96/1
f 19/98/1 15/115/1 44/99/1
f 21/101/1 45/116/1 40/93/1
f 44/99/1 15/115/1 18/103/1
f 47/105/1 48/111/1 24/106/1
f 14/92/1 41/94/1 49/108/1
f 7/110/1 38/117/1 47/105/1
f 48/111/1 45/116/1 21/101/1
f 49/108/1 42/114/1 30/95/1
f 43/96/1 50/113/1 35/112/1
f 46/104/1 18/103/1 35/112/1
usemtl Water
f 6/89/3 51/118/3 38/88/3
f 39/91/16 5/119/16 4/90/16
f 48/111/1 47/105/1 51/120/1
f 38/117/1 51/120/1 47/105/1
f 51/120/1 39/100/1 44/99/1
f 46/104/1 51/120/1 44/99/1
f 46/104/1 50/113/1 51/120/1
f 50/113/1 43/96/1 51/120/1
f 43/96/1 42/114/1 51/120/1
f 42/114/1 49/108/1 51/120/1
f 49/108/1 41/94/1 51/120/1
f 41/94/1 40/93/1 51/120/1
f 40/93/1 45/116/1 51/120/1
f 45/116/1 48/111/1 51/120/1
f 6/89/3 5/121/3 51/118/3
f 39/91/16 51/122/16 5/119/16
