# Blender v2.79 (sub 7) OBJ File: ''
# www.blender.org
mtllib roadTile_181.mtl
o Mesh1_Group1_Model.133
v -1.500000 1.070000 -0.750000
v 1.500000 1.070000 0.750000
v 1.500000 1.070000 -0.750000
v -1.500000 0.770000 -0.750000
v -1.500000 1.070000 0.750000
v 1.500000 0.770000 0.750000
v -1.500000 0.770000 0.750000
v 1.500000 0.770000 -0.750000
v -1.500000 1.100000 -0.750000
v 1.500000 0.000000 1.125000
v 1.500000 0.000000 -1.125000
v -1.500000 1.100000 1.125000
v 1.500000 1.020000 1.125000
v 1.500000 1.100000 1.125000
v 1.500000 1.100000 0.750000
v -1.500000 1.100000 0.750000
v -1.500000 0.470000 -1.125000
v -1.500000 0.470000 1.125000
v 1.500000 1.100000 -1.125000
v 1.500000 1.100000 -0.750000
v -1.500000 1.020000 -1.125000
v -1.500000 1.100000 -1.125000
v 1.500000 1.020000 -1.125000
v -1.500000 1.020000 1.125000
v 0.218180 0.470000 1.500000
v 1.500000 1.020000 1.500000
v -1.500000 1.020000 1.500000
v 0.218180 0.470000 -1.500000
v -1.500000 0.470000 1.500000
v 1.500000 0.000000 1.500000
v 1.500000 1.020000 -1.500000
v -1.500000 1.020000 -1.500000
v -1.500000 0.470000 -1.500000
v 1.500000 0.000000 -1.500000
vt 0.000000 2.250000
vt 3.000000 0.750000
vt 3.000000 2.250000
vt -2.250000 0.770000
vt -0.750000 1.070000
vt -2.250000 1.070000
vt 0.750000 0.770000
vt 2.250000 1.070000
vt 0.750000 1.070000
vt 0.000000 0.750000
vt -0.750000 0.770000
vt 2.250000 0.770000
vt 3.000000 1.070000
vt 0.000000 1.100000
vt 0.000000 1.070000
vt 0.375000 0.000000
vt 2.625000 0.000000
vt 0.000000 1.100000
vt 3.000000 1.020000
vt 3.000000 1.100000
vt 0.000000 0.375000
vt 3.000000 0.750000
vt 0.000000 0.750000
vt -2.625000 0.470000
vt -0.375000 0.470000
vt -0.000000 1.070000
vt -3.000000 1.100000
vt -3.000000 1.070000
vt 3.000000 2.625000
vt 0.000000 2.250000
vt 3.000000 2.250000
vt -3.000000 1.100000
vt -0.000000 1.020000
vt -0.000000 1.100000
vt 3.000000 1.100000
vt 2.625000 1.020000
vt 2.625000 1.100000
vt 2.250000 1.100000
vt 0.375000 1.100000
vt 0.375000 1.020000
vt 0.750000 1.100000
vt 0.000000 1.020000
vt 3.000000 0.375000
vt -0.375000 1.020000
vt -0.375000 1.100000
vt -0.750000 1.100000
vt -2.625000 1.100000
vt -2.625000 1.020000
vt -2.250000 1.100000
vt -0.000000 1.100000
vt 0.000000 2.625000
vt -3.000000 1.020000
vt -2.625000 -2.816630
vt -0.375000 -2.816630
vt -0.000000 -1.451360
vt 1.718180 0.470000
vt 3.000000 1.020000
vt 0.000000 1.020000
vt -0.000000 2.625000
vt -1.718180 3.000000
vt -1.718180 0.000000
vt 0.000000 0.470000
vt 3.000000 0.375000
vt 0.000000 0.000000
vt 3.000000 0.000000
vt 0.000000 1.020000
vt 0.000000 0.000000
vt 0.000000 2.625000
vt 3.000000 3.000000
vt 0.000000 3.000000
vt -3.000000 1.020000
vt -3.000000 0.470000
vt -3.000000 1.020000
vt -1.718180 0.470000
vt -0.000000 1.020000
vt 3.000000 1.020000
vt 3.000000 0.000000
vt -0.000000 -2.816630
vt -3.000000 -1.451360
vt -3.000000 -2.816630
vt 3.000000 -0.000000
vt -0.000000 0.000000
vt -0.000000 0.375000
vt -0.000000 3.000000
vt 0.000000 0.375000
vt 3.000000 2.625000
vt -3.000000 0.000000
vt -0.000000 0.470000
vn 0.0000 1.0000 0.0000
vn -1.0000 0.0000 0.0000
vn 1.0000 0.0000 0.0000
vn 0.0000 0.0000 1.0000
vn 0.0000 0.0000 -1.0000
vn -0.3443 -0.9389 -0.0000
vn -0.0000 -1.0000 -0.0000
usemtl Asphalt.089
s 1
f 1/1/1 2/2/1 3/3/1
f 4/4/2 5/5/2 1/6/2
f 6/7/3 3/8/3 2/9/3
f 1/1/1 5/10/1 2/2/1
f 4/4/2 7/11/2 5/5/2
f 6/7/3 8/12/3 3/8/3
usemtl Stone.112
f 3/13/4 9/14/4 1/15/4
f 10/16/3 11/17/3 6/7/3
f 12/18/4 13/19/4 14/20/4
f 12/21/1 15/22/1 16/23/1
f 17/24/2 18/25/2 4/4/2
f 5/26/5 15/27/5 2/28/5
f 19/29/1 9/30/1 20/31/1
f 19/32/5 21/33/5 22/34/5
f 3/13/4 20/35/4 9/14/4
f 11/17/3 23/36/3 8/12/3
f 23/36/3 19/37/3 3/8/3
f 8/12/3 23/36/3 3/8/3
f 19/37/3 20/38/3 3/8/3
f 14/39/3 13/40/3 2/9/3
f 13/40/3 10/16/3 6/7/3
f 2/9/3 15/41/3 14/39/3
f 6/7/3 2/9/3 13/40/3
f 11/17/3 8/12/3 6/7/3
f 12/18/4 24/42/4 13/19/4
f 12/21/1 14/43/1 15/22/1
f 18/25/2 24/44/2 7/11/2
f 24/44/2 12/45/2 5/5/2
f 7/11/2 24/44/2 5/5/2
f 12/45/2 16/46/2 5/5/2
f 22/47/2 21/48/2 1/6/2
f 21/48/2 17/24/2 4/4/2
f 1/6/2 9/49/2 22/47/2
f 4/4/2 1/6/2 21/48/2
f 18/25/2 7/11/2 4/4/2
f 5/26/5 16/50/5 15/27/5
f 19/29/1 22/51/1 9/30/1
f 19/32/5 23/52/5 21/33/5
usemtl Grass.059
f 11/53/6 10/54/6 25/55/6
f 25/56/4 26/57/4 27/58/4
f 17/59/7 28/60/7 25/61/7
f 24/44/2 29/62/2 27/58/2
f 13/63/1 27/64/1 26/65/1
f 10/16/3 26/66/3 30/67/3
f 21/68/1 31/69/1 32/70/1
f 17/24/2 32/71/2 33/72/2
f 31/73/5 28/74/5 32/75/5
f 31/76/3 11/17/3 34/77/3
f 10/54/6 30/78/6 25/55/6
f 25/55/6 28/79/6 11/53/6
f 28/79/6 34/80/6 11/53/6
f 27/58/4 29/62/4 25/56/4
f 25/56/4 30/81/4 26/57/4
f 25/61/7 29/82/7 18/83/7
f 17/59/7 33/84/7 28/60/7
f 25/61/7 18/83/7 17/59/7
f 24/44/2 18/25/2 29/62/2
f 13/63/1 24/85/1 27/64/1
f 10/16/3 13/40/3 26/66/3
f 21/68/1 23/86/1 31/69/1
f 17/24/2 21/48/2 32/71/2
f 31/73/5 34/87/5 28/74/5
f 28/74/5 33/88/5 32/75/5
f 31/76/3 23/36/3 11/17/3
