# Blender v2.79 (sub 7) OBJ File: ''
# www.blender.org
mtllib roadTile_221.mtl
o Mesh1_Group1_Model.126
v 0.000000 0.000000 -3.000000
v 0.000000 1.650000 -3.000000
v 3.000000 1.650000 -3.000000
v 3.000000 0.000000 -3.000000
v 0.000000 0.300000 -2.250000
v 0.000000 0.300000 -0.750000
v 0.000000 0.000000 0.000000
v 0.000000 1.275000 -0.750000
v 0.000000 1.650000 0.000000
v 3.000000 1.650000 0.000000
v 3.000000 1.275000 -0.750000
v 3.000000 0.000000 0.000000
v 3.000000 0.300000 -0.750000
v 3.000000 0.300000 -2.250000
v 3.000000 0.600000 -2.250000
v 3.000000 1.275000 -2.250000
v 0.000000 1.275000 -2.250000
v 3.000000 0.600000 -0.750000
v 0.000000 0.600000 -0.750000
v 0.000000 0.600000 -2.250000
vt -0.000000 1.650000
vt -3.000000 -0.000000
vt -0.000000 -0.000000
vt -3.000000 0.000000
vt -2.250000 0.300000
vt -3.000000 1.650000
vt -0.750000 0.300000
vt -0.000000 0.000000
vt -0.750000 1.275000
vt 0.000000 1.650000
vt 3.000000 3.000000
vt 0.000000 0.000000
vt 3.000000 0.000000
vt 0.000000 1.650000
vt 0.750000 1.275000
vt 3.000000 1.650000
vt 0.000000 -0.000000
vt 3.000000 1.650000
vt 0.000000 3.000000
vt -3.000000 0.000000
vt 3.000000 -0.000000
vt 0.750000 0.300000
vt 2.250000 0.300000
vt 2.250000 0.600000
vt 2.250000 1.275000
vt -3.000000 0.750000
vt -0.000000 2.250000
vt -3.000000 2.250000
vt -3.000000 0.600000
vt -0.000000 1.275000
vt -3.000000 1.275000
vt 0.750000 0.600000
vt 3.000000 1.275000
vt 0.000000 0.600000
vt 3.000000 0.600000
vt -2.250000 1.275000
vt -2.250000 0.600000
vt -0.750000 0.600000
vt -3.000000 1.650000
vt -0.000000 3.000000
vt 3.000000 -0.000000
vt -3.000000 3.000000
vt -0.000000 0.750000
vt -0.000000 0.600000
vt 0.000000 1.275000
vt 3.000000 2.250000
vt 0.000000 0.750000
vt 3.000000 0.750000
vt 0.000000 2.250000
vn 0.0000 0.0000 -1.0000
vn -1.0000 0.0000 0.0000
vn -1.0000 0.0000 0.0001
vn 0.0000 1.0000 0.0000
vn 1.0000 -0.0000 0.0000
vn 0.0000 -0.0000 1.0000
vn 0.0000 -1.0000 -0.0000
usemtl Stone.105
s 1
f 2/1/1 4/2/1 1/3/1
f 1/4/2 5/5/2 2/6/2
f 1/4/2 6/7/3 5/5/2
f 7/8/2 6/7/3 1/4/2
f 6/7/3 7/8/2 8/9/3
f 9/10/2 8/9/3 7/8/2
f 8/9/3 9/10/2 2/6/2
f 3/11/4 9/12/4 10/13/4
f 10/14/5 11/15/5 3/16/5
f 11/15/5 10/14/5 12/17/5
f 7/8/6 10/18/6 9/10/6
f 1/19/7 12/20/7 7/8/7
f 4/21/5 13/22/5 12/17/5
f 13/22/5 4/21/5 14/23/5
f 14/23/5 4/21/5 15/24/5
f 15/24/5 4/21/5 16/25/5
f 3/16/5 16/25/5 4/21/5
f 3/16/5 11/15/5 16/25/5
f 11/26/7 17/27/7 16/28/7
f 18/29/1 8/30/1 11/31/1
f 11/15/5 12/17/5 18/32/5
f 18/32/5 12/17/5 13/22/5
f 16/33/6 20/34/6 15/35/6
f 17/36/2 2/6/2 20/37/2
f 8/9/3 2/6/2 17/36/2
f 20/37/2 2/6/2 5/5/2
f 6/7/3 8/9/3 19/38/2
f 2/1/1 3/39/1 4/2/1
f 3/11/4 2/40/4 9/12/4
f 7/8/6 12/41/6 10/18/6
f 1/19/7 4/42/7 12/20/7
f 11/26/7 8/43/7 17/27/7
f 18/29/1 19/44/1 8/30/1
f 16/33/6 17/45/6 20/34/6
usemtl Asphalt.082
f 18/32/5 14/23/5 15/24/5
f 15/46/4 19/47/4 18/48/4
f 20/37/2 6/7/3 19/38/2
f 18/32/5 13/22/5 14/23/5
f 15/46/4 20/49/4 19/47/4
f 20/37/2 5/5/2 6/7/3
