# Blender v2.79 (sub 7) OBJ File: ''
# www.blender.org
mtllib roadTile_300.mtl
o Mesh1_Group1_Model.181
v 0.187500 0.630000 -0.753607
v 0.000000 0.630000 -0.878891
v 0.000000 0.000000 -0.878891
v 0.187500 0.000000 -0.753607
v 0.000000 0.630000 -1.328930
v 0.847406 0.630000 -0.428178
v 1.544140 0.630000 -0.191667
v 2.265790 0.630000 -0.048123
v 3.000000 0.630000 0.000000
v 3.000000 0.630000 -0.375000
v 2.314740 0.630000 -0.419914
v 1.641200 0.630000 -0.553889
v 0.990912 0.630000 -0.774632
v 0.375000 0.630000 -1.078370
v 0.000000 0.600000 -1.328930
v 0.000000 0.300000 -1.328930
v 0.000000 0.300000 -2.625000
v 0.000000 0.000000 -2.625000
v 1.468970 0.000000 -2.625000
v 0.754448 0.300000 -2.625000
v 0.754448 0.600000 -2.625000
v 0.754448 0.630000 -2.625000
v 1.468970 0.630000 -2.625000
v 3.000000 0.000000 -2.250000
v 3.000000 0.000000 0.000000
v 2.265790 0.000000 -0.048123
v 1.544140 0.000000 -0.191667
v 0.847406 0.000000 -0.428178
v 1.708440 0.000000 -2.506910
v 2.126490 0.000000 -2.365000
v 2.559470 0.000000 -2.278870
v 3.000000 0.630000 -2.250000
v 3.000000 0.630000 -1.875000
v 3.000000 0.600000 -1.875000
v 3.000000 0.300000 -1.875000
v 3.000000 0.300000 -0.375000
v 3.000000 0.600000 -0.375000
v 2.559470 0.630000 -2.278870
v 2.126490 0.630000 -2.365000
v 1.708440 0.630000 -2.506910
v 1.125000 0.630000 -2.377400
v 1.564940 0.630000 -2.160450
v 2.029430 0.630000 -2.002780
v 2.510530 0.630000 -1.907080
v 1.125000 0.600000 -2.377400
v 0.375000 0.600000 -1.078370
v 0.990912 0.600000 -0.774632
v 1.641200 0.600000 -0.553889
v 2.314740 0.600000 -0.419914
v 2.510530 0.600000 -1.907080
v 2.029430 0.600000 -2.002780
v 1.564940 0.600000 -2.160450
v 0.000000 0.600000 -2.625000
vt -0.488285 0.630000
vt -0.262781 -0.000000
vt -0.262781 0.630000
vt 1.641200 0.553889
vt 0.990912 0.774632
vt 0.847406 0.428178
vt -1.328930 0.300000
vt -2.625000 0.000000
vt -0.878891 -0.000000
vt -0.754448 0.300000
vt -1.468970 0.630000
vt -1.468970 -0.000000
vt -2.126490 2.365000
vt -2.559470 2.278870
vt -2.265790 0.048123
vt 0.000000 0.000000
vt 2.250000 0.000000
vt 1.875000 0.300000
vt 2.257790 0.630000
vt 2.993580 -0.000000
vt 2.993580 0.630000
vt 1.477080 0.630000
vt 2.212870 -0.000000
vt 2.212870 0.630000
vt 0.664801 0.630000
vt 1.400590 -0.000000
vt 1.400590 0.630000
vt -0.165148 0.630000
vt 0.570637 -0.000000
vt 0.570637 0.630000
vt -2.846420 0.630000
vt -2.404950 -0.000000
vt -2.404950 0.630000
vt 2.126490 2.365000
vt 1.708440 2.506910
vt 1.564940 2.160450
vt -2.065710 0.630000
vt -1.624240 0.000000
vt -1.624240 0.630000
vt -1.253430 0.630000
vt -0.811958 0.000000
vt -0.811958 0.630000
vt -0.423480 0.630000
vt -0.156475 -0.000000
vt -0.156475 0.630000
vt -0.831072 0.630000
vt -0.385412 0.600000
vt -0.385412 0.630000
vt 0.287307 0.630000
vt 0.738316 0.600000
vt 0.738316 0.630000
vt -0.546111 0.630000
vt 0.140622 0.600000
vt 0.140622 0.630000
vt -1.376060 0.630000
vt -0.689327 0.600000
vt -0.689327 0.630000
vt -2.188340 0.630000
vt -1.501610 0.600000
vt -1.501610 0.630000
vt -2.969050 0.630000
vt -2.282320 0.600000
vt -2.282320 0.630000
vt 2.380420 0.630000
vt 2.870950 0.600000
vt 2.870950 0.630000
vt 1.599710 0.630000
vt 2.090230 0.600000
vt 2.090230 0.630000
vt 0.787432 0.630000
vt 1.277960 0.600000
vt 1.277960 0.630000
vt -0.042517 0.630000
vt 0.448006 0.600000
vt 0.448006 0.630000
vt -0.488285 -0.000000
vt 0.375000 1.078370
vt 0.000000 1.328930
vt 0.000000 0.878891
vt 0.187500 0.753607
vt 1.544140 0.191667
vt 2.265790 0.048123
vt 3.000000 0.000000
vt 2.314740 0.419914
vt 3.000000 0.375000
vt -1.328930 0.630000
vt -1.328930 0.600000
vt -0.878891 0.630000
vt -2.625000 0.300000
vt -0.000000 0.000000
vt -0.000000 0.300000
vt -0.754448 0.600000
vt -0.754448 0.630000
vt -3.000000 2.250000
vt -3.000000 0.000000
vt -1.544140 0.191667
vt -0.847406 0.428178
vt -0.187500 0.753607
vt -1.468970 2.625000
vt -1.708440 2.506910
vt -0.000000 0.878891
vt -0.000000 2.625000
vt 0.375000 0.630000
vt -0.000000 0.630000
vt 0.375000 0.600000
vt 0.375000 0.300000
vt 2.250000 0.630000
vt 1.875000 0.630000
vt 1.875000 0.600000
vt 2.257790 -0.000000
vt 1.477080 -0.000000
vt 0.664801 -0.000000
vt -0.165148 -0.000000
vt -2.846420 -0.000000
vt 2.510530 1.907080
vt 3.000000 1.875000
vt 3.000000 2.250000
vt 2.559470 2.278870
vt 2.029430 2.002780
vt 0.754448 2.625000
vt 1.125000 2.377400
vt 1.468970 2.625000
vt -2.065710 0.000000
vt -1.253430 0.000000
vt -0.423480 -0.000000
vt -0.831072 0.600000
vt 0.287307 0.600000
vt -0.546111 0.600000
vt -1.376060 0.600000
vt -2.188340 0.600000
vt -2.969050 0.600000
vt 2.380420 0.600000
vt 1.599710 0.600000
vt 0.787432 0.600000
vt -0.042517 0.600000
vt -2.625000 0.600000
vt -0.000000 0.600000
vt 1.564940 2.160450
vt 1.125000 2.377400
vt 0.375000 1.078370
vt 0.754448 2.625000
vt -0.000000 1.328930
vt 0.000000 2.625000
vt 0.990912 0.774632
vt 1.641200 0.553889
vt 2.314740 0.419914
vt 2.029430 2.002780
vt 3.000000 0.375000
vt 2.510530 1.907080
vt 3.000000 1.875000
vn -0.5556 0.0000 0.8315
vn -0.5000 0.0000 0.8660
vn 0.0000 1.0000 0.0000
vn -1.0000 0.0000 0.0000
vn -0.0000 0.0000 -1.0000
vn 0.0000 -1.0000 -0.0000
vn 1.0000 0.0000 0.0000
vn -0.1305 -0.0000 0.9914
vn -0.0654 -0.0000 0.9979
vn -0.2588 0.0000 0.9659
vn -0.3827 -0.0000 0.9239
vn 0.0654 0.0000 -0.9979
vn 0.1305 0.0000 -0.9914
vn 0.2588 0.0000 -0.9659
vn 0.3827 0.0000 -0.9239
vn 0.4423 0.0000 -0.8969
vn 0.5000 0.0000 -0.8660
vn 0.5556 0.0000 -0.8315
usemtl Stone.155
s 1
f 2/1/1 4/2/2 1/3/2
f 12/4/3 13/5/3 6/6/3
f 16/7/4 18/8/4 3/9/4
f 20/10/5 23/11/5 19/12/5
f 30/13/6 31/14/6 26/15/6
f 25/16/7 24/17/7 35/18/7
f 8/19/8 25/20/9 9/21/9
f 7/22/10 26/23/8 8/24/8
f 6/25/11 27/26/10 7/27/10
f 1/28/2 28/29/11 6/30/11
f 32/31/12 31/32/13 38/33/13
f 39/34/3 40/35/3 42/36/3
f 38/37/13 30/38/14 39/39/14
f 39/40/14 29/41/15 40/42/15
f 40/43/15 19/44/16 23/45/16
f 22/46/1 45/47/2 41/48/2
f 14/49/17 15/50/18 5/51/18
f 13/52/15 46/53/17 14/54/17
f 12/55/14 47/56/15 13/57/15
f 11/58/13 48/59/14 12/60/14
f 10/61/12 49/62/13 11/63/13
f 44/64/8 34/65/9 33/66/9
f 43/67/10 50/68/8 44/69/8
f 42/70/11 51/71/10 43/72/10
f 41/73/2 52/74/11 42/75/11
f 2/1/1 3/76/1 4/2/2
f 14/77/3 5/78/3 2/79/3
f 2/79/3 1/80/3 14/77/3
f 1/80/3 6/6/3 13/5/3
f 6/6/3 7/81/3 12/4/3
f 7/81/3 8/82/3 12/4/3
f 8/82/3 9/83/3 11/84/3
f 9/83/3 10/85/3 11/84/3
f 1/80/3 13/5/3 14/77/3
f 8/82/3 11/84/3 12/4/3
f 5/86/4 15/87/4 2/88/4
f 15/87/4 16/7/4 2/88/4
f 2/88/4 16/7/4 3/9/4
f 16/7/4 17/89/4 18/8/4
f 19/12/5 18/90/5 20/10/5
f 18/90/5 17/91/5 20/10/5
f 20/10/5 21/92/5 23/11/5
f 21/92/5 22/93/5 23/11/5
f 31/14/6 24/94/6 25/95/6
f 25/95/6 26/15/6 31/14/6
f 26/15/6 27/96/6 30/13/6
f 27/96/6 28/97/6 30/13/6
f 28/97/6 4/98/6 19/99/6
f 30/13/6 28/97/6 29/100/6
f 4/98/6 3/101/6 18/102/6
f 18/102/6 19/99/6 4/98/6
f 19/99/6 29/100/6 28/97/6
f 10/103/7 9/104/7 37/105/7
f 9/104/7 25/16/7 36/106/7
f 37/105/7 9/104/7 36/106/7
f 24/17/7 32/107/7 35/18/7
f 32/107/7 33/108/7 34/109/7
f 34/109/7 35/18/7 32/107/7
f 35/18/7 36/106/7 25/16/7
f 8/19/8 26/110/8 25/20/9
f 7/22/10 27/111/10 26/23/8
f 6/25/11 28/112/11 27/26/10
f 1/28/2 4/113/2 28/29/11
f 32/31/12 24/114/12 31/32/13
f 44/115/3 33/116/3 32/117/3
f 44/115/3 32/117/3 38/118/3
f 42/36/3 43/119/3 39/34/3
f 43/119/3 44/115/3 38/118/3
f 39/34/3 43/119/3 38/118/3
f 22/120/3 41/121/3 23/122/3
f 41/121/3 42/36/3 23/122/3
f 23/122/3 42/36/3 40/35/3
f 38/37/13 31/123/13 30/38/14
f 39/40/14 30/124/14 29/41/15
f 40/43/15 29/125/15 19/44/16
f 22/46/1 21/126/1 45/47/2
f 14/49/17 46/127/17 15/50/18
f 13/52/15 47/128/15 46/53/17
f 12/55/14 48/129/14 47/56/15
f 11/58/13 49/130/13 48/59/14
f 10/61/12 37/131/12 49/62/13
f 44/64/8 50/132/8 34/65/9
f 43/67/10 51/133/10 50/68/8
f 42/70/11 52/134/11 51/71/10
f 41/73/2 45/135/2 52/74/11
usemtl Asphalt.126
f 17/89/4 15/87/4 53/136/4
f 20/10/5 53/137/5 21/92/5
f 52/138/3 45/139/3 46/140/3
f 37/105/7 35/18/7 34/109/7
f 17/89/4 16/7/4 15/87/4
f 20/10/5 17/91/5 53/137/5
f 45/139/3 21/141/3 15/142/3
f 21/141/3 53/143/3 15/142/3
f 15/142/3 46/140/3 45/139/3
f 46/140/3 47/144/3 52/138/3
f 47/144/3 48/145/3 52/138/3
f 48/145/3 49/146/3 51/147/3
f 49/146/3 37/148/3 50/149/3
f 51/147/3 49/146/3 50/149/3
f 37/148/3 34/150/3 50/149/3
f 52/138/3 48/145/3 51/147/3
f 37/105/7 36/106/7 35/18/7
