# Blender v2.79 (sub 7) OBJ File: ''
# www.blender.org
mtllib roadTile_192.mtl
o Mesh1_Group1_Model.246
v 0.000000 1.100000 0.000000
v 0.000000 1.100000 -0.375000
v 0.000000 0.000000 -0.375000
v 0.000000 0.000000 0.000000
v 3.000000 0.550000 0.000000
v 3.000000 0.550000 -0.375000
v 3.000000 0.000000 0.000000
v 3.000000 0.000000 -0.375000
v 0.000000 0.000000 -2.625000
v 0.000000 0.000000 -3.000000
v 3.000000 0.000000 -3.000000
v 3.000000 0.000000 -2.625000
v 3.000000 0.550000 -3.000000
v 3.000000 0.550000 -2.625000
v 0.000000 1.100000 -3.000000
v 0.000000 1.100000 -2.625000
v 0.000000 1.180000 -0.375000
v 0.000000 1.180000 -0.750000
v 0.000000 1.150000 -0.750000
v 0.000000 0.850000 -0.750000
v 0.000000 0.850000 -2.250000
v 0.000000 1.150000 -2.250000
v 0.000000 1.180000 -2.250000
v 0.000000 1.180000 -2.625000
v 3.000000 0.630000 -0.375000
v 3.000000 0.630000 -2.625000
v 3.000000 0.630000 -2.250000
v 3.000000 0.600000 -2.250000
v 3.000000 0.300000 -2.250000
v 3.000000 0.300000 -0.750000
v 3.000000 0.600000 -0.750000
v 3.000000 0.630000 -0.750000
vt -0.375000 1.100000
vt -0.000000 0.000000
vt 0.000000 1.100000
vt 0.000000 -2.851640
vt 0.375000 0.198361
vt 0.000000 0.198361
vt 3.000000 0.550000
vt 3.000000 0.000000
vt 0.375000 0.000000
vt 0.000000 0.550000
vt 0.000000 0.000000
vt -3.000000 2.625000
vt -3.000000 0.375000
vt -0.000000 2.625000
vt 2.625000 0.550000
vt 3.000000 0.000000
vt 3.000000 0.550000
vt 3.000000 0.198361
vt 2.625000 -2.851640
vt 3.000000 -2.851640
vt -0.000000 -0.000000
vt -3.000000 0.550000
vt -3.000000 -0.000000
vt -2.625000 0.000000
vt -3.000000 1.100000
vt -3.000000 0.000000
vt -0.375000 0.000000
vt 0.375000 -2.851640
vt 0.375000 0.550000
vt -3.000000 0.000000
vt -0.000000 0.375000
vt -0.000000 3.000000
vt -3.000000 3.000000
vt 2.625000 0.000000
vt 2.625000 0.198361
vt -0.000000 1.100000
vt -2.625000 1.100000
vt -2.250000 0.850000
vt 0.000000 1.100000
vt 3.000000 0.630000
vt 0.000000 1.180000
vt 0.750000 0.300000
vt -3.000000 0.630000
vt -0.000000 1.100000
vt -0.000000 1.180000
vt 2.625000 -2.837210
vt 2.250000 0.212787
vt 2.250000 -2.837210
vt 0.000000 1.150000
vt 3.000000 0.630000
vt 0.000000 1.180000
vt -0.000000 1.150000
vt -3.000000 0.630000
vt -3.000000 0.600000
vt 0.375000 0.212787
vt 0.750000 -2.837210
vt 0.750000 0.212787
vt -0.750000 0.850000
vt -0.375000 1.180000
vt -0.750000 1.150000
vt -0.750000 1.180000
vt -2.625000 1.180000
vt -2.250000 1.150000
vt -2.250000 1.180000
vt 3.000000 0.550000
vt 0.750000 0.630000
vt 0.375000 0.630000
vt 0.750000 0.600000
vt 2.250000 0.300000
vt 2.625000 0.630000
vt 2.250000 0.600000
vt 2.250000 0.630000
vt -3.000000 0.550000
vt 2.625000 0.212787
vt 3.000000 0.600000
vt -0.000000 1.180000
vt 0.375000 -2.837210
vt 2.250000 0.207377
vt 0.750000 -2.842620
vt 2.250000 -2.842620
vt 0.750000 0.207377
vn -1.0000 0.0000 0.0000
vn 0.1803 0.9836 0.0000
vn 0.0000 -0.0000 1.0000
vn 1.0000 -0.0000 0.0000
vn 0.0000 -1.0000 -0.0000
vn 0.0000 0.0000 -1.0000
usemtl Grass.105
s 1
f 2/1/1 4/2/1 1/3/1
f 5/4/2 2/5/2 1/6/2
f 5/7/3 4/2/3 7/8/3
f 8/9/4 5/10/4 7/11/4
f 12/12/5 8/13/5 9/14/5
f 14/15/4 11/16/4 13/17/4
f 15/18/2 14/19/2 13/20/2
f 10/21/6 13/22/6 11/23/6
f 9/24/1 15/25/1 10/26/1
f 2/1/1 3/27/1 4/2/1
f 5/4/2 6/28/2 2/5/2
f 5/7/3 1/3/3 4/2/3
f 8/9/4 6/29/4 5/10/4
f 7/30/5 4/2/5 3/31/5
f 9/14/5 10/32/5 11/33/5
f 7/30/5 3/31/5 8/13/5
f 3/31/5 9/14/5 8/13/5
f 11/33/5 12/12/5 9/14/5
f 14/15/4 12/34/4 11/16/4
f 15/18/2 16/35/2 14/19/2
f 10/21/6 15/36/6 13/22/6
f 9/24/1 16/37/1 15/25/1
usemtl Stone.209
f 9/24/1 3/27/1 21/38/1
f 2/39/3 25/40/3 17/41/3
f 8/9/4 12/34/4 30/42/4
f 26/43/6 16/44/6 24/45/6
f 26/46/2 23/47/2 27/48/2
f 22/49/3 27/50/3 23/51/3
f 19/52/6 32/53/6 31/54/6
f 17/55/2 32/56/2 18/57/2
f 3/27/1 2/1/1 20/58/1
f 2/1/1 17/59/1 19/60/1
f 20/58/1 2/1/1 19/60/1
f 17/59/1 18/61/1 19/60/1
f 24/62/1 16/37/1 22/63/1
f 16/37/1 9/24/1 21/38/1
f 22/63/1 23/64/1 24/62/1
f 21/38/1 22/63/1 16/37/1
f 3/27/1 20/58/1 21/38/1
f 2/39/3 6/65/3 25/40/3
f 32/66/4 25/67/4 31/68/4
f 25/67/4 6/29/4 31/68/4
f 12/34/4 14/15/4 29/69/4
f 14/15/4 26/70/4 28/71/4
f 29/69/4 14/15/4 28/71/4
f 26/70/4 27/72/4 28/71/4
f 6/29/4 8/9/4 30/42/4
f 31/68/4 6/29/4 30/42/4
f 12/34/4 29/69/4 30/42/4
f 26/43/6 14/73/6 16/44/6
f 26/46/2 24/74/2 23/47/2
f 22/49/3 28/75/3 27/50/3
f 19/52/6 18/76/6 32/53/6
f 17/55/2 25/77/2 32/56/2
usemtl Asphalt.171
f 22/78/2 31/79/2 28/80/2
f 21/38/1 19/60/1 22/63/1
f 31/68/4 29/69/4 28/71/4
f 22/78/2 19/81/2 31/79/2
f 21/38/1 20/58/1 19/60/1
f 31/68/4 30/42/4 29/69/4
