# Blender v2.79 (sub 7) OBJ File: ''
# www.blender.org
mtllib roadTile_293.mtl
o Mesh1_Group1_Model.010
v 0.000000 0.930000 1.125000
v 0.000000 1.230000 2.625000
v 0.000000 0.930000 2.625000
v 0.000000 1.230000 1.125000
v -3.000000 1.230000 2.625000
v -3.000000 0.930000 1.125000
v -3.000000 0.930000 2.625000
v -3.000000 1.230000 1.125000
v -3.000000 1.260000 3.000000
v -1.875000 -0.000000 2.156250
v -1.875000 0.630000 1.593750
v -1.875000 -0.000000 1.593750
v -1.125000 -0.000000 1.593750
v -1.125000 0.630000 2.156250
v -1.125000 -0.000000 2.156250
v 0.000000 0.630000 3.000000
v 0.000000 0.630000 0.750000
v -1.875000 0.630000 2.156250
v -3.000000 0.630000 0.750000
v -3.000000 0.630000 3.000000
v 0.000000 1.260000 3.000000
v -3.000000 1.260000 2.625000
v -1.125000 0.630000 1.593750
v -3.000000 1.260000 0.750000
v 0.000000 1.260000 1.125000
v 0.000000 1.260000 0.750000
v 0.000000 1.260000 2.625000
v -3.000000 1.260000 1.125000
vt 1.875000 0.930000
vt 0.375000 1.230000
vt 0.375000 0.930000
vt 3.000000 1.875000
vt 0.000000 0.375000
vt 3.000000 0.375000
vt -0.375000 1.230000
vt -1.875000 0.930000
vt -0.375000 0.930000
vt 1.875000 1.230000
vt 0.000000 1.875000
vt -1.875000 1.230000
vt 0.000000 1.260000
vt -0.843750 0.000000
vt -1.406250 0.630000
vt -1.406250 0.000000
vt 1.406250 0.000000
vt 0.843750 0.630000
vt 0.843750 0.000000
vt -0.000000 0.630000
vt 2.250000 0.630000
vt -1.125000 0.843750
vt -0.000000 2.250000
vt -1.125000 1.406250
vt -3.000000 0.000000
vt -1.875000 0.843750
vt -0.000000 -0.000000
vt -1.875000 1.406250
vt -1.125000 0.843750
vt -1.125000 1.406250
vt -2.250000 0.630000
vt 0.000000 0.630000
vt -3.000000 2.250000
vt 3.000000 0.000000
vt 0.000000 0.375000
vt 0.000000 0.000000
vt -1.875000 1.406250
vt -1.125000 0.630000
vt -1.875000 -0.000000
vt -1.125000 -0.000000
vt 3.000000 1.260000
vt 0.000000 2.250000
vt 3.000000 1.875000
vt 3.000000 2.250000
vt 1.875000 0.630000
vt 1.125000 0.000000
vt 1.875000 0.000000
vt 3.000000 1.260000
vt 0.000000 1.230000
vt 3.000000 1.230000
vt -0.000000 1.260000
vt -3.000000 1.230000
vt -0.000000 1.230000
vt -2.250000 1.260000
vt 2.250000 1.260000
vt 1.875000 1.260000
vt 0.375000 1.260000
vt -0.000000 1.260000
vt -0.375000 1.260000
vt -1.875000 1.260000
vt -0.000000 0.630000
vt -3.000000 1.260000
vt -3.000000 0.630000
vt -0.843750 0.630000
vt 1.406250 0.630000
vt -1.875000 0.843750
vt 3.000000 0.375000
vt -1.875000 0.630000
vt 3.000000 0.630000
vt 0.000000 1.875000
vt 1.125000 0.630000
vt 0.000000 1.260000
vt -3.000000 1.260000
vt -0.000000 1.260000
vn 1.0000 0.0000 0.0000
vn 0.0000 1.0000 0.0000
vn -1.0000 0.0000 0.0000
vn -0.0000 -1.0000 -0.0000
vn 0.0000 0.0000 -1.0000
vn 0.0000 0.0000 1.0000
usemtl Asphalt.006
s 1
f 1/1/1 2/2/1 3/3/1
f 4/4/2 5/5/2 2/6/2
f 5/7/3 6/8/3 7/9/3
f 1/1/1 4/10/1 2/2/1
f 4/4/2 8/11/2 5/5/2
f 5/7/3 8/12/3 6/8/3
usemtl Stone.007
f 7/9/3 9/13/3 5/7/3
f 10/14/3 11/15/3 12/16/3
f 13/17/1 14/18/1 15/19/1
f 16/20/1 17/21/1 3/3/1
f 18/22/4 19/23/4 11/24/4
f 16/25/4 18/22/4 14/26/4
f 18/22/4 16/25/4 20/27/4
f 13/28/4 10/29/4 12/30/4
f 19/31/3 20/32/3 6/8/3
f 11/24/4 19/23/4 17/33/4
f 21/34/2 22/35/2 9/36/2
f 14/26/4 11/24/4 23/37/4
f 11/24/4 17/33/4 23/37/4
f 11/38/5 13/39/5 12/40/5
f 20/32/6 21/41/6 9/13/6
f 24/42/2 25/43/2 26/44/2
f 14/45/6 10/46/6 15/47/6
f 25/48/6 8/49/6 4/50/6
f 22/51/5 2/52/5 5/53/5
f 24/54/3 6/8/3 8/12/3
f 26/55/1 25/56/1 4/10/1
f 27/57/1 21/58/1 2/2/1
f 14/26/4 17/33/4 16/25/4
f 17/21/1 1/1/1 3/3/1
f 1/1/1 26/55/1 4/10/1
f 9/13/3 22/59/3 5/7/3
f 28/60/3 24/54/3 8/12/3
f 21/58/1 3/3/1 2/2/1
f 20/32/3 7/9/3 6/8/3
f 19/61/5 26/62/5 17/63/5
f 7/9/3 20/32/3 9/13/3
f 10/14/3 18/64/3 11/15/3
f 13/17/1 23/65/1 14/18/1
f 18/22/4 20/27/4 19/23/4
f 13/28/4 15/66/4 10/29/4
f 21/34/2 27/67/2 22/35/2
f 14/26/4 18/22/4 11/24/4
f 11/38/5 23/68/5 13/39/5
f 20/32/6 16/69/6 21/41/6
f 24/42/2 28/70/2 25/43/2
f 14/45/6 18/71/6 10/46/6
f 25/48/6 28/72/6 8/49/6
f 22/51/5 27/73/5 2/52/5
f 24/54/3 19/31/3 6/8/3
f 14/26/4 23/37/4 17/33/4
f 1/1/1 17/21/1 26/55/1
f 21/58/1 16/20/1 3/3/1
f 19/61/5 24/74/5 26/62/5
