# Blender v2.79 (sub 7) OBJ File: ''
# www.blender.org
mtllib roadTile_027.mtl
o Mesh1_Group1_Model.109
v 0.750000 0.600000 0.000000
v 0.750000 0.300000 0.000000
v 3.000000 0.300000 0.000000
v 3.000000 0.600000 0.000000
v 3.000000 0.300000 -3.000000
v 3.000000 0.600000 -3.000000
v 0.750000 0.300000 -3.000000
v 0.750000 0.600000 -3.000000
v 0.375000 0.630000 0.000000
v 0.375000 0.550000 0.000000
v 0.375000 0.000000 0.000000
v 3.000000 0.000000 0.000000
v 0.750000 0.630000 0.000000
v 0.375000 0.630000 -3.000000
v 0.375000 0.550000 -3.000000
v 0.750000 0.630000 -3.000000
v 3.000000 0.000000 -3.000000
v 0.375000 0.000000 -3.000000
v 0.000000 0.000000 0.000000
v 0.000000 0.000000 -3.000000
v 0.000000 0.550000 0.000000
v 0.000000 0.550000 -3.000000
vt 0.750000 0.300000
vt 3.000000 0.600000
vt 0.750000 0.600000
vt 0.000000 0.300000
vt 3.000000 0.600000
vt 0.000000 0.600000
vt -3.000000 0.300000
vt -0.750000 0.600000
vt -3.000000 0.600000
vt 3.000000 3.000000
vt 0.750000 0.000000
vt 3.000000 0.000000
vt 3.000000 0.300000
vt 3.000000 0.300000
vt -0.750000 0.300000
vt 0.750000 3.000000
vt 0.375000 0.550000
vt 0.375000 0.000000
vt -3.000000 0.630000
vt -0.000000 0.550000
vt -0.000000 0.630000
vt 0.375000 3.000000
vt 0.750000 0.000000
vt 0.750000 3.000000
vt -0.375000 0.630000
vt -0.750000 0.630000
vt 0.000000 0.000000
vt 3.000000 0.000000
vt 0.000000 0.630000
vt 3.000000 0.600000
vt 3.000000 0.630000
vt 0.750000 0.630000
vt 0.375000 0.630000
vt 3.000000 0.000000
vt -3.000000 0.550000
vt 0.375000 0.000000
vt -3.000000 0.000000
vt -0.375000 0.000000
vt -0.375000 0.550000
vt 0.000000 0.600000
vt -0.375000 0.000000
vt -0.000000 3.000000
vt -0.375000 3.000000
vt 0.000000 0.550000
vt -0.000000 0.000000
vt 0.375000 0.000000
vt 0.000000 3.000000
vt 0.000000 0.000000
vt 0.000000 0.000000
vt 0.000000 0.550000
vt -3.000000 0.550000
vt -3.000000 0.000000
vt -3.000000 3.000000
vt -3.000000 0.000000
vt 0.375000 3.000000
vn -0.0000 -0.0000 1.0000
vn 1.0000 0.0000 0.0000
vn 0.0000 0.0000 -1.0000
vn 0.0000 1.0000 0.0000
vn -1.0000 -0.0000 0.0000
vn 0.0000 -1.0000 -0.0000
usemtl Asphalt.070
s 1
f 2/1/1 4/2/1 1/3/1
f 3/4/2 6/5/2 4/6/2
f 5/7/3 8/8/3 6/9/3
f 6/10/4 1/11/4 4/12/4
f 2/1/1 3/13/1 4/2/1
f 3/4/2 5/14/2 6/5/2
f 5/7/3 7/15/3 8/8/3
f 6/10/4 8/16/4 1/11/4
usemtl Stone.088
f 2/1/1 10/17/1 11/18/1
f 14/19/5 10/20/5 9/21/5
f 14/22/4 13/23/4 16/24/4
f 14/25/3 16/26/3 8/8/3
f 5/14/2 12/27/2 17/28/2
f 13/29/2 8/30/2 16/31/2
f 13/32/1 9/33/1 1/3/1
f 9/33/1 10/17/1 1/3/1
f 11/18/1 12/34/1 2/1/1
f 12/34/1 3/13/1 2/1/1
f 2/1/1 1/3/1 10/17/1
f 14/19/5 15/35/5 10/20/5
f 14/22/4 9/36/4 13/23/4
f 5/7/3 17/37/3 7/15/3
f 17/37/3 18/38/3 7/15/3
f 18/38/3 15/39/3 7/15/3
f 15/39/3 14/25/3 8/8/3
f 7/15/3 15/39/3 8/8/3
f 5/14/2 3/4/2 12/27/2
f 13/29/2 1/40/2 8/30/2
usemtl Grass.052
f 11/41/6 20/42/6 18/43/6
f 11/18/1 21/44/1 19/45/1
f 10/46/4 22/47/4 21/48/4
f 15/39/3 20/49/3 22/50/3
f 19/45/5 22/51/5 20/52/5
f 18/43/6 17/53/6 12/54/6
f 11/41/6 19/45/6 20/42/6
f 18/43/6 12/54/6 11/41/6
f 11/18/1 10/17/1 21/44/1
f 10/46/4 15/55/4 22/47/4
f 15/39/3 18/38/3 20/49/3
f 19/45/5 21/44/5 22/51/5
