# Blender v2.79 (sub 7) OBJ File: ''
# www.blender.org
mtllib roadTile_210.mtl
o Mesh1_Group1_Model.154
v 0.375001 1.730000 0.000000
v 0.375001 1.730000 -0.375000
v 0.375000 0.000000 -0.375000
v 0.375000 0.000000 0.000000
v 0.375001 1.730000 -2.250000
v 0.375001 1.730000 -0.750000
v 0.000001 1.730000 -0.750000
v 0.000001 1.730000 -0.375000
v 0.750001 1.730000 0.000000
v 0.750001 1.730000 -3.000000
v 0.375001 1.730000 -3.000000
v 0.375001 1.730000 -2.625000
v 0.000001 1.730000 -2.625000
v 0.000001 1.730000 -2.250000
v 0.375001 1.400000 -0.750000
v 0.375001 1.400000 -2.250000
v 2.625000 1.400000 -0.750000
v 2.625000 1.730000 -0.750000
v 3.000000 1.730000 -0.750000
v 3.000000 0.600000 -0.750000
v 0.000001 0.600000 -0.750000
v 2.625000 1.400000 -2.250000
v 2.625000 1.730000 -2.250000
v 3.000000 0.600000 -2.250000
v 3.000000 1.730000 -2.250000
v 0.000001 0.600000 -2.250000
v 3.000000 1.730000 -0.375000
v 3.000000 0.000000 -0.375000
v 3.000000 0.000000 -2.625000
v 3.000000 1.730000 -2.625000
v 3.000000 0.300000 -2.250000
v 3.000000 0.300000 -0.750000
v 2.625000 0.000000 -0.375000
v 2.625000 1.730000 -0.375000
v 2.625000 1.730000 -2.625000
v 2.625000 1.730000 -3.000000
v 2.250000 1.730000 -3.000000
v 2.250000 1.730000 0.000000
v 2.625000 1.730000 0.000000
v 2.625000 0.000000 -2.625000
v 2.625000 0.000000 -3.000000
v 0.375001 0.000000 -3.000000
v 0.750001 1.700000 -3.000000
v 0.750001 1.400000 -3.000000
v 2.250000 1.400000 -3.000000
v 2.250000 1.700000 -3.000000
v 0.375001 0.000000 -2.625000
v 0.000001 0.000000 -2.625000
v 0.000000 0.000000 -0.375000
v 0.000001 0.300000 -0.750000
v 0.000001 0.300000 -2.250000
v 0.750001 1.700000 0.000000
v 2.625000 0.000000 0.000000
v 2.250000 1.700000 0.000000
v 2.250000 1.400000 0.000000
v 0.750001 1.400000 0.000000
vt -0.375000 1.730000
vt -0.000000 0.000000
vt -0.000000 1.730000
vt 0.375001 2.250000
vt 0.750001 3.000000
vt 0.375001 2.625000
vt -0.750000 1.730000
vt -2.250000 1.400000
vt -0.750000 1.400000
vt -2.625000 1.400000
vt -3.000000 0.600000
vt -0.000001 0.600000
vt 2.250000 1.730000
vt 0.750000 1.400000
vt 2.250000 1.400000
vt 3.000000 0.600000
vt 0.375001 1.400000
vt 0.000001 0.600000
vt 0.375000 -0.000000
vt 2.625000 -0.000000
vt 2.250000 0.300000
vt 3.000000 0.000000
vt 2.625000 1.730000
vt 2.625000 0.000000
vt 2.625000 0.375000
vt 2.625000 0.750000
vt 2.250000 0.000000
vt -2.625000 -0.000000
vt -3.000000 1.730000
vt -3.000000 -0.000000
vt 2.625000 1.730000
vt 3.000000 -0.000000
vt 3.000000 1.730000
vt -0.375001 -0.000000
vt -2.250000 1.400000
vt -2.625000 -0.000000
vt -2.625000 1.730000
vt -3.000000 0.000000
vt -2.625000 0.000000
vt -0.000000 -0.000000
vt -0.375001 1.730000
vt -0.375001 -0.000000
vt -2.625000 0.000000
vt -0.375000 0.000000
vt -2.250000 0.300000
vt 0.375000 0.000000
vt 0.000001 1.730000
vt -0.000000 0.000000
vt 3.000000 1.730000
vt -0.000000 1.700000
vt 3.000000 1.700000
vt 2.625000 0.000000
vt 0.750001 1.400000
vt 0.375000 -0.000000
vt 0.375000 1.730000
vt 0.000001 -0.000001
vt 0.375001 -0.000001
vt -3.000000 1.700000
vt 0.000000 1.730000
vt -3.000000 1.730000
vt -2.625000 0.750000
vt -0.375001 2.250000
vt -2.625000 2.250000
vt -0.375000 0.000000
vt 0.375001 0.750000
vt 0.000001 0.750000
vt 0.000001 0.375000
vt 0.375001 0.375000
vt 0.375001 0.000000
vt 0.750001 0.000000
vt 0.000001 2.625000
vt 0.000001 2.250000
vt 0.375001 3.000000
vt -2.250000 1.730000
vt -2.625000 1.730000
vt -3.000000 1.730000
vt -0.000001 1.730000
vt -0.375001 1.400000
vt -0.375001 1.730000
vt 0.750000 1.730000
vt 3.000000 1.730000
vt 2.625000 1.400000
vt 2.625000 1.730000
vt 0.375001 1.730000
vt 0.000001 1.730000
vt 0.750000 1.730000
vt 0.375000 1.730000
vt 0.750000 0.600000
vt 2.625000 1.730000
vt 2.250000 0.600000
vt 2.250000 1.730000
vt 0.750000 0.300000
vt 3.000000 1.730000
vt 2.625000 2.250000
vt 3.000000 2.250000
vt 3.000000 2.625000
vt 2.625000 2.625000
vt 2.625000 3.000000
vt 2.250000 3.000000
vt 3.000000 0.375000
vt 3.000000 0.750000
vt 2.625000 0.000000
vt -2.625000 1.730000
vt 2.625000 -0.000000
vt -0.375001 1.730000
vt -0.750001 1.400000
vt -0.750001 1.730000
vt -0.750001 1.700000
vt -2.250000 1.730000
vt -2.625000 1.730000
vt -2.250000 1.700000
vt -3.000000 1.730000
vt -0.000001 1.730000
vt -0.375000 1.730000
vt -0.750000 0.600000
vt -0.750000 1.730000
vt -0.750000 0.300000
vt -2.250000 1.730000
vt -2.625000 1.730000
vt -2.250000 0.600000
vt 0.375001 1.730000
vt -0.000000 1.730000
vt 2.625000 1.730000
vt 2.250000 1.400000
vt 2.250000 1.730000
vt 2.250000 1.700000
vt 0.750001 1.700000
vt 0.375001 1.730000
vt 0.750001 1.730000
vt 0.000000 1.730000
vt 0.000000 1.700000
vt -0.375001 0.750000
vt 0.000001 0.750000
vt 3.000000 2.250000
vt 0.000001 2.250000
vt 0.750001 3.000000
vt 2.250000 0.000000
vt 2.250000 3.000000
vt 3.000000 0.750000
vt 0.750001 0.000000
vn -1.0000 0.0000 0.0000
vn 0.0000 1.0000 0.0000
vn 0.0000 0.0000 -1.0000
vn 1.0000 0.0000 0.0000
vn 0.0000 0.0000 1.0000
vn 0.0000 -1.0000 -0.0000
usemtl Stone.130
s 1
f 2/1/1 4/2/1 1/3/1
f 5/4/2 10/5/2 12/6/2
f 6/7/1 16/8/1 15/9/1
f 17/10/3 20/11/3 21/12/3
f 23/13/4 17/14/4 22/15/4
f 24/16/5 16/17/5 26/18/5
f 28/19/4 29/20/4 31/21/4
f 28/22/5 34/23/5 33/24/5
f 34/25/2 18/26/2 38/27/2
f 40/28/3 30/29/3 29/30/3
f 35/31/4 41/32/4 36/33/4
f 42/34/3 45/35/3 41/36/3
f 12/37/1 42/38/1 47/39/1
f 48/40/3 12/41/3 47/42/3
f 48/43/1 49/44/1 51/45/1
f 3/46/5 8/47/5 49/48/5
f 10/49/4 52/50/4 43/51/4
f 53/52/5 56/53/5 4/54/5
f 34/55/4 53/56/4 33/57/4
f 46/58/1 38/59/1 37/60/1
f 17/61/6 16/62/6 22/63/6
f 2/1/1 3/64/1 4/2/1
f 6/65/2 7/66/2 8/67/2
f 2/68/2 1/69/2 9/70/2
f 6/65/2 8/67/2 2/68/2
f 13/71/2 14/72/2 5/4/2
f 5/4/2 6/65/2 10/5/2
f 6/65/2 2/68/2 9/70/2
f 10/5/2 6/65/2 9/70/2
f 10/5/2 11/73/2 12/6/2
f 12/6/2 13/71/2 5/4/2
f 6/7/1 5/74/1 16/8/1
f 17/10/3 18/75/3 19/76/3
f 21/12/3 7/77/3 15/78/3
f 7/77/3 6/79/3 15/78/3
f 17/10/3 19/76/3 20/11/3
f 21/12/3 15/78/3 17/10/3
f 23/13/4 18/80/4 17/14/4
f 24/16/5 25/81/5 22/82/5
f 25/81/5 23/83/5 22/82/5
f 5/84/5 14/85/5 16/17/5
f 14/85/5 26/18/5 16/17/5
f 24/16/5 22/82/5 16/17/5
f 19/86/4 27/87/4 20/88/4
f 27/87/4 28/19/4 20/88/4
f 29/20/4 30/89/4 24/90/4
f 30/89/4 25/91/4 24/90/4
f 24/90/4 31/21/4 29/20/4
f 32/92/4 20/88/4 28/19/4
f 31/21/4 32/92/4 28/19/4
f 28/22/5 27/93/5 34/23/5
f 23/94/2 25/95/2 30/96/2
f 35/97/2 36/98/2 37/99/2
f 23/94/2 30/96/2 35/97/2
f 27/100/2 19/101/2 18/26/2
f 23/94/2 35/97/2 37/99/2
f 34/25/2 27/100/2 18/26/2
f 18/26/2 23/94/2 37/99/2
f 37/99/2 38/27/2 18/26/2
f 38/27/2 39/102/2 34/25/2
f 40/28/3 35/103/3 30/29/3
f 35/31/4 40/104/4 41/32/4
f 42/34/3 11/105/3 44/106/3
f 11/105/3 10/107/3 43/108/3
f 43/108/3 44/106/3 11/105/3
f 37/109/3 36/110/3 46/111/3
f 36/110/3 41/36/3 45/35/3
f 46/111/3 36/110/3 45/35/3
f 42/34/3 44/106/3 45/35/3
f 12/37/1 11/112/1 42/38/1
f 48/40/3 13/113/3 12/41/3
f 49/44/1 8/114/1 21/115/1
f 8/114/1 7/116/1 21/115/1
f 21/115/1 50/117/1 49/44/1
f 14/118/1 13/119/1 26/120/1
f 13/119/1 48/43/1 26/120/1
f 51/45/1 26/120/1 48/43/1
f 49/44/1 50/117/1 51/45/1
f 3/46/5 2/121/5 8/47/5
f 10/49/4 9/122/4 52/50/4
f 53/52/5 39/123/5 55/124/5
f 39/123/5 38/125/5 54/126/5
f 54/126/5 55/124/5 39/123/5
f 56/53/5 52/127/5 1/128/5
f 52/127/5 9/129/5 1/128/5
f 53/52/5 55/124/5 56/53/5
f 56/53/5 1/128/5 4/54/5
f 34/55/4 39/130/4 53/56/4
f 46/58/1 54/131/1 38/59/1
f 17/61/6 15/132/6 16/62/6
usemtl Asphalt.102
f 51/45/1 21/115/1 26/120/1
f 21/133/2 24/134/2 26/135/2
f 32/92/4 24/90/4 20/88/4
f 43/136/2 54/137/2 46/138/2
f 46/111/3 44/106/3 43/108/3
f 52/127/5 55/124/5 54/126/5
f 51/45/1 50/117/1 21/115/1
f 21/133/2 20/139/2 24/134/2
f 32/92/4 31/21/4 24/90/4
f 43/136/2 52/140/2 54/137/2
f 46/111/3 45/35/3 44/106/3
f 52/127/5 56/53/5 55/124/5
