# Blender v2.79 (sub 7) OBJ File: ''
# www.blender.org
mtllib roadTile_082.mtl
o Mesh1_Group1_Model.020
v 3.000000 0.600000 -3.000000
v 3.000000 0.300000 -3.000000
v 0.750000 0.300000 -3.000000
v 0.750000 0.600000 -3.000000
v 3.000000 0.600000 -0.750000
v 3.000000 0.300000 -0.750000
v 0.769249 0.600000 -2.706320
v 0.826667 0.600000 -2.417660
v 0.921271 0.600000 -2.138960
v 1.051440 0.600000 -1.875000
v 1.214950 0.600000 -1.630290
v 1.409010 0.600000 -1.409010
v 1.630290 0.600000 -1.214950
v 1.875000 0.600000 -1.051440
v 2.138960 0.600000 -0.921271
v 2.417660 0.600000 -0.826667
v 2.706320 0.600000 -0.769249
v 3.000000 1.730000 -0.750000
v 3.000000 1.730000 0.000000
v 3.000000 0.000000 0.000000
v 3.000000 0.000000 -3.000000
v 2.706320 1.730000 -0.769249
v 0.750000 1.730000 -3.000000
v 0.769249 1.730000 -2.706320
v 0.000000 0.000000 -3.000000
v 0.000000 1.730000 -3.000000
v 0.000000 0.000000 0.000000
v 0.000000 1.730000 0.000000
v 2.417660 1.730000 -0.826667
v 2.138960 1.730000 -0.921271
v 1.875000 1.730000 -1.051440
v 1.630290 1.730000 -1.214950
v 1.409010 1.730000 -1.409010
v 1.214950 1.730000 -1.630290
v 1.051440 1.730000 -1.875000
v 0.921271 1.730000 -2.138960
v 0.826667 1.730000 -2.417660
vt -3.000000 0.300000
vt -0.750000 0.600000
vt -3.000000 0.600000
vt 0.750000 0.300000
vt 3.000000 0.600000
vt 0.750000 0.600000
vt 2.417660 0.826667
vt 2.706320 0.769249
vt 3.000000 3.000000
vt -0.750000 0.300000
vt 3.000000 0.300000
vt 3.000000 0.750000
vt 0.750000 3.000000
vt 0.769249 2.706320
vt 0.826667 2.417660
vt 0.921271 2.138960
vt 1.051440 1.875000
vt 1.214950 1.630290
vt 1.409010 1.409010
vt 1.630290 1.214950
vt 1.875000 1.051440
vt 2.138960 0.921271
vt -0.000000 1.730000
vt -0.000000 0.000000
vt -2.650210 0.600000
vt -2.944520 1.730000
vt -2.944520 0.600000
vt 2.944520 0.600000
vt 2.650210 1.730000
vt 2.650210 0.600000
vt -3.000000 -0.000000
vt -0.000000 -0.000000
vt 0.000000 3.000000
vt -3.000000 0.000000
vt -0.000000 0.000000
vt -3.000000 0.000000
vt 0.000000 1.730000
vt -3.000000 1.730000
vt 3.000000 -0.000000
vt 1.409010 1.409010
vt 1.214950 1.630290
vt 0.000000 0.000000
vt -2.209930 0.600000
vt -2.504240 1.730000
vt -2.504240 0.600000
vt -1.729310 0.600000
vt -2.023630 1.730000
vt -2.023630 0.600000
vt -1.216600 0.600000
vt -1.510910 1.730000
vt -1.510910 0.600000
vt -0.680541 0.600000
vt -0.974855 1.730000
vt -0.974855 0.600000
vt -0.130325 0.600000
vt -0.424639 1.730000
vt -0.424639 0.600000
vt 0.424639 0.600000
vt 0.130325 1.730000
vt 0.130325 0.600000
vt 0.974855 0.600000
vt 0.680541 1.730000
vt 0.680541 0.600000
vt 1.510910 0.600000
vt 1.216600 1.730000
vt 1.216600 0.600000
vt 2.023630 0.600000
vt 1.729310 1.730000
vt 1.729310 0.600000
vt 2.504240 0.600000
vt 2.209930 1.730000
vt 2.209930 0.600000
vt 3.000000 0.000000
vt 0.750000 1.730000
vt -2.650210 1.730000
vt 2.944520 1.730000
vt -0.750000 1.730000
vt -0.000000 1.730000
vt -3.000000 3.000000
vt 3.000000 1.730000
vt 3.000000 0.000000
vt 2.138960 0.921271
vt 3.000000 0.750000
vt 2.706320 0.769249
vt 2.417660 0.826667
vt 0.750000 3.000000
vt 0.000000 3.000000
vt 0.769249 2.706320
vt 0.921271 2.138960
vt 0.826667 2.417660
vt 1.875000 1.051440
vt 1.630290 1.214950
vt 1.051440 1.875000
vt -2.209930 1.730000
vt -1.729310 1.730000
vt -1.216600 1.730000
vt -0.680541 1.730000
vt -0.130325 1.730000
vt 0.424639 1.730000
vt 0.974855 1.730000
vt 1.510910 1.730000
vt 2.023630 1.730000
vt 2.504240 1.730000
vn 0.0000 0.0000 -1.0000
vn 1.0000 0.0000 0.0000
vn -0.0000 1.0000 0.0000
vn 0.1305 0.0000 -0.9914
vn 0.0654 0.0000 -0.9979
vn 0.9979 0.0000 -0.0654
vn 0.9914 0.0000 -0.1305
vn 0.0000 -1.0000 -0.0000
vn -1.0000 0.0000 0.0000
vn 0.0000 -0.0000 1.0000
vn 0.2588 -0.0000 -0.9659
vn 0.3827 0.0000 -0.9239
vn 0.5000 0.0000 -0.8660
vn 0.6088 0.0000 -0.7934
vn 0.7071 0.0000 -0.7071
vn 0.7934 0.0000 -0.6088
vn 0.8660 0.0000 -0.5000
vn 0.9239 0.0000 -0.3827
vn 0.9659 0.0000 -0.2588
usemtl Asphalt.010
s 1
f 2/1/1 4/2/1 1/3/1
f 6/4/2 1/5/2 5/6/2
f 16/7/3 17/8/3 1/9/3
f 2/1/1 3/10/1 4/2/1
f 6/4/2 2/11/2 1/5/2
f 5/12/3 1/9/3 17/8/3
f 1/9/3 4/13/3 7/14/3
f 8/15/3 1/9/3 7/14/3
f 8/15/3 9/16/3 1/9/3
f 9/16/3 10/17/3 1/9/3
f 10/17/3 11/18/3 1/9/3
f 11/18/3 12/19/3 1/9/3
f 12/19/3 13/20/3 1/9/3
f 13/20/3 14/21/3 1/9/3
f 14/21/3 15/22/3 1/9/3
f 15/22/3 16/7/3 1/9/3
usemtl Stone.016
f 5/6/2 19/23/2 20/24/2
f 17/25/4 18/26/5 5/27/5
f 4/28/6 24/29/7 7/30/7
f 3/10/1 21/31/1 25/32/1
f 25/33/8 20/34/8 27/35/8
f 25/36/9 28/37/9 26/38/9
f 20/39/10 28/37/10 27/35/10
f 33/40/3 34/41/3 28/42/3
f 16/43/11 22/44/4 17/45/4
f 15/46/12 29/47/11 16/48/11
f 14/49/13 30/50/12 15/51/12
f 13/52/14 31/53/13 14/54/13
f 12/55/15 32/56/14 13/57/14
f 11/58/16 33/59/15 12/60/15
f 10/61/17 34/62/16 11/63/16
f 9/64/18 35/65/17 10/66/17
f 8/67/19 36/68/18 9/69/18
f 7/70/7 37/71/19 8/72/19
f 21/73/2 2/11/2 6/4/2
f 5/6/2 18/74/2 19/23/2
f 20/24/2 21/73/2 6/4/2
f 6/4/2 5/6/2 20/24/2
f 17/25/4 22/75/4 18/26/5
f 4/28/6 23/76/6 24/29/7
f 23/77/1 4/2/1 26/78/1
f 4/2/1 3/10/1 25/32/1
f 3/10/1 2/1/1 21/31/1
f 25/32/1 26/78/1 4/2/1
f 25/33/8 21/79/8 20/34/8
f 25/36/9 27/35/9 28/37/9
f 20/39/10 19/80/10 28/37/10
f 28/42/3 19/81/3 30/82/3
f 19/81/3 18/83/3 22/84/3
f 19/81/3 22/84/3 29/85/3
f 23/86/3 26/87/3 24/88/3
f 26/87/3 28/42/3 36/89/3
f 24/88/3 26/87/3 37/90/3
f 37/90/3 26/87/3 36/89/3
f 19/81/3 29/85/3 30/82/3
f 28/42/3 30/82/3 31/91/3
f 28/42/3 31/91/3 32/92/3
f 35/93/3 36/89/3 28/42/3
f 34/41/3 35/93/3 28/42/3
f 28/42/3 32/92/3 33/40/3
f 16/43/11 29/94/11 22/44/4
f 15/46/12 30/95/12 29/47/11
f 14/49/13 31/96/13 30/50/12
f 13/52/14 32/97/14 31/53/13
f 12/55/15 33/98/15 32/56/14
f 11/58/16 34/99/16 33/59/15
f 10/61/17 35/100/17 34/62/16
f 9/64/18 36/101/18 35/65/17
f 8/67/19 37/102/19 36/68/18
f 7/70/7 24/103/7 37/71/19
