# Blender v2.79 (sub 7) OBJ File: ''
# www.blender.org
mtllib roadTile_194.mtl
o Mesh1_Group1_Model.155
v 2.250000 1.700000 0.000000
v 0.750000 1.700000 0.000000
v 0.750000 1.400000 0.000000
v 2.250000 1.400000 0.000000
v 2.250000 1.700000 -3.000000
v 0.750000 1.700000 -3.000000
v 2.250000 1.400000 -3.000000
v 0.750000 1.400000 -3.000000
v 0.000000 0.600000 -2.250000
v 0.000000 0.300000 -2.250000
v 0.000000 0.300000 -0.750000
v 0.000000 0.600000 -0.750000
v 3.000000 0.600000 -0.750000
v 3.000000 0.600000 -2.250000
v 3.000000 0.300000 -0.750000
v 3.000000 0.300000 -2.250000
v 0.750000 1.730000 -3.000000
v 2.250000 1.730000 -3.000000
v 2.625000 1.730000 -3.000000
v 2.625000 1.650000 -3.000000
v 2.625000 1.100000 -3.000000
v 0.375000 1.100000 -3.000000
v 0.375000 1.650000 -3.000000
v 0.375000 1.730000 -3.000000
v 0.750000 1.730000 0.000000
v 0.375000 1.730000 -2.250000
v 0.375000 1.730000 -0.750000
v 0.000000 1.730000 -0.750000
v 0.000000 1.730000 -0.375000
v 0.375000 1.730000 -0.375000
v 0.375000 1.730000 0.000000
v 0.375000 1.730000 -2.625000
v 0.000000 1.730000 -2.625000
v 0.000000 1.730000 -2.250000
v 0.375000 1.400000 -0.750000
v 0.375000 1.400000 -2.250000
v 2.625000 1.400000 -0.750000
v 2.625000 1.730000 -0.750000
v 3.000000 1.730000 -0.750000
v 2.625000 1.400000 -2.250000
v 2.625000 1.730000 -2.250000
v 3.000000 1.730000 -2.250000
v 3.000000 1.650000 -0.375000
v 3.000000 0.000000 -0.375000
v 3.000000 0.000000 -2.625000
v 3.000000 1.650000 -2.625000
v 3.000000 1.730000 -2.625000
v 3.000000 1.730000 -0.375000
v 2.625000 1.650000 -0.375000
v 2.625000 1.730000 -0.375000
v 2.625000 1.730000 -2.625000
v 2.250000 1.730000 0.000000
v 2.625000 1.730000 0.000000
v 2.625000 1.650000 -2.625000
v 0.000000 0.000000 -2.625000
v 0.000000 0.000000 -0.375000
v 0.000000 1.650000 -0.375000
v 0.000000 1.650000 -2.625000
v 0.375000 1.650000 -0.375000
v 0.375000 1.650000 0.000000
v 0.375000 1.100000 0.000000
v 2.625000 1.100000 0.000000
v 2.625000 1.650000 0.000000
v 0.375000 1.650000 -2.625000
v 3.000000 0.000000 0.000000
v 3.000000 1.650000 0.000000
v 0.000000 0.000000 0.000000
v 0.000000 0.000000 -3.000000
v 3.000000 0.000000 -3.000000
v 0.000000 1.650000 0.000000
v 3.000000 1.650000 -3.000000
v 0.000000 1.650000 -3.000000
vt 0.750000 1.700000
vt 2.250000 1.400000
vt 2.250000 1.700000
vt 0.750000 3.000000
vt 2.250000 0.000000
vt 2.250000 3.000000
vt -2.250000 1.700000
vt -0.750000 1.400000
vt -0.750000 1.700000
vt -2.250000 0.300000
vt -0.750000 0.600000
vt -2.250000 0.600000
vt 0.000000 0.750000
vt 3.000000 2.250000
vt 0.000000 2.250000
vt 0.750000 0.300000
vt 2.250000 0.600000
vt 0.750000 0.600000
vt 0.750000 1.400000
vt 0.750000 0.000000
vt -2.250000 1.400000
vt -0.750000 0.300000
vt 3.000000 0.750000
vt 2.250000 0.300000
vt -2.625000 1.100000
vt 3.000000 1.730000
vt -0.000000 1.700000
vt 3.000000 1.700000
vt 0.375000 2.625000
vt 0.375000 2.250000
vt 0.750000 3.000000
vt -0.750000 1.730000
vt -2.250000 1.400000
vt -0.750000 1.400000
vt -2.625000 1.400000
vt -3.000000 0.600000
vt -0.000000 0.600000
vt 2.250000 1.730000
vt 0.750000 1.400000
vt 2.250000 1.400000
vt 3.000000 0.600000
vt 0.375000 1.400000
vt 0.000000 0.600000
vt 0.375000 -0.000000
vt 2.625000 -0.000000
vt 3.000000 1.650000
vt 2.625000 1.730000
vt 2.625000 1.650000
vt 2.625000 0.375000
vt 2.625000 0.750000
vt 2.250000 0.000000
vt -2.625000 1.650000
vt -3.000000 1.730000
vt -3.000000 1.650000
vt 2.625000 1.730000
vt 3.000000 1.650000
vt 3.000000 1.730000
vt -2.625000 0.000000
vt -0.375000 0.000000
vt -0.375000 1.730000
vt -0.000000 1.650000
vt -0.000000 1.730000
vt 0.375000 1.650000
vt 0.000000 1.730000
vt -0.000000 1.650000
vt 0.375000 1.650000
vt 0.375000 1.100000
vt -3.000000 1.700000
vt 0.000000 1.730000
vt -3.000000 1.730000
vt 0.375000 1.730000
vt -0.000000 1.650000
vt 0.375000 1.650000
vt 0.000000 1.650000
vt -0.375000 1.730000
vt -0.375000 1.650000
vt -2.625000 1.730000
vt -3.000000 1.650000
vt -2.625000 1.650000
vt -2.625000 0.750000
vt -0.375000 2.250000
vt -2.625000 2.250000
vt -0.375000 1.730000
vt -0.750000 1.730000
vt -0.375000 1.650000
vt -0.375000 1.100000
vt -2.250000 1.730000
vt -2.625000 1.730000
vt -2.625000 1.650000
vt -0.000000 1.730000
vt 0.375000 0.750000
vt -0.000000 0.750000
vt -0.000000 0.375000
vt 0.375000 0.375000
vt 0.375000 0.000000
vt 0.750000 0.000000
vt -0.000000 2.625000
vt -0.000000 2.250000
vt 0.375000 3.000000
vt -2.250000 1.730000
vt -2.625000 1.730000
vt -3.000000 1.730000
vt -0.000000 1.730000
vt -0.375000 1.400000
vt -0.375000 1.730000
vt 0.750000 1.730000
vt 3.000000 1.730000
vt 2.625000 1.400000
vt 2.625000 1.730000
vt 0.375000 1.730000
vt 0.000000 1.730000
vt 0.375000 1.730000
vt 0.375000 1.650000
vt 0.750000 1.730000
vt 2.625000 1.650000
vt 2.625000 1.730000
vt 2.250000 1.730000
vt 3.000000 1.730000
vt 2.625000 2.250000
vt 3.000000 2.250000
vt 3.000000 2.625000
vt 2.625000 2.625000
vt 2.625000 3.000000
vt 2.250000 3.000000
vt 3.000000 0.375000
vt 3.000000 0.750000
vt 2.625000 0.000000
vt -2.625000 1.730000
vt 2.625000 1.650000
vt -0.375000 1.650000
vt -0.375000 1.730000
vt -0.750000 1.730000
vt -2.625000 1.730000
vt -2.625000 1.650000
vt -2.250000 1.730000
vt -0.375000 1.650000
vt 0.375000 1.730000
vt 2.625000 1.730000
vt 2.250000 1.730000
vt 2.625000 1.650000
vt 0.750000 1.730000
vt 0.375000 1.730000
vt 2.625000 1.100000
vt 0.000000 1.700000
vt -0.000000 1.730000
vt 0.000000 1.730000
vt -3.000000 1.730000
vt -0.375000 0.750000
vt 0.000000 1.650000
vt 0.000000 0.000000
vt -3.000000 2.625000
vt -3.000000 0.375000
vt -0.000000 0.375000
vt -0.000000 0.000000
vt 3.000000 -0.000000
vt 3.000000 0.375000
vt 2.625000 0.000000
vt 3.000000 0.000000
vt 2.625000 2.625000
vt 3.000000 3.000000
vt 2.625000 3.000000
vt 3.000000 0.000000
vt 3.000000 1.650000
vt -3.000000 -0.000000
vt -0.000000 -0.000000
vt -0.000000 2.625000
vt 0.375000 3.000000
vt -0.000000 3.000000
vt -3.000000 1.650000
vt -3.000000 0.000000
vt 0.000000 1.650000
vt 0.374999 0.375000
vt -0.000001 0.000000
vt 0.374999 0.000000
vt -3.000000 0.000000
vt -0.000000 2.625000
vt 0.000000 3.000000
vt -3.000000 3.000000
vt 3.000000 1.650000
vt 2.625000 0.375000
vt 3.000000 2.625000
vt -0.000000 1.650000
vt -3.000000 1.650000
vt 0.375000 2.625000
vt -0.000001 0.375000
vn 0.0000 -0.0000 1.0000
vn 0.0000 1.0000 0.0000
vn 0.0000 0.0000 -1.0000
vn -1.0000 0.0000 0.0000
vn 1.0000 0.0000 0.0000
vn 0.0000 -1.0000 -0.0000
usemtl Asphalt.103
s 1
f 2/1/1 4/2/1 1/3/1
f 6/4/2 1/5/2 5/6/2
f 5/7/3 8/8/3 6/9/3
f 10/10/4 12/11/4 9/12/4
f 12/13/2 14/14/2 9/15/2
f 15/16/5 14/17/5 13/18/5
f 2/1/1 3/19/1 4/2/1
f 6/4/2 2/20/2 1/5/2
f 5/7/3 7/21/3 8/8/3
f 10/10/4 11/22/4 12/11/4
f 12/13/2 13/23/2 14/14/2
f 15/16/5 16/24/5 14/17/5
usemtl Stone.131
f 8/8/3 7/21/3 21/25/3
f 17/26/5 2/27/5 6/28/5
f 32/29/2 26/30/2 17/31/2
f 27/32/4 36/33/4 35/34/4
f 37/35/3 13/36/3 12/37/3
f 41/38/5 37/39/5 40/40/5
f 14/41/1 36/42/1 9/43/1
f 44/44/5 45/45/5 15/16/5
f 43/46/1 50/47/1 49/48/1
f 50/49/2 38/50/2 52/51/2
f 54/52/3 47/53/3 46/54/3
f 51/55/5 20/56/5 19/57/5
f 55/58/4 56/59/4 10/10/4
f 30/60/4 60/61/4 31/62/4
f 59/63/1 29/64/1 57/65/1
f 60/66/1 61/67/1 3/19/1
f 5/68/4 52/69/4 18/70/4
f 50/71/5 63/72/5 49/73/5
f 58/74/3 32/75/3 64/76/3
f 32/77/4 23/78/4 64/79/4
f 37/80/6 36/81/6 40/82/6
f 24/83/3 17/84/3 6/9/3
f 24/83/3 6/9/3 23/85/3
f 6/9/3 8/8/3 23/85/3
f 22/86/3 23/85/3 8/8/3
f 18/87/3 19/88/3 5/7/3
f 19/88/3 20/89/3 5/7/3
f 7/21/3 5/7/3 20/89/3
f 7/21/3 20/89/3 21/25/3
f 22/86/3 8/8/3 21/25/3
f 17/26/5 25/90/5 2/27/5
f 27/91/2 28/92/2 29/93/2
f 30/94/2 31/95/2 25/96/2
f 27/91/2 29/93/2 30/94/2
f 33/97/2 34/98/2 26/30/2
f 27/91/2 30/94/2 25/96/2
f 32/29/2 33/97/2 26/30/2
f 26/30/2 27/91/2 25/96/2
f 25/96/2 17/31/2 26/30/2
f 17/31/2 24/99/2 32/29/2
f 27/32/4 26/100/4 36/33/4
f 37/35/3 38/101/3 39/102/3
f 12/37/3 28/103/3 35/104/3
f 28/103/3 27/105/3 35/104/3
f 37/35/3 39/102/3 13/36/3
f 12/37/3 35/104/3 37/35/3
f 41/38/5 38/106/5 37/39/5
f 14/41/1 42/107/1 40/108/1
f 42/107/1 41/109/1 40/108/1
f 26/110/1 34/111/1 36/42/1
f 34/111/1 9/43/1 36/42/1
f 14/41/1 40/108/1 36/42/1
f 48/112/5 43/113/5 39/114/5
f 43/113/5 44/44/5 13/18/5
f 39/114/5 43/113/5 13/18/5
f 45/45/5 46/115/5 14/17/5
f 46/115/5 47/116/5 42/117/5
f 45/45/5 14/17/5 16/24/5
f 42/117/5 14/17/5 46/115/5
f 15/16/5 13/18/5 44/44/5
f 45/45/5 16/24/5 15/16/5
f 43/46/1 48/118/1 50/47/1
f 41/119/2 42/120/2 47/121/2
f 51/122/2 19/123/2 18/124/2
f 41/119/2 47/121/2 51/122/2
f 48/125/2 39/126/2 38/50/2
f 41/119/2 51/122/2 18/124/2
f 50/49/2 48/125/2 38/50/2
f 38/50/2 41/119/2 18/124/2
f 18/124/2 52/51/2 38/50/2
f 52/51/2 53/127/2 50/49/2
f 54/52/3 51/128/3 47/53/3
f 51/55/5 54/129/5 20/56/5
f 56/59/4 57/130/4 12/11/4
f 57/130/4 29/131/4 28/132/4
f 56/59/4 12/11/4 11/22/4
f 28/132/4 12/11/4 57/130/4
f 33/133/4 58/134/4 34/135/4
f 58/134/4 55/58/4 9/12/4
f 9/12/4 55/58/4 10/10/4
f 9/12/4 34/135/4 58/134/4
f 56/59/4 11/22/4 10/10/4
f 30/60/4 59/136/4 60/61/4
f 59/63/1 30/137/1 29/64/1
f 53/138/1 52/139/1 1/3/1
f 53/138/1 1/3/1 63/140/1
f 1/3/1 4/2/1 63/140/1
f 3/19/1 2/1/1 60/66/1
f 2/1/1 25/141/1 31/142/1
f 62/143/1 63/140/1 4/2/1
f 2/1/1 31/142/1 60/66/1
f 62/143/1 4/2/1 61/67/1
f 4/2/1 3/19/1 61/67/1
f 5/68/4 1/144/4 52/69/4
f 50/71/5 53/145/5 63/72/5
f 58/74/3 33/146/3 32/75/3
f 32/77/4 24/147/4 23/78/4
f 37/80/6 35/148/6 36/81/6
usemtl Grass.070
f 44/44/5 66/149/5 65/150/5
f 45/151/6 44/152/6 56/153/6
f 61/67/1 67/154/1 65/155/1
f 43/156/2 63/157/2 66/158/2
f 54/159/2 71/160/2 20/161/2
f 46/115/5 69/162/5 71/163/5
f 21/25/3 69/164/3 68/165/3
f 58/166/2 23/167/2 72/168/2
f 55/58/4 72/169/4 68/170/4
f 57/130/4 67/154/4 70/171/4
f 59/172/2 70/173/2 60/174/2
f 44/44/5 43/113/5 66/149/5
f 44/152/6 65/175/6 67/154/6
f 56/153/6 55/176/6 45/151/6
f 55/176/6 68/177/6 45/151/6
f 44/152/6 67/154/6 56/153/6
f 68/177/6 69/178/6 45/151/6
f 65/155/1 66/179/1 62/143/1
f 66/179/1 63/140/1 62/143/1
f 60/66/1 70/171/1 61/67/1
f 70/171/1 67/154/1 61/67/1
f 65/155/1 62/143/1 61/67/1
f 43/156/2 49/180/2 63/157/2
f 54/159/2 46/181/2 71/160/2
f 46/115/5 45/45/5 69/162/5
f 68/165/3 72/182/3 22/86/3
f 72/182/3 23/85/3 22/86/3
f 20/89/3 71/183/3 21/25/3
f 71/183/3 69/164/3 21/25/3
f 68/165/3 22/86/3 21/25/3
f 58/166/2 64/184/2 23/167/2
f 55/58/4 58/134/4 72/169/4
f 57/130/4 56/59/4 67/154/4
f 59/172/2 57/185/2 70/173/2
