# Blender v2.79 (sub 7) OBJ File: ''
# www.blender.org
mtllib roadTile_253.mtl
o Mesh1_Group1_Model.136
v 1.500000 0.000000 -1.500000
v -1.500000 0.550000 -1.500000
v 1.500000 0.550000 -1.500000
v 1.500000 0.550000 -1.125000
v -1.500000 0.550000 -1.125000
v -1.500000 0.000000 -1.125000
v -1.500000 0.000000 -1.500000
v 1.500000 0.000000 -1.125000
v 1.500000 0.000000 0.750000
v 1.500000 0.000000 1.125000
v -1.500000 0.000000 0.750000
v -1.500000 0.550000 1.125000
v -1.500000 0.000000 1.500000
v -1.500000 0.550000 1.500000
v 1.500000 0.550000 1.125000
v 1.500000 0.550000 1.500000
v 1.500000 0.000000 1.500000
v 1.500000 0.000000 -0.750000
v -1.500000 0.000000 -0.750000
v -1.500000 0.000000 1.125000
v 1.500000 0.630000 0.750000
v -1.500000 0.630000 1.125000
v -1.500000 0.630000 0.750000
v -1.500000 0.455000 0.750000
v 1.321990 0.360976 0.750000
v 1.272500 0.394042 0.750000
v 1.500000 0.630000 -0.750000
v 1.321990 0.360976 -0.750000
v 1.366730 0.321734 -0.750000
v 1.500000 0.630000 -1.125000
v -1.500000 0.455000 -0.750000
v -1.500000 0.630000 -0.750000
v 1.500000 0.630000 1.125000
v 1.045000 0.455000 0.750000
v 1.496110 0.059389 0.750000
v 1.484500 0.117763 0.750000
v 1.104390 0.451107 0.750000
v 1.465370 0.174121 0.750000
v 1.439040 0.227500 0.750000
v 1.162760 0.439496 0.750000
v 1.219120 0.420365 0.750000
v 1.405980 0.276986 0.750000
v 1.366730 0.321734 0.750000
v 1.496110 0.059389 -0.750000
v 1.045000 0.455000 -0.750000
v 1.484500 0.117763 -0.750000
v 1.465370 0.174121 -0.750000
v 1.104390 0.451107 -0.750000
v 1.162760 0.439496 -0.750000
v 1.439040 0.227500 -0.750000
v 1.405980 0.276986 -0.750000
v 1.219120 0.420365 -0.750000
v 1.272500 0.394042 -0.750000
v -1.500000 0.630000 -1.125000
vt -3.000000 0.000000
vt -0.000000 0.550000
vt -3.000000 0.550000
vt 2.625000 0.550000
vt 3.000000 0.000000
vt 3.000000 0.550000
vt 0.000000 2.625000
vt 3.000000 3.000000
vt 0.000000 3.000000
vt -2.625000 0.000000
vt -3.000000 0.550000
vt -3.000000 0.000000
vt -0.000000 2.625000
vt -3.000000 3.000000
vt -3.000000 2.625000
vt -3.000000 0.750000
vt -3.000000 0.375000
vt -0.000000 0.750000
vt -0.375000 0.550000
vt -0.000000 -0.000000
vt 0.000000 0.550000
vt 3.000000 0.375000
vt 0.000000 0.000000
vt 3.000000 0.000000
vt 0.375000 0.000000
vt 0.000000 0.550000
vt 0.000000 0.000000
vt 3.000000 0.550000
vt -0.000000 0.000000
vt 2.625000 0.000000
vt 3.000000 2.625000
vt -2.625000 0.550000
vt -3.000000 2.250000
vt -0.000000 2.250000
vt -0.000000 3.000000
vt -3.000000 0.000000
vt -0.000000 0.375000
vt -0.375000 0.000000
vt 0.000000 0.375000
vt 0.375000 0.550000
vt 3.000000 0.000000
vt 0.750000 0.000000
vt 0.750000 0.630000
vt 3.000000 0.550000
vt 0.000000 0.630000
vt 0.000000 0.550000
vt 0.000000 0.375000
vt 3.000000 0.750000
vt 0.000000 0.750000
vt -0.750000 0.455000
vt -3.000000 0.630000
vt -2.821990 0.360976
vt -2.772500 0.394042
vt 3.000000 0.630000
vt 2.821990 0.360976
vt 2.866730 0.321734
vt 2.625000 0.630000
vt 2.250000 0.630000
vt -0.000000 0.550000
vt -3.000000 0.630000
vt -3.000000 0.550000
vt -2.250000 0.455000
vt -2.250000 0.630000
vt 3.000000 2.625000
vt 0.000000 2.250000
vt 3.000000 2.250000
vt 0.375000 0.630000
vt 3.000000 0.630000
vt 3.000000 0.375000
vt -0.375000 0.630000
vt -0.750000 0.630000
vt -0.750000 0.000000
vt -2.545000 0.455000
vt -0.000000 0.455000
vt -0.000000 0.630000
vt -3.000000 0.000000
vt -2.996110 0.059389
vt -2.984500 0.117763
vt -2.604390 0.451107
vt -2.965370 0.174121
vt -2.939040 0.227500
vt -2.662760 0.439496
vt -2.719120 0.420365
vt -2.905980 0.276986
vt -2.866730 0.321734
vt 2.996110 0.059389
vt 3.000000 0.000000
vt 0.000000 0.630000
vt 2.545000 0.455000
vt 0.000000 0.455000
vt 2.984500 0.117763
vt 2.965370 0.174121
vt 2.604390 0.451107
vt 2.662760 0.439496
vt 2.939040 0.227500
vt 2.905980 0.276986
vt 2.719120 0.420365
vt 2.772500 0.394042
vt 2.250000 0.000000
vt -0.000000 0.630000
vt -2.625000 0.630000
vt -2.250000 0.000000
vt 0.000000 2.625000
vt 0.750000 -2.569310
vt 2.250000 -2.509790
vt 0.750000 -2.509790
vt 0.750000 -2.525860
vt 2.250000 -2.466340
vt 0.750000 -2.466340
vt 0.750000 -2.439700
vt 2.250000 -2.380180
vt 0.750000 -2.380180
vt 0.750000 -2.312300
vt 2.250000 -2.252780
vt 0.750000 -2.252780
vt 0.750000 -2.145850
vt 2.250000 -2.086330
vt 0.750000 -2.086330
vt 0.750000 -1.943190
vt 2.250000 -1.883670
vt 0.750000 -1.883670
vt 0.750000 -1.707790
vt 2.250000 -1.648280
vt 0.750000 -1.648280
vt 0.750000 -1.443680
vt 2.250000 -1.384170
vt 0.750000 -1.384170
vt 0.750000 -1.155380
vt 2.250000 -1.095870
vt 0.750000 -1.095870
vt 0.750000 -0.847822
vt 2.250000 -0.788305
vt 0.750000 -0.788305
vt 0.750000 -0.526263
vt 2.250000 -0.466746
vt 0.750000 -0.466746
vt 0.750000 -0.196209
vt 2.250000 -0.136693
vt 0.750000 -0.136693
vt 2.545000 0.750000
vt 0.000000 2.250000
vt 0.000000 0.750000
vt 2.250000 -2.569310
vt 2.250000 -2.525860
vt 2.250000 -2.439700
vt 2.250000 -2.312300
vt 2.250000 -2.145850
vt 2.250000 -1.943190
vt 2.250000 -1.707790
vt 2.250000 -1.443680
vt 2.250000 -1.155380
vt 2.250000 -0.847822
vt 2.250000 -0.526263
vt 2.250000 -0.196209
vt 2.545000 2.250000
vn 0.0000 0.0000 -1.0000
vn 1.0000 0.0000 0.0000
vn 0.0000 1.0000 0.0000
vn -1.0000 0.0000 0.0000
vn 0.0000 -1.0000 -0.0000
vn 0.0000 0.0000 1.0000
vn 0.1305 0.9914 0.0000
vn 0.0327 0.9995 0.0000
vn 0.2588 0.9659 0.0000
vn 0.3827 0.9239 0.0000
vn 0.5000 0.8660 0.0000
vn 0.6088 0.7933 0.0000
vn 0.7071 0.7071 0.0000
vn 0.7934 0.6088 0.0000
vn 0.8660 0.5000 0.0000
vn 0.9239 0.3827 0.0000
vn 0.9659 0.2588 0.0000
vn 0.9914 0.1305 0.0000
vn 0.9979 0.0654 0.0000
usemtl Grass.060
s 1
f 1/1/1 2/2/1 3/3/1
f 4/4/2 1/5/2 3/6/2
f 5/7/3 3/8/3 2/9/3
f 6/10/4 2/11/4 7/12/4
f 6/13/5 1/14/5 8/15/5
f 9/16/5 10/17/5 11/18/5
f 12/19/4 13/20/4 14/21/4
f 15/22/3 14/23/3 16/24/3
f 10/25/2 16/26/2 17/27/2
f 13/20/6 16/28/6 14/21/6
f 1/1/1 7/29/1 2/2/1
f 4/4/2 8/30/2 1/5/2
f 5/7/3 4/31/3 3/8/3
f 6/10/4 5/32/4 2/11/4
f 8/15/5 18/33/5 19/34/5
f 6/13/5 7/35/5 1/14/5
f 8/15/5 19/34/5 6/13/5
f 17/36/5 13/20/5 20/37/5
f 11/18/5 19/34/5 18/33/5
f 17/36/5 20/37/5 10/17/5
f 20/37/5 11/18/5 10/17/5
f 18/33/5 9/16/5 11/18/5
f 12/19/4 20/38/4 13/20/4
f 15/22/3 12/39/3 14/23/3
f 10/25/2 15/40/2 16/26/2
f 13/20/6 17/41/6 16/28/6
usemtl Stone.115
f 15/40/2 9/42/2 21/43/2
f 15/44/6 22/45/6 12/46/6
f 22/47/3 21/48/3 23/49/3
f 24/50/4 20/38/4 12/19/4
f 21/51/1 25/52/1 26/53/1
f 27/54/6 28/55/6 29/56/6
f 4/4/2 30/57/2 27/58/2
f 5/59/1 30/60/1 4/61/1
f 31/62/4 32/63/4 5/32/4
f 30/64/3 32/65/3 27/66/3
f 21/43/2 33/67/2 15/40/2
f 15/40/2 10/25/2 9/42/2
f 15/44/6 33/68/6 22/45/6
f 22/47/3 33/69/3 21/48/3
f 22/70/4 23/71/4 12/19/4
f 23/71/4 24/50/4 12/19/4
f 24/50/4 11/72/4 20/38/4
f 34/73/1 24/74/1 23/75/1
f 21/51/1 9/76/1 35/77/1
f 21/51/1 35/77/1 36/78/1
f 34/73/1 23/75/1 21/51/1
f 37/79/1 34/73/1 21/51/1
f 21/51/1 36/78/1 38/80/1
f 21/51/1 38/80/1 39/81/1
f 40/82/1 37/79/1 21/51/1
f 41/83/1 40/82/1 21/51/1
f 21/51/1 39/81/1 42/84/1
f 21/51/1 42/84/1 43/85/1
f 26/53/1 41/83/1 21/51/1
f 21/51/1 43/85/1 25/52/1
f 44/86/6 18/87/6 27/54/6
f 27/54/6 32/88/6 45/89/6
f 32/88/6 31/90/6 45/89/6
f 46/91/6 44/86/6 27/54/6
f 47/92/6 46/91/6 27/54/6
f 27/54/6 45/89/6 48/93/6
f 27/54/6 48/93/6 49/94/6
f 50/95/6 47/92/6 27/54/6
f 51/96/6 50/95/6 27/54/6
f 27/54/6 49/94/6 52/97/6
f 27/54/6 52/97/6 53/98/6
f 29/56/6 51/96/6 27/54/6
f 27/54/6 53/98/6 28/55/6
f 27/58/2 18/99/2 4/4/2
f 18/99/2 8/30/2 4/4/2
f 5/59/1 54/100/1 30/60/1
f 32/63/4 54/101/4 5/32/4
f 5/32/4 6/10/4 31/62/4
f 6/10/4 19/102/4 31/62/4
f 30/64/3 54/103/3 32/65/3
usemtl Water.025
f 37/104/7 45/105/8 34/106/8
f 40/107/9 48/108/7 37/109/7
f 41/110/10 49/111/9 40/112/9
f 26/113/11 52/114/10 41/115/10
f 25/116/12 53/117/11 26/118/11
f 43/119/13 28/120/12 25/121/12
f 42/122/14 29/123/13 43/124/13
f 39/125/15 51/126/14 42/127/14
f 38/128/16 50/129/15 39/130/15
f 36/131/17 47/132/16 38/133/16
f 35/134/18 46/135/17 36/136/17
f 9/137/19 44/138/18 35/139/18
f 11/72/4 31/62/4 19/102/4
f 34/140/8 31/141/3 24/142/3
f 37/104/7 48/143/7 45/105/8
f 40/107/9 49/144/9 48/108/7
f 41/110/10 52/145/10 49/111/9
f 26/113/11 53/146/11 52/114/10
f 25/116/12 28/147/12 53/117/11
f 43/119/13 29/148/13 28/120/12
f 42/122/14 51/149/14 29/123/13
f 39/125/15 50/150/15 51/126/14
f 38/128/16 47/151/16 50/129/15
f 36/131/17 46/152/17 47/132/16
f 35/134/18 44/153/18 46/135/17
f 9/137/19 18/154/19 44/138/18
f 11/72/4 24/50/4 31/62/4
f 34/140/8 45/155/8 31/141/3
