# Blender v2.79 (sub 7) OBJ File: ''
# www.blender.org
mtllib roadTile_122.mtl
o Mesh1_Group1_Model.016
v 1.902300 0.630000 -2.082340
v 2.127070 0.630000 -2.625000
v 2.127070 0.600000 -2.625000
v 1.902300 0.600000 -2.082340
v 2.575630 0.630000 0.000000
v 2.575630 0.630000 -0.401164
v 2.451830 0.630000 -0.562500
v 2.264520 0.630000 -1.014710
v 2.200630 0.630000 -1.500000
v 2.264520 0.630000 -1.985290
v 2.451830 0.630000 -2.437500
v 2.575630 0.630000 -2.598840
v 2.575630 0.630000 -3.000000
v 2.414820 0.630000 -3.000000
v 1.825630 0.630000 -1.500000
v 1.902300 0.630000 -0.917657
v 2.127070 0.630000 -0.375000
v 2.414820 0.630000 0.000000
v 2.575630 0.000000 0.000000
v 2.575630 0.000000 -0.401164
v 0.323261 0.630000 0.000000
v 0.323261 0.000000 0.000000
v 2.414820 0.600000 0.000000
v 2.414820 0.315000 0.000000
v 0.672705 0.315000 0.000000
v 0.672705 0.600000 0.000000
v 0.672705 0.630000 0.000000
v 0.138874 0.630000 -0.445149
v 0.138874 0.000000 -0.445149
v 0.672705 0.630000 -3.000000
v 0.323261 0.630000 -3.000000
v 0.138874 0.630000 -2.554850
v 0.000000 0.630000 -1.500000
v 0.453408 0.630000 -0.529429
v 0.325630 0.630000 -1.500000
v 0.453408 0.630000 -2.470570
v 2.575630 0.000000 -3.000000
v 0.323261 0.000000 -3.000000
v 0.672705 0.600000 -3.000000
v 0.672705 0.315000 -3.000000
v 2.414820 0.315000 -3.000000
v 2.414820 0.600000 -3.000000
v 0.000000 0.000000 -1.500000
v 0.138874 0.000000 -2.554850
v 2.575630 0.000000 -2.598840
v 2.451830 0.000000 -2.437500
v 2.264520 0.000000 -1.985290
v 2.200630 0.000000 -1.500000
v 2.264520 0.000000 -1.014710
v 2.451830 0.000000 -0.562500
v 0.453408 0.600000 -2.470570
v 0.325630 0.600000 -1.500000
v 0.453408 0.600000 -0.529429
v 2.127070 0.600000 -0.375000
v 1.902300 0.600000 -0.917657
v 1.825630 0.600000 -1.500000
vt -3.239180 0.630000
vt -2.651810 0.600000
vt -2.651810 0.630000
vt 1.902300 0.917657
vt 2.264520 1.014710
vt 2.200630 1.500000
vt -0.000000 0.630000
vt 0.401164 -0.000000
vt 0.401164 0.630000
vt 0.323261 0.000000
vt 2.575630 0.000000
vt 0.672705 0.315000
vt -0.358120 0.630000
vt 0.123706 0.000000
vt 0.123706 0.630000
vt 0.325630 1.500000
vt 0.453408 2.470570
vt 0.138874 2.554850
vt -0.672705 0.315000
vt -2.414820 0.315000
vt -2.575630 0.000000
vt -0.000000 1.500000
vt -2.264520 1.985290
vt -2.200630 1.500000
vt -1.487170 0.630000
vt -0.423214 -0.000000
vt -0.423214 0.630000
vt -2.551120 0.630000
vt -1.487170 -0.000000
vt -2.895350 0.630000
vt -2.413520 0.000000
vt -2.413520 0.630000
vt 3.000000 0.000000
vt 2.598840 0.630000
vt 2.598840 0.000000
vt 3.426380 0.630000
vt 3.629740 0.000000
vt 3.629740 0.630000
vt 2.700760 0.630000
vt 3.190230 -0.000000
vt 3.190230 0.630000
vt 1.774410 0.630000
vt 2.263880 -0.000000
vt 2.263880 0.630000
vt 0.710454 0.630000
vt 1.199930 -0.000000
vt 1.199930 0.630000
vt -0.418594 0.630000
vt 0.070880 -0.000000
vt 0.070880 0.630000
vt -1.249680 0.630000
vt -1.046320 -0.000000
vt -1.046320 0.630000
vt 2.456020 0.630000
vt 3.029070 0.600000
vt 3.029070 0.630000
vt 1.529670 0.630000
vt 2.508620 0.600000
vt 2.508620 0.630000
vt 0.465718 0.630000
vt 1.444660 0.600000
vt 1.444660 0.630000
vt -0.257433 0.630000
vt 0.315616 0.600000
vt 0.315616 0.630000
vt -3.850110 0.630000
vt -3.377430 0.600000
vt -3.377430 0.630000
vt 0.997373 0.630000
vt 1.470050 0.600000
vt 1.470050 0.630000
vt -0.119827 0.630000
vt 0.467541 0.600000
vt 0.467541 0.630000
vt -1.248870 0.630000
vt -0.661507 0.600000
vt -0.661507 0.630000
vt -2.312830 0.630000
vt -1.725460 0.600000
vt -1.725460 0.630000
vt -3.239180 0.600000
vt 2.414820 0.000000
vt 2.575630 -0.000000
vt 2.575630 0.401164
vt 2.127070 0.375000
vt 2.451830 0.562500
vt 1.902300 2.082340
vt 1.825630 1.500000
vt 2.264520 1.985290
vt 2.414820 3.000000
vt 2.127070 2.625000
vt 2.575630 2.598840
vt 2.575630 3.000000
vt 2.451830 2.437500
vt -0.000000 0.000000
vt 0.672705 0.630000
vt 0.323261 0.630000
vt 0.672705 0.600000
vt 2.575630 0.630000
vt 2.414820 0.315000
vt 2.414820 0.630000
vt 2.414820 0.600000
vt -0.358120 -0.000000
vt 0.672705 3.000000
vt 0.323261 3.000000
vt -0.000000 1.500000
vt 0.138874 0.445149
vt 0.323261 0.000000
vt 0.453408 0.529429
vt 0.672705 0.000000
vt -0.323261 0.000000
vt -0.323261 0.630000
vt -0.672705 0.630000
vt -0.672705 0.600000
vt -2.414820 0.630000
vt -2.575630 0.630000
vt -2.414820 0.600000
vt -2.575630 0.401164
vt -2.575630 -0.000000
vt -2.451830 0.562500
vt -0.323261 0.000000
vt -0.138874 0.445149
vt -2.264520 1.014710
vt -0.138874 2.554850
vt -0.323261 3.000000
vt -2.575630 3.000000
vt -2.451830 2.437500
vt -2.575630 2.598840
vt -2.551120 0.000000
vt -2.895350 0.000000
vt 3.000000 0.630000
vt 3.426380 -0.000000
vt 2.700760 -0.000000
vt 1.774410 -0.000000
vt 0.710454 -0.000000
vt -0.418594 -0.000000
vt -1.249680 -0.000000
vt 2.456020 0.600000
vt 1.529670 0.600000
vt 0.465718 0.600000
vt -0.257433 0.600000
vt -3.850110 0.600000
vt 0.997373 0.600000
vt -0.119827 0.600000
vt -1.248870 0.600000
vt -2.312830 0.600000
vt 1.902300 2.082340
vt 2.127070 2.625000
vt 0.672705 3.000000
vt 2.414820 3.000000
vt 0.453408 2.470570
vt 0.325630 1.500000
vt 1.825630 1.500000
vt 0.453408 0.529429
vt 0.672705 0.000000
vt 1.902300 0.917657
vt 2.414820 0.000000
vt 2.127070 0.375000
vn -0.8660 0.0000 -0.5000
vn -0.9659 0.0000 -0.2588
vn 0.0000 1.0000 0.0000
vn 1.0000 0.0000 0.0000
vn 0.0000 -0.0000 1.0000
vn -0.9659 -0.0000 0.2588
vn -0.9239 -0.0000 0.3827
vn 0.0000 0.0000 -1.0000
vn 0.0000 -1.0000 -0.0000
vn -1.0000 -0.0000 -0.0000
vn -0.9239 0.0000 -0.3827
vn 0.8660 0.0000 0.5000
vn 0.7934 0.0000 0.6088
vn 0.9659 0.0000 0.2588
vn 0.9659 0.0000 -0.2588
vn 0.8660 0.0000 -0.5000
vn 0.7933 0.0000 -0.6088
vn 0.9239 0.0000 0.3827
vn 0.9239 0.0000 -0.3827
vn -0.7934 0.0000 -0.6088
vn -0.8660 -0.0000 0.5000
vn -0.7934 -0.0000 0.6088
usemtl Stone.013
s 1
f 2/1/1 4/2/2 1/3/2
f 16/4/3 8/5/3 9/6/3
f 5/7/4 20/8/4 6/9/4
f 22/10/5 19/11/5 25/12/5
f 28/13/6 22/14/7 21/15/7
f 35/16/3 36/17/3 32/18/3
f 40/19/8 41/20/8 37/21/8
f 43/22/9 47/23/9 48/24/9
f 33/25/10 29/26/6 28/27/6
f 32/28/2 43/29/10 33/25/10
f 31/30/11 44/31/2 32/32/2
f 37/33/4 12/34/4 45/35/4
f 11/36/12 45/37/13 12/38/13
f 10/39/14 46/40/12 11/41/12
f 9/42/4 47/43/14 10/44/14
f 8/45/15 48/46/4 9/47/4
f 7/48/16 49/49/15 8/50/15
f 6/51/17 50/52/16 7/53/16
f 36/54/14 39/55/18 30/56/18
f 35/57/4 51/58/14 36/59/14
f 34/60/15 52/61/4 35/62/4
f 27/63/19 53/64/15 34/65/15
f 14/66/20 3/67/1 2/68/1
f 17/69/21 23/70/22 18/71/22
f 16/72/6 54/73/21 17/74/21
f 15/75/10 55/76/6 16/77/6
f 1/78/2 56/79/10 15/80/10
f 2/1/1 3/81/1 4/2/2
f 18/82/3 5/83/3 6/84/3
f 18/82/3 6/84/3 17/85/3
f 6/84/3 7/86/3 17/85/3
f 16/4/3 17/85/3 7/86/3
f 1/87/3 15/88/3 9/6/3
f 15/88/3 16/4/3 9/6/3
f 1/87/3 9/6/3 10/89/3
f 14/90/3 2/91/3 12/92/3
f 2/91/3 1/87/3 10/89/3
f 12/92/3 13/93/3 14/90/3
f 11/94/3 12/92/3 2/91/3
f 2/91/3 10/89/3 11/94/3
f 16/4/3 7/86/3 8/5/3
f 5/7/4 19/95/4 20/8/4
f 27/96/5 21/97/5 26/98/5
f 21/97/5 22/10/5 25/12/5
f 26/98/5 21/97/5 25/12/5
f 19/11/5 5/99/5 24/100/5
f 5/99/5 18/101/5 23/102/5
f 23/102/5 24/100/5 5/99/5
f 19/11/5 24/100/5 25/12/5
f 28/13/6 29/103/6 22/14/7
f 36/17/3 30/104/3 31/105/3
f 31/105/3 32/18/3 36/17/3
f 32/18/3 33/106/3 35/16/3
f 33/106/3 28/107/3 35/16/3
f 28/107/3 21/108/3 34/109/3
f 35/16/3 28/107/3 34/109/3
f 21/108/3 27/110/3 34/109/3
f 38/111/8 31/112/8 40/19/8
f 31/112/8 30/113/8 39/114/8
f 31/112/8 39/114/8 40/19/8
f 14/115/8 13/116/8 42/117/8
f 13/116/8 37/21/8 41/20/8
f 42/117/8 13/116/8 41/20/8
f 38/111/8 40/19/8 37/21/8
f 20/118/9 19/119/9 50/120/9
f 19/119/9 22/121/9 50/120/9
f 22/121/9 29/122/9 49/123/9
f 29/122/9 43/22/9 48/24/9
f 43/22/9 44/124/9 47/23/9
f 44/124/9 38/125/9 47/23/9
f 38/125/9 37/126/9 46/127/9
f 37/126/9 45/128/9 46/127/9
f 29/122/9 48/24/9 49/123/9
f 47/23/9 38/125/9 46/127/9
f 49/123/9 50/120/9 22/121/9
f 33/25/10 43/29/10 29/26/6
f 32/28/2 44/129/2 43/29/10
f 31/30/11 38/130/11 44/31/2
f 37/33/4 13/131/4 12/34/4
f 11/36/12 46/132/12 45/37/13
f 10/39/14 47/133/14 46/40/12
f 9/42/4 48/134/4 47/43/14
f 8/45/15 49/135/15 48/46/4
f 7/48/16 50/136/16 49/49/15
f 6/51/17 20/137/17 50/52/16
f 36/54/14 51/138/14 39/55/18
f 35/57/4 52/139/4 51/58/14
f 34/60/15 53/140/15 52/61/4
f 27/63/19 26/141/19 53/64/15
f 14/66/20 42/142/20 3/67/1
f 17/69/21 54/143/21 23/70/22
f 16/72/6 55/144/6 54/73/21
f 15/75/10 56/145/10 55/76/6
f 1/78/2 4/146/2 56/79/10
usemtl Asphalt.007
f 4/147/3 3/148/3 39/149/3
f 39/114/8 41/20/8 40/19/8
f 23/102/5 25/12/5 24/100/5
f 3/148/3 42/150/3 39/149/3
f 39/149/3 51/151/3 4/147/3
f 51/151/3 52/152/3 56/153/3
f 52/152/3 53/154/3 56/153/3
f 53/154/3 26/155/3 55/156/3
f 56/153/3 53/154/3 55/156/3
f 26/155/3 23/157/3 54/158/3
f 26/155/3 54/158/3 55/156/3
f 51/151/3 56/153/3 4/147/3
f 39/114/8 42/117/8 41/20/8
f 23/102/5 26/98/5 25/12/5
