# Blender v2.79 (sub 7) OBJ File: ''
# www.blender.org
mtllib roadTile_143.mtl
o Mesh1_Group1_Model.182
v -1.500000 0.550000 1.500000
v -1.500000 0.000000 -1.500000
v -1.500000 0.000000 1.500000
v 1.500000 0.550000 1.500000
v 1.500000 0.000000 0.937500
v 1.500000 0.000000 1.500000
v 1.500000 0.000000 -1.500000
v -1.500000 0.550000 -1.500000
v 1.500000 0.550000 -1.500000
v 1.500000 0.550000 -0.937500
v -0.937500 0.550000 0.000000
v 1.500000 0.000000 -0.937500
v 0.000000 0.550000 -0.937500
v 0.000000 0.550000 0.937500
v 1.500000 0.550000 0.937500
v -0.242640 0.550000 -0.905560
v -0.242640 0.550000 0.905555
v -0.468750 0.550000 0.811899
v -0.468750 0.550000 -0.811900
v -0.662913 0.550000 -0.662910
v -0.662913 0.550000 0.662913
v -0.811899 0.550000 0.468750
v -0.811899 0.550000 -0.468750
v -0.905555 0.550000 -0.242640
v -0.905555 0.550000 0.242640
v 0.000000 0.630000 -0.937500
v -0.242640 0.630000 -0.905560
v -0.362220 0.630000 -0.097060
v -0.324760 0.630000 -0.187500
v -0.811899 0.630000 -0.468750
v 1.500000 0.630000 0.375000
v 0.000000 0.600000 0.375000
v 0.000000 0.630000 0.375000
v 1.500000 0.300000 0.375000
v 1.500000 0.630000 -0.937500
v 0.000000 0.630000 -0.375000
v 1.500000 0.600000 -0.375000
v 1.500000 0.630000 -0.375000
v -0.097060 0.630000 -0.362220
v 0.000000 0.600000 -0.375000
v -0.187500 0.630000 -0.324760
v -0.097060 0.600000 -0.362220
v -0.265170 0.630000 -0.265170
v -0.187500 0.600000 -0.324760
v -0.265170 0.600000 -0.265170
v -0.324760 0.600000 -0.187500
v -0.375000 0.630000 0.000000
v -0.362220 0.600000 -0.097060
v -0.362220 0.630000 0.097060
v -0.375000 0.600000 0.000000
v -0.324760 0.630000 0.187500
v -0.362220 0.600000 0.097060
v -0.265170 0.630000 0.265160
v -0.324760 0.600000 0.187500
v -0.187500 0.630000 0.324760
v -0.265170 0.600000 0.265160
v -0.097060 0.630000 0.362220
v -0.187500 0.600000 0.324760
v -0.097060 0.600000 0.362220
v 0.000000 0.630000 0.937500
v 1.500000 0.630000 0.937500
v -0.242640 0.630000 0.905555
v -0.468750 0.630000 0.811899
v -0.662913 0.630000 0.662913
v -0.811899 0.630000 0.468750
v -0.905555 0.630000 0.242640
v -0.937500 0.630000 0.000000
v -0.905555 0.630000 -0.242640
v -0.662913 0.630000 -0.662910
v -0.468750 0.630000 -0.811900
v 1.500000 0.600000 0.375000
v 1.500000 0.300000 -0.375000
vt -0.000000 0.550000
vt -3.000000 -0.000000
vt -0.000000 -0.000000
vt 3.000000 0.550000
vt -3.000000 0.562500
vt -3.000000 0.000000
vt -3.000000 0.000000
vt -0.000000 0.550000
vt -3.000000 0.550000
vt 2.437500 0.550000
vt 3.000000 0.000000
vt 3.000000 0.550000
vt 0.000000 3.000000
vt 0.000000 0.000000
vt 0.562500 1.500000
vt 0.562500 0.000000
vt 0.000000 0.550000
vt 0.000000 0.000000
vt -3.000000 0.550000
vt 3.000000 0.000000
vt -0.000000 3.000000
vt -3.000000 2.437500
vt -3.000000 3.000000
vt -0.000000 0.000000
vt 2.437500 0.000000
vt 1.500000 2.437500
vt 3.000000 2.437500
vt 3.000000 3.000000
vt 3.000000 0.000000
vt 1.500000 0.562500
vt 3.000000 0.562500
vt 1.257360 2.405560
vt 1.257360 0.594445
vt 1.031250 0.688101
vt 1.031250 2.311900
vt 0.837087 2.162910
vt 0.837087 0.837087
vt 0.688101 1.031250
vt 0.688101 1.968750
vt 0.594445 1.742640
vt 0.594445 1.257360
vt 0.562500 0.550000
vt -1.805320 0.630000
vt -1.560590 0.550000
vt -1.560590 0.630000
vt 1.137780 1.597060
vt 1.175240 1.687500
vt 0.688101 1.968750
vt -3.000000 0.630000
vt -1.500000 0.600000
vt -1.500000 0.630000
vt 1.125000 0.300000
vt -3.000000 0.630000
vt -1.500000 0.550000
vt -1.500000 0.630000
vt 1.500000 0.630000
vt 3.000000 0.600000
vt 3.000000 0.630000
vt 1.634010 0.630000
vt 1.731900 0.600000
vt 1.731900 0.630000
vt 1.910900 0.630000
vt 2.008790 0.600000
vt 2.008790 0.630000
vt 2.054220 0.630000
vt 2.152120 0.600000
vt 2.152120 0.630000
vt 2.054220 0.630000
vt 2.152120 0.600000
vt 2.152120 0.630000
vt 1.910900 0.630000
vt 2.008790 0.600000
vt 2.008790 0.630000
vt 1.634010 0.630000
vt 1.731900 0.600000
vt 1.731900 0.630000
vt 1.242430 0.630000
vt 1.340330 0.600000
vt 1.340330 0.630000
vt 0.762847 0.630000
vt 0.860742 0.600000
vt 0.860742 0.630000
vt 0.227941 0.630000
vt 0.325835 0.600000
vt 0.325835 0.630000
vt -0.325835 0.630000
vt -0.227940 0.600000
vt -0.227940 0.630000
vt -0.860741 0.630000
vt -0.762847 0.600000
vt -0.762847 0.630000
vt -1.340330 0.630000
vt -1.242430 0.600000
vt -1.242430 0.630000
vt 1.500000 0.630000
vt 3.000000 0.550000
vt 3.000000 0.630000
vt 1.169010 0.630000
vt 1.413750 0.550000
vt 1.413750 0.630000
vt 0.689426 0.630000
vt 0.934162 0.550000
vt 0.934162 0.630000
vt 0.154520 0.630000
vt 0.399256 0.550000
vt 0.399256 0.630000
vt -0.399256 0.630000
vt -0.154520 0.550000
vt -0.154520 0.630000
vt -0.934162 0.630000
vt -0.689426 0.550000
vt -0.689426 0.630000
vt -1.413750 0.630000
vt -1.169010 0.550000
vt -1.169010 0.630000
vt -1.805320 0.630000
vt -1.560590 0.550000
vt -1.560590 0.630000
vt -2.082210 0.630000
vt -1.837480 0.550000
vt -1.837480 0.630000
vt -2.225540 0.630000
vt -1.980800 0.550000
vt -1.980800 0.630000
vt -2.225540 0.630000
vt -1.980800 0.550000
vt -1.980800 0.630000
vt -2.082210 0.630000
vt -1.837480 0.550000
vt -1.837480 0.630000
vt -1.805320 0.550000
vt 3.000000 0.562500
vt 3.000000 1.125000
vt 1.500000 1.125000
vt 1.500000 0.562500
vt 1.402940 1.137780
vt 1.257360 0.594445
vt 0.837087 0.837087
vt 1.031250 0.688101
vt 1.234830 1.234840
vt 1.312500 1.175240
vt 1.175240 1.312500
vt 0.594445 1.257360
vt 0.688101 1.031250
vt 1.137780 1.402940
vt 0.594445 1.742640
vt 0.562500 1.500000
vt 1.125000 1.500000
vt 0.837087 2.162910
vt 1.257360 2.405560
vt 1.031250 2.311900
vt 1.402940 1.862220
vt 1.312500 1.824760
vt 3.000000 2.437500
vt 1.500000 2.437500
vt 1.500000 1.875000
vt 3.000000 1.875000
vt 1.234830 1.765170
vt -3.000000 0.600000
vt 1.875000 0.300000
vt 2.437500 0.630000
vt 1.875000 0.600000
vt 1.875000 0.630000
vt 0.562500 0.630000
vt 1.125000 0.600000
vt 1.125000 0.630000
vt -3.000000 0.550000
vt 1.500000 0.600000
vt 1.634010 0.600000
vt 1.910900 0.600000
vt 2.054220 0.600000
vt 2.054220 0.600000
vt 1.910900 0.600000
vt 1.634010 0.600000
vt 1.242430 0.600000
vt 0.762847 0.600000
vt 0.227941 0.600000
vt -0.325835 0.600000
vt -0.860741 0.600000
vt -1.340330 0.600000
vt 1.500000 0.550000
vt 1.169010 0.550000
vt 0.689426 0.550000
vt 0.154520 0.550000
vt -0.399256 0.550000
vt -0.934162 0.550000
vt -1.413750 0.550000
vt -1.805320 0.550000
vt -2.082210 0.550000
vt -2.225540 0.550000
vt -2.225540 0.550000
vt -2.082210 0.550000
vt 1.234830 1.234840
vt 1.500000 1.125000
vt 1.402940 1.862220
vt 1.312500 1.175240
vt 1.402940 1.137780
vt 3.000000 1.125000
vt 3.000000 1.875000
vt 1.500000 1.875000
vt 1.312500 1.824760
vt 1.137780 1.597060
vt 1.234830 1.765170
vt 1.175240 1.687500
vt 1.125000 1.500000
vt 1.137780 1.402940
vt 1.175240 1.312500
vn -1.0000 0.0000 0.0000
vn 0.0000 0.0000 1.0000
vn 0.0000 -1.0000 -0.0000
vn 0.0000 0.0000 -1.0000
vn 1.0000 0.0000 0.0000
vn -0.0000 1.0000 0.0000
vn -0.0654 0.0000 -0.9979
vn -0.2588 0.0000 -0.9659
vn 0.0654 0.0000 -0.9979
vn 0.0654 0.0000 0.9979
vn 0.2588 0.0000 0.9659
vn 0.5000 0.0000 0.8660
vn 0.7071 0.0000 0.7071
vn 0.8660 0.0000 0.5000
vn 0.9659 0.0000 0.2588
vn 0.9659 0.0000 -0.2588
vn 0.8660 0.0000 -0.5000
vn 0.7071 0.0000 -0.7071
vn 0.5000 0.0000 -0.8660
vn 0.2588 0.0000 -0.9659
vn -0.0654 0.0000 0.9979
vn -0.2588 0.0000 0.9659
vn -0.5000 0.0000 0.8660
vn -0.7071 0.0000 0.7071
vn -0.8660 0.0000 0.5000
vn -0.9659 0.0000 0.2588
vn -0.9659 0.0000 -0.2588
vn -0.8660 0.0000 -0.5000
vn -0.7071 0.0000 -0.7071
vn -0.5000 0.0000 -0.8660
usemtl Grass.078
s 1
f 1/1/1 2/2/1 3/3/1
f 3/3/2 4/4/2 1/1/2
f 5/5/3 6/6/3 3/3/3
f 7/7/4 8/8/4 9/9/4
f 10/10/5 7/11/5 9/12/5
f 8/13/6 1/14/6 11/15/6
f 5/16/5 4/17/5 6/18/5
f 1/1/1 8/19/1 2/2/1
f 3/3/2 6/20/2 4/4/2
f 3/3/3 2/21/3 12/22/3
f 2/21/3 7/23/3 12/22/3
f 12/22/3 5/5/3 3/3/3
f 7/7/4 2/24/4 8/8/4
f 10/10/5 12/25/5 7/11/5
f 13/26/6 10/27/6 9/28/6
f 1/14/6 4/29/6 14/30/6
f 4/29/6 15/31/6 14/30/6
f 13/26/6 9/28/6 8/13/6
f 16/32/6 13/26/6 8/13/6
f 1/14/6 14/30/6 17/33/6
f 1/14/6 17/33/6 18/34/6
f 19/35/6 16/32/6 8/13/6
f 20/36/6 19/35/6 8/13/6
f 1/14/6 18/34/6 21/37/6
f 1/14/6 21/37/6 22/38/6
f 23/39/6 20/36/6 8/13/6
f 24/40/6 23/39/6 8/13/6
f 1/14/6 22/38/6 25/41/6
f 11/15/6 24/40/6 8/13/6
f 1/14/6 25/41/6 11/15/6
f 5/16/5 15/42/5 4/17/5
usemtl Stone.156
f 26/43/7 16/44/8 27/45/8
f 28/46/6 29/47/6 30/48/6
f 31/49/4 32/50/9 33/51/9
f 5/16/5 12/25/5 34/52/5
f 35/53/4 13/54/7 26/55/7
f 36/56/10 37/57/2 38/58/2
f 39/59/11 40/60/10 36/61/10
f 41/62/12 42/63/11 39/64/11
f 43/65/13 44/66/12 41/67/12
f 29/68/14 45/69/13 43/70/13
f 28/71/15 46/72/14 29/73/14
f 47/74/5 48/75/15 28/76/15
f 49/77/16 50/78/5 47/79/5
f 51/80/17 52/81/16 49/82/16
f 53/83/18 54/84/17 51/85/17
f 55/86/19 56/87/18 53/88/18
f 57/89/20 58/90/19 55/91/19
f 33/92/9 59/93/20 57/94/20
f 60/95/21 15/96/2 61/97/2
f 62/98/22 14/99/21 60/100/21
f 63/101/23 17/102/22 62/103/22
f 64/104/24 18/105/23 63/106/23
f 65/107/25 21/108/24 64/109/24
f 66/110/26 22/111/25 65/112/25
f 67/113/1 25/114/26 66/115/26
f 68/116/27 11/117/1 67/118/1
f 30/119/28 24/120/27 68/121/27
f 69/122/29 23/123/28 30/124/28
f 70/125/30 20/126/29 69/127/29
f 27/128/8 19/129/30 70/130/30
f 26/43/7 13/131/7 16/44/8
f 61/132/6 31/133/6 33/134/6
f 61/132/6 33/134/6 60/135/6
f 33/134/6 57/136/6 60/135/6
f 62/137/6 60/135/6 57/136/6
f 64/138/6 63/139/6 53/140/6
f 63/139/6 62/137/6 55/141/6
f 64/138/6 53/140/6 51/142/6
f 66/143/6 65/144/6 49/145/6
f 65/144/6 64/138/6 51/142/6
f 49/145/6 65/144/6 51/142/6
f 68/146/6 67/147/6 47/148/6
f 67/147/6 66/143/6 49/145/6
f 69/149/6 30/48/6 29/47/6
f 30/48/6 68/146/6 28/46/6
f 28/46/6 68/146/6 47/148/6
f 27/150/6 70/151/6 39/152/6
f 70/151/6 69/149/6 41/153/6
f 39/152/6 70/151/6 41/153/6
f 35/154/6 26/155/6 36/156/6
f 26/155/6 27/150/6 39/152/6
f 36/156/6 38/157/6 35/154/6
f 39/152/6 36/156/6 26/155/6
f 67/147/6 49/145/6 47/148/6
f 62/137/6 57/136/6 55/141/6
f 55/141/6 53/140/6 63/139/6
f 43/158/6 41/153/6 69/149/6
f 29/47/6 43/158/6 69/149/6
f 31/49/4 71/159/4 32/50/9
f 12/25/5 10/10/5 72/160/5
f 10/10/5 35/161/5 37/162/5
f 72/160/5 10/10/5 37/162/5
f 35/161/5 38/163/5 37/162/5
f 61/164/5 15/42/5 71/165/5
f 15/42/5 5/16/5 34/52/5
f 71/165/5 31/166/5 61/164/5
f 34/52/5 71/165/5 15/42/5
f 12/25/5 72/160/5 34/52/5
f 35/53/4 10/167/4 13/54/7
f 36/56/10 40/168/10 37/57/2
f 39/59/11 42/169/11 40/60/10
f 41/62/12 44/170/12 42/63/11
f 43/65/13 45/171/13 44/66/12
f 29/68/14 46/172/14 45/69/13
f 28/71/15 48/173/15 46/72/14
f 47/74/5 50/174/5 48/75/15
f 49/77/16 52/175/16 50/78/5
f 51/80/17 54/176/17 52/81/16
f 53/83/18 56/177/18 54/84/17
f 55/86/19 58/178/19 56/87/18
f 57/89/20 59/179/20 58/90/19
f 33/92/9 32/180/9 59/93/20
f 60/95/21 14/181/21 15/96/2
f 62/98/22 17/182/22 14/99/21
f 63/101/23 18/183/23 17/102/22
f 64/104/24 21/184/24 18/105/23
f 65/107/25 22/185/25 21/108/24
f 66/110/26 25/186/26 22/111/25
f 67/113/1 11/187/1 25/114/26
f 68/116/27 24/188/27 11/117/1
f 30/119/28 23/189/28 24/120/27
f 69/122/29 20/190/29 23/123/28
f 70/125/30 19/191/30 20/126/29
f 27/128/8 16/192/8 19/129/30
usemtl Asphalt.127
f 56/193/6 32/194/6 42/195/6
f 71/165/5 72/160/5 37/162/5
f 58/196/6 59/197/6 56/193/6
f 59/197/6 32/194/6 56/193/6
f 32/194/6 71/198/6 37/199/6
f 37/199/6 40/200/6 32/194/6
f 40/200/6 42/195/6 32/194/6
f 42/195/6 44/201/6 48/202/6
f 44/201/6 45/203/6 46/204/6
f 48/202/6 44/201/6 46/204/6
f 48/202/6 50/205/6 52/206/6
f 52/206/6 54/207/6 56/193/6
f 48/202/6 52/206/6 42/195/6
f 52/206/6 56/193/6 42/195/6
f 71/165/5 34/52/5 72/160/5
