# Blender v2.79 (sub 7) OBJ File: ''
# www.blender.org
mtllib roadTile_263.mtl
o Mesh1_Group1_Model.290
v 3.000000 0.000000 -0.750000
v 3.000000 0.000000 -2.250000
v 3.000000 1.650000 -2.250000
v 3.000000 1.650000 -0.750000
v 3.000000 0.000000 0.000000
v 0.000000 0.000000 0.000000
v 0.000000 0.000000 -3.000000
v 3.000000 0.000000 -3.000000
v 3.000000 0.000000 -2.625000
v 3.000000 0.000000 -0.375000
v 0.000000 1.650000 0.000000
v 3.000000 1.650000 0.000000
v 0.000000 1.650000 -3.000000
v 3.000000 1.650000 -0.375000
v 3.000000 1.650000 -2.625000
v 3.000000 1.650000 -3.000000
vt 2.250000 0.000000
vt 0.750000 1.650000
vt 0.750000 0.000000
vt 2.250000 1.650000
vt -3.000000 0.750000
vt -3.000000 0.375000
vt -0.000000 -0.000000
vt 3.000000 1.650000
vt 0.000000 1.650000
vt -3.000000 1.650000
vt -3.000000 0.000000
vt 0.000000 -0.000000
vt 3.000000 0.375000
vt 3.000000 0.750000
vt 0.375000 0.000000
vt 0.000000 1.650000
vt 0.000000 0.000000
vt 2.625000 1.650000
vt 3.000000 0.000000
vt 3.000000 1.650000
vt -3.000000 0.000000
vt -0.000000 1.650000
vt -3.000000 1.650000
vt -3.000000 0.000000
vt 0.000000 3.000000
vt -3.000000 2.250000
vt -3.000000 3.000000
vt -3.000000 2.625000
vt 3.000000 0.000000
vt 3.000000 3.000000
vt 0.000000 3.000000
vt 3.000000 2.625000
vt 3.000000 2.250000
vt 3.000000 0.000000
vt 0.375000 1.650000
vt 2.625000 0.000000
vt -0.000000 0.000000
vn 1.0000 0.0000 0.0000
vn -0.0000 -1.0000 -0.0000
vn 0.0000 -0.0000 1.0000
vn -1.0000 0.0000 0.0000
vn -0.0000 1.0000 0.0000
vn 0.0000 0.0000 -1.0000
usemtl Water.047
s 1
f 2/1/1 4/2/1 1/3/1
f 2/1/1 3/4/1 4/2/1
usemtl Grass.120
f 1/5/2 10/6/2 6/7/2
f 6/7/3 12/8/3 11/9/3
f 6/7/4 13/10/4 7/11/4
f 11/12/5 14/13/5 4/14/5
f 10/15/1 12/16/1 5/17/1
f 15/18/1 8/19/1 16/20/1
f 8/21/6 13/22/6 16/23/6
f 10/6/2 5/24/2 6/7/2
f 6/7/2 7/25/2 2/26/2
f 7/25/2 8/27/2 9/28/2
f 9/28/2 2/26/2 7/25/2
f 2/26/2 1/5/2 6/7/2
f 6/7/3 5/29/3 12/8/3
f 6/7/4 11/9/4 13/10/4
f 16/30/5 13/31/5 15/32/5
f 13/31/5 11/12/5 3/33/5
f 15/32/5 13/31/5 3/33/5
f 11/12/5 12/34/5 14/13/5
f 4/14/5 3/33/5 11/12/5
f 10/15/1 14/35/1 12/16/1
f 15/18/1 9/36/1 8/19/1
f 8/21/6 7/37/6 13/22/6
usemtl Stone.247
f 14/35/1 1/3/1 4/2/1
f 9/36/1 3/4/1 2/1/1
f 14/35/1 10/15/1 1/3/1
f 9/36/1 15/18/1 3/4/1
