# Blender v2.79 (sub 7) OBJ File: ''
# www.blender.org
mtllib roadTile_044.mtl
o Mesh1_Group1_Model.170
v 1.500000 0.000000 1.125000
v 1.500000 0.600000 0.750000
v 1.500000 1.650000 1.125000
v 1.500000 1.730000 1.125000
v 1.157370 1.650000 1.102543
v 0.187500 1.730000 0.773317
v 0.375000 1.730000 0.448560
v 0.130290 1.730000 0.285050
v -1.125000 0.000000 -1.500000
v -1.125000 1.650000 -1.500000
v -0.750000 0.600000 -1.500000
v 1.157370 1.730000 1.102543
v 0.820600 1.650000 1.035555
v 0.820600 1.730000 1.035555
v 0.495460 1.650000 0.925184
v 0.495460 1.730000 0.925184
v 0.187500 1.650000 0.773317
v -0.098000 1.650000 0.582553
v -0.098000 1.730000 0.582553
v -0.356160 1.650000 0.356160
v -0.356160 1.730000 0.356160
v -0.582553 1.650000 0.098000
v -0.582553 1.730000 0.098000
v -0.773317 1.650000 -0.187500
v -0.773317 1.730000 -0.187500
v -0.925184 1.650000 -0.495460
v -0.925184 1.730000 -0.495460
v -1.035555 1.650000 -0.820600
v -1.035555 1.730000 -0.820600
v -1.102543 1.650000 -1.157370
v -1.102543 1.730000 -1.157370
v -0.730751 1.730000 -1.206320
v -0.730751 0.600000 -1.206320
v -0.673333 1.730000 -0.917660
v -0.673333 0.600000 -0.917660
v -0.578729 1.730000 -0.638960
v -0.578729 0.600000 -0.638960
v -0.448560 1.730000 -0.375000
v -0.448560 0.600000 -0.375000
v -0.285050 1.730000 -0.130290
v -0.285050 0.600000 -0.130290
v -0.090990 1.730000 0.090990
v -0.090990 0.600000 0.090990
v 0.130290 0.600000 0.285050
v 0.375000 0.600000 0.448560
v 0.638960 1.730000 0.578729
v 0.638960 0.600000 0.578729
v 0.917660 1.730000 0.673333
v 0.917660 0.600000 0.673333
v 1.206320 1.730000 0.730751
v 1.206320 0.600000 0.730751
v 1.500000 1.730000 0.750000
v 1.500000 0.000000 -1.500000
v 1.500000 0.300000 0.750000
v 1.500000 0.300000 -1.500000
v -0.750000 1.730000 -1.500000
v -1.125000 1.730000 -1.500000
v -0.750000 0.300000 -1.500000
v -1.500000 0.000000 1.500000
v -1.500000 0.000000 -1.500000
v -1.500000 1.650000 1.500000
v -1.500000 1.650000 -1.500000
v 1.500000 1.650000 1.500000
v 1.500000 0.000000 1.500000
v 1.500000 0.600000 -1.500000
vt 0.375000 0.000000
vt 0.750000 0.600000
vt 0.375000 1.650000
vt 2.969050 1.730000
vt 2.625680 1.650000
vt 2.969050 1.650000
vt 1.687500 0.726683
vt 1.875000 1.051440
vt 1.630290 1.214950
vt -0.375000 -0.000000
vt -0.375000 1.650000
vt -0.750000 0.600000
vt 2.528770 1.730000
vt 2.185400 1.650000
vt 2.528770 1.650000
vt 2.048160 1.730000
vt 1.704790 1.650000
vt 2.048160 1.650000
vt 1.535440 1.730000
vt 1.192070 1.650000
vt 1.535440 1.650000
vt 0.999381 1.730000
vt 0.656015 1.650000
vt 0.999381 1.650000
vt 0.449165 1.730000
vt 0.105799 1.650000
vt 0.449165 1.650000
vt -0.105799 1.730000
vt -0.449165 1.650000
vt -0.105799 1.650000
vt -0.656015 1.730000
vt -0.999381 1.650000
vt -0.656015 1.650000
vt -1.192070 1.730000
vt -1.535440 1.650000
vt -1.192070 1.650000
vt -1.704790 1.730000
vt -2.048160 1.650000
vt -1.704790 1.650000
vt -2.185400 1.730000
vt -2.528770 1.650000
vt -2.185400 1.650000
vt -2.625680 1.730000
vt -2.969050 1.650000
vt -2.625680 1.650000
vt 2.944520 0.600000
vt 2.650210 1.730000
vt 2.650210 0.600000
vt 2.504240 0.600000
vt 2.209930 1.730000
vt 2.209930 0.600000
vt 2.023630 0.600000
vt 1.729310 1.730000
vt 1.729310 0.600000
vt 1.510910 0.600000
vt 1.216600 1.730000
vt 1.216600 0.600000
vt 0.974855 0.600000
vt 0.680541 1.730000
vt 0.680541 0.600000
vt 0.424639 0.600000
vt 0.130325 1.730000
vt 0.130325 0.600000
vt -0.130325 0.600000
vt -0.424639 1.730000
vt -0.424639 0.600000
vt -0.680541 0.600000
vt -0.974855 1.730000
vt -0.974855 0.600000
vt -1.216600 0.600000
vt -1.510910 1.730000
vt -1.510910 0.600000
vt -1.729310 0.600000
vt -2.023630 1.730000
vt -2.023630 0.600000
vt -2.209930 0.600000
vt -2.504240 1.730000
vt -2.504240 0.600000
vt -2.650210 0.600000
vt -2.944520 1.730000
vt -2.944520 0.600000
vt 0.750000 1.730000
vt 0.375000 1.730000
vt 3.000000 0.000000
vt 0.750000 0.300000
vt 3.000000 0.300000
vt 2.625680 1.730000
vt 0.769249 2.706320
vt 0.750000 3.000000
vt 0.375000 3.000000
vt 0.397457 2.657370
vt 0.464445 2.320600
vt 0.826667 2.417660
vt 0.574816 1.995460
vt 0.921271 2.138960
vt 0.726683 1.687500
vt 1.051440 1.875000
vt 0.917447 1.402000
vt 1.143840 1.143840
vt 1.409010 1.409010
vt 1.214950 1.630290
vt 1.402000 0.917447
vt 1.995460 0.574816
vt 2.138960 0.921271
vt 2.320600 0.464445
vt 2.417660 0.826667
vt 2.657370 0.397457
vt 3.000000 0.375000
vt 2.706320 0.769249
vt 3.000000 0.750000
vt -3.000000 0.300000
vt -3.000000 -0.000000
vt -0.750000 0.300000
vt -0.375000 1.730000
vt -0.750000 1.730000
vt 2.185400 1.730000
vt 1.704790 1.730000
vt 1.192070 1.730000
vt 0.656015 1.730000
vt 0.105799 1.730000
vt -0.449165 1.730000
vt -0.999381 1.730000
vt -1.535440 1.730000
vt -2.048160 1.730000
vt -2.528770 1.730000
vt -2.969050 1.730000
vt 2.944520 1.730000
vt 2.504240 1.730000
vt 2.023630 1.730000
vt 1.510910 1.730000
vt 0.974855 1.730000
vt 0.424639 1.730000
vt -0.130325 1.730000
vt -0.680541 1.730000
vt -1.216600 1.730000
vt -1.729310 1.730000
vt -2.209930 1.730000
vt -2.650210 1.730000
vt 0.000000 0.000000
vt -0.375000 3.000000
vt -3.000000 0.375000
vt -3.000000 0.000000
vt 0.000000 1.650000
vt -3.000000 1.650000
vt -0.000000 -0.000000
vt -0.000000 1.650000
vt 1.143840 1.143840
vt 0.917447 1.402000
vt -0.000000 0.000000
vt 0.000000 1.650000
vt 0.000000 0.000000
vt 3.000000 0.000000
vt -3.000000 0.000000
vt -0.000000 3.000000
vt -3.000000 3.000000
vt 3.000000 0.000000
vt 2.320600 0.464445
vt 3.000000 0.375000
vt 2.657370 0.397457
vt 0.375000 3.000000
vt 0.000000 3.000000
vt 0.397457 2.657370
vt 0.464445 2.320600
vt 1.995460 0.574816
vt 0.574816 1.995460
vt 1.687500 0.726683
vt 1.402000 0.917447
vt 0.726683 1.687500
vt 3.000000 1.650000
vt 2.417660 0.826667
vt 2.706320 0.769249
vt 3.000000 3.000000
vt -3.000000 0.600000
vt 3.000000 0.600000
vt 3.000000 0.750000
vt 0.750000 3.000000
vt 0.769249 2.706320
vt 0.826667 2.417660
vt 0.921271 2.138960
vt 1.051440 1.875000
vt 1.214950 1.630290
vt 1.409010 1.409010
vt 1.630290 1.214950
vt 1.875000 1.051440
vt 2.138960 0.921271
vn 1.0000 0.0000 0.0000
vn -0.0654 -0.0000 0.9979
vn -0.1305 -0.0000 0.9914
vn 0.0000 1.0000 -0.0000
vn -0.0000 0.0000 -1.0000
vn -0.2588 0.0000 0.9659
vn -0.3827 0.0000 0.9239
vn -0.5000 0.0000 0.8660
vn -0.6088 0.0000 0.7934
vn -0.7071 0.0000 0.7071
vn -0.7934 0.0000 0.6088
vn -0.8660 0.0000 0.5000
vn -0.9239 0.0000 0.3827
vn -0.9659 0.0000 0.2588
vn -0.9914 0.0000 0.1305
vn -0.9979 0.0000 0.0654
vn 0.9979 0.0000 -0.0654
vn 0.9914 0.0000 -0.1305
vn 0.9659 0.0000 -0.2588
vn 0.9239 0.0000 -0.3827
vn 0.8660 0.0000 -0.5000
vn 0.7934 0.0000 -0.6088
vn 0.7071 0.0000 -0.7071
vn 0.6088 0.0000 -0.7934
vn 0.5000 0.0000 -0.8660
vn 0.3827 0.0000 -0.9239
vn 0.2588 0.0000 -0.9659
vn 0.1305 0.0000 -0.9914
vn 0.0654 0.0000 -0.9979
vn 0.0000 -1.0000 -0.0000
vn -1.0000 0.0000 0.0000
vn 0.0000 -0.0000 1.0000
usemtl Stone.145
s 1
f 1/1/1 2/2/1 3/3/1
f 4/4/2 5/5/3 3/6/2
f 6/7/4 7/8/4 8/9/4
f 9/10/5 10/11/5 11/12/5
f 12/13/3 13/14/6 5/15/3
f 14/16/6 15/17/7 13/18/6
f 16/19/7 17/20/8 15/21/7
f 6/22/8 18/23/9 17/24/8
f 19/25/9 20/26/10 18/27/9
f 21/28/10 22/29/11 20/30/10
f 23/31/11 24/32/12 22/33/11
f 25/34/12 26/35/13 24/36/12
f 27/37/13 28/38/14 26/39/13
f 29/40/14 30/41/15 28/42/14
f 31/43/15 10/44/16 30/45/15
f 11/46/17 32/47/18 33/48/18
f 33/49/18 34/50/19 35/51/19
f 35/52/19 36/53/20 37/54/20
f 37/55/20 38/56/21 39/57/21
f 39/58/21 40/59/22 41/60/22
f 41/61/22 42/62/23 43/63/23
f 43/64/23 8/65/24 44/66/24
f 44/67/24 7/68/25 45/69/25
f 45/70/25 46/71/26 47/72/26
f 47/73/26 48/74/27 49/75/27
f 49/76/27 50/77/28 51/78/28
f 51/79/28 52/80/29 2/81/29
f 52/82/1 4/83/1 3/3/1
f 1/1/1 53/84/1 54/85/1
f 53/84/1 55/86/1 54/85/1
f 54/85/1 2/2/1 1/1/1
f 2/2/1 52/82/1 3/3/1
f 4/4/2 12/87/3 5/5/3
f 32/88/4 56/89/4 57/90/4
f 57/90/4 31/91/4 32/88/4
f 31/91/4 29/92/4 34/93/4
f 29/92/4 27/94/4 36/95/4
f 27/94/4 25/96/4 38/97/4
f 25/96/4 23/98/4 38/97/4
f 23/98/4 21/99/4 42/100/4
f 38/97/4 23/98/4 40/101/4
f 21/99/4 19/102/4 42/100/4
f 19/102/4 6/7/4 8/9/4
f 42/100/4 19/102/4 8/9/4
f 6/7/4 16/103/4 46/104/4
f 16/103/4 14/105/4 48/106/4
f 14/105/4 12/107/4 48/106/4
f 12/107/4 4/108/4 50/109/4
f 48/106/4 12/107/4 50/109/4
f 4/108/4 52/110/4 50/109/4
f 16/103/4 48/106/4 46/104/4
f 31/91/4 34/93/4 32/88/4
f 27/94/4 38/97/4 36/95/4
f 36/95/4 34/93/4 29/92/4
f 40/101/4 23/98/4 42/100/4
f 6/7/4 46/104/4 7/8/4
f 55/111/5 53/112/5 58/113/5
f 53/112/5 9/10/5 58/113/5
f 10/11/5 57/114/5 56/115/5
f 56/115/5 11/12/5 10/11/5
f 11/12/5 58/113/5 9/10/5
f 12/13/3 14/116/6 13/14/6
f 14/16/6 16/117/7 15/17/7
f 16/19/7 6/118/8 17/20/8
f 6/22/8 19/119/9 18/23/9
f 19/25/9 21/120/10 20/26/10
f 21/28/10 23/121/11 22/29/11
f 23/31/11 25/122/12 24/32/12
f 25/34/12 27/123/13 26/35/13
f 27/37/13 29/124/14 28/38/14
f 29/40/14 31/125/15 30/41/15
f 31/43/15 57/126/16 10/44/16
f 11/46/17 56/127/17 32/47/18
f 33/49/18 32/128/18 34/50/19
f 35/52/19 34/129/19 36/53/20
f 37/55/20 36/130/20 38/56/21
f 39/58/21 38/131/21 40/59/22
f 41/61/22 40/132/22 42/62/23
f 43/64/23 42/133/23 8/65/24
f 44/67/24 8/134/24 7/68/25
f 45/70/25 7/135/25 46/71/26
f 47/73/26 46/136/26 48/74/27
f 49/76/27 48/137/27 50/77/28
f 51/79/28 50/138/28 52/80/29
usemtl Grass.073
f 59/139/30 9/140/30 1/141/30
f 60/142/31 61/143/31 62/144/31
f 10/11/5 60/145/5 62/146/5
f 20/147/4 22/148/4 61/149/4
f 1/1/1 63/150/1 64/151/1
f 64/152/32 61/143/32 59/139/32
f 64/153/30 59/139/30 1/141/30
f 59/139/30 60/154/30 9/140/30
f 9/140/30 53/155/30 1/141/30
f 60/142/31 59/139/31 61/143/31
f 10/11/5 9/10/5 60/145/5
f 61/149/4 63/156/4 13/157/4
f 63/156/4 3/158/4 5/159/4
f 63/156/4 5/159/4 13/157/4
f 10/160/4 62/161/4 30/162/4
f 62/161/4 61/149/4 28/163/4
f 30/162/4 62/161/4 28/163/4
f 61/149/4 13/157/4 15/164/4
f 26/165/4 28/163/4 61/149/4
f 61/149/4 15/164/4 17/166/4
f 61/149/4 17/166/4 18/167/4
f 24/168/4 26/165/4 61/149/4
f 22/148/4 24/168/4 61/149/4
f 61/149/4 18/167/4 20/147/4
f 1/1/1 3/3/1 63/150/1
f 64/152/32 63/169/32 61/143/32
usemtl Asphalt.117
f 49/170/4 51/171/4 65/172/4
f 55/111/5 11/12/5 65/173/5
f 54/85/1 65/174/1 2/2/1
f 2/175/4 65/172/4 51/171/4
f 65/172/4 11/176/4 33/177/4
f 35/178/4 65/172/4 33/177/4
f 35/178/4 37/179/4 65/172/4
f 37/179/4 39/180/4 65/172/4
f 39/180/4 41/181/4 65/172/4
f 41/181/4 43/182/4 65/172/4
f 43/182/4 44/183/4 65/172/4
f 44/183/4 45/184/4 65/172/4
f 45/184/4 47/185/4 65/172/4
f 47/185/4 49/170/4 65/172/4
f 55/111/5 58/113/5 11/12/5
f 54/85/1 55/86/1 65/174/1
