# Blender v2.79 (sub 7) OBJ File: ''
# www.blender.org
mtllib roadTile_206.mtl
o Mesh1_Group1_Model.140
v 3.000000 0.000000 -2.625000
v 3.000000 0.550000 -2.625000
v 3.000000 0.630000 -2.625000
v 3.000000 0.630000 -2.250000
v 3.000000 0.455000 -2.250000
v 3.000000 0.000000 -2.250000
v 0.000000 1.730000 -2.250000
v 0.000000 0.455000 -2.250000
v 0.000000 1.730000 -2.625000
v 0.000000 1.650000 -2.625000
v 0.000000 0.000000 -2.625000
v 0.000000 0.000000 -2.250000
v 0.000000 0.000000 -0.375000
v 0.000000 1.650000 -0.375000
v 0.000000 1.730000 -0.375000
v 0.000000 1.730000 -0.750000
v 0.000000 0.455000 -0.750000
v 0.000000 0.000000 -0.750000
v 3.000000 0.455000 -0.750000
v 3.000000 0.630000 -0.750000
v 3.000000 0.630000 -0.375000
v 3.000000 0.550000 -0.375000
v 3.000000 0.000000 -0.375000
v 3.000000 0.000000 -0.750000
v 3.000000 0.550000 -3.000000
v 3.000000 0.000000 -3.000000
v 0.000000 1.650000 -3.000000
v 0.000000 0.000000 -3.000000
v 3.000000 0.000000 0.000000
v 0.000000 0.000000 0.000000
v 0.000000 1.650000 0.000000
v 3.000000 0.550000 0.000000
vt 2.625000 0.550000
vt 2.250000 0.630000
vt 2.250000 0.455000
vt 3.000000 0.630000
vt 0.000000 0.455000
vt 3.000000 0.455000
vt 2.625000 0.595560
vt 2.250000 -2.599750
vt 2.625000 -2.599750
vt -3.000000 0.630000
vt -0.000000 1.650000
vt -0.000000 1.730000
vt -2.625000 1.650000
vt -2.625000 0.000000
vt -2.250000 0.455000
vt -0.375000 1.650000
vt -0.750000 1.730000
vt -0.750000 0.455000
vt 0.375000 0.550000
vt 0.375000 -0.000000
vt 0.750000 0.455000
vt -0.000000 0.455000
vt -3.000000 0.630000
vt -3.000000 0.455000
vt 0.750000 0.595560
vt 0.375000 -2.599750
vt 0.750000 -2.599750
vt 3.000000 0.630000
vt 0.000000 1.650000
vt 3.000000 0.550000
vt 2.250000 0.000000
vt 2.625000 0.000000
vt 2.625000 0.630000
vt 0.000000 1.730000
vt 2.250000 0.595560
vt -3.000000 0.550000
vt -2.250000 0.000000
vt -2.250000 1.730000
vt -2.625000 1.730000
vt -0.750000 0.000000
vt -0.375000 0.000000
vt -0.375000 1.730000
vt 0.750000 -0.000000
vt 0.750000 0.630000
vt 0.375000 0.630000
vt -0.000000 1.730000
vt 0.375000 0.595560
vt 0.000000 1.730000
vt 3.000000 -0.000000
vt 3.000000 0.550000
vt 2.625000 0.568020
vt 3.000000 -2.627290
vt 3.000000 0.568020
vt -3.000000 1.650000
vt -3.000000 0.000000
vt -3.000000 0.375000
vt -0.000000 0.000000
vt -0.000000 0.375000
vt -0.000000 -0.000000
vt -3.000000 0.550000
vt -3.000000 -0.000000
vt 0.000000 1.650000
vt 0.375000 -2.627290
vt -0.000000 0.568020
vt -0.000000 -2.627290
vt -0.000000 0.550000
vt -0.000000 -0.000000
vt 3.000000 0.550000
vt 2.625000 -2.627290
vt -0.000000 2.250000
vt -0.000000 2.625000
vt -3.000000 2.250000
vt 0.000000 3.000000
vt -3.000000 2.625000
vt -3.000000 3.000000
vt -3.000000 0.750000
vt -0.000000 0.750000
vt -3.000000 0.000000
vt -0.000000 1.650000
vt 0.375000 0.568020
vt 3.000000 -0.000000
vt 0.000000 2.250000
vt 3.000000 0.750000
vt 3.000000 2.250000
vt 0.000000 0.750000
vn 1.0000 0.0000 0.0000
vn 0.0000 0.0000 1.0000
vn 0.3443 0.9389 0.0000
vn -0.0000 0.0000 -1.0000
vn -1.0000 0.0000 0.0000
vn 0.0000 -1.0000 -0.0000
vn 0.0000 1.0000 0.0000
usemtl Stone.119
s 1
f 2/1/1 4/2/1 5/3/1
f 4/4/2 8/5/2 5/6/2
f 9/7/3 4/8/3 3/9/3
f 3/10/4 10/11/4 9/12/4
f 10/13/5 11/14/5 8/15/5
f 14/16/5 16/17/5 17/18/5
f 22/19/1 23/20/1 19/21/1
f 17/22/4 20/23/4 19/24/4
f 16/25/3 21/26/3 20/27/3
f 21/28/2 14/29/2 22/30/2
f 6/31/1 1/32/1 5/3/1
f 1/32/1 2/1/1 5/3/1
f 2/1/1 3/33/1 4/2/1
f 4/4/2 7/34/2 8/5/2
f 9/7/3 7/35/3 4/8/3
f 3/10/4 2/36/4 10/11/4
f 12/37/5 8/15/5 11/14/5
f 8/15/5 7/38/5 10/13/5
f 7/38/5 9/39/5 10/13/5
f 18/40/5 13/41/5 17/18/5
f 13/41/5 14/16/5 17/18/5
f 14/16/5 15/42/5 16/17/5
f 24/43/1 19/21/1 23/20/1
f 19/21/1 20/44/1 22/19/1
f 20/44/1 21/45/1 22/19/1
f 17/22/4 16/46/4 20/23/4
f 16/25/3 15/47/3 21/26/3
f 21/28/2 15/48/2 14/29/2
usemtl Grass.063
f 2/1/1 26/49/1 25/50/1
f 10/51/3 25/52/3 27/53/3
f 11/14/5 27/54/5 28/55/5
f 23/56/6 30/57/6 13/58/6
f 28/59/4 25/60/4 26/61/4
f 14/16/5 30/57/5 31/62/5
f 22/63/3 31/64/3 32/65/3
f 23/20/1 32/66/1 29/67/1
f 30/57/2 32/68/2 31/62/2
f 2/1/1 1/32/1 26/49/1
f 10/51/3 2/69/3 25/52/3
f 11/14/5 10/13/5 27/54/5
f 12/70/6 11/71/6 6/72/6
f 11/71/6 28/73/6 1/74/6
f 6/72/6 11/71/6 1/74/6
f 28/73/6 26/75/6 1/74/6
f 6/72/6 24/76/6 12/70/6
f 24/76/6 23/56/6 18/77/6
f 12/70/6 24/76/6 18/77/6
f 13/58/6 18/77/6 23/56/6
f 23/56/6 29/78/6 30/57/6
f 28/59/4 27/79/4 25/60/4
f 14/16/5 13/41/5 30/57/5
f 22/63/3 14/80/3 31/64/3
f 23/20/1 22/19/1 32/66/1
f 30/57/2 29/81/2 32/68/2
usemtl Water.027
f 6/31/1 19/21/1 24/43/1
f 8/82/7 19/83/7 5/84/7
f 18/40/5 8/15/5 12/37/5
f 6/31/1 5/3/1 19/21/1
f 8/82/7 17/85/7 19/83/7
f 18/40/5 17/18/5 8/15/5
