# Blender v2.79 (sub 7) OBJ File: ''
# www.blender.org
mtllib roadTile_191.mtl
o Mesh1_Group1_Model.177
v -1.500000 0.000000 -1.125000
v -1.500000 0.000000 1.125000
v -1.500000 0.300000 -0.750000
v 1.500000 0.000000 1.125000
v 1.500000 0.000000 -1.125000
v 1.500000 0.300000 0.750000
v 1.500000 0.630000 -1.125000
v -1.500000 1.650000 -1.125000
v -1.500000 1.730000 -1.125000
v -1.500000 1.730000 -0.750000
v 1.500000 0.630000 -0.750000
v -1.500000 0.600000 -0.750000
v 1.500000 0.630000 0.750000
v -1.500000 0.600000 0.750000
v -1.500000 1.730000 0.750000
v -1.500000 1.730000 1.125000
v -1.500000 1.650000 1.125000
v 1.500000 0.630000 1.125000
v -1.500000 0.300000 0.750000
v 1.500000 0.550000 -1.125000
v 1.500000 0.300000 -0.750000
v 1.500000 0.600000 -0.750000
v 1.500000 0.550000 1.125000
v 1.500000 0.600000 0.750000
v 1.500000 0.550000 1.500000
v -1.500000 0.000000 1.500000
v 1.500000 0.000000 1.500000
v 1.500000 0.000000 -1.500000
v 1.500000 0.550000 -1.500000
v -1.500000 1.650000 -1.500000
v -1.500000 0.000000 -1.500000
v -1.500000 1.650000 1.500000
vt -2.625000 -0.000000
vt -0.375000 -0.000000
vt -2.250000 0.300000
vt 0.375000 -0.000000
vt 2.625000 -0.000000
vt 0.750000 0.300000
vt -3.000000 0.630000
vt -0.000000 1.650000
vt -0.000000 1.730000
vt 2.625000 -2.599750
vt 2.250000 0.595561
vt 2.250000 -2.599750
vt 0.000000 0.600000
vt 3.000000 0.630000
vt 0.000000 1.730000
vt -3.000000 0.630000
vt -0.000000 0.600000
vt -0.000000 1.730000
vt 0.375000 0.595561
vt 0.750000 -2.599750
vt 0.750000 0.595561
vt 0.000000 1.650000
vt 3.000000 0.630000
vt 0.000000 1.730000
vt -0.375000 1.650000
vt -0.750000 0.600000
vt -0.375000 1.730000
vt -0.750000 1.730000
vt -0.750000 0.300000
vt -2.625000 1.730000
vt -2.625000 1.650000
vt -2.250000 1.730000
vt -2.250000 0.600000
vt 2.625000 0.550000
vt 2.250000 0.300000
vt 2.625000 0.630000
vt 2.250000 0.600000
vt 2.250000 0.630000
vt 0.375000 0.630000
vt 0.375000 0.550000
vt 0.750000 0.600000
vt 0.750000 0.630000
vt -3.000000 0.550000
vt 2.625000 0.595561
vt 3.000000 0.600000
vt -3.000000 0.600000
vt 0.375000 -2.599750
vt 3.000000 0.550000
vt -3.000000 2.625000
vt -3.000000 0.375000
vt -0.000000 0.375000
vt 3.000000 0.550000
vt -0.000000 0.000000
vt 3.000000 -0.000000
vt 0.000000 0.550000
vt 0.000000 -0.000000
vt 3.000000 -0.000000
vt 3.000000 0.550000
vt 3.000000 0.568020
vt 2.625000 -2.627290
vt 3.000000 -2.627290
vt -0.000000 -0.000000
vt -3.000000 0.550000
vt -3.000000 -0.000000
vt -3.000000 1.650000
vt -3.000000 0.000000
vt 0.375000 -2.627290
vt 0.000000 0.568020
vt 0.000000 -2.627290
vt 0.000000 1.650000
vt -3.000000 0.000000
vt -0.000000 2.625000
vt -0.000000 3.000000
vt -3.000000 3.000000
vt 2.625000 0.568020
vt -0.000000 1.650000
vt 0.375000 0.568020
vt 3.000000 0.750000
vt 0.000000 2.250000
vt 0.000000 0.750000
vt 3.000000 2.250000
vn -1.0000 0.0000 0.0000
vn 1.0000 0.0000 0.0000
vn -0.0000 0.0000 -1.0000
vn 0.3443 0.9389 0.0000
vn 0.0000 0.0000 1.0000
vn 0.0000 -1.0000 -0.0000
vn 0.0000 1.0000 0.0000
usemtl Stone.151
s 1
f 1/1/1 2/2/1 3/3/1
f 4/4/2 5/5/2 6/6/2
f 7/7/3 8/8/3 9/9/3
f 7/10/4 10/11/4 11/12/4
f 12/13/5 11/14/5 10/15/5
f 13/16/3 14/17/3 15/18/3
f 16/19/4 13/20/4 15/21/4
f 17/22/5 18/23/5 16/24/5
f 2/2/1 17/25/1 14/26/1
f 17/25/1 16/27/1 15/28/1
f 2/2/1 14/26/1 19/29/1
f 15/28/1 14/26/1 17/25/1
f 9/30/1 8/31/1 10/32/1
f 8/31/1 1/1/1 12/33/1
f 12/33/1 1/1/1 3/3/1
f 12/33/1 10/32/1 8/31/1
f 2/2/1 19/29/1 3/3/1
f 5/5/2 20/34/2 21/35/2
f 20/34/2 7/36/2 22/37/2
f 21/35/2 20/34/2 22/37/2
f 7/36/2 11/38/2 22/37/2
f 18/39/2 23/40/2 24/41/2
f 23/40/2 4/4/2 6/6/2
f 24/41/2 13/42/2 18/39/2
f 6/6/2 24/41/2 23/40/2
f 5/5/2 21/35/2 6/6/2
f 7/7/3 20/43/3 8/8/3
f 7/10/4 9/44/4 10/11/4
f 12/13/5 22/45/5 11/14/5
f 13/16/3 24/46/3 14/17/3
f 16/19/4 18/47/4 13/20/4
f 17/22/5 23/48/5 18/23/5
usemtl Grass.076
f 5/49/6 4/50/6 2/51/6
f 25/52/5 26/53/5 27/54/5
f 4/4/2 25/55/2 27/56/2
f 20/34/2 28/57/2 29/58/2
f 30/59/4 20/60/4 29/61/4
f 31/62/3 29/63/3 28/64/3
f 1/1/1 30/65/1 31/66/1
f 23/67/4 32/68/4 25/69/4
f 17/25/1 26/53/1 32/70/1
f 4/50/6 27/71/6 26/53/6
f 2/51/6 1/72/6 5/49/6
f 1/72/6 31/73/6 5/49/6
f 4/50/6 26/53/6 2/51/6
f 31/73/6 28/74/6 5/49/6
f 25/52/5 32/70/5 26/53/5
f 4/4/2 23/40/2 25/55/2
f 20/34/2 5/5/2 28/57/2
f 30/59/4 8/75/4 20/60/4
f 31/62/3 30/76/3 29/63/3
f 1/1/1 8/31/1 30/65/1
f 23/67/4 17/77/4 32/68/4
f 17/25/1 2/2/1 26/53/1
usemtl Asphalt.123
f 24/78/7 12/79/7 14/80/7
f 24/41/2 21/35/2 22/37/2
f 12/33/1 19/29/1 14/26/1
f 24/78/7 22/81/7 12/79/7
f 24/41/2 6/6/2 21/35/2
f 12/33/1 3/3/1 19/29/1
