# Blender v2.79 (sub 7) OBJ File: ''
# www.blender.org
mtllib roadTile_230.mtl
o Mesh1_Group1_Model.081
v -1.500000 1.730000 1.500000
v 1.500000 1.730000 1.125000
v -1.500000 1.730000 1.125000
v -1.500000 0.000000 -0.750000
v -1.500000 0.000000 1.500000
v -1.500000 0.300000 1.125000
v 1.500000 1.730000 -0.750000
v -1.500000 1.730000 -0.750000
v -1.500000 1.730000 -0.375000
v 1.500000 1.730000 -0.375000
v 1.500000 0.000000 1.500000
v 1.500000 0.000000 -0.750000
v 1.500000 0.300000 1.125000
v 1.500000 1.730000 1.500000
v 1.500000 0.600000 -0.375000
v -1.500000 0.600000 -0.375000
v -1.500000 0.600000 1.125000
v 1.500000 0.600000 1.125000
v -1.500000 0.300000 -0.375000
v 1.500000 0.300000 -0.375000
vt 0.000000 0.000000
vt 3.000000 0.375000
vt 0.000000 0.375000
vt -2.250000 0.000000
vt 0.000000 0.000000
vt -0.375000 0.300000
vt -3.000000 1.730000
vt -0.000000 0.000000
vt -0.000000 1.730000
vt 3.000000 2.250000
vt 0.000000 1.875000
vt 3.000000 1.875000
vt 0.000000 0.000000
vt 2.250000 0.000000
vt 0.375000 0.300000
vt -3.000000 0.000000
vt -0.000000 2.250000
vt -3.000000 2.250000
vt 0.000000 1.730000
vt 3.000000 -0.000000
vt 3.000000 1.730000
vt 3.000000 0.600000
vt 0.000000 1.730000
vt 0.000000 0.600000
vt -0.000000 0.600000
vt -3.000000 1.730000
vt -3.000000 0.600000
vt 3.000000 0.000000
vt -1.875000 1.730000
vt -2.250000 1.730000
vt -1.875000 0.600000
vt -0.375000 0.600000
vt -0.375000 1.730000
vt -1.875000 0.300000
vt -3.000000 0.000000
vt 0.000000 2.250000
vt 2.250000 1.730000
vt 1.875000 0.600000
vt 1.875000 1.730000
vt 1.875000 0.300000
vt 0.375000 1.730000
vt 0.000000 1.730000
vt 0.375000 0.600000
vt 3.000000 1.730000
vt -0.000000 1.730000
vt 0.000000 1.875000
vt 3.000000 0.375000
vt 3.000000 1.875000
vt 0.000000 0.375000
vn 0.0000 1.0000 0.0000
vn -1.0000 0.0000 0.0000
vn 0.0000 0.0000 -1.0000
vn 1.0000 0.0000 0.0000
vn 0.0000 -1.0000 -0.0000
vn 0.0000 -0.0000 1.0000
usemtl Stone.062
s 1
f 1/1/1 2/2/1 3/3/1
f 4/4/2 5/5/2 6/6/2
f 7/7/3 4/8/3 8/9/3
f 7/10/1 9/11/1 10/12/1
f 11/13/4 12/14/4 13/15/4
f 11/16/5 4/17/5 12/18/5
f 1/19/6 11/20/6 14/21/6
f 15/22/6 9/23/6 16/24/6
f 17/25/3 2/26/3 18/27/3
f 1/1/1 14/28/1 2/2/1
f 9/29/2 8/30/2 16/31/2
f 8/30/2 4/4/2 16/31/2
f 5/5/2 1/19/2 17/32/2
f 1/19/2 3/33/2 17/32/2
f 17/32/2 6/6/2 5/5/2
f 19/34/2 16/31/2 4/4/2
f 6/6/2 19/34/2 4/4/2
f 7/7/3 12/35/3 4/8/3
f 7/10/1 8/36/1 9/11/1
f 12/14/4 7/37/4 15/38/4
f 7/37/4 10/39/4 15/38/4
f 15/38/4 20/40/4 12/14/4
f 2/41/4 14/42/4 18/43/4
f 14/42/4 11/13/4 18/43/4
f 13/15/4 18/43/4 11/13/4
f 12/14/4 20/40/4 13/15/4
f 11/16/5 5/5/5 4/17/5
f 1/19/6 5/5/6 11/20/6
f 15/22/6 10/44/6 9/23/6
f 17/25/3 3/45/3 2/26/3
usemtl Asphalt.049
f 16/46/1 18/47/1 15/48/1
f 19/34/2 17/32/2 16/31/2
f 13/15/4 15/38/4 18/43/4
f 16/46/1 17/49/1 18/47/1
f 19/34/2 6/6/2 17/32/2
f 13/15/4 20/40/4 15/38/4
