# Blender v2.79 (sub 7) OBJ File: ''
# www.blender.org
mtllib roadTile_033.mtl
o Mesh1_Group1_Model.302
v 2.107480 0.630000 -0.684857
v 2.025720 0.630000 -0.562500
v 1.960640 0.630000 -0.430519
v 1.913330 0.630000 -0.291171
v 1.884620 0.630000 -0.146842
v 1.875000 0.630000 0.000000
v 2.437500 0.630000 0.000000
v 2.442310 0.630000 -0.073421
v 2.456670 0.630000 -0.145586
v 2.480320 0.630000 -0.215259
v 2.512860 0.630000 -0.281250
v 2.553740 0.630000 -0.342428
v 2.602250 0.630000 -0.397748
v 2.657570 0.630000 -0.446261
v 2.718750 0.630000 -0.487139
v 2.784740 0.630000 -0.519682
v 2.854410 0.630000 -0.543333
v 2.926580 0.630000 -0.557688
v 3.000000 0.630000 -0.562500
v 3.000000 0.630000 -1.125000
v 2.853160 0.630000 -1.115380
v 2.708830 0.630000 -1.086670
v 2.569480 0.630000 -1.039360
v 2.437500 0.630000 -0.974279
v 2.315140 0.630000 -0.892522
v 2.204500 0.630000 -0.795495
v 2.107480 0.600000 -0.684857
v 2.025720 0.600000 -0.562500
v 2.204500 0.600000 -0.795495
v 2.315140 0.600000 -0.892522
v 2.437500 0.600000 -0.974279
v 2.569480 0.600000 -1.039360
v 2.708830 0.600000 -1.086670
v 2.853160 0.600000 -1.115380
v 3.000000 0.600000 -1.125000
v 3.000000 0.000000 -0.562500
v 3.000000 0.000000 -2.437500
v 3.000000 0.550000 -2.437500
v 3.000000 0.630000 -2.437500
v 3.000000 0.630000 -1.875000
v 3.000000 0.600000 -1.875000
v 3.000000 0.300000 -1.875000
v 3.000000 0.300000 -1.125000
v 3.000000 0.550000 -0.562500
v 2.926580 0.550000 -0.557688
v 2.854410 0.550000 -0.543333
v 2.784740 0.550000 -0.519682
v 2.718750 0.550000 -0.487139
v 2.657570 0.550000 -0.446261
v 2.602250 0.550000 -0.397748
v 2.553740 0.550000 -0.342428
v 2.512860 0.550000 -0.281250
v 2.480320 0.550000 -0.215259
v 2.456670 0.550000 -0.145586
v 2.442310 0.550000 -0.073421
v 2.437500 0.550000 0.000000
v 0.562500 0.630000 0.000000
v 0.562500 0.550000 0.000000
v 0.562500 0.000000 0.000000
v 2.437500 0.000000 0.000000
v 1.875000 0.600000 0.000000
v 1.875000 0.300000 0.000000
v 1.125000 0.300000 0.000000
v 1.125000 0.600000 0.000000
v 1.125000 0.630000 0.000000
v 0.583353 0.630000 -0.318158
v 0.583353 0.550000 -0.318158
v 0.000000 0.630000 -0.562500
v 0.631956 0.630000 -0.562500
v 1.141040 0.630000 -0.244737
v 1.188890 0.630000 -0.485286
v 1.215100 0.630000 -0.562500
v 1.267730 0.630000 -0.717531
v 1.376200 0.630000 -0.937500
v 1.501490 0.630000 -1.125000
v 0.000000 0.630000 -1.125000
v 0.000000 0.550000 -0.562500
v 0.631956 0.550000 -0.562500
v 0.000000 0.630000 -2.437500
v 0.000000 0.550000 -2.437500
v 0.000000 0.000000 -2.437500
v 0.000000 0.000000 -0.562500
v 0.000000 0.600000 -1.125000
v 0.000000 0.300000 -1.125000
v 0.000000 0.300000 -1.875000
v 0.000000 0.600000 -1.875000
v 0.000000 0.630000 -1.875000
v 1.501490 0.600000 -1.125000
v 1.376200 0.600000 -0.937500
v 1.267730 0.600000 -0.717531
v 1.188890 0.600000 -0.485286
v 1.141040 0.600000 -0.244737
v 1.884620 0.600000 -0.146842
v 1.913330 0.600000 -0.291171
v 1.960640 0.600000 -0.430519
v 3.000000 0.000000 0.000000
v 0.000000 0.000000 0.000000
v 0.000000 0.000000 -3.000000
v 3.000000 0.000000 -3.000000
v 3.000000 0.550000 0.000000
v 0.000000 0.550000 -3.000000
v 3.000000 0.550000 -3.000000
v 0.000000 0.550000 0.000000
vt 2.657570 0.446261
vt 2.718750 0.487139
vt 2.437500 0.974279
vt -1.740290 0.630000
vt -1.593130 0.600000
vt -1.593130 0.630000
vt -2.051620 0.630000
vt -1.904460 0.600000
vt -1.904460 0.630000
vt -2.329100 0.630000
vt -2.181940 0.600000
vt -2.181940 0.630000
vt -2.567990 0.630000
vt -2.420830 0.600000
vt -2.420830 0.630000
vt -2.764200 0.630000
vt -2.617040 0.600000
vt -2.617040 0.630000
vt -2.914370 0.630000
vt -2.767210 0.600000
vt -2.767210 0.630000
vt -3.015930 0.630000
vt -2.868780 0.600000
vt -2.868780 0.630000
vt -3.067160 0.630000
vt -2.920000 0.600000
vt -2.920000 0.630000
vt 0.562500 0.000000
vt 2.437500 0.000000
vt 1.125000 0.300000
vt 2.956790 0.630000
vt 3.030370 0.550000
vt 3.030370 0.630000
vt 2.905570 0.630000
vt 2.979150 0.550000
vt 2.979150 0.630000
vt 2.804000 0.630000
vt 2.877580 0.550000
vt 2.877580 0.630000
vt 2.653830 0.630000
vt 2.727410 0.550000
vt 2.727410 0.630000
vt 2.457620 0.630000
vt 2.531200 0.550000
vt 2.531200 0.630000
vt 2.218730 0.630000
vt 2.292310 0.550000
vt 2.292310 0.630000
vt 1.941250 0.630000
vt 2.014830 0.550000
vt 2.014830 0.630000
vt 1.629920 0.630000
vt 1.703500 0.550000
vt 1.703500 0.630000
vt 1.290080 0.630000
vt 1.363660 0.550000
vt 1.363660 0.630000
vt 0.927529 0.630000
vt 1.001110 0.550000
vt 1.001110 0.630000
vt 0.548482 0.630000
vt 0.622060 0.550000
vt 0.622060 0.630000
vt 0.159420 0.630000
vt 0.232999 0.550000
vt 0.232999 0.630000
vt 0.562500 0.000000
vt 2.437500 0.000000
vt 1.125000 0.300000
vt -0.355630 0.630000
vt -0.036789 0.550000
vt -0.036789 0.630000
vt 0.631956 0.562500
vt 1.267730 0.717531
vt 1.376200 0.937500
vt 0.000000 0.630000
vt 0.631956 0.550000
vt 0.631956 0.630000
vt -2.437500 0.000000
vt -0.562500 0.000000
vt -1.875000 0.300000
vt -3.000000 0.630000
vt 0.000000 0.550000
vt 0.000000 0.630000
vt 3.000000 2.437500
vt 0.000000 1.875000
vt 3.000000 1.875000
vt 0.000000 0.630000
vt 3.000000 0.600000
vt 3.000000 0.630000
vt -1.501490 0.630000
vt 0.000000 0.600000
vt 0.000000 0.630000
vt 1.769580 0.600000
vt 1.544080 0.630000
vt 1.544080 0.600000
vt 1.204240 0.630000
vt 1.449500 0.600000
vt 1.449500 0.630000
vt 1.086950 0.600000
vt 0.923229 0.630000
vt 0.841688 0.600000
vt 0.462640 0.630000
vt 0.707902 0.600000
vt 0.707902 0.630000
vt 0.073578 0.630000
vt 0.318840 0.600000
vt 0.318840 0.630000
vt -0.269788 0.630000
vt -0.122631 0.600000
vt -0.122631 0.630000
vt -0.658849 0.630000
vt -0.511692 0.600000
vt -0.511692 0.630000
vt -1.037900 0.630000
vt -0.890740 0.600000
vt -0.890740 0.630000
vt -1.400440 0.630000
vt -1.253290 0.600000
vt -1.253290 0.630000
vt -0.674980 0.630000
vt -0.425851 0.550000
vt -0.425851 0.630000
vt 2.204500 0.795495
vt 2.107480 0.684857
vt 2.553740 0.342428
vt 2.025720 0.562500
vt 2.512860 0.281250
vt 1.960640 0.430519
vt 1.913330 0.291171
vt 2.480320 0.215259
vt 1.884620 0.146842
vt 2.456670 0.145586
vt 1.875000 0.000000
vt 2.442310 0.073421
vt 2.437500 0.000000
vt 2.315140 0.892522
vt 2.602250 0.397748
vt 2.569480 1.039360
vt 2.853160 1.115380
vt 2.708830 1.086670
vt 2.854410 0.543333
vt 2.784740 0.519682
vt 3.000000 0.562500
vt 3.000000 1.125000
vt 2.926580 0.557688
vt -1.740290 0.600000
vt -2.051620 0.600000
vt -2.329100 0.600000
vt -2.567990 0.600000
vt -2.764200 0.600000
vt -2.914370 0.600000
vt -3.015930 0.600000
vt -3.067160 0.600000
vt 2.437500 0.550000
vt 1.875000 0.300000
vt 2.437500 0.630000
vt 1.875000 0.600000
vt 1.875000 0.630000
vt 0.562500 0.630000
vt 0.562500 0.550000
vt 1.125000 0.600000
vt 1.125000 0.630000
vt 2.956790 0.550000
vt 2.905570 0.550000
vt 2.804000 0.550000
vt 2.653830 0.550000
vt 2.457620 0.550000
vt 2.218730 0.550000
vt 1.941250 0.550000
vt 1.629920 0.550000
vt 1.290080 0.550000
vt 0.927529 0.550000
vt 0.548482 0.550000
vt 0.159420 0.550000
vt 1.125000 0.630000
vt 0.562500 0.630000
vt 1.125000 0.600000
vt 0.562500 0.550000
vt 2.437500 0.550000
vt 2.437500 0.630000
vt 1.875000 0.600000
vt 1.875000 0.630000
vt 1.875000 0.300000
vt -0.355630 0.550000
vt 0.000000 1.125000
vt 0.000000 0.562500
vt 0.583353 0.318158
vt 1.141040 0.244737
vt 0.562500 0.000000
vt 1.188890 0.485286
vt 1.125000 0.000000
vt 1.501490 1.125000
vt 1.215100 0.562500
vt 0.000000 0.550000
vt -1.875000 0.630000
vt -2.437500 0.630000
vt -1.875000 0.600000
vt -2.437500 0.550000
vt -0.562500 0.550000
vt -1.125000 0.300000
vt -0.562500 0.630000
vt -1.125000 0.600000
vt -1.125000 0.630000
vt -3.000000 0.550000
vt 0.000000 2.437500
vt 0.000000 0.600000
vt -1.501490 0.600000
vt 1.769580 0.630000
vt 1.204240 0.600000
vt 1.086950 0.630000
vt 0.841688 0.630000
vt 0.462640 0.600000
vt 0.073578 0.600000
vt -0.269788 0.600000
vt -0.658849 0.600000
vt -1.037900 0.600000
vt -1.400440 0.600000
vt -0.674980 0.550000
vt 0.000000 2.437500
vt 0.000000 3.000000
vt -3.000000 2.437500
vt 0.000000 0.550000
vt 0.000000 0.000000
vt 2.456670 0.145586
vt 2.442310 0.073421
vt 3.000000 0.000000
vt 0.000000 2.437500
vt 3.000000 3.000000
vt 0.000000 3.000000
vt -3.000000 0.550000
vt -3.000000 0.000000
vt -3.000000 0.000000
vt 0.000000 0.550000
vt -3.000000 0.550000
vt 3.000000 0.000000
vt 3.000000 0.550000
vt 0.000000 0.000000
vt 0.000000 0.550000
vt 0.583353 0.318158
vt 0.631956 0.562500
vt -0.000000 0.562500
vt 3.000000 0.000000
vt 3.000000 0.550000
vt -3.000000 0.562500
vt -2.437500 0.000000
vt -3.000000 0.000000
vt -0.562500 0.000000
vt 0.000000 0.562500
vt -3.000000 3.000000
vt 2.437500 0.000000
vt 3.000000 0.562500
vt 2.926580 0.557688
vt 2.854410 0.543333
vt 2.784740 0.519682
vt 2.718750 0.487139
vt 2.657570 0.446261
vt 2.602250 0.397748
vt 2.553740 0.342428
vt 2.512860 0.281250
vt 2.480320 0.215259
vt 3.000000 2.437500
vt 0.000000 0.000000
vt -0.000000 0.000000
vt 0.562500 0.000000
vt 1.960640 0.430519
vt 2.025720 0.562500
vt 1.267730 0.717531
vt 2.853160 1.115380
vt 3.000000 1.125000
vt 3.000000 1.875000
vt -0.000000 1.875000
vt 1.501490 1.125000
vt -0.000000 1.125000
vt 1.376200 0.937500
vt 2.107480 0.684857
vt 2.708830 1.086670
vt 2.569480 1.039360
vt 2.437500 0.974279
vt 2.315140 0.892522
vt 2.204500 0.795495
vt 1.188890 0.485286
vt 1.913330 0.291171
vt 1.141040 0.244737
vt 1.125000 0.000000
vt 1.884620 0.146842
vt 1.875000 0.000000
vn 0.0000 1.0000 0.0000
vn -0.7934 0.0000 -0.6088
vn -0.8660 0.0000 -0.5000
vn -0.7071 0.0000 -0.7071
vn -0.6088 0.0000 -0.7934
vn -0.5000 0.0000 -0.8660
vn -0.3827 0.0000 -0.9239
vn -0.2588 0.0000 -0.9659
vn -0.1305 0.0000 -0.9914
vn -0.0654 0.0000 -0.9979
vn 1.0000 0.0000 0.0000
vn 0.1305 0.0000 0.9914
vn 0.0654 0.0000 0.9979
vn 0.2588 0.0000 0.9659
vn 0.3827 0.0000 0.9239
vn 0.5000 0.0000 0.8660
vn 0.6088 0.0000 0.7934
vn 0.7071 0.0000 0.7071
vn 0.7934 0.0000 0.6088
vn 0.8660 0.0000 0.5000
vn 0.9239 0.0000 0.3827
vn 0.9659 0.0000 0.2588
vn 0.9914 -0.0000 0.1305
vn 0.9979 -0.0000 0.0654
vn -0.0000 -0.0000 1.0000
vn -0.9914 -0.0000 -0.1305
vn -0.9979 -0.0000 -0.0654
vn -1.0000 0.0000 0.0000
vn 0.0000 0.0000 -1.0000
vn 0.8315 0.0000 0.5556
vn 0.9469 0.0000 0.3215
vn -0.9659 0.0000 -0.2588
vn -0.9239 0.0000 -0.3827
vn -0.9808 0.0000 -0.1951
vn 0.0000 -1.0000 -0.0000
usemtl Stone.258
s 1
f 14/1/1 15/2/1 24/3/1
f 1/4/2 28/5/3 2/6/3
f 26/7/4 27/8/2 1/9/2
f 25/10/5 29/11/4 26/12/4
f 24/13/6 30/14/5 25/15/5
f 23/16/7 31/17/6 24/18/6
f 22/19/8 32/20/7 23/21/7
f 21/22/9 33/23/8 22/24/8
f 20/25/10 34/26/9 21/27/9
f 36/28/11 37/29/11 43/30/11
f 18/31/12 44/32/13 19/33/13
f 17/34/14 45/35/12 18/36/12
f 16/37/15 46/38/14 17/39/14
f 15/40/16 47/41/15 16/42/15
f 14/43/17 48/44/16 15/45/16
f 13/46/18 49/47/17 14/48/17
f 12/49/19 50/50/18 13/51/18
f 11/52/20 51/53/19 12/54/19
f 10/55/21 52/56/20 11/57/20
f 9/58/22 53/59/21 10/60/21
f 8/61/23 54/62/22 9/63/22
f 7/64/24 55/65/23 8/66/23
f 59/67/25 60/68/25 63/69/25
f 66/70/26 58/71/27 57/72/27
f 69/73/1 73/74/1 74/75/1
f 68/76/25 78/77/25 69/78/25
f 81/79/28 82/80/28 85/81/28
f 39/82/29 80/83/29 79/84/29
f 39/85/1 87/86/1 40/87/1
f 87/88/25 41/89/25 40/90/25
f 75/91/29 83/92/29 76/93/29
f 88/94/30 74/95/20 89/96/20
f 73/97/21 89/98/20 74/99/20
f 90/100/21 72/101/31 91/102/22
f 70/103/23 91/104/22 71/105/22
f 65/106/24 92/107/23 70/108/23
f 5/109/26 61/110/27 6/111/27
f 4/112/32 93/113/26 5/114/26
f 3/115/33 94/116/32 4/117/32
f 2/118/3 95/119/33 3/120/33
f 69/121/34 67/122/26 66/123/26
f 26/124/1 1/125/1 12/126/1
f 1/125/1 2/127/1 11/128/1
f 2/127/1 3/129/1 11/128/1
f 3/129/1 4/130/1 10/131/1
f 11/128/1 3/129/1 10/131/1
f 4/130/1 5/132/1 9/133/1
f 5/132/1 6/134/1 8/135/1
f 4/130/1 9/133/1 10/131/1
f 6/134/1 7/136/1 8/135/1
f 8/135/1 9/133/1 5/132/1
f 25/137/1 26/124/1 13/138/1
f 1/125/1 11/128/1 12/126/1
f 23/139/1 24/3/1 15/2/1
f 24/3/1 25/137/1 14/1/1
f 14/1/1 25/137/1 13/138/1
f 21/140/1 22/141/1 17/142/1
f 22/141/1 23/139/1 16/143/1
f 16/143/1 23/139/1 15/2/1
f 19/144/1 20/145/1 18/146/1
f 20/145/1 21/140/1 18/146/1
f 13/138/1 26/124/1 12/126/1
f 17/142/1 18/146/1 21/140/1
f 16/143/1 17/142/1 22/141/1
f 1/4/2 27/147/2 28/5/3
f 26/7/4 29/148/4 27/8/2
f 25/10/5 30/149/5 29/11/4
f 24/13/6 31/150/6 30/14/5
f 23/16/7 32/151/7 31/17/6
f 22/19/8 33/152/8 32/20/7
f 21/22/9 34/153/9 33/23/8
f 20/25/10 35/154/10 34/26/9
f 37/29/11 38/155/11 42/156/11
f 38/155/11 39/157/11 41/158/11
f 42/156/11 38/155/11 41/158/11
f 39/157/11 40/159/11 41/158/11
f 19/160/11 44/161/11 35/162/11
f 44/161/11 36/28/11 43/30/11
f 35/162/11 20/163/11 19/160/11
f 43/30/11 35/162/11 44/161/11
f 37/29/11 42/156/11 43/30/11
f 18/31/12 45/164/12 44/32/13
f 17/34/14 46/165/14 45/35/12
f 16/37/15 47/166/15 46/38/14
f 15/40/16 48/167/16 47/41/15
f 14/43/17 49/168/17 48/44/16
f 13/46/18 50/169/18 49/47/17
f 12/49/19 51/170/19 50/50/18
f 11/52/20 52/171/20 51/53/19
f 10/55/21 53/172/21 52/56/20
f 9/58/22 54/173/22 53/59/21
f 8/61/23 55/174/23 54/62/22
f 7/64/24 56/175/24 55/65/23
f 65/176/25 57/177/25 64/178/25
f 57/177/25 58/179/25 64/178/25
f 56/180/25 7/181/25 61/182/25
f 7/181/25 6/183/25 61/182/25
f 61/182/25 62/184/25 56/180/25
f 56/180/25 62/184/25 60/68/25
f 58/179/25 59/67/25 63/69/25
f 64/178/25 58/179/25 63/69/25
f 60/68/25 62/184/25 63/69/25
f 66/70/26 67/185/26 58/71/27
f 76/186/1 68/187/1 69/73/1
f 69/73/1 66/188/1 70/189/1
f 66/188/1 57/190/1 70/189/1
f 69/73/1 70/189/1 71/191/1
f 57/190/1 65/192/1 70/189/1
f 75/193/1 76/186/1 74/75/1
f 76/186/1 69/73/1 74/75/1
f 69/73/1 71/191/1 72/194/1
f 69/73/1 72/194/1 73/74/1
f 68/76/25 77/195/25 78/77/25
f 87/196/28 79/197/28 86/198/28
f 79/197/28 80/199/28 86/198/28
f 82/80/28 77/200/28 84/201/28
f 77/200/28 68/202/28 83/203/28
f 84/201/28 77/200/28 83/203/28
f 68/202/28 76/204/28 83/203/28
f 80/199/28 81/79/28 85/81/28
f 86/198/28 80/199/28 85/81/28
f 82/80/28 84/201/28 85/81/28
f 39/82/29 38/205/29 80/83/29
f 39/85/1 79/206/1 87/86/1
f 87/88/25 86/207/25 41/89/25
f 75/91/29 88/208/29 83/92/29
f 88/94/30 75/209/30 74/95/20
f 73/97/21 90/210/21 89/98/20
f 73/211/21 72/101/31 90/100/21
f 72/101/31 71/212/22 91/102/22
f 70/103/23 92/213/23 91/104/22
f 65/106/24 64/214/24 92/107/23
f 5/109/26 93/215/26 61/110/27
f 4/112/32 94/216/32 93/113/26
f 3/115/33 95/217/33 94/116/32
f 2/118/3 28/218/3 95/119/33
f 69/121/34 78/219/34 67/122/26
usemtl Grass.128
f 81/220/35 98/221/35 37/222/35
f 36/28/11 100/223/11 96/224/11
f 54/225/1 55/226/1 100/227/1
f 80/228/1 102/229/1 101/230/1
f 81/79/28 101/231/28 98/232/28
f 99/233/29 101/234/29 102/235/29
f 38/155/11 99/236/11 102/237/11
f 77/200/28 97/238/28 103/239/28
f 67/240/1 78/241/1 77/242/1
f 59/67/25 103/239/25 97/238/25
f 56/180/25 96/243/25 100/244/25
f 37/222/35 36/245/35 60/246/35
f 36/245/35 96/247/35 60/246/35
f 60/246/35 59/248/35 37/222/35
f 59/248/35 97/238/35 82/249/35
f 37/222/35 59/248/35 82/249/35
f 98/221/35 99/250/35 37/222/35
f 82/249/35 81/220/35 37/222/35
f 36/28/11 44/161/11 100/223/11
f 56/251/1 100/227/1 55/226/1
f 100/227/1 44/252/1 45/253/1
f 46/254/1 100/227/1 45/253/1
f 46/254/1 47/255/1 100/227/1
f 47/255/1 48/256/1 100/227/1
f 48/256/1 49/257/1 100/227/1
f 49/257/1 50/258/1 100/227/1
f 50/258/1 51/259/1 100/227/1
f 51/259/1 52/260/1 100/227/1
f 52/260/1 53/261/1 100/227/1
f 53/261/1 54/225/1 100/227/1
f 80/228/1 38/262/1 102/229/1
f 81/79/28 80/199/28 101/231/28
f 99/233/29 98/263/29 101/234/29
f 38/155/11 37/29/11 99/236/11
f 77/200/28 82/80/28 97/238/28
f 77/242/1 103/264/1 67/240/1
f 103/264/1 58/265/1 67/240/1
f 59/67/25 58/179/25 103/239/25
f 56/180/25 60/68/25 96/243/25
usemtl Asphalt.211
f 95/266/1 28/267/1 90/268/1
f 43/30/11 41/158/11 35/162/11
f 85/81/28 83/203/28 86/198/28
f 63/69/25 61/182/25 64/178/25
f 34/269/1 35/270/1 41/271/1
f 41/271/1 86/272/1 88/273/1
f 86/272/1 83/274/1 88/273/1
f 88/273/1 89/275/1 28/267/1
f 89/275/1 90/268/1 28/267/1
f 88/273/1 28/267/1 27/276/1
f 33/277/1 34/269/1 41/271/1
f 32/278/1 33/277/1 41/271/1
f 41/271/1 88/273/1 31/279/1
f 30/280/1 88/273/1 29/281/1
f 90/268/1 91/282/1 94/283/1
f 91/282/1 92/284/1 94/283/1
f 90/268/1 94/283/1 95/266/1
f 92/284/1 64/285/1 93/286/1
f 64/285/1 61/287/1 93/286/1
f 88/273/1 30/280/1 31/279/1
f 31/279/1 32/278/1 41/271/1
f 92/284/1 93/286/1 94/283/1
f 29/281/1 88/273/1 27/276/1
f 43/30/11 42/156/11 41/158/11
f 85/81/28 84/201/28 83/203/28
f 63/69/25 62/184/25 61/182/25
