# Blender v2.79 (sub 7) OBJ File: ''
# www.blender.org
mtllib roadTile_265.mtl
o Mesh1_Group1_Model.254
v -1.043429 0.630000 -0.904980
v -1.125000 0.455000 -0.850480
v -1.043429 0.455000 -0.904980
v -0.969670 0.630000 -0.969670
v -0.969670 0.455000 -0.969670
v -0.904985 0.630000 -1.043430
v -0.904985 0.455000 -1.043430
v -0.850481 0.630000 -1.125000
v -0.850481 0.455000 -1.125000
v -0.807090 0.630000 -1.212990
v -0.807090 0.455000 -1.212990
v -0.775556 0.630000 -1.305890
v -0.775556 0.455000 -1.305890
v -0.756416 0.630000 -1.402110
v -0.756416 0.455000 -1.402110
v -0.750000 0.630000 -1.500000
v -0.750000 0.455000 -1.500000
v -1.125000 0.550000 -1.500000
v -0.750000 0.455000 1.500000
v -0.750000 0.630000 1.500000
v -1.125000 0.550000 1.500000
v -1.128208 0.630000 1.451053
v -1.128208 0.550000 1.451053
v -1.137778 0.630000 1.402943
v -1.137778 0.550000 1.402943
v -1.312500 0.630000 1.175240
v -1.271714 0.630000 1.202492
v -1.125000 0.630000 0.850481
v -1.500000 0.550000 1.125000
v -1.500000 0.630000 0.750000
v -1.500000 0.455000 0.750000
v -1.451053 0.550000 1.128208
v -1.500000 0.630000 1.125000
v -1.402943 0.550000 1.137778
v -1.451053 0.630000 1.128208
v -1.356494 0.550000 1.153545
v -1.402943 0.630000 1.137778
v -1.312500 0.550000 1.175240
v -1.356494 0.630000 1.153545
v -1.271714 0.550000 1.202492
v -1.234835 0.550000 1.234835
v -1.202492 0.550000 1.271714
v -1.234835 0.630000 1.234835
v -1.175240 0.550000 1.312500
v -1.202492 0.630000 1.271714
v -1.153545 0.550000 1.356494
v -1.175240 0.630000 1.312500
v -1.153545 0.630000 1.356494
v -1.402105 0.455000 0.756416
v -1.402105 0.630000 0.756416
v -1.305886 0.455000 0.775556
v -1.305886 0.630000 0.775556
v -1.212987 0.455000 0.807090
v -1.212987 0.630000 0.807090
v -1.125000 0.455000 0.850481
v -1.043429 0.455000 0.904985
v -1.043429 0.630000 0.904985
v -0.969670 0.455000 0.969670
v -0.969670 0.630000 0.969670
v -0.904985 0.455000 1.043429
v -0.904985 0.630000 1.043429
v -0.850481 0.455000 1.125000
v -0.850481 0.630000 1.125000
v -0.807090 0.455000 1.212987
v -0.807090 0.630000 1.212987
v -0.775556 0.455000 1.305886
v -0.775556 0.630000 1.305886
v -0.756416 0.455000 1.402105
v -0.756416 0.630000 1.402105
v -1.402105 0.630000 -0.756420
v -1.500000 0.455000 -0.750000
v -1.402105 0.455000 -0.756420
v -1.305886 0.630000 -0.775560
v -1.305886 0.455000 -0.775560
v -1.212987 0.630000 -0.807090
v -1.212987 0.455000 -0.807090
v -1.125000 0.630000 -0.850480
v -1.175240 0.630000 -1.312500
v -1.202492 0.630000 -1.271710
v -1.128208 0.550000 -1.451050
v -1.125000 0.630000 -1.500000
v -1.500000 0.630000 -0.750000
v -1.500000 0.550000 -1.125000
v -1.451053 0.630000 -1.128210
v -1.451053 0.550000 -1.128210
v -1.402943 0.630000 -1.137780
v -1.402943 0.550000 -1.137780
v -1.356494 0.630000 -1.153550
v -1.356494 0.550000 -1.153550
v -1.312500 0.630000 -1.175240
v -1.312500 0.550000 -1.175240
v -1.271714 0.630000 -1.202490
v -1.271714 0.550000 -1.202490
v -1.234835 0.630000 -1.234830
v -1.234835 0.550000 -1.234830
v -1.202492 0.550000 -1.271710
v -1.175240 0.550000 -1.312500
v -1.153545 0.630000 -1.356490
v -1.153545 0.550000 -1.356490
v -1.137778 0.630000 -1.402940
v -1.137778 0.550000 -1.402940
v -1.128208 0.630000 -1.451050
v -0.750000 0.000000 -1.500000
v -1.125000 0.000000 -1.500000
v -1.125000 0.630000 1.500000
v -1.125000 0.000000 1.500000
v -0.750000 0.000000 1.500000
v -1.500000 0.000000 0.750000
v -1.500000 0.000000 1.125000
v -1.500000 0.630000 -1.125000
v -1.500000 0.000000 -1.125000
v -1.500000 0.000000 -0.750000
v -1.500000 0.550000 1.500000
v -1.500000 0.000000 1.500000
v -1.500000 0.550000 -1.500000
v -1.500000 0.000000 -1.500000
v 1.500000 0.000000 -1.500000
v 1.500000 0.000000 1.500000
v 1.500000 0.455000 1.500000
v 1.500000 0.455000 -1.500000
vt 1.715760 0.630000
vt 1.617660 0.455000
vt 1.715760 0.455000
vt 2.027090 0.630000
vt 1.928990 0.455000
vt 2.027090 0.455000
vt 2.304570 0.630000
vt 2.206470 0.455000
vt 2.304570 0.455000
vt 2.543460 0.630000
vt 2.445360 0.455000
vt 2.543460 0.455000
vt 2.739670 0.630000
vt 2.641570 0.455000
vt 2.739670 0.455000
vt 2.889840 0.630000
vt 2.791740 0.455000
vt 2.889840 0.455000
vt 2.991410 0.630000
vt 2.893300 0.455000
vt 2.991410 0.455000
vt 3.042630 0.630000
vt 2.944520 0.455000
vt 3.042630 0.455000
vt -0.750000 0.455000
vt -0.375000 0.550000
vt -0.750000 0.630000
vt 0.750000 0.455000
vt 0.750000 0.630000
vt 0.375000 0.550000
vt 0.024526 0.550000
vt -0.024526 0.630000
vt -0.024526 0.550000
vt 0.024526 0.550000
vt -0.024526 0.630000
vt -0.024526 0.550000
vt 0.187500 0.324760
vt 0.228286 0.297508
vt 0.375000 0.649519
vt -0.375000 0.550000
vt -0.750000 0.630000
vt -0.750000 0.455000
vt 0.024526 0.550000
vt -0.024526 0.630000
vt -0.024526 0.550000
vt 0.024526 0.550000
vt -0.024526 0.630000
vt -0.024526 0.550000
vt 0.024526 0.550000
vt -0.024526 0.630000
vt -0.024526 0.550000
vt 0.024526 0.550000
vt -0.024526 0.630000
vt -0.024526 0.550000
vt 0.024526 0.550000
vt -0.024526 0.630000
vt -0.024526 0.550000
vt 0.024526 0.550000
vt -0.024526 0.630000
vt -0.024526 0.550000
vt 0.024526 0.550000
vt -0.024526 0.630000
vt -0.024526 0.550000
vt 0.024526 0.550000
vt -0.024526 0.630000
vt -0.024526 0.550000
vt 0.024526 0.550000
vt -0.024526 0.630000
vt -0.024526 0.550000
vt 0.024526 0.550000
vt -0.024526 0.630000
vt -0.024526 0.550000
vt 0.049052 0.630000
vt -0.049052 0.455000
vt 0.049052 0.455000
vt 0.049052 0.630000
vt -0.049052 0.455000
vt 0.049052 0.455000
vt 0.049052 0.630000
vt -0.049052 0.455000
vt 0.049052 0.455000
vt 0.049052 0.630000
vt -0.049052 0.455000
vt 0.049052 0.455000
vt 0.049052 0.630000
vt -0.049052 0.455000
vt 0.049052 0.455000
vt 0.049052 0.630000
vt -0.049052 0.455000
vt 0.049052 0.455000
vt 0.049052 0.630000
vt -0.049052 0.455000
vt 0.049052 0.455000
vt 0.049052 0.630000
vt -0.049052 0.455000
vt 0.049052 0.455000
vt 0.049052 0.630000
vt -0.049052 0.455000
vt 0.049052 0.455000
vt 0.049052 0.630000
vt -0.049052 0.455000
vt 0.049052 0.455000
vt 0.049052 0.630000
vt -0.049052 0.455000
vt 0.049052 0.455000
vt 0.049052 0.630000
vt -0.049052 0.455000
vt 0.049052 0.455000
vt 0.245262 0.630000
vt 0.147157 0.455000
vt 0.245262 0.455000
vt 0.634323 0.630000
vt 0.536219 0.455000
vt 0.634323 0.455000
vt 1.013370 0.630000
vt 0.915266 0.455000
vt 1.013370 0.455000
vt 1.375920 0.630000
vt 1.277810 0.455000
vt 1.375920 0.455000
vt 0.324760 2.812500
vt 0.297508 2.771710
vt 0.649519 2.625000
vt -2.969050 0.550000
vt -3.018100 0.630000
vt -3.018100 0.550000
vt -2.250000 0.455000
vt -2.250000 0.630000
vt -2.625000 0.550000
vt -0.171683 0.550000
vt -0.220736 0.630000
vt -0.220736 0.550000
vt -0.560745 0.550000
vt -0.609797 0.630000
vt -0.609797 0.550000
vt -0.939792 0.550000
vt -0.988845 0.630000
vt -0.988845 0.550000
vt -1.302340 0.550000
vt -1.351390 0.630000
vt -1.351390 0.550000
vt -1.642180 0.550000
vt -1.691240 0.630000
vt -1.691240 0.550000
vt -1.953510 0.550000
vt -2.002560 0.630000
vt -2.002560 0.550000
vt -2.230990 0.550000
vt -2.280050 0.630000
vt -2.280050 0.550000
vt -2.469880 0.550000
vt -2.518940 0.630000
vt -2.518940 0.550000
vt -2.666090 0.550000
vt -2.715140 0.630000
vt -2.715140 0.550000
vt -2.816260 0.550000
vt -2.865320 0.630000
vt -2.865320 0.550000
vt -2.917830 0.550000
vt -2.966880 0.630000
vt -2.966880 0.550000
vt 1.617660 0.630000
vt 1.928990 0.630000
vt 2.206470 0.630000
vt 2.445360 0.630000
vt 2.641570 0.630000
vt 2.791740 0.630000
vt 2.893300 0.630000
vt 2.944520 0.630000
vt -0.750000 -0.000000
vt -0.375000 -0.000000
vt -0.375000 0.630000
vt 0.375000 0.630000
vt 0.375000 0.000000
vt 0.750000 0.000000
vt 0.024526 0.630000
vt 0.024526 0.630000
vt 0.097895 0.743584
vt 0.000000 0.750000
vt 0.048947 0.371792
vt 0.000000 0.375000
vt 0.287013 0.692910
vt 0.194114 0.724444
vt 0.097057 0.362222
vt 0.456571 0.595015
vt 0.265165 0.265165
vt 0.595015 0.456571
vt 0.530330 0.530330
vt 0.297508 0.228286
vt 0.324760 0.187500
vt 0.692910 0.287013
vt 0.649519 0.375000
vt 0.346455 0.143506
vt 0.743584 0.097895
vt 0.724444 0.194114
vt 0.362222 0.097057
vt 0.375000 0.000000
vt 0.750000 0.000000
vt 0.371792 0.048947
vt 0.143506 0.346455
vt -0.750000 0.000000
vt -0.375000 0.000000
vt -0.375000 0.630000
vt 0.024526 0.630000
vt 0.024526 0.630000
vt 0.024526 0.630000
vt 0.024526 0.630000
vt 0.024526 0.630000
vt 0.024526 0.630000
vt 0.024526 0.630000
vt 0.024526 0.630000
vt 0.024526 0.630000
vt 0.024526 0.630000
vt -0.049052 0.630000
vt -0.049052 0.630000
vt -0.049052 0.630000
vt -0.049052 0.630000
vt -0.049052 0.630000
vt -0.049052 0.630000
vt -0.049052 0.630000
vt -0.049052 0.630000
vt -0.049052 0.630000
vt -0.049052 0.630000
vt -0.049052 0.630000
vt -0.049052 0.630000
vt 0.147157 0.630000
vt 0.536219 0.630000
vt 0.915266 0.630000
vt 1.277810 0.630000
vt 0.743584 2.902110
vt 0.750000 3.000000
vt 0.375000 3.000000
vt 0.371792 2.951050
vt 0.692910 2.712990
vt 0.724444 2.805890
vt 0.362222 2.902940
vt 0.595015 2.543430
vt 0.265165 2.734830
vt 0.456571 2.404980
vt 0.530330 2.469670
vt 0.228286 2.702490
vt 0.187500 2.675240
vt 0.287013 2.307090
vt 0.375000 2.350480
vt 0.143506 2.653550
vt 0.097895 2.256420
vt 0.194114 2.275560
vt 0.097057 2.637780
vt 0.000000 2.625000
vt 0.000000 2.250000
vt 0.048947 2.628210
vt 0.346455 2.856490
vt -2.969050 0.630000
vt -2.625000 0.630000
vt -2.625000 0.000000
vt -2.250000 0.000000
vt -0.171683 0.630000
vt -0.560745 0.630000
vt -0.939792 0.630000
vt -1.302340 0.630000
vt -1.642180 0.630000
vt -1.953510 0.630000
vt -2.230990 0.630000
vt -2.469880 0.630000
vt -2.666090 0.630000
vt -2.816260 0.630000
vt -2.917830 0.630000
vt -0.000000 2.250000
vt -0.000000 2.625000
vt -0.750000 3.000000
vt 0.000000 0.550000
vt -0.000000 -0.000000
vt 0.097057 0.362222
vt 0.048947 0.371792
vt 0.000000 0.000000
vt 0.362222 2.902940
vt 0.371792 2.951050
vt 0.000000 3.000000
vt -3.000000 0.550000
vt -3.000000 0.000000
vt -0.000000 -0.000000
vt -0.000000 0.550000
vt -0.750000 0.000000
vt -0.375000 0.000000
vt -0.000000 0.375000
vt -0.000000 0.750000
vt -3.000000 3.000000
vt -3.000000 0.000000
vt -0.000000 3.000000
vt -0.375000 3.000000
vt 0.000000 0.375000
vt 0.375000 0.000000
vt 0.371792 0.048947
vt 0.362222 0.097057
vt 0.346455 0.143506
vt 0.324760 0.187500
vt 0.297508 0.228286
vt 0.265165 0.265165
vt 0.228286 0.297508
vt 0.187500 0.324760
vt 0.143506 0.346455
vt 0.375000 3.000000
vt 0.000000 2.625000
vt 0.048947 2.628210
vt 0.097057 2.637780
vt 0.143506 2.653550
vt 0.187500 2.675240
vt 0.228286 2.702490
vt 0.265165 2.734830
vt 0.297508 2.771710
vt 0.324760 2.812500
vt 0.346455 2.856490
vt 0.724444 0.194114
vt 0.743584 0.097895
vt 3.000000 0.000000
vt 3.000000 0.455000
vt 0.000000 0.000000
vt 3.000000 0.455000
vt 0.000000 0.455000
vt -3.000000 0.455000
vt -3.000000 -0.000000
vt 0.097895 2.256420
vt 0.000000 2.250000
vt 0.097895 0.743584
vt 0.000000 0.750000
vt 0.194114 2.275560
vt 0.194114 0.724444
vt 0.287013 2.307090
vt 0.287013 0.692910
vt 0.375000 2.350480
vt 0.375000 0.649519
vt 0.456571 2.404980
vt 0.456571 0.595015
vt 0.530330 2.469670
vt 0.530330 0.530330
vt 0.595015 2.543430
vt 0.595015 0.456571
vt 0.649519 2.625000
vt 3.000000 3.000000
vt 0.649519 0.375000
vt 0.692910 2.712990
vt 0.692910 0.287013
vt 0.724444 2.805890
vt 0.750000 3.000000
vt 0.743584 2.902110
vt 0.750000 0.000000
vt 3.000000 0.000000
vt 3.000000 0.000000
vn 0.6088 0.0000 0.7934
vn 0.5000 0.0000 0.8660
vn 0.7071 0.0000 0.7071
vn 0.7934 0.0000 0.6088
vn 0.8660 0.0000 0.5000
vn 0.9239 0.0000 0.3827
vn 0.9659 0.0000 0.2588
vn 0.9914 0.0000 0.1305
vn 0.9979 0.0000 0.0654
vn -0.0000 0.0000 -1.0000
vn 0.0000 0.0000 1.0000
vn -0.9979 0.0000 0.0654
vn -0.9914 0.0000 0.1305
vn -0.9659 0.0000 0.2588
vn 0.0000 1.0000 0.0000
vn -1.0000 0.0000 0.0000
vn -0.1305 0.0000 0.9914
vn -0.0654 0.0000 0.9979
vn -0.2588 0.0000 0.9659
vn -0.3827 0.0000 0.9239
vn -0.5000 0.0000 0.8660
vn -0.6088 0.0000 0.7934
vn -0.7071 0.0000 0.7071
vn -0.6088 0.0000 0.7933
vn -0.7934 0.0000 0.6088
vn -0.8660 0.0000 0.5000
vn -0.9239 0.0000 0.3827
vn 0.0654 0.0000 -0.9979
vn 0.1305 0.0000 -0.9914
vn 0.2588 0.0000 -0.9659
vn 0.3827 0.0000 -0.9239
vn 0.5000 0.0000 -0.8660
vn 0.6088 0.0000 -0.7934
vn 0.7071 0.0000 -0.7071
vn 0.7934 0.0000 -0.6088
vn 0.8660 0.0000 -0.5000
vn 0.9239 0.0000 -0.3827
vn 0.9659 0.0000 -0.2588
vn 0.9914 -0.0000 -0.1305
vn 0.9979 0.0000 -0.0654
vn 0.1305 0.0000 0.9914
vn 0.0654 0.0000 0.9979
vn 0.2588 0.0000 0.9659
vn 0.3827 0.0000 0.9239
vn -0.9914 0.0000 -0.1305
vn -0.9979 0.0000 -0.0654
vn -0.0654 0.0000 -0.9979
vn -0.1305 0.0000 -0.9914
vn -0.2588 0.0000 -0.9659
vn -0.3827 0.0000 -0.9239
vn -0.4999 0.0000 -0.8661
vn -0.6087 0.0000 -0.7934
vn -0.7071 0.0000 -0.7071
vn -0.7934 0.0000 -0.6087
vn -0.8660 0.0000 -0.5000
vn -0.9239 0.0000 -0.3827
vn -0.9659 0.0000 -0.2588
vn -0.0000 -1.0000 -0.0000
vn 1.0000 0.0000 0.0000
usemtl Stone.217
s 1
f 1/1/1 2/2/2 3/3/1
f 4/4/3 3/5/1 5/6/3
f 6/7/4 5/8/3 7/9/4
f 8/10/5 7/11/4 9/12/5
f 10/13/6 9/14/5 11/15/6
f 12/16/7 11/17/6 13/18/7
f 14/19/8 13/20/7 15/21/8
f 16/22/9 15/23/8 17/24/9
f 17/25/10 18/26/10 16/27/10
f 19/28/11 20/29/11 21/30/11
f 21/31/12 22/32/13 23/33/13
f 23/34/13 24/35/14 25/36/14
f 26/37/15 27/38/15 28/39/15
f 29/40/16 30/41/16 31/42/16
f 32/43/17 33/44/18 29/45/18
f 34/46/19 35/47/17 32/48/17
f 36/49/20 37/50/19 34/51/19
f 38/52/21 39/53/20 36/54/20
f 40/55/22 26/56/21 38/57/21
f 41/58/23 27/59/24 40/60/22
f 42/61/25 43/62/23 41/63/23
f 44/64/26 45/65/25 42/66/25
f 46/67/27 47/68/26 44/69/26
f 25/70/14 48/71/27 46/72/27
f 30/73/28 49/74/29 31/75/28
f 50/76/29 51/77/30 49/78/29
f 52/79/30 53/80/31 51/81/30
f 54/82/31 55/83/32 53/84/31
f 28/85/32 56/86/33 55/87/32
f 57/88/33 58/89/34 56/90/33
f 59/91/34 60/92/35 58/93/34
f 61/94/35 62/95/36 60/96/35
f 63/97/36 64/98/37 62/99/36
f 65/100/37 66/101/38 64/102/37
f 67/103/38 68/104/39 66/105/38
f 69/106/39 19/107/40 68/108/39
f 70/109/41 71/110/42 72/111/41
f 73/112/43 72/113/41 74/114/43
f 75/115/44 74/116/43 76/117/44
f 77/118/2 76/119/44 2/120/2
f 78/121/15 79/122/15 8/123/15
f 80/124/45 81/125/46 18/126/46
f 71/127/16 82/128/16 83/129/16
f 83/130/47 84/131/48 85/132/48
f 85/133/48 86/134/49 87/135/49
f 87/136/49 88/137/50 89/138/50
f 89/139/50 90/140/51 91/141/51
f 91/142/51 92/143/52 93/144/52
f 93/145/52 94/146/53 95/147/53
f 95/148/53 79/149/54 96/150/54
f 96/151/54 78/152/55 97/153/55
f 97/154/55 98/155/56 99/156/56
f 99/157/56 100/158/57 101/159/57
f 101/160/57 102/161/45 80/162/45
f 1/1/1 77/163/2 2/2/2
f 4/4/3 1/164/1 3/5/1
f 6/7/4 4/165/3 5/8/3
f 8/10/5 6/166/4 7/11/4
f 10/13/6 8/167/5 9/14/5
f 12/16/7 10/168/6 11/17/6
f 14/19/8 12/169/7 13/20/7
f 16/22/9 14/170/8 15/23/8
f 17/25/10 103/171/10 104/172/10
f 104/172/10 18/26/10 17/25/10
f 18/26/10 81/173/10 16/27/10
f 20/29/11 105/174/11 21/30/11
f 21/30/11 106/175/11 19/28/11
f 106/175/11 107/176/11 19/28/11
f 21/31/12 105/177/12 22/32/13
f 23/34/13 22/178/13 24/35/14
f 50/179/15 30/180/15 35/181/15
f 30/180/15 33/182/15 35/181/15
f 54/183/15 52/184/15 37/185/15
f 52/184/15 50/179/15 35/181/15
f 57/186/15 28/39/15 27/38/15
f 28/39/15 54/183/15 26/37/15
f 57/186/15 27/38/15 43/187/15
f 61/188/15 59/189/15 45/190/15
f 59/189/15 57/186/15 43/187/15
f 61/188/15 45/190/15 47/191/15
f 65/192/15 63/193/15 48/194/15
f 63/193/15 61/188/15 47/191/15
f 48/194/15 63/193/15 47/191/15
f 69/195/15 67/196/15 24/197/15
f 67/196/15 65/192/15 48/194/15
f 105/198/15 20/199/15 22/200/15
f 20/199/15 69/195/15 22/200/15
f 67/196/15 48/194/15 24/197/15
f 52/184/15 35/181/15 37/185/15
f 24/197/15 22/200/15 69/195/15
f 54/183/15 37/185/15 39/201/15
f 54/183/15 39/201/15 26/37/15
f 45/190/15 59/189/15 43/187/15
f 31/42/16 108/202/16 109/203/16
f 29/40/16 33/204/16 30/41/16
f 31/42/16 109/203/16 29/40/16
f 32/43/17 35/205/17 33/44/18
f 34/46/19 37/206/19 35/47/17
f 36/49/20 39/207/20 37/50/19
f 38/52/21 26/208/21 39/53/20
f 40/55/22 27/209/24 26/56/21
f 41/58/23 43/210/23 27/59/24
f 42/61/25 45/211/25 43/62/23
f 44/64/26 47/212/26 45/65/25
f 46/67/27 48/213/27 47/68/26
f 25/70/14 24/214/14 48/71/27
f 30/73/28 50/215/29 49/74/29
f 50/76/29 52/216/30 51/77/30
f 52/79/30 54/217/31 53/80/31
f 54/82/31 28/218/32 55/83/32
f 28/85/32 57/219/33 56/86/33
f 57/88/33 59/220/34 58/89/34
f 59/91/34 61/221/35 60/92/35
f 61/94/35 63/222/36 62/95/36
f 63/97/36 65/223/37 64/98/37
f 65/100/37 67/224/38 66/101/38
f 67/103/38 69/225/39 68/104/39
f 69/106/39 20/226/40 19/107/40
f 70/109/41 82/227/42 71/110/42
f 73/112/43 70/228/41 72/113/41
f 75/115/44 73/229/43 74/116/43
f 77/118/2 75/230/44 76/119/44
f 14/231/15 16/232/15 81/233/15
f 14/231/15 81/233/15 102/234/15
f 10/235/15 12/236/15 100/237/15
f 12/236/15 14/231/15 102/234/15
f 6/238/15 8/123/15 79/122/15
f 8/123/15 10/235/15 78/121/15
f 6/238/15 79/122/15 94/239/15
f 1/240/15 4/241/15 92/242/15
f 4/241/15 6/238/15 94/239/15
f 1/240/15 92/242/15 90/243/15
f 75/244/15 77/245/15 88/246/15
f 77/245/15 1/240/15 90/243/15
f 88/246/15 77/245/15 90/243/15
f 70/247/15 73/248/15 86/249/15
f 73/248/15 75/244/15 88/246/15
f 110/250/15 82/251/15 70/247/15
f 84/252/15 110/250/15 70/247/15
f 73/248/15 88/246/15 86/249/15
f 12/236/15 102/234/15 100/237/15
f 86/249/15 84/252/15 70/247/15
f 10/235/15 100/237/15 98/253/15
f 10/235/15 98/253/15 78/121/15
f 92/242/15 4/241/15 94/239/15
f 80/124/45 102/254/45 81/125/46
f 82/128/16 110/255/16 83/129/16
f 83/129/16 111/256/16 71/127/16
f 111/256/16 112/257/16 71/127/16
f 83/130/47 110/258/47 84/131/48
f 85/133/48 84/259/48 86/134/49
f 87/136/49 86/260/49 88/137/50
f 89/139/50 88/261/50 90/140/51
f 91/142/51 90/262/51 92/143/52
f 93/145/52 92/263/52 94/146/53
f 95/148/53 94/264/53 79/149/54
f 96/151/54 79/265/54 78/152/55
f 97/154/55 78/266/55 98/155/56
f 99/157/56 98/267/56 100/158/57
f 101/160/57 100/268/57 102/161/45
usemtl Grass.108
f 112/269/58 111/270/58 103/271/58
f 106/175/11 113/272/11 114/273/11
f 34/274/15 32/275/15 113/276/15
f 29/40/16 114/273/16 113/272/16
f 101/277/15 80/278/15 115/279/15
f 111/256/16 115/280/16 116/281/16
f 18/26/10 116/282/10 115/283/10
f 107/284/58 106/285/58 109/286/58
f 106/285/58 114/273/58 109/286/58
f 109/286/58 108/287/58 107/284/58
f 108/287/58 112/269/58 107/284/58
f 117/288/58 118/289/58 107/284/58
f 116/290/58 104/291/58 111/270/58
f 104/291/58 103/271/58 111/270/58
f 103/271/58 117/288/58 107/284/58
f 107/284/58 112/269/58 103/271/58
f 106/175/11 21/30/11 113/272/11
f 29/292/15 113/276/15 32/275/15
f 113/276/15 21/293/15 23/294/15
f 25/295/15 113/276/15 23/294/15
f 25/295/15 46/296/15 113/276/15
f 46/296/15 44/297/15 113/276/15
f 44/297/15 42/298/15 113/276/15
f 42/298/15 41/299/15 113/276/15
f 41/299/15 40/300/15 113/276/15
f 40/300/15 38/301/15 113/276/15
f 38/301/15 36/302/15 113/276/15
f 36/302/15 34/274/15 113/276/15
f 29/40/16 109/203/16 114/273/16
f 18/303/15 115/279/15 80/278/15
f 115/279/15 83/304/15 85/305/15
f 87/306/15 115/279/15 85/305/15
f 87/306/15 89/307/15 115/279/15
f 89/307/15 91/308/15 115/279/15
f 91/308/15 93/309/15 115/279/15
f 93/309/15 95/310/15 115/279/15
f 95/310/15 96/311/15 115/279/15
f 96/311/15 97/312/15 115/279/15
f 97/312/15 99/313/15 115/279/15
f 99/313/15 101/277/15 115/279/15
f 111/256/16 83/129/16 115/280/16
f 18/26/10 104/172/10 116/282/10
usemtl Water.043
f 66/314/15 68/315/15 119/316/15
f 112/257/16 31/42/16 71/127/16
f 107/176/11 119/317/11 19/28/11
f 118/318/59 120/319/59 119/320/59
f 103/171/10 120/321/10 117/322/10
f 72/323/15 71/324/15 49/325/15
f 71/324/15 31/326/15 49/325/15
f 74/327/15 72/323/15 49/325/15
f 74/327/15 49/325/15 51/328/15
f 76/329/15 74/327/15 51/328/15
f 76/329/15 51/328/15 53/330/15
f 2/331/15 76/329/15 53/330/15
f 2/331/15 53/330/15 55/332/15
f 3/333/15 2/331/15 55/332/15
f 3/333/15 55/332/15 56/334/15
f 5/335/15 3/333/15 58/336/15
f 3/333/15 56/334/15 58/336/15
f 7/337/15 5/335/15 60/338/15
f 5/335/15 58/336/15 60/338/15
f 9/339/15 7/337/15 120/340/15
f 7/337/15 60/338/15 119/316/15
f 7/337/15 119/316/15 120/340/15
f 60/338/15 62/341/15 119/316/15
f 11/342/15 9/339/15 120/340/15
f 62/341/15 64/343/15 119/316/15
f 13/344/15 11/342/15 120/340/15
f 64/343/15 66/314/15 119/316/15
f 120/340/15 17/345/15 15/346/15
f 15/346/15 13/344/15 120/340/15
f 68/315/15 19/347/15 119/316/15
f 112/257/16 108/202/16 31/42/16
f 107/176/11 118/348/11 119/317/11
f 118/318/59 117/349/59 120/319/59
f 103/171/10 17/25/10 120/321/10
