# Blender v2.79 (sub 7) OBJ File: ''
# www.blender.org
mtllib roadTile_273.mtl
o Mesh1_Group1_Model.011
v 1.305890 0.455000 -2.224440
v 1.305890 0.630000 -2.224440
v 1.125000 0.630000 -2.149520
v 1.125000 0.455000 -2.149520
v 1.305890 0.455000 -0.775556
v 1.305890 0.630000 -0.775556
v 1.500000 0.630000 -0.750001
v 1.500000 0.455000 -0.750001
v 0.775556 0.455000 -1.694110
v 0.775556 0.630000 -1.694110
v 0.750000 0.630000 -1.500000
v 0.750000 0.455000 -1.500000
v 0.375000 0.550000 -1.500000
v 0.375000 0.630000 -1.500000
v 0.413333 0.630000 -1.791170
v 0.413333 0.550000 -1.791170
v 0.937500 0.550000 -2.474280
v 0.937500 0.630000 -2.474280
v 1.208830 0.630000 -2.586670
v 1.208830 0.550000 -2.586670
v 3.000000 0.630000 -0.750001
v 3.000000 0.630000 -0.375000
v 3.000000 0.550000 -0.375000
v 3.000000 0.455000 -0.750001
v 0.850481 0.455000 -1.875000
v 0.850481 0.630000 -1.875000
v 1.500000 0.630000 -0.375000
v 1.125000 0.455000 -0.850481
v 1.125000 0.630000 -0.850481
v 0.969670 0.630000 -2.030330
v 0.969670 0.455000 -2.030330
v 1.208830 0.630000 -0.413334
v 1.500000 0.550000 -0.375000
v 1.208830 0.550000 -0.413334
v 3.000000 0.630000 -2.625000
v 1.500000 0.630000 -2.625000
v 1.500000 0.630000 -2.250000
v 3.000000 0.630000 -2.250000
v 0.525721 0.550000 -0.937500
v 0.525721 0.630000 -0.937500
v 0.413333 0.630000 -1.208830
v 0.413333 0.550000 -1.208830
v 1.500000 0.550000 -2.625000
v 3.000000 0.550000 -2.625000
v 0.704505 0.550000 -0.704505
v 0.704505 0.630000 -0.704505
v 0.775556 0.455000 -1.305890
v 0.775556 0.630000 -1.305890
v 0.850481 0.630000 -1.125000
v 0.850481 0.455000 -1.125000
v 0.937500 0.630000 -0.525722
v 0.937500 0.550000 -0.525722
v 3.000000 0.000000 -0.375000
v 3.000000 0.000000 -0.750001
v 1.500000 0.455000 -2.250000
v 3.000000 0.000000 -2.625000
v 3.000000 0.455000 -2.250000
v 3.000000 0.000000 -2.250000
v 0.525721 0.550000 -2.062500
v 0.525721 0.630000 -2.062500
v 0.704505 0.630000 -2.295500
v 0.704505 0.550000 -2.295500
v 0.969670 0.630000 -0.969670
v 0.969670 0.455000 -0.969670
v 0.000000 0.000000 0.000000
v 0.000000 0.550000 0.000000
v 0.000000 0.550000 -3.000000
v 0.000000 0.000000 -3.000000
v 3.000000 0.550000 -3.000000
v 3.000000 0.000000 -3.000000
v 3.000000 0.000000 0.000000
v 3.000000 0.550000 0.000000
vt 2.057740 0.630000
vt 1.861950 0.455000
vt 2.057740 0.455000
vt -1.193480 0.630000
vt -1.389270 0.455000
vt -1.193480 0.455000
vt 1.780850 0.630000
vt 1.585060 0.455000
vt 1.780850 0.455000
vt -1.536110 0.630000
vt -1.829800 0.550000
vt -1.536110 0.550000
vt -1.813000 0.630000
vt -2.106690 0.550000
vt -1.813000 0.550000
vt 0.750001 0.630000
vt 0.375000 0.550000
vt 0.750001 0.455000
vt 2.057740 0.630000
vt 1.861950 0.455000
vt 2.057740 0.455000
vt 3.000000 0.750001
vt 1.500000 0.375000
vt 3.000000 0.375000
vt -0.713899 0.630000
vt -0.909689 0.455000
vt -0.713899 0.455000
vt 2.201070 0.630000
vt 2.005280 0.455000
vt 2.201070 0.455000
vt 1.305890 0.775556
vt 1.208830 0.413334
vt 1.438220 0.630000
vt 1.144540 0.550000
vt 1.438220 0.550000
vt 1.500000 2.625000
vt 3.000000 2.250000
vt 3.000000 2.625000
vt -0.664952 0.630000
vt -0.958636 0.550000
vt -0.664952 0.550000
vt -1.500000 0.630000
vt -3.000000 0.550000
vt -1.500000 0.550000
vt -0.130046 0.630000
vt -0.423730 0.550000
vt -0.130046 0.550000
vt 2.201070 0.630000
vt 2.005280 0.455000
vt 2.201070 0.455000
vt -1.500000 0.630000
vt -3.000000 0.455000
vt -1.500000 0.455000
vt -1.536110 0.630000
vt -1.829800 0.550000
vt -1.536110 0.550000
vt 0.909689 0.630000
vt 0.713900 0.455000
vt 0.909689 0.455000
vt 1.389270 0.630000
vt 1.193480 0.455000
vt 1.389270 0.455000
vt 0.958636 0.630000
vt 0.664952 0.550000
vt 0.958636 0.550000
vt 0.375000 -0.000000
vt 1.780850 0.630000
vt 1.585060 0.455000
vt 1.780850 0.455000
vt 2.625000 0.000000
vt 2.250000 0.455000
vt 2.250000 0.000000
vt -1.144540 0.630000
vt -1.438220 0.550000
vt -1.144540 0.550000
vt -1.956330 0.630000
vt -2.250010 0.550000
vt -1.956330 0.550000
vt 0.775556 1.305890
vt 0.375000 1.500000
vt 0.413333 1.208830
vt 0.969670 0.969670
vt 0.937500 0.525722
vt 1.125000 0.850481
vt 0.850481 1.125000
vt 0.525721 0.937500
vt 0.775556 1.694110
vt 0.413333 1.791170
vt 0.850481 1.875000
vt 1.500000 2.250000
vt 1.208830 2.586670
vt 1.305890 2.224440
vt 0.704505 0.704505
vt 1.125000 2.149520
vt 0.937500 2.474280
vt 0.525721 2.062500
vt 0.969670 2.030330
vt 0.704505 2.295500
vt -0.178993 0.630000
vt -0.374782 0.455000
vt -0.178993 0.455000
vt 2.625000 0.550000
vt 2.250000 0.630000
vt -1.813000 0.630000
vt -2.106690 0.550000
vt -1.813000 0.550000
vt -1.956330 0.630000
vt -2.250010 0.550000
vt -1.956330 0.550000
vt 0.374783 0.630000
vt 0.178994 0.455000
vt 0.374783 0.455000
vt 3.000000 0.630000
vt 1.500000 0.550000
vt 3.000000 0.550000
vt 0.423730 0.630000
vt 0.130046 0.550000
vt 0.423730 0.550000
vt 3.000000 0.630000
vt 1.500000 0.455000
vt 3.000000 0.455000
vt 1.861950 0.630000
vt -1.389270 0.630000
vt 1.585060 0.630000
vt -1.829800 0.630000
vt -2.106690 0.630000
vt 0.375000 0.630000
vt 1.861950 0.630000
vt 1.500000 0.750001
vt -0.909689 0.630000
vt 2.005280 0.630000
vt 1.144540 0.630000
vt -0.958636 0.630000
vt -3.000000 0.630000
vt -0.423730 0.630000
vt 2.005280 0.630000
vt -3.000000 0.630000
vt -1.829800 0.630000
vt 0.713900 0.630000
vt 1.193480 0.630000
vt 0.664952 0.630000
vt 0.750001 -0.000000
vt 1.585060 0.630000
vt -1.438220 0.630000
vt -2.250010 0.630000
vt 0.750000 1.500000
vt -0.374782 0.630000
vt 2.625000 0.630000
vt -2.106690 0.630000
vt -2.250010 0.630000
vt 0.178994 0.630000
vt 1.500000 0.630000
vt 0.130046 0.630000
vt 1.500000 0.630000
vt -0.000000 0.550000
vt -3.000000 0.000000
vt -0.000000 0.000000
vt 0.000000 0.550000
vt -3.000000 0.000000
vt 0.000000 0.000000
vt 3.000000 0.550000
vt 3.000000 -0.000000
vt -3.000000 0.750001
vt -0.000000 3.000000
vt -3.000000 2.250000
vt 0.000000 3.000000
vt -0.000000 0.000000
vt 0.375000 1.500000
vt 0.000000 -0.000000
vt 1.500000 2.625000
vt 3.000000 2.625000
vt 3.000000 3.000000
vt 3.000000 0.000000
vt 1.500000 0.375000
vt 3.000000 0.375000
vt 1.208830 2.586670
vt 1.208830 0.413334
vt 0.937500 0.525722
vt 0.937500 2.474280
vt 0.704505 2.295500
vt 0.704505 0.704505
vt 0.525721 0.937500
vt 0.525721 2.062500
vt 0.413333 1.791170
vt 0.413333 1.208830
vt -3.000000 0.375000
vt -3.000000 0.000000
vt -3.000000 3.000000
vt -3.000000 2.625000
vt 3.000000 0.550000
vt -3.000000 0.550000
vt -3.000000 0.550000
vt 0.000000 0.550000
vt 3.000000 0.000000
vt 1.500000 2.250000
vt 3.000000 0.750001
vt 3.000000 2.250000
vt 1.305890 2.224440
vt 1.500000 0.750001
vt 1.125000 0.850481
vt 1.305890 0.775556
vt 0.969670 0.969670
vt 1.125000 2.149520
vt 0.969670 2.030330
vt 0.850481 1.875000
vt 0.775556 1.694110
vt 0.750000 1.500000
vt 0.775556 1.305890
vt 0.850481 1.125000
vn 0.2588 0.0000 0.9659
vn 0.5000 0.0000 0.8660
vn 0.2588 0.0000 -0.9659
vn 0.0654 0.0000 -0.9979
vn 0.9659 0.0000 0.2588
vn 1.0000 0.0000 0.0000
vn -1.0000 0.0000 0.0000
vn -0.9659 0.0000 -0.2588
vn -0.5000 0.0000 -0.8660
vn -0.2588 0.0000 -0.9659
vn 0.8660 0.0000 0.5000
vn 0.0000 1.0000 0.0000
vn 0.5000 0.0000 -0.8660
vn 0.7071 0.0000 0.7071
vn -0.0654 0.0000 0.9979
vn -0.2588 0.0000 0.9659
vn -0.8660 0.0000 0.5000
vn -0.9659 0.0000 0.2588
vn -0.0654 0.0000 -0.9979
vn 0.0000 0.0000 -1.0000
vn -0.7071 0.0000 0.7071
vn 0.9659 0.0000 -0.2588
vn 0.8660 0.0000 -0.5000
vn -0.5000 0.0000 0.8660
vn 0.0654 0.0000 0.9979
vn -0.8660 0.0000 -0.5000
vn -0.7071 0.0000 -0.7071
vn 0.7071 0.0000 -0.7071
vn 0.0000 0.0000 1.0000
vn 0.0000 -1.0000 -0.0000
usemtl Stone.008
s 1
f 2/1/1 4/2/2 1/3/1
f 6/4/3 8/5/4 5/6/3
f 10/7/5 12/8/6 9/9/5
f 14/10/7 16/11/8 13/12/7
f 18/13/9 20/14/10 17/15/9
f 21/16/6 23/17/6 24/18/6
f 26/19/11 9/20/5 25/21/11
f 21/22/12 27/23/12 22/24/12
f 29/25/13 5/26/3 28/27/13
f 3/28/2 31/29/14 4/30/2
f 27/23/12 6/31/12 32/32/12
f 27/33/15 34/34/16 33/35/15
f 36/36/12 38/37/12 35/38/12
f 40/39/17 42/40/18 39/41/17
f 36/42/19 44/43/20 43/44/19
f 46/45/21 39/46/17 45/47/21
f 30/48/14 25/49/11 31/50/14
f 7/51/4 24/52/20 8/53/4
f 19/54/10 43/55/19 20/56/10
f 48/57/22 50/58/23 47/59/22
f 11/60/6 47/61/22 12/62/6
f 32/63/16 52/64/24 34/65/16
f 53/66/6 24/18/6 23/17/6
f 37/67/25 1/68/1 55/69/25
f 56/70/6 57/71/6 58/72/6
f 41/73/18 13/74/7 42/75/18
f 60/76/26 62/77/27 59/78/26
f 48/79/12 14/80/12 41/81/12
f 63/82/12 51/83/12 29/84/12
f 49/85/12 41/81/12 40/86/12
f 29/84/12 32/32/12 6/31/12
f 14/80/12 10/87/12 15/88/12
f 26/89/12 15/88/12 10/87/12
f 37/90/12 19/91/12 2/92/12
f 46/93/12 49/85/12 40/86/12
f 3/94/12 19/91/12 18/95/12
f 60/96/12 30/97/12 61/98/12
f 63/99/28 28/100/13 64/101/28
f 44/102/6 38/103/6 57/71/6
f 3/94/12 61/98/12 30/97/12
f 15/104/8 59/105/26 16/106/8
f 61/107/27 17/108/9 62/109/27
f 49/110/23 64/111/28 50/112/23
f 22/113/29 33/114/15 23/115/29
f 51/116/24 45/117/21 52/118/24
f 38/119/29 55/120/25 57/121/29
f 2/1/1 3/122/2 4/2/2
f 6/4/3 7/123/4 8/5/4
f 10/7/5 11/124/6 12/8/6
f 14/10/7 15/125/8 16/11/8
f 18/13/9 19/126/10 20/14/10
f 21/16/6 22/127/6 23/17/6
f 26/19/11 10/128/5 9/20/5
f 21/22/12 7/129/12 27/23/12
f 29/25/13 6/130/3 5/26/3
f 3/28/2 30/131/14 31/29/14
f 27/23/12 7/129/12 6/31/12
f 27/33/15 32/132/16 34/34/16
f 36/36/12 37/90/12 38/37/12
f 40/39/17 41/133/18 42/40/18
f 36/42/19 35/134/20 44/43/20
f 46/45/21 40/135/17 39/46/17
f 30/48/14 26/136/11 25/49/11
f 7/51/4 21/137/20 24/52/20
f 19/54/10 36/138/19 43/55/19
f 48/57/22 49/139/23 50/58/23
f 11/60/6 48/140/22 47/61/22
f 32/63/16 51/141/24 52/64/24
f 53/66/6 54/142/6 24/18/6
f 37/67/25 2/143/1 1/68/1
f 56/70/6 44/102/6 57/71/6
f 41/73/18 14/144/7 13/74/7
f 60/76/26 61/145/27 62/77/27
f 48/79/12 11/146/12 14/80/12
f 63/82/12 46/93/12 51/83/12
f 49/85/12 48/79/12 41/81/12
f 29/84/12 51/83/12 32/32/12
f 14/80/12 11/146/12 10/87/12
f 26/89/12 60/96/12 15/88/12
f 37/90/12 36/36/12 19/91/12
f 46/93/12 63/82/12 49/85/12
f 3/94/12 2/92/12 19/91/12
f 60/96/12 26/89/12 30/97/12
f 63/99/28 29/147/13 28/100/13
f 44/102/6 35/148/6 38/103/6
f 3/94/12 18/95/12 61/98/12
f 15/104/8 60/149/26 59/105/26
f 61/107/27 18/150/9 17/108/9
f 49/110/23 63/151/28 64/111/28
f 22/113/29 27/152/15 33/114/15
f 51/116/24 46/153/21 45/117/21
f 38/119/29 37/154/25 55/120/25
usemtl Grass.004
f 66/155/7 68/156/7 65/157/7
f 67/158/20 70/159/20 68/160/20
f 72/161/29 65/157/29 71/162/29
f 54/163/30 68/164/30 58/165/30
f 67/166/12 66/167/12 13/168/12
f 23/17/6 71/169/6 53/66/6
f 43/170/12 44/171/12 69/172/12
f 66/167/12 72/173/12 33/174/12
f 72/173/12 23/175/12 33/174/12
f 43/170/12 69/172/12 67/166/12
f 20/176/12 43/170/12 67/166/12
f 66/167/12 33/174/12 34/177/12
f 66/167/12 34/177/12 52/178/12
f 17/179/12 20/176/12 67/166/12
f 62/180/12 17/179/12 67/166/12
f 66/167/12 52/178/12 45/181/12
f 66/167/12 45/181/12 39/182/12
f 59/183/12 62/180/12 67/166/12
f 16/184/12 59/183/12 67/166/12
f 66/167/12 39/182/12 42/185/12
f 13/168/12 16/184/12 67/166/12
f 66/167/12 42/185/12 13/168/12
f 54/163/30 53/186/30 65/157/30
f 53/186/30 71/187/30 65/157/30
f 68/164/30 70/188/30 56/189/30
f 56/189/30 58/165/30 68/164/30
f 56/70/6 69/190/6 44/102/6
f 66/155/7 67/191/7 68/156/7
f 67/158/20 69/192/20 70/159/20
f 72/161/29 66/155/29 65/157/29
f 54/163/30 65/157/30 68/164/30
f 23/17/6 72/193/6 71/169/6
f 56/70/6 70/194/6 69/190/6
usemtl Water.003
f 55/195/12 24/196/12 57/197/12
f 57/71/6 54/142/6 58/72/6
f 1/198/12 8/199/12 55/195/12
f 28/200/12 5/201/12 64/202/12
f 5/201/12 8/199/12 64/202/12
f 1/198/12 4/203/12 31/204/12
f 31/204/12 25/205/12 1/198/12
f 25/205/12 9/206/12 1/198/12
f 9/206/12 12/207/12 47/208/12
f 47/208/12 50/209/12 64/202/12
f 9/206/12 47/208/12 1/198/12
f 47/208/12 64/202/12 1/198/12
f 55/195/12 8/199/12 24/196/12
f 57/71/6 24/18/6 54/142/6
f 1/198/12 64/202/12 8/199/12
