# Blender v2.79 (sub 7) OBJ File: ''
# www.blender.org
mtllib roadTile_105.mtl
o Mesh1_Group1_Model.058
v 0.000000 0.570000 -1.125000
v 0.000000 0.570000 -0.937500
v 3.000000 0.570000 -0.937500
v 3.000000 0.570000 -1.125000
v 2.250000 0.600000 -2.062500
v 0.000000 0.600000 -2.062500
v 0.000000 0.570000 -2.062500
v 3.000000 0.570000 -2.062500
v 3.000000 0.630000 -2.062500
v 2.250000 0.630000 -2.062500
v 0.000000 0.570000 -1.875000
v 3.000000 0.570000 -1.875000
v 3.000000 0.630000 -1.875000
v 0.000000 0.600000 -1.875000
v 2.250000 0.600000 -1.875000
v 2.250000 0.630000 -1.875000
v 0.000000 0.600000 -0.937500
v 2.250000 0.600000 -0.937500
v 2.250000 0.630000 -0.937500
v 3.000000 0.630000 -0.937500
v 2.250000 0.600000 -1.125000
v 0.000000 0.600000 -1.125000
v 3.000000 0.630000 -1.125000
v 2.250000 0.630000 -1.125000
v 0.000000 0.600000 -3.000000
v 0.000000 0.300000 -3.000000
v 0.000000 0.300000 0.000000
v 0.000000 0.600000 0.000000
v 2.250000 0.600000 -3.000000
v 2.250000 0.300000 -3.000000
v 2.250000 0.300000 0.000000
v 2.250000 0.600000 0.000000
v 3.000000 0.000000 0.000000
v 3.000000 0.000000 -3.000000
v 3.000000 0.630000 -3.000000
v 3.000000 0.630000 0.000000
v 0.000000 0.000000 -3.000000
v 0.000000 0.000000 0.000000
v 2.250000 0.630000 -3.000000
v 2.250000 0.630000 0.000000
vt 0.000000 0.937500
vt 3.000000 1.125000
vt 0.000000 1.125000
vt 2.250000 0.600000
vt 0.000000 0.570000
vt 3.000000 0.570000
vt 3.000000 1.875000
vt 0.000000 2.062500
vt 0.000000 1.875000
vt 0.000000 0.570000
vt 0.000000 0.600000
vt -2.250000 0.600000
vt -2.250000 0.600000
vt -3.000000 0.630000
vt -3.000000 0.570000
vt 2.250000 0.600000
vt -0.000000 0.570000
vt 3.000000 0.570000
vt 3.000000 0.937500
vt 0.000000 0.600000
vt 3.000000 0.630000
vt 2.250000 0.630000
vt 3.000000 2.062500
vt -2.250000 0.630000
vt -3.000000 0.630000
vt -3.000000 0.570000
vt -0.000000 0.570000
vt -0.000000 0.600000
vt -2.250000 0.630000
vt -0.000000 0.600000
vt 3.000000 0.630000
vt 2.250000 0.630000
vt -3.000000 0.300000
vt -1.875000 0.570000
vt -2.062500 0.570000
vt -0.000000 0.600000
vt -2.250000 0.300000
vt -0.000000 0.300000
vt 0.000000 3.000000
vt 2.250000 2.062500
vt 2.250000 3.000000
vt -0.000000 0.300000
vt 2.250000 0.600000
vt 0.000000 0.600000
vt 2.250000 0.937500
vt 0.000000 0.000000
vt 2.250000 0.000000
vt 0.000000 1.125000
vt 2.250000 1.875000
vt 0.000000 1.875000
vt -2.062500 0.600000
vt -3.000000 0.600000
vt -1.125000 0.570000
vt -0.937500 0.570000
vt -0.937500 0.600000
vt -1.125000 0.600000
vt -1.875000 0.600000
vt -2.250000 0.600000
vt 0.000000 2.062500
vt 2.250000 0.300000
vt 0.000000 0.937500
vt 2.250000 1.125000
vt 3.000000 0.000000
vt 1.875000 0.570000
vt 1.125000 0.570000
vt -3.000000 3.000000
vt -0.000000 0.000000
vt -0.000000 3.000000
vt -3.000000 0.630000
vt -3.000000 0.000000
vt -3.000000 0.000000
vt 3.000000 0.000000
vt -0.937500 0.630000
vt -0.000000 0.600000
vt -0.000000 0.630000
vt 3.000000 0.937500
vt 2.250000 0.000000
vt 3.000000 -0.000000
vt -2.062500 0.600000
vt -3.000000 0.630000
vt -3.000000 0.600000
vt 2.250000 2.062500
vt 3.000000 3.000000
vt 2.250000 3.000000
vt 2.250000 1.125000
vt 3.000000 1.875000
vt 2.250000 1.875000
vt -1.875000 0.630000
vt -1.125000 0.600000
vt -1.125000 0.630000
vt 0.000000 0.630000
vt 0.000000 0.000000
vt 0.937500 0.570000
vt 3.000000 0.630000
vt 2.062500 0.570000
vt 2.062500 0.630000
vt 0.937500 0.630000
vt 1.875000 0.630000
vt 1.125000 0.630000
vt -3.000000 0.000000
vt 0.000000 0.000000
vt -2.250000 0.630000
vt 3.000000 0.630000
vt 2.250000 0.630000
vt -0.937500 0.600000
vt 2.250000 0.937500
vt -2.062500 0.630000
vt 3.000000 2.062500
vt 3.000000 1.125000
vt -1.875000 0.600000
vn 0.0000 1.0000 0.0000
vn -0.0000 0.0000 1.0000
vn 0.0000 0.0000 -1.0000
vn -1.0000 0.0000 0.0000
vn 1.0000 0.0000 0.0000
vn 0.0000 -1.0000 -0.0000
usemtl Grey_Asphalt.002
s 1
f 2/1/1 4/2/1 1/3/1
f 5/4/2 7/5/2 8/6/2
f 12/7/1 7/8/1 11/9/1
f 11/10/3 14/11/3 15/12/3
f 18/13/3 20/14/3 3/15/3
f 21/16/2 1/17/2 4/18/2
f 2/1/1 3/19/1 4/2/1
f 5/4/2 6/20/2 7/5/2
f 8/6/2 9/21/2 5/4/2
f 9/21/2 10/22/2 5/4/2
f 12/7/1 8/23/1 7/8/1
f 16/24/3 13/25/3 15/12/3
f 13/25/3 12/26/3 15/12/3
f 12/26/3 11/10/3 15/12/3
f 3/15/3 2/27/3 18/13/3
f 2/27/3 17/28/3 18/13/3
f 18/13/3 19/29/3 20/14/3
f 21/16/2 22/30/2 1/17/2
f 4/18/2 23/31/2 21/16/2
f 23/31/2 24/32/2 21/16/2
usemtl Asphalt.036
f 26/33/4 11/34/4 7/35/4
f 25/36/3 30/37/3 26/38/3
f 25/39/1 5/40/1 29/41/1
f 27/42/2 32/43/2 28/44/2
f 18/45/1 28/46/1 32/47/1
f 22/48/1 15/49/1 14/50/1
f 6/51/4 25/52/4 7/35/4
f 25/52/4 26/33/4 7/35/4
f 26/33/4 27/42/4 1/53/4
f 27/42/4 28/44/4 2/54/4
f 28/44/4 17/55/4 2/54/4
f 1/53/4 22/56/4 14/57/4
f 27/42/4 2/54/4 1/53/4
f 1/53/4 14/57/4 11/34/4
f 26/33/4 1/53/4 11/34/4
f 25/36/3 29/58/3 30/37/3
f 25/39/1 6/59/1 5/40/1
f 27/42/2 31/60/2 32/43/2
f 18/45/1 17/61/1 28/46/1
f 22/48/1 21/62/1 15/49/1
usemtl Stone.047
f 34/63/5 12/64/5 4/65/5
f 34/66/6 38/67/6 37/68/6
f 30/37/3 35/69/3 34/70/3
f 27/42/4 37/71/4 38/67/4
f 31/60/2 38/67/2 33/72/2
f 19/73/4 32/74/4 40/75/4
f 20/76/1 40/77/1 36/78/1
f 5/79/4 39/80/4 29/81/4
f 10/82/1 35/83/1 39/84/1
f 24/85/1 13/86/1 16/87/1
f 16/88/4 21/89/4 24/90/4
f 36/91/5 33/92/5 3/93/5
f 33/92/5 34/63/5 4/65/5
f 3/93/5 33/92/5 4/65/5
f 34/63/5 35/94/5 8/95/5
f 35/94/5 9/96/5 8/95/5
f 3/93/5 20/97/5 36/91/5
f 13/98/5 23/99/5 4/65/5
f 12/64/5 13/98/5 4/65/5
f 34/63/5 8/95/5 12/64/5
f 34/66/6 33/100/6 38/67/6
f 34/70/3 37/101/3 30/37/3
f 37/101/3 26/38/3 30/37/3
f 30/37/3 29/58/3 35/69/3
f 29/58/3 39/102/3 35/69/3
f 27/42/4 26/33/4 37/71/4
f 31/60/2 27/42/2 38/67/2
f 33/72/2 36/103/2 31/60/2
f 36/103/2 40/104/2 32/43/2
f 32/43/2 31/60/2 36/103/2
f 19/73/4 18/105/4 32/74/4
f 20/76/1 19/106/1 40/77/1
f 5/79/4 10/107/4 39/80/4
f 10/82/1 9/108/1 35/83/1
f 24/85/1 23/109/1 13/86/1
f 16/88/4 15/110/4 21/89/4
