# Blender v2.79 (sub 7) OBJ File: ''
# www.blender.org
mtllib roadTile_184.mtl
o Mesh1_Group1_Model.057
v 0.000000 1.650000 0.000000
v 0.000000 1.650000 -0.375000
v 0.000000 0.000000 -0.375000
v 0.000000 0.000000 0.000000
v 3.000000 1.650000 0.000000
v 3.000000 1.650000 -0.375000
v 3.000000 0.000000 0.000000
v 3.000000 0.000000 -0.375000
v 0.000000 0.000000 -2.625000
v 0.000000 0.000000 -3.000000
v 3.000000 0.000000 -3.000000
v 3.000000 0.000000 -2.625000
v 3.000000 1.650000 -3.000000
v 3.000000 1.650000 -2.625000
v 0.000000 1.650000 -3.000000
v 0.000000 1.650000 -2.625000
v 0.000000 1.730000 -2.625000
v 0.000000 1.730000 -0.375000
v 0.000000 1.730000 -0.750000
v 0.000000 0.600000 -0.750000
v 0.000000 0.300000 -0.750000
v 0.000000 0.300000 -2.250000
v 0.000000 0.600000 -2.250000
v 0.000000 1.730000 -2.250000
v 3.000000 1.730000 -2.625000
v 3.000000 1.730000 -2.250000
v 3.000000 0.600000 -2.250000
v 3.000000 0.300000 -2.250000
v 3.000000 0.300000 -0.750000
v 3.000000 0.600000 -0.750000
v 3.000000 1.730000 -0.750000
v 3.000000 1.730000 -0.375000
vt -0.375000 1.650000
vt 0.000000 0.000000
vt 0.000000 1.650000
vt 3.000000 0.375000
vt 0.000000 0.000000
vt 3.000000 0.000000
vt 0.375000 0.000000
vt 0.000000 1.650000
vt 0.000000 0.000000
vt -3.000000 2.625000
vt -3.000000 0.375000
vt -0.000000 2.625000
vt 2.625000 1.650000
vt 3.000000 -0.000000
vt 3.000000 1.650000
vt 0.000000 2.625000
vt 3.000000 3.000000
vt 0.000000 3.000000
vt -2.625000 0.000000
vt -3.000000 1.650000
vt -3.000000 0.000000
vt -0.000000 0.000000
vt -3.000000 1.650000
vt -3.000000 0.000000
vt 3.000000 -0.000000
vt -0.375000 0.000000
vt 0.000000 0.375000
vt 0.375000 1.650000
vt -3.000000 0.000000
vt -0.000000 0.375000
vt -0.000000 3.000000
vt -3.000000 3.000000
vt 2.625000 -0.000000
vt 3.000000 2.625000
vt -2.625000 1.650000
vt -0.000000 1.650000
vt 3.000000 1.650000
vt -2.250000 0.300000
vt -3.000000 1.730000
vt -0.000000 1.650000
vt -0.000000 1.730000
vt 3.000000 2.625000
vt 0.000000 2.250000
vt 3.000000 2.250000
vt 0.750000 0.300000
vt 3.000000 0.600000
vt 0.000000 1.730000
vt 0.000000 0.600000
vt -0.000000 0.600000
vt -3.000000 1.730000
vt -3.000000 0.600000
vt 0.000000 0.375000
vt 3.000000 0.750000
vt 0.000000 0.750000
vt 0.000000 1.730000
vt 3.000000 1.650000
vt 3.000000 1.730000
vt -2.250000 1.730000
vt -2.625000 1.730000
vt -0.750000 0.600000
vt -0.375000 1.730000
vt -0.750000 1.730000
vt -0.750000 0.300000
vt -2.250000 0.600000
vt -3.000000 1.650000
vt 0.000000 2.625000
vt 2.250000 0.600000
vt 2.625000 1.730000
vt 2.250000 1.730000
vt 2.250000 0.300000
vt 0.375000 1.730000
vt 0.750000 1.730000
vt 0.750000 0.600000
vt 3.000000 1.730000
vt -0.000000 1.730000
vt 3.000000 0.375000
vt 0.000000 1.650000
vt 0.000000 2.250000
vt 3.000000 0.750000
vt 3.000000 2.250000
vt 0.000000 0.750000
vn -1.0000 0.0000 0.0000
vn 0.0000 1.0000 0.0000
vn 1.0000 -0.0000 0.0000
vn 0.0000 -1.0000 -0.0000
vn 0.0000 0.0000 -1.0000
vn 0.0000 -0.0000 1.0000
usemtl Grass.027
s 1
f 2/1/1 4/2/1 1/3/1
f 6/4/2 1/5/2 5/6/2
f 8/7/3 5/8/3 7/9/3
f 12/10/4 8/11/4 9/12/4
f 14/13/3 11/14/3 13/15/3
f 16/16/2 13/17/2 15/18/2
f 9/19/1 15/20/1 10/21/1
f 10/22/5 13/23/5 11/24/5
f 7/25/6 1/3/6 4/2/6
f 2/1/1 3/26/1 4/2/1
f 6/4/2 2/27/2 1/5/2
f 8/7/3 6/28/3 5/8/3
f 7/29/4 4/2/4 3/30/4
f 9/12/4 10/31/4 11/32/4
f 7/29/4 3/30/4 8/11/4
f 3/30/4 9/12/4 8/11/4
f 11/32/4 12/10/4 9/12/4
f 14/13/3 12/33/3 11/14/3
f 16/16/2 14/34/2 13/17/2
f 9/19/1 16/35/1 15/20/1
f 10/22/5 15/36/5 13/23/5
f 7/25/6 5/37/6 1/3/6
usemtl Stone.046
f 9/19/1 3/26/1 22/38/1
f 25/39/5 16/40/5 17/41/5
f 25/42/2 24/43/2 26/44/2
f 8/7/3 12/33/3 29/45/3
f 27/46/6 24/47/6 23/48/6
f 20/49/5 31/50/5 30/51/5
f 18/52/2 31/53/2 19/54/2
f 18/55/6 6/56/6 32/57/6
f 24/58/1 17/59/1 16/35/1
f 3/26/1 2/1/1 20/60/1
f 2/1/1 18/61/1 19/62/1
f 3/26/1 20/60/1 21/63/1
f 19/62/1 20/60/1 2/1/1
f 24/58/1 16/35/1 23/64/1
f 16/35/1 9/19/1 23/64/1
f 22/38/1 23/64/1 9/19/1
f 3/26/1 21/63/1 22/38/1
f 25/39/5 14/65/5 16/40/5
f 25/42/2 17/66/2 24/43/2
f 12/33/3 14/13/3 27/67/3
f 14/13/3 25/68/3 26/69/3
f 12/33/3 27/67/3 28/70/3
f 26/69/3 27/67/3 14/13/3
f 32/71/3 6/28/3 31/72/3
f 6/28/3 8/7/3 30/73/3
f 30/73/3 8/7/3 29/45/3
f 30/73/3 31/72/3 6/28/3
f 12/33/3 28/70/3 29/45/3
f 27/46/6 26/74/6 24/47/6
f 20/49/5 19/75/5 31/50/5
f 18/52/2 32/76/2 31/53/2
f 18/55/6 2/77/6 6/56/6
usemtl Asphalt.035
f 23/78/2 30/79/2 27/80/2
f 22/38/1 20/60/1 23/64/1
f 29/45/3 27/67/3 30/73/3
f 23/78/2 20/81/2 30/79/2
f 22/38/1 21/63/1 20/60/1
f 29/45/3 28/70/3 27/67/3
