# Blender v2.79 (sub 7) OBJ File: ''
# www.blender.org
mtllib roadTile_262.mtl
o Mesh1_Group1_Model.113
v 0.000000 1.700000 -1.875000
v 0.000000 1.400000 -1.875000
v 0.000000 1.400000 -0.375000
v 0.000000 1.700000 -0.375000
v 3.000000 1.700000 -1.875000
v 3.000000 1.700000 -0.375000
v 3.000000 1.400000 -0.375000
v 3.000000 1.400000 -1.875000
v 0.000000 1.100000 -2.250000
v 0.000000 1.100000 0.000000
v 0.000000 1.730000 0.000000
v 0.000000 1.730000 -0.375000
v 0.000000 1.730000 -1.875000
v 0.000000 1.730000 -2.250000
v 3.000000 0.000000 0.000000
v 3.000000 0.000000 -2.250000
v 3.000000 1.730000 0.000000
v 3.000000 1.730000 -0.375000
v 3.000000 1.730000 -2.250000
v 3.000000 1.730000 -1.875000
vt -1.875000 1.400000
vt -0.375000 1.700000
vt -1.875000 1.700000
vt 0.000000 1.875000
vt 3.000000 0.375000
vt 3.000000 1.875000
vt 0.375000 1.400000
vt 1.875000 1.700000
vt 0.375000 1.700000
vt -0.375000 1.400000
vt 0.000000 0.375000
vt 1.875000 1.400000
vt -2.250000 1.100000
vt 0.000000 0.378680
vt -2.250000 -2.816630
vt -0.000000 -2.816630
vt 3.000000 1.730000
vt 0.000000 1.100000
vt 3.000000 0.000000
vt 0.000000 0.000000
vt 2.250000 0.000000
vt 0.000000 0.000000
vt 3.000000 0.375000
vt 0.000000 0.375000
vt -0.000000 1.700000
vt -3.000000 1.730000
vt -3.000000 1.700000
vt 3.000000 1.700000
vt 0.000000 1.730000
vt 0.000000 1.700000
vt 3.000000 2.250000
vt 0.000000 1.875000
vt 3.000000 1.875000
vt -0.000000 1.100000
vt -3.000000 1.730000
vt -3.000000 -0.000000
vt -0.000000 1.730000
vt -0.375000 1.730000
vt -1.875000 1.730000
vt -2.250000 1.730000
vt -2.250000 0.378680
vt 0.375000 1.730000
vt 0.000000 1.730000
vt 2.250000 1.730000
vt 1.875000 1.730000
vt 3.000000 0.000000
vt -0.000000 1.730000
vt 3.000000 1.730000
vt 0.000000 2.250000
vt -0.000000 1.730000
vn -1.0000 0.0000 0.0000
vn 0.0000 1.0000 0.0000
vn 1.0000 -0.0000 0.0000
vn -0.3443 -0.9389 -0.0000
vn -0.0000 -0.0000 1.0000
vn 0.0000 0.0000 -1.0000
usemtl Asphalt.074
s 1
f 2/1/1 4/2/1 1/3/1
f 1/4/2 6/5/2 5/6/2
f 7/7/3 5/8/3 6/9/3
f 2/1/1 3/10/1 4/2/1
f 1/4/2 4/11/2 6/5/2
f 7/7/3 8/12/3 5/8/3
usemtl Stone.092
f 3/10/1 2/1/1 9/13/1
f 10/14/4 16/15/4 15/16/4
f 17/17/5 10/18/5 15/19/5
f 7/7/3 15/20/3 16/21/3
f 11/22/2 18/23/2 12/24/2
f 4/25/6 18/26/6 6/27/6
f 5/28/5 13/29/5 1/30/5
f 19/31/2 13/32/2 20/33/2
f 9/34/6 19/35/6 16/36/6
f 10/18/1 11/37/1 3/10/1
f 11/37/1 12/38/1 4/2/1
f 4/2/1 3/10/1 11/37/1
f 13/39/1 14/40/1 1/3/1
f 14/40/1 9/13/1 2/1/1
f 1/3/1 14/40/1 2/1/1
f 10/18/1 3/10/1 9/13/1
f 10/14/4 9/41/4 16/15/4
f 17/17/5 11/37/5 10/18/5
f 6/9/3 18/42/3 17/43/3
f 16/21/3 19/44/3 8/12/3
f 19/44/3 20/45/3 5/8/3
f 5/8/3 8/12/3 19/44/3
f 6/9/3 17/43/3 7/7/3
f 17/43/3 15/20/3 7/7/3
f 8/12/3 7/7/3 16/21/3
f 11/22/2 17/46/2 18/23/2
f 4/25/6 12/47/6 18/26/6
f 5/28/5 20/48/5 13/29/5
f 19/31/2 14/49/2 13/32/2
f 9/34/6 14/50/6 19/35/6
