# Blender v2.79 (sub 7) OBJ File: ''
# www.blender.org
mtllib roadTile_218.mtl
o Mesh1_Group1_Model.002
v 0.000000 0.000000 0.000000
v 3.000000 0.000000 0.000000
v 2.340000 1.260000 0.000000
v 0.000000 1.260000 0.000000
v 2.340000 1.260000 -0.375000
v 0.000000 0.600000 -0.375000
v 0.000000 1.260000 -0.375000
v 0.000000 0.000000 -2.250000
v 0.000000 0.300000 -0.375000
v 3.000000 0.600000 0.000000
v 3.000000 0.300000 -0.375000
v 3.000000 0.600000 -0.375000
v 2.340000 1.260000 -2.250000
v 0.000000 1.260000 -2.250000
v 0.000000 1.260000 -1.875000
v 2.340000 1.260000 -1.875000
v 0.000000 0.600000 -1.875000
v 3.000000 0.000000 -2.250000
v 0.000000 0.300000 -1.875000
v 3.000000 0.600000 -2.250000
v 3.000000 0.600000 -1.875000
v 3.000000 0.300000 -1.875000
vt 0.000000 0.000000
vt 2.340000 1.260000
vt 0.000000 1.260000
vt -2.340000 1.260000
vt -0.000000 0.600000
vt -0.000000 1.260000
vt -2.250000 0.000000
vt -0.375000 0.300000
vt 0.000000 0.600000
vt 0.375000 0.300000
vt 0.375000 0.600000
vt 0.000000 2.250000
vt 2.340000 1.875000
vt 2.340000 2.250000
vt 0.000000 0.600000
vt 2.340000 1.260000
vt 0.000000 1.260000
vt 0.000000 0.000000
vt 2.250000 0.000000
vt 3.000000 0.000000
vt 3.000000 0.600000
vt -3.000000 0.600000
vt -1.875000 1.260000
vt -2.250000 1.260000
vt -1.875000 0.600000
vt -0.375000 0.600000
vt -0.375000 1.260000
vt -1.875000 0.300000
vt -2.340000 1.260000
vt -3.000000 0.600000
vt -3.000000 -0.000000
vt 3.000000 0.600000
vt 2.250000 0.600000
vt 1.875000 0.300000
vt -0.000000 -0.000000
vt -0.000000 1.260000
vt 2.250000 -1.697060
vt 1.875000 -0.763675
vt 1.875000 -1.697060
vt -0.000000 -0.763675
vt 0.375000 -1.697060
vt 0.375000 -0.763675
vt -3.000000 2.250000
vt -3.000000 0.000000
vt 2.340000 0.000000
vt 0.000000 0.375000
vt 0.000000 0.000000
vt 0.000000 1.875000
vt 1.875000 0.600000
vt 2.250000 -0.763675
vt 0.000000 -1.697060
vt -0.000000 2.250000
vt 2.340000 0.375000
vt 0.000000 0.375000
vt 3.000000 1.875000
vt 0.000000 1.875000
vt 3.000000 0.375000
vn 0.0000 -0.0000 1.0000
vn 0.0000 0.0000 -1.0000
vn -1.0000 0.0000 0.0000
vn 1.0000 0.0000 0.0000
vn 0.0000 1.0000 0.0000
vn 0.7071 0.7071 0.0000
vn 0.0000 -1.0000 -0.0000
usemtl Stone.001
s 1
f 1/1/1 3/2/1 4/3/1
f 5/4/2 6/5/2 7/6/2
f 8/7/3 1/1/3 9/8/3
f 10/9/4 11/10/4 12/11/4
f 14/12/5 16/13/5 13/14/5
f 17/15/1 16/16/1 15/17/1
f 2/18/4 18/19/4 11/10/4
f 2/20/1 10/21/1 3/2/1
f 5/4/2 12/22/2 6/5/2
f 15/23/3 14/24/3 17/25/3
f 14/24/3 8/7/3 17/25/3
f 1/1/3 4/3/3 6/26/3
f 4/3/3 7/27/3 6/26/3
f 6/26/3 9/8/3 1/1/3
f 19/28/3 17/25/3 8/7/3
f 9/8/3 19/28/3 8/7/3
f 13/29/2 20/30/2 18/31/2
f 17/15/1 21/32/1 16/16/1
f 20/33/4 22/34/4 18/19/4
f 18/19/4 22/34/4 11/10/4
f 13/29/2 8/35/2 14/36/2
f 20/37/6 16/38/6 21/39/6
f 3/40/6 12/41/6 5/42/6
f 1/1/7 18/43/7 2/44/7
f 3/45/5 7/46/5 4/47/5
f 1/1/1 2/20/1 3/2/1
f 10/9/4 2/18/4 11/10/4
f 14/12/5 15/48/5 16/13/5
f 20/33/4 21/49/4 22/34/4
f 13/29/2 18/31/2 8/35/2
f 20/37/6 13/50/6 16/38/6
f 3/40/6 10/51/6 12/41/6
f 1/1/7 8/52/7 18/43/7
f 3/45/5 5/53/5 7/46/5
usemtl Asphalt.001
f 22/34/4 12/11/4 11/10/4
f 6/54/5 21/55/5 17/56/5
f 9/8/3 17/25/3 19/28/3
f 22/34/4 21/49/4 12/11/4
f 6/54/5 12/57/5 21/55/5
f 9/8/3 6/26/3 17/25/3
