# Blender v2.79 (sub 7) OBJ File: ''
# www.blender.org
mtllib roadTile_179.mtl
o Mesh1_Group1_Model.253
v 3.000000 1.650000 0.000000
v 3.000000 1.650000 -0.375000
v 0.000000 1.650000 -0.375000
v 0.000000 1.650000 0.000000
v 3.000000 0.000000 0.000000
v 3.000000 0.000000 -0.375000
v 0.000000 0.000000 0.000000
v 0.000000 0.000000 -0.375000
v 0.000000 0.000000 -2.625000
v 0.000000 0.000000 -3.000000
v 3.000000 0.000000 -3.000000
v 3.000000 0.000000 -2.625000
v 3.000000 1.650000 -3.000000
v 3.000000 1.650000 -2.625000
v 0.000000 1.650000 -3.000000
v 0.000000 1.650000 -2.625000
v 0.000000 1.730000 -0.375000
v 0.000000 1.730000 -0.750000
v 0.000000 1.400000 -0.750000
v 0.000000 1.400000 -2.250000
v 0.000000 1.730000 -2.250000
v 0.000000 1.730000 -2.625000
v 3.000000 1.730000 -0.375000
v 3.000000 1.730000 -0.750000
v 3.000000 1.730000 -2.625000
v 3.000000 1.730000 -2.250000
v 3.000000 0.600000 -2.250000
v 3.000000 0.300000 -2.250000
v 3.000000 0.300000 -0.750000
v 3.000000 0.600000 -0.750000
vt 3.000000 0.375000
vt 0.000000 0.000000
vt 3.000000 0.000000
vt 0.375000 0.000000
vt 0.000000 1.650000
vt 0.000000 0.000000
vt -3.000000 2.625000
vt -3.000000 0.375000
vt -0.000000 2.625000
vt -0.375000 1.650000
vt 0.000000 0.000000
vt 0.000000 1.650000
vt 2.625000 1.650000
vt 3.000000 0.000000
vt 3.000000 1.650000
vt 0.000000 2.625000
vt 3.000000 3.000000
vt 0.000000 3.000000
vt -2.625000 0.000000
vt -3.000000 1.650000
vt -3.000000 0.000000
vt -0.000000 0.000000
vt -3.000000 1.650000
vt -3.000000 0.000000
vt 3.000000 -0.000000
vt 0.000000 0.375000
vt 0.375000 1.650000
vt -3.000000 0.000000
vt -0.000000 0.375000
vt -0.000000 3.000000
vt -3.000000 3.000000
vt -0.375000 0.000000
vt 2.625000 0.000000
vt 3.000000 2.625000
vt -2.625000 1.650000
vt -0.000000 1.650000
vt 3.000000 1.650000
vt -0.750000 1.400000
vt -2.250000 1.400000
vt 0.000000 1.730000
vt 3.000000 1.650000
vt 3.000000 1.730000
vt 0.000000 0.375000
vt 3.000000 0.750000
vt 0.000000 0.750000
vt 0.750000 0.300000
vt -3.000000 1.730000
vt -0.000000 1.650000
vt -0.000000 1.730000
vt 3.000000 2.625000
vt 0.000000 2.250000
vt 3.000000 2.250000
vt 3.000000 1.730000
vt 0.000000 1.730000
vt 3.000000 0.600000
vt -3.000000 1.730000
vt -3.000000 0.600000
vt -0.000000 1.730000
vt -0.375000 1.730000
vt -0.750000 1.730000
vt -2.250000 1.730000
vt -2.625000 1.730000
vt 0.000000 1.650000
vt 3.000000 0.375000
vt 2.250000 0.600000
vt 2.625000 1.730000
vt 2.250000 1.730000
vt 2.250000 0.300000
vt 0.375000 1.730000
vt 0.750000 1.730000
vt 0.750000 0.600000
vt -3.000000 1.650000
vt 0.000000 2.625000
vt 0.750000 -2.595950
vt 2.250000 0.609809
vt 0.750000 0.609809
vt 2.250000 -2.595950
vn 0.0000 1.0000 0.0000
vn 1.0000 -0.0000 0.0000
vn 0.0000 -1.0000 -0.0000
vn -1.0000 0.0000 0.0000
vn 0.0000 0.0000 -1.0000
vn 0.0000 -0.0000 1.0000
vn 0.3525 0.9358 0.0000
usemtl Grass.107
s 1
f 2/1/1 4/2/1 1/3/1
f 6/4/2 1/5/2 5/6/2
f 12/7/3 6/8/3 9/9/3
f 3/10/4 7/11/4 4/12/4
f 14/13/2 11/14/2 13/15/2
f 16/16/1 13/17/1 15/18/1
f 9/19/4 15/20/4 10/21/4
f 10/22/5 13/23/5 11/24/5
f 5/25/6 4/12/6 7/11/6
f 2/1/1 3/26/1 4/2/1
f 6/4/2 2/27/2 1/5/2
f 5/28/3 7/11/3 8/29/3
f 9/9/3 10/30/3 11/31/3
f 5/28/3 8/29/3 6/8/3
f 8/29/3 9/9/3 6/8/3
f 11/31/3 12/7/3 9/9/3
f 3/10/4 8/32/4 7/11/4
f 14/13/2 12/33/2 11/14/2
f 16/16/1 14/34/1 13/17/1
f 9/19/4 16/35/4 15/20/4
f 10/22/5 15/36/5 13/23/5
f 5/25/6 1/37/6 4/12/6
usemtl Stone.216
f 8/32/4 19/38/4 20/39/4
f 17/40/6 2/41/6 23/42/6
f 17/43/1 24/44/1 18/45/1
f 6/4/2 12/33/2 29/46/2
f 25/47/5 16/48/5 22/49/5
f 25/50/1 21/51/1 26/52/1
f 26/53/6 21/54/6 27/55/6
f 24/56/5 30/57/5 18/58/5
f 16/35/4 9/19/4 20/39/4
f 9/19/4 8/32/4 20/39/4
f 3/10/4 17/59/4 18/60/4
f 21/61/4 22/62/4 16/35/4
f 20/39/4 21/61/4 16/35/4
f 8/32/4 3/10/4 19/38/4
f 3/10/4 18/60/4 19/38/4
f 17/40/6 3/63/6 2/41/6
f 17/43/1 23/64/1 24/44/1
f 12/33/2 14/13/2 27/65/2
f 14/13/2 25/66/2 26/67/2
f 12/33/2 27/65/2 28/68/2
f 26/67/2 27/65/2 14/13/2
f 23/69/2 2/27/2 24/70/2
f 2/27/2 6/4/2 30/71/2
f 30/71/2 6/4/2 29/46/2
f 30/71/2 24/70/2 2/27/2
f 12/33/2 28/68/2 29/46/2
f 25/47/5 14/72/5 16/48/5
f 25/50/1 22/73/1 21/51/1
usemtl Asphalt.175
f 30/74/7 21/75/7 18/76/7
f 29/46/2 27/65/2 30/71/2
f 21/61/4 19/38/4 18/60/4
f 30/74/7 27/77/7 21/75/7
f 29/46/2 28/68/2 27/65/2
f 21/61/4 20/39/4 19/38/4
