# Blender v2.79 (sub 7) OBJ File: ''
# www.blender.org
mtllib roadTile_008.mtl
o Mesh1_Group1_Model.204
v -1.500000 0.550000 -1.500000
v 1.500000 0.000000 -1.500000
v -1.500000 0.000000 -1.500000
v -1.500000 0.000000 1.500000
v -0.723543 0.000000 1.397777
v -1.108421 0.000000 1.474335
v 1.474330 0.550000 -1.108420
v 1.500000 0.550000 -1.500000
v 1.397780 0.550000 -0.723540
v -1.500000 0.550000 1.500000
v -1.108421 0.550000 1.474335
v -0.723543 0.550000 1.397777
v -0.351950 0.000000 1.271639
v -0.351950 0.550000 1.271639
v 0.000000 0.000000 1.098076
v 0.000000 0.550000 1.098076
v 0.326280 0.000000 0.880060
v 0.326280 0.550000 0.880060
v 0.621320 0.000000 0.621320
v 0.621320 0.550000 0.621320
v 0.880060 0.000000 0.326280
v 0.880060 0.550000 0.326280
v 1.098080 0.000000 0.000000
v 1.098080 0.550000 0.000000
v 1.271640 0.000000 -0.351950
v 1.271640 0.550000 -0.351950
v 1.397780 0.000000 -0.723540
v 1.474330 0.000000 -1.108420
vt -0.000000 0.550000
vt -3.000000 0.000000
vt -0.000000 0.000000
vt 0.000000 0.000000
vt -3.000000 0.550000
vt -3.000000 0.000000
vt -0.776457 0.102223
vt -0.391579 0.025665
vt -0.000000 3.000000
vt 2.797370 0.550000
vt 3.189790 0.000000
vt 3.189790 0.550000
vt 2.897780 2.223540
vt 2.974330 2.608420
vt 0.000000 3.000000
vt 0.000000 0.550000
vt 0.392419 0.000000
vt 0.392419 0.550000
vt 0.389062 0.550000
vt 0.781480 0.000000
vt 0.781480 0.550000
vt 0.768109 0.550000
vt 1.160530 0.000000
vt 1.160530 0.550000
vt 1.130660 0.550000
vt 1.523080 0.000000
vt 1.523080 0.550000
vt 1.470500 0.550000
vt 1.862920 0.000000
vt 1.862920 0.550000
vt 1.781830 0.550000
vt 2.174250 0.000000
vt 2.174250 0.550000
vt 2.059310 0.550000
vt 2.451730 0.000000
vt 2.451730 0.550000
vt 2.298200 0.550000
vt 2.690620 0.000000
vt 2.690620 0.550000
vt 2.494410 0.550000
vt 2.886830 0.000000
vt 2.886830 0.550000
vt 2.644580 0.550000
vt 3.037000 0.000000
vt 3.037000 0.550000
vt 2.746150 0.550000
vt 3.138570 0.000000
vt 3.138570 0.550000
vt -3.000000 0.550000
vt -3.000000 3.000000
vt -2.974330 2.608420
vt -2.897780 2.223540
vt -2.771640 1.851950
vt -2.598080 1.500000
vt -2.380060 1.173720
vt -2.121320 0.878680
vt -1.826280 0.619940
vt -1.500000 0.401924
vt -1.148050 0.228361
vt 2.797370 0.000000
vt 3.000000 3.000000
vt 0.000000 0.000000
vt 0.391579 0.025665
vt 0.776457 0.102223
vt 1.148050 0.228361
vt 1.500000 0.401924
vt 1.826280 0.619940
vt 2.121320 0.878680
vt 2.380060 1.173720
vt 2.598080 1.500000
vt 2.771640 1.851950
vt 0.389062 0.000000
vt 0.768109 0.000000
vt 1.130660 0.000000
vt 1.470500 0.000000
vt 1.781830 0.000000
vt 2.059310 0.000000
vt 2.298200 0.000000
vt 2.494410 0.000000
vt 2.644580 0.000000
vt 2.746150 0.000000
vn 0.0000 0.0000 -1.0000
vn -1.0000 0.0000 0.0000
vn 0.0000 -1.0000 -0.0000
vn 0.9914 0.0000 0.1305
vn 0.9979 0.0000 0.0654
vn -0.0000 1.0000 0.0000
vn 0.0654 -0.0000 0.9979
vn 0.1305 -0.0000 0.9914
vn 0.2588 -0.0000 0.9659
vn 0.3827 -0.0000 0.9239
vn 0.5000 0.0000 0.8660
vn 0.6088 0.0000 0.7934
vn 0.7071 0.0000 0.7071
vn 0.7934 0.0000 0.6088
vn 0.8660 0.0000 0.5000
vn 0.9239 0.0000 0.3827
vn 0.9659 0.0000 0.2588
usemtl Stone.177
s 1
f 1/1/1 2/2/1 3/3/1
f 4/4/2 1/5/2 3/6/2
f 5/7/3 6/8/3 3/9/3
f 7/10/4 2/11/5 8/12/5
f 9/13/6 7/14/6 1/15/6
f 10/16/7 6/17/8 11/18/8
f 11/19/8 5/20/9 12/21/9
f 12/22/9 13/23/10 14/24/10
f 14/25/10 15/26/11 16/27/11
f 16/28/11 17/29/12 18/30/12
f 18/31/12 19/32/13 20/33/13
f 20/34/13 21/35/14 22/36/14
f 22/37/14 23/38/15 24/39/15
f 24/40/15 25/41/16 26/42/16
f 26/43/16 27/44/17 9/45/17
f 9/46/17 28/47/4 7/48/4
f 1/1/1 8/49/1 2/2/1
f 4/4/2 10/16/2 1/5/2
f 4/4/3 3/9/3 6/8/3
f 3/9/3 2/50/3 28/51/3
f 27/52/3 3/9/3 28/51/3
f 27/52/3 25/53/3 3/9/3
f 25/53/3 23/54/3 3/9/3
f 23/54/3 21/55/3 3/9/3
f 21/55/3 19/56/3 3/9/3
f 19/56/3 17/57/3 3/9/3
f 17/57/3 15/58/3 3/9/3
f 15/58/3 13/59/3 3/9/3
f 13/59/3 5/7/3 3/9/3
f 7/10/4 28/60/4 2/11/5
f 8/61/6 1/15/6 7/14/6
f 1/15/6 10/62/6 11/63/6
f 12/64/6 1/15/6 11/63/6
f 12/64/6 14/65/6 1/15/6
f 14/65/6 16/66/6 1/15/6
f 16/66/6 18/67/6 1/15/6
f 18/67/6 20/68/6 1/15/6
f 20/68/6 22/69/6 1/15/6
f 22/69/6 24/70/6 1/15/6
f 24/70/6 26/71/6 1/15/6
f 26/71/6 9/13/6 1/15/6
f 10/16/7 4/4/7 6/17/8
f 11/19/8 6/72/8 5/20/9
f 12/22/9 5/73/9 13/23/10
f 14/25/10 13/74/10 15/26/11
f 16/28/11 15/75/11 17/29/12
f 18/31/12 17/76/12 19/32/13
f 20/34/13 19/77/13 21/35/14
f 22/37/14 21/78/14 23/38/15
f 24/40/15 23/79/15 25/41/16
f 26/43/16 25/80/16 27/44/17
f 9/46/17 27/81/17 28/47/4
