# Blender v2.79 (sub 7) OBJ File: ''
# www.blender.org
mtllib roadTile_236.mtl
o Mesh1_Group1_Model.206
v 2.340000 1.260000 -2.250000
v 2.340000 1.260000 -3.000000
v 0.000000 1.260000 -3.000000
v 0.000000 1.260000 -2.250000
v 3.000000 0.600000 -2.250000
v 3.000000 0.600000 -3.000000
v 0.000000 0.600000 -2.250000
v 0.000000 0.000000 -3.000000
v 0.000000 0.000000 0.000000
v 0.000000 1.260000 0.000000
v 0.000000 1.260000 -0.750000
v 0.000000 0.600000 -0.750000
v 0.000000 0.300000 -0.750000
v 0.000000 0.300000 -2.250000
v 3.000000 0.000000 -3.000000
v 3.000000 0.000000 0.000000
v 3.000000 0.600000 -0.750000
v 3.000000 0.600000 0.000000
v 3.000000 0.300000 -2.250000
v 3.000000 0.300000 -0.750000
v 2.340000 1.260000 -0.750000
v 2.340000 1.260000 0.000000
vt 2.340000 3.000000
vt 0.000000 2.250000
vt 2.340000 2.250000
vt 2.250000 -1.697060
vt 3.000000 -0.763675
vt 2.250000 -0.763675
vt 0.000000 0.600000
vt 2.340000 1.260000
vt 0.000000 1.260000
vt -3.000000 0.000000
vt 0.000000 0.000000
vt -0.750000 0.300000
vt -0.000000 0.000000
vt -0.000000 1.260000
vt -2.340000 1.260000
vt -0.000000 3.000000
vt -3.000000 0.000000
vt 0.000000 0.000000
vt 3.000000 0.000000
vt 0.750000 0.300000
vt 0.750000 -0.763675
vt 0.000000 -1.697060
vt 0.750000 -1.697060
vt -2.340000 1.260000
vt -0.000000 0.600000
vt -0.000000 1.260000
vt 2.340000 0.000000
vt 0.000000 0.750000
vt 0.000000 0.000000
vt 3.000000 0.000000
vt 3.000000 0.600000
vt 2.340000 1.260000
vt 0.000000 3.000000
vt 3.000000 -1.697060
vt 3.000000 0.600000
vt -2.250000 1.260000
vt -3.000000 1.260000
vt -2.250000 0.600000
vt 0.000000 1.260000
vt -0.750000 0.600000
vt -0.750000 1.260000
vt -2.250000 0.300000
vt -3.000000 0.600000
vt -3.000000 0.000000
vt -3.000000 3.000000
vt 0.750000 0.600000
vt 0.000000 0.600000
vt 3.000000 0.600000
vt 2.250000 0.300000
vt 2.250000 0.600000
vt 0.000000 -0.763675
vt -3.000000 0.600000
vt 2.340000 0.750000
vt 0.000000 2.250000
vt 3.000000 0.750000
vt 3.000000 2.250000
vt 0.000000 0.750000
vn 0.0000 1.0000 0.0000
vn 0.7071 0.7071 0.0000
vn 0.0000 0.0000 1.0000
vn -1.0000 0.0000 0.0000
vn 0.0000 0.0000 -1.0000
vn 0.0000 -1.0000 -0.0000
vn 1.0000 0.0000 0.0000
usemtl Stone.179
s 1
f 2/1/1 4/2/1 1/3/1
f 5/4/2 2/5/2 1/6/2
f 7/7/3 1/8/3 4/9/3
f 8/10/4 9/11/4 13/12/4
f 8/13/5 3/14/5 2/15/5
f 8/16/6 16/17/6 9/11/6
f 16/18/7 15/19/7 20/20/7
f 21/21/2 18/22/2 17/23/2
f 21/24/5 12/25/5 11/26/5
f 22/27/1 11/28/1 10/29/1
f 16/30/3 18/31/3 22/32/3
f 2/1/1 3/33/1 4/2/1
f 5/4/2 6/34/2 2/5/2
f 7/7/3 5/35/3 1/8/3
f 4/36/4 3/37/4 7/38/4
f 3/37/4 8/10/4 7/38/4
f 9/11/4 10/39/4 12/40/4
f 10/39/4 11/41/4 12/40/4
f 12/40/4 13/12/4 9/11/4
f 14/42/4 7/38/4 8/10/4
f 13/12/4 14/42/4 8/10/4
f 6/43/5 15/44/5 2/15/5
f 15/44/5 8/13/5 2/15/5
f 8/16/6 15/45/6 16/17/6
f 20/20/7 17/46/7 18/47/7
f 15/19/7 6/48/7 19/49/7
f 6/48/7 5/50/7 19/49/7
f 20/20/7 18/47/7 16/18/7
f 15/19/7 19/49/7 20/20/7
f 21/21/2 22/51/2 18/22/2
f 21/24/5 17/52/5 12/25/5
f 22/27/1 21/53/1 11/28/1
f 10/39/3 9/11/3 22/32/3
f 9/11/3 16/30/3 22/32/3
usemtl Asphalt.149
f 7/54/1 17/55/1 5/56/1
f 14/42/4 12/40/4 7/38/4
f 20/20/7 5/50/7 17/46/7
f 7/54/1 12/57/1 17/55/1
f 14/42/4 13/12/4 12/40/4
f 20/20/7 19/49/7 5/50/7
