# Blender v2.79 (sub 7) OBJ File: ''
# www.blender.org
mtllib roadTile_167.mtl
o Mesh1_Group1_Model.007
v 0.595015 0.550000 -2.543430
v 0.595015 0.455000 -2.543430
v 0.649519 0.455000 -2.625000
v 0.649519 0.550000 -2.625000
v 0.194114 0.550000 -0.724444
v 0.097895 0.550000 -0.743584
v 0.000000 0.550000 0.000000
v 0.750000 0.455000 0.000000
v 0.750000 0.550000 0.000000
v 0.194114 0.550000 -2.275560
v 0.194114 0.455000 -2.275560
v 0.287013 0.455000 -2.307090
v 0.287013 0.550000 -2.307090
v 0.000000 0.455000 -2.250000
v 0.000000 0.550000 -2.250000
v 0.000000 0.550000 -3.000000
v 0.692910 0.550000 -0.287013
v 0.692910 0.455000 -0.287013
v 0.649519 0.455000 -0.375000
v 0.649519 0.550000 -0.375000
v 0.724444 0.550000 -2.805890
v 0.743584 0.550000 -2.902110
v 0.743584 0.455000 -0.097895
v 0.743584 0.550000 -0.097895
v 0.375000 0.550000 -0.649519
v 0.375000 0.455000 -0.649519
v 0.287013 0.455000 -0.692910
v 0.287013 0.550000 -0.692910
v 0.097895 0.550000 -2.256420
v 0.097895 0.455000 -2.256420
v 0.456571 0.550000 -2.404980
v 0.456571 0.455000 -2.404980
v 0.530330 0.455000 -2.469670
v 0.530330 0.550000 -2.469670
v 0.595015 0.550000 -0.456571
v 0.595015 0.455000 -0.456571
v 0.530330 0.455000 -0.530330
v 0.530330 0.550000 -0.530330
v 0.724444 0.455000 -2.805890
v 0.743584 0.455000 -2.902110
v 3.000000 0.000000 -3.000000
v 3.000000 0.000000 0.000000
v 0.750000 0.000000 0.000000
v 0.750000 0.000000 -3.000000
v 0.375000 0.550000 -2.350480
v 0.375000 0.455000 -2.350480
v 0.000000 0.455000 -0.750000
v 0.000000 0.000000 -0.750000
v 0.000000 0.000000 0.000000
v 0.692910 0.550000 -2.712990
v 0.692910 0.455000 -2.712990
v 0.194114 0.455000 -0.724444
v 0.097895 0.455000 -0.743584
v 0.000000 0.550000 -0.750000
v 0.000000 0.000000 -3.000000
v 0.000000 0.000000 -2.250000
v 0.456571 0.455000 -0.595015
v 0.456571 0.550000 -0.595015
v 0.724444 0.455000 -0.194114
v 0.724444 0.550000 -0.194114
v 0.750000 0.455000 -3.000000
v 0.750000 0.550000 -3.000000
v 3.000000 0.455000 0.000000
v 3.000000 0.455000 -3.000000
vt 2.445360 0.455000
vt 2.543460 0.550000
vt 2.445360 0.550000
vt 0.194114 0.724444
vt 0.097895 0.743584
vt 0.000000 0.000000
vt 0.750000 0.455000
vt 0.750000 0.550000
vt 0.000000 0.550000
vt 0.915266 0.455000
vt 1.013370 0.550000
vt 0.915266 0.550000
vt -2.250000 0.455000
vt -2.250000 0.550000
vt -3.000000 0.550000
vt -0.049052 0.455000
vt 0.049052 0.550000
vt -0.049052 0.550000
vt 0.724444 2.805890
vt 0.743584 2.902110
vt 0.000000 3.000000
vt -0.049052 0.455000
vt 0.049052 0.550000
vt -0.049052 0.550000
vt -0.049052 0.455000
vt 0.049052 0.550000
vt -0.049052 0.550000
vt 0.536219 0.455000
vt 0.634323 0.550000
vt 0.536219 0.550000
vt 1.928990 0.455000
vt 2.027090 0.550000
vt 1.928990 0.550000
vt -0.049052 0.455000
vt 0.049052 0.550000
vt -0.049052 0.550000
vt 2.893300 0.455000
vt 2.991410 0.550000
vt 2.893300 0.550000
vt -3.000000 0.000000
vt -0.750000 3.000000
vt -3.000000 3.000000
vt 2.206470 0.455000
vt 2.304570 0.550000
vt 2.206470 0.550000
vt 0.147157 0.455000
vt 0.245262 0.550000
vt 0.147157 0.550000
vt 1.617660 0.455000
vt 1.715760 0.550000
vt 1.617660 0.550000
vt -0.750000 0.455000
vt 0.000000 0.000000
vt 2.791740 0.455000
vt 2.889840 0.550000
vt 2.791740 0.550000
vt -0.049052 0.455000
vt 0.049052 0.550000
vt -0.049052 0.550000
vt -0.049052 0.455000
vt 0.049052 0.550000
vt -0.049052 0.550000
vt -0.049052 0.455000
vt 0.049052 0.550000
vt -0.049052 0.550000
vt -0.049052 0.455000
vt 0.049052 0.550000
vt -0.049052 0.550000
vt -3.000000 0.000000
vt -0.049052 0.455000
vt 0.049052 0.550000
vt -0.049052 0.550000
vt -0.049052 0.455000
vt 0.049052 0.550000
vt -0.049052 0.550000
vt -0.049052 0.455000
vt 0.049052 0.550000
vt -0.049052 0.550000
vt 2.641570 0.455000
vt 2.739670 0.550000
vt 2.641570 0.550000
vt 0.000000 0.750000
vt 0.750000 0.000000
vt 0.743584 0.097895
vt 0.724444 0.194114
vt 0.692910 0.287013
vt 0.649519 0.375000
vt 0.595015 0.456571
vt 0.530330 0.530330
vt 0.456571 0.595015
vt 0.375000 0.649519
vt 0.287013 0.692910
vt -0.750000 0.455000
vt -0.000000 -0.000000
vt -0.000000 0.550000
vt -0.750000 0.000000
vt -0.000000 0.750000
vt -0.000000 2.250000
vt -0.000000 3.000000
vt -0.750000 0.550000
vt 0.750000 3.000000
vt 0.000000 2.250000
vt 0.097895 2.256420
vt 0.194114 2.275560
vt 0.287013 2.307090
vt 0.375000 2.350480
vt 0.456571 2.404980
vt 0.530330 2.469670
vt 0.595015 2.543430
vt 0.649519 2.625000
vt 0.692910 2.712990
vt -0.750000 0.550000
vt -0.049052 0.455000
vt 0.049052 0.550000
vt -0.049052 0.550000
vt 1.277810 0.455000
vt 1.375920 0.550000
vt 1.277810 0.550000
vt 2.944520 0.455000
vt 3.042630 0.550000
vt 2.944520 0.550000
vt 2.543460 0.455000
vt 1.013370 0.455000
vt 0.049052 0.455000
vt 0.049052 0.455000
vt 0.049052 0.455000
vt 0.634323 0.455000
vt 2.027090 0.455000
vt 0.049052 0.455000
vt 2.991410 0.455000
vt 2.304570 0.455000
vt 0.245262 0.455000
vt 1.715760 0.455000
vt -0.750000 0.000000
vt 2.889840 0.455000
vt 0.049052 0.455000
vt 0.049052 0.455000
vt 0.049052 0.455000
vt 0.049052 0.455000
vt -2.250000 0.000000
vt 0.049052 0.455000
vt 0.049052 0.455000
vt 0.049052 0.455000
vt 2.739670 0.455000
vt -0.750000 -0.000000
vt 0.750000 0.000000
vt 0.049052 0.455000
vt 1.375920 0.455000
vt 3.042630 0.455000
vt 0.000000 2.250000
vt 0.097895 0.743584
vt 0.097895 2.256420
vt 3.000000 0.000000
vt 3.000000 0.000000
vt 0.000000 0.455000
vt 0.000000 0.000000
vt 0.724444 0.194114
vt 0.743584 0.097895
vt 3.000000 0.000000
vt 3.000000 3.000000
vt 0.595015 0.456571
vt 0.194114 0.724444
vt 0.287013 2.307090
vt 0.194114 2.275560
vt 0.287013 0.692910
vt 0.375000 2.350480
vt 0.375000 0.649519
vt 0.456571 2.404980
vt 0.530330 2.469670
vt 0.530330 0.530330
vt 0.456571 0.595015
vt 0.595015 2.543430
vt 0.649519 2.625000
vt 0.649519 0.375000
vt 0.692910 2.712990
vt 0.692910 0.287013
vt 0.724444 2.805890
vt 0.750000 3.000000
vt 0.743584 2.902110
vt 0.750000 0.000000
vt -3.000000 -0.000000
vt 0.000000 0.750000
vt 3.000000 0.455000
vt 3.000000 0.455000
vt -3.000000 0.455000
vn 0.7934 0.0000 0.6088
vn 0.8660 0.0000 0.5000
vn -0.0000 1.0000 0.0000
vn -0.0000 -0.0000 1.0000
vn 0.2588 0.0000 0.9659
vn 0.3827 0.0000 0.9239
vn -1.0000 0.0000 0.0000
vn 0.9239 0.0000 -0.3827
vn 0.8660 0.0000 -0.5000
vn 0.9979 0.0000 -0.0654
vn 0.9914 0.0000 -0.1305
vn 0.5000 0.0000 -0.8660
vn 0.3827 0.0000 -0.9239
vn 0.1305 0.0000 0.9914
vn 0.6088 0.0000 0.7934
vn 0.7071 0.0000 0.7071
vn 0.7934 0.0000 -0.6088
vn 0.7071 0.0000 -0.7071
vn 0.9659 0.0000 0.2588
vn 0.9914 0.0000 0.1305
vn 0.0000 -1.0000 -0.0000
vn 0.0654 0.0000 0.9979
vn 0.5000 0.0000 0.8660
vn 0.9239 0.0000 0.3827
vn 0.2588 0.0000 -0.9659
vn 0.1305 0.0000 -0.9914
vn 0.0654 0.0000 -0.9979
vn 0.6088 0.0000 -0.7934
vn 0.9659 -0.0000 -0.2588
vn 0.0000 0.0000 -1.0000
vn 0.9979 0.0000 0.0654
vn 1.0000 0.0000 0.0000
usemtl Grass.003
s 1
f 2/1/1 4/2/2 1/3/1
f 5/4/3 6/5/3 7/6/3
f 8/7/4 9/8/4 7/9/4
f 11/10/5 13/11/6 10/12/5
f 14/13/7 15/14/7 16/15/7
f 18/16/8 20/17/9 17/18/8
f 21/19/3 22/20/3 16/21/3
f 8/22/10 24/23/11 9/24/10
f 26/25/12 28/26/13 25/27/12
f 30/28/14 10/29/5 29/30/14
f 32/31/15 34/32/16 31/33/15
f 36/34/17 38/35/18 35/36/17
f 39/37/19 22/38/20 21/39/19
f 42/40/21 44/41/21 41/42/21
f 33/43/16 1/44/1 34/45/16
f 14/46/22 29/47/14 15/48/22
f 46/49/23 31/50/15 45/51/23
f 47/52/7 49/53/7 7/9/7
f 51/54/24 21/55/19 50/56/24
f 52/57/25 6/58/26 5/59/25
f 53/60/26 54/61/27 6/62/26
f 27/63/13 5/64/25 28/65/13
f 19/66/9 35/67/17 20/68/9
f 55/69/7 14/13/7 16/15/7
f 37/70/18 58/71/28 38/72/18
f 57/73/28 25/74/12 58/75/28
f 23/76/11 60/77/29 24/78/11
f 3/79/2 50/80/24 4/81/2
f 54/82/3 7/6/3 6/5/3
f 7/6/3 9/83/3 24/84/3
f 60/85/3 7/6/3 24/84/3
f 60/85/3 17/86/3 7/6/3
f 17/86/3 20/87/3 7/6/3
f 20/87/3 35/88/3 7/6/3
f 35/88/3 38/89/3 7/6/3
f 38/89/3 58/90/3 7/6/3
f 58/90/3 25/91/3 7/6/3
f 25/91/3 28/92/3 7/6/3
f 28/92/3 5/4/3 7/6/3
f 61/93/30 55/94/30 16/95/30
f 43/96/21 49/53/21 48/97/21
f 56/98/21 55/99/21 44/41/21
f 43/96/21 48/97/21 56/98/21
f 56/98/21 44/41/21 43/96/21
f 54/100/7 47/52/7 7/9/7
f 49/53/4 8/7/4 7/9/4
f 62/101/3 16/21/3 22/20/3
f 16/21/3 15/102/3 29/103/3
f 10/104/3 16/21/3 29/103/3
f 10/104/3 13/105/3 16/21/3
f 13/105/3 45/106/3 16/21/3
f 45/106/3 31/107/3 16/21/3
f 31/107/3 34/108/3 16/21/3
f 34/108/3 1/109/3 16/21/3
f 1/109/3 4/110/3 16/21/3
f 4/110/3 50/111/3 16/21/3
f 50/111/3 21/19/3 16/21/3
f 62/112/30 61/93/30 16/95/30
f 59/113/29 17/114/8 60/115/29
f 12/116/6 45/117/23 13/118/6
f 40/119/20 62/120/31 22/121/20
f 2/1/1 3/122/2 4/2/2
f 11/10/5 12/123/6 13/11/6
f 18/16/8 19/124/9 20/17/9
f 8/22/10 23/125/11 24/23/11
f 26/25/12 27/126/13 28/26/13
f 30/28/14 11/127/5 10/29/5
f 32/31/15 33/128/16 34/32/16
f 36/34/17 37/129/18 38/35/18
f 39/37/19 40/130/20 22/38/20
f 42/40/21 43/96/21 44/41/21
f 33/43/16 2/131/1 1/44/1
f 14/46/22 30/132/14 29/47/14
f 46/49/23 32/133/15 31/50/15
f 47/52/7 48/134/7 49/53/7
f 51/54/24 39/135/19 21/55/19
f 52/57/25 53/136/26 6/58/26
f 53/60/26 47/137/27 54/61/27
f 27/63/13 52/138/25 5/64/25
f 19/66/9 36/139/17 35/67/17
f 55/69/7 56/140/7 14/13/7
f 37/70/18 57/141/28 58/71/28
f 57/73/28 26/142/12 25/74/12
f 23/76/11 59/143/29 60/77/29
f 3/79/2 51/144/24 50/80/24
f 61/93/30 44/145/30 55/94/30
f 49/53/4 43/146/4 8/7/4
f 59/113/29 18/147/8 17/114/8
f 12/116/6 46/148/23 45/117/23
f 40/119/20 61/149/31 62/120/31
usemtl Water.002
f 14/150/3 53/151/3 30/152/3
f 42/153/4 8/7/4 43/146/4
f 41/154/32 63/155/32 42/156/32
f 59/157/3 23/158/3 63/159/3
f 48/134/7 14/13/7 56/140/7
f 64/160/3 36/161/3 63/159/3
f 52/162/3 12/163/3 11/164/3
f 27/165/3 46/166/3 12/163/3
f 26/167/3 32/168/3 46/166/3
f 33/169/3 32/168/3 37/170/3
f 32/168/3 57/171/3 37/170/3
f 2/172/3 33/169/3 36/161/3
f 33/169/3 37/170/3 36/161/3
f 3/173/3 2/172/3 64/160/3
f 53/151/3 11/164/3 30/152/3
f 36/161/3 19/174/3 63/159/3
f 51/175/3 3/173/3 64/160/3
f 19/174/3 18/176/3 63/159/3
f 39/177/3 51/175/3 64/160/3
f 18/176/3 59/157/3 63/159/3
f 64/160/3 61/178/3 40/179/3
f 40/179/3 39/177/3 64/160/3
f 23/158/3 8/180/3 63/159/3
f 61/93/30 41/181/30 44/145/30
f 14/150/3 47/182/3 53/151/3
f 42/153/4 63/183/4 8/7/4
f 41/154/32 64/184/32 63/155/32
f 48/134/7 47/52/7 14/13/7
f 64/160/3 2/172/3 36/161/3
f 52/162/3 27/165/3 12/163/3
f 27/165/3 26/167/3 46/166/3
f 26/167/3 57/171/3 32/168/3
f 53/151/3 52/162/3 11/164/3
f 61/93/30 64/185/30 41/181/30
