# Blender v2.79 (sub 7) OBJ File: ''
# www.blender.org
mtllib roadTile_025.mtl
o Mesh1_Group1_Model.294
v -1.500000 0.000000 -1.125000
v -1.500000 0.550000 -1.500000
v -1.500000 0.000000 -1.500000
v 1.500000 0.000000 -1.125000
v 1.500000 0.000000 1.125000
v -1.500000 0.000000 1.125000
v -1.500000 0.000000 1.500000
v 1.500000 0.550000 1.500000
v -1.500000 0.550000 1.500000
v -1.500000 0.550000 1.125000
v 1.500000 0.550000 1.125000
v 1.500000 0.000000 1.500000
v 1.500000 0.550000 -1.125000
v 1.500000 0.000000 -1.500000
v 1.500000 0.550000 -1.500000
v -1.500000 0.550000 -1.125000
v 1.500000 0.300000 0.750000
v 1.500000 0.630000 -1.125000
v -1.500000 0.630000 -1.125000
v -1.500000 0.630000 -0.750000
v 1.500000 0.630000 -0.750000
v -1.500000 0.300000 -0.750000
v -1.500000 0.630000 1.125000
v 1.500000 0.630000 1.125000
v 1.500000 0.630000 0.750000
v -1.500000 0.630000 0.750000
v -0.375000 0.600000 0.750000
v -1.500000 0.600000 -0.750000
v 1.500000 0.300000 -0.750000
v 1.500000 0.600000 -0.750000
v 1.500000 0.600000 0.750000
v -1.500000 0.300000 0.750000
v -1.500000 0.600000 0.750000
v 0.375000 0.600000 0.750000
v 0.375000 0.600000 0.562500
v 0.375000 0.600000 0.375000
v 0.375000 0.600000 0.000000
v 0.375000 0.600000 -0.375000
v 0.375000 0.600000 -0.562500
v -0.375000 0.600000 -0.562500
v -0.375000 0.600000 0.187500
v -0.375000 0.600000 0.562500
v -0.375000 0.600000 0.375000
v 0.375000 0.600000 0.187500
v -0.375000 0.600000 0.000000
v -0.375000 0.600000 -0.187500
v 0.375000 0.600000 -0.187500
v -0.375000 0.600000 -0.375000
vt -2.625000 0.000000
vt -3.000000 0.550000
vt -3.000000 0.000000
vt -3.000000 2.625000
vt -3.000000 0.375000
vt -0.000000 0.375000
vt -0.000000 -0.000000
vt 3.000000 0.550000
vt 0.000000 0.550000
vt -0.375000 0.550000
vt 3.000000 0.375000
vt 0.000000 0.000000
vt 3.000000 0.000000
vt 0.375000 0.000000
vt 0.000000 0.550000
vt 0.000000 0.000000
vt 2.625000 0.550000
vt 3.000000 0.000000
vt 3.000000 0.550000
vt 0.000000 2.625000
vt 3.000000 3.000000
vt 0.000000 3.000000
vt -3.000000 0.000000
vt -0.000000 0.550000
vt -3.000000 0.550000
vt -2.625000 0.550000
vt -3.000000 0.000000
vt 0.000000 2.625000
vt 0.000000 3.000000
vt -3.000000 3.000000
vt 3.000000 0.000000
vt -0.375000 0.000000
vt 0.000000 0.375000
vt 0.375000 0.550000
vt 2.625000 0.000000
vt 3.000000 2.625000
vt -0.000000 0.000000
vt 0.750000 0.300000
vt -3.000000 0.630000
vt -0.000000 0.550000
vt -0.000000 0.630000
vt 3.000000 2.625000
vt 0.000000 2.250000
vt 3.000000 2.250000
vt -2.250000 0.300000
vt 0.000000 0.630000
vt 3.000000 0.550000
vt 3.000000 0.630000
vt 0.000000 0.375000
vt 3.000000 0.750000
vt 0.000000 0.750000
vt -1.125000 0.600000
vt -0.000000 0.630000
vt -3.000000 0.630000
vt 0.000000 0.600000
vt 3.000000 0.630000
vt 0.000000 0.630000
vt 2.250000 0.300000
vt 2.625000 0.630000
vt 2.250000 0.600000
vt 2.250000 0.630000
vt 0.375000 0.630000
vt 0.750000 0.600000
vt 0.750000 0.630000
vt -3.000000 0.550000
vt 0.000000 2.625000
vt -0.750000 0.300000
vt -0.375000 0.630000
vt -0.750000 0.600000
vt -0.750000 0.630000
vt -2.625000 0.630000
vt -2.250000 0.600000
vt -2.250000 0.630000
vt 0.000000 0.550000
vt 3.000000 0.375000
vt -3.000000 0.600000
vt -1.875000 0.600000
vt -0.000000 0.600000
vt 3.000000 0.600000
vt 3.000000 2.250000
vt 1.875000 0.750000
vt 3.000000 0.750000
vt 1.875000 0.937500
vt 1.875000 1.125000
vt 1.875000 1.500000
vt 1.875000 1.875000
vt 1.875000 2.062500
vt 1.125000 2.062500
vt 0.000000 2.250000
vt 0.000000 0.750000
vt 1.125000 1.312500
vt 1.125000 0.750000
vt 1.125000 0.937500
vt 1.125000 1.125000
vt 1.875000 1.312500
vt 1.125000 1.500000
vt 1.125000 1.687500
vt 1.875000 1.687500
vt 1.125000 1.875000
vn -1.0000 0.0000 0.0000
vn 0.0000 -1.0000 -0.0000
vn 0.0000 0.0000 1.0000
vn 0.0000 1.0000 0.0000
vn 1.0000 0.0000 0.0000
vn 0.0000 0.0000 -1.0000
vn 0.0006 0.9998 -0.0216
vn -0.0003 0.9998 0.0210
vn 0.0000 0.9998 -0.0222
vn -0.3361 0.3702 0.8660
vn 0.0005 0.9998 0.0215
vn -0.1582 0.3684 0.9161
usemtl Grass.123
s 1
f 1/1/1 2/2/1 3/3/1
f 4/4/2 5/5/2 6/6/2
f 7/7/3 8/8/3 9/9/3
f 10/10/1 7/7/1 9/9/1
f 11/11/4 9/12/4 8/13/4
f 5/14/5 8/15/5 12/16/5
f 13/17/5 14/18/5 15/19/5
f 16/20/4 15/21/4 2/22/4
f 14/23/6 2/24/6 15/25/6
f 1/1/1 16/26/1 2/2/1
f 5/5/2 12/27/2 7/7/2
f 6/6/2 1/28/2 4/4/2
f 1/28/2 3/29/2 4/4/2
f 5/5/2 7/7/2 6/6/2
f 3/29/2 14/30/2 4/4/2
f 7/7/3 12/31/3 8/8/3
f 10/10/1 6/32/1 7/7/1
f 11/11/4 10/33/4 9/12/4
f 5/14/5 11/34/5 8/15/5
f 13/17/5 4/35/5 14/18/5
f 16/20/4 13/36/4 15/21/4
f 14/23/6 3/37/6 2/24/6
usemtl Stone.251
f 5/14/5 4/35/5 17/38/5
f 18/39/6 16/40/6 19/41/6
f 18/42/4 20/43/4 21/44/4
f 1/1/1 6/32/1 22/45/1
f 23/46/3 11/47/3 24/48/3
f 23/49/4 25/50/4 26/51/4
f 27/52/6 26/53/6 25/54/6
f 28/55/3 21/56/3 20/57/3
f 4/35/5 13/17/5 29/58/5
f 13/17/5 18/59/5 30/60/5
f 29/58/5 13/17/5 30/60/5
f 18/59/5 21/61/5 30/60/5
f 24/62/5 11/34/5 31/63/5
f 11/34/5 5/14/5 17/38/5
f 31/63/5 25/64/5 24/62/5
f 17/38/5 31/63/5 11/34/5
f 4/35/5 29/58/5 17/38/5
f 18/39/6 13/65/6 16/40/6
f 18/42/4 19/66/4 20/43/4
f 6/32/1 10/10/1 32/67/1
f 10/10/1 23/68/1 33/69/1
f 32/67/1 10/10/1 33/69/1
f 23/68/1 26/70/1 33/69/1
f 19/71/1 16/26/1 28/72/1
f 16/26/1 1/1/1 22/45/1
f 28/72/1 20/73/1 19/71/1
f 22/45/1 28/72/1 16/26/1
f 6/32/1 32/67/1 22/45/1
f 23/46/3 10/74/3 11/47/3
f 23/49/4 24/75/4 25/50/4
f 25/54/6 31/76/6 34/77/6
f 27/52/6 33/78/6 26/53/6
f 25/54/6 34/77/6 27/52/6
f 28/55/3 30/79/3 21/56/3
usemtl Asphalt.204
f 30/80/4 34/81/4 31/82/4
f 30/80/4 35/83/4 34/81/4
f 30/80/4 36/84/4 35/83/4
f 30/80/4 37/85/4 36/84/4
f 30/80/4 38/86/4 37/85/4
f 30/80/4 39/87/4 38/86/4
f 30/80/4 40/88/4 39/87/4
f 28/89/4 40/88/4 30/80/4
f 40/88/4 28/89/4 33/90/4
f 22/45/1 33/69/1 28/72/1
f 33/90/4 41/91/4 40/88/4
f 41/91/4 33/90/4 27/92/4
f 41/91/4 27/92/4 42/93/4
f 36/84/4 42/93/4 35/83/4
f 42/93/4 36/84/4 43/94/7
f 37/85/4 44/95/8 36/84/4
f 45/96/9 44/95/8 37/85/4
f 45/96/9 41/91/4 44/95/8
f 41/91/4 45/96/9 46/97/10
f 38/86/4 47/98/11 37/85/4
f 38/86/4 46/97/10 47/98/11
f 46/97/10 38/86/4 48/99/12
f 40/88/4 46/97/10 48/99/12
f 40/88/4 41/91/4 46/97/10
f 41/91/4 42/93/4 43/94/7
f 17/38/5 30/60/5 31/63/5
f 22/45/1 32/67/1 33/69/1
f 17/38/5 29/58/5 30/60/5
usemtl White.002
f 35/83/4 27/92/4 34/81/4
f 44/95/8 43/94/7 36/84/4
f 47/98/11 45/96/9 37/85/4
f 39/87/4 48/99/12 38/86/4
f 35/83/4 42/93/4 27/92/4
f 44/95/8 41/91/4 43/94/7
f 47/98/11 46/97/10 45/96/9
f 39/87/4 40/88/4 48/99/12
