# Blender v2.79 (sub 7) OBJ File: ''
# www.blender.org
mtllib roadTile_229.mtl
o Mesh1_Group1_Model.200
v -1.500000 0.850000 -0.375000
v -1.500000 1.150000 1.125000
v -1.500000 1.150000 -0.375000
v 1.500000 0.600000 1.125000
v 1.500000 0.600000 -0.375000
v 1.500000 0.300000 -0.375000
v -1.500000 0.850000 1.125000
v 1.500000 0.300000 1.125000
v -1.500000 0.550000 -0.750000
v -1.500000 0.550000 1.500000
v 1.500000 0.000000 -0.750000
v 1.500000 0.000000 1.500000
v 1.500000 0.630000 1.500000
v -1.500000 1.180000 1.500000
v 1.500000 0.630000 -0.750000
v -1.500000 1.180000 -0.750000
v -1.500000 1.180000 -0.375000
v 1.500000 0.630000 -0.375000
v 1.500000 0.630000 1.125000
v -1.500000 1.180000 1.125000
vt -1.875000 0.850000
vt -0.375000 1.150000
vt -1.875000 1.150000
vt 1.875000 0.207377
vt 0.375000 -2.842620
vt 1.875000 -2.842620
vt 0.375000 0.600000
vt 1.875000 0.300000
vt 1.875000 0.600000
vt -0.375000 0.850000
vt 0.375000 0.207377
vt 0.375000 0.300000
vt -2.250000 0.550000
vt 0.000000 0.550000
vt 0.000000 0.099180
vt -2.250000 -2.950820
vt -0.000000 -2.950820
vt 3.000000 0.630000
vt -0.000000 1.180000
vt 0.000000 0.000000
vt 2.250000 0.000000
vt -3.000000 0.630000
vt -0.000000 0.550000
vt -0.000000 1.180000
vt 2.250000 -2.837210
vt 1.875000 0.212787
vt 1.875000 -2.837210
vt 0.000000 1.150000
vt 3.000000 0.630000
vt 0.000000 1.180000
vt -0.000000 1.150000
vt -3.000000 0.630000
vt -3.000000 0.600000
vt 0.000000 0.212787
vt 0.375000 -2.837210
vt 0.375000 0.212787
vt -0.375000 1.180000
vt -1.875000 1.180000
vt -2.250000 1.180000
vt -2.250000 0.099180
vt 3.000000 -0.000000
vt 2.250000 0.630000
vt 1.875000 0.630000
vt 0.375000 0.630000
vt 0.000000 0.630000
vt -3.000000 0.000000
vt 2.250000 0.212787
vt 3.000000 0.600000
vt -0.000000 1.180000
vt 0.000000 -2.837210
vn -1.0000 0.0000 0.0000
vn 0.1803 0.9836 0.0000
vn 1.0000 0.0000 0.0000
vn -0.1803 -0.9836 -0.0000
vn 0.0000 0.0000 1.0000
vn 0.0000 0.0000 -1.0000
usemtl Asphalt.144
s 1
f 1/1/1 2/2/1 3/3/1
f 3/4/2 4/5/2 5/6/2
f 4/7/3 6/8/3 5/9/3
f 1/1/1 7/10/1 2/2/1
f 3/4/2 2/11/2 4/5/2
f 4/7/3 8/12/3 6/8/3
usemtl Stone.173
f 9/13/1 10/14/1 1/1/1
f 10/15/4 11/16/4 12/17/4
f 10/14/5 13/18/5 14/19/5
f 12/20/3 11/21/3 8/12/3
f 15/22/6 9/23/6 16/24/6
f 15/25/2 17/26/2 18/27/2
f 3/28/5 18/29/5 17/30/5
f 2/31/6 19/32/6 4/33/6
f 14/34/2 19/35/2 20/36/2
f 10/14/1 14/19/1 7/10/1
f 14/19/1 20/37/1 2/2/1
f 2/2/1 7/10/1 14/19/1
f 17/38/1 16/39/1 3/3/1
f 16/39/1 9/13/1 1/1/1
f 3/3/1 16/39/1 1/1/1
f 10/14/1 7/10/1 1/1/1
f 10/15/4 9/40/4 11/16/4
f 10/14/5 12/41/5 13/18/5
f 11/21/3 15/42/3 6/8/3
f 15/42/3 18/43/3 5/9/3
f 5/9/3 6/8/3 15/42/3
f 19/44/3 13/45/3 4/7/3
f 13/45/3 12/20/3 8/12/3
f 4/7/3 13/45/3 8/12/3
f 11/21/3 6/8/3 8/12/3
f 15/22/6 11/46/6 9/23/6
f 15/25/2 16/47/2 17/26/2
f 3/28/5 5/48/5 18/29/5
f 2/31/6 20/49/6 19/32/6
f 14/34/2 13/50/2 19/35/2
