# Blender v2.79 (sub 7) OBJ File: ''
# www.blender.org
mtllib roadTile_245.mtl
o Mesh1_Group1_Model.037
v -1.500000 0.000000 1.500000
v -1.500000 1.400000 0.750000
v -1.500000 1.400000 -0.750000
v -1.500000 1.730000 1.500000
v 1.500000 1.730000 0.750000
v -1.500000 1.730000 0.750000
v 1.500000 0.000000 1.500000
v -1.500000 0.000000 -1.500000
v 1.500000 1.730000 -1.500000
v 1.500000 0.000000 -1.500000
v -1.500000 1.730000 -0.750000
v 1.500000 1.730000 -0.750000
v 1.500000 0.300000 -0.750000
v 1.500000 0.600000 -0.750000
v 1.500000 0.600000 0.750000
v -1.500000 1.730000 -1.500000
v 1.500000 1.730000 1.500000
v 1.500000 0.300000 0.750000
vt 0.000000 0.000000
vt -0.750000 1.400000
vt -2.250000 1.400000
vt 0.000000 0.000000
vt 3.000000 0.750000
vt 0.000000 0.750000
vt 3.000000 -0.000000
vt 0.000000 1.730000
vt -0.000000 3.000000
vt -3.000000 0.000000
vt -0.000000 0.000000
vt -3.000000 1.730000
vt -3.000000 0.000000
vt 3.000000 3.000000
vt 0.000000 2.250000
vt 3.000000 2.250000
vt 0.000000 0.000000
vt 3.000000 0.000000
vt 2.250000 0.300000
vt 3.000000 1.730000
vt 0.000000 1.730000
vt 3.000000 0.600000
vt -3.000000 1.730000
vt -3.000000 0.600000
vt -0.000000 1.730000
vt -0.750000 1.730000
vt -3.000000 1.730000
vt -3.000000 0.000000
vt -2.250000 1.730000
vt 3.000000 0.000000
vt 3.000000 1.730000
vt -3.000000 3.000000
vt -0.000000 1.730000
vt 0.000000 3.000000
vt 0.750000 1.730000
vt 0.000000 1.730000
vt 0.750000 0.600000
vt 3.000000 1.730000
vt 2.250000 0.600000
vt 2.250000 1.730000
vt 0.750000 0.300000
vt 0.750000 -2.595950
vt 2.250000 0.609809
vt 0.750000 0.609809
vt 2.250000 -2.595950
vn -1.0000 -0.0000 0.0000
vn 0.0000 1.0000 0.0000
vn 0.0000 -0.0000 1.0000
vn 0.0000 -1.0000 -0.0000
vn 0.0000 0.0000 -1.0000
vn 1.0000 0.0000 0.0000
vn 0.3525 0.9358 0.0000
usemtl Stone.030
s 1
f 1/1/1 2/2/1 3/3/1
f 4/4/2 5/5/2 6/6/2
f 7/7/3 4/8/3 1/1/3
f 8/9/4 7/10/4 1/1/4
f 8/11/5 9/12/5 10/13/5
f 9/14/2 11/15/2 12/16/2
f 7/17/6 10/18/6 13/19/6
f 12/20/3 11/21/3 14/22/3
f 5/23/5 15/24/5 6/25/5
f 1/1/1 4/8/1 2/2/1
f 4/8/1 6/26/1 2/2/1
f 16/27/1 8/28/1 3/3/1
f 8/28/1 1/1/1 3/3/1
f 3/3/1 11/29/1 16/27/1
f 4/4/2 17/30/2 5/5/2
f 7/7/3 17/31/3 4/8/3
f 8/9/4 10/32/4 7/10/4
f 8/11/5 16/33/5 9/12/5
f 9/14/2 16/34/2 11/15/2
f 5/35/6 17/36/6 15/37/6
f 17/36/6 7/17/6 15/37/6
f 10/18/6 9/38/6 14/39/6
f 9/38/6 12/40/6 14/39/6
f 14/39/6 13/19/6 10/18/6
f 18/41/6 15/37/6 7/17/6
f 13/19/6 18/41/6 7/17/6
usemtl Asphalt.022
f 15/42/7 11/43/7 6/44/7
f 18/41/6 14/39/6 15/37/6
f 11/29/1 2/2/1 6/26/1
f 15/42/7 14/45/7 11/43/7
f 18/41/6 13/19/6 14/39/6
f 11/29/1 3/3/1 2/2/1
